G75*
G70*
%OFA0B0*%
%FSLAX24Y24*%
%IPPOS*%
%LPD*%
%AMOC8*
5,1,8,0,0,1.08239X$1,22.5*
%
%ADD10C,0.0010*%
%ADD11C,0.0140*%
%ADD12C,0.0100*%
%ADD13C,0.0070*%
%ADD14C,0.0000*%
%ADD15C,0.0120*%
D10*
X011504Y004507D02*
X013504Y004507D01*
X013597Y004506D01*
X013690Y004511D01*
X013782Y004519D01*
X013874Y004532D01*
X013965Y004550D01*
X014055Y004572D01*
X014145Y004598D01*
X014232Y004628D01*
X014319Y004662D01*
X014403Y004701D01*
X014486Y004743D01*
X014566Y004789D01*
X014645Y004839D01*
X014720Y004893D01*
X014793Y004950D01*
X014864Y005011D01*
X014931Y005075D01*
X014995Y005142D01*
X015056Y005212D01*
X015114Y005285D01*
X015168Y005360D01*
X015218Y005439D01*
X015265Y005519D01*
X015307Y005601D01*
X015346Y005686D01*
X015381Y005772D01*
X015411Y005860D01*
X015438Y005949D01*
X015460Y006039D01*
X015477Y006130D01*
X015491Y006222D01*
X015500Y006314D01*
X015504Y006407D01*
X015504Y022507D01*
X015502Y022602D01*
X015495Y022697D01*
X015484Y022792D01*
X015468Y022886D01*
X015448Y022979D01*
X015423Y023070D01*
X015394Y023161D01*
X015361Y023250D01*
X015323Y023338D01*
X015282Y023423D01*
X015236Y023507D01*
X015187Y023588D01*
X015133Y023667D01*
X015076Y023743D01*
X015015Y023817D01*
X014951Y023887D01*
X014884Y023954D01*
X014814Y024018D01*
X014740Y024079D01*
X014664Y024136D01*
X014585Y024190D01*
X014504Y024239D01*
X014420Y024285D01*
X014335Y024326D01*
X014247Y024364D01*
X014158Y024397D01*
X014067Y024426D01*
X013976Y024451D01*
X013883Y024471D01*
X013789Y024487D01*
X013694Y024498D01*
X013599Y024505D01*
X013504Y024507D01*
X011504Y024507D01*
X011021Y024495D01*
X010539Y024460D01*
X010059Y024402D01*
X009583Y024321D01*
X009111Y024216D01*
X008645Y024089D01*
X008185Y023940D01*
X007733Y023769D01*
X007290Y023576D01*
X006857Y023362D01*
X006434Y023127D01*
X006024Y022872D01*
X005626Y022597D01*
X005242Y022304D01*
X004873Y021992D01*
X004519Y021663D01*
X004181Y021317D01*
X003861Y020955D01*
X003558Y020579D01*
X003274Y020188D01*
X003009Y019783D01*
X002764Y019367D01*
X002540Y018939D01*
X002336Y018501D01*
X002154Y018053D01*
X001993Y017597D01*
X001855Y017134D01*
X001740Y016665D01*
X001647Y016191D01*
X001577Y015712D01*
X001530Y015231D01*
X001507Y014749D01*
X001507Y014265D01*
X001530Y013783D01*
X001577Y013302D01*
X001647Y012823D01*
X001740Y012349D01*
X001855Y011880D01*
X001993Y011417D01*
X002154Y010961D01*
X002336Y010513D01*
X002540Y010075D01*
X002764Y009647D01*
X003009Y009231D01*
X003274Y008826D01*
X003558Y008435D01*
X003861Y008059D01*
X004181Y007697D01*
X004519Y007351D01*
X004873Y007022D01*
X005242Y006710D01*
X005626Y006417D01*
X006024Y006142D01*
X006434Y005887D01*
X006857Y005652D01*
X007290Y005438D01*
X007733Y005245D01*
X008185Y005074D01*
X008645Y004925D01*
X009111Y004798D01*
X009583Y004693D01*
X010059Y004612D01*
X010539Y004554D01*
X011021Y004519D01*
X011504Y004507D01*
D11*
X012574Y016677D02*
X012574Y017051D01*
X012761Y017238D01*
X012948Y017051D01*
X012948Y016677D01*
X012948Y016958D02*
X012574Y016958D01*
D12*
X009504Y018907D02*
X009506Y018927D01*
X009512Y018945D01*
X009521Y018963D01*
X009533Y018978D01*
X009548Y018990D01*
X009566Y018999D01*
X009584Y019005D01*
X009604Y019007D01*
X009624Y019005D01*
X009642Y018999D01*
X009660Y018990D01*
X009675Y018978D01*
X009687Y018963D01*
X009696Y018945D01*
X009702Y018927D01*
X009704Y018907D01*
X009702Y018887D01*
X009696Y018869D01*
X009687Y018851D01*
X009675Y018836D01*
X009660Y018824D01*
X009642Y018815D01*
X009624Y018809D01*
X009604Y018807D01*
X009584Y018809D01*
X009566Y018815D01*
X009548Y018824D01*
X009533Y018836D01*
X009521Y018851D01*
X009512Y018869D01*
X009506Y018887D01*
X009504Y018907D01*
X009563Y021707D02*
X009565Y021730D01*
X009571Y021753D01*
X009580Y021774D01*
X009593Y021794D01*
X009609Y021811D01*
X009627Y021825D01*
X009647Y021836D01*
X009669Y021844D01*
X009692Y021848D01*
X009716Y021848D01*
X009739Y021844D01*
X009761Y021836D01*
X009781Y021825D01*
X009799Y021811D01*
X009815Y021794D01*
X009828Y021774D01*
X009837Y021753D01*
X009843Y021730D01*
X009845Y021707D01*
X009843Y021684D01*
X009837Y021661D01*
X009828Y021640D01*
X009815Y021620D01*
X009799Y021603D01*
X009781Y021589D01*
X009761Y021578D01*
X009739Y021570D01*
X009716Y021566D01*
X009692Y021566D01*
X009669Y021570D01*
X009647Y021578D01*
X009627Y021589D01*
X009609Y021603D01*
X009593Y021620D01*
X009580Y021640D01*
X009571Y021661D01*
X009565Y021684D01*
X009563Y021707D01*
X008247Y014507D02*
X008251Y014667D01*
X008263Y014826D01*
X008282Y014985D01*
X008310Y015142D01*
X008345Y015298D01*
X008387Y015452D01*
X008437Y015604D01*
X008495Y015753D01*
X008560Y015900D01*
X008632Y016042D01*
X008710Y016181D01*
X008796Y016316D01*
X008888Y016447D01*
X008986Y016573D01*
X009091Y016694D01*
X009201Y016810D01*
X009317Y016920D01*
X009438Y017025D01*
X009564Y017123D01*
X009695Y017215D01*
X009830Y017301D01*
X009969Y017379D01*
X010111Y017451D01*
X010258Y017516D01*
X010407Y017574D01*
X010559Y017624D01*
X010713Y017666D01*
X010869Y017701D01*
X011026Y017729D01*
X011185Y017748D01*
X011344Y017760D01*
X011504Y017764D01*
X011664Y017760D01*
X011823Y017748D01*
X011982Y017729D01*
X012139Y017701D01*
X012295Y017666D01*
X012449Y017624D01*
X012601Y017574D01*
X012750Y017516D01*
X012897Y017451D01*
X013039Y017379D01*
X013178Y017301D01*
X013313Y017215D01*
X013444Y017123D01*
X013570Y017025D01*
X013691Y016920D01*
X013807Y016810D01*
X013917Y016694D01*
X014022Y016573D01*
X014120Y016447D01*
X014212Y016316D01*
X014298Y016181D01*
X014376Y016042D01*
X014448Y015900D01*
X014513Y015753D01*
X014571Y015604D01*
X014621Y015452D01*
X014663Y015298D01*
X014698Y015142D01*
X014726Y014985D01*
X014745Y014826D01*
X014757Y014667D01*
X014761Y014507D01*
X014757Y014347D01*
X014745Y014188D01*
X014726Y014029D01*
X014698Y013872D01*
X014663Y013716D01*
X014621Y013562D01*
X014571Y013410D01*
X014513Y013261D01*
X014448Y013114D01*
X014376Y012972D01*
X014298Y012833D01*
X014212Y012698D01*
X014120Y012567D01*
X014022Y012441D01*
X013917Y012320D01*
X013807Y012204D01*
X013691Y012094D01*
X013570Y011989D01*
X013444Y011891D01*
X013313Y011799D01*
X013178Y011713D01*
X013039Y011635D01*
X012897Y011563D01*
X012750Y011498D01*
X012601Y011440D01*
X012449Y011390D01*
X012295Y011348D01*
X012139Y011313D01*
X011982Y011285D01*
X011823Y011266D01*
X011664Y011254D01*
X011504Y011250D01*
X011344Y011254D01*
X011185Y011266D01*
X011026Y011285D01*
X010869Y011313D01*
X010713Y011348D01*
X010559Y011390D01*
X010407Y011440D01*
X010258Y011498D01*
X010111Y011563D01*
X009969Y011635D01*
X009830Y011713D01*
X009695Y011799D01*
X009564Y011891D01*
X009438Y011989D01*
X009317Y012094D01*
X009201Y012204D01*
X009091Y012320D01*
X008986Y012441D01*
X008888Y012567D01*
X008796Y012698D01*
X008710Y012833D01*
X008632Y012972D01*
X008560Y013114D01*
X008495Y013261D01*
X008437Y013410D01*
X008387Y013562D01*
X008345Y013716D01*
X008310Y013872D01*
X008282Y014029D01*
X008263Y014188D01*
X008251Y014347D01*
X008247Y014507D01*
X006363Y012407D02*
X006365Y012430D01*
X006371Y012453D01*
X006380Y012474D01*
X006393Y012494D01*
X006409Y012511D01*
X006427Y012525D01*
X006447Y012536D01*
X006469Y012544D01*
X006492Y012548D01*
X006516Y012548D01*
X006539Y012544D01*
X006561Y012536D01*
X006581Y012525D01*
X006599Y012511D01*
X006615Y012494D01*
X006628Y012474D01*
X006637Y012453D01*
X006643Y012430D01*
X006645Y012407D01*
X006643Y012384D01*
X006637Y012361D01*
X006628Y012340D01*
X006615Y012320D01*
X006599Y012303D01*
X006581Y012289D01*
X006561Y012278D01*
X006539Y012270D01*
X006516Y012266D01*
X006492Y012266D01*
X006469Y012270D01*
X006447Y012278D01*
X006427Y012289D01*
X006409Y012303D01*
X006393Y012320D01*
X006380Y012340D01*
X006371Y012361D01*
X006365Y012384D01*
X006363Y012407D01*
X010763Y008507D02*
X010765Y008530D01*
X010771Y008553D01*
X010780Y008574D01*
X010793Y008594D01*
X010809Y008611D01*
X010827Y008625D01*
X010847Y008636D01*
X010869Y008644D01*
X010892Y008648D01*
X010916Y008648D01*
X010939Y008644D01*
X010961Y008636D01*
X010981Y008625D01*
X010999Y008611D01*
X011015Y008594D01*
X011028Y008574D01*
X011037Y008553D01*
X011043Y008530D01*
X011045Y008507D01*
X011043Y008484D01*
X011037Y008461D01*
X011028Y008440D01*
X011015Y008420D01*
X010999Y008403D01*
X010981Y008389D01*
X010961Y008378D01*
X010939Y008370D01*
X010916Y008366D01*
X010892Y008366D01*
X010869Y008370D01*
X010847Y008378D01*
X010827Y008389D01*
X010809Y008403D01*
X010793Y008420D01*
X010780Y008440D01*
X010771Y008461D01*
X010765Y008484D01*
X010763Y008507D01*
X013504Y009507D02*
X013504Y006507D01*
X014504Y006507D01*
X014504Y009507D01*
X013504Y009507D01*
X013504Y011507D01*
X014504Y011507D01*
X014504Y009507D01*
D13*
X014821Y009742D02*
X014739Y009824D01*
X014821Y009742D02*
X014984Y009742D01*
X015066Y009824D01*
X015066Y009906D01*
X014984Y009988D01*
X014821Y009988D01*
X014739Y010069D01*
X014739Y010151D01*
X014821Y010233D01*
X014984Y010233D01*
X015066Y010151D01*
X014984Y010742D02*
X014739Y010742D01*
X014739Y011233D01*
X014984Y011233D01*
X015066Y011151D01*
X015066Y010824D01*
X014984Y010742D01*
X014984Y009133D02*
X014821Y009133D01*
X014739Y009051D01*
X014739Y008724D01*
X014821Y008642D01*
X014984Y008642D01*
X015066Y008724D01*
X015066Y008888D01*
X014902Y008888D01*
X015066Y009051D02*
X014984Y009133D01*
X015066Y008133D02*
X014739Y008133D01*
X014739Y007888D01*
X014902Y007969D01*
X014984Y007969D01*
X015066Y007888D01*
X015066Y007724D01*
X014984Y007642D01*
X014821Y007642D01*
X014739Y007724D01*
D14*
X010913Y014507D02*
X010915Y014555D01*
X010921Y014603D01*
X010931Y014650D01*
X010944Y014696D01*
X010962Y014741D01*
X010982Y014785D01*
X011007Y014827D01*
X011035Y014866D01*
X011065Y014903D01*
X011099Y014937D01*
X011136Y014969D01*
X011174Y014998D01*
X011215Y015023D01*
X011258Y015045D01*
X011303Y015063D01*
X011349Y015077D01*
X011396Y015088D01*
X011444Y015095D01*
X011492Y015098D01*
X011540Y015097D01*
X011588Y015092D01*
X011636Y015083D01*
X011682Y015071D01*
X011727Y015054D01*
X011771Y015034D01*
X011813Y015011D01*
X011853Y014984D01*
X011891Y014954D01*
X011926Y014921D01*
X011958Y014885D01*
X011988Y014847D01*
X012014Y014806D01*
X012036Y014763D01*
X012056Y014719D01*
X012071Y014674D01*
X012083Y014627D01*
X012091Y014579D01*
X012095Y014531D01*
X012095Y014483D01*
X012091Y014435D01*
X012083Y014387D01*
X012071Y014340D01*
X012056Y014295D01*
X012036Y014251D01*
X012014Y014208D01*
X011988Y014167D01*
X011958Y014129D01*
X011926Y014093D01*
X011891Y014060D01*
X011853Y014030D01*
X011813Y014003D01*
X011771Y013980D01*
X011727Y013960D01*
X011682Y013943D01*
X011636Y013931D01*
X011588Y013922D01*
X011540Y013917D01*
X011492Y013916D01*
X011444Y013919D01*
X011396Y013926D01*
X011349Y013937D01*
X011303Y013951D01*
X011258Y013969D01*
X011215Y013991D01*
X011174Y014016D01*
X011136Y014045D01*
X011099Y014077D01*
X011065Y014111D01*
X011035Y014148D01*
X011007Y014187D01*
X010982Y014229D01*
X010962Y014273D01*
X010944Y014318D01*
X010931Y014364D01*
X010921Y014411D01*
X010915Y014459D01*
X010913Y014507D01*
D15*
X007584Y015355D02*
X007539Y015295D01*
X007134Y015280D01*
X007044Y015145D01*
X007194Y014890D01*
X007194Y014680D01*
X006909Y014440D01*
X006804Y014440D01*
X006549Y014590D01*
X006504Y014605D01*
X006354Y014545D01*
X006294Y014260D01*
X006219Y014200D01*
X005859Y014170D01*
X005799Y014215D01*
X005694Y014410D01*
X005634Y014455D01*
X005424Y014485D01*
X005259Y014290D01*
X005169Y014245D01*
X004869Y014380D01*
X004839Y014470D01*
X004884Y014740D01*
X004719Y014920D01*
X004659Y014935D01*
X004404Y014860D01*
X004314Y014860D01*
X004119Y015130D01*
X004149Y015220D01*
X004329Y015415D01*
X004329Y015475D01*
X004269Y015685D01*
X004224Y015730D01*
X003969Y015790D01*
X003909Y015835D01*
X003864Y016195D01*
X003924Y016255D01*
X004224Y016330D01*
X004254Y016480D01*
X004239Y016555D01*
X004044Y016795D01*
X004044Y016885D01*
X004209Y017200D01*
X004284Y017230D01*
X004584Y017125D01*
X004674Y017140D01*
X004794Y017275D01*
X004809Y017365D01*
X004764Y017605D01*
X004794Y017680D01*
X005184Y017845D01*
X005304Y017785D01*
X005484Y017470D01*
X005739Y017440D01*
X005784Y017470D01*
X006024Y017815D01*
X006159Y017815D01*
X006594Y017635D01*
X006624Y017545D01*
X006564Y017260D01*
X006564Y017170D01*
X006744Y016990D01*
X006819Y016975D01*
X007134Y017095D01*
X007239Y017080D01*
X007509Y016660D01*
X007509Y016555D01*
X007239Y016300D01*
X007179Y016255D01*
X007179Y016075D01*
X007239Y016030D01*
X007569Y015940D01*
X007644Y015820D01*
X007584Y015355D01*
X006759Y015490D02*
X006684Y015400D01*
X006609Y015295D01*
X006534Y015220D01*
X006684Y015400D02*
X006714Y015700D01*
X006699Y016150D01*
X006714Y016225D01*
X006804Y016000D01*
X006819Y015730D01*
X006759Y015490D01*
X006264Y015595D02*
X006189Y015535D01*
X006099Y015520D01*
X005949Y015535D01*
X005859Y015610D01*
X005784Y015730D01*
X005769Y015805D01*
X006219Y015745D01*
X006264Y015700D01*
X006264Y015595D01*
X005904Y014935D02*
X005769Y014935D01*
X005604Y014950D01*
X005469Y014980D01*
X005334Y015040D01*
X005169Y015145D01*
X005019Y015265D01*
X004884Y015445D01*
X004779Y015610D01*
X004689Y015910D01*
X004689Y016060D01*
X004749Y015985D01*
X004839Y015955D01*
X004974Y015925D01*
X005094Y015910D01*
X005199Y015895D01*
X005244Y015850D01*
X005259Y015670D01*
X005304Y015550D01*
X005409Y015280D01*
X005529Y015100D01*
X005649Y015010D01*
X005769Y014935D01*
X005964Y016390D02*
X005724Y016420D01*
X005439Y016450D01*
X005229Y016480D01*
X005139Y016540D01*
X005064Y016615D01*
X005019Y016705D01*
X004989Y016810D01*
X005064Y016870D01*
X005154Y016930D01*
X005274Y016990D01*
X005454Y017035D01*
X005739Y017035D01*
X005829Y017020D01*
X006129Y016900D01*
X006264Y016810D01*
X006369Y016735D01*
X006444Y016660D01*
X006219Y016615D01*
X006129Y016585D01*
X006084Y016525D01*
X006084Y016480D01*
X006129Y016375D01*
X005964Y016390D01*
M02*
