G75*
G70*
%OFA0B0*%
%FSLAX24Y24*%
%IPPOS*%
%LPD*%
%AMOC8*
5,1,8,0,0,1.08239X$1,22.5*
%
%ADD10C,0.0070*%
%ADD11C,0.0080*%
%ADD12C,0.0010*%
%ADD13C,0.0000*%
%ADD14C,0.0040*%
D10*
X008079Y010384D02*
X008242Y010548D01*
X008079Y010711D01*
X008569Y010711D01*
X008406Y010982D02*
X008406Y011145D01*
X008324Y011227D01*
X008079Y011227D01*
X008079Y010982D01*
X008161Y010900D01*
X008242Y010982D01*
X008242Y011227D01*
X008242Y011416D02*
X008406Y011579D01*
X008406Y011661D01*
X008406Y011845D02*
X008079Y011845D01*
X008242Y011845D02*
X008406Y012009D01*
X008406Y012090D01*
X008324Y012275D02*
X008161Y012275D01*
X008079Y012357D01*
X008079Y012520D01*
X008242Y012602D02*
X008242Y012275D01*
X008324Y012275D02*
X008406Y012357D01*
X008406Y012520D01*
X008324Y012602D01*
X008242Y012602D01*
X008079Y012791D02*
X008406Y012791D01*
X008406Y013036D01*
X008324Y013118D01*
X008079Y013118D01*
X007606Y013181D02*
X007606Y012936D01*
X007279Y012936D01*
X007279Y012747D02*
X007279Y012502D01*
X007361Y012420D01*
X007442Y012502D01*
X007442Y012747D01*
X007524Y012747D02*
X007279Y012747D01*
X007524Y012747D02*
X007606Y012666D01*
X007606Y012502D01*
X007606Y012232D02*
X007279Y012068D01*
X007606Y011905D01*
X007769Y011716D02*
X007769Y011389D01*
X007279Y011389D01*
X007279Y011716D01*
X007524Y011553D02*
X007524Y011389D01*
X008079Y011416D02*
X008406Y011416D01*
X008569Y010384D02*
X008079Y010384D01*
X008839Y012392D02*
X008839Y012638D01*
X008921Y012719D01*
X009248Y012719D01*
X009329Y012638D01*
X009329Y012392D01*
X008839Y012392D01*
X008921Y012908D02*
X008839Y012990D01*
X008839Y013153D01*
X009002Y013235D02*
X009002Y012908D01*
X008921Y012908D02*
X009084Y012908D01*
X009166Y012990D01*
X009166Y013153D01*
X009084Y013235D01*
X009002Y013235D01*
X009084Y013424D02*
X009166Y013505D01*
X009166Y013751D01*
X009002Y013669D02*
X008921Y013751D01*
X008839Y013669D01*
X008839Y013424D01*
X009002Y013505D02*
X009084Y013424D01*
X009002Y013505D02*
X009002Y013669D01*
X008839Y013939D02*
X008839Y014103D01*
X008839Y014021D02*
X009166Y014021D01*
X009166Y013939D01*
X009329Y014021D02*
X009411Y014021D01*
X009084Y014283D02*
X009166Y014365D01*
X009166Y014610D01*
X008757Y014610D01*
X008675Y014528D01*
X008675Y014446D01*
X008839Y014365D02*
X008839Y014610D01*
X008839Y014799D02*
X009166Y014799D01*
X009166Y015044D01*
X009084Y015126D01*
X008839Y015126D01*
X008569Y015098D02*
X008569Y014935D01*
X008488Y014853D01*
X008161Y014853D01*
X008079Y014935D01*
X008079Y015098D01*
X008161Y015180D01*
X008324Y015180D01*
X008324Y015017D01*
X008488Y015180D02*
X008569Y015098D01*
X008406Y015369D02*
X008079Y015369D01*
X008242Y015369D02*
X008406Y015532D01*
X008406Y015614D01*
X008324Y015798D02*
X008406Y015880D01*
X008406Y016044D01*
X008324Y016125D01*
X008242Y016125D01*
X008242Y015798D01*
X008161Y015798D02*
X008324Y015798D01*
X008161Y015798D02*
X008079Y015880D01*
X008079Y016044D01*
X008161Y016314D02*
X008324Y016314D01*
X008406Y016396D01*
X008406Y016559D01*
X008324Y016641D01*
X008242Y016641D01*
X008242Y016314D01*
X008161Y016314D02*
X008079Y016396D01*
X008079Y016559D01*
X008079Y016830D02*
X008406Y016830D01*
X008406Y017075D01*
X008324Y017157D01*
X008079Y017157D01*
X008161Y017345D02*
X008079Y017427D01*
X008161Y017509D01*
X008079Y017591D01*
X008161Y017672D01*
X008406Y017672D01*
X008406Y017943D02*
X008406Y018106D01*
X008324Y018188D01*
X008079Y018188D01*
X008079Y017943D01*
X008161Y017861D01*
X008242Y017943D01*
X008242Y018188D01*
X008161Y018377D02*
X008079Y018458D01*
X008079Y018704D01*
X007997Y018704D02*
X007915Y018622D01*
X007915Y018540D01*
X007997Y018704D02*
X008406Y018704D01*
X008406Y018377D02*
X008161Y018377D01*
X007606Y017822D02*
X007524Y017904D01*
X007279Y017904D01*
X007279Y017577D02*
X007606Y017577D01*
X007606Y017822D01*
X007524Y017388D02*
X007279Y017388D01*
X007279Y017143D01*
X007361Y017061D01*
X007442Y017143D01*
X007442Y017388D01*
X007524Y017388D02*
X007606Y017306D01*
X007606Y017143D01*
X007524Y016872D02*
X007279Y016872D01*
X007279Y016709D02*
X007524Y016709D01*
X007606Y016791D01*
X007524Y016872D01*
X007524Y016709D02*
X007606Y016627D01*
X007606Y016545D01*
X007279Y016545D01*
X007279Y016365D02*
X007279Y016202D01*
X007279Y016283D02*
X007769Y016283D01*
X007769Y016202D01*
X007524Y016013D02*
X007442Y016013D01*
X007442Y015686D01*
X007361Y015686D02*
X007524Y015686D01*
X007606Y015768D01*
X007606Y015931D01*
X007524Y016013D01*
X007279Y015931D02*
X007279Y015768D01*
X007361Y015686D01*
X007279Y015506D02*
X007361Y015424D01*
X007688Y015424D01*
X007606Y015342D02*
X007606Y015506D01*
X007606Y015080D02*
X007279Y015080D01*
X007279Y014999D02*
X007279Y015162D01*
X007606Y015080D02*
X007606Y014999D01*
X007769Y015080D02*
X007851Y015080D01*
X007524Y014810D02*
X007442Y014810D01*
X007442Y014483D01*
X007361Y014483D02*
X007524Y014483D01*
X007606Y014565D01*
X007606Y014728D01*
X007524Y014810D01*
X007279Y014728D02*
X007279Y014565D01*
X007361Y014483D01*
X007279Y014131D02*
X007769Y014131D01*
X007769Y014294D02*
X007769Y013967D01*
X008079Y014067D02*
X008161Y014149D01*
X008488Y014149D01*
X008569Y014067D01*
X008569Y013822D01*
X008079Y013822D01*
X008079Y014067D01*
X008839Y014365D02*
X008921Y014283D01*
X009084Y014283D01*
X007606Y013181D02*
X007524Y013263D01*
X007279Y013263D01*
X008839Y015830D02*
X008839Y016075D01*
X008921Y016157D01*
X009002Y016157D01*
X009084Y016075D01*
X009084Y015830D01*
X008839Y015830D02*
X009329Y015830D01*
X009329Y016075D01*
X009248Y016157D01*
X009166Y016157D01*
X009084Y016075D01*
X009166Y016346D02*
X008921Y016346D01*
X008839Y016427D01*
X008839Y016672D01*
X008757Y016672D02*
X008675Y016591D01*
X008675Y016509D01*
X008757Y016672D02*
X009166Y016672D01*
X009166Y016861D02*
X009084Y016861D01*
X009084Y016943D01*
X009166Y016943D01*
X009166Y016861D01*
X008921Y016861D02*
X008839Y016861D01*
X008839Y016943D01*
X008921Y016943D01*
X008921Y016861D01*
X008406Y017345D02*
X008161Y017345D01*
X013479Y017312D02*
X013479Y017149D01*
X013561Y017067D01*
X013724Y017067D01*
X013806Y017149D01*
X013806Y017312D01*
X013724Y017394D01*
X013642Y017394D01*
X013642Y017067D01*
X013479Y016887D02*
X013479Y016723D01*
X013479Y016805D02*
X013806Y016805D01*
X013806Y016723D01*
X013969Y016805D02*
X014051Y016805D01*
X013724Y016535D02*
X013479Y016535D01*
X013724Y016535D02*
X013806Y016453D01*
X013806Y016290D01*
X013724Y016208D01*
X013642Y016019D02*
X013561Y016019D01*
X013479Y015937D01*
X013479Y015774D01*
X013561Y015692D01*
X013724Y015774D02*
X013724Y015937D01*
X013642Y016019D01*
X013888Y016019D02*
X013969Y015937D01*
X013969Y015774D01*
X013888Y015692D01*
X013806Y015692D01*
X013724Y015774D01*
X013969Y016208D02*
X013479Y016208D01*
X013806Y014992D02*
X013806Y014910D01*
X013642Y014747D01*
X013479Y014747D02*
X013806Y014747D01*
X013724Y014558D02*
X013561Y014558D01*
X013479Y014476D01*
X013479Y014313D01*
X013561Y014231D01*
X013724Y014231D01*
X013806Y014313D01*
X013806Y014476D01*
X013724Y014558D01*
X013806Y014043D02*
X013806Y013797D01*
X013724Y013716D01*
X013642Y013797D01*
X013642Y013961D01*
X013561Y014043D01*
X013479Y013961D01*
X013479Y013716D01*
X013479Y013527D02*
X013724Y013527D01*
X013806Y013445D01*
X013806Y013200D01*
X013479Y013200D01*
X013642Y013011D02*
X013642Y012684D01*
X013561Y012684D02*
X013724Y012684D01*
X013806Y012766D01*
X013806Y012930D01*
X013724Y013011D01*
X013642Y013011D01*
X013479Y012930D02*
X013479Y012766D01*
X013561Y012684D01*
X013561Y012496D02*
X013479Y012414D01*
X013479Y012250D01*
X013561Y012169D01*
X013724Y012250D02*
X013724Y012414D01*
X013642Y012496D01*
X013561Y012496D01*
X013724Y012250D02*
X013806Y012169D01*
X013888Y012169D01*
X013969Y012250D01*
X013969Y012414D01*
X013888Y012496D01*
X013806Y011464D02*
X013806Y011219D01*
X013724Y011137D01*
X013642Y011219D01*
X013642Y011383D01*
X013561Y011464D01*
X013479Y011383D01*
X013479Y011137D01*
X013479Y010949D02*
X013479Y010704D01*
X013561Y010622D01*
X013642Y010704D01*
X013642Y010949D01*
X013724Y010949D02*
X013479Y010949D01*
X013724Y010949D02*
X013806Y010867D01*
X013806Y010704D01*
X013888Y010433D02*
X013969Y010351D01*
X013969Y010188D01*
X013888Y010106D01*
X013561Y010106D01*
X013479Y010188D01*
X013479Y010351D01*
X013561Y010433D01*
X013724Y010433D01*
X013724Y010270D01*
X013479Y017583D02*
X013479Y017746D01*
X013479Y017665D02*
X013969Y017665D01*
X013969Y017583D01*
X013724Y017927D02*
X013806Y018008D01*
X013806Y018254D01*
X013969Y018254D02*
X013479Y018254D01*
X013479Y018008D01*
X013561Y017927D01*
X013724Y017927D01*
X013602Y018792D02*
X013439Y018956D01*
X013602Y019119D01*
X013929Y019119D01*
X013766Y019308D02*
X013929Y019471D01*
X013439Y019471D01*
X013439Y019308D02*
X013439Y019635D01*
X013602Y018792D02*
X013929Y018792D01*
D11*
X014344Y018830D02*
X014344Y018623D01*
X014344Y018726D02*
X014964Y018726D01*
X014964Y018623D01*
X014758Y018392D02*
X014344Y018392D01*
X014344Y018082D01*
X014447Y017978D01*
X014758Y017978D01*
X014654Y017748D02*
X014447Y017748D01*
X014344Y017644D01*
X014344Y017334D01*
X014964Y017334D01*
X014758Y017334D02*
X014758Y017644D01*
X014654Y017748D01*
X014654Y017103D02*
X014551Y017103D01*
X014551Y016689D01*
X014654Y016689D02*
X014447Y016689D01*
X014344Y016793D01*
X014344Y017000D01*
X014654Y017103D02*
X014758Y017000D01*
X014758Y016793D01*
X014654Y016689D01*
X014344Y016459D02*
X014964Y016459D01*
X014964Y016045D02*
X014344Y016459D01*
X014344Y016045D02*
X014964Y016045D01*
X014758Y015169D02*
X014241Y015169D01*
X014137Y015066D01*
X014137Y014963D01*
X014344Y014859D02*
X014344Y015169D01*
X014344Y014859D02*
X014447Y014756D01*
X014758Y014756D01*
X014654Y014525D02*
X014344Y014525D01*
X014344Y014318D02*
X014654Y014318D01*
X014758Y014421D01*
X014654Y014525D01*
X014654Y014318D02*
X014758Y014215D01*
X014758Y014111D01*
X014344Y014111D01*
X014344Y013880D02*
X014344Y013570D01*
X014447Y013467D01*
X014654Y013467D01*
X014758Y013570D01*
X014758Y013880D01*
X014241Y013880D01*
X014137Y013777D01*
X014137Y013674D01*
X014241Y013236D02*
X014137Y013132D01*
X014137Y013029D01*
X014241Y013236D02*
X014758Y013236D01*
X014758Y012822D02*
X014447Y012822D01*
X014344Y012926D01*
X014344Y013236D01*
X014654Y012591D02*
X014551Y012488D01*
X014551Y012178D01*
X014344Y012178D02*
X014964Y012178D01*
X014964Y012488D01*
X014861Y012591D01*
X014654Y012591D01*
X014447Y019053D02*
X014551Y019156D01*
X014551Y019466D01*
X014654Y019466D02*
X014344Y019466D01*
X014344Y019156D01*
X014447Y019053D01*
X014758Y019156D02*
X014758Y019363D01*
X014654Y019466D01*
D12*
X015504Y022507D02*
X015504Y006407D01*
X015500Y006314D01*
X015491Y006222D01*
X015477Y006130D01*
X015460Y006039D01*
X015438Y005949D01*
X015411Y005860D01*
X015381Y005772D01*
X015346Y005686D01*
X015307Y005601D01*
X015265Y005519D01*
X015218Y005439D01*
X015168Y005360D01*
X015114Y005285D01*
X015056Y005212D01*
X014995Y005142D01*
X014931Y005075D01*
X014864Y005011D01*
X014793Y004950D01*
X014720Y004893D01*
X014645Y004839D01*
X014566Y004789D01*
X014486Y004743D01*
X014403Y004701D01*
X014319Y004662D01*
X014232Y004628D01*
X014145Y004598D01*
X014055Y004572D01*
X013965Y004550D01*
X013874Y004532D01*
X013782Y004519D01*
X013690Y004511D01*
X013597Y004506D01*
X013504Y004507D01*
X011504Y004507D01*
X011021Y004519D01*
X010539Y004554D01*
X010059Y004612D01*
X009583Y004693D01*
X009111Y004798D01*
X008645Y004925D01*
X008185Y005074D01*
X007733Y005245D01*
X007290Y005438D01*
X006857Y005652D01*
X006434Y005887D01*
X006024Y006142D01*
X005626Y006417D01*
X005242Y006710D01*
X004873Y007022D01*
X004519Y007351D01*
X004181Y007697D01*
X003861Y008059D01*
X003558Y008435D01*
X003274Y008826D01*
X003009Y009231D01*
X002764Y009647D01*
X002540Y010075D01*
X002336Y010513D01*
X002154Y010961D01*
X001993Y011417D01*
X001855Y011880D01*
X001740Y012349D01*
X001647Y012823D01*
X001577Y013302D01*
X001530Y013783D01*
X001507Y014265D01*
X001507Y014749D01*
X001530Y015231D01*
X001577Y015712D01*
X001647Y016191D01*
X001740Y016665D01*
X001855Y017134D01*
X001993Y017597D01*
X002154Y018053D01*
X002336Y018501D01*
X002540Y018939D01*
X002764Y019367D01*
X003009Y019783D01*
X003274Y020188D01*
X003558Y020579D01*
X003861Y020955D01*
X004181Y021317D01*
X004519Y021663D01*
X004873Y021992D01*
X005242Y022304D01*
X005626Y022597D01*
X006024Y022872D01*
X006434Y023127D01*
X006857Y023362D01*
X007290Y023576D01*
X007733Y023769D01*
X008185Y023940D01*
X008645Y024089D01*
X009111Y024216D01*
X009583Y024321D01*
X010059Y024402D01*
X010539Y024460D01*
X011021Y024495D01*
X011504Y024507D01*
X013504Y024507D01*
X013599Y024505D01*
X013694Y024498D01*
X013789Y024487D01*
X013883Y024471D01*
X013976Y024451D01*
X014067Y024426D01*
X014158Y024397D01*
X014247Y024364D01*
X014335Y024326D01*
X014420Y024285D01*
X014504Y024239D01*
X014585Y024190D01*
X014664Y024136D01*
X014740Y024079D01*
X014814Y024018D01*
X014884Y023954D01*
X014951Y023887D01*
X015015Y023817D01*
X015076Y023743D01*
X015133Y023667D01*
X015187Y023588D01*
X015236Y023507D01*
X015282Y023423D01*
X015323Y023338D01*
X015361Y023250D01*
X015394Y023161D01*
X015423Y023070D01*
X015448Y022979D01*
X015468Y022886D01*
X015484Y022792D01*
X015495Y022697D01*
X015502Y022602D01*
X015504Y022507D01*
D13*
X010913Y014507D02*
X010915Y014555D01*
X010921Y014603D01*
X010931Y014650D01*
X010944Y014696D01*
X010962Y014741D01*
X010982Y014785D01*
X011007Y014827D01*
X011035Y014866D01*
X011065Y014903D01*
X011099Y014937D01*
X011136Y014969D01*
X011174Y014998D01*
X011215Y015023D01*
X011258Y015045D01*
X011303Y015063D01*
X011349Y015077D01*
X011396Y015088D01*
X011444Y015095D01*
X011492Y015098D01*
X011540Y015097D01*
X011588Y015092D01*
X011636Y015083D01*
X011682Y015071D01*
X011727Y015054D01*
X011771Y015034D01*
X011813Y015011D01*
X011853Y014984D01*
X011891Y014954D01*
X011926Y014921D01*
X011958Y014885D01*
X011988Y014847D01*
X012014Y014806D01*
X012036Y014763D01*
X012056Y014719D01*
X012071Y014674D01*
X012083Y014627D01*
X012091Y014579D01*
X012095Y014531D01*
X012095Y014483D01*
X012091Y014435D01*
X012083Y014387D01*
X012071Y014340D01*
X012056Y014295D01*
X012036Y014251D01*
X012014Y014208D01*
X011988Y014167D01*
X011958Y014129D01*
X011926Y014093D01*
X011891Y014060D01*
X011853Y014030D01*
X011813Y014003D01*
X011771Y013980D01*
X011727Y013960D01*
X011682Y013943D01*
X011636Y013931D01*
X011588Y013922D01*
X011540Y013917D01*
X011492Y013916D01*
X011444Y013919D01*
X011396Y013926D01*
X011349Y013937D01*
X011303Y013951D01*
X011258Y013969D01*
X011215Y013991D01*
X011174Y014016D01*
X011136Y014045D01*
X011099Y014077D01*
X011065Y014111D01*
X011035Y014148D01*
X011007Y014187D01*
X010982Y014229D01*
X010962Y014273D01*
X010944Y014318D01*
X010931Y014364D01*
X010921Y014411D01*
X010915Y014459D01*
X010913Y014507D01*
D14*
X008129Y007715D02*
X008405Y007581D01*
X008508Y007616D01*
X008609Y007823D01*
X008195Y008025D01*
X008094Y007818D01*
X008129Y007715D01*
X007802Y007998D02*
X007696Y007974D01*
X007437Y008138D01*
X007413Y008244D01*
X007537Y008439D01*
X007925Y008192D01*
X007802Y007998D01*
X008008Y008322D02*
X007619Y008568D01*
X007783Y008827D02*
X008008Y008322D01*
X008262Y008163D02*
X008676Y007961D01*
X008397Y008438D01*
X008810Y008237D01*
X008809Y008408D02*
X008671Y008475D01*
X008738Y008613D01*
X008809Y008408D02*
X008911Y008443D01*
X008979Y008581D01*
X008943Y008684D01*
X008667Y008819D01*
X008565Y008783D01*
X008497Y008645D01*
X008533Y008543D01*
X008295Y008775D02*
X008378Y008905D01*
X008354Y009010D01*
X008095Y009175D01*
X007989Y009151D01*
X007907Y009022D01*
X007930Y008916D01*
X008060Y008834D02*
X008142Y008963D01*
X008060Y008834D02*
X008189Y008751D01*
X008295Y008775D01*
X008172Y008581D02*
X007783Y008827D01*
X007512Y009009D02*
X007273Y009201D01*
X007058Y009177D01*
X007081Y008962D01*
X007320Y008769D01*
X007224Y008650D02*
X007164Y008698D01*
X006733Y008651D01*
X006673Y008699D01*
X006865Y008938D01*
X007141Y008914D02*
X007333Y009153D01*
X006851Y009551D02*
X006635Y009769D01*
X006418Y009770D01*
X006417Y009553D01*
X006634Y009335D01*
X006471Y009281D02*
X006470Y009173D01*
X006361Y009065D01*
X006253Y009065D01*
X006199Y009120D01*
X006199Y009228D01*
X006363Y009390D01*
X006471Y009281D01*
X006363Y009390D02*
X006146Y009391D01*
X005983Y009337D01*
X005687Y009654D02*
X005927Y009845D01*
X005807Y009749D02*
X005521Y010110D01*
X005737Y010085D01*
X005857Y010181D02*
X006048Y009940D01*
X005905Y010120D02*
X006145Y010311D01*
X006098Y010371D02*
X006288Y010131D01*
X006098Y010371D02*
X005882Y010396D01*
X005857Y010181D01*
X006122Y010587D02*
X006363Y010777D01*
X006243Y010682D02*
X006529Y010321D01*
X006689Y009715D02*
X006471Y009499D01*
X005482Y010615D02*
X005319Y010875D01*
X005368Y011087D01*
X005580Y011038D01*
X005742Y010778D01*
X005620Y010973D02*
X005360Y010810D01*
X005311Y010599D02*
X005149Y010859D01*
X005043Y010883D01*
X004913Y010802D01*
X004888Y010696D01*
X005311Y010599D01*
X005287Y010493D01*
X005157Y010412D01*
X005051Y010436D01*
X004888Y010696D01*
X004612Y011082D02*
X004889Y011215D01*
X004479Y011359D01*
X004446Y011428D01*
X004482Y011530D01*
X004621Y011597D01*
X004723Y011561D01*
X004861Y011627D02*
X004897Y011729D01*
X005036Y011796D01*
X005138Y011760D01*
X005271Y011483D01*
X005235Y011381D01*
X005096Y011314D01*
X004994Y011350D01*
X005442Y011480D02*
X005310Y011757D01*
X005382Y011961D01*
X005586Y011889D01*
X005719Y011613D01*
X005824Y011748D02*
X005692Y012025D01*
X005728Y012127D01*
X005935Y012227D01*
X006134Y011812D01*
X005927Y011712D01*
X005824Y011748D01*
X005620Y011820D02*
X005343Y011688D01*
X005098Y012081D02*
X004997Y012371D01*
X005091Y012566D01*
X005286Y012471D01*
X005387Y012182D01*
X005507Y012305D02*
X005406Y012594D01*
X005453Y012692D01*
X005671Y012768D01*
X005822Y012333D01*
X005605Y012257D01*
X005507Y012305D01*
X005312Y012399D02*
X005022Y012298D01*
X004927Y012103D02*
X004826Y012393D01*
X004729Y012440D01*
X004584Y012389D01*
X004537Y012292D01*
X004417Y012169D02*
X004222Y012263D01*
X004373Y011828D01*
X004518Y011879D02*
X004228Y011778D01*
X004638Y012002D02*
X004735Y011955D01*
X004880Y012005D01*
X004927Y012103D01*
X004699Y012749D02*
X004298Y013130D01*
X004165Y013021D02*
X004073Y013079D01*
X003923Y013045D01*
X003866Y012953D01*
X003883Y012878D01*
X004250Y012647D01*
X003951Y012579D01*
X004399Y012681D02*
X004597Y013198D01*
X004763Y013157D02*
X004797Y013007D01*
X004889Y012949D01*
X005114Y013000D01*
X005148Y012851D02*
X005046Y013300D01*
X004821Y013249D01*
X004763Y013157D01*
X004964Y012966D02*
X004848Y012783D01*
X004828Y013565D02*
X004776Y014022D01*
X004624Y014005D02*
X004929Y014040D01*
X004471Y013988D02*
X004218Y013497D01*
X004065Y013479D02*
X003726Y013750D01*
X003717Y013826D01*
X003785Y013911D01*
X003938Y013928D01*
X004022Y013861D01*
X004166Y013954D02*
X004523Y013531D01*
X004065Y013479D02*
X003760Y013445D01*
X003774Y014277D02*
X003928Y014277D01*
X004004Y014354D01*
X004004Y014508D02*
X003851Y014584D01*
X003774Y014584D01*
X003697Y014508D01*
X003697Y014354D01*
X003774Y014277D01*
X004004Y014508D02*
X004004Y014738D01*
X003697Y014738D01*
X003809Y015147D02*
X003861Y015604D01*
X004064Y015350D01*
X003759Y015384D01*
X004216Y015333D02*
X004521Y015299D01*
X004530Y015375D02*
X004394Y015545D01*
X004225Y015409D01*
X004191Y015104D01*
X004496Y015070D02*
X004530Y015375D01*
X004606Y015800D02*
X004382Y015851D01*
X004324Y015942D01*
X004392Y016242D01*
X004484Y016300D01*
X004708Y016249D01*
X004606Y015800D01*
X004174Y015976D02*
X003943Y016344D01*
X003875Y016044D01*
X003933Y015953D01*
X004082Y015919D01*
X004174Y015976D01*
X004242Y016276D01*
X004184Y016368D01*
X004035Y016402D01*
X003943Y016344D01*
X004112Y016770D02*
X004402Y016669D01*
X004257Y016720D02*
X004409Y017154D01*
X004503Y016959D01*
X004673Y016981D02*
X004771Y017028D01*
X004988Y016953D01*
X004837Y016518D01*
X004619Y016594D01*
X004572Y016691D01*
X004673Y016981D01*
X004941Y017275D02*
X004905Y017377D01*
X005038Y017654D01*
X005140Y017690D01*
X005348Y017590D01*
X005149Y017175D01*
X004941Y017275D01*
X004734Y017374D02*
X004590Y017784D01*
X004623Y017853D01*
X004725Y017889D01*
X004864Y017822D01*
X004900Y017720D01*
X004734Y017374D02*
X004457Y017507D01*
X004928Y018209D02*
X005058Y018128D01*
X005164Y018152D01*
X005294Y018071D02*
X005457Y018331D01*
X005562Y018355D01*
X005757Y018233D01*
X005514Y017843D01*
X005318Y017965D01*
X005294Y018071D01*
X005326Y018412D02*
X005302Y018518D01*
X005172Y018599D01*
X005066Y018575D01*
X005026Y018510D01*
X005050Y018404D01*
X004944Y018380D01*
X004904Y018315D01*
X004928Y018209D01*
X005050Y018404D02*
X005115Y018363D01*
X005571Y018825D02*
X005679Y018838D01*
X005571Y018825D02*
X005451Y018921D01*
X005438Y019028D01*
X005486Y019088D01*
X005594Y019101D01*
X005654Y019053D01*
X005594Y019101D02*
X005581Y019209D01*
X005629Y019269D01*
X005737Y019281D01*
X005857Y019186D01*
X005869Y019078D01*
X005942Y018923D02*
X005751Y018682D01*
X005894Y018863D02*
X006135Y018672D01*
X006182Y018732D02*
X006157Y018948D01*
X005942Y018923D01*
X006182Y018732D02*
X005992Y018492D01*
X006495Y019082D02*
X006711Y019300D01*
X006710Y019517D01*
X006493Y019516D01*
X006277Y019298D01*
X006168Y019406D02*
X006167Y019840D01*
X006221Y019895D01*
X006329Y019895D01*
X006438Y019787D01*
X006439Y019679D01*
X006439Y019462D02*
X006657Y019245D01*
X006168Y019406D02*
X005950Y019623D01*
X006740Y020163D02*
X007099Y020451D01*
X007075Y020236D01*
X007171Y020116D02*
X006932Y019924D01*
X006836Y020043D02*
X006644Y020282D01*
X007111Y020068D02*
X007304Y019829D01*
X007363Y019877D02*
X007387Y020093D01*
X007171Y020116D01*
X007363Y019877D02*
X007124Y019685D01*
X007741Y020160D02*
X008000Y020324D01*
X008048Y020536D01*
X007836Y020583D01*
X007577Y020419D01*
X007559Y020589D02*
X007654Y021013D01*
X007395Y020849D01*
X007371Y020743D01*
X007454Y020613D01*
X007559Y020589D01*
X007819Y020754D01*
X007842Y020860D01*
X007760Y020989D01*
X007654Y021013D01*
X008045Y021178D02*
X008112Y021040D01*
X008215Y021005D01*
X008285Y021210D02*
X008252Y021279D01*
X008149Y021314D01*
X008080Y021281D01*
X008045Y021178D01*
X008252Y021279D02*
X008287Y021381D01*
X008356Y021415D01*
X008459Y021380D01*
X008526Y021242D01*
X008490Y021139D01*
X008627Y021035D02*
X008761Y020759D01*
X008694Y020897D02*
X008280Y020695D01*
X007771Y020542D02*
X007936Y020283D01*
X008943Y021052D02*
X009376Y021207D01*
X009325Y021351D02*
X009428Y021062D01*
X009607Y021360D02*
X010056Y021465D01*
X010091Y021316D02*
X010020Y021615D01*
X009836Y021729D02*
X009950Y021913D01*
X009502Y021808D01*
X009537Y021659D02*
X009467Y021958D01*
X009196Y021713D02*
X009098Y021759D01*
X009026Y021733D01*
X008840Y021341D01*
X008737Y021631D01*
X009196Y021713D02*
X009248Y021568D01*
X009201Y021470D01*
X010416Y021618D02*
X010873Y021673D01*
X010891Y021521D02*
X010855Y021825D01*
X010760Y021969D02*
X010456Y021932D01*
X010724Y022273D01*
X010419Y022237D01*
X010352Y022152D01*
X010370Y021999D01*
X010456Y021932D01*
X010760Y021969D02*
X010828Y022054D01*
X010809Y022206D01*
X010724Y022273D01*
X011224Y022260D02*
X011684Y022260D01*
X011531Y022107D01*
X011684Y021954D02*
X011224Y021647D01*
X011224Y021493D02*
X011377Y021340D01*
X011377Y021416D02*
X011377Y021186D01*
X011224Y021186D02*
X011684Y021186D01*
X011684Y021416D01*
X011608Y021493D01*
X011454Y021493D01*
X011377Y021416D01*
X011684Y021647D02*
X011224Y021954D01*
X011224Y022107D02*
X011224Y022414D01*
X012174Y022444D02*
X012174Y022137D01*
X012174Y022290D02*
X012634Y022290D01*
X012481Y022137D01*
X012634Y021984D02*
X012174Y021677D01*
X012174Y021984D02*
X012634Y021677D01*
X012634Y021523D02*
X012634Y021216D01*
X012634Y021370D02*
X012174Y021370D01*
X013124Y021473D02*
X013584Y021473D01*
X013431Y021320D01*
X013584Y021166D01*
X013124Y021166D01*
X013201Y021627D02*
X013124Y021703D01*
X013124Y021857D01*
X013201Y021934D01*
X013201Y022087D02*
X013124Y022164D01*
X013124Y022317D01*
X013201Y022394D01*
X013508Y022394D01*
X013584Y022317D01*
X013584Y022164D01*
X013508Y022087D01*
X013201Y022087D01*
X013508Y021934D02*
X013584Y021857D01*
X013584Y021703D01*
X013508Y021627D01*
X013201Y021627D01*
X004465Y014584D02*
X004465Y014277D01*
X004465Y014508D02*
X004158Y014508D01*
X004158Y014584D02*
X004158Y014277D01*
X004158Y014584D02*
X004311Y014738D01*
X004465Y014584D01*
X005889Y011412D02*
X005628Y011249D01*
X005759Y011331D02*
X006003Y010940D01*
X009173Y008461D02*
X009271Y008507D01*
X009561Y008404D01*
X009607Y008306D01*
X009556Y008162D01*
X009458Y008115D01*
X009313Y008167D01*
X009365Y008311D01*
X009168Y008218D02*
X009122Y008316D01*
X009173Y008461D01*
X009045Y008099D02*
X009375Y007656D01*
X008942Y007810D01*
X008890Y007666D02*
X008813Y007449D01*
X008860Y007351D01*
X009149Y007248D01*
X009247Y007294D01*
X009324Y007511D01*
X008890Y007666D01*
X009045Y008099D02*
X009478Y007945D01*
X009709Y007830D02*
X009933Y007777D01*
X009823Y007645D01*
X009806Y007571D01*
X009863Y007478D01*
X010012Y007443D01*
X010104Y007501D01*
X010139Y007650D01*
X010082Y007742D01*
X009709Y007830D02*
X009639Y007531D01*
X009604Y007382D02*
X009902Y007311D01*
X010017Y007127D01*
X009832Y007013D01*
X009534Y007083D01*
X010388Y006904D02*
X010416Y007132D01*
X010873Y007078D01*
X010846Y006849D01*
X010760Y006782D01*
X010456Y006819D01*
X010388Y006904D01*
X010434Y007285D02*
X010891Y007230D01*
X010470Y007589D01*
X010927Y007535D01*
X010869Y007696D02*
X010717Y007715D01*
X010735Y007867D01*
X010601Y008037D02*
X010516Y007970D01*
X010497Y007818D01*
X010565Y007733D01*
X010869Y007696D02*
X010955Y007764D01*
X010973Y007916D01*
X010906Y008001D01*
X010601Y008037D01*
X011224Y007852D02*
X011377Y008005D01*
X011684Y008005D01*
X011684Y007698D02*
X011377Y007698D01*
X011224Y007852D01*
X011301Y007545D02*
X011224Y007468D01*
X011224Y007315D01*
X011301Y007238D01*
X011301Y007084D02*
X011224Y007084D01*
X011224Y007008D01*
X011301Y007008D01*
X011301Y007084D01*
X011301Y006854D02*
X011224Y006778D01*
X011224Y006624D01*
X011301Y006547D01*
X011454Y006701D02*
X011454Y006778D01*
X011377Y006854D01*
X011301Y006854D01*
X011454Y006778D02*
X011531Y006854D01*
X011608Y006854D01*
X011684Y006778D01*
X011684Y006624D01*
X011608Y006547D01*
X012174Y006534D02*
X012174Y006688D01*
X012251Y006764D01*
X012404Y006764D01*
X012404Y006611D01*
X012558Y006764D02*
X012634Y006688D01*
X012634Y006534D01*
X012558Y006457D01*
X012251Y006457D01*
X012174Y006534D01*
X012174Y006918D02*
X012634Y006918D01*
X012174Y007225D01*
X012634Y007225D01*
X012634Y007378D02*
X012634Y007608D01*
X012558Y007685D01*
X012251Y007685D01*
X012174Y007608D01*
X012174Y007378D01*
X012634Y007378D01*
X013104Y007225D02*
X013411Y007225D01*
X013564Y007071D01*
X013411Y006918D01*
X013104Y006918D01*
X013181Y006764D02*
X013104Y006688D01*
X013104Y006457D01*
X013564Y006457D01*
X013564Y006688D01*
X013488Y006764D01*
X013411Y006764D01*
X013334Y006688D01*
X013334Y006457D01*
X013334Y006688D02*
X013257Y006764D01*
X013181Y006764D01*
X013334Y006918D02*
X013334Y007225D01*
X013564Y007378D02*
X013564Y007685D01*
X013564Y007532D02*
X013104Y007532D01*
X011684Y007468D02*
X011608Y007545D01*
X011531Y007545D01*
X011454Y007468D01*
X011377Y007545D01*
X011301Y007545D01*
X011454Y007468D02*
X011454Y007391D01*
X011608Y007238D02*
X011684Y007315D01*
X011684Y007468D01*
M02*
