%
M48
M72
T01C0.0150
T02C0.0400
T03C0.1181
%
T01
X10304Y9307
X11354Y8567
X12354Y8567
X12904Y7907
X12904Y7407
X15004Y8507
X15004Y10007
X15004Y11507
X15004Y13007
X15004Y14507
X15004Y16007
X15004Y17507
X15004Y19007
X15004Y20507
X14404Y21207
X15004Y22007
X13404Y21807
X12004Y20307
X12804Y19907
X10604Y20107
X10104Y20107
X9604Y20107
X9604Y21307
X7004Y19607
X6304Y18907
X5604Y19607
X4904Y18907
X5604Y18207
X6304Y20307
X9604Y17707
X7304Y13107
X6704Y13107
X5304Y12207
X5304Y11707
X5204Y10907
X6704Y9707
X7304Y9707
X8804Y10907
T02
X7704Y6558
X6997Y7265
X6290Y7972
X5583Y8679
X4875Y9386
X4168Y10093
X3461Y10800
X2754Y11507
X2754Y12507
X2754Y13507
X2754Y14507
X2754Y15507
X2754Y16507
X2754Y17507
X3461Y18214
X4168Y18922
X4875Y19629
X5583Y20336
X6290Y21043
X6997Y21750
X7704Y22457
X8411Y23164
X9411Y23164
X10411Y23164
X11411Y23164
X12411Y23164
X13411Y23164
X11504Y16377
X12823Y15826
X10185Y15826
X10185Y13189
X11504Y12637
X12823Y13189
X14004Y11007
X14004Y10007
X14004Y9007
X14004Y8007
X14004Y7007
X13411Y5851
X12411Y5851
X11411Y5851
X10411Y5851
X9411Y5851
X8411Y5851
T03
X11504Y14507
M30
