G75*
G70*
%OFA0B0*%
%FSLAX24Y24*%
%IPPOS*%
%LPD*%
%AMOC8*
5,1,8,0,0,1.08239X$1,22.5*
%
%ADD10R,0.0434X0.0356*%
%ADD11C,0.0820*%
%ADD12C,0.0780*%
%ADD13C,0.1261*%
%ADD14R,0.0470X0.0200*%
%ADD15R,0.0552X0.0297*%
%ADD16R,0.0472X0.0106*%
%ADD17R,0.1024X0.1488*%
%ADD18R,0.0277X0.0946*%
%ADD19R,0.0474X0.0513*%
%ADD20R,0.0592X0.0671*%
%ADD21R,0.0356X0.0434*%
%ADD22R,0.0552X0.0218*%
%ADD23C,0.0671*%
%ADD24C,0.0500*%
D10*
X004704Y012251D03*
X004704Y012763D03*
X012804Y018451D03*
X012804Y018963D03*
X012004Y020851D03*
X012004Y021363D03*
D11*
X007704Y006558D03*
X006997Y007265D03*
X006290Y007972D03*
X005583Y008679D03*
X004875Y009386D03*
X004168Y010093D03*
X003461Y010800D03*
X002754Y011507D03*
X002754Y012507D03*
X002754Y013507D03*
X002754Y014507D03*
X002754Y015507D03*
X002754Y016507D03*
X002754Y017507D03*
X003461Y018214D03*
X004168Y018922D03*
X004875Y019629D03*
X005583Y020336D03*
X006290Y021043D03*
X006997Y021750D03*
X007704Y022457D03*
X008411Y023164D03*
X009411Y023164D03*
X010411Y023164D03*
X011411Y023164D03*
X012411Y023164D03*
X013411Y023164D03*
X014004Y011007D03*
X014004Y010007D03*
X014004Y009007D03*
X014004Y008007D03*
X014004Y007007D03*
X013411Y005851D03*
X012411Y005851D03*
X011411Y005851D03*
X010411Y005851D03*
X009411Y005851D03*
X008411Y005851D03*
D12*
X011504Y012637D03*
X012823Y013189D03*
X010185Y013189D03*
X010185Y015826D03*
X011504Y016377D03*
X012823Y015826D03*
D13*
X011504Y014507D03*
D14*
X011353Y019656D03*
X011353Y019912D03*
X011353Y020168D03*
X011353Y020424D03*
X011353Y020679D03*
X011353Y020935D03*
X011353Y021191D03*
X011353Y021447D03*
X011353Y021703D03*
X011353Y021959D03*
X009055Y021959D03*
X009055Y021703D03*
X009055Y021447D03*
X009055Y021191D03*
X009055Y020935D03*
X009055Y020679D03*
X009055Y020424D03*
X009055Y020168D03*
X009055Y019912D03*
X009055Y019656D03*
D15*
X012892Y020833D03*
X012892Y021581D03*
X013916Y021581D03*
X013916Y021207D03*
X013916Y020833D03*
D16*
X008146Y012559D03*
X008146Y012303D03*
X008146Y012047D03*
X008146Y011791D03*
X008146Y011535D03*
X008146Y011279D03*
X008146Y011024D03*
X008146Y010768D03*
X008146Y010512D03*
X008146Y010256D03*
X005862Y010256D03*
X005862Y010512D03*
X005862Y010768D03*
X005862Y011024D03*
X005862Y011279D03*
X005862Y011535D03*
X005862Y011791D03*
X005862Y012047D03*
X005862Y012303D03*
X005862Y012559D03*
D17*
X007004Y011407D03*
D18*
X010854Y010349D03*
X011354Y010349D03*
X011854Y010349D03*
X012354Y010349D03*
X012350Y007866D03*
X011850Y007866D03*
X011350Y007866D03*
X010854Y007866D03*
D19*
X009304Y010573D03*
X009304Y011242D03*
X004704Y010973D03*
X004704Y011642D03*
D20*
X008930Y009307D03*
X009678Y009307D03*
X009678Y008507D03*
X008930Y008507D03*
D21*
X009248Y007707D03*
X009760Y007707D03*
X009760Y007207D03*
X009248Y007207D03*
D22*
X009052Y018241D03*
X009052Y018497D03*
X009052Y018752D03*
X009052Y019008D03*
X011356Y019008D03*
X011356Y018752D03*
X011356Y018497D03*
X011356Y018241D03*
D23*
X014504Y023207D03*
X007404Y008807D03*
D24*
X007048Y008807D02*
X007050Y008844D01*
X007056Y008881D01*
X007065Y008917D01*
X007079Y008952D01*
X007096Y008985D01*
X007116Y009016D01*
X007139Y009045D01*
X007166Y009072D01*
X007195Y009095D01*
X007226Y009115D01*
X007259Y009132D01*
X007294Y009146D01*
X007330Y009155D01*
X007367Y009161D01*
X007404Y009163D01*
X007441Y009161D01*
X007478Y009155D01*
X007514Y009146D01*
X007549Y009132D01*
X007582Y009115D01*
X007613Y009095D01*
X007642Y009072D01*
X007669Y009045D01*
X007692Y009016D01*
X007712Y008985D01*
X007729Y008952D01*
X007743Y008917D01*
X007752Y008881D01*
X007758Y008844D01*
X007760Y008807D01*
X007758Y008770D01*
X007752Y008733D01*
X007743Y008697D01*
X007729Y008662D01*
X007712Y008629D01*
X007692Y008598D01*
X007669Y008569D01*
X007642Y008542D01*
X007613Y008519D01*
X007582Y008499D01*
X007549Y008482D01*
X007514Y008468D01*
X007478Y008459D01*
X007441Y008453D01*
X007404Y008451D01*
X007367Y008453D01*
X007330Y008459D01*
X007294Y008468D01*
X007259Y008482D01*
X007226Y008499D01*
X007195Y008519D01*
X007166Y008542D01*
X007139Y008569D01*
X007116Y008598D01*
X007096Y008629D01*
X007079Y008662D01*
X007065Y008697D01*
X007056Y008733D01*
X007050Y008770D01*
X007048Y008807D01*
X014148Y023207D02*
X014150Y023244D01*
X014156Y023281D01*
X014165Y023317D01*
X014179Y023352D01*
X014196Y023385D01*
X014216Y023416D01*
X014239Y023445D01*
X014266Y023472D01*
X014295Y023495D01*
X014326Y023515D01*
X014359Y023532D01*
X014394Y023546D01*
X014430Y023555D01*
X014467Y023561D01*
X014504Y023563D01*
X014541Y023561D01*
X014578Y023555D01*
X014614Y023546D01*
X014649Y023532D01*
X014682Y023515D01*
X014713Y023495D01*
X014742Y023472D01*
X014769Y023445D01*
X014792Y023416D01*
X014812Y023385D01*
X014829Y023352D01*
X014843Y023317D01*
X014852Y023281D01*
X014858Y023244D01*
X014860Y023207D01*
X014858Y023170D01*
X014852Y023133D01*
X014843Y023097D01*
X014829Y023062D01*
X014812Y023029D01*
X014792Y022998D01*
X014769Y022969D01*
X014742Y022942D01*
X014713Y022919D01*
X014682Y022899D01*
X014649Y022882D01*
X014614Y022868D01*
X014578Y022859D01*
X014541Y022853D01*
X014504Y022851D01*
X014467Y022853D01*
X014430Y022859D01*
X014394Y022868D01*
X014359Y022882D01*
X014326Y022899D01*
X014295Y022919D01*
X014266Y022942D01*
X014239Y022969D01*
X014216Y022998D01*
X014196Y023029D01*
X014179Y023062D01*
X014165Y023097D01*
X014156Y023133D01*
X014150Y023170D01*
X014148Y023207D01*
M02*
