G75*
G70*
%OFA0B0*%
%FSLAX24Y24*%
%IPPOS*%
%LPD*%
%AMOC8*
5,1,8,0,0,1.08239X$1,22.5*
%
%ADD10R,0.0354X0.0276*%
%ADD11C,0.0740*%
%ADD12C,0.0700*%
%ADD13R,0.0390X0.0120*%
%ADD14R,0.0472X0.0217*%
%ADD15R,0.0827X0.0240*%
%ADD16R,0.0472X0.0106*%
%ADD17R,0.1181X0.2677*%
%ADD18R,0.0197X0.0866*%
%ADD19R,0.0394X0.0433*%
%ADD20R,0.0512X0.0591*%
%ADD21R,0.0276X0.0354*%
%ADD22R,0.0472X0.0138*%
%ADD23C,0.0591*%
%ADD24C,0.0320*%
%ADD25C,0.0100*%
%ADD26C,0.0310*%
%ADD27C,0.0120*%
D10*
X004704Y012251D03*
X004704Y012763D03*
X012804Y018451D03*
X012804Y018963D03*
X012004Y020851D03*
X012004Y021363D03*
D11*
X012411Y023164D03*
X013411Y023164D03*
X011411Y023164D03*
X010411Y023164D03*
X009411Y023164D03*
X008411Y023164D03*
X007704Y022457D03*
X006997Y021750D03*
X006290Y021043D03*
X005583Y020336D03*
X004875Y019629D03*
X004168Y018922D03*
X003461Y018214D03*
X002754Y017507D03*
X002754Y016507D03*
X002754Y015507D03*
X002754Y014507D03*
X002754Y013507D03*
X002754Y012507D03*
X002754Y011507D03*
X003461Y010800D03*
X004168Y010093D03*
X004875Y009386D03*
X005583Y008679D03*
X006290Y007972D03*
X006997Y007265D03*
X007704Y006558D03*
X008411Y005851D03*
X009411Y005851D03*
X010411Y005851D03*
X011411Y005851D03*
X012411Y005851D03*
X013411Y005851D03*
X014004Y007007D03*
X014004Y008007D03*
X014004Y009007D03*
X014004Y010007D03*
X014004Y011007D03*
D12*
X012823Y013189D03*
X011504Y012637D03*
X010185Y013189D03*
X010185Y015826D03*
X011504Y016377D03*
X012823Y015826D03*
D13*
X011353Y019656D03*
X011353Y019912D03*
X011353Y020168D03*
X011353Y020424D03*
X011353Y020679D03*
X011353Y020935D03*
X011353Y021191D03*
X011353Y021447D03*
X011353Y021703D03*
X011353Y021959D03*
X009055Y021959D03*
X009055Y021703D03*
X009055Y021447D03*
X009055Y021191D03*
X009055Y020935D03*
X009055Y020679D03*
X009055Y020424D03*
X009055Y020168D03*
X009055Y019912D03*
X009055Y019656D03*
D14*
X012892Y020833D03*
X012892Y021581D03*
X013916Y021581D03*
X013916Y021207D03*
X013916Y020833D03*
D15*
X007969Y012626D03*
X006039Y012626D03*
X006039Y010189D03*
X007969Y010189D03*
D16*
X008146Y010512D03*
X008146Y010768D03*
X008146Y011024D03*
X008146Y011279D03*
X008146Y011535D03*
X008146Y011791D03*
X008146Y012047D03*
X008146Y012303D03*
X005862Y012303D03*
X005862Y012047D03*
X005862Y011791D03*
X005862Y011535D03*
X005862Y011279D03*
X005862Y011024D03*
X005862Y010768D03*
X005862Y010512D03*
D17*
X007004Y011407D03*
D18*
X010854Y010349D03*
X011354Y010349D03*
X011854Y010349D03*
X012354Y010349D03*
X012350Y007866D03*
X011850Y007866D03*
X011350Y007866D03*
X010854Y007866D03*
D19*
X009304Y010573D03*
X009304Y011242D03*
X004704Y010973D03*
X004704Y011642D03*
D20*
X008930Y009307D03*
X009678Y009307D03*
X009678Y008507D03*
X008930Y008507D03*
D21*
X009248Y007707D03*
X009760Y007707D03*
X009760Y007207D03*
X009248Y007207D03*
D22*
X009052Y018241D03*
X009052Y018497D03*
X009052Y018752D03*
X009052Y019008D03*
X011356Y019008D03*
X011356Y018752D03*
X011356Y018497D03*
X011356Y018241D03*
D23*
X014504Y023207D03*
X007404Y008807D03*
D24*
X009678Y008507D02*
X009678Y009307D01*
X009678Y008507D02*
X010504Y008507D01*
X010854Y008157D01*
X010854Y007866D01*
X011850Y007866D02*
X011850Y008853D01*
X013004Y010007D01*
X014004Y010007D01*
X014004Y011007D02*
X013304Y011007D01*
X012646Y010349D01*
X012354Y010349D01*
X011854Y010349D01*
X011354Y010349D02*
X011354Y012487D01*
X011504Y012637D01*
X011354Y010349D02*
X010854Y010349D01*
X012904Y007907D02*
X012904Y007407D01*
X011411Y005914D01*
X011411Y005851D01*
X010204Y005107D02*
X013804Y005107D01*
X014904Y006207D01*
X014904Y007107D01*
X014004Y008007D01*
X010204Y005107D02*
X009411Y005901D01*
X009411Y005851D01*
D25*
X007523Y006070D02*
X006542Y006070D01*
X006437Y006125D02*
X005463Y006797D01*
X004578Y007581D01*
X003793Y008467D01*
X003122Y009440D01*
X002572Y010487D01*
X002152Y011593D01*
X001869Y012742D01*
X001727Y013916D01*
X001727Y015099D01*
X001869Y016273D01*
X002152Y017421D01*
X002572Y018527D01*
X003122Y019575D01*
X003793Y020548D01*
X004578Y021434D01*
X005463Y022218D01*
X006437Y022890D01*
X007484Y023439D01*
X008590Y023859D01*
X009738Y024142D01*
X010913Y024285D01*
X011504Y024302D01*
X013504Y024302D01*
X013705Y024291D01*
X014097Y024202D01*
X014459Y024027D01*
X014773Y023777D01*
X015024Y023462D01*
X015198Y023100D01*
X015288Y022708D01*
X015299Y022507D01*
X015299Y022422D01*
X015299Y006412D01*
X015283Y006218D01*
X015186Y005839D01*
X015008Y005491D01*
X014756Y005192D01*
X014444Y004956D01*
X014088Y004795D01*
X013705Y004718D01*
X013511Y004712D01*
X013508Y004712D01*
X013424Y004714D01*
X013422Y004712D01*
X011504Y004712D01*
X010912Y004730D01*
X010194Y004817D01*
X013746Y004817D01*
X013862Y004817D01*
X013968Y004862D01*
X015068Y005962D01*
X015150Y006043D01*
X015194Y006150D01*
X015194Y007050D01*
X015194Y007165D01*
X015150Y007272D01*
X014504Y007917D01*
X014504Y008107D01*
X014428Y008291D01*
X014287Y008431D01*
X014122Y008500D01*
X014126Y008500D01*
X014204Y008526D01*
X014276Y008563D01*
X014343Y008611D01*
X014401Y008669D01*
X014449Y008735D01*
X014486Y008808D01*
X014511Y008886D01*
X014522Y008957D01*
X014054Y008957D01*
X014054Y009057D01*
X014522Y009057D01*
X014511Y009129D01*
X014486Y009207D01*
X014449Y009280D01*
X014401Y009346D01*
X014343Y009404D01*
X014276Y009452D01*
X014204Y009489D01*
X014126Y009515D01*
X014122Y009515D01*
X014287Y009584D01*
X014428Y009724D01*
X014504Y009908D01*
X014504Y010107D01*
X014428Y010291D01*
X014287Y010431D01*
X014103Y010507D01*
X013904Y010507D01*
X014103Y010507D01*
X014287Y010584D01*
X014428Y010724D01*
X014504Y010908D01*
X014504Y011107D01*
X014428Y011291D01*
X014287Y011431D01*
X014103Y011507D01*
X013904Y011507D01*
X013721Y011431D01*
X013587Y011297D01*
X013246Y011297D01*
X013140Y011253D01*
X013058Y011172D01*
X012582Y010696D01*
X012582Y010836D01*
X012506Y010912D01*
X012202Y010912D01*
X012126Y010836D01*
X012126Y010639D01*
X012082Y010639D01*
X012082Y010836D01*
X012006Y010912D01*
X011702Y010912D01*
X011644Y010854D01*
X011644Y012176D01*
X011776Y012230D01*
X011911Y012365D01*
X011984Y012542D01*
X011984Y012733D01*
X011911Y012909D01*
X011776Y013044D01*
X011599Y013117D01*
X011408Y013117D01*
X011232Y013044D01*
X011097Y012909D01*
X011024Y012733D01*
X011024Y012542D01*
X011064Y012445D01*
X011064Y012430D01*
X011064Y010854D01*
X011006Y010912D01*
X010702Y010912D01*
X010626Y010836D01*
X010626Y010531D01*
X010608Y010513D01*
X010564Y010407D01*
X010564Y010291D01*
X010608Y010185D01*
X010626Y010167D01*
X010626Y009862D01*
X010702Y009786D01*
X011006Y009786D01*
X011082Y009862D01*
X011082Y010059D01*
X011126Y010059D01*
X011126Y009862D01*
X011202Y009786D01*
X011506Y009786D01*
X011582Y009862D01*
X011582Y010167D01*
X011600Y010185D01*
X011604Y010195D01*
X011608Y010185D01*
X011626Y010167D01*
X011626Y009862D01*
X011702Y009786D01*
X012006Y009786D01*
X012082Y009862D01*
X012082Y010059D01*
X012126Y010059D01*
X012126Y009862D01*
X012202Y009786D01*
X012373Y009786D01*
X011604Y009018D01*
X011560Y008911D01*
X011560Y008796D01*
X011560Y008764D01*
X011515Y008809D01*
X011411Y008852D01*
X011297Y008852D01*
X011192Y008809D01*
X011112Y008729D01*
X011069Y008624D01*
X011069Y008511D01*
X011112Y008406D01*
X011144Y008375D01*
X011122Y008353D01*
X011122Y008269D01*
X011100Y008322D01*
X011082Y008339D01*
X011082Y008353D01*
X011006Y008429D01*
X010993Y008429D01*
X010750Y008672D01*
X010668Y008753D01*
X010562Y008797D01*
X010064Y008797D01*
X010064Y008856D01*
X010013Y008907D01*
X010064Y008958D01*
X010064Y009117D01*
X010091Y009117D01*
X010142Y009066D01*
X010247Y009022D01*
X010361Y009022D01*
X010465Y009066D01*
X010546Y009146D01*
X010589Y009251D01*
X010589Y009364D01*
X010546Y009469D01*
X010465Y009549D01*
X010361Y009592D01*
X010247Y009592D01*
X010142Y009549D01*
X010091Y009497D01*
X010064Y009497D01*
X010064Y009656D01*
X009988Y009733D01*
X009894Y009733D01*
X009894Y011586D01*
X009783Y011697D01*
X009583Y011897D01*
X009425Y011897D01*
X008825Y011897D01*
X008714Y011786D01*
X008653Y011725D01*
X008512Y011725D01*
X008512Y011898D01*
X008491Y011919D01*
X008512Y011940D01*
X008512Y012154D01*
X008504Y012162D01*
X008522Y012192D01*
X008532Y012230D01*
X008532Y012303D01*
X008146Y012303D01*
X008146Y012303D01*
X008532Y012303D01*
X008532Y012376D01*
X008522Y012414D01*
X008512Y012431D01*
X008522Y012448D01*
X008532Y012486D01*
X008532Y012616D01*
X007979Y012616D01*
X007979Y012636D01*
X008532Y012636D01*
X008532Y012766D01*
X008522Y012804D01*
X008502Y012838D01*
X008474Y012866D01*
X008440Y012886D01*
X008402Y012896D01*
X007979Y012896D01*
X007979Y012636D01*
X007958Y012636D01*
X007958Y012896D01*
X007535Y012896D01*
X007054Y012896D01*
X007054Y011458D01*
X006954Y011458D01*
X006954Y012896D01*
X006472Y012896D01*
X006049Y012896D01*
X006049Y012636D01*
X006029Y012636D01*
X006029Y012616D01*
X005476Y012616D01*
X005476Y012486D01*
X005486Y012448D01*
X005496Y012431D01*
X005491Y012423D01*
X005465Y012449D01*
X005361Y012492D01*
X005247Y012492D01*
X005142Y012449D01*
X005081Y012387D01*
X005011Y012387D01*
X005011Y012443D01*
X004958Y012496D01*
X004973Y012505D01*
X005001Y012533D01*
X005021Y012568D01*
X005031Y012606D01*
X005031Y012744D01*
X004723Y012744D01*
X004723Y012782D01*
X005031Y012782D01*
X005031Y012921D01*
X005021Y012959D01*
X005001Y012993D01*
X004973Y013021D01*
X004939Y013041D01*
X004901Y013051D01*
X004723Y013051D01*
X004723Y012782D01*
X004685Y012782D01*
X004685Y012744D01*
X004377Y012744D01*
X004377Y012606D01*
X004387Y012568D01*
X004407Y012533D01*
X004435Y012505D01*
X004450Y012496D01*
X004397Y012443D01*
X004397Y012060D01*
X004468Y011989D01*
X004453Y011989D01*
X004377Y011912D01*
X004377Y011372D01*
X004441Y011307D01*
X004377Y011243D01*
X004377Y010702D01*
X004453Y010626D01*
X004531Y010626D01*
X004629Y010527D01*
X004829Y010327D01*
X004978Y010327D01*
X005378Y010327D01*
X005479Y010428D01*
X005486Y010401D01*
X005496Y010384D01*
X005486Y010367D01*
X005476Y010329D01*
X005476Y010199D01*
X006029Y010199D01*
X006029Y010179D01*
X005476Y010179D01*
X005476Y010049D01*
X005486Y010011D01*
X005506Y009977D01*
X005534Y009949D01*
X005568Y009929D01*
X005606Y009919D01*
X006029Y009919D01*
X006029Y010179D01*
X006049Y010179D01*
X006049Y009919D01*
X006472Y009919D01*
X006954Y009919D01*
X006954Y011357D01*
X007054Y011357D01*
X007054Y009919D01*
X007535Y009919D01*
X007958Y009919D01*
X007958Y010179D01*
X007979Y010179D01*
X007979Y010199D01*
X008532Y010199D01*
X008532Y010329D01*
X008522Y010367D01*
X008512Y010384D01*
X008522Y010401D01*
X008529Y010428D01*
X008629Y010327D01*
X008977Y010327D01*
X008977Y010302D01*
X009053Y010226D01*
X009514Y010226D01*
X009514Y009733D01*
X009368Y009733D01*
X009315Y009679D01*
X009306Y009695D01*
X009278Y009723D01*
X009244Y009742D01*
X009206Y009753D01*
X008980Y009753D01*
X008980Y009358D01*
X008880Y009358D01*
X008880Y009753D01*
X008654Y009753D01*
X008616Y009742D01*
X008582Y009723D01*
X008554Y009695D01*
X008534Y009661D01*
X008524Y009622D01*
X008524Y009357D01*
X008880Y009357D01*
X008880Y009257D01*
X008980Y009257D01*
X008980Y008862D01*
X008980Y008558D01*
X008880Y008558D01*
X008880Y008862D01*
X008880Y009257D01*
X008524Y009257D01*
X008524Y008992D01*
X008534Y008954D01*
X008554Y008920D01*
X008567Y008907D01*
X008554Y008895D01*
X008534Y008861D01*
X008524Y008822D01*
X008524Y008557D01*
X008880Y008557D01*
X008880Y008457D01*
X008980Y008457D01*
X008980Y008062D01*
X009206Y008062D01*
X009244Y008072D01*
X009278Y008092D01*
X009306Y008120D01*
X009315Y008136D01*
X009368Y008082D01*
X009988Y008082D01*
X010064Y008158D01*
X010064Y008217D01*
X010384Y008217D01*
X010564Y008037D01*
X010564Y007808D01*
X010608Y007701D01*
X010626Y007684D01*
X010626Y007387D01*
X010578Y007387D01*
X010184Y007782D01*
X010078Y007887D01*
X010028Y007887D01*
X010028Y007938D01*
X009951Y008015D01*
X009568Y008015D01*
X009515Y007961D01*
X009506Y007977D01*
X009478Y008005D01*
X009444Y008024D01*
X009406Y008035D01*
X009267Y008035D01*
X009267Y007727D01*
X009229Y007727D01*
X009229Y008035D01*
X009090Y008035D01*
X009052Y008024D01*
X009018Y008005D01*
X008990Y007977D01*
X008970Y007942D01*
X006790Y007942D01*
X006790Y007872D02*
X006790Y008071D01*
X006713Y008255D01*
X006573Y008396D01*
X006389Y008472D01*
X006190Y008472D01*
X006006Y008396D01*
X006082Y008579D01*
X006082Y008778D01*
X006006Y008962D01*
X005866Y009103D01*
X005682Y009179D01*
X005483Y009179D01*
X005299Y009103D01*
X005375Y009287D01*
X005375Y009486D01*
X005299Y009669D01*
X005159Y009810D01*
X004975Y009886D01*
X004776Y009886D01*
X004592Y009810D01*
X004668Y009994D01*
X004668Y010193D01*
X004592Y010376D01*
X004451Y010517D01*
X004268Y010593D01*
X004069Y010593D01*
X003885Y010517D01*
X003961Y010701D01*
X004378Y010701D01*
X004377Y010800D02*
X003961Y010800D01*
X003961Y010898D02*
X004377Y010898D01*
X004377Y010997D02*
X003921Y010997D01*
X003885Y011083D02*
X003744Y011224D01*
X003561Y011300D01*
X003362Y011300D01*
X003178Y011224D01*
X003037Y011083D01*
X002961Y010900D01*
X002961Y010701D01*
X002491Y010701D01*
X002528Y010603D02*
X003002Y010603D01*
X003037Y010517D02*
X003178Y010376D01*
X003362Y010300D01*
X003561Y010300D01*
X003744Y010376D01*
X003885Y010517D01*
X003744Y010376D01*
X003668Y010193D01*
X003668Y009994D01*
X003744Y009810D01*
X003885Y009669D01*
X004069Y009593D01*
X004268Y009593D01*
X004451Y009669D01*
X004375Y009486D01*
X004375Y009287D01*
X004451Y009103D01*
X004592Y008962D01*
X004776Y008886D01*
X004975Y008886D01*
X005159Y008962D01*
X005083Y008778D01*
X005083Y008579D01*
X005159Y008396D01*
X005299Y008255D01*
X005483Y008179D01*
X005682Y008179D01*
X005866Y008255D01*
X005790Y008071D01*
X005790Y007872D01*
X005866Y007689D01*
X006006Y007548D01*
X006190Y007472D01*
X006389Y007472D01*
X006554Y007540D01*
X006552Y007537D01*
X006515Y007464D01*
X006489Y007387D01*
X006478Y007315D01*
X006946Y007315D01*
X006946Y007215D01*
X006478Y007215D01*
X006489Y007143D01*
X006515Y007065D01*
X006552Y006992D01*
X006600Y006926D01*
X006658Y006868D01*
X006724Y006820D01*
X006797Y006783D01*
X006875Y006758D01*
X006947Y006746D01*
X006947Y007215D01*
X007047Y007215D01*
X007047Y007315D01*
X007515Y007315D01*
X007504Y007387D01*
X007479Y007464D01*
X007441Y007537D01*
X007393Y007604D01*
X007335Y007661D01*
X007269Y007709D01*
X007196Y007747D01*
X007118Y007772D01*
X007047Y007783D01*
X007047Y007315D01*
X006947Y007315D01*
X006947Y007783D01*
X006875Y007772D01*
X006797Y007747D01*
X006724Y007709D01*
X006721Y007707D01*
X006790Y007872D01*
X006777Y007843D02*
X008960Y007843D01*
X008960Y007904D02*
X008960Y007726D01*
X009229Y007726D01*
X009229Y007688D01*
X009267Y007688D01*
X009267Y007535D01*
X009267Y007227D01*
X009229Y007227D01*
X009229Y007535D01*
X009229Y007688D01*
X008960Y007688D01*
X008960Y007510D01*
X008970Y007472D01*
X008979Y007457D01*
X008970Y007442D01*
X008960Y007404D01*
X008960Y007226D01*
X009229Y007226D01*
X009229Y007188D01*
X009267Y007188D01*
X009267Y006880D01*
X009406Y006880D01*
X009444Y006890D01*
X009478Y006910D01*
X009506Y006938D01*
X009515Y006954D01*
X009568Y006900D01*
X009951Y006900D01*
X010028Y006976D01*
X010028Y007027D01*
X010029Y007027D01*
X010229Y006827D01*
X010378Y006827D01*
X011829Y006827D01*
X011914Y006827D01*
X011437Y006351D01*
X011311Y006351D01*
X011128Y006274D01*
X010987Y006134D01*
X010919Y005969D01*
X010918Y005972D01*
X010893Y006050D01*
X010856Y006123D01*
X010807Y006189D01*
X010750Y006247D01*
X010683Y006295D01*
X010610Y006332D01*
X010533Y006358D01*
X010461Y006369D01*
X010461Y005901D01*
X010361Y005901D01*
X010361Y006369D01*
X010289Y006358D01*
X010211Y006332D01*
X010138Y006295D01*
X010072Y006247D01*
X010014Y006189D01*
X009966Y006123D01*
X009929Y006050D01*
X009904Y005972D01*
X009903Y005969D01*
X009835Y006134D01*
X009694Y006274D01*
X009510Y006351D01*
X009311Y006351D01*
X009128Y006274D01*
X008987Y006134D01*
X008919Y005969D01*
X008918Y005972D01*
X008893Y006050D01*
X008856Y006123D01*
X008813Y006182D01*
X008482Y005851D01*
X008411Y005921D01*
X008742Y006253D01*
X008683Y006295D01*
X008611Y006332D01*
X008533Y006358D01*
X008452Y006371D01*
X008370Y006371D01*
X008289Y006358D01*
X008211Y006332D01*
X008159Y006306D01*
X008186Y006358D01*
X008211Y006436D01*
X008222Y006508D01*
X007754Y006508D01*
X007754Y006608D01*
X007654Y006608D01*
X007654Y007076D01*
X007582Y007065D01*
X007504Y007040D01*
X007452Y007013D01*
X007479Y007065D01*
X007504Y007143D01*
X007515Y007215D01*
X007047Y007215D01*
X007047Y006746D01*
X007118Y006758D01*
X007196Y006783D01*
X007248Y006809D01*
X007222Y006757D01*
X007197Y006679D01*
X007185Y006608D01*
X007654Y006608D01*
X007654Y006508D01*
X007754Y006508D01*
X007754Y006039D01*
X007826Y006051D01*
X007903Y006076D01*
X007956Y006102D01*
X007929Y006050D01*
X007904Y005972D01*
X007891Y005891D01*
X007891Y005810D01*
X007904Y005729D01*
X007929Y005651D01*
X007966Y005578D01*
X008009Y005519D01*
X008340Y005850D01*
X008411Y005780D01*
X008482Y005850D01*
X008813Y005519D01*
X008856Y005578D01*
X008893Y005651D01*
X008918Y005729D01*
X008919Y005732D01*
X008987Y005567D01*
X009128Y005427D01*
X009311Y005351D01*
X009510Y005351D01*
X009539Y005362D01*
X009958Y004943D01*
X010040Y004862D01*
X010126Y004826D01*
X009738Y004873D01*
X008590Y005156D01*
X007484Y005575D01*
X006437Y006125D01*
X006374Y006168D02*
X007358Y006168D01*
X007365Y006161D02*
X007431Y006113D01*
X007504Y006076D01*
X007582Y006051D01*
X007654Y006039D01*
X007654Y006508D01*
X007185Y006508D01*
X007197Y006436D01*
X007222Y006358D01*
X007259Y006285D01*
X007307Y006219D01*
X007365Y006161D01*
X007272Y006267D02*
X006231Y006267D01*
X006089Y006365D02*
X007220Y006365D01*
X007192Y006464D02*
X005946Y006464D01*
X005803Y006562D02*
X007654Y006562D01*
X007654Y006464D02*
X007754Y006464D01*
X007754Y006562D02*
X011649Y006562D01*
X011747Y006661D02*
X008214Y006661D01*
X008211Y006679D02*
X008186Y006757D01*
X008149Y006830D01*
X008100Y006896D01*
X008043Y006954D01*
X007976Y007002D01*
X007903Y007040D01*
X007826Y007065D01*
X007754Y007076D01*
X007754Y006608D01*
X008222Y006608D01*
X008211Y006679D01*
X008185Y006759D02*
X011846Y006759D01*
X011904Y007007D02*
X010304Y007007D01*
X010104Y007207D01*
X009760Y007207D01*
X010008Y006956D02*
X010100Y006956D01*
X010199Y006858D02*
X008128Y006858D01*
X008040Y006956D02*
X008980Y006956D01*
X008970Y006972D02*
X008990Y006938D01*
X009018Y006910D01*
X009052Y006890D01*
X009090Y006880D01*
X009229Y006880D01*
X009229Y007188D01*
X008960Y007188D01*
X008960Y007010D01*
X008970Y006972D01*
X008960Y007055D02*
X007856Y007055D01*
X007754Y007055D02*
X007654Y007055D01*
X007654Y006956D02*
X007754Y006956D01*
X007754Y006858D02*
X007654Y006858D01*
X007654Y006759D02*
X007754Y006759D01*
X007754Y006661D02*
X007654Y006661D01*
X007654Y006365D02*
X007754Y006365D01*
X007754Y006267D02*
X007654Y006267D01*
X007654Y006168D02*
X007754Y006168D01*
X007754Y006070D02*
X007654Y006070D01*
X007884Y006070D02*
X007939Y006070D01*
X007904Y005971D02*
X006730Y005971D01*
X006918Y005872D02*
X007891Y005872D01*
X007897Y005774D02*
X007106Y005774D01*
X007293Y005675D02*
X007921Y005675D01*
X007967Y005577D02*
X007481Y005577D01*
X007740Y005478D02*
X008109Y005478D01*
X008080Y005449D02*
X008138Y005406D01*
X008211Y005369D01*
X008289Y005343D01*
X008370Y005331D01*
X008452Y005331D01*
X008533Y005343D01*
X008611Y005369D01*
X008683Y005406D01*
X008742Y005449D01*
X008411Y005780D01*
X008080Y005449D01*
X008000Y005380D02*
X008190Y005380D01*
X008259Y005281D02*
X009620Y005281D01*
X009719Y005183D02*
X008519Y005183D01*
X008632Y005380D02*
X009241Y005380D01*
X009076Y005478D02*
X008712Y005478D01*
X008755Y005577D02*
X008614Y005577D01*
X008657Y005675D02*
X008515Y005675D01*
X008558Y005774D02*
X008417Y005774D01*
X008405Y005774D02*
X008264Y005774D01*
X008306Y005675D02*
X008165Y005675D01*
X008208Y005577D02*
X008066Y005577D01*
X008460Y005872D02*
X008504Y005872D01*
X008461Y005971D02*
X008602Y005971D01*
X008559Y006070D02*
X008701Y006070D01*
X008658Y006168D02*
X008799Y006168D01*
X008823Y006168D02*
X009021Y006168D01*
X008960Y006070D02*
X008883Y006070D01*
X008918Y005971D02*
X008920Y005971D01*
X008901Y005675D02*
X008942Y005675D01*
X008983Y005577D02*
X008855Y005577D01*
X008881Y005084D02*
X009817Y005084D01*
X009916Y004986D02*
X009281Y004986D01*
X009681Y004887D02*
X010014Y004887D01*
X010433Y004788D02*
X014053Y004788D01*
X013994Y004887D02*
X014291Y004887D01*
X014484Y004986D02*
X014092Y004986D01*
X014191Y005084D02*
X014614Y005084D01*
X014744Y005183D02*
X014289Y005183D01*
X014388Y005281D02*
X014831Y005281D01*
X014914Y005380D02*
X014486Y005380D01*
X014585Y005478D02*
X014997Y005478D01*
X015052Y005577D02*
X014683Y005577D01*
X014782Y005675D02*
X015102Y005675D01*
X015153Y005774D02*
X014881Y005774D01*
X014979Y005872D02*
X015195Y005872D01*
X015186Y005839D02*
X015186Y005839D01*
X015220Y005971D02*
X015078Y005971D01*
X015161Y006070D02*
X015245Y006070D01*
X015270Y006168D02*
X015194Y006168D01*
X015194Y006267D02*
X015287Y006267D01*
X015295Y006365D02*
X015194Y006365D01*
X015194Y006464D02*
X015299Y006464D01*
X015299Y006562D02*
X015194Y006562D01*
X015194Y006661D02*
X015299Y006661D01*
X015299Y006759D02*
X015194Y006759D01*
X015194Y006858D02*
X015299Y006858D01*
X015299Y006956D02*
X015194Y006956D01*
X015194Y007055D02*
X015299Y007055D01*
X015299Y007154D02*
X015194Y007154D01*
X015158Y007252D02*
X015299Y007252D01*
X015299Y007351D02*
X015071Y007351D01*
X014972Y007449D02*
X015299Y007449D01*
X015299Y007548D02*
X014874Y007548D01*
X014775Y007646D02*
X015299Y007646D01*
X015299Y007745D02*
X014677Y007745D01*
X014578Y007843D02*
X015299Y007843D01*
X015299Y007942D02*
X014504Y007942D01*
X014504Y008040D02*
X015299Y008040D01*
X015299Y008139D02*
X014491Y008139D01*
X014450Y008237D02*
X015299Y008237D01*
X015299Y008336D02*
X014382Y008336D01*
X014279Y008435D02*
X015299Y008435D01*
X015299Y008533D02*
X014218Y008533D01*
X014364Y008632D02*
X015299Y008632D01*
X015299Y008730D02*
X014445Y008730D01*
X014493Y008829D02*
X015299Y008829D01*
X015299Y008927D02*
X014518Y008927D01*
X014512Y009124D02*
X015299Y009124D01*
X015299Y009026D02*
X014054Y009026D01*
X013954Y009026D02*
X012432Y009026D01*
X012334Y008927D02*
X013490Y008927D01*
X013485Y008957D02*
X013497Y008886D01*
X013522Y008808D01*
X013559Y008735D01*
X013607Y008669D01*
X013665Y008611D01*
X013731Y008563D01*
X013804Y008526D01*
X013882Y008500D01*
X013886Y008500D01*
X013721Y008431D01*
X013580Y008291D01*
X013504Y008107D01*
X013504Y007908D01*
X013580Y007724D01*
X013721Y007584D01*
X013904Y007507D01*
X013721Y007431D01*
X013580Y007291D01*
X013504Y007107D01*
X013504Y006908D01*
X013580Y006724D01*
X013721Y006584D01*
X013904Y006507D01*
X014103Y006507D01*
X014287Y006584D01*
X014428Y006724D01*
X014504Y006908D01*
X014504Y007097D01*
X014614Y006987D01*
X014614Y006328D01*
X013684Y005397D01*
X013623Y005397D01*
X013694Y005427D01*
X013835Y005567D01*
X013911Y005751D01*
X013911Y005950D01*
X013835Y006134D01*
X013694Y006274D01*
X013510Y006351D01*
X013311Y006351D01*
X013128Y006274D01*
X012987Y006134D01*
X012919Y005969D01*
X012918Y005972D01*
X012893Y006050D01*
X012856Y006123D01*
X012807Y006189D01*
X012750Y006247D01*
X012683Y006295D01*
X012610Y006332D01*
X012533Y006358D01*
X012461Y006369D01*
X012461Y005901D01*
X012361Y005901D01*
X012361Y006369D01*
X012289Y006358D01*
X012253Y006346D01*
X013068Y007162D01*
X013150Y007243D01*
X013194Y007350D01*
X013194Y007965D01*
X013150Y008072D01*
X013068Y008153D01*
X012962Y008197D01*
X012846Y008197D01*
X012740Y008153D01*
X012658Y008072D01*
X012614Y007965D01*
X012614Y007528D01*
X012578Y007492D01*
X012578Y008353D01*
X012560Y008371D01*
X012596Y008406D01*
X012639Y008511D01*
X012639Y008624D01*
X012596Y008729D01*
X012515Y008809D01*
X012411Y008852D01*
X012297Y008852D01*
X012232Y008825D01*
X013124Y009717D01*
X013587Y009717D01*
X013721Y009584D01*
X013886Y009515D01*
X013882Y009515D01*
X013804Y009489D01*
X013731Y009452D01*
X013665Y009404D01*
X013607Y009346D01*
X013559Y009280D01*
X013522Y009207D01*
X013497Y009129D01*
X013485Y009057D01*
X013954Y009057D01*
X013954Y008957D01*
X013485Y008957D01*
X013515Y008829D02*
X012468Y008829D01*
X012594Y008730D02*
X013563Y008730D01*
X013644Y008632D02*
X012636Y008632D01*
X012639Y008533D02*
X013789Y008533D01*
X013729Y008435D02*
X012607Y008435D01*
X012578Y008336D02*
X013625Y008336D01*
X013558Y008237D02*
X012578Y008237D01*
X012578Y008139D02*
X012725Y008139D01*
X012645Y008040D02*
X012578Y008040D01*
X012578Y007942D02*
X012614Y007942D01*
X012614Y007843D02*
X012578Y007843D01*
X012578Y007745D02*
X012614Y007745D01*
X012614Y007646D02*
X012578Y007646D01*
X012578Y007548D02*
X012614Y007548D01*
X012350Y007453D02*
X012350Y007866D01*
X012354Y007870D01*
X012354Y008567D01*
X012240Y008829D02*
X012235Y008829D01*
X012531Y009124D02*
X013496Y009124D01*
X013530Y009223D02*
X012630Y009223D01*
X012728Y009321D02*
X013589Y009321D01*
X013687Y009420D02*
X012827Y009420D01*
X012925Y009519D02*
X013877Y009519D01*
X013687Y009617D02*
X013024Y009617D01*
X013122Y009716D02*
X013589Y009716D01*
X014130Y009519D02*
X015299Y009519D01*
X015299Y009617D02*
X014321Y009617D01*
X014419Y009716D02*
X015299Y009716D01*
X015299Y009814D02*
X014465Y009814D01*
X014504Y009913D02*
X015299Y009913D01*
X015299Y010011D02*
X014504Y010011D01*
X014503Y010110D02*
X015299Y010110D01*
X015299Y010208D02*
X014462Y010208D01*
X014411Y010307D02*
X015299Y010307D01*
X015299Y010405D02*
X014313Y010405D01*
X014306Y010603D02*
X015299Y010603D01*
X015299Y010701D02*
X014405Y010701D01*
X014459Y010800D02*
X015299Y010800D01*
X015299Y010898D02*
X014500Y010898D01*
X014504Y010997D02*
X015299Y010997D01*
X015299Y011095D02*
X014504Y011095D01*
X014468Y011194D02*
X015299Y011194D01*
X015299Y011292D02*
X014426Y011292D01*
X014328Y011391D02*
X015299Y011391D01*
X015299Y011489D02*
X014147Y011489D01*
X013861Y011489D02*
X011644Y011489D01*
X011644Y011391D02*
X013680Y011391D01*
X013234Y011292D02*
X011644Y011292D01*
X011644Y011194D02*
X013080Y011194D01*
X012982Y011095D02*
X011644Y011095D01*
X011644Y010997D02*
X012883Y010997D01*
X012785Y010898D02*
X012520Y010898D01*
X012582Y010800D02*
X012686Y010800D01*
X012588Y010701D02*
X012582Y010701D01*
X012188Y010898D02*
X012020Y010898D01*
X012082Y010800D02*
X012126Y010800D01*
X012126Y010701D02*
X012082Y010701D01*
X011688Y010898D02*
X011644Y010898D01*
X011064Y010898D02*
X011020Y010898D01*
X011064Y010997D02*
X009894Y010997D01*
X009894Y011095D02*
X011064Y011095D01*
X011064Y011194D02*
X009894Y011194D01*
X009894Y011292D02*
X011064Y011292D01*
X011064Y011391D02*
X009894Y011391D01*
X009894Y011489D02*
X011064Y011489D01*
X011064Y011588D02*
X009892Y011588D01*
X009794Y011686D02*
X011064Y011686D01*
X011064Y011785D02*
X009695Y011785D01*
X009596Y011884D02*
X011064Y011884D01*
X011064Y011982D02*
X008512Y011982D01*
X008512Y011884D02*
X008811Y011884D01*
X008713Y011785D02*
X008512Y011785D01*
X008512Y012081D02*
X011064Y012081D01*
X011064Y012179D02*
X008514Y012179D01*
X008532Y012278D02*
X011064Y012278D01*
X011064Y012376D02*
X008532Y012376D01*
X008529Y012475D02*
X011052Y012475D01*
X011024Y012573D02*
X008532Y012573D01*
X008532Y012672D02*
X011024Y012672D01*
X011040Y012770D02*
X010430Y012770D01*
X010457Y012782D02*
X010281Y012709D01*
X010090Y012709D01*
X009913Y012782D01*
X009778Y012917D01*
X009705Y013093D01*
X009705Y013284D01*
X009778Y013460D01*
X003254Y013460D01*
X003254Y013408D02*
X003178Y013224D01*
X003037Y013084D01*
X002854Y013007D01*
X002655Y013007D01*
X002471Y013084D01*
X002330Y013224D01*
X002254Y013408D01*
X002254Y013607D01*
X002330Y013791D01*
X002471Y013931D01*
X002655Y014007D01*
X002854Y014007D01*
X003037Y013931D01*
X003178Y013791D01*
X003254Y013607D01*
X003254Y013408D01*
X003235Y013362D02*
X009737Y013362D01*
X009705Y013263D02*
X003194Y013263D01*
X003118Y013165D02*
X009705Y013165D01*
X009716Y013066D02*
X002995Y013066D01*
X002950Y012968D02*
X004392Y012968D01*
X004387Y012959D02*
X004377Y012921D01*
X004377Y012782D01*
X004685Y012782D01*
X004685Y013051D01*
X004507Y013051D01*
X004469Y013041D01*
X004435Y013021D01*
X004407Y012993D01*
X004387Y012959D01*
X004377Y012869D02*
X003099Y012869D01*
X003037Y012931D02*
X003178Y012791D01*
X003254Y012607D01*
X003254Y012408D01*
X003178Y012224D01*
X003037Y012084D01*
X002853Y012007D01*
X002655Y012007D01*
X002471Y011931D01*
X002330Y011791D01*
X002254Y011607D01*
X002254Y011408D01*
X002330Y011224D01*
X002471Y011084D01*
X002655Y011007D01*
X002854Y011007D01*
X003037Y011084D01*
X003178Y011224D01*
X003254Y011408D01*
X003254Y011607D01*
X003178Y011791D01*
X003037Y011931D01*
X002854Y012007D01*
X002655Y012007D01*
X002471Y012084D01*
X002330Y012224D01*
X002254Y012408D01*
X002254Y012607D01*
X002330Y012791D01*
X002471Y012931D01*
X002655Y013007D01*
X002853Y013007D01*
X003037Y012931D01*
X003186Y012770D02*
X004685Y012770D01*
X004723Y012770D02*
X005477Y012770D01*
X005476Y012766D02*
X005476Y012636D01*
X006029Y012636D01*
X006029Y012896D01*
X005606Y012896D01*
X005568Y012886D01*
X005534Y012866D01*
X005506Y012838D01*
X005486Y012804D01*
X005476Y012766D01*
X005476Y012672D02*
X005031Y012672D01*
X005022Y012573D02*
X005476Y012573D01*
X005479Y012475D02*
X005403Y012475D01*
X005205Y012475D02*
X004979Y012475D01*
X004748Y012207D02*
X004704Y012251D01*
X004748Y012207D02*
X005304Y012207D01*
X005464Y012047D01*
X005862Y012047D01*
X005862Y011791D02*
X005862Y011535D01*
X005862Y011279D02*
X005067Y011279D01*
X004704Y011642D01*
X004377Y011686D02*
X003221Y011686D01*
X003254Y011588D02*
X004377Y011588D01*
X004377Y011489D02*
X003254Y011489D01*
X003247Y011391D02*
X004377Y011391D01*
X004426Y011292D02*
X003580Y011292D01*
X003775Y011194D02*
X004377Y011194D01*
X004377Y011095D02*
X003873Y011095D01*
X003885Y011083D02*
X003961Y010900D01*
X003961Y010701D01*
X003920Y010603D02*
X004554Y010603D01*
X004464Y010504D02*
X004653Y010504D01*
X004563Y010405D02*
X004751Y010405D01*
X004621Y010307D02*
X005476Y010307D01*
X005476Y010208D02*
X004662Y010208D01*
X004668Y010110D02*
X005476Y010110D01*
X005486Y010011D02*
X004668Y010011D01*
X004635Y009913D02*
X009514Y009913D01*
X009514Y010011D02*
X008522Y010011D01*
X008532Y010049D01*
X008532Y010179D01*
X007979Y010179D01*
X007979Y009919D01*
X008402Y009919D01*
X008440Y009929D01*
X008474Y009949D01*
X008502Y009977D01*
X008522Y010011D01*
X008532Y010110D02*
X009514Y010110D01*
X009514Y010208D02*
X008532Y010208D01*
X008532Y010307D02*
X008977Y010307D01*
X009239Y010507D02*
X008704Y010507D01*
X008444Y010768D01*
X008146Y010768D01*
X008146Y011024D02*
X008688Y011024D01*
X008804Y010907D01*
X008551Y010405D02*
X008523Y010405D01*
X008145Y010511D02*
X007759Y010511D01*
X007759Y010459D01*
X007744Y010459D01*
X007744Y011357D01*
X007054Y011357D01*
X007054Y011457D01*
X007744Y011457D01*
X007744Y012356D01*
X007759Y012356D01*
X007759Y012303D01*
X007759Y012230D01*
X007770Y012192D01*
X007787Y012162D01*
X007779Y012154D01*
X007779Y011940D01*
X007800Y011919D01*
X007779Y011898D01*
X007779Y011684D01*
X007800Y011663D01*
X007779Y011642D01*
X007779Y011428D01*
X007800Y011407D01*
X007779Y011386D01*
X007779Y011172D01*
X007800Y011151D01*
X007779Y011131D01*
X007779Y010917D01*
X007800Y010896D01*
X007779Y010875D01*
X007779Y010661D01*
X007787Y010653D01*
X007770Y010623D01*
X007759Y010585D01*
X007759Y010512D01*
X008145Y010512D01*
X008145Y010511D01*
X007759Y010504D02*
X007744Y010504D01*
X007744Y010603D02*
X007764Y010603D01*
X007779Y010701D02*
X007744Y010701D01*
X007744Y010800D02*
X007779Y010800D01*
X007798Y010898D02*
X007744Y010898D01*
X007744Y010997D02*
X007779Y010997D01*
X007779Y011095D02*
X007744Y011095D01*
X007744Y011194D02*
X007779Y011194D01*
X007779Y011292D02*
X007744Y011292D01*
X007784Y011391D02*
X007054Y011391D01*
X007054Y011489D02*
X006954Y011489D01*
X006954Y011457D02*
X006954Y011357D01*
X006263Y011357D01*
X006263Y010459D01*
X006248Y010459D01*
X006248Y010511D01*
X005863Y010511D01*
X005863Y010512D01*
X006248Y010512D01*
X006248Y010585D01*
X006238Y010623D01*
X006221Y010653D01*
X006228Y010661D01*
X006228Y010875D01*
X006207Y010896D01*
X006228Y010917D01*
X006228Y011131D01*
X006207Y011151D01*
X006228Y011172D01*
X006228Y011386D01*
X006207Y011407D01*
X006228Y011428D01*
X006228Y011642D01*
X006207Y011663D01*
X006228Y011684D01*
X006228Y011898D01*
X006207Y011919D01*
X006228Y011940D01*
X006228Y012154D01*
X006221Y012162D01*
X006238Y012192D01*
X006248Y012230D01*
X006248Y012303D01*
X005863Y012303D01*
X005863Y012303D01*
X006248Y012303D01*
X006248Y012356D01*
X006263Y012356D01*
X006263Y011457D01*
X006954Y011457D01*
X006954Y011391D02*
X006224Y011391D01*
X006228Y011489D02*
X006263Y011489D01*
X006263Y011588D02*
X006228Y011588D01*
X006228Y011686D02*
X006263Y011686D01*
X006263Y011785D02*
X006228Y011785D01*
X006228Y011884D02*
X006263Y011884D01*
X006263Y011982D02*
X006228Y011982D01*
X006228Y012081D02*
X006263Y012081D01*
X006263Y012179D02*
X006231Y012179D01*
X006248Y012278D02*
X006263Y012278D01*
X006049Y012672D02*
X006029Y012672D01*
X006029Y012770D02*
X006049Y012770D01*
X006049Y012869D02*
X006029Y012869D01*
X005539Y012869D02*
X005031Y012869D01*
X005016Y012968D02*
X009757Y012968D01*
X009826Y012869D02*
X008469Y012869D01*
X008531Y012770D02*
X009940Y012770D01*
X010457Y012782D02*
X010592Y012917D01*
X010665Y013093D01*
X010665Y013284D01*
X010592Y013460D01*
X012416Y013460D01*
X012343Y013284D01*
X012343Y013093D01*
X012416Y012917D01*
X012551Y012782D01*
X012727Y012709D01*
X012918Y012709D01*
X013095Y012782D01*
X013230Y012917D01*
X013303Y013093D01*
X013303Y013284D01*
X013230Y013460D01*
X015299Y013460D01*
X015299Y013362D02*
X013271Y013362D01*
X013303Y013263D02*
X015299Y013263D01*
X015299Y013165D02*
X013303Y013165D01*
X013292Y013066D02*
X015299Y013066D01*
X015299Y012968D02*
X013251Y012968D01*
X013182Y012869D02*
X015299Y012869D01*
X015299Y012770D02*
X013068Y012770D01*
X012578Y012770D02*
X011968Y012770D01*
X011984Y012672D02*
X015299Y012672D01*
X015299Y012573D02*
X011984Y012573D01*
X011956Y012475D02*
X015299Y012475D01*
X015299Y012376D02*
X011915Y012376D01*
X011823Y012278D02*
X015299Y012278D01*
X015299Y012179D02*
X011652Y012179D01*
X011644Y012081D02*
X015299Y012081D01*
X015299Y011982D02*
X011644Y011982D01*
X011644Y011884D02*
X015299Y011884D01*
X015299Y011785D02*
X011644Y011785D01*
X011644Y011686D02*
X015299Y011686D01*
X015299Y011588D02*
X011644Y011588D01*
X010688Y010898D02*
X009894Y010898D01*
X009894Y010800D02*
X010626Y010800D01*
X010626Y010701D02*
X009894Y010701D01*
X009894Y010603D02*
X010626Y010603D01*
X010604Y010504D02*
X009894Y010504D01*
X009894Y010405D02*
X010564Y010405D01*
X010564Y010307D02*
X009894Y010307D01*
X009894Y010208D02*
X010598Y010208D01*
X010626Y010110D02*
X009894Y010110D01*
X009894Y010011D02*
X010626Y010011D01*
X010626Y009913D02*
X009894Y009913D01*
X009894Y009814D02*
X010674Y009814D01*
X010496Y009519D02*
X012105Y009519D01*
X012204Y009617D02*
X010064Y009617D01*
X010064Y009519D02*
X010112Y009519D01*
X010005Y009716D02*
X012302Y009716D01*
X012174Y009814D02*
X012034Y009814D01*
X012082Y009913D02*
X012126Y009913D01*
X012126Y010011D02*
X012082Y010011D01*
X011674Y009814D02*
X011534Y009814D01*
X011582Y009913D02*
X011626Y009913D01*
X011626Y010011D02*
X011582Y010011D01*
X011582Y010110D02*
X011626Y010110D01*
X011126Y010011D02*
X011082Y010011D01*
X011082Y009913D02*
X011126Y009913D01*
X011174Y009814D02*
X011034Y009814D01*
X010566Y009420D02*
X012006Y009420D01*
X011908Y009321D02*
X010589Y009321D01*
X010577Y009223D02*
X011809Y009223D01*
X011711Y009124D02*
X010524Y009124D01*
X010369Y009026D02*
X011612Y009026D01*
X011567Y008927D02*
X010033Y008927D01*
X010064Y008829D02*
X011240Y008829D01*
X011114Y008730D02*
X010691Y008730D01*
X010790Y008632D02*
X011072Y008632D01*
X011069Y008533D02*
X010888Y008533D01*
X010987Y008435D02*
X011100Y008435D01*
X011085Y008336D02*
X011122Y008336D01*
X011354Y008567D02*
X011354Y007870D01*
X011350Y007866D01*
X011344Y007872D01*
X011350Y007866D02*
X011350Y007453D01*
X011104Y007207D01*
X010504Y007207D01*
X010004Y007707D01*
X009760Y007707D01*
X010024Y007942D02*
X010564Y007942D01*
X010561Y008040D02*
X006790Y008040D01*
X006762Y008139D02*
X008543Y008139D01*
X008534Y008154D02*
X008554Y008120D01*
X008582Y008092D01*
X008616Y008072D01*
X008654Y008062D01*
X008880Y008062D01*
X008880Y008457D01*
X008524Y008457D01*
X008524Y008192D01*
X008534Y008154D01*
X008524Y008237D02*
X006721Y008237D01*
X006632Y008336D02*
X008524Y008336D01*
X008524Y008435D02*
X007615Y008435D01*
X007645Y008447D02*
X007764Y008566D01*
X007829Y008723D01*
X007829Y008892D01*
X007764Y009048D01*
X007645Y009168D01*
X007489Y009233D01*
X007319Y009233D01*
X007163Y009168D01*
X007043Y009048D01*
X006979Y008892D01*
X006979Y008723D01*
X007043Y008566D01*
X007163Y008447D01*
X007319Y008382D01*
X007489Y008382D01*
X007645Y008447D01*
X007731Y008533D02*
X008880Y008533D01*
X008880Y008435D02*
X008980Y008435D01*
X008980Y008336D02*
X008880Y008336D01*
X008880Y008237D02*
X008980Y008237D01*
X008980Y008139D02*
X008880Y008139D01*
X008970Y007942D02*
X008960Y007904D01*
X008960Y007745D02*
X007200Y007745D01*
X007047Y007745D02*
X006947Y007745D01*
X006947Y007646D02*
X007047Y007646D01*
X007047Y007548D02*
X006947Y007548D01*
X006947Y007449D02*
X007047Y007449D01*
X007047Y007351D02*
X006947Y007351D01*
X006946Y007252D02*
X004949Y007252D01*
X004838Y007351D02*
X006484Y007351D01*
X006510Y007449D02*
X004727Y007449D01*
X004616Y007548D02*
X006007Y007548D01*
X005908Y007646D02*
X004520Y007646D01*
X004433Y007745D02*
X005842Y007745D01*
X005802Y007843D02*
X004346Y007843D01*
X004258Y007942D02*
X005790Y007942D01*
X005790Y008040D02*
X004171Y008040D01*
X004084Y008139D02*
X005818Y008139D01*
X005823Y008237D02*
X005858Y008237D01*
X006022Y008435D02*
X006100Y008435D01*
X006063Y008533D02*
X007077Y008533D01*
X007016Y008632D02*
X006082Y008632D01*
X006082Y008730D02*
X006979Y008730D01*
X006979Y008829D02*
X006062Y008829D01*
X006021Y008927D02*
X006993Y008927D01*
X007034Y009026D02*
X005943Y009026D01*
X005814Y009124D02*
X007119Y009124D01*
X007296Y009223D02*
X005349Y009223D01*
X005351Y009124D02*
X005308Y009124D01*
X005299Y009103D02*
X005159Y008962D01*
X005299Y009103D01*
X005222Y009026D02*
X005222Y009026D01*
X005144Y008927D02*
X005074Y008927D01*
X005103Y008829D02*
X003544Y008829D01*
X003611Y008730D02*
X005083Y008730D01*
X005083Y008632D02*
X003680Y008632D01*
X003748Y008533D02*
X005102Y008533D01*
X005142Y008435D02*
X003822Y008435D01*
X003909Y008336D02*
X005218Y008336D01*
X005342Y008237D02*
X003996Y008237D01*
X003475Y008927D02*
X004676Y008927D01*
X004528Y009026D02*
X003407Y009026D01*
X003339Y009124D02*
X004443Y009124D01*
X004402Y009223D02*
X003271Y009223D01*
X003203Y009321D02*
X004375Y009321D01*
X004375Y009420D02*
X003135Y009420D01*
X003080Y009519D02*
X004389Y009519D01*
X004430Y009617D02*
X004326Y009617D01*
X004011Y009617D02*
X003029Y009617D01*
X002977Y009716D02*
X003839Y009716D01*
X003743Y009814D02*
X002925Y009814D01*
X002873Y009913D02*
X003702Y009913D01*
X003668Y010011D02*
X002822Y010011D01*
X002770Y010110D02*
X003668Y010110D01*
X003675Y010208D02*
X002718Y010208D01*
X002667Y010307D02*
X003346Y010307D01*
X003149Y010405D02*
X002615Y010405D01*
X002566Y010504D02*
X003050Y010504D01*
X003037Y010517D02*
X002961Y010701D01*
X002961Y010800D02*
X002453Y010800D01*
X002416Y010898D02*
X002961Y010898D01*
X003001Y010997D02*
X002379Y010997D01*
X002341Y011095D02*
X002459Y011095D01*
X002361Y011194D02*
X002304Y011194D01*
X002302Y011292D02*
X002267Y011292D01*
X002261Y011391D02*
X002229Y011391D01*
X002254Y011489D02*
X002192Y011489D01*
X002154Y011588D02*
X002254Y011588D01*
X002287Y011686D02*
X002129Y011686D01*
X002105Y011785D02*
X002328Y011785D01*
X002423Y011884D02*
X002081Y011884D01*
X002057Y011982D02*
X002594Y011982D01*
X002478Y012081D02*
X002032Y012081D01*
X002008Y012179D02*
X002375Y012179D01*
X002308Y012278D02*
X001984Y012278D01*
X001959Y012376D02*
X002267Y012376D01*
X002254Y012475D02*
X001935Y012475D01*
X001911Y012573D02*
X002254Y012573D01*
X002281Y012672D02*
X001887Y012672D01*
X001866Y012770D02*
X002322Y012770D01*
X002409Y012869D02*
X001854Y012869D01*
X001842Y012968D02*
X002558Y012968D01*
X002513Y013066D02*
X001830Y013066D01*
X001818Y013165D02*
X002390Y013165D01*
X002314Y013263D02*
X001806Y013263D01*
X001794Y013362D02*
X002273Y013362D01*
X002254Y013460D02*
X001782Y013460D01*
X001770Y013559D02*
X002254Y013559D01*
X002275Y013657D02*
X001758Y013657D01*
X001746Y013756D02*
X002316Y013756D01*
X002394Y013854D02*
X001734Y013854D01*
X001727Y013953D02*
X002523Y013953D01*
X002548Y014052D02*
X001727Y014052D01*
X001727Y014150D02*
X002404Y014150D01*
X002471Y014084D02*
X002655Y014007D01*
X002853Y014007D01*
X003037Y014084D01*
X003178Y014224D01*
X003254Y014408D01*
X003254Y014607D01*
X003211Y014710D01*
X005084Y016583D01*
X005084Y016732D01*
X005084Y018133D01*
X008730Y021779D01*
X008730Y021779D01*
X008730Y021589D01*
X008744Y021575D01*
X008730Y021561D01*
X008730Y021333D01*
X008744Y021319D01*
X008730Y021305D01*
X008730Y021077D01*
X008744Y021063D01*
X008730Y021049D01*
X008730Y020821D01*
X008744Y020807D01*
X008730Y020793D01*
X008730Y020566D01*
X008733Y020563D01*
X008720Y020541D01*
X008710Y020503D01*
X008710Y020424D01*
X009055Y020424D01*
X009055Y020423D01*
X008710Y020423D01*
X008710Y020344D01*
X008720Y020306D01*
X008733Y020284D01*
X008730Y020281D01*
X008730Y020054D01*
X008744Y020040D01*
X008730Y020026D01*
X008730Y019798D01*
X008744Y019784D01*
X008730Y019770D01*
X008730Y019542D01*
X008806Y019466D01*
X009304Y019466D01*
X009380Y019542D01*
X009380Y019770D01*
X009366Y019784D01*
X009380Y019798D01*
X009380Y020026D01*
X009366Y020040D01*
X009380Y020054D01*
X009380Y020281D01*
X009377Y020284D01*
X009390Y020306D01*
X009400Y020344D01*
X009400Y020423D01*
X009056Y020423D01*
X009056Y020424D01*
X009400Y020424D01*
X009400Y020499D01*
X009457Y020499D01*
X009819Y020138D01*
X009819Y020051D01*
X009862Y019946D01*
X009924Y019884D01*
X009924Y019033D01*
X010029Y018927D01*
X010896Y018061D01*
X011045Y018061D01*
X011047Y018061D01*
X011065Y018042D01*
X011646Y018042D01*
X011722Y018118D01*
X011722Y018363D01*
X011716Y018369D01*
X011722Y018374D01*
X011722Y018609D01*
X011731Y018626D01*
X011742Y018664D01*
X011742Y018752D01*
X011356Y018752D01*
X011356Y018753D01*
X011742Y018753D01*
X011742Y018828D01*
X012497Y018828D01*
X012497Y018772D01*
X012550Y018718D01*
X012535Y018709D01*
X012507Y018681D01*
X012487Y018647D01*
X012477Y018609D01*
X012477Y018470D01*
X012785Y018470D01*
X012785Y018433D01*
X012477Y018433D01*
X012477Y018294D01*
X012487Y018256D01*
X012507Y018222D01*
X012535Y018194D01*
X012569Y018174D01*
X012607Y018164D01*
X012785Y018164D01*
X012785Y018432D01*
X012823Y018432D01*
X012823Y018164D01*
X013001Y018164D01*
X013039Y018174D01*
X013073Y018194D01*
X013101Y018222D01*
X013121Y018256D01*
X013131Y018294D01*
X013131Y018433D01*
X012823Y018433D01*
X012823Y018470D01*
X013131Y018470D01*
X013131Y018609D01*
X013121Y018647D01*
X013101Y018681D01*
X013073Y018709D01*
X013058Y018718D01*
X013111Y018772D01*
X013111Y019155D01*
X013035Y019231D01*
X012984Y019231D01*
X012984Y019684D01*
X013046Y019746D01*
X013089Y019851D01*
X013089Y019964D01*
X013046Y020069D01*
X012984Y020130D01*
X012984Y020595D01*
X013182Y020595D01*
X013258Y020671D01*
X013258Y020995D01*
X013182Y021072D01*
X012602Y021072D01*
X012562Y021031D01*
X012311Y021031D01*
X012311Y021043D01*
X012258Y021097D01*
X012273Y021105D01*
X012301Y021133D01*
X012321Y021168D01*
X012331Y021206D01*
X012331Y021326D01*
X012424Y021233D01*
X012529Y021127D01*
X013324Y021127D01*
X013324Y016582D01*
X013010Y016268D01*
X012918Y016306D01*
X012727Y016306D01*
X012551Y016233D01*
X012416Y016098D01*
X012343Y015922D01*
X012343Y015731D01*
X012416Y015554D01*
X012551Y015419D01*
X012727Y015346D01*
X012918Y015346D01*
X013095Y015419D01*
X013230Y015554D01*
X013303Y015731D01*
X013303Y015922D01*
X013265Y016014D01*
X013684Y016433D01*
X013684Y016582D01*
X013684Y020595D01*
X014206Y020595D01*
X014238Y020627D01*
X014578Y020627D01*
X014684Y020733D01*
X014984Y021033D01*
X014984Y021182D01*
X014984Y021582D01*
X014878Y021687D01*
X013978Y022587D01*
X013829Y022587D01*
X010929Y022587D01*
X010824Y022482D01*
X010481Y022139D01*
X009314Y022139D01*
X009304Y022149D01*
X008806Y022149D01*
X008796Y022139D01*
X008730Y022139D01*
X008581Y022139D01*
X004829Y018387D01*
X004724Y018282D01*
X004724Y016732D01*
X002957Y014965D01*
X002853Y015007D01*
X003037Y015084D01*
X003178Y015224D01*
X003254Y015408D01*
X003254Y015607D01*
X003178Y015791D01*
X003037Y015931D01*
X002853Y016007D01*
X002654Y016007D01*
X002471Y015931D01*
X002330Y015791D01*
X002254Y015607D01*
X002254Y015408D01*
X002330Y015224D01*
X002471Y015084D01*
X002654Y015007D01*
X002853Y015007D01*
X002655Y015007D01*
X002471Y014931D01*
X002330Y014791D01*
X002254Y014607D01*
X002254Y014408D01*
X002330Y014224D01*
X002471Y014084D01*
X002320Y014249D02*
X001727Y014249D01*
X001727Y014347D02*
X002279Y014347D01*
X002254Y014446D02*
X001727Y014446D01*
X001727Y014544D02*
X002254Y014544D01*
X002269Y014643D02*
X001727Y014643D01*
X001727Y014741D02*
X002310Y014741D01*
X002379Y014840D02*
X001727Y014840D01*
X001727Y014938D02*
X002488Y014938D01*
X002583Y015037D02*
X001727Y015037D01*
X001731Y015136D02*
X002419Y015136D01*
X002326Y015234D02*
X001743Y015234D01*
X001755Y015333D02*
X002285Y015333D01*
X002254Y015431D02*
X001767Y015431D01*
X001779Y015530D02*
X002254Y015530D01*
X002263Y015628D02*
X001791Y015628D01*
X001803Y015727D02*
X002304Y015727D01*
X002365Y015825D02*
X001815Y015825D01*
X001827Y015924D02*
X002463Y015924D01*
X002471Y016084D02*
X002654Y016007D01*
X002853Y016007D01*
X003037Y016084D01*
X003178Y016224D01*
X003254Y016408D01*
X003254Y016607D01*
X003178Y016791D01*
X003037Y016931D01*
X002853Y017007D01*
X002654Y017007D01*
X002471Y016931D01*
X002330Y016791D01*
X002254Y016607D01*
X002254Y016408D01*
X002330Y016224D01*
X002471Y016084D01*
X002433Y016121D02*
X001851Y016121D01*
X001863Y016219D02*
X002335Y016219D01*
X002291Y016318D02*
X001880Y016318D01*
X001905Y016417D02*
X002254Y016417D01*
X002254Y016515D02*
X001929Y016515D01*
X001953Y016614D02*
X002257Y016614D01*
X002298Y016712D02*
X001978Y016712D01*
X002002Y016811D02*
X002350Y016811D01*
X002449Y016909D02*
X002026Y016909D01*
X002050Y017008D02*
X002653Y017008D01*
X002655Y017007D02*
X002854Y017007D01*
X003037Y017083D01*
X003178Y017224D01*
X003254Y017408D01*
X003254Y017607D01*
X003178Y017791D01*
X003362Y017714D01*
X003561Y017714D01*
X003744Y017791D01*
X003885Y017931D01*
X003961Y018115D01*
X003961Y018314D01*
X003885Y018498D01*
X004069Y018422D01*
X004268Y018422D01*
X004451Y018498D01*
X004592Y018638D01*
X004668Y018822D01*
X004668Y019021D01*
X004592Y019205D01*
X004776Y019129D01*
X004975Y019129D01*
X005159Y019205D01*
X005299Y019345D01*
X005375Y019529D01*
X005375Y019728D01*
X005299Y019912D01*
X005159Y020053D01*
X005299Y019912D01*
X005483Y019836D01*
X005682Y019836D01*
X005866Y019912D01*
X006006Y020053D01*
X006082Y020236D01*
X006082Y020435D01*
X006006Y020619D01*
X006190Y020543D01*
X006389Y020543D01*
X006573Y020619D01*
X006713Y020760D01*
X006790Y020943D01*
X006790Y021142D01*
X006713Y021326D01*
X006573Y021467D01*
X006713Y021326D01*
X006897Y021250D01*
X007096Y021250D01*
X007280Y021326D01*
X007421Y021467D01*
X007497Y021650D01*
X007497Y021849D01*
X007421Y022033D01*
X007280Y022174D01*
X007096Y022250D01*
X006897Y022250D01*
X006713Y022174D01*
X006573Y022033D01*
X006497Y021849D01*
X006497Y021650D01*
X006573Y021467D01*
X006389Y021543D01*
X006190Y021543D01*
X006006Y021467D01*
X005866Y021326D01*
X005790Y021142D01*
X005790Y020943D01*
X005866Y020760D01*
X005682Y020836D01*
X005483Y020836D01*
X005299Y020760D01*
X005159Y020619D01*
X005083Y020435D01*
X005083Y020236D01*
X005159Y020053D01*
X004975Y020129D01*
X004776Y020129D01*
X004592Y020053D01*
X004451Y019912D01*
X004375Y019728D01*
X004375Y019529D01*
X004451Y019345D01*
X004592Y019205D01*
X004451Y019345D01*
X004268Y019422D01*
X004069Y019422D01*
X003885Y019345D01*
X003744Y019205D01*
X003668Y019021D01*
X003668Y018822D01*
X003744Y018638D01*
X003561Y018714D01*
X003362Y018714D01*
X003178Y018638D01*
X003037Y018498D01*
X002961Y018314D01*
X002961Y018115D01*
X003037Y017931D01*
X003178Y017791D01*
X003037Y017931D01*
X002854Y018007D01*
X002655Y018007D01*
X002471Y017931D01*
X002330Y017791D01*
X002254Y017607D01*
X002254Y017408D01*
X002330Y017224D01*
X002471Y017083D01*
X002655Y017007D01*
X002855Y017008D02*
X004724Y017008D01*
X004724Y017106D02*
X003060Y017106D01*
X003159Y017205D02*
X004724Y017205D01*
X004724Y017303D02*
X003211Y017303D01*
X003252Y017402D02*
X004724Y017402D01*
X004724Y017501D02*
X003254Y017501D01*
X003254Y017599D02*
X004724Y017599D01*
X004724Y017698D02*
X003216Y017698D01*
X003012Y017993D02*
X002887Y017993D01*
X002971Y018092D02*
X002407Y018092D01*
X002444Y018190D02*
X002961Y018190D01*
X002961Y018289D02*
X002481Y018289D01*
X002519Y018387D02*
X002992Y018387D01*
X003032Y018486D02*
X002556Y018486D01*
X002602Y018585D02*
X003124Y018585D01*
X003286Y018683D02*
X002654Y018683D01*
X002705Y018782D02*
X003685Y018782D01*
X003668Y018880D02*
X002757Y018880D01*
X002809Y018979D02*
X003668Y018979D01*
X003692Y019077D02*
X002860Y019077D01*
X002912Y019176D02*
X003732Y019176D01*
X003814Y019274D02*
X002964Y019274D01*
X003016Y019373D02*
X003951Y019373D01*
X004385Y019373D02*
X004440Y019373D01*
X004399Y019471D02*
X003067Y019471D01*
X003119Y019570D02*
X004375Y019570D01*
X004375Y019669D02*
X003186Y019669D01*
X003254Y019767D02*
X004391Y019767D01*
X004432Y019866D02*
X003322Y019866D01*
X003390Y019964D02*
X004504Y019964D01*
X004617Y020063D02*
X003458Y020063D01*
X003526Y020161D02*
X005114Y020161D01*
X005134Y020063D02*
X005154Y020063D01*
X005247Y019964D02*
X005247Y019964D01*
X005318Y019866D02*
X005411Y019866D01*
X005359Y019767D02*
X006209Y019767D01*
X006111Y019669D02*
X005375Y019669D01*
X005375Y019570D02*
X006012Y019570D01*
X005913Y019471D02*
X005351Y019471D01*
X005311Y019373D02*
X005815Y019373D01*
X005716Y019274D02*
X005228Y019274D01*
X005089Y019176D02*
X005618Y019176D01*
X005519Y019077D02*
X004645Y019077D01*
X004662Y019176D02*
X004604Y019176D01*
X004523Y019274D02*
X004523Y019274D01*
X004668Y018979D02*
X005421Y018979D01*
X005322Y018880D02*
X004668Y018880D01*
X004651Y018782D02*
X005224Y018782D01*
X005125Y018683D02*
X004611Y018683D01*
X004538Y018585D02*
X005027Y018585D01*
X004928Y018486D02*
X004423Y018486D01*
X004731Y018289D02*
X003961Y018289D01*
X003961Y018190D02*
X004724Y018190D01*
X004724Y018092D02*
X003951Y018092D01*
X003911Y017993D02*
X004724Y017993D01*
X004724Y017895D02*
X003849Y017895D01*
X003750Y017796D02*
X004724Y017796D01*
X005084Y017796D02*
X013324Y017796D01*
X013324Y017698D02*
X005084Y017698D01*
X005084Y017599D02*
X013324Y017599D01*
X013324Y017501D02*
X005084Y017501D01*
X005084Y017402D02*
X013324Y017402D01*
X013324Y017303D02*
X005084Y017303D01*
X005084Y017205D02*
X013324Y017205D01*
X013324Y017106D02*
X005084Y017106D01*
X005084Y017008D02*
X013324Y017008D01*
X013324Y016909D02*
X005084Y016909D01*
X005084Y016811D02*
X011253Y016811D01*
X011242Y016805D02*
X011178Y016759D01*
X011123Y016703D01*
X011076Y016640D01*
X011041Y016569D01*
X011016Y016495D01*
X011006Y016427D01*
X011454Y016427D01*
X011454Y016327D01*
X011554Y016327D01*
X011554Y015879D01*
X011621Y015890D01*
X011696Y015914D01*
X011766Y015950D01*
X011830Y015996D01*
X011885Y016052D01*
X011932Y016115D01*
X011967Y016186D01*
X011992Y016260D01*
X012002Y016327D01*
X011554Y016327D01*
X011554Y016427D01*
X012002Y016427D01*
X011992Y016495D01*
X011967Y016569D01*
X011932Y016640D01*
X011885Y016703D01*
X011830Y016759D01*
X011766Y016805D01*
X011696Y016841D01*
X011621Y016865D01*
X011554Y016876D01*
X011554Y016428D01*
X011454Y016428D01*
X011454Y016876D01*
X011387Y016865D01*
X011312Y016841D01*
X011242Y016805D01*
X011132Y016712D02*
X005084Y016712D01*
X005084Y016614D02*
X011063Y016614D01*
X011023Y016515D02*
X005016Y016515D01*
X004918Y016417D02*
X011454Y016417D01*
X011454Y016327D02*
X011006Y016327D01*
X011016Y016260D01*
X011041Y016186D01*
X011076Y016115D01*
X011123Y016052D01*
X011178Y015996D01*
X011242Y015950D01*
X011312Y015914D01*
X011387Y015890D01*
X011454Y015879D01*
X011454Y016327D01*
X011454Y016318D02*
X011554Y016318D01*
X011554Y016219D02*
X011454Y016219D01*
X011454Y016121D02*
X011554Y016121D01*
X011554Y016022D02*
X011454Y016022D01*
X011454Y015924D02*
X011554Y015924D01*
X011715Y015924D02*
X012344Y015924D01*
X012343Y015825D02*
X010665Y015825D01*
X010665Y015731D02*
X010665Y015922D01*
X010592Y016098D01*
X010457Y016233D01*
X010281Y016306D01*
X010090Y016306D01*
X009913Y016233D01*
X009778Y016098D01*
X009705Y015922D01*
X009705Y015731D01*
X009778Y015554D01*
X009913Y015419D01*
X010090Y015346D01*
X010281Y015346D01*
X010457Y015419D01*
X010592Y015554D01*
X010665Y015731D01*
X010663Y015727D02*
X012344Y015727D01*
X012385Y015628D02*
X010623Y015628D01*
X010567Y015530D02*
X012441Y015530D01*
X012539Y015431D02*
X010469Y015431D01*
X009901Y015431D02*
X003932Y015431D01*
X003834Y015333D02*
X015299Y015333D01*
X015299Y015431D02*
X013106Y015431D01*
X013205Y015530D02*
X015299Y015530D01*
X015299Y015628D02*
X013260Y015628D01*
X013301Y015727D02*
X015299Y015727D01*
X015299Y015825D02*
X013303Y015825D01*
X013302Y015924D02*
X015299Y015924D01*
X015299Y016022D02*
X013273Y016022D01*
X013372Y016121D02*
X015299Y016121D01*
X015299Y016219D02*
X013471Y016219D01*
X013569Y016318D02*
X015299Y016318D01*
X015299Y016417D02*
X013668Y016417D01*
X013684Y016515D02*
X015299Y016515D01*
X015299Y016614D02*
X013684Y016614D01*
X013684Y016712D02*
X015299Y016712D01*
X015299Y016811D02*
X013684Y016811D01*
X013684Y016909D02*
X015299Y016909D01*
X015299Y017008D02*
X013684Y017008D01*
X013684Y017106D02*
X015299Y017106D01*
X015299Y017205D02*
X013684Y017205D01*
X013684Y017303D02*
X015299Y017303D01*
X015299Y017402D02*
X013684Y017402D01*
X013684Y017501D02*
X015299Y017501D01*
X015299Y017599D02*
X013684Y017599D01*
X013684Y017698D02*
X015299Y017698D01*
X015299Y017796D02*
X013684Y017796D01*
X013684Y017895D02*
X015299Y017895D01*
X015299Y017993D02*
X013684Y017993D01*
X013684Y018092D02*
X015299Y018092D01*
X015299Y018190D02*
X013684Y018190D01*
X013684Y018289D02*
X015299Y018289D01*
X015299Y018387D02*
X013684Y018387D01*
X013684Y018486D02*
X015299Y018486D01*
X015299Y018585D02*
X013684Y018585D01*
X013684Y018683D02*
X015299Y018683D01*
X015299Y018782D02*
X013684Y018782D01*
X013684Y018880D02*
X015299Y018880D01*
X015299Y018979D02*
X013684Y018979D01*
X013684Y019077D02*
X015299Y019077D01*
X015299Y019176D02*
X013684Y019176D01*
X013684Y019274D02*
X015299Y019274D01*
X015299Y019373D02*
X013684Y019373D01*
X013684Y019471D02*
X015299Y019471D01*
X015299Y019570D02*
X013684Y019570D01*
X013684Y019669D02*
X015299Y019669D01*
X015299Y019767D02*
X013684Y019767D01*
X013684Y019866D02*
X015299Y019866D01*
X015299Y019964D02*
X013684Y019964D01*
X013684Y020063D02*
X015299Y020063D01*
X015299Y020161D02*
X013684Y020161D01*
X013684Y020260D02*
X015299Y020260D01*
X015299Y020358D02*
X013684Y020358D01*
X013684Y020457D02*
X015299Y020457D01*
X015299Y020555D02*
X013684Y020555D01*
X013324Y020555D02*
X012984Y020555D01*
X012984Y020457D02*
X013324Y020457D01*
X013324Y020358D02*
X012984Y020358D01*
X012984Y020260D02*
X013324Y020260D01*
X013324Y020161D02*
X012984Y020161D01*
X013048Y020063D02*
X013324Y020063D01*
X013324Y019964D02*
X013089Y019964D01*
X013089Y019866D02*
X013324Y019866D01*
X013324Y019767D02*
X013054Y019767D01*
X012984Y019669D02*
X013324Y019669D01*
X013324Y019570D02*
X012984Y019570D01*
X012984Y019471D02*
X013324Y019471D01*
X013324Y019373D02*
X012984Y019373D01*
X012984Y019274D02*
X013324Y019274D01*
X013324Y019176D02*
X013090Y019176D01*
X013111Y019077D02*
X013324Y019077D01*
X013324Y018979D02*
X013111Y018979D01*
X013111Y018880D02*
X013324Y018880D01*
X013324Y018782D02*
X013111Y018782D01*
X013099Y018683D02*
X013324Y018683D01*
X013324Y018585D02*
X013131Y018585D01*
X013131Y018486D02*
X013324Y018486D01*
X013324Y018387D02*
X013131Y018387D01*
X013130Y018289D02*
X013324Y018289D01*
X013324Y018190D02*
X013067Y018190D01*
X012823Y018190D02*
X012785Y018190D01*
X012785Y018289D02*
X012823Y018289D01*
X012823Y018387D02*
X012785Y018387D01*
X012477Y018387D02*
X011722Y018387D01*
X011722Y018289D02*
X012478Y018289D01*
X012540Y018190D02*
X011722Y018190D01*
X011696Y018092D02*
X013324Y018092D01*
X013324Y017993D02*
X005084Y017993D01*
X005084Y017895D02*
X013324Y017895D01*
X012477Y018486D02*
X011722Y018486D01*
X011722Y018585D02*
X012477Y018585D01*
X012508Y018683D02*
X011742Y018683D01*
X011742Y018782D02*
X012497Y018782D01*
X012759Y019008D02*
X012804Y018963D01*
X012804Y019907D01*
X012804Y020745D01*
X012892Y020833D01*
X012874Y020851D01*
X012004Y020851D01*
X011948Y020907D01*
X011904Y020907D01*
X011620Y021191D01*
X011353Y021191D01*
X011352Y021447D02*
X011008Y021447D01*
X011008Y021367D01*
X011018Y021329D01*
X011030Y021308D01*
X011028Y021305D01*
X011028Y021077D01*
X011042Y021063D01*
X011028Y021049D01*
X011028Y020821D01*
X011042Y020807D01*
X011028Y020793D01*
X011028Y020566D01*
X011042Y020551D01*
X011028Y020537D01*
X011028Y020310D01*
X011042Y020296D01*
X011028Y020281D01*
X011028Y020054D01*
X011042Y020040D01*
X011028Y020026D01*
X011028Y019798D01*
X011042Y019784D01*
X011028Y019770D01*
X011028Y019542D01*
X011104Y019466D01*
X011601Y019466D01*
X011678Y019542D01*
X011678Y019770D01*
X011664Y019784D01*
X011678Y019798D01*
X011678Y020026D01*
X011664Y020040D01*
X011678Y020054D01*
X011678Y020281D01*
X011664Y020296D01*
X011678Y020310D01*
X011678Y020379D01*
X011719Y020338D01*
X011719Y020251D01*
X011762Y020146D01*
X011842Y020066D01*
X011947Y020022D01*
X012061Y020022D01*
X012165Y020066D01*
X012246Y020146D01*
X012289Y020251D01*
X012289Y020364D01*
X012246Y020469D01*
X012165Y020549D01*
X012081Y020584D01*
X012235Y020584D01*
X012311Y020660D01*
X012311Y020671D01*
X012526Y020671D01*
X012602Y020595D01*
X012624Y020595D01*
X012624Y020130D01*
X012562Y020069D01*
X012519Y019964D01*
X012519Y019851D01*
X012562Y019746D01*
X012624Y019684D01*
X012624Y019231D01*
X012573Y019231D01*
X012530Y019188D01*
X011664Y019188D01*
X011646Y019207D01*
X011065Y019207D01*
X010989Y019131D01*
X010989Y018896D01*
X010980Y018879D01*
X010969Y018841D01*
X010969Y018796D01*
X010784Y018982D01*
X010784Y019884D01*
X010846Y019946D01*
X010889Y020051D01*
X010889Y020164D01*
X010846Y020269D01*
X010765Y020349D01*
X010661Y020392D01*
X010573Y020392D01*
X009851Y021115D01*
X009701Y021115D01*
X009380Y021115D01*
X009380Y021305D01*
X009366Y021319D01*
X009380Y021333D01*
X009380Y021523D01*
X010525Y021523D01*
X010674Y021523D01*
X011028Y021877D01*
X011028Y021845D01*
X011042Y021831D01*
X011028Y021817D01*
X011028Y021589D01*
X011030Y021587D01*
X011018Y021565D01*
X011008Y021527D01*
X011008Y021447D01*
X011352Y021447D01*
X011352Y021447D01*
X011353Y021447D02*
X011920Y021447D01*
X012004Y021363D01*
X012331Y021245D02*
X012412Y021245D01*
X012510Y021147D02*
X012309Y021147D01*
X012306Y021048D02*
X012579Y021048D01*
X012604Y021307D02*
X013504Y021307D01*
X013504Y021407D01*
X013704Y021607D01*
X013890Y021607D01*
X013916Y021581D01*
X013902Y021567D01*
X013920Y021212D02*
X014302Y021212D01*
X014302Y021335D01*
X014292Y021374D01*
X014272Y021408D01*
X014271Y021409D01*
X014282Y021419D01*
X014282Y021744D01*
X014206Y021820D01*
X013626Y021820D01*
X013550Y021744D01*
X013550Y021708D01*
X013524Y021682D01*
X013329Y021487D01*
X013258Y021487D01*
X013258Y021744D01*
X013182Y021820D01*
X012908Y021820D01*
X012501Y022227D01*
X013829Y022227D01*
X014624Y021433D01*
X014624Y021182D01*
X014429Y020987D01*
X014282Y020987D01*
X014282Y020995D01*
X014271Y021006D01*
X014272Y021007D01*
X014292Y021041D01*
X014302Y021079D01*
X014302Y021203D01*
X013920Y021203D01*
X013920Y021212D01*
X013916Y020833D02*
X013942Y020807D01*
X014504Y020807D01*
X014804Y021107D01*
X014804Y021507D01*
X013904Y022407D01*
X011004Y022407D01*
X010556Y021959D01*
X009055Y021959D01*
X008656Y021959D01*
X004904Y018207D01*
X004904Y016657D01*
X002754Y014507D01*
X003104Y014150D02*
X010796Y014150D01*
X010834Y014060D02*
X011056Y013837D01*
X011347Y013717D01*
X011661Y013717D01*
X011952Y013837D01*
X012174Y014060D01*
X012294Y014350D01*
X012294Y014665D01*
X012174Y014955D01*
X011952Y015178D01*
X011661Y015298D01*
X011347Y015298D01*
X011056Y015178D01*
X010834Y014955D01*
X010713Y014665D01*
X010713Y014350D01*
X010834Y014060D01*
X010842Y014052D02*
X002960Y014052D01*
X002985Y013953D02*
X010940Y013953D01*
X011039Y013854D02*
X003114Y013854D01*
X003192Y013756D02*
X011252Y013756D01*
X011755Y013756D02*
X015299Y013756D01*
X015299Y013854D02*
X011969Y013854D01*
X012068Y013953D02*
X015299Y013953D01*
X015299Y014052D02*
X012166Y014052D01*
X012212Y014150D02*
X015299Y014150D01*
X015299Y014249D02*
X012252Y014249D01*
X012293Y014347D02*
X015299Y014347D01*
X015299Y014446D02*
X012294Y014446D01*
X012294Y014544D02*
X015299Y014544D01*
X015299Y014643D02*
X012294Y014643D01*
X012263Y014741D02*
X015299Y014741D01*
X015299Y014840D02*
X012222Y014840D01*
X012181Y014938D02*
X015299Y014938D01*
X015299Y015037D02*
X012092Y015037D01*
X011994Y015136D02*
X015299Y015136D01*
X015299Y015234D02*
X011815Y015234D01*
X011193Y015234D02*
X003735Y015234D01*
X003637Y015136D02*
X011014Y015136D01*
X010916Y015037D02*
X003538Y015037D01*
X003440Y014938D02*
X010827Y014938D01*
X010786Y014840D02*
X003341Y014840D01*
X003242Y014741D02*
X010745Y014741D01*
X010713Y014643D02*
X003239Y014643D01*
X003254Y014544D02*
X010713Y014544D01*
X010713Y014446D02*
X003254Y014446D01*
X003229Y014347D02*
X010715Y014347D01*
X010755Y014249D02*
X003188Y014249D01*
X003233Y013657D02*
X010063Y013657D01*
X010090Y013668D02*
X009913Y013595D01*
X009778Y013460D01*
X009877Y013559D02*
X003254Y013559D01*
X003227Y012672D02*
X004377Y012672D01*
X004385Y012573D02*
X003254Y012573D01*
X003254Y012475D02*
X004429Y012475D01*
X004397Y012376D02*
X003241Y012376D01*
X003200Y012278D02*
X004397Y012278D01*
X004397Y012179D02*
X003133Y012179D01*
X003030Y012081D02*
X004397Y012081D01*
X004447Y011982D02*
X002914Y011982D01*
X003085Y011884D02*
X004377Y011884D01*
X004377Y011785D02*
X003180Y011785D01*
X003206Y011292D02*
X003343Y011292D01*
X003872Y010504D02*
X003872Y010504D01*
X003774Y010405D02*
X003773Y010405D01*
X003716Y010307D02*
X003576Y010307D01*
X004594Y009814D02*
X004602Y009814D01*
X005148Y009814D02*
X009514Y009814D01*
X009351Y009716D02*
X009285Y009716D01*
X008980Y009716D02*
X008880Y009716D01*
X008880Y009617D02*
X008980Y009617D01*
X008980Y009519D02*
X008880Y009519D01*
X008880Y009420D02*
X008980Y009420D01*
X008880Y009321D02*
X005375Y009321D01*
X005375Y009420D02*
X008524Y009420D01*
X008524Y009519D02*
X005362Y009519D01*
X005321Y009617D02*
X008524Y009617D01*
X008575Y009716D02*
X005253Y009716D01*
X006029Y010011D02*
X006049Y010011D01*
X006049Y010110D02*
X006029Y010110D01*
X006248Y010504D02*
X006263Y010504D01*
X006263Y010603D02*
X006244Y010603D01*
X006228Y010701D02*
X006263Y010701D01*
X006263Y010800D02*
X006228Y010800D01*
X006210Y010898D02*
X006263Y010898D01*
X006263Y010997D02*
X006228Y010997D01*
X006228Y011095D02*
X006263Y011095D01*
X006263Y011194D02*
X006228Y011194D01*
X006228Y011292D02*
X006263Y011292D01*
X005862Y011024D02*
X005320Y011024D01*
X005204Y010907D01*
X005564Y010768D02*
X005304Y010507D01*
X004904Y010507D01*
X004704Y010707D01*
X004704Y010973D01*
X005564Y010768D02*
X005862Y010768D01*
X005485Y010405D02*
X005456Y010405D01*
X006954Y010405D02*
X007054Y010405D01*
X007054Y010307D02*
X006954Y010307D01*
X006954Y010208D02*
X007054Y010208D01*
X007054Y010110D02*
X006954Y010110D01*
X006954Y010011D02*
X007054Y010011D01*
X007054Y010504D02*
X006954Y010504D01*
X006954Y010603D02*
X007054Y010603D01*
X007054Y010701D02*
X006954Y010701D01*
X006954Y010800D02*
X007054Y010800D01*
X007054Y010898D02*
X006954Y010898D01*
X006954Y010997D02*
X007054Y010997D01*
X007054Y011095D02*
X006954Y011095D01*
X006954Y011194D02*
X007054Y011194D01*
X007054Y011292D02*
X006954Y011292D01*
X006954Y011588D02*
X007054Y011588D01*
X007054Y011686D02*
X006954Y011686D01*
X006954Y011785D02*
X007054Y011785D01*
X007054Y011884D02*
X006954Y011884D01*
X006954Y011982D02*
X007054Y011982D01*
X007054Y012081D02*
X006954Y012081D01*
X006954Y012179D02*
X007054Y012179D01*
X007054Y012278D02*
X006954Y012278D01*
X006954Y012376D02*
X007054Y012376D01*
X007054Y012475D02*
X006954Y012475D01*
X006954Y012573D02*
X007054Y012573D01*
X007054Y012672D02*
X006954Y012672D01*
X006954Y012770D02*
X007054Y012770D01*
X007054Y012869D02*
X006954Y012869D01*
X007535Y012896D02*
X007535Y012896D01*
X007958Y012869D02*
X007979Y012869D01*
X007979Y012770D02*
X007958Y012770D01*
X007958Y012672D02*
X007979Y012672D01*
X008145Y012303D02*
X007759Y012303D01*
X008145Y012303D01*
X008145Y012303D01*
X007759Y012278D02*
X007744Y012278D01*
X007744Y012179D02*
X007777Y012179D01*
X007779Y012081D02*
X007744Y012081D01*
X007744Y011982D02*
X007779Y011982D01*
X007779Y011884D02*
X007744Y011884D01*
X007744Y011785D02*
X007779Y011785D01*
X007779Y011686D02*
X007744Y011686D01*
X007744Y011588D02*
X007779Y011588D01*
X007779Y011489D02*
X007744Y011489D01*
X008146Y011279D02*
X009267Y011279D01*
X009304Y011242D01*
X009304Y010573D02*
X009239Y010507D01*
X008980Y009223D02*
X008880Y009223D01*
X008880Y009124D02*
X008980Y009124D01*
X008980Y009026D02*
X008880Y009026D01*
X008880Y008927D02*
X008980Y008927D01*
X008980Y008829D02*
X008880Y008829D01*
X008880Y008730D02*
X008980Y008730D01*
X008980Y008632D02*
X008880Y008632D01*
X008524Y008632D02*
X007791Y008632D01*
X007829Y008730D02*
X008524Y008730D01*
X008526Y008829D02*
X007829Y008829D01*
X007815Y008927D02*
X008550Y008927D01*
X008524Y009026D02*
X007774Y009026D01*
X007688Y009124D02*
X008524Y009124D01*
X008524Y009223D02*
X007512Y009223D01*
X007958Y010011D02*
X007979Y010011D01*
X007979Y010110D02*
X007958Y010110D01*
X007193Y008435D02*
X006479Y008435D01*
X006737Y007745D02*
X006793Y007745D01*
X007047Y007252D02*
X008960Y007252D01*
X008960Y007154D02*
X007506Y007154D01*
X007473Y007055D02*
X007551Y007055D01*
X007510Y007351D02*
X008960Y007351D01*
X008974Y007449D02*
X007484Y007449D01*
X007434Y007548D02*
X008960Y007548D01*
X008960Y007646D02*
X007351Y007646D01*
X007047Y007154D02*
X006947Y007154D01*
X006947Y007055D02*
X007047Y007055D01*
X007047Y006956D02*
X006947Y006956D01*
X006947Y006858D02*
X007047Y006858D01*
X007047Y006759D02*
X006947Y006759D01*
X006869Y006759D02*
X005518Y006759D01*
X005394Y006858D02*
X006672Y006858D01*
X006578Y006956D02*
X005283Y006956D01*
X005172Y007055D02*
X006520Y007055D01*
X006488Y007154D02*
X005061Y007154D01*
X005660Y006661D02*
X007194Y006661D01*
X007223Y006759D02*
X007124Y006759D01*
X008215Y006464D02*
X011550Y006464D01*
X011452Y006365D02*
X010486Y006365D01*
X010461Y006365D02*
X010361Y006365D01*
X010336Y006365D02*
X008486Y006365D01*
X008336Y006365D02*
X008188Y006365D01*
X008723Y006267D02*
X009120Y006267D01*
X009702Y006267D02*
X010099Y006267D01*
X009999Y006168D02*
X009800Y006168D01*
X009861Y006070D02*
X009939Y006070D01*
X009902Y005971D02*
X009903Y005971D01*
X010361Y005971D02*
X010461Y005971D01*
X010461Y006070D02*
X010361Y006070D01*
X010361Y006168D02*
X010461Y006168D01*
X010461Y006267D02*
X010361Y006267D01*
X010723Y006267D02*
X011120Y006267D01*
X011021Y006168D02*
X010823Y006168D01*
X010883Y006070D02*
X010960Y006070D01*
X010920Y005971D02*
X010918Y005971D01*
X012272Y006365D02*
X012336Y006365D01*
X012361Y006365D02*
X012461Y006365D01*
X012486Y006365D02*
X014614Y006365D01*
X014614Y006464D02*
X012370Y006464D01*
X012469Y006562D02*
X013772Y006562D01*
X013643Y006661D02*
X012567Y006661D01*
X012666Y006759D02*
X013565Y006759D01*
X013525Y006858D02*
X012764Y006858D01*
X012863Y006956D02*
X013504Y006956D01*
X013504Y007055D02*
X012962Y007055D01*
X013060Y007154D02*
X013523Y007154D01*
X013564Y007252D02*
X013153Y007252D01*
X013194Y007351D02*
X013640Y007351D01*
X013764Y007449D02*
X013194Y007449D01*
X013194Y007548D02*
X013807Y007548D01*
X013904Y007507D02*
X014094Y007507D01*
X014094Y007507D01*
X013904Y007507D01*
X013658Y007646D02*
X013194Y007646D01*
X013194Y007745D02*
X013571Y007745D01*
X013531Y007843D02*
X013194Y007843D01*
X013194Y007942D02*
X013504Y007942D01*
X013504Y008040D02*
X013163Y008040D01*
X013082Y008139D02*
X013517Y008139D01*
X012350Y007453D02*
X011904Y007007D01*
X012361Y006267D02*
X012461Y006267D01*
X012461Y006168D02*
X012361Y006168D01*
X012361Y006070D02*
X012461Y006070D01*
X012461Y005971D02*
X012361Y005971D01*
X012723Y006267D02*
X013120Y006267D01*
X013021Y006168D02*
X012823Y006168D01*
X012883Y006070D02*
X012960Y006070D01*
X012918Y005971D02*
X012919Y005971D01*
X013702Y006267D02*
X014553Y006267D01*
X014454Y006168D02*
X013800Y006168D01*
X013861Y006070D02*
X014356Y006070D01*
X014257Y005971D02*
X013902Y005971D01*
X013911Y005872D02*
X014159Y005872D01*
X014060Y005774D02*
X013911Y005774D01*
X013879Y005675D02*
X013962Y005675D01*
X013863Y005577D02*
X013839Y005577D01*
X013765Y005478D02*
X013746Y005478D01*
X014236Y006562D02*
X014614Y006562D01*
X014614Y006661D02*
X014364Y006661D01*
X014442Y006759D02*
X014614Y006759D01*
X014614Y006858D02*
X014483Y006858D01*
X014504Y006956D02*
X014614Y006956D01*
X014546Y007055D02*
X014504Y007055D01*
X014478Y009223D02*
X015299Y009223D01*
X015299Y009321D02*
X014419Y009321D01*
X014321Y009420D02*
X015299Y009420D01*
X015299Y010504D02*
X014112Y010504D01*
X013904Y010507D02*
X013721Y010584D01*
X013587Y010717D01*
X013424Y010717D01*
X013004Y010297D01*
X013587Y010297D01*
X013721Y010431D01*
X013904Y010507D01*
X013896Y010504D02*
X013211Y010504D01*
X013309Y010603D02*
X013702Y010603D01*
X013603Y010701D02*
X013408Y010701D01*
X013695Y010405D02*
X013112Y010405D01*
X013014Y010307D02*
X013596Y010307D01*
X011560Y008829D02*
X011468Y008829D01*
X010462Y008139D02*
X010044Y008139D01*
X010123Y007843D02*
X010564Y007843D01*
X010590Y007745D02*
X010221Y007745D01*
X010320Y007646D02*
X010626Y007646D01*
X010626Y007548D02*
X010418Y007548D01*
X010517Y007449D02*
X010626Y007449D01*
X009267Y007449D02*
X009229Y007449D01*
X009229Y007351D02*
X009267Y007351D01*
X009267Y007252D02*
X009229Y007252D01*
X009229Y007154D02*
X009267Y007154D01*
X009267Y007055D02*
X009229Y007055D01*
X009229Y006956D02*
X009267Y006956D01*
X009267Y007548D02*
X009229Y007548D01*
X009229Y007646D02*
X009267Y007646D01*
X009267Y007745D02*
X009229Y007745D01*
X009229Y007843D02*
X009267Y007843D01*
X009267Y007942D02*
X009229Y007942D01*
X010064Y009026D02*
X010239Y009026D01*
X010544Y012869D02*
X011080Y012869D01*
X011155Y012968D02*
X010613Y012968D01*
X010654Y013066D02*
X011285Y013066D01*
X011723Y013066D02*
X012354Y013066D01*
X012343Y013165D02*
X010665Y013165D01*
X010665Y013263D02*
X012343Y013263D01*
X012375Y013362D02*
X010633Y013362D01*
X010592Y013460D02*
X010457Y013595D01*
X010281Y013668D01*
X010090Y013668D01*
X010307Y013657D02*
X012701Y013657D01*
X012727Y013668D02*
X012551Y013595D01*
X012416Y013460D01*
X012514Y013559D02*
X010494Y013559D01*
X011852Y012968D02*
X012395Y012968D01*
X012463Y012869D02*
X011927Y012869D01*
X012727Y013668D02*
X012918Y013668D01*
X013095Y013595D01*
X013230Y013460D01*
X013131Y013559D02*
X015299Y013559D01*
X015299Y013657D02*
X012945Y013657D01*
X012823Y015826D02*
X013504Y016507D01*
X013504Y021307D01*
X013383Y021541D02*
X013258Y021541D01*
X013258Y021639D02*
X013481Y021639D01*
X013550Y021738D02*
X013258Y021738D01*
X012892Y021836D02*
X014220Y021836D01*
X014282Y021738D02*
X014319Y021738D01*
X014282Y021639D02*
X014417Y021639D01*
X014516Y021541D02*
X014282Y021541D01*
X014282Y021442D02*
X014614Y021442D01*
X014624Y021344D02*
X014300Y021344D01*
X014302Y021245D02*
X014624Y021245D01*
X014589Y021147D02*
X014302Y021147D01*
X014294Y021048D02*
X014490Y021048D01*
X014704Y020752D02*
X015299Y020752D01*
X015299Y020654D02*
X014605Y020654D01*
X014802Y020851D02*
X015299Y020851D01*
X015299Y020950D02*
X014901Y020950D01*
X014984Y021048D02*
X015299Y021048D01*
X015299Y021147D02*
X014984Y021147D01*
X014984Y021245D02*
X015299Y021245D01*
X015299Y021344D02*
X014984Y021344D01*
X014984Y021442D02*
X015299Y021442D01*
X015299Y021541D02*
X014984Y021541D01*
X014926Y021639D02*
X015299Y021639D01*
X015299Y021738D02*
X014828Y021738D01*
X014729Y021836D02*
X015299Y021836D01*
X015299Y021935D02*
X014631Y021935D01*
X014532Y022034D02*
X015299Y022034D01*
X015299Y022132D02*
X014434Y022132D01*
X014335Y022231D02*
X015299Y022231D01*
X015299Y022329D02*
X014237Y022329D01*
X014138Y022428D02*
X015299Y022428D01*
X015298Y022526D02*
X014040Y022526D01*
X014263Y022847D02*
X014419Y022782D01*
X014589Y022782D01*
X014745Y022847D01*
X014864Y022966D01*
X014929Y023123D01*
X014929Y023292D01*
X014864Y023448D01*
X014745Y023568D01*
X014589Y023633D01*
X014419Y023633D01*
X014263Y023568D01*
X014143Y023448D01*
X014079Y023292D01*
X014079Y023123D01*
X014143Y022966D01*
X014263Y022847D01*
X014323Y022822D02*
X013776Y022822D01*
X013835Y022881D02*
X013911Y023065D01*
X013911Y023264D01*
X013835Y023447D01*
X013694Y023588D01*
X013510Y023664D01*
X013311Y023664D01*
X013128Y023588D01*
X012987Y023447D01*
X012911Y023264D01*
X012911Y023065D01*
X012987Y022881D01*
X013128Y022740D01*
X013311Y022664D01*
X013510Y022664D01*
X013694Y022740D01*
X013835Y022881D01*
X013851Y022920D02*
X014189Y022920D01*
X014122Y023019D02*
X013892Y023019D01*
X013911Y023118D02*
X014081Y023118D01*
X014079Y023216D02*
X013911Y023216D01*
X013890Y023315D02*
X014088Y023315D01*
X014129Y023413D02*
X013849Y023413D01*
X013770Y023512D02*
X014207Y023512D01*
X014365Y023610D02*
X013640Y023610D01*
X013181Y023610D02*
X012640Y023610D01*
X012694Y023588D02*
X012510Y023664D01*
X012311Y023664D01*
X012128Y023588D01*
X011987Y023447D01*
X011911Y023264D01*
X011835Y023447D01*
X011694Y023588D01*
X011510Y023664D01*
X011311Y023664D01*
X011128Y023588D01*
X010987Y023447D01*
X010911Y023264D01*
X010911Y023065D01*
X010987Y022881D01*
X011128Y022740D01*
X011311Y022664D01*
X011510Y022664D01*
X011694Y022740D01*
X011835Y022881D01*
X011911Y023065D01*
X011911Y023264D01*
X011911Y023065D01*
X011987Y022881D01*
X012128Y022740D01*
X012311Y022664D01*
X012510Y022664D01*
X012694Y022740D01*
X012835Y022881D01*
X012911Y023065D01*
X012911Y023264D01*
X012835Y023447D01*
X012694Y023588D01*
X012770Y023512D02*
X013051Y023512D01*
X012973Y023413D02*
X012849Y023413D01*
X012890Y023315D02*
X012932Y023315D01*
X012911Y023216D02*
X012911Y023216D01*
X012911Y023118D02*
X012911Y023118D01*
X012892Y023019D02*
X012930Y023019D01*
X012971Y022920D02*
X012851Y022920D01*
X012776Y022822D02*
X013046Y022822D01*
X013169Y022723D02*
X012653Y022723D01*
X012266Y022207D02*
X012892Y021581D01*
X012604Y021307D02*
X012208Y021703D01*
X011353Y021703D01*
X011028Y021738D02*
X010889Y021738D01*
X010987Y021836D02*
X011036Y021836D01*
X011028Y021639D02*
X010790Y021639D01*
X010692Y021541D02*
X011011Y021541D01*
X011008Y021442D02*
X009380Y021442D01*
X009380Y021344D02*
X011014Y021344D01*
X011028Y021245D02*
X009380Y021245D01*
X009380Y021147D02*
X011028Y021147D01*
X011028Y021048D02*
X009918Y021048D01*
X010016Y020950D02*
X011028Y020950D01*
X011028Y020851D02*
X010115Y020851D01*
X010213Y020752D02*
X011028Y020752D01*
X011028Y020654D02*
X010312Y020654D01*
X010410Y020555D02*
X011038Y020555D01*
X011028Y020457D02*
X010509Y020457D01*
X010743Y020358D02*
X011028Y020358D01*
X011028Y020260D02*
X010849Y020260D01*
X010889Y020161D02*
X011028Y020161D01*
X011028Y020063D02*
X010889Y020063D01*
X010853Y019964D02*
X011028Y019964D01*
X011028Y019866D02*
X010784Y019866D01*
X010784Y019767D02*
X011028Y019767D01*
X011028Y019669D02*
X010784Y019669D01*
X010784Y019570D02*
X011028Y019570D01*
X011098Y019471D02*
X010784Y019471D01*
X010784Y019373D02*
X012624Y019373D01*
X012624Y019471D02*
X011607Y019471D01*
X011678Y019570D02*
X012624Y019570D01*
X012624Y019669D02*
X011678Y019669D01*
X011678Y019767D02*
X012554Y019767D01*
X012519Y019866D02*
X011678Y019866D01*
X011678Y019964D02*
X012519Y019964D01*
X012560Y020063D02*
X012158Y020063D01*
X012252Y020161D02*
X012624Y020161D01*
X012624Y020260D02*
X012289Y020260D01*
X012289Y020358D02*
X012624Y020358D01*
X012624Y020457D02*
X012250Y020457D01*
X012150Y020555D02*
X012624Y020555D01*
X012543Y020654D02*
X012305Y020654D01*
X012526Y020671D02*
X012526Y020671D01*
X012866Y020807D02*
X013004Y020807D01*
X012892Y020833D02*
X012888Y020837D01*
X012892Y020833D02*
X012866Y020807D01*
X013258Y020851D02*
X013324Y020851D01*
X013324Y020752D02*
X013258Y020752D01*
X013241Y020654D02*
X013324Y020654D01*
X013324Y020950D02*
X013258Y020950D01*
X013206Y021048D02*
X013324Y021048D01*
X012793Y021935D02*
X014122Y021935D01*
X014023Y022034D02*
X012694Y022034D01*
X012596Y022132D02*
X013925Y022132D01*
X013653Y022723D02*
X015284Y022723D01*
X015292Y022625D02*
X008175Y022625D01*
X008204Y022556D02*
X008128Y022740D01*
X008311Y022664D01*
X008510Y022664D01*
X008694Y022740D01*
X008835Y022881D01*
X008911Y023065D01*
X008911Y023264D01*
X008835Y023447D01*
X008694Y023588D01*
X008510Y023664D01*
X008311Y023664D01*
X008128Y023588D01*
X007987Y023447D01*
X007911Y023264D01*
X007911Y023065D01*
X007987Y022881D01*
X008128Y022740D01*
X007987Y022881D01*
X007803Y022957D01*
X007604Y022957D01*
X007421Y022881D01*
X007280Y022740D01*
X007204Y022556D01*
X007204Y022358D01*
X007280Y022174D01*
X007421Y022033D01*
X007604Y021957D01*
X007803Y021957D01*
X007987Y022033D01*
X008128Y022174D01*
X008204Y022358D01*
X008204Y022556D01*
X008204Y022526D02*
X010868Y022526D01*
X010770Y022428D02*
X008204Y022428D01*
X008192Y022329D02*
X010671Y022329D01*
X010573Y022231D02*
X008151Y022231D01*
X008086Y022132D02*
X008574Y022132D01*
X008476Y022034D02*
X007987Y022034D01*
X008278Y021836D02*
X007497Y021836D01*
X007497Y021738D02*
X008180Y021738D01*
X008081Y021639D02*
X007492Y021639D01*
X007451Y021541D02*
X007983Y021541D01*
X007884Y021442D02*
X007396Y021442D01*
X007298Y021344D02*
X007786Y021344D01*
X007687Y021245D02*
X006747Y021245D01*
X006788Y021147D02*
X007589Y021147D01*
X007490Y021048D02*
X006790Y021048D01*
X006790Y020950D02*
X007392Y020950D01*
X007293Y020851D02*
X006751Y020851D01*
X006706Y020752D02*
X007194Y020752D01*
X007096Y020654D02*
X006608Y020654D01*
X006419Y020555D02*
X006997Y020555D01*
X006899Y020457D02*
X006074Y020457D01*
X006082Y020358D02*
X006800Y020358D01*
X006702Y020260D02*
X006082Y020260D01*
X006051Y020161D02*
X006603Y020161D01*
X006505Y020063D02*
X006011Y020063D01*
X005918Y019964D02*
X006406Y019964D01*
X006308Y019866D02*
X005754Y019866D01*
X006033Y020555D02*
X006160Y020555D01*
X005828Y020851D02*
X004062Y020851D01*
X004149Y020950D02*
X005790Y020950D01*
X005790Y021048D02*
X004236Y021048D01*
X004324Y021147D02*
X005791Y021147D01*
X005832Y021245D02*
X004411Y021245D01*
X004498Y021344D02*
X005883Y021344D01*
X005982Y021442D02*
X004588Y021442D01*
X004699Y021541D02*
X006185Y021541D01*
X006394Y021541D02*
X006542Y021541D01*
X006501Y021639D02*
X004810Y021639D01*
X004921Y021738D02*
X006497Y021738D01*
X006497Y021836D02*
X005033Y021836D01*
X005144Y021935D02*
X006532Y021935D01*
X006573Y022034D02*
X005255Y022034D01*
X005366Y022132D02*
X006672Y022132D01*
X006851Y022231D02*
X005482Y022231D01*
X005624Y022329D02*
X007216Y022329D01*
X007204Y022428D02*
X005767Y022428D01*
X005910Y022526D02*
X007204Y022526D01*
X007232Y022625D02*
X006053Y022625D01*
X006195Y022723D02*
X007273Y022723D01*
X007362Y022822D02*
X006338Y022822D01*
X006495Y022920D02*
X007516Y022920D01*
X007892Y022920D02*
X007971Y022920D01*
X007930Y023019D02*
X006683Y023019D01*
X006871Y023118D02*
X007911Y023118D01*
X007911Y023216D02*
X007058Y023216D01*
X007246Y023315D02*
X007932Y023315D01*
X007973Y023413D02*
X007434Y023413D01*
X007674Y023512D02*
X008051Y023512D01*
X007934Y023610D02*
X008181Y023610D01*
X008194Y023709D02*
X014827Y023709D01*
X014906Y023610D02*
X014643Y023610D01*
X014801Y023512D02*
X014984Y023512D01*
X015047Y023413D02*
X014879Y023413D01*
X014920Y023315D02*
X015095Y023315D01*
X015142Y023216D02*
X014929Y023216D01*
X014927Y023118D02*
X015190Y023118D01*
X015217Y023019D02*
X014886Y023019D01*
X014818Y022920D02*
X015239Y022920D01*
X015262Y022822D02*
X014684Y022822D01*
X014735Y023807D02*
X008454Y023807D01*
X008641Y023610D02*
X009181Y023610D01*
X009128Y023588D02*
X008987Y023447D01*
X008911Y023264D01*
X008911Y023065D01*
X008987Y022881D01*
X009128Y022740D01*
X009311Y022664D01*
X009510Y022664D01*
X009694Y022740D01*
X009835Y022881D01*
X009911Y023065D01*
X009911Y023264D01*
X009835Y023447D01*
X009694Y023588D01*
X009510Y023664D01*
X009311Y023664D01*
X009128Y023588D01*
X009051Y023512D02*
X008770Y023512D01*
X008849Y023413D02*
X008973Y023413D01*
X008932Y023315D02*
X008890Y023315D01*
X008911Y023216D02*
X008911Y023216D01*
X008911Y023118D02*
X008911Y023118D01*
X008892Y023019D02*
X008930Y023019D01*
X008971Y022920D02*
X008851Y022920D01*
X008776Y022822D02*
X009046Y022822D01*
X009169Y022723D02*
X008653Y022723D01*
X008169Y022723D02*
X008135Y022723D01*
X008046Y022822D02*
X008046Y022822D01*
X007256Y022231D02*
X007143Y022231D01*
X007461Y021935D02*
X008377Y021935D01*
X008590Y021639D02*
X008730Y021639D01*
X008730Y021541D02*
X008492Y021541D01*
X008393Y021442D02*
X008730Y021442D01*
X008730Y021344D02*
X008295Y021344D01*
X008196Y021245D02*
X008730Y021245D01*
X008730Y021147D02*
X008098Y021147D01*
X007999Y021048D02*
X008730Y021048D01*
X008730Y020950D02*
X007901Y020950D01*
X007802Y020851D02*
X008730Y020851D01*
X008730Y020752D02*
X007704Y020752D01*
X007605Y020654D02*
X008730Y020654D01*
X008729Y020555D02*
X007506Y020555D01*
X007408Y020457D02*
X008710Y020457D01*
X008710Y020358D02*
X007309Y020358D01*
X007211Y020260D02*
X008730Y020260D01*
X008730Y020161D02*
X007112Y020161D01*
X007014Y020063D02*
X008730Y020063D01*
X008730Y019964D02*
X006915Y019964D01*
X006817Y019866D02*
X008730Y019866D01*
X008730Y019767D02*
X006718Y019767D01*
X006620Y019669D02*
X008730Y019669D01*
X008730Y019570D02*
X006521Y019570D01*
X006422Y019471D02*
X008801Y019471D01*
X008796Y019227D02*
X008758Y019217D01*
X008724Y019197D01*
X008696Y019169D01*
X008676Y019135D01*
X008666Y019097D01*
X008666Y019009D01*
X009052Y019009D01*
X009052Y019227D01*
X008796Y019227D01*
X008703Y019176D02*
X006127Y019176D01*
X006225Y019274D02*
X009924Y019274D01*
X009924Y019176D02*
X009402Y019176D01*
X009409Y019169D02*
X009381Y019197D01*
X009346Y019217D01*
X009308Y019227D01*
X009053Y019227D01*
X009053Y019009D01*
X009052Y019009D01*
X009052Y019008D01*
X009053Y019008D01*
X009053Y019009D01*
X009439Y019009D01*
X009439Y019097D01*
X009428Y019135D01*
X009409Y019169D01*
X009439Y019077D02*
X009924Y019077D01*
X009978Y018979D02*
X009439Y018979D01*
X009439Y019008D02*
X009053Y019008D01*
X009053Y018971D01*
X009053Y018753D01*
X009439Y018753D01*
X009439Y018841D01*
X009428Y018879D01*
X009428Y018880D01*
X010077Y018880D01*
X010175Y018782D02*
X009439Y018782D01*
X009439Y018752D02*
X009053Y018752D01*
X009053Y018753D01*
X009052Y018753D01*
X009052Y018971D01*
X009052Y019008D01*
X008666Y019008D01*
X008666Y018920D01*
X008676Y018882D01*
X008677Y018880D01*
X005831Y018880D01*
X005733Y018782D02*
X008666Y018782D01*
X008666Y018753D02*
X009052Y018753D01*
X009052Y018752D01*
X009053Y018752D01*
X009053Y018715D01*
X009053Y018497D01*
X009439Y018497D01*
X009439Y018585D01*
X009428Y018623D01*
X009428Y018625D01*
X009428Y018626D01*
X009439Y018664D01*
X009439Y018752D01*
X009439Y018683D02*
X010274Y018683D01*
X010372Y018585D02*
X009439Y018585D01*
X009439Y018496D02*
X009053Y018496D01*
X009053Y018497D01*
X009052Y018497D01*
X009052Y018715D01*
X009052Y018752D01*
X008666Y018752D01*
X008666Y018664D01*
X008676Y018626D01*
X008677Y018625D01*
X008676Y018623D01*
X008666Y018585D01*
X008666Y018497D01*
X009052Y018497D01*
X009052Y018496D01*
X009053Y018496D01*
X009053Y018460D01*
X009053Y018241D01*
X009439Y018241D01*
X009439Y018329D01*
X009428Y018367D01*
X009428Y018369D01*
X009428Y018370D01*
X009439Y018408D01*
X009439Y018496D01*
X009439Y018486D02*
X010471Y018486D01*
X010569Y018387D02*
X009433Y018387D01*
X009439Y018289D02*
X010668Y018289D01*
X010766Y018190D02*
X009439Y018190D01*
X009439Y018152D02*
X009439Y018240D01*
X009053Y018240D01*
X009053Y018241D01*
X009052Y018241D01*
X009052Y018460D01*
X009052Y018496D01*
X008666Y018496D01*
X008666Y018408D01*
X008676Y018370D01*
X008677Y018369D01*
X008676Y018367D01*
X008666Y018329D01*
X008666Y018241D01*
X009052Y018241D01*
X009052Y018240D01*
X009053Y018240D01*
X009053Y018022D01*
X009308Y018022D01*
X009346Y018032D01*
X009381Y018052D01*
X009409Y018080D01*
X009428Y018114D01*
X009439Y018152D01*
X009416Y018092D02*
X010865Y018092D01*
X010971Y018241D02*
X010104Y019107D01*
X010104Y020107D01*
X009532Y020679D01*
X009055Y020679D01*
X009055Y020935D02*
X009776Y020935D01*
X010604Y020107D01*
X010604Y018907D01*
X011015Y018497D01*
X011356Y018497D01*
X011356Y018241D02*
X010971Y018241D01*
X010980Y018880D02*
X010886Y018880D01*
X010787Y018979D02*
X010989Y018979D01*
X010989Y019077D02*
X010784Y019077D01*
X010784Y019176D02*
X011034Y019176D01*
X010784Y019274D02*
X012624Y019274D01*
X012759Y019008D02*
X011356Y019008D01*
X011678Y020063D02*
X011850Y020063D01*
X011756Y020161D02*
X011678Y020161D01*
X011678Y020260D02*
X011719Y020260D01*
X011698Y020358D02*
X011678Y020358D01*
X011632Y020679D02*
X012004Y020307D01*
X011632Y020679D02*
X011353Y020679D01*
X010600Y021703D02*
X011104Y022207D01*
X012266Y022207D01*
X012168Y022723D02*
X011653Y022723D01*
X011776Y022822D02*
X012046Y022822D01*
X011971Y022920D02*
X011851Y022920D01*
X011892Y023019D02*
X011930Y023019D01*
X011932Y023315D02*
X011890Y023315D01*
X011849Y023413D02*
X011973Y023413D01*
X012051Y023512D02*
X011770Y023512D01*
X011640Y023610D02*
X012181Y023610D01*
X011426Y024300D02*
X013546Y024300D01*
X014097Y024201D02*
X010229Y024201D01*
X010311Y023664D02*
X010128Y023588D01*
X009987Y023447D01*
X009911Y023264D01*
X009911Y023065D01*
X009987Y022881D01*
X010128Y022740D01*
X010311Y022664D01*
X010510Y022664D01*
X010694Y022740D01*
X010835Y022881D01*
X010911Y023065D01*
X010911Y023264D01*
X010835Y023447D01*
X010694Y023588D01*
X010510Y023664D01*
X010311Y023664D01*
X010181Y023610D02*
X009641Y023610D01*
X009770Y023512D02*
X010051Y023512D01*
X009973Y023413D02*
X009849Y023413D01*
X009890Y023315D02*
X009932Y023315D01*
X009930Y023019D02*
X009892Y023019D01*
X009851Y022920D02*
X009971Y022920D01*
X010046Y022822D02*
X009776Y022822D01*
X009653Y022723D02*
X010169Y022723D01*
X010653Y022723D02*
X011169Y022723D01*
X011046Y022822D02*
X010776Y022822D01*
X010851Y022920D02*
X010971Y022920D01*
X010930Y023019D02*
X010892Y023019D01*
X010911Y023118D02*
X010911Y023118D01*
X010911Y023216D02*
X010911Y023216D01*
X010890Y023315D02*
X010932Y023315D01*
X010973Y023413D02*
X010849Y023413D01*
X010770Y023512D02*
X011051Y023512D01*
X011181Y023610D02*
X010640Y023610D01*
X009580Y024103D02*
X014302Y024103D01*
X014488Y024004D02*
X009180Y024004D01*
X008780Y023906D02*
X014611Y023906D01*
X010600Y021703D02*
X009055Y021703D01*
X008730Y021738D02*
X008689Y021738D01*
X009400Y020457D02*
X009500Y020457D01*
X009400Y020358D02*
X009599Y020358D01*
X009697Y020260D02*
X009380Y020260D01*
X009380Y020161D02*
X009796Y020161D01*
X009819Y020063D02*
X009380Y020063D01*
X009380Y019964D02*
X009855Y019964D01*
X009924Y019866D02*
X009380Y019866D01*
X009380Y019767D02*
X009924Y019767D01*
X009924Y019669D02*
X009380Y019669D01*
X009380Y019570D02*
X009924Y019570D01*
X009924Y019471D02*
X009310Y019471D01*
X009052Y019176D02*
X009053Y019176D01*
X009052Y019077D02*
X009053Y019077D01*
X009052Y018979D02*
X009053Y018979D01*
X009052Y018880D02*
X009053Y018880D01*
X009052Y018782D02*
X009053Y018782D01*
X009052Y018683D02*
X009053Y018683D01*
X009052Y018585D02*
X009053Y018585D01*
X009052Y018486D02*
X009053Y018486D01*
X009052Y018387D02*
X009053Y018387D01*
X009052Y018289D02*
X009053Y018289D01*
X009052Y018240D02*
X008666Y018240D01*
X008666Y018152D01*
X008676Y018114D01*
X008696Y018080D01*
X008724Y018052D01*
X008758Y018032D01*
X008796Y018022D01*
X009052Y018022D01*
X009052Y018240D01*
X009052Y018190D02*
X009053Y018190D01*
X009052Y018092D02*
X009053Y018092D01*
X008689Y018092D02*
X005084Y018092D01*
X005141Y018190D02*
X008666Y018190D01*
X008666Y018289D02*
X005240Y018289D01*
X005339Y018387D02*
X008672Y018387D01*
X008666Y018486D02*
X005437Y018486D01*
X005536Y018585D02*
X008666Y018585D01*
X008666Y018683D02*
X005634Y018683D01*
X005930Y018979D02*
X008666Y018979D01*
X008666Y019077D02*
X006028Y019077D01*
X006324Y019373D02*
X009924Y019373D01*
X009439Y019008D02*
X009439Y018920D01*
X009428Y018882D01*
X009428Y018880D01*
X008677Y018880D02*
X008676Y018879D01*
X008666Y018841D01*
X008666Y018753D01*
X009899Y016219D02*
X004721Y016219D01*
X004622Y016121D02*
X009801Y016121D01*
X009747Y016022D02*
X004524Y016022D01*
X004425Y015924D02*
X009706Y015924D01*
X009705Y015825D02*
X004326Y015825D01*
X004228Y015727D02*
X009707Y015727D01*
X009747Y015628D02*
X004129Y015628D01*
X004031Y015530D02*
X009803Y015530D01*
X010471Y016219D02*
X011029Y016219D01*
X011007Y016318D02*
X004819Y016318D01*
X004606Y016614D02*
X003251Y016614D01*
X003254Y016515D02*
X004507Y016515D01*
X004409Y016417D02*
X003254Y016417D01*
X003217Y016318D02*
X004310Y016318D01*
X004212Y016219D02*
X003173Y016219D01*
X003075Y016121D02*
X004113Y016121D01*
X004014Y016022D02*
X002890Y016022D01*
X003045Y015924D02*
X003916Y015924D01*
X003817Y015825D02*
X003143Y015825D01*
X003204Y015727D02*
X003719Y015727D01*
X003620Y015628D02*
X003245Y015628D01*
X003254Y015530D02*
X003522Y015530D01*
X003423Y015431D02*
X003254Y015431D01*
X003223Y015333D02*
X003325Y015333D01*
X003226Y015234D02*
X003182Y015234D01*
X003128Y015136D02*
X003089Y015136D01*
X003029Y015037D02*
X002925Y015037D01*
X002618Y016022D02*
X001839Y016022D01*
X003059Y016909D02*
X004724Y016909D01*
X004724Y016811D02*
X003158Y016811D01*
X003210Y016712D02*
X004704Y016712D01*
X004829Y018387D02*
X003931Y018387D01*
X003913Y018486D02*
X003890Y018486D01*
X003885Y018498D02*
X003744Y018638D01*
X003885Y018498D01*
X003798Y018585D02*
X003798Y018585D01*
X003726Y018683D02*
X003636Y018683D01*
X002621Y017993D02*
X002369Y017993D01*
X002332Y017895D02*
X002434Y017895D01*
X002336Y017796D02*
X002294Y017796D01*
X002292Y017698D02*
X002257Y017698D01*
X002254Y017599D02*
X002220Y017599D01*
X002254Y017501D02*
X002182Y017501D01*
X002148Y017402D02*
X002256Y017402D01*
X002297Y017303D02*
X002123Y017303D01*
X002099Y017205D02*
X002349Y017205D01*
X002448Y017106D02*
X002075Y017106D01*
X003594Y020260D02*
X005083Y020260D01*
X005083Y020358D02*
X003662Y020358D01*
X003730Y020457D02*
X005091Y020457D01*
X005132Y020555D02*
X003800Y020555D01*
X003887Y020654D02*
X005194Y020654D01*
X005292Y020752D02*
X003974Y020752D01*
X006597Y021442D02*
X006597Y021442D01*
X006696Y021344D02*
X006696Y021344D01*
X011454Y016811D02*
X011554Y016811D01*
X011554Y016712D02*
X011454Y016712D01*
X011454Y016614D02*
X011554Y016614D01*
X011554Y016515D02*
X011454Y016515D01*
X011554Y016417D02*
X013159Y016417D01*
X013257Y016515D02*
X011985Y016515D01*
X011945Y016614D02*
X013324Y016614D01*
X013324Y016712D02*
X011876Y016712D01*
X011755Y016811D02*
X013324Y016811D01*
X013060Y016318D02*
X012001Y016318D01*
X011978Y016219D02*
X012537Y016219D01*
X012439Y016121D02*
X011934Y016121D01*
X011856Y016022D02*
X012385Y016022D01*
X011293Y015924D02*
X010664Y015924D01*
X010623Y016022D02*
X011152Y016022D01*
X011073Y016121D02*
X010569Y016121D01*
X012804Y018963D02*
X012848Y019007D01*
X004723Y012968D02*
X004685Y012968D01*
X004685Y012869D02*
X004723Y012869D01*
D26*
X005304Y012207D03*
X005304Y011707D03*
X005204Y010907D03*
X006704Y009707D03*
X007304Y009707D03*
X008804Y010907D03*
X010304Y009307D03*
X011354Y008567D03*
X012354Y008567D03*
X012904Y007907D03*
X012904Y007407D03*
X015004Y008507D03*
X015004Y010007D03*
X015004Y011507D03*
X015004Y013007D03*
X015004Y014507D03*
X015004Y016007D03*
X015004Y017507D03*
X015004Y019007D03*
X015004Y020507D03*
X014404Y021207D03*
X015004Y022007D03*
X013404Y021807D03*
X012004Y020307D03*
X012804Y019907D03*
X010604Y020107D03*
X010104Y020107D03*
X009604Y020107D03*
X009604Y021307D03*
X007004Y019607D03*
X006304Y018907D03*
X005604Y019607D03*
X004904Y018907D03*
X005604Y018207D03*
X006304Y020307D03*
X009604Y017707D03*
X007304Y013107D03*
X006704Y013107D03*
D27*
X005304Y011707D02*
X005476Y011535D01*
X005862Y011535D01*
X008146Y011535D02*
X008732Y011535D01*
X008904Y011707D01*
X009504Y011707D01*
X009704Y011507D01*
X009704Y009333D01*
X009678Y009307D01*
X010304Y009307D01*
M02*
