G75*
G70*
%OFA0B0*%
%FSLAX24Y24*%
%IPPOS*%
%LPD*%
%AMOC8*
5,1,8,0,0,1.08239X$1,22.5*
%
%ADD10R,0.0671X0.0237*%
%ADD11C,0.0474*%
%ADD12C,0.0820*%
%ADD13R,0.0356X0.0434*%
%ADD14R,0.0671X0.0592*%
%ADD15R,0.0631X0.0474*%
%ADD16C,0.0375*%
%ADD17C,0.0493*%
%ADD18R,0.0552X0.0218*%
%ADD19C,0.0780*%
%ADD20R,0.0580X0.0330*%
D10*
X019293Y010090D03*
X019293Y010405D03*
X019293Y010720D03*
X019293Y011035D03*
X019293Y011350D03*
X019293Y011664D03*
X019293Y011979D03*
X019293Y012294D03*
X019293Y012609D03*
X019293Y012924D03*
X019293Y013239D03*
X019293Y013554D03*
X019293Y013869D03*
X019293Y014184D03*
X019293Y014499D03*
X019293Y014814D03*
X019293Y015129D03*
X019293Y015444D03*
X019293Y015759D03*
X019293Y016074D03*
X019293Y016389D03*
X019293Y016704D03*
X019293Y017019D03*
X019293Y017334D03*
X019293Y017649D03*
X019293Y017964D03*
X019293Y018279D03*
X019293Y018594D03*
X019293Y018909D03*
D11*
X023100Y020350D03*
X008455Y020350D03*
X008455Y008633D03*
X023100Y008633D03*
D12*
X008411Y005851D03*
X009411Y005851D03*
X010411Y005851D03*
X011411Y005851D03*
X012411Y005851D03*
X013411Y005851D03*
X007704Y006558D03*
X006997Y007265D03*
X006290Y007972D03*
X005583Y008679D03*
X004875Y009386D03*
X004168Y010093D03*
X003461Y010800D03*
X002754Y011507D03*
X002754Y012507D03*
X002754Y013507D03*
X002754Y014507D03*
X002754Y015507D03*
X002754Y016507D03*
X002754Y017507D03*
X003461Y018214D03*
X004168Y018922D03*
X004875Y019629D03*
X005583Y020336D03*
X006290Y021043D03*
X006997Y021750D03*
X007704Y022457D03*
X008411Y023164D03*
X009411Y023164D03*
X010411Y023164D03*
X011411Y023164D03*
X012411Y023164D03*
X013411Y023164D03*
D13*
X014248Y022507D03*
X014760Y022507D03*
X015248Y022507D03*
X015760Y022507D03*
X015960Y018607D03*
X015448Y018607D03*
X015448Y018107D03*
X015960Y018107D03*
X015960Y014707D03*
X015448Y014707D03*
X015448Y014207D03*
X015448Y013707D03*
X015960Y013707D03*
X015960Y014207D03*
X015960Y013207D03*
X015960Y012707D03*
X015448Y012707D03*
X015448Y013207D03*
X015448Y012007D03*
X015960Y012007D03*
X015960Y011307D03*
X015448Y011307D03*
X015448Y010807D03*
X015960Y010807D03*
X014260Y010807D03*
X013748Y010807D03*
X013748Y011307D03*
X014260Y011307D03*
X008360Y013107D03*
X008360Y013607D03*
X008360Y014107D03*
X008360Y014607D03*
X008360Y015107D03*
X008360Y015607D03*
X008360Y016107D03*
X008360Y016607D03*
X008360Y017107D03*
X007848Y017107D03*
X007848Y016607D03*
X007848Y016107D03*
X007848Y015607D03*
X007848Y015107D03*
X007848Y014607D03*
X007848Y014107D03*
X007848Y013607D03*
X007848Y013107D03*
D14*
X012504Y008181D03*
X012504Y007433D03*
D15*
X014137Y009433D03*
X014137Y010181D03*
X013271Y009807D03*
D16*
X006244Y011483D03*
D17*
X005192Y012544D03*
D18*
X013352Y021124D03*
X013352Y021379D03*
X013352Y021635D03*
X013352Y021891D03*
X015656Y021891D03*
X015656Y021635D03*
X015656Y021379D03*
X015656Y021124D03*
D19*
X007375Y017678D03*
X005983Y019070D03*
X004233Y016278D03*
X005625Y014886D03*
D20*
X012504Y010157D03*
X012504Y009807D03*
X012504Y009457D03*
M02*
