%
M48
M72
T01C0.0150
T02C0.0400
%
T01
X6004Y7007
X7704Y9107
X6304Y10007
X5704Y10807
X5104Y10807
X6604Y11407
X8004Y11907
X9504Y10407
X10004Y10407
X10504Y10307
X11804Y9607
X12604Y9607
X11804Y8807
X10304Y8507
X9604Y7807
X9104Y7807
X12804Y10807
X12604Y11207
X12604Y11607
X13204Y13107
X13304Y14007
X14104Y14007
X15104Y14407
X15504Y15507
X15504Y16507
X13204Y16607
X13204Y16207
X12704Y16807
X12904Y17707
X13674Y18677
X14204Y19607
X15004Y19607
X16004Y19507
X16504Y19507
X17004Y19507
X17504Y19507
X18004Y19507
X18504Y19507
X19004Y19507
X19004Y19007
X18504Y19007
X18504Y18507
X18504Y18007
X18004Y18007
X19004Y17507
X19004Y16507
X19004Y15507
X19004Y14507
X19004Y13507
X19004Y12507
X19004Y11507
X19004Y10507
X19004Y9507
X19004Y8507
X18504Y8007
X16504Y6507
X15104Y9507
X10704Y11807
X10404Y12107
X11404Y13107
X11304Y16007
X10604Y15907
X10104Y15907
X9104Y15907
X7704Y17707
X7504Y18607
X7504Y19207
X8004Y19707
X8704Y19707
X9304Y19707
X11304Y19407
X11304Y18907
X13204Y19807
X12604Y20707
X13004Y21507
X14004Y21507
X15004Y21507
X16004Y21507
X17004Y21507
X17504Y22007
X18004Y21507
X18504Y21007
X19004Y20507
X18004Y20507
X17004Y20507
X16004Y20507
X16004Y22507
X15004Y22507
X14004Y22507
X13004Y22507
X12504Y24007
X10504Y24007
X10504Y22207
X10504Y21707
X6504Y22507
X3504Y19507
X5204Y18407
X5304Y17207
X5904Y17207
X4004Y17207
X4004Y16707
X2004Y16007
X4404Y14707
X5604Y14207
X6004Y14207
X6004Y15007
X5604Y13107
X4704Y13007
X2004Y13007
X4004Y9007
X15004Y13107
X19004Y18507
T02
X8411Y5851
X9411Y5851
X10411Y5851
X11411Y5851
X12411Y5851
X13411Y5851
X15504Y6507
X15504Y7507
X16504Y7507
X17504Y7507
X17504Y8507
X16504Y8507
X15504Y8507
X16504Y9507
X17504Y9507
X17504Y10507
X16504Y10507
X16504Y11507
X17504Y11507
X17504Y12507
X16504Y12507
X16504Y13507
X17504Y13507
X17504Y14507
X16504Y14507
X16504Y15507
X17504Y15507
X17504Y16507
X16504Y16507
X13411Y23164
X12411Y23164
X11411Y23164
X10411Y23164
X9411Y23164
X8411Y23164
X7704Y22457
X6997Y21750
X6290Y21043
X5583Y20336
X4875Y19629
X4168Y18922
X3461Y18214
X2754Y17507
X2754Y16507
X2754Y15507
X2754Y14507
X2754Y13507
X2754Y12507
X2754Y11507
X3461Y10800
X4168Y10093
X4875Y9386
X5583Y8679
X6290Y7972
X6997Y7265
X7704Y6558
M30
