G75*
G70*
%OFA0B0*%
%FSLAX24Y24*%
%IPPOS*%
%LPD*%
%AMOC8*
5,1,8,0,0,1.08239X$1,22.5*
%
%ADD10C,0.0820*%
%ADD11R,0.0434X0.0356*%
%ADD12R,0.0356X0.0434*%
%ADD13R,0.0631X0.0474*%
%ADD14R,0.0297X0.0552*%
%ADD15R,0.0237X0.0552*%
%ADD16C,0.0474*%
%ADD17R,0.0671X0.1025*%
%ADD18R,0.0867X0.0552*%
%ADD19R,0.0946X0.0415*%
%ADD20R,0.0493X0.0474*%
D10*
X008411Y005851D03*
X009411Y005851D03*
X010411Y005851D03*
X011411Y005851D03*
X012411Y005851D03*
X013411Y005851D03*
X015504Y006507D03*
X015504Y007507D03*
X016504Y007507D03*
X017504Y007507D03*
X017504Y008507D03*
X016504Y008507D03*
X015504Y008507D03*
X016504Y009507D03*
X017504Y009507D03*
X017504Y010507D03*
X016504Y010507D03*
X016504Y011507D03*
X017504Y011507D03*
X017504Y012507D03*
X016504Y012507D03*
X016504Y013507D03*
X017504Y013507D03*
X017504Y014507D03*
X016504Y014507D03*
X016504Y015507D03*
X017504Y015507D03*
X017504Y016507D03*
X016504Y016507D03*
X013411Y023164D03*
X012411Y023164D03*
X011411Y023164D03*
X010411Y023164D03*
X009411Y023164D03*
X008411Y023164D03*
X007704Y022457D03*
X006997Y021750D03*
X006290Y021043D03*
X005583Y020336D03*
X004875Y019629D03*
X004168Y018922D03*
X003461Y018214D03*
X002754Y017507D03*
X002754Y016507D03*
X002754Y015507D03*
X002754Y014507D03*
X002754Y013507D03*
X002754Y012507D03*
X002754Y011507D03*
X003461Y010800D03*
X004168Y010093D03*
X004875Y009386D03*
X005583Y008679D03*
X006290Y007972D03*
X006997Y007265D03*
X007704Y006558D03*
D11*
X010004Y007251D03*
X010504Y007251D03*
X011004Y007251D03*
X011004Y007763D03*
X010504Y007763D03*
X010004Y007763D03*
X004004Y014751D03*
X004004Y015263D03*
X004004Y015751D03*
X004004Y016263D03*
D12*
X010948Y021707D03*
X010948Y022207D03*
X011460Y022207D03*
X011460Y021707D03*
X011248Y010307D03*
X011760Y010307D03*
X012248Y010307D03*
X012760Y010307D03*
X008260Y010007D03*
X007748Y010007D03*
X007260Y010007D03*
X006748Y010007D03*
X006748Y009507D03*
X007260Y009507D03*
X007748Y009507D03*
X008260Y009507D03*
D13*
X008437Y008881D03*
X008437Y008133D03*
X007571Y008507D03*
X008437Y010633D03*
X008437Y011381D03*
X007571Y011007D03*
D14*
X009130Y009519D03*
X009504Y009519D03*
X009878Y009519D03*
X010630Y009519D03*
X011004Y009519D03*
X011378Y009519D03*
X011378Y008496D03*
X011004Y008496D03*
X010630Y008496D03*
X009878Y008496D03*
X009504Y008496D03*
X009130Y008496D03*
X011630Y007819D03*
X012004Y007819D03*
X012378Y007819D03*
X012378Y006796D03*
X011630Y006796D03*
D15*
X006272Y011366D03*
X006016Y011366D03*
X005760Y011366D03*
X005504Y011366D03*
X005248Y011366D03*
X004992Y011366D03*
X004736Y011366D03*
X004736Y013649D03*
X004992Y013649D03*
X005248Y013649D03*
X005504Y013649D03*
X005760Y013649D03*
X006016Y013649D03*
X006272Y013649D03*
X006272Y015566D03*
X006016Y015566D03*
X005760Y015566D03*
X005504Y015566D03*
X005248Y015566D03*
X004992Y015566D03*
X004736Y015566D03*
X004736Y017849D03*
X004992Y017849D03*
X005248Y017849D03*
X005504Y017849D03*
X005760Y017849D03*
X006016Y017849D03*
X006272Y017849D03*
D16*
X008004Y018232D03*
X008949Y018232D03*
X009894Y018232D03*
X010839Y018232D03*
X011783Y018232D03*
X012728Y018232D03*
X013673Y018232D03*
X013673Y019177D03*
X012728Y019177D03*
X011783Y019177D03*
X010839Y019177D03*
X009894Y019177D03*
X008949Y019177D03*
X008004Y019177D03*
X008004Y020122D03*
X008949Y020122D03*
X009894Y020122D03*
X010839Y020122D03*
X011783Y020122D03*
X012728Y020122D03*
X013673Y020122D03*
X014618Y020122D03*
X014618Y019177D03*
X014618Y018232D03*
X014618Y017287D03*
X013673Y017287D03*
X012728Y017287D03*
X011783Y017287D03*
X010839Y017287D03*
X010839Y016342D03*
X011783Y016342D03*
X012728Y016342D03*
X013673Y016342D03*
X013673Y015397D03*
X012728Y015397D03*
X011783Y015397D03*
X010839Y015397D03*
X010839Y014452D03*
X011783Y014452D03*
X012728Y014452D03*
X013673Y014452D03*
X013673Y013507D03*
X012728Y013507D03*
X011783Y013507D03*
X010839Y013507D03*
X009894Y013507D03*
X008949Y013507D03*
X008004Y013507D03*
X008004Y014452D03*
X008949Y014452D03*
X009894Y014452D03*
X009894Y015397D03*
X008949Y015397D03*
X008004Y015397D03*
X008004Y016342D03*
X008949Y016342D03*
X009894Y016342D03*
X009894Y017287D03*
X008949Y017287D03*
X008004Y017287D03*
X014618Y015397D03*
X014618Y014452D03*
X014618Y013507D03*
D17*
X013409Y011507D03*
X011598Y011507D03*
D18*
X013404Y009637D03*
X013404Y008377D03*
D19*
X017004Y017966D03*
X017004Y019049D03*
D20*
X017604Y018507D03*
X016404Y018507D03*
M02*
