G75*
G70*
%OFA0B0*%
%FSLAX24Y24*%
%IPPOS*%
%LPD*%
%AMOC8*
5,1,8,0,0,1.08239X$1,22.5*
%
%ADD10R,0.0671X0.0237*%
%ADD11C,0.0474*%
%ADD12C,0.0595*%
%ADD13R,0.0356X0.0434*%
%ADD14R,0.0592X0.0671*%
%ADD15R,0.0631X0.0474*%
%ADD16C,0.0375*%
%ADD17C,0.0493*%
%ADD18R,0.0340X0.0789*%
%ADD19R,0.0330X0.0580*%
%ADD20R,0.0650X0.0570*%
%ADD21C,0.0867*%
%ADD22R,0.0986X0.1222*%
%ADD23R,0.1222X0.0986*%
%ADD24R,0.0434X0.0356*%
%ADD25C,0.0840*%
%ADD26C,0.0500*%
D10*
X018436Y009090D03*
X018436Y009405D03*
X018436Y009720D03*
X018436Y010035D03*
X018436Y010350D03*
X018436Y010664D03*
X018436Y010979D03*
X018436Y011294D03*
X018436Y011609D03*
X018436Y011924D03*
X018436Y012239D03*
X018436Y012554D03*
X018436Y012869D03*
X018436Y013184D03*
X018436Y013499D03*
X018436Y013814D03*
X018436Y014129D03*
X018436Y014444D03*
X018436Y014759D03*
X018436Y015074D03*
X018436Y015389D03*
X018436Y015704D03*
X018436Y016019D03*
X018436Y016334D03*
X018436Y016649D03*
X018436Y016964D03*
X018436Y017279D03*
X018436Y017594D03*
X018436Y017909D03*
D11*
X022243Y019350D03*
X018647Y022007D03*
X007598Y019350D03*
X007598Y007633D03*
X018447Y004607D03*
X022243Y007633D03*
D12*
X007640Y006265D03*
X008347Y005558D03*
X009054Y004851D03*
X010054Y004851D03*
X011054Y004851D03*
X012054Y004851D03*
X013054Y004851D03*
X014054Y004851D03*
X006932Y006972D03*
X006225Y007679D03*
X005518Y008386D03*
X004811Y009093D03*
X004104Y009800D03*
X003397Y010507D03*
X003397Y011507D03*
X003397Y012507D03*
X003397Y013507D03*
X003397Y014507D03*
X003397Y015507D03*
X003397Y016507D03*
X004104Y017214D03*
X004811Y017922D03*
X005518Y018629D03*
X006225Y019336D03*
X006932Y020043D03*
X007640Y020750D03*
X008347Y021457D03*
X009054Y022164D03*
X010054Y022164D03*
X011054Y022164D03*
X012054Y022164D03*
X013054Y022164D03*
X014054Y022164D03*
D13*
X016091Y017607D03*
X016603Y017607D03*
X016603Y017107D03*
X016091Y017107D03*
X016091Y013707D03*
X016603Y013707D03*
X016603Y013207D03*
X016603Y012707D03*
X016091Y012707D03*
X016091Y013207D03*
X016091Y012207D03*
X016603Y012207D03*
X016603Y011707D03*
X016091Y011707D03*
X016091Y011007D03*
X016603Y011007D03*
X016603Y010307D03*
X016603Y009807D03*
X016091Y009807D03*
X016091Y010307D03*
X014903Y010307D03*
X014903Y009807D03*
X014391Y009807D03*
X014391Y010307D03*
X013653Y007657D03*
X013141Y007657D03*
X009303Y008707D03*
X009303Y009207D03*
X008791Y009207D03*
X008791Y008707D03*
X008203Y008707D03*
X008203Y009207D03*
X007691Y009207D03*
X007691Y008707D03*
X005603Y010007D03*
X005091Y010007D03*
X008491Y012107D03*
X008491Y012607D03*
X008491Y013107D03*
X008491Y013607D03*
X008491Y014107D03*
X009003Y014107D03*
X009003Y013607D03*
X009003Y013107D03*
X009003Y012607D03*
X009003Y012107D03*
X010391Y011407D03*
X010903Y011407D03*
X005403Y016207D03*
X005403Y016707D03*
X004891Y016707D03*
X004891Y016207D03*
D14*
X015773Y009207D03*
X016521Y009207D03*
D15*
X014780Y009181D03*
X014780Y008433D03*
X013914Y008807D03*
D16*
X005532Y012760D03*
D17*
X005538Y014254D03*
D18*
X009897Y010599D03*
X010397Y010599D03*
X010897Y010599D03*
X011397Y010599D03*
X011397Y008416D03*
X010897Y008416D03*
X010397Y008416D03*
X009897Y008416D03*
D19*
X012797Y006907D03*
X013147Y006907D03*
X013497Y006907D03*
D20*
X006247Y010787D03*
X006247Y011657D03*
X005077Y011657D03*
X005077Y010787D03*
D21*
X017113Y006207D03*
X019869Y006207D03*
D22*
X019554Y007585D03*
X020302Y004829D03*
X016640Y004829D03*
D23*
X015066Y006483D03*
D24*
X011447Y007051D03*
X010947Y007051D03*
X010447Y007051D03*
X009947Y007051D03*
X009447Y007051D03*
X008947Y007051D03*
X008947Y007563D03*
X009447Y007563D03*
X009947Y007563D03*
X010447Y007563D03*
X010947Y007563D03*
X011447Y007563D03*
X004247Y011651D03*
X004247Y012163D03*
D25*
X010047Y005807D03*
X011047Y005807D03*
X013047Y005807D03*
D26*
X018093Y004607D02*
X018095Y004644D01*
X018101Y004681D01*
X018110Y004716D01*
X018124Y004751D01*
X018140Y004784D01*
X018161Y004815D01*
X018184Y004844D01*
X018210Y004870D01*
X018239Y004893D01*
X018270Y004914D01*
X018303Y004930D01*
X018338Y004944D01*
X018373Y004953D01*
X018410Y004959D01*
X018447Y004961D01*
X018484Y004959D01*
X018521Y004953D01*
X018556Y004944D01*
X018591Y004930D01*
X018624Y004914D01*
X018655Y004893D01*
X018684Y004870D01*
X018710Y004844D01*
X018733Y004815D01*
X018754Y004784D01*
X018770Y004751D01*
X018784Y004716D01*
X018793Y004681D01*
X018799Y004644D01*
X018801Y004607D01*
X018799Y004570D01*
X018793Y004533D01*
X018784Y004498D01*
X018770Y004463D01*
X018754Y004430D01*
X018733Y004399D01*
X018710Y004370D01*
X018684Y004344D01*
X018655Y004321D01*
X018624Y004300D01*
X018591Y004284D01*
X018556Y004270D01*
X018521Y004261D01*
X018484Y004255D01*
X018447Y004253D01*
X018410Y004255D01*
X018373Y004261D01*
X018338Y004270D01*
X018303Y004284D01*
X018270Y004300D01*
X018239Y004321D01*
X018210Y004344D01*
X018184Y004370D01*
X018161Y004399D01*
X018140Y004430D01*
X018124Y004463D01*
X018110Y004498D01*
X018101Y004533D01*
X018095Y004570D01*
X018093Y004607D01*
X018293Y022007D02*
X018295Y022044D01*
X018301Y022081D01*
X018310Y022116D01*
X018324Y022151D01*
X018340Y022184D01*
X018361Y022215D01*
X018384Y022244D01*
X018410Y022270D01*
X018439Y022293D01*
X018470Y022314D01*
X018503Y022330D01*
X018538Y022344D01*
X018573Y022353D01*
X018610Y022359D01*
X018647Y022361D01*
X018684Y022359D01*
X018721Y022353D01*
X018756Y022344D01*
X018791Y022330D01*
X018824Y022314D01*
X018855Y022293D01*
X018884Y022270D01*
X018910Y022244D01*
X018933Y022215D01*
X018954Y022184D01*
X018970Y022151D01*
X018984Y022116D01*
X018993Y022081D01*
X018999Y022044D01*
X019001Y022007D01*
X018999Y021970D01*
X018993Y021933D01*
X018984Y021898D01*
X018970Y021863D01*
X018954Y021830D01*
X018933Y021799D01*
X018910Y021770D01*
X018884Y021744D01*
X018855Y021721D01*
X018824Y021700D01*
X018791Y021684D01*
X018756Y021670D01*
X018721Y021661D01*
X018684Y021655D01*
X018647Y021653D01*
X018610Y021655D01*
X018573Y021661D01*
X018538Y021670D01*
X018503Y021684D01*
X018470Y021700D01*
X018439Y021721D01*
X018410Y021744D01*
X018384Y021770D01*
X018361Y021799D01*
X018340Y021830D01*
X018324Y021863D01*
X018310Y021898D01*
X018301Y021933D01*
X018295Y021970D01*
X018293Y022007D01*
M02*
