G75*
G70*
%OFA0B0*%
%FSLAX24Y24*%
%IPPOS*%
%LPD*%
%AMOC8*
5,1,8,0,0,1.08239X$1,22.5*
%
%ADD10C,0.0050*%
%ADD11C,0.0040*%
%ADD12C,0.0000*%
D10*
X011504Y004507D02*
X020504Y004507D01*
X020671Y004511D01*
X020837Y004523D01*
X021002Y004543D01*
X021166Y004570D01*
X021329Y004606D01*
X021490Y004649D01*
X021649Y004699D01*
X021805Y004758D01*
X021958Y004823D01*
X022108Y004896D01*
X022254Y004976D01*
X022396Y005063D01*
X022534Y005156D01*
X022668Y005256D01*
X022796Y005362D01*
X022919Y005474D01*
X023037Y005592D01*
X023149Y005715D01*
X023255Y005843D01*
X023355Y005977D01*
X023448Y006115D01*
X023535Y006257D01*
X023615Y006403D01*
X023688Y006553D01*
X023753Y006706D01*
X023812Y006862D01*
X023862Y007021D01*
X023905Y007182D01*
X023941Y007345D01*
X023968Y007509D01*
X023988Y007674D01*
X024000Y007840D01*
X024004Y008007D01*
X024004Y008507D01*
X024002Y008567D01*
X023997Y008628D01*
X023988Y008687D01*
X023975Y008746D01*
X023959Y008805D01*
X023939Y008862D01*
X023916Y008917D01*
X023889Y008972D01*
X023860Y009024D01*
X023827Y009075D01*
X023791Y009124D01*
X023753Y009170D01*
X023711Y009214D01*
X023667Y009256D01*
X023621Y009294D01*
X023572Y009330D01*
X023521Y009363D01*
X023469Y009392D01*
X023414Y009419D01*
X023359Y009442D01*
X023302Y009462D01*
X023243Y009478D01*
X023184Y009491D01*
X023125Y009500D01*
X023064Y009505D01*
X023004Y009507D01*
X021504Y009507D01*
X021444Y009509D01*
X021383Y009514D01*
X021324Y009523D01*
X021265Y009536D01*
X021206Y009552D01*
X021149Y009572D01*
X021094Y009595D01*
X021039Y009622D01*
X020987Y009651D01*
X020936Y009684D01*
X020887Y009720D01*
X020841Y009758D01*
X020797Y009800D01*
X020755Y009844D01*
X020717Y009890D01*
X020681Y009939D01*
X020648Y009990D01*
X020619Y010042D01*
X020592Y010097D01*
X020569Y010152D01*
X020549Y010209D01*
X020533Y010268D01*
X020520Y010327D01*
X020511Y010386D01*
X020506Y010447D01*
X020504Y010507D01*
X020504Y018507D01*
X020506Y018567D01*
X020511Y018628D01*
X020520Y018687D01*
X020533Y018746D01*
X020549Y018805D01*
X020569Y018862D01*
X020592Y018917D01*
X020619Y018972D01*
X020648Y019024D01*
X020681Y019075D01*
X020717Y019124D01*
X020755Y019170D01*
X020797Y019214D01*
X020841Y019256D01*
X020887Y019294D01*
X020936Y019330D01*
X020987Y019363D01*
X021039Y019392D01*
X021094Y019419D01*
X021149Y019442D01*
X021206Y019462D01*
X021265Y019478D01*
X021324Y019491D01*
X021383Y019500D01*
X021444Y019505D01*
X021504Y019507D01*
X023004Y019507D01*
X023064Y019509D01*
X023125Y019514D01*
X023184Y019523D01*
X023243Y019536D01*
X023302Y019552D01*
X023359Y019572D01*
X023414Y019595D01*
X023469Y019622D01*
X023521Y019651D01*
X023572Y019684D01*
X023621Y019720D01*
X023667Y019758D01*
X023711Y019800D01*
X023753Y019844D01*
X023791Y019890D01*
X023827Y019939D01*
X023860Y019990D01*
X023889Y020042D01*
X023916Y020097D01*
X023939Y020152D01*
X023959Y020209D01*
X023975Y020268D01*
X023988Y020327D01*
X023997Y020386D01*
X024002Y020447D01*
X024004Y020507D01*
X024004Y021007D01*
X024000Y021174D01*
X023988Y021340D01*
X023968Y021505D01*
X023941Y021669D01*
X023905Y021832D01*
X023862Y021993D01*
X023812Y022152D01*
X023753Y022308D01*
X023688Y022461D01*
X023615Y022611D01*
X023535Y022757D01*
X023448Y022899D01*
X023355Y023037D01*
X023255Y023171D01*
X023149Y023299D01*
X023037Y023422D01*
X022919Y023540D01*
X022796Y023652D01*
X022668Y023758D01*
X022534Y023858D01*
X022396Y023951D01*
X022254Y024038D01*
X022108Y024118D01*
X021958Y024191D01*
X021805Y024256D01*
X021649Y024315D01*
X021490Y024365D01*
X021329Y024408D01*
X021166Y024444D01*
X021002Y024471D01*
X020837Y024491D01*
X020671Y024503D01*
X020504Y024507D01*
X011504Y024507D01*
X011021Y024495D01*
X010539Y024460D01*
X010059Y024402D01*
X009583Y024321D01*
X009111Y024216D01*
X008645Y024089D01*
X008185Y023940D01*
X007733Y023769D01*
X007290Y023576D01*
X006857Y023362D01*
X006434Y023127D01*
X006024Y022872D01*
X005626Y022597D01*
X005242Y022304D01*
X004873Y021992D01*
X004519Y021663D01*
X004181Y021317D01*
X003861Y020955D01*
X003558Y020579D01*
X003274Y020188D01*
X003009Y019783D01*
X002764Y019367D01*
X002540Y018939D01*
X002336Y018501D01*
X002154Y018053D01*
X001993Y017597D01*
X001855Y017134D01*
X001740Y016665D01*
X001647Y016191D01*
X001577Y015712D01*
X001530Y015231D01*
X001507Y014749D01*
X001507Y014265D01*
X001530Y013783D01*
X001577Y013302D01*
X001647Y012823D01*
X001740Y012349D01*
X001855Y011880D01*
X001993Y011417D01*
X002154Y010961D01*
X002336Y010513D01*
X002540Y010075D01*
X002764Y009647D01*
X003009Y009231D01*
X003274Y008826D01*
X003558Y008435D01*
X003861Y008059D01*
X004181Y007697D01*
X004519Y007351D01*
X004873Y007022D01*
X005242Y006710D01*
X005626Y006417D01*
X006024Y006142D01*
X006434Y005887D01*
X006857Y005652D01*
X007290Y005438D01*
X007733Y005245D01*
X008185Y005074D01*
X008645Y004925D01*
X009111Y004798D01*
X009583Y004693D01*
X010059Y004612D01*
X010539Y004554D01*
X011021Y004519D01*
X011504Y004507D01*
D11*
X006811Y006427D02*
X006724Y006514D01*
X006811Y006427D02*
X006984Y006427D01*
X007071Y006514D01*
X007071Y006601D01*
X006984Y006688D01*
X006811Y006688D01*
X006724Y006774D01*
X006724Y006861D01*
X006811Y006948D01*
X006984Y006948D01*
X007071Y006861D01*
X007240Y006948D02*
X007500Y006948D01*
X007586Y006861D01*
X007586Y006688D01*
X007500Y006601D01*
X007240Y006601D01*
X007240Y006427D02*
X007240Y006948D01*
X007755Y006948D02*
X007755Y006427D01*
X007755Y006601D02*
X008102Y006948D01*
X008271Y006688D02*
X008618Y006688D01*
X008444Y006861D02*
X008444Y006514D01*
X008102Y006427D02*
X007842Y006688D01*
X009024Y006774D02*
X009111Y006688D01*
X009284Y006688D01*
X009371Y006601D01*
X009371Y006514D01*
X009284Y006427D01*
X009111Y006427D01*
X009024Y006514D01*
X009024Y006774D02*
X009024Y006861D01*
X009111Y006948D01*
X009284Y006948D01*
X009371Y006861D01*
X009540Y006948D02*
X009800Y006948D01*
X009886Y006861D01*
X009886Y006688D01*
X009800Y006601D01*
X009540Y006601D01*
X009540Y006427D02*
X009540Y006948D01*
X010055Y006948D02*
X010055Y006427D01*
X010055Y006601D02*
X010402Y006948D01*
X010571Y006688D02*
X010918Y006688D01*
X010402Y006427D02*
X010142Y006688D01*
X012024Y005961D02*
X012024Y005874D01*
X012111Y005788D01*
X012284Y005788D01*
X012371Y005701D01*
X012371Y005614D01*
X012284Y005527D01*
X012111Y005527D01*
X012024Y005614D01*
X012024Y005961D02*
X012111Y006048D01*
X012284Y006048D01*
X012371Y005961D01*
X012540Y006048D02*
X012800Y006048D01*
X012886Y005961D01*
X012886Y005788D01*
X012800Y005701D01*
X012540Y005701D01*
X012540Y005527D02*
X012540Y006048D01*
X013055Y006048D02*
X013055Y005527D01*
X013229Y005701D01*
X013402Y005527D01*
X013402Y006048D01*
X013571Y006048D02*
X013831Y006048D01*
X013918Y005961D01*
X013918Y005788D01*
X013831Y005701D01*
X013571Y005701D01*
X013744Y005701D02*
X013918Y005527D01*
X013571Y005527D02*
X013571Y006048D01*
D12*
X008258Y008633D02*
X008260Y008660D01*
X008266Y008687D01*
X008275Y008713D01*
X008288Y008737D01*
X008304Y008760D01*
X008323Y008779D01*
X008345Y008796D01*
X008369Y008810D01*
X008394Y008820D01*
X008421Y008827D01*
X008448Y008830D01*
X008476Y008829D01*
X008503Y008824D01*
X008529Y008816D01*
X008553Y008804D01*
X008576Y008788D01*
X008597Y008770D01*
X008614Y008749D01*
X008629Y008725D01*
X008640Y008700D01*
X008648Y008674D01*
X008652Y008647D01*
X008652Y008619D01*
X008648Y008592D01*
X008640Y008566D01*
X008629Y008541D01*
X008614Y008517D01*
X008597Y008496D01*
X008576Y008478D01*
X008554Y008462D01*
X008529Y008450D01*
X008503Y008442D01*
X008476Y008437D01*
X008448Y008436D01*
X008421Y008439D01*
X008394Y008446D01*
X008369Y008456D01*
X008345Y008470D01*
X008323Y008487D01*
X008304Y008506D01*
X008288Y008529D01*
X008275Y008553D01*
X008266Y008579D01*
X008260Y008606D01*
X008258Y008633D01*
X006096Y011483D02*
X006098Y011507D01*
X006104Y011530D01*
X006113Y011552D01*
X006126Y011572D01*
X006141Y011590D01*
X006160Y011605D01*
X006181Y011617D01*
X006203Y011625D01*
X006226Y011630D01*
X006250Y011631D01*
X006274Y011628D01*
X006296Y011621D01*
X006318Y011611D01*
X006338Y011598D01*
X006355Y011581D01*
X006369Y011562D01*
X006380Y011541D01*
X006388Y011518D01*
X006392Y011495D01*
X006392Y011471D01*
X006388Y011448D01*
X006380Y011425D01*
X006369Y011404D01*
X006355Y011385D01*
X006338Y011368D01*
X006318Y011355D01*
X006296Y011345D01*
X006274Y011338D01*
X006250Y011335D01*
X006226Y011336D01*
X006203Y011341D01*
X006181Y011349D01*
X006160Y011361D01*
X006141Y011376D01*
X006126Y011394D01*
X006113Y011414D01*
X006104Y011436D01*
X006098Y011459D01*
X006096Y011483D01*
X004985Y012544D02*
X004987Y012572D01*
X004993Y012600D01*
X005002Y012626D01*
X005015Y012652D01*
X005031Y012675D01*
X005051Y012695D01*
X005073Y012713D01*
X005097Y012728D01*
X005123Y012739D01*
X005150Y012747D01*
X005178Y012751D01*
X005206Y012751D01*
X005234Y012747D01*
X005261Y012739D01*
X005287Y012728D01*
X005311Y012713D01*
X005333Y012695D01*
X005353Y012675D01*
X005369Y012652D01*
X005382Y012626D01*
X005391Y012600D01*
X005397Y012572D01*
X005399Y012544D01*
X005397Y012516D01*
X005391Y012488D01*
X005382Y012462D01*
X005369Y012436D01*
X005353Y012413D01*
X005333Y012393D01*
X005311Y012375D01*
X005287Y012360D01*
X005261Y012349D01*
X005234Y012341D01*
X005206Y012337D01*
X005178Y012337D01*
X005150Y012341D01*
X005123Y012349D01*
X005097Y012360D01*
X005073Y012375D01*
X005051Y012393D01*
X005031Y012413D01*
X005015Y012436D01*
X005002Y012462D01*
X004993Y012488D01*
X004987Y012516D01*
X004985Y012544D01*
X008258Y020350D02*
X008260Y020377D01*
X008266Y020404D01*
X008275Y020430D01*
X008288Y020454D01*
X008304Y020477D01*
X008323Y020496D01*
X008345Y020513D01*
X008369Y020527D01*
X008394Y020537D01*
X008421Y020544D01*
X008448Y020547D01*
X008476Y020546D01*
X008503Y020541D01*
X008529Y020533D01*
X008553Y020521D01*
X008576Y020505D01*
X008597Y020487D01*
X008614Y020466D01*
X008629Y020442D01*
X008640Y020417D01*
X008648Y020391D01*
X008652Y020364D01*
X008652Y020336D01*
X008648Y020309D01*
X008640Y020283D01*
X008629Y020258D01*
X008614Y020234D01*
X008597Y020213D01*
X008576Y020195D01*
X008554Y020179D01*
X008529Y020167D01*
X008503Y020159D01*
X008476Y020154D01*
X008448Y020153D01*
X008421Y020156D01*
X008394Y020163D01*
X008369Y020173D01*
X008345Y020187D01*
X008323Y020204D01*
X008304Y020223D01*
X008288Y020246D01*
X008275Y020270D01*
X008266Y020296D01*
X008260Y020323D01*
X008258Y020350D01*
X022903Y020350D02*
X022905Y020377D01*
X022911Y020404D01*
X022920Y020430D01*
X022933Y020454D01*
X022949Y020477D01*
X022968Y020496D01*
X022990Y020513D01*
X023014Y020527D01*
X023039Y020537D01*
X023066Y020544D01*
X023093Y020547D01*
X023121Y020546D01*
X023148Y020541D01*
X023174Y020533D01*
X023198Y020521D01*
X023221Y020505D01*
X023242Y020487D01*
X023259Y020466D01*
X023274Y020442D01*
X023285Y020417D01*
X023293Y020391D01*
X023297Y020364D01*
X023297Y020336D01*
X023293Y020309D01*
X023285Y020283D01*
X023274Y020258D01*
X023259Y020234D01*
X023242Y020213D01*
X023221Y020195D01*
X023199Y020179D01*
X023174Y020167D01*
X023148Y020159D01*
X023121Y020154D01*
X023093Y020153D01*
X023066Y020156D01*
X023039Y020163D01*
X023014Y020173D01*
X022990Y020187D01*
X022968Y020204D01*
X022949Y020223D01*
X022933Y020246D01*
X022920Y020270D01*
X022911Y020296D01*
X022905Y020323D01*
X022903Y020350D01*
X022903Y008633D02*
X022905Y008660D01*
X022911Y008687D01*
X022920Y008713D01*
X022933Y008737D01*
X022949Y008760D01*
X022968Y008779D01*
X022990Y008796D01*
X023014Y008810D01*
X023039Y008820D01*
X023066Y008827D01*
X023093Y008830D01*
X023121Y008829D01*
X023148Y008824D01*
X023174Y008816D01*
X023198Y008804D01*
X023221Y008788D01*
X023242Y008770D01*
X023259Y008749D01*
X023274Y008725D01*
X023285Y008700D01*
X023293Y008674D01*
X023297Y008647D01*
X023297Y008619D01*
X023293Y008592D01*
X023285Y008566D01*
X023274Y008541D01*
X023259Y008517D01*
X023242Y008496D01*
X023221Y008478D01*
X023199Y008462D01*
X023174Y008450D01*
X023148Y008442D01*
X023121Y008437D01*
X023093Y008436D01*
X023066Y008439D01*
X023039Y008446D01*
X023014Y008456D01*
X022990Y008470D01*
X022968Y008487D01*
X022949Y008506D01*
X022933Y008529D01*
X022920Y008553D01*
X022911Y008579D01*
X022905Y008606D01*
X022903Y008633D01*
M02*
