%
M48
M72
T01C0.0150
T02C0.0295
T03C0.0394
T04C0.0400
T05C0.0413
%
T01
X12504Y9007
X13204Y10807
X12504Y11507
X12504Y12507
X13504Y12007
X14504Y12007
X14504Y13507
X13504Y13507
X14104Y15107
X12804Y15407
X12404Y15627
X11504Y14507
X11504Y13507
X10504Y13507
X10504Y12507
X10504Y11507
X9504Y12507
X7404Y13607
X7404Y14107
X7404Y14607
X7404Y15107
X6604Y15107
X6004Y15807
X5204Y16907
X5804Y18207
X8304Y17607
X9004Y16127
X9804Y16607
X10504Y18007
X11504Y18007
X12504Y18007
X13504Y18007
X14104Y18107
X15504Y19507
X17004Y19007
X18004Y19007
X16604Y18007
X19004Y21007
X20004Y20007
X20004Y19007
X20004Y18007
X20004Y17007
X20004Y16007
X20004Y15007
X20004Y14007
X20004Y13007
X20004Y12007
X20004Y11007
X20004Y10007
X20004Y9007
X19004Y8007
X18004Y7007
X17004Y6007
X17154Y12607
X16604Y12954
X16704Y13899
X16697Y14614
X18604Y12607
X10504Y19007
X10504Y21007
X7504Y21007
X9004Y15007
X9504Y15007
X6404Y12107
X2004Y14507
X14132Y21891
X15004Y23007
X16004Y23007
X17004Y23007
X17004Y22007
X18004Y22007
T02
X6244Y11483
T03
X8455Y8633
X5625Y14886
X4233Y16278
X5983Y19070
X7375Y17678
X8455Y20350
X23100Y20350
X23100Y8633
T04
X7704Y6558
X6997Y7265
X6290Y7972
X5583Y8679
X4875Y9386
X4168Y10093
X3461Y10800
X2754Y11507
X2754Y12507
X2754Y13507
X2754Y14507
X2754Y15507
X2754Y16507
X2754Y17507
X3461Y18214
X4168Y18922
X4875Y19629
X5583Y20336
X6290Y21043
X6997Y21750
X7704Y22457
X8411Y23164
X9411Y23164
X10411Y23164
X11411Y23164
X12411Y23164
X13411Y23164
X13411Y5851
X12411Y5851
X11411Y5851
X10411Y5851
X9411Y5851
X8411Y5851
T05
X5192Y12544
M30
