G75*
G70*
%OFA0B0*%
%FSLAX24Y24*%
%IPPOS*%
%LPD*%
%AMOC8*
5,1,8,0,0,1.08239X$1,22.5*
%
%ADD10R,0.0671X0.0237*%
%ADD11C,0.0474*%
%ADD12C,0.0820*%
%ADD13R,0.0356X0.0434*%
%ADD14R,0.0592X0.0671*%
%ADD15R,0.0631X0.0474*%
%ADD16C,0.0375*%
%ADD17C,0.0493*%
%ADD18C,0.0500*%
%ADD19R,0.0552X0.0218*%
%ADD20C,0.0780*%
D10*
X019293Y010090D03*
X019293Y010405D03*
X019293Y010720D03*
X019293Y011035D03*
X019293Y011350D03*
X019293Y011664D03*
X019293Y011979D03*
X019293Y012294D03*
X019293Y012609D03*
X019293Y012924D03*
X019293Y013239D03*
X019293Y013554D03*
X019293Y013869D03*
X019293Y014184D03*
X019293Y014499D03*
X019293Y014814D03*
X019293Y015129D03*
X019293Y015444D03*
X019293Y015759D03*
X019293Y016074D03*
X019293Y016389D03*
X019293Y016704D03*
X019293Y017019D03*
X019293Y017334D03*
X019293Y017649D03*
X019293Y017964D03*
X019293Y018279D03*
X019293Y018594D03*
X019293Y018909D03*
D11*
X023100Y020350D03*
X023100Y008633D03*
X022404Y006007D03*
X008455Y008633D03*
X008455Y020350D03*
X004904Y021107D03*
D12*
X007704Y006558D03*
X006997Y007265D03*
X006290Y007972D03*
X005583Y008679D03*
X004875Y009386D03*
X004168Y010093D03*
X003461Y010800D03*
X002754Y011507D03*
X002754Y012507D03*
X002754Y013507D03*
X002754Y014507D03*
X002754Y015507D03*
X002754Y016507D03*
X002754Y017507D03*
X003461Y018214D03*
X004168Y018922D03*
X004875Y019629D03*
X005583Y020336D03*
X006290Y021043D03*
X006997Y021750D03*
X007704Y022457D03*
X008411Y023164D03*
X009411Y023164D03*
X010411Y023164D03*
X011411Y023164D03*
X012411Y023164D03*
X013411Y023164D03*
X013411Y005851D03*
X012411Y005851D03*
X011411Y005851D03*
X010411Y005851D03*
X009411Y005851D03*
X008411Y005851D03*
D13*
X013748Y010807D03*
X014260Y010807D03*
X014260Y011307D03*
X013748Y011307D03*
X015448Y011307D03*
X015960Y011307D03*
X015960Y010807D03*
X015448Y010807D03*
X015448Y012007D03*
X015960Y012007D03*
X015960Y012707D03*
X015960Y013207D03*
X015448Y013207D03*
X015448Y012707D03*
X015448Y013707D03*
X015448Y014207D03*
X015960Y014207D03*
X015960Y013707D03*
X015960Y014707D03*
X015448Y014707D03*
X015448Y018107D03*
X015960Y018107D03*
X015960Y018607D03*
X015448Y018607D03*
X015260Y022507D03*
X014748Y022507D03*
X008360Y017107D03*
X007848Y017107D03*
X007848Y016607D03*
X007848Y016107D03*
X008360Y016107D03*
X008360Y016607D03*
X008360Y015607D03*
X007848Y015607D03*
X007848Y015107D03*
X007848Y014607D03*
X008360Y014607D03*
X008360Y015107D03*
X008360Y014107D03*
X007848Y014107D03*
X007848Y013607D03*
X007848Y013107D03*
X008360Y013107D03*
X008360Y013607D03*
D14*
X015130Y010207D03*
X015878Y010207D03*
D15*
X014137Y010181D03*
X014137Y009433D03*
X013271Y009807D03*
D16*
X006244Y011483D03*
D17*
X005192Y012544D03*
D18*
X004550Y021107D02*
X004552Y021144D01*
X004558Y021181D01*
X004567Y021216D01*
X004581Y021251D01*
X004597Y021284D01*
X004618Y021315D01*
X004641Y021344D01*
X004667Y021370D01*
X004696Y021393D01*
X004727Y021414D01*
X004760Y021430D01*
X004795Y021444D01*
X004830Y021453D01*
X004867Y021459D01*
X004904Y021461D01*
X004941Y021459D01*
X004978Y021453D01*
X005013Y021444D01*
X005048Y021430D01*
X005081Y021414D01*
X005112Y021393D01*
X005141Y021370D01*
X005167Y021344D01*
X005190Y021315D01*
X005211Y021284D01*
X005227Y021251D01*
X005241Y021216D01*
X005250Y021181D01*
X005256Y021144D01*
X005258Y021107D01*
X005256Y021070D01*
X005250Y021033D01*
X005241Y020998D01*
X005227Y020963D01*
X005211Y020930D01*
X005190Y020899D01*
X005167Y020870D01*
X005141Y020844D01*
X005112Y020821D01*
X005081Y020800D01*
X005048Y020784D01*
X005013Y020770D01*
X004978Y020761D01*
X004941Y020755D01*
X004904Y020753D01*
X004867Y020755D01*
X004830Y020761D01*
X004795Y020770D01*
X004760Y020784D01*
X004727Y020800D01*
X004696Y020821D01*
X004667Y020844D01*
X004641Y020870D01*
X004618Y020899D01*
X004597Y020930D01*
X004581Y020963D01*
X004567Y020998D01*
X004558Y021033D01*
X004552Y021070D01*
X004550Y021107D01*
X022050Y006007D02*
X022052Y006044D01*
X022058Y006081D01*
X022067Y006116D01*
X022081Y006151D01*
X022097Y006184D01*
X022118Y006215D01*
X022141Y006244D01*
X022167Y006270D01*
X022196Y006293D01*
X022227Y006314D01*
X022260Y006330D01*
X022295Y006344D01*
X022330Y006353D01*
X022367Y006359D01*
X022404Y006361D01*
X022441Y006359D01*
X022478Y006353D01*
X022513Y006344D01*
X022548Y006330D01*
X022581Y006314D01*
X022612Y006293D01*
X022641Y006270D01*
X022667Y006244D01*
X022690Y006215D01*
X022711Y006184D01*
X022727Y006151D01*
X022741Y006116D01*
X022750Y006081D01*
X022756Y006044D01*
X022758Y006007D01*
X022756Y005970D01*
X022750Y005933D01*
X022741Y005898D01*
X022727Y005863D01*
X022711Y005830D01*
X022690Y005799D01*
X022667Y005770D01*
X022641Y005744D01*
X022612Y005721D01*
X022581Y005700D01*
X022548Y005684D01*
X022513Y005670D01*
X022478Y005661D01*
X022441Y005655D01*
X022404Y005653D01*
X022367Y005655D01*
X022330Y005661D01*
X022295Y005670D01*
X022260Y005684D01*
X022227Y005700D01*
X022196Y005721D01*
X022167Y005744D01*
X022141Y005770D01*
X022118Y005799D01*
X022097Y005830D01*
X022081Y005863D01*
X022067Y005898D01*
X022058Y005933D01*
X022052Y005970D01*
X022050Y006007D01*
D19*
X015656Y021124D03*
X015656Y021379D03*
X015656Y021635D03*
X015656Y021891D03*
X013352Y021891D03*
X013352Y021635D03*
X013352Y021379D03*
X013352Y021124D03*
D20*
X007375Y017678D03*
X005983Y019070D03*
X004233Y016278D03*
X005625Y014886D03*
M02*
