G75*
G70*
%OFA0B0*%
%FSLAX24Y24*%
%IPPOS*%
%LPD*%
%AMOC8*
5,1,8,0,0,1.08239X$1,22.5*
%
%ADD10C,0.0050*%
%ADD11C,0.0040*%
%ADD12C,0.0000*%
%ADD13C,0.0060*%
%ADD14C,0.0080*%
D10*
X012147Y003507D02*
X019147Y003507D01*
X019314Y003511D01*
X019480Y003523D01*
X019645Y003543D01*
X019809Y003570D01*
X019972Y003606D01*
X020133Y003649D01*
X020292Y003699D01*
X020448Y003758D01*
X020601Y003823D01*
X020751Y003896D01*
X020897Y003976D01*
X021039Y004063D01*
X021177Y004156D01*
X021311Y004256D01*
X021439Y004362D01*
X021562Y004474D01*
X021680Y004592D01*
X021792Y004715D01*
X021898Y004843D01*
X021998Y004977D01*
X022091Y005115D01*
X022178Y005257D01*
X022258Y005403D01*
X022331Y005553D01*
X022396Y005706D01*
X022455Y005862D01*
X022505Y006021D01*
X022548Y006182D01*
X022584Y006345D01*
X022611Y006509D01*
X022631Y006674D01*
X022643Y006840D01*
X022647Y007007D01*
X022647Y020007D01*
X022643Y020174D01*
X022631Y020340D01*
X022611Y020505D01*
X022584Y020669D01*
X022548Y020832D01*
X022505Y020993D01*
X022455Y021152D01*
X022396Y021308D01*
X022331Y021461D01*
X022258Y021611D01*
X022178Y021757D01*
X022091Y021899D01*
X021998Y022037D01*
X021898Y022171D01*
X021792Y022299D01*
X021680Y022422D01*
X021562Y022540D01*
X021439Y022652D01*
X021311Y022758D01*
X021177Y022858D01*
X021039Y022951D01*
X020897Y023038D01*
X020751Y023118D01*
X020601Y023191D01*
X020448Y023256D01*
X020292Y023315D01*
X020133Y023365D01*
X019972Y023408D01*
X019809Y023444D01*
X019645Y023471D01*
X019480Y023491D01*
X019314Y023503D01*
X019147Y023507D01*
X012147Y023507D01*
X011664Y023495D01*
X011182Y023460D01*
X010702Y023402D01*
X010226Y023321D01*
X009754Y023216D01*
X009288Y023089D01*
X008828Y022940D01*
X008376Y022769D01*
X007933Y022576D01*
X007500Y022362D01*
X007077Y022127D01*
X006667Y021872D01*
X006269Y021597D01*
X005885Y021304D01*
X005516Y020992D01*
X005162Y020663D01*
X004824Y020317D01*
X004504Y019955D01*
X004201Y019579D01*
X003917Y019188D01*
X003652Y018783D01*
X003407Y018367D01*
X003183Y017939D01*
X002979Y017501D01*
X002797Y017053D01*
X002636Y016597D01*
X002498Y016134D01*
X002383Y015665D01*
X002290Y015191D01*
X002220Y014712D01*
X002173Y014231D01*
X002150Y013749D01*
X002150Y013265D01*
X002173Y012783D01*
X002220Y012302D01*
X002290Y011823D01*
X002383Y011349D01*
X002498Y010880D01*
X002636Y010417D01*
X002797Y009961D01*
X002979Y009513D01*
X003183Y009075D01*
X003407Y008647D01*
X003652Y008231D01*
X003917Y007826D01*
X004201Y007435D01*
X004504Y007059D01*
X004824Y006697D01*
X005162Y006351D01*
X005516Y006022D01*
X005885Y005710D01*
X006269Y005417D01*
X006667Y005142D01*
X007077Y004887D01*
X007500Y004652D01*
X007933Y004438D01*
X008376Y004245D01*
X008828Y004074D01*
X009288Y003925D01*
X009754Y003798D01*
X010226Y003693D01*
X010702Y003612D01*
X011182Y003554D01*
X011664Y003519D01*
X012147Y003507D01*
D11*
X012630Y019427D02*
X012630Y019688D01*
X012717Y019774D01*
X012977Y019774D01*
X012977Y019427D01*
X013145Y019427D02*
X013406Y019427D01*
X013492Y019514D01*
X013406Y019601D01*
X013145Y019601D01*
X013145Y019688D02*
X013145Y019427D01*
X013145Y019688D02*
X013232Y019774D01*
X013406Y019774D01*
X013661Y019688D02*
X013661Y019427D01*
X013835Y019427D02*
X013835Y019688D01*
X013748Y019774D01*
X013661Y019688D01*
X013835Y019688D02*
X013921Y019774D01*
X014008Y019774D01*
X014008Y019427D01*
X014178Y019427D02*
X014352Y019427D01*
X014265Y019427D02*
X014265Y019948D01*
X014352Y019948D01*
X014524Y020127D02*
X014524Y020474D01*
X014693Y020474D02*
X014780Y020474D01*
X014953Y020301D01*
X015122Y020301D02*
X015382Y020301D01*
X015469Y020214D01*
X015382Y020127D01*
X015122Y020127D01*
X015122Y020388D01*
X015209Y020474D01*
X015382Y020474D01*
X015638Y020648D02*
X015638Y020127D01*
X015811Y020301D01*
X015985Y020127D01*
X015985Y020648D01*
X015984Y020927D02*
X015984Y021448D01*
X016070Y021448D01*
X016239Y021274D02*
X016239Y020927D01*
X016499Y020927D01*
X016586Y021014D01*
X016586Y021274D01*
X016755Y021188D02*
X016842Y021274D01*
X017102Y021274D01*
X017102Y021448D02*
X017102Y020927D01*
X016842Y020927D01*
X016755Y021014D01*
X016755Y021188D01*
X016070Y020927D02*
X015897Y020927D01*
X015727Y021014D02*
X015640Y021101D01*
X015380Y021101D01*
X015380Y021188D02*
X015380Y020927D01*
X015640Y020927D01*
X015727Y021014D01*
X015640Y021274D02*
X015467Y021274D01*
X015380Y021188D01*
X014695Y021448D02*
X014695Y020927D01*
X014349Y020927D01*
X014180Y021014D02*
X014093Y020927D01*
X013920Y020927D01*
X013833Y021014D01*
X013664Y020927D02*
X013404Y020927D01*
X013317Y021014D01*
X013317Y021361D01*
X013404Y021448D01*
X013664Y021448D01*
X013664Y020927D01*
X014180Y021014D02*
X014180Y021361D01*
X014093Y021448D01*
X013920Y021448D01*
X013833Y021361D01*
X012633Y021361D02*
X012633Y021274D01*
X012546Y021188D01*
X012373Y021188D01*
X012286Y021101D01*
X012286Y021014D01*
X012373Y020927D01*
X012546Y020927D01*
X012633Y021014D01*
X012547Y020648D02*
X012287Y020648D01*
X012200Y020561D01*
X012200Y020214D01*
X012287Y020127D01*
X012547Y020127D01*
X012547Y020648D01*
X012117Y020927D02*
X012117Y021448D01*
X012286Y021361D02*
X012373Y021448D01*
X012546Y021448D01*
X012633Y021361D01*
X012117Y021188D02*
X012031Y021274D01*
X011857Y021274D01*
X011770Y021188D01*
X011770Y020927D01*
X011602Y020927D02*
X011428Y020927D01*
X011515Y020927D02*
X011515Y021274D01*
X011602Y021274D01*
X011515Y021448D02*
X011515Y021535D01*
X011171Y021274D02*
X010998Y021274D01*
X010911Y021188D01*
X010911Y021101D01*
X011258Y021101D01*
X011258Y021188D02*
X011171Y021274D01*
X011258Y021188D02*
X011258Y021014D01*
X011171Y020927D01*
X010998Y020927D01*
X010742Y020927D02*
X010569Y020927D01*
X010656Y020927D02*
X010656Y021448D01*
X010742Y021448D01*
X010399Y021188D02*
X010312Y021274D01*
X010052Y021274D01*
X010052Y021448D02*
X010052Y020927D01*
X010312Y020927D01*
X010399Y021014D01*
X010399Y021188D01*
X011169Y020561D02*
X011256Y020648D01*
X011429Y020648D01*
X011516Y020561D01*
X011516Y020214D01*
X011429Y020127D01*
X011256Y020127D01*
X011169Y020214D01*
X011169Y020388D01*
X011342Y020388D01*
X011000Y020474D02*
X011000Y020127D01*
X011000Y020301D02*
X010827Y020474D01*
X010740Y020474D01*
X010570Y020474D02*
X010570Y020127D01*
X010570Y020301D02*
X010397Y020474D01*
X010310Y020474D01*
X010141Y020388D02*
X010054Y020474D01*
X009881Y020474D01*
X009794Y020388D01*
X009794Y020301D01*
X010141Y020301D01*
X010141Y020214D02*
X010141Y020388D01*
X010141Y020214D02*
X010054Y020127D01*
X009881Y020127D01*
X009625Y020214D02*
X009625Y020388D01*
X009538Y020474D01*
X009365Y020474D01*
X009278Y020388D01*
X009278Y020301D01*
X009625Y020301D01*
X009625Y020214D02*
X009538Y020127D01*
X009365Y020127D01*
X009110Y020127D02*
X009110Y020474D01*
X008849Y020474D01*
X008763Y020388D01*
X008763Y020127D01*
X008594Y020214D02*
X008507Y020127D01*
X008420Y020214D01*
X008334Y020127D01*
X008247Y020214D01*
X008247Y020474D01*
X007992Y020474D02*
X007818Y020474D01*
X007731Y020388D01*
X007731Y020127D01*
X007992Y020127D01*
X008078Y020214D01*
X007992Y020301D01*
X007731Y020301D01*
X007563Y020214D02*
X007476Y020127D01*
X007216Y020127D01*
X007216Y020041D02*
X007302Y019954D01*
X007389Y019954D01*
X007216Y020041D02*
X007216Y020474D01*
X007563Y020474D02*
X007563Y020214D01*
X007818Y020927D02*
X007992Y020927D01*
X008078Y021014D01*
X007731Y021361D01*
X007731Y021014D01*
X007818Y020927D01*
X008078Y021014D02*
X008078Y021361D01*
X007992Y021448D01*
X007818Y021448D01*
X007731Y021361D01*
X008249Y021014D02*
X008249Y020927D01*
X008336Y020927D01*
X008336Y021014D01*
X008249Y021014D01*
X008505Y020927D02*
X008852Y020927D01*
X008678Y020927D02*
X008678Y021448D01*
X008852Y021274D01*
X009020Y021101D02*
X009194Y020927D01*
X009367Y021101D01*
X009367Y021448D01*
X009020Y021448D02*
X009020Y021101D01*
X008594Y020474D02*
X008594Y020214D01*
X013231Y020127D02*
X013231Y020388D01*
X013318Y020474D01*
X013578Y020474D01*
X013578Y020127D01*
X013747Y020301D02*
X014094Y020301D01*
X014094Y020388D02*
X014007Y020474D01*
X013834Y020474D01*
X013747Y020388D01*
X013747Y020301D01*
X013834Y020127D02*
X014007Y020127D01*
X014094Y020214D01*
X014094Y020388D01*
X014263Y020474D02*
X014350Y020474D01*
X014524Y020301D01*
X014953Y020127D02*
X014953Y020474D01*
X015124Y019861D02*
X015124Y019514D01*
X015038Y019427D01*
X014867Y019514D02*
X014867Y019688D01*
X014781Y019774D01*
X014607Y019774D01*
X014520Y019688D01*
X014520Y019601D01*
X014867Y019601D01*
X014867Y019514D02*
X014781Y019427D01*
X014607Y019427D01*
X015038Y019774D02*
X015211Y019774D01*
X015468Y019774D02*
X015468Y019427D01*
X015555Y019427D02*
X015381Y019427D01*
X015468Y019774D02*
X015555Y019774D01*
X015724Y019688D02*
X015724Y019601D01*
X016070Y019601D01*
X016070Y019514D02*
X016070Y019688D01*
X015984Y019774D01*
X015810Y019774D01*
X015724Y019688D01*
X015810Y019427D02*
X015984Y019427D01*
X016070Y019514D01*
X016413Y019427D02*
X016413Y019948D01*
X016586Y019948D02*
X016239Y019948D01*
X016671Y020127D02*
X016671Y020214D01*
X016758Y020214D01*
X016758Y020127D01*
X016671Y020127D01*
X016927Y020127D02*
X017187Y020127D01*
X017274Y020214D01*
X017274Y020474D01*
X017442Y020474D02*
X017529Y020388D01*
X017789Y020388D01*
X017789Y020648D02*
X017789Y020127D01*
X017529Y020127D01*
X017442Y020214D01*
X017442Y020301D01*
X017529Y020388D01*
X017442Y020474D02*
X017442Y020561D01*
X017529Y020648D01*
X017789Y020648D01*
X017786Y020927D02*
X017786Y021448D01*
X017531Y021274D02*
X017357Y021274D01*
X017270Y021188D01*
X017270Y021101D01*
X017617Y021101D01*
X017617Y021188D02*
X017531Y021274D01*
X017617Y021188D02*
X017617Y021014D01*
X017531Y020927D01*
X017357Y020927D01*
X017786Y020927D02*
X018133Y021448D01*
X018133Y020927D01*
X018560Y020474D02*
X018474Y020388D01*
X018474Y020127D01*
X018821Y020127D02*
X018821Y020474D01*
X018560Y020474D01*
X018989Y020474D02*
X018989Y020041D01*
X019076Y019954D01*
X019163Y019954D01*
X019164Y019948D02*
X019164Y019427D01*
X018817Y019427D01*
X018991Y019688D02*
X019164Y019688D01*
X019164Y019948D02*
X018817Y019948D01*
X018649Y019774D02*
X018475Y019427D01*
X018302Y019774D01*
X018046Y019774D02*
X017873Y019774D01*
X017786Y019688D01*
X017786Y019427D01*
X018046Y019427D01*
X018133Y019514D01*
X018046Y019601D01*
X017786Y019601D01*
X017617Y019774D02*
X017617Y019427D01*
X017270Y019427D02*
X017270Y019688D01*
X017357Y019774D01*
X017617Y019774D01*
X017100Y019954D02*
X017013Y019954D01*
X016927Y020041D01*
X016927Y020474D01*
X016758Y020474D02*
X016758Y020388D01*
X016671Y020388D01*
X016671Y020474D01*
X016758Y020474D01*
X015468Y020035D02*
X015468Y019948D01*
X018817Y020841D02*
X018904Y020754D01*
X018991Y020754D01*
X019078Y020927D02*
X018817Y020927D01*
X018817Y020841D02*
X018817Y021274D01*
X019164Y021274D02*
X019164Y021014D01*
X019078Y020927D01*
X019333Y020927D02*
X019333Y021188D01*
X019420Y021274D01*
X019506Y021188D01*
X019506Y020927D01*
X019680Y020927D02*
X019680Y021274D01*
X019593Y021274D01*
X019506Y021188D01*
X019849Y021274D02*
X019849Y020841D01*
X019935Y020754D01*
X020022Y020754D01*
X020109Y020927D02*
X019849Y020927D01*
X020109Y020927D02*
X020196Y021014D01*
X020196Y021188D01*
X020109Y021274D01*
X019849Y021274D01*
X020364Y021274D02*
X020364Y020841D01*
X020451Y020754D01*
X020538Y020754D01*
X020624Y020927D02*
X020364Y020927D01*
X020624Y020927D02*
X020711Y021014D01*
X020711Y021274D01*
X020880Y021188D02*
X020967Y021101D01*
X021227Y021101D01*
X021227Y020927D02*
X021227Y021448D01*
X020967Y021448D01*
X020880Y021361D01*
X020880Y021188D01*
X020967Y020648D02*
X021227Y020648D01*
X021227Y020127D01*
X020967Y020127D01*
X020880Y020214D01*
X020880Y020561D01*
X020967Y020648D01*
X020711Y020388D02*
X020624Y020474D01*
X020451Y020474D01*
X020364Y020388D01*
X020364Y020301D01*
X020711Y020301D01*
X020711Y020214D02*
X020711Y020388D01*
X020711Y020214D02*
X020624Y020127D01*
X020451Y020127D01*
X020196Y020127D02*
X019935Y020127D01*
X019849Y020214D01*
X019935Y020301D01*
X020109Y020301D01*
X020196Y020388D01*
X020109Y020474D01*
X019849Y020474D01*
X019680Y020474D02*
X019593Y020474D01*
X019593Y020127D01*
X019680Y020127D02*
X019506Y020127D01*
X019336Y020214D02*
X019249Y020127D01*
X018989Y020127D01*
X018989Y020474D02*
X019249Y020474D01*
X019336Y020388D01*
X019336Y020214D01*
X019593Y020648D02*
X019593Y020735D01*
X019849Y019948D02*
X019849Y019427D01*
X020109Y019427D01*
X020196Y019514D01*
X020196Y019688D01*
X020109Y019774D01*
X019849Y019774D01*
X020364Y019688D02*
X020364Y019427D01*
X020364Y019688D02*
X020451Y019774D01*
X020711Y019774D01*
X020711Y019427D01*
X020880Y019427D02*
X020880Y019774D01*
X021053Y019948D01*
X021227Y019774D01*
X021227Y019427D01*
X021227Y019688D02*
X020880Y019688D01*
D12*
X007401Y007633D02*
X007403Y007660D01*
X007409Y007687D01*
X007418Y007713D01*
X007431Y007737D01*
X007447Y007760D01*
X007466Y007779D01*
X007488Y007796D01*
X007512Y007810D01*
X007537Y007820D01*
X007564Y007827D01*
X007591Y007830D01*
X007619Y007829D01*
X007646Y007824D01*
X007672Y007816D01*
X007696Y007804D01*
X007719Y007788D01*
X007740Y007770D01*
X007757Y007749D01*
X007772Y007725D01*
X007783Y007700D01*
X007791Y007674D01*
X007795Y007647D01*
X007795Y007619D01*
X007791Y007592D01*
X007783Y007566D01*
X007772Y007541D01*
X007757Y007517D01*
X007740Y007496D01*
X007719Y007478D01*
X007697Y007462D01*
X007672Y007450D01*
X007646Y007442D01*
X007619Y007437D01*
X007591Y007436D01*
X007564Y007439D01*
X007537Y007446D01*
X007512Y007456D01*
X007488Y007470D01*
X007466Y007487D01*
X007447Y007506D01*
X007431Y007529D01*
X007418Y007553D01*
X007409Y007579D01*
X007403Y007606D01*
X007401Y007633D01*
X005384Y012760D02*
X005386Y012784D01*
X005392Y012807D01*
X005401Y012829D01*
X005414Y012849D01*
X005429Y012867D01*
X005448Y012882D01*
X005469Y012894D01*
X005491Y012902D01*
X005514Y012907D01*
X005538Y012908D01*
X005562Y012905D01*
X005584Y012898D01*
X005606Y012888D01*
X005626Y012875D01*
X005643Y012858D01*
X005657Y012839D01*
X005668Y012818D01*
X005676Y012795D01*
X005680Y012772D01*
X005680Y012748D01*
X005676Y012725D01*
X005668Y012702D01*
X005657Y012681D01*
X005643Y012662D01*
X005626Y012645D01*
X005606Y012632D01*
X005584Y012622D01*
X005562Y012615D01*
X005538Y012612D01*
X005514Y012613D01*
X005491Y012618D01*
X005469Y012626D01*
X005448Y012638D01*
X005429Y012653D01*
X005414Y012671D01*
X005401Y012691D01*
X005392Y012713D01*
X005386Y012736D01*
X005384Y012760D01*
X005331Y014254D02*
X005333Y014282D01*
X005339Y014310D01*
X005348Y014336D01*
X005361Y014362D01*
X005377Y014385D01*
X005397Y014405D01*
X005419Y014423D01*
X005443Y014438D01*
X005469Y014449D01*
X005496Y014457D01*
X005524Y014461D01*
X005552Y014461D01*
X005580Y014457D01*
X005607Y014449D01*
X005633Y014438D01*
X005657Y014423D01*
X005679Y014405D01*
X005699Y014385D01*
X005715Y014362D01*
X005728Y014336D01*
X005737Y014310D01*
X005743Y014282D01*
X005745Y014254D01*
X005743Y014226D01*
X005737Y014198D01*
X005728Y014172D01*
X005715Y014146D01*
X005699Y014123D01*
X005679Y014103D01*
X005657Y014085D01*
X005633Y014070D01*
X005607Y014059D01*
X005580Y014051D01*
X005552Y014047D01*
X005524Y014047D01*
X005496Y014051D01*
X005469Y014059D01*
X005443Y014070D01*
X005419Y014085D01*
X005397Y014103D01*
X005377Y014123D01*
X005361Y014146D01*
X005348Y014172D01*
X005339Y014198D01*
X005333Y014226D01*
X005331Y014254D01*
X007401Y019350D02*
X007403Y019377D01*
X007409Y019404D01*
X007418Y019430D01*
X007431Y019454D01*
X007447Y019477D01*
X007466Y019496D01*
X007488Y019513D01*
X007512Y019527D01*
X007537Y019537D01*
X007564Y019544D01*
X007591Y019547D01*
X007619Y019546D01*
X007646Y019541D01*
X007672Y019533D01*
X007696Y019521D01*
X007719Y019505D01*
X007740Y019487D01*
X007757Y019466D01*
X007772Y019442D01*
X007783Y019417D01*
X007791Y019391D01*
X007795Y019364D01*
X007795Y019336D01*
X007791Y019309D01*
X007783Y019283D01*
X007772Y019258D01*
X007757Y019234D01*
X007740Y019213D01*
X007719Y019195D01*
X007697Y019179D01*
X007672Y019167D01*
X007646Y019159D01*
X007619Y019154D01*
X007591Y019153D01*
X007564Y019156D01*
X007537Y019163D01*
X007512Y019173D01*
X007488Y019187D01*
X007466Y019204D01*
X007447Y019223D01*
X007431Y019246D01*
X007418Y019270D01*
X007409Y019296D01*
X007403Y019323D01*
X007401Y019350D01*
X022046Y019350D02*
X022048Y019377D01*
X022054Y019404D01*
X022063Y019430D01*
X022076Y019454D01*
X022092Y019477D01*
X022111Y019496D01*
X022133Y019513D01*
X022157Y019527D01*
X022182Y019537D01*
X022209Y019544D01*
X022236Y019547D01*
X022264Y019546D01*
X022291Y019541D01*
X022317Y019533D01*
X022341Y019521D01*
X022364Y019505D01*
X022385Y019487D01*
X022402Y019466D01*
X022417Y019442D01*
X022428Y019417D01*
X022436Y019391D01*
X022440Y019364D01*
X022440Y019336D01*
X022436Y019309D01*
X022428Y019283D01*
X022417Y019258D01*
X022402Y019234D01*
X022385Y019213D01*
X022364Y019195D01*
X022342Y019179D01*
X022317Y019167D01*
X022291Y019159D01*
X022264Y019154D01*
X022236Y019153D01*
X022209Y019156D01*
X022182Y019163D01*
X022157Y019173D01*
X022133Y019187D01*
X022111Y019204D01*
X022092Y019223D01*
X022076Y019246D01*
X022063Y019270D01*
X022054Y019296D01*
X022048Y019323D01*
X022046Y019350D01*
X022046Y007633D02*
X022048Y007660D01*
X022054Y007687D01*
X022063Y007713D01*
X022076Y007737D01*
X022092Y007760D01*
X022111Y007779D01*
X022133Y007796D01*
X022157Y007810D01*
X022182Y007820D01*
X022209Y007827D01*
X022236Y007830D01*
X022264Y007829D01*
X022291Y007824D01*
X022317Y007816D01*
X022341Y007804D01*
X022364Y007788D01*
X022385Y007770D01*
X022402Y007749D01*
X022417Y007725D01*
X022428Y007700D01*
X022436Y007674D01*
X022440Y007647D01*
X022440Y007619D01*
X022436Y007592D01*
X022428Y007566D01*
X022417Y007541D01*
X022402Y007517D01*
X022385Y007496D01*
X022364Y007478D01*
X022342Y007462D01*
X022317Y007450D01*
X022291Y007442D01*
X022264Y007437D01*
X022236Y007436D01*
X022209Y007439D01*
X022182Y007446D01*
X022157Y007456D01*
X022133Y007470D01*
X022111Y007487D01*
X022092Y007506D01*
X022076Y007529D01*
X022063Y007553D01*
X022054Y007579D01*
X022048Y007606D01*
X022046Y007633D01*
X019475Y006207D02*
X019477Y006246D01*
X019483Y006285D01*
X019493Y006323D01*
X019506Y006360D01*
X019523Y006395D01*
X019543Y006429D01*
X019567Y006460D01*
X019594Y006489D01*
X019623Y006515D01*
X019655Y006538D01*
X019689Y006558D01*
X019725Y006574D01*
X019762Y006586D01*
X019801Y006595D01*
X019840Y006600D01*
X019879Y006601D01*
X019918Y006598D01*
X019957Y006591D01*
X019994Y006580D01*
X020031Y006566D01*
X020066Y006548D01*
X020099Y006527D01*
X020130Y006502D01*
X020158Y006475D01*
X020183Y006445D01*
X020205Y006412D01*
X020224Y006378D01*
X020239Y006342D01*
X020251Y006304D01*
X020259Y006266D01*
X020263Y006227D01*
X020263Y006187D01*
X020259Y006148D01*
X020251Y006110D01*
X020239Y006072D01*
X020224Y006036D01*
X020205Y006002D01*
X020183Y005969D01*
X020158Y005939D01*
X020130Y005912D01*
X020099Y005887D01*
X020066Y005866D01*
X020031Y005848D01*
X019994Y005834D01*
X019957Y005823D01*
X019918Y005816D01*
X019879Y005813D01*
X019840Y005814D01*
X019801Y005819D01*
X019762Y005828D01*
X019725Y005840D01*
X019689Y005856D01*
X019655Y005876D01*
X019623Y005899D01*
X019594Y005925D01*
X019567Y005954D01*
X019543Y005985D01*
X019523Y006019D01*
X019506Y006054D01*
X019493Y006091D01*
X019483Y006129D01*
X019477Y006168D01*
X019475Y006207D01*
X016719Y006207D02*
X016721Y006246D01*
X016727Y006285D01*
X016737Y006323D01*
X016750Y006360D01*
X016767Y006395D01*
X016787Y006429D01*
X016811Y006460D01*
X016838Y006489D01*
X016867Y006515D01*
X016899Y006538D01*
X016933Y006558D01*
X016969Y006574D01*
X017006Y006586D01*
X017045Y006595D01*
X017084Y006600D01*
X017123Y006601D01*
X017162Y006598D01*
X017201Y006591D01*
X017238Y006580D01*
X017275Y006566D01*
X017310Y006548D01*
X017343Y006527D01*
X017374Y006502D01*
X017402Y006475D01*
X017427Y006445D01*
X017449Y006412D01*
X017468Y006378D01*
X017483Y006342D01*
X017495Y006304D01*
X017503Y006266D01*
X017507Y006227D01*
X017507Y006187D01*
X017503Y006148D01*
X017495Y006110D01*
X017483Y006072D01*
X017468Y006036D01*
X017449Y006002D01*
X017427Y005969D01*
X017402Y005939D01*
X017374Y005912D01*
X017343Y005887D01*
X017310Y005866D01*
X017275Y005848D01*
X017238Y005834D01*
X017201Y005823D01*
X017162Y005816D01*
X017123Y005813D01*
X017084Y005814D01*
X017045Y005819D01*
X017006Y005828D01*
X016969Y005840D01*
X016933Y005856D01*
X016899Y005876D01*
X016867Y005899D01*
X016838Y005925D01*
X016811Y005954D01*
X016787Y005985D01*
X016767Y006019D01*
X016750Y006054D01*
X016737Y006091D01*
X016727Y006129D01*
X016721Y006168D01*
X016719Y006207D01*
D13*
X013747Y006607D02*
X013747Y007207D01*
X013745Y007224D01*
X013741Y007241D01*
X013734Y007257D01*
X013724Y007271D01*
X013711Y007284D01*
X013697Y007294D01*
X013681Y007301D01*
X013664Y007305D01*
X013647Y007307D01*
X012647Y007307D01*
X012630Y007305D01*
X012613Y007301D01*
X012597Y007294D01*
X012583Y007284D01*
X012570Y007271D01*
X012560Y007257D01*
X012553Y007241D01*
X012549Y007224D01*
X012547Y007207D01*
X012547Y006607D01*
X012549Y006590D01*
X012553Y006573D01*
X012560Y006557D01*
X012570Y006543D01*
X012583Y006530D01*
X012597Y006520D01*
X012613Y006513D01*
X012630Y006509D01*
X012647Y006507D01*
X013647Y006507D01*
X013664Y006509D01*
X013681Y006513D01*
X013697Y006520D01*
X013711Y006530D01*
X013724Y006543D01*
X013734Y006557D01*
X013741Y006573D01*
X013745Y006590D01*
X013747Y006607D01*
D14*
X013097Y011737D02*
X012737Y011782D01*
X012692Y011842D01*
X012632Y012097D01*
X012587Y012142D01*
X012377Y012202D01*
X012317Y012202D01*
X012122Y012022D01*
X012032Y011992D01*
X011762Y012187D01*
X011762Y012277D01*
X011837Y012532D01*
X011822Y012592D01*
X011642Y012757D01*
X011372Y012712D01*
X011282Y012742D01*
X011147Y013042D01*
X011192Y013132D01*
X011387Y013297D01*
X011357Y013507D01*
X011312Y013567D01*
X011117Y013672D01*
X011072Y013732D01*
X011102Y014092D01*
X011162Y014167D01*
X011447Y014227D01*
X011507Y014377D01*
X011492Y014422D01*
X011342Y014677D01*
X011342Y014782D01*
X011582Y015067D01*
X011792Y015067D01*
X012047Y014917D01*
X012182Y015007D01*
X012197Y015412D01*
X012257Y015457D01*
X012722Y015517D01*
X012842Y015442D01*
X012932Y015112D01*
X012977Y015052D01*
X013157Y015052D01*
X013202Y015112D01*
X013457Y015382D01*
X013562Y015382D01*
X013982Y015112D01*
X013997Y015007D01*
X013877Y014692D01*
X013892Y014617D01*
X014072Y014437D01*
X014162Y014437D01*
X014447Y014497D01*
X014537Y014467D01*
X014717Y014032D01*
X014717Y013897D01*
X014372Y013657D01*
X014342Y013612D01*
X014372Y013357D01*
X014687Y013177D01*
X014747Y013057D01*
X014582Y012667D01*
X014507Y012637D01*
X014267Y012682D01*
X014177Y012667D01*
X014042Y012547D01*
X014027Y012457D01*
X014132Y012157D01*
X014102Y012082D01*
X013787Y011917D01*
X013697Y011917D01*
X013457Y012112D01*
X013382Y012127D01*
X013232Y012097D01*
X013157Y011797D01*
X013097Y011737D01*
X012962Y012562D02*
X012812Y012562D01*
X012512Y012652D01*
X012347Y012757D01*
X012167Y012892D01*
X012047Y013042D01*
X011942Y013207D01*
X011882Y013342D01*
X011852Y013477D01*
X011837Y013642D01*
X011837Y013777D01*
X011837Y013642D02*
X011912Y013522D01*
X012002Y013402D01*
X012182Y013282D01*
X012452Y013177D01*
X012572Y013132D01*
X012752Y013117D01*
X012797Y013072D01*
X012812Y012967D01*
X012827Y012847D01*
X012857Y012712D01*
X012887Y012622D01*
X012962Y012562D01*
X013442Y013012D02*
X013517Y012937D01*
X013607Y012892D01*
X013712Y012862D01*
X013772Y012937D01*
X013832Y013027D01*
X013892Y013147D01*
X013937Y013327D01*
X013937Y013612D01*
X013922Y013702D01*
X013802Y014002D01*
X013712Y014137D01*
X013637Y014242D01*
X013562Y014317D01*
X013517Y014092D01*
X013487Y014002D01*
X013427Y013957D01*
X013382Y013957D01*
X013277Y014002D01*
X013292Y013837D01*
X013322Y013597D01*
X013352Y013312D01*
X013382Y013102D01*
X013442Y013012D01*
X012707Y013642D02*
X012632Y013657D01*
X012512Y013732D01*
X012437Y013822D01*
X012422Y013972D01*
X012437Y014062D01*
X012497Y014137D01*
X012602Y014137D01*
X012647Y014092D01*
X012707Y013642D01*
X012122Y014407D02*
X012197Y014482D01*
X012302Y014557D01*
X012602Y014587D01*
X013052Y014572D01*
X013127Y014587D01*
X012902Y014677D01*
X012632Y014692D01*
X012392Y014632D01*
X012302Y014557D01*
M02*
