G75*
G70*
%OFA0B0*%
%FSLAX24Y24*%
%IPPOS*%
%LPD*%
%AMOC8*
5,1,8,0,0,1.08239X$1,22.5*
%
%ADD10R,0.0591X0.0157*%
%ADD11C,0.0740*%
%ADD12R,0.0276X0.0354*%
%ADD13R,0.0512X0.0591*%
%ADD14R,0.0551X0.0394*%
%ADD15C,0.0394*%
%ADD16R,0.0472X0.0138*%
%ADD17C,0.0700*%
%ADD18C,0.0080*%
%ADD19C,0.0310*%
%ADD20C,0.0100*%
%ADD21C,0.0120*%
%ADD22C,0.0160*%
%ADD23C,0.0240*%
%ADD24C,0.0400*%
D10*
X019293Y010090D03*
X019293Y010405D03*
X019293Y010720D03*
X019293Y011035D03*
X019293Y011350D03*
X019293Y011664D03*
X019293Y011979D03*
X019293Y012294D03*
X019293Y012609D03*
X019293Y012924D03*
X019293Y013239D03*
X019293Y013554D03*
X019293Y013869D03*
X019293Y014184D03*
X019293Y014499D03*
X019293Y014814D03*
X019293Y015129D03*
X019293Y015444D03*
X019293Y015759D03*
X019293Y016074D03*
X019293Y016389D03*
X019293Y016704D03*
X019293Y017019D03*
X019293Y017334D03*
X019293Y017649D03*
X019293Y017964D03*
X019293Y018279D03*
X019293Y018594D03*
X019293Y018909D03*
D11*
X013411Y023164D03*
X012411Y023164D03*
X011411Y023164D03*
X010411Y023164D03*
X009411Y023164D03*
X008411Y023164D03*
X007704Y022457D03*
X006997Y021750D03*
X006290Y021043D03*
X005583Y020336D03*
X004875Y019629D03*
X004168Y018922D03*
X003461Y018214D03*
X002754Y017507D03*
X002754Y016507D03*
X002754Y015507D03*
X002754Y014507D03*
X002754Y013507D03*
X002754Y012507D03*
X002754Y011507D03*
X003461Y010800D03*
X004168Y010093D03*
X004875Y009386D03*
X005583Y008679D03*
X006290Y007972D03*
X006997Y007265D03*
X007704Y006558D03*
X008411Y005851D03*
X009411Y005851D03*
X010411Y005851D03*
X011411Y005851D03*
X012411Y005851D03*
X013411Y005851D03*
D12*
X013748Y010807D03*
X014260Y010807D03*
X014260Y011307D03*
X013748Y011307D03*
X015448Y011307D03*
X015960Y011307D03*
X015960Y010807D03*
X015448Y010807D03*
X015448Y012007D03*
X015960Y012007D03*
X015960Y012707D03*
X015960Y013207D03*
X015448Y013207D03*
X015448Y012707D03*
X015448Y013707D03*
X015448Y014207D03*
X015960Y014207D03*
X015960Y013707D03*
X015960Y014707D03*
X015448Y014707D03*
X015448Y018107D03*
X015960Y018107D03*
X015960Y018607D03*
X015448Y018607D03*
X015260Y022507D03*
X014748Y022507D03*
X008360Y017107D03*
X007848Y017107D03*
X007848Y016607D03*
X007848Y016107D03*
X008360Y016107D03*
X008360Y016607D03*
X008360Y015607D03*
X007848Y015607D03*
X007848Y015107D03*
X007848Y014607D03*
X008360Y014607D03*
X008360Y015107D03*
X008360Y014107D03*
X007848Y014107D03*
X007848Y013607D03*
X007848Y013107D03*
X008360Y013107D03*
X008360Y013607D03*
D13*
X015130Y010207D03*
X015878Y010207D03*
D14*
X014137Y010181D03*
X014137Y009433D03*
X013271Y009807D03*
D15*
X022404Y006007D03*
X004904Y021107D03*
D16*
X013352Y021124D03*
X013352Y021379D03*
X013352Y021635D03*
X013352Y021891D03*
X015656Y021891D03*
X015656Y021635D03*
X015656Y021379D03*
X015656Y021124D03*
D17*
X007375Y017678D03*
X005983Y019070D03*
X004233Y016278D03*
X005625Y014886D03*
D18*
X005469Y006805D02*
X006442Y006134D01*
X007488Y005584D01*
X008593Y005165D01*
X009740Y004883D01*
X010913Y004740D01*
X011504Y004722D01*
X020504Y004722D01*
X020826Y004738D01*
X021457Y004864D01*
X022052Y005110D01*
X022588Y005468D01*
X023043Y005923D01*
X023401Y006459D01*
X023647Y007054D01*
X023773Y007685D01*
X023789Y008007D01*
X023789Y008418D01*
X023789Y008436D01*
X023789Y008507D01*
X023779Y008630D01*
X023703Y008864D01*
X023559Y009062D01*
X023360Y009207D01*
X023127Y009283D01*
X023004Y009292D01*
X021415Y009292D01*
X021415Y009292D01*
X021311Y009292D01*
X021311Y009292D01*
X020946Y009411D01*
X020945Y009411D01*
X020634Y009638D01*
X020634Y009638D01*
X020408Y009949D01*
X020289Y010315D01*
X020289Y010418D01*
X020289Y010418D01*
X020289Y018596D01*
X020289Y018596D01*
X020289Y018700D01*
X020289Y018700D01*
X020408Y019066D01*
X020408Y019066D01*
X020634Y019377D01*
X020634Y019377D01*
X020634Y019377D01*
X020945Y019603D01*
X020946Y019603D01*
X021311Y019722D01*
X021311Y019722D01*
X021415Y019722D01*
X021415Y019722D01*
X023004Y019722D01*
X023127Y019732D01*
X023360Y019808D01*
X023559Y019952D01*
X023703Y020151D01*
X023779Y020385D01*
X023789Y020507D01*
X023789Y020596D01*
X023789Y020918D01*
X023789Y021007D01*
X023773Y021329D01*
X023647Y021961D01*
X023401Y022556D01*
X023043Y023091D01*
X022588Y023547D01*
X022588Y023547D01*
X022052Y023905D01*
X021458Y024151D01*
X020826Y024277D01*
X020504Y024292D01*
X011504Y024292D01*
X010913Y024275D01*
X009740Y024132D01*
X008593Y023849D01*
X007488Y023430D01*
X006442Y022881D01*
X005469Y022210D01*
X004585Y021426D01*
X003801Y020542D01*
X003130Y019570D01*
X002581Y018523D01*
X002162Y017418D01*
X001879Y016271D01*
X001737Y015098D01*
X001737Y013917D01*
X001879Y012744D01*
X002162Y011596D01*
X002581Y010491D01*
X003130Y009445D01*
X003801Y008473D01*
X004585Y007588D01*
X005469Y006805D01*
X005468Y006806D02*
X006773Y006806D01*
X006801Y006792D02*
X006877Y006767D01*
X006957Y006755D01*
X006957Y007225D01*
X007037Y007225D01*
X007037Y007305D01*
X007507Y007305D01*
X007494Y007384D01*
X007469Y007461D01*
X007433Y007532D01*
X007386Y007597D01*
X007329Y007654D01*
X007264Y007701D01*
X007192Y007737D01*
X007116Y007762D01*
X007037Y007775D01*
X007037Y007775D01*
X007037Y007305D01*
X006957Y007305D01*
X006957Y007775D01*
X006957Y007775D01*
X006877Y007762D01*
X006801Y007737D01*
X006729Y007701D01*
X006664Y007654D01*
X006608Y007597D01*
X006561Y007532D01*
X006524Y007461D01*
X006499Y007384D01*
X006487Y007305D01*
X006487Y007305D01*
X006956Y007305D01*
X006956Y007225D01*
X006487Y007225D01*
X006487Y007225D01*
X006499Y007145D01*
X006524Y007069D01*
X006561Y006997D01*
X006608Y006933D01*
X006664Y006876D01*
X006729Y006829D01*
X006801Y006792D01*
X006957Y006806D02*
X007037Y006806D01*
X007037Y006755D02*
X007116Y006767D01*
X007192Y006792D01*
X007264Y006829D01*
X007277Y006838D01*
X007268Y006825D01*
X007231Y006753D01*
X007206Y006677D01*
X007194Y006598D01*
X007194Y006598D01*
X007664Y006598D01*
X007664Y007068D01*
X007664Y007068D01*
X007584Y007055D01*
X007508Y007030D01*
X007436Y006994D01*
X007423Y006984D01*
X007433Y006997D01*
X007469Y007069D01*
X007494Y007145D01*
X007507Y007225D01*
X007037Y007225D01*
X007037Y006755D01*
X007037Y006755D01*
X006957Y006755D02*
X006957Y006755D01*
X006957Y006885D02*
X007037Y006885D01*
X007037Y006963D02*
X006957Y006963D01*
X006957Y007042D02*
X007037Y007042D01*
X007037Y007120D02*
X006957Y007120D01*
X006957Y007199D02*
X007037Y007199D01*
X007037Y007277D02*
X011111Y007277D01*
X011111Y007199D02*
X007503Y007199D01*
X007507Y007225D02*
X007507Y007225D01*
X007507Y007305D02*
X007507Y007305D01*
X007499Y007356D02*
X011111Y007356D01*
X011111Y007435D02*
X007478Y007435D01*
X007443Y007513D02*
X011111Y007513D01*
X011111Y007592D02*
X007390Y007592D01*
X007306Y007670D02*
X011111Y007670D01*
X011111Y007749D02*
X007157Y007749D01*
X007037Y007749D02*
X006957Y007749D01*
X006957Y007670D02*
X007037Y007670D01*
X007037Y007592D02*
X006957Y007592D01*
X006957Y007513D02*
X007037Y007513D01*
X007037Y007435D02*
X006957Y007435D01*
X006957Y007356D02*
X007037Y007356D01*
X006956Y007277D02*
X004936Y007277D01*
X005024Y007199D02*
X006491Y007199D01*
X006507Y007120D02*
X005113Y007120D01*
X005202Y007042D02*
X006538Y007042D01*
X006585Y006963D02*
X005290Y006963D01*
X005379Y006885D02*
X006655Y006885D01*
X006495Y007356D02*
X004847Y007356D01*
X004758Y007435D02*
X006516Y007435D01*
X006551Y007513D02*
X006410Y007513D01*
X006383Y007502D02*
X006556Y007573D01*
X006688Y007706D01*
X006760Y007878D01*
X006760Y008065D01*
X006688Y008238D01*
X006556Y008370D01*
X006383Y008442D01*
X006344Y008442D01*
X006344Y010049D01*
X012228Y015934D01*
X012513Y015934D01*
X012459Y015881D01*
X012455Y015882D01*
X012353Y015882D01*
X012259Y015844D01*
X012188Y015772D01*
X012149Y015678D01*
X012149Y015577D01*
X012188Y015483D01*
X012259Y015411D01*
X012353Y015372D01*
X012455Y015372D01*
X012548Y015411D01*
X012549Y015412D01*
X012549Y015357D01*
X012588Y015263D01*
X012659Y015191D01*
X012753Y015152D01*
X012855Y015152D01*
X012948Y015191D01*
X013020Y015263D01*
X013059Y015357D01*
X013059Y015458D01*
X013057Y015463D01*
X013162Y015567D01*
X018546Y015567D01*
X018727Y015386D01*
X018804Y015309D01*
X015478Y015309D01*
X015329Y015309D01*
X014327Y015309D01*
X014274Y015362D01*
X014164Y015407D01*
X014044Y015407D01*
X013934Y015362D01*
X012300Y013727D01*
X011156Y012584D01*
X011111Y012474D01*
X011111Y012355D01*
X011111Y009748D01*
X011111Y006215D01*
X011012Y006117D01*
X010941Y005944D01*
X010941Y005757D01*
X011012Y005584D01*
X011145Y005452D01*
X011317Y005381D01*
X011504Y005381D01*
X011677Y005452D01*
X011809Y005584D01*
X011881Y005757D01*
X011881Y005944D01*
X011809Y006117D01*
X011711Y006215D01*
X011711Y009587D01*
X012895Y009587D01*
X012895Y009569D01*
X012954Y009511D01*
X013588Y009511D01*
X013646Y009569D01*
X013646Y010046D01*
X013588Y010104D01*
X012954Y010104D01*
X012895Y010046D01*
X012895Y010027D01*
X011711Y010027D01*
X011711Y012290D01*
X012639Y013218D01*
X013329Y012527D01*
X013478Y012527D01*
X015210Y012527D01*
X015210Y012489D01*
X015269Y012430D01*
X015294Y012430D01*
X015294Y012391D01*
X015388Y012297D01*
X015401Y012285D01*
X015269Y012285D01*
X015210Y012226D01*
X015210Y011789D01*
X015269Y011730D01*
X015527Y011730D01*
X015646Y011611D01*
X015640Y011615D01*
X015604Y011625D01*
X015477Y011625D01*
X015477Y011337D01*
X015419Y011337D01*
X015419Y011625D01*
X015292Y011625D01*
X015256Y011615D01*
X015224Y011597D01*
X015198Y011571D01*
X015180Y011539D01*
X015170Y011503D01*
X015170Y011336D01*
X015419Y011336D01*
X015419Y011278D01*
X015477Y011278D01*
X015477Y010990D01*
X015477Y010837D01*
X015419Y010837D01*
X015419Y010990D01*
X015419Y011278D01*
X015170Y011278D01*
X015170Y011112D01*
X015180Y011076D01*
X015191Y011057D01*
X015180Y011039D01*
X015170Y011003D01*
X015170Y010836D01*
X015419Y010836D01*
X015419Y010778D01*
X015170Y010778D01*
X015170Y010643D01*
X015170Y010248D01*
X015090Y010248D01*
X015090Y010643D01*
X014856Y010643D01*
X014820Y010633D01*
X014788Y010615D01*
X014762Y010589D01*
X014744Y010557D01*
X014734Y010521D01*
X014734Y010247D01*
X015090Y010247D01*
X015090Y010167D01*
X015170Y010167D01*
X015170Y009772D01*
X015404Y009772D01*
X015440Y009782D01*
X015472Y009800D01*
X015498Y009826D01*
X015516Y009858D01*
X015522Y009880D01*
X015522Y009871D01*
X015581Y009812D01*
X016175Y009812D01*
X016234Y009871D01*
X016234Y010047D01*
X016370Y010047D01*
X016464Y010141D01*
X016882Y010560D01*
X017202Y010560D01*
X016229Y009587D01*
X014513Y009587D01*
X014513Y009672D01*
X014454Y009730D01*
X013820Y009730D01*
X013761Y009672D01*
X013761Y009195D01*
X013820Y009137D01*
X014454Y009137D01*
X014513Y009195D01*
X014513Y009227D01*
X016378Y009227D01*
X016484Y009333D01*
X017376Y010225D01*
X018913Y010225D01*
X018898Y010210D01*
X018898Y009969D01*
X018957Y009911D01*
X019630Y009911D01*
X019689Y009969D01*
X019689Y010210D01*
X019651Y010247D01*
X019689Y010284D01*
X019689Y010525D01*
X019651Y010562D01*
X019689Y010599D01*
X019689Y010840D01*
X019651Y010877D01*
X019689Y010914D01*
X019689Y011155D01*
X019651Y011192D01*
X019689Y011229D01*
X019689Y011470D01*
X019651Y011507D01*
X019689Y011544D01*
X019689Y011785D01*
X019651Y011822D01*
X019689Y011859D01*
X019689Y012100D01*
X019651Y012137D01*
X019689Y012174D01*
X019689Y012415D01*
X019679Y012424D01*
X019701Y012445D01*
X019719Y012477D01*
X019729Y012512D01*
X019729Y012609D01*
X019294Y012609D01*
X019294Y012610D01*
X019729Y012610D01*
X019729Y012707D01*
X019719Y012742D01*
X019701Y012774D01*
X019679Y012795D01*
X019689Y012804D01*
X019689Y013044D01*
X019651Y013082D01*
X019689Y013119D01*
X019689Y013359D01*
X019651Y013397D01*
X019689Y013434D01*
X019689Y013674D01*
X019651Y013712D01*
X019689Y013749D01*
X019689Y013989D01*
X019651Y014027D01*
X019689Y014064D01*
X019689Y014304D01*
X019651Y014342D01*
X019689Y014379D01*
X019689Y014619D01*
X019651Y014657D01*
X019689Y014694D01*
X019689Y014934D01*
X019651Y014972D01*
X019689Y015009D01*
X019689Y015249D01*
X019651Y015286D01*
X019689Y015324D01*
X019689Y015564D01*
X019651Y015601D01*
X019689Y015639D01*
X019689Y015879D01*
X019651Y015916D01*
X019689Y015954D01*
X019689Y016194D01*
X019651Y016231D01*
X019689Y016269D01*
X019689Y016509D01*
X019651Y016546D01*
X019689Y016584D01*
X019689Y016824D01*
X019651Y016861D01*
X019689Y016899D01*
X019689Y017139D01*
X019651Y017176D01*
X019689Y017214D01*
X019689Y017454D01*
X019651Y017491D01*
X019689Y017529D01*
X019689Y017769D01*
X019651Y017806D01*
X019689Y017844D01*
X019689Y018084D01*
X019651Y018121D01*
X019689Y018158D01*
X019689Y018399D01*
X019651Y018436D01*
X019689Y018473D01*
X019689Y018714D01*
X019651Y018751D01*
X019689Y018788D01*
X019689Y019029D01*
X019630Y019087D01*
X018957Y019087D01*
X018898Y019029D01*
X018898Y018788D01*
X018935Y018751D01*
X018898Y018714D01*
X018898Y018473D01*
X018935Y018436D01*
X018918Y018419D01*
X016691Y018419D01*
X016444Y018665D01*
X016362Y018747D01*
X016198Y018747D01*
X016198Y018826D01*
X016154Y018870D01*
X016154Y019670D01*
X016066Y019757D01*
X015166Y020657D01*
X015042Y020657D01*
X013066Y020657D01*
X010814Y022909D01*
X010881Y023071D01*
X010881Y023258D01*
X010809Y023430D01*
X010677Y023563D01*
X010504Y023634D01*
X010317Y023634D01*
X010145Y023563D01*
X010012Y023430D01*
X009941Y023258D01*
X009941Y023071D01*
X010012Y022898D01*
X010145Y022766D01*
X010317Y022694D01*
X010504Y022694D01*
X010576Y022724D01*
X010642Y022657D01*
X010642Y022657D01*
X010066Y022657D01*
X009814Y022909D01*
X009881Y023071D01*
X009881Y023258D01*
X009809Y023430D01*
X009677Y023563D01*
X009504Y023634D01*
X009317Y023634D01*
X009145Y023563D01*
X009012Y023430D01*
X008941Y023258D01*
X008941Y023071D01*
X009012Y022898D01*
X009145Y022766D01*
X009317Y022694D01*
X009504Y022694D01*
X009576Y022724D01*
X009854Y022445D01*
X009942Y022357D01*
X010642Y022357D01*
X012754Y020245D01*
X012842Y020157D01*
X014642Y020157D01*
X015249Y019550D01*
X015249Y019457D01*
X015288Y019363D01*
X015359Y019291D01*
X015453Y019252D01*
X015555Y019252D01*
X015648Y019291D01*
X015720Y019363D01*
X015759Y019457D01*
X015759Y019558D01*
X015720Y019652D01*
X015648Y019724D01*
X015555Y019762D01*
X015461Y019762D01*
X014866Y020357D01*
X015042Y020357D01*
X015854Y019545D01*
X015854Y018885D01*
X015781Y018885D01*
X015722Y018826D01*
X015722Y018389D01*
X015753Y018357D01*
X015722Y018326D01*
X015722Y017889D01*
X015781Y017830D01*
X016139Y017830D01*
X016198Y017889D01*
X016198Y017967D01*
X016349Y017967D01*
X016349Y017957D01*
X016388Y017863D01*
X016459Y017791D01*
X016553Y017752D01*
X016655Y017752D01*
X016748Y017791D01*
X016781Y017824D01*
X018918Y017824D01*
X018935Y017806D01*
X018918Y017789D01*
X018883Y017789D01*
X018767Y017789D01*
X018667Y017689D01*
X010428Y017689D01*
X007669Y020447D01*
X007553Y020447D01*
X006045Y020447D01*
X005981Y020602D01*
X005849Y020734D01*
X005676Y020806D01*
X005489Y020806D01*
X005316Y020734D01*
X005184Y020602D01*
X005113Y020429D01*
X005113Y020242D01*
X005184Y020070D01*
X005316Y019937D01*
X005489Y019866D01*
X005676Y019866D01*
X005849Y019937D01*
X005981Y020070D01*
X006021Y020167D01*
X007553Y020167D01*
X007952Y019769D01*
X007917Y019769D01*
X005326Y019769D01*
X005274Y019895D01*
X005142Y020027D01*
X004969Y020099D01*
X004782Y020099D01*
X004609Y020027D01*
X004477Y019895D01*
X004405Y019722D01*
X004405Y019535D01*
X004477Y019362D01*
X004609Y019230D01*
X004782Y019159D01*
X004969Y019159D01*
X005142Y019230D01*
X005274Y019362D01*
X005326Y019489D01*
X005725Y019489D01*
X005665Y019445D01*
X005983Y019127D01*
X006301Y019445D01*
X006240Y019489D01*
X007917Y019489D01*
X008659Y018747D01*
X008646Y018747D01*
X006746Y018747D01*
X006664Y018665D01*
X006164Y018165D01*
X006164Y018049D01*
X006164Y017365D01*
X004446Y015647D01*
X003205Y015647D01*
X003152Y015774D01*
X003020Y015906D01*
X002847Y015977D01*
X002660Y015977D01*
X002488Y015906D01*
X002355Y015774D01*
X002284Y015601D01*
X002284Y015414D01*
X002355Y015241D01*
X002488Y015109D01*
X002660Y015037D01*
X002847Y015037D01*
X003020Y015109D01*
X003152Y015241D01*
X003205Y015367D01*
X004466Y015367D01*
X003746Y014647D01*
X003205Y014647D01*
X003152Y014774D01*
X003020Y014906D01*
X002847Y014977D01*
X002661Y014977D01*
X002488Y014906D01*
X002356Y014774D01*
X002284Y014601D01*
X002284Y014414D01*
X002356Y014241D01*
X002488Y014109D01*
X002661Y014037D01*
X002847Y014037D01*
X003020Y014109D01*
X003152Y014241D01*
X003205Y014367D01*
X003746Y014367D01*
X003766Y014367D01*
X003158Y013760D01*
X003152Y013774D01*
X003020Y013906D01*
X002848Y013977D01*
X002661Y013977D01*
X002488Y013906D01*
X002356Y013774D01*
X002284Y013601D01*
X002284Y013414D01*
X002356Y013241D01*
X002488Y013109D01*
X002661Y013037D01*
X002848Y013037D01*
X003020Y013109D01*
X003152Y013241D01*
X003224Y013414D01*
X003224Y013429D01*
X007105Y017311D01*
X007120Y017297D01*
X007285Y017228D01*
X007464Y017228D01*
X007579Y017276D01*
X007610Y017244D01*
X007610Y016889D01*
X007642Y016857D01*
X007610Y016826D01*
X007610Y016389D01*
X007642Y016357D01*
X007610Y016326D01*
X007610Y015889D01*
X007642Y015857D01*
X007610Y015826D01*
X007610Y015747D01*
X006404Y015747D01*
X006288Y015747D01*
X005829Y015289D01*
X005830Y015289D01*
X005829Y015289D02*
X005715Y015336D01*
X005536Y015336D01*
X005370Y015268D01*
X005244Y015141D01*
X005175Y014976D01*
X005175Y014797D01*
X005223Y014682D01*
X003200Y012659D01*
X003152Y012774D01*
X003020Y012906D01*
X002847Y012977D01*
X002661Y012977D01*
X002488Y012906D01*
X002356Y012774D01*
X002284Y012601D01*
X002284Y012414D01*
X002356Y012241D01*
X002488Y012109D01*
X002661Y012037D01*
X002847Y012037D01*
X003020Y012109D01*
X003152Y012241D01*
X003205Y012367D01*
X003304Y012367D01*
X005421Y014484D01*
X005536Y014436D01*
X005715Y014436D01*
X005880Y014505D01*
X006007Y014631D01*
X006075Y014797D01*
X006075Y014976D01*
X006027Y015091D01*
X006404Y015467D01*
X007610Y015467D01*
X007610Y015389D01*
X007642Y015357D01*
X007610Y015326D01*
X007610Y015262D01*
X007548Y015324D01*
X007455Y015362D01*
X007353Y015362D01*
X007259Y015324D01*
X007188Y015252D01*
X007149Y015158D01*
X007149Y015057D01*
X007188Y014963D01*
X007259Y014891D01*
X007341Y014857D01*
X007259Y014824D01*
X007188Y014752D01*
X007186Y014747D01*
X006462Y014747D01*
X006346Y014747D01*
X003246Y011647D01*
X003205Y011647D01*
X003152Y011774D01*
X003020Y011906D01*
X002848Y011977D01*
X002661Y011977D01*
X002488Y011906D01*
X002356Y011774D01*
X002284Y011601D01*
X002284Y011414D01*
X002356Y011241D01*
X002488Y011109D01*
X002661Y011037D01*
X002848Y011037D01*
X003020Y011109D01*
X003152Y011241D01*
X003205Y011367D01*
X003246Y011367D01*
X003362Y011367D01*
X006462Y014467D01*
X007186Y014467D01*
X007188Y014463D01*
X007259Y014391D01*
X007341Y014357D01*
X007259Y014324D01*
X007188Y014252D01*
X007149Y014158D01*
X007149Y014057D01*
X007151Y014052D01*
X006864Y013765D01*
X006864Y013649D01*
X006864Y013365D01*
X004439Y010940D01*
X003912Y010940D01*
X003860Y011066D01*
X003727Y011199D01*
X003555Y011270D01*
X003368Y011270D01*
X003195Y011199D01*
X003063Y011066D01*
X002991Y010894D01*
X002991Y010707D01*
X003063Y010534D01*
X003195Y010402D01*
X003368Y010330D01*
X003555Y010330D01*
X003727Y010402D01*
X003860Y010534D01*
X003912Y010660D01*
X004439Y010660D01*
X004555Y010660D01*
X007062Y013167D01*
X007144Y013249D01*
X007144Y013649D01*
X007149Y013654D01*
X007149Y013557D01*
X007188Y013463D01*
X007259Y013391D01*
X007353Y013352D01*
X007455Y013352D01*
X007548Y013391D01*
X007610Y013453D01*
X007610Y013389D01*
X007642Y013357D01*
X007610Y013326D01*
X007610Y012889D01*
X007669Y012830D01*
X007708Y012830D01*
X007708Y012417D01*
X005524Y010233D01*
X004619Y010233D01*
X004567Y010359D01*
X004435Y010492D01*
X004262Y010563D01*
X004075Y010563D01*
X003902Y010492D01*
X003770Y010359D01*
X003698Y010187D01*
X003698Y010000D01*
X003770Y009827D01*
X003902Y009695D01*
X004075Y009623D01*
X004262Y009623D01*
X004435Y009695D01*
X004567Y009827D01*
X004619Y009953D01*
X005524Y009953D01*
X005559Y009953D01*
X005553Y009947D01*
X005546Y009947D01*
X005464Y009865D01*
X005464Y009749D01*
X005464Y009138D01*
X005316Y009077D01*
X005184Y008945D01*
X005113Y008772D01*
X005113Y008585D01*
X005184Y008413D01*
X005316Y008280D01*
X005489Y008209D01*
X005676Y008209D01*
X005849Y008280D01*
X005981Y008413D01*
X006052Y008585D01*
X006052Y008772D01*
X005981Y008945D01*
X005849Y009077D01*
X005744Y009121D01*
X005744Y009742D01*
X006064Y010062D01*
X006064Y008387D01*
X006023Y008370D01*
X005891Y008238D01*
X005820Y008065D01*
X005820Y007878D01*
X005891Y007706D01*
X006023Y007573D01*
X006196Y007502D01*
X006383Y007502D01*
X006574Y007592D02*
X006604Y007592D01*
X006653Y007670D02*
X006687Y007670D01*
X006706Y007749D02*
X006836Y007749D01*
X006738Y007827D02*
X011111Y007827D01*
X011111Y007906D02*
X006760Y007906D01*
X006760Y007984D02*
X011111Y007984D01*
X011111Y008063D02*
X006760Y008063D01*
X006728Y008141D02*
X011111Y008141D01*
X011111Y008220D02*
X006696Y008220D01*
X006628Y008299D02*
X008251Y008299D01*
X008236Y008305D02*
X008378Y008246D01*
X008532Y008246D01*
X008674Y008305D01*
X008783Y008414D01*
X008842Y008556D01*
X008842Y008710D01*
X008783Y008852D01*
X008674Y008961D01*
X008532Y009020D01*
X008378Y009020D01*
X008236Y008961D01*
X008127Y008852D01*
X008068Y008710D01*
X008068Y008556D01*
X008127Y008414D01*
X008236Y008305D01*
X008164Y008377D02*
X006539Y008377D01*
X006344Y008456D02*
X008109Y008456D01*
X008077Y008534D02*
X006344Y008534D01*
X006344Y008613D02*
X008068Y008613D01*
X008068Y008691D02*
X006344Y008691D01*
X006344Y008770D02*
X008093Y008770D01*
X008125Y008848D02*
X006344Y008848D01*
X006344Y008927D02*
X008202Y008927D01*
X008343Y009005D02*
X006344Y009005D01*
X006344Y009084D02*
X011111Y009084D01*
X011111Y009163D02*
X006344Y009163D01*
X006344Y009241D02*
X011111Y009241D01*
X011111Y009320D02*
X006344Y009320D01*
X006344Y009398D02*
X011111Y009398D01*
X011111Y009477D02*
X006344Y009477D01*
X006344Y009555D02*
X011111Y009555D01*
X011111Y009634D02*
X006344Y009634D01*
X006344Y009712D02*
X011111Y009712D01*
X011111Y009791D02*
X006344Y009791D01*
X006344Y009869D02*
X011111Y009869D01*
X011111Y009948D02*
X006344Y009948D01*
X006344Y010026D02*
X011111Y010026D01*
X011111Y010105D02*
X006400Y010105D01*
X006478Y010184D02*
X011111Y010184D01*
X011111Y010262D02*
X006557Y010262D01*
X006635Y010341D02*
X011111Y010341D01*
X011111Y010419D02*
X006714Y010419D01*
X006792Y010498D02*
X011111Y010498D01*
X011111Y010576D02*
X006871Y010576D01*
X006949Y010655D02*
X011111Y010655D01*
X011111Y010733D02*
X007028Y010733D01*
X007106Y010812D02*
X011111Y010812D01*
X011111Y010890D02*
X007185Y010890D01*
X007264Y010969D02*
X011111Y010969D01*
X011111Y011048D02*
X007342Y011048D01*
X007421Y011126D02*
X011111Y011126D01*
X011111Y011205D02*
X007499Y011205D01*
X007578Y011283D02*
X011111Y011283D01*
X011111Y011362D02*
X007656Y011362D01*
X007735Y011440D02*
X011111Y011440D01*
X011111Y011519D02*
X007813Y011519D01*
X007892Y011597D02*
X011111Y011597D01*
X011111Y011676D02*
X007970Y011676D01*
X008049Y011754D02*
X011111Y011754D01*
X011111Y011833D02*
X008128Y011833D01*
X008206Y011912D02*
X011111Y011912D01*
X011111Y011990D02*
X008285Y011990D01*
X008363Y012069D02*
X011111Y012069D01*
X011111Y012147D02*
X008442Y012147D01*
X008520Y012226D02*
X011111Y012226D01*
X011111Y012304D02*
X008599Y012304D01*
X008677Y012383D02*
X011111Y012383D01*
X011111Y012461D02*
X008756Y012461D01*
X008834Y012540D02*
X011138Y012540D01*
X011191Y012618D02*
X008913Y012618D01*
X008991Y012697D02*
X011269Y012697D01*
X011348Y012776D02*
X009070Y012776D01*
X009149Y012854D02*
X011426Y012854D01*
X011505Y012933D02*
X009227Y012933D01*
X009306Y013011D02*
X011583Y013011D01*
X011662Y013090D02*
X009384Y013090D01*
X009463Y013168D02*
X011741Y013168D01*
X011819Y013247D02*
X009541Y013247D01*
X009620Y013325D02*
X011898Y013325D01*
X011976Y013404D02*
X009698Y013404D01*
X009777Y013482D02*
X012055Y013482D01*
X012133Y013561D02*
X009855Y013561D01*
X009934Y013639D02*
X012212Y013639D01*
X012290Y013718D02*
X010013Y013718D01*
X010091Y013797D02*
X012369Y013797D01*
X012447Y013875D02*
X010170Y013875D01*
X010248Y013954D02*
X012526Y013954D01*
X012604Y014032D02*
X010327Y014032D01*
X010405Y014111D02*
X012683Y014111D01*
X012762Y014189D02*
X010484Y014189D01*
X010562Y014268D02*
X012840Y014268D01*
X012919Y014346D02*
X010641Y014346D01*
X010719Y014425D02*
X012997Y014425D01*
X013076Y014503D02*
X010798Y014503D01*
X010877Y014582D02*
X013154Y014582D01*
X013233Y014661D02*
X010955Y014661D01*
X011034Y014739D02*
X013311Y014739D01*
X013390Y014818D02*
X011112Y014818D01*
X011191Y014896D02*
X013468Y014896D01*
X013547Y014975D02*
X011269Y014975D01*
X011348Y015053D02*
X013626Y015053D01*
X013704Y015132D02*
X011426Y015132D01*
X011505Y015210D02*
X012640Y015210D01*
X012577Y015289D02*
X011583Y015289D01*
X011662Y015367D02*
X012549Y015367D01*
X012804Y015407D02*
X013104Y015707D01*
X018604Y015707D01*
X018867Y015444D01*
X019293Y015444D01*
X019293Y015759D02*
X018852Y015759D01*
X018704Y015907D01*
X012684Y015907D01*
X012404Y015627D01*
X012225Y015446D02*
X011741Y015446D01*
X011819Y015525D02*
X012171Y015525D01*
X012149Y015603D02*
X011898Y015603D01*
X011976Y015682D02*
X012150Y015682D01*
X012183Y015760D02*
X012055Y015760D01*
X012133Y015839D02*
X012255Y015839D01*
X012212Y015917D02*
X012496Y015917D01*
X012170Y016074D02*
X006204Y010107D01*
X006204Y008057D01*
X006290Y007972D01*
X005952Y008299D02*
X005867Y008299D01*
X005884Y008220D02*
X005703Y008220D01*
X005851Y008141D02*
X004095Y008141D01*
X004164Y008063D02*
X005820Y008063D01*
X005820Y007984D02*
X004234Y007984D01*
X004304Y007906D02*
X005820Y007906D01*
X005841Y007827D02*
X004373Y007827D01*
X004443Y007749D02*
X005873Y007749D01*
X005926Y007670D02*
X004512Y007670D01*
X004582Y007592D02*
X006005Y007592D01*
X006169Y007513D02*
X004670Y007513D01*
X004025Y008220D02*
X005462Y008220D01*
X005298Y008299D02*
X003956Y008299D01*
X003886Y008377D02*
X005220Y008377D01*
X005166Y008456D02*
X003817Y008456D01*
X003759Y008534D02*
X005134Y008534D01*
X005113Y008613D02*
X003705Y008613D01*
X003651Y008691D02*
X005113Y008691D01*
X005113Y008770D02*
X003596Y008770D01*
X003542Y008848D02*
X005144Y008848D01*
X005177Y008927D02*
X004995Y008927D01*
X004969Y008916D02*
X005142Y008988D01*
X005274Y009120D01*
X005345Y009293D01*
X005345Y009480D01*
X005274Y009652D01*
X005142Y009784D01*
X004969Y009856D01*
X004782Y009856D01*
X004609Y009784D01*
X004477Y009652D01*
X004405Y009480D01*
X004405Y009293D01*
X004477Y009120D01*
X004609Y008988D01*
X004782Y008916D01*
X004969Y008916D01*
X005159Y009005D02*
X005244Y009005D01*
X005238Y009084D02*
X005332Y009084D01*
X005291Y009163D02*
X005464Y009163D01*
X005464Y009241D02*
X005324Y009241D01*
X005345Y009320D02*
X005464Y009320D01*
X005464Y009398D02*
X005345Y009398D01*
X005345Y009477D02*
X005464Y009477D01*
X005464Y009555D02*
X005314Y009555D01*
X005281Y009634D02*
X005464Y009634D01*
X005464Y009712D02*
X005214Y009712D01*
X005126Y009791D02*
X005464Y009791D01*
X005468Y009869D02*
X004584Y009869D01*
X004617Y009948D02*
X005554Y009948D01*
X005582Y010093D02*
X007848Y012359D01*
X007848Y013107D01*
X007610Y013090D02*
X006984Y013090D01*
X007063Y013168D02*
X007610Y013168D01*
X007610Y013247D02*
X007141Y013247D01*
X007144Y013325D02*
X007610Y013325D01*
X007610Y013404D02*
X007561Y013404D01*
X007404Y013607D02*
X007848Y013607D01*
X008331Y013578D02*
X008389Y013578D01*
X008389Y013425D01*
X008389Y013137D01*
X008331Y013137D01*
X008331Y013425D01*
X008331Y013578D01*
X008331Y013561D02*
X008389Y013561D01*
X008389Y013578D02*
X008389Y013636D01*
X008638Y013636D01*
X008638Y013803D01*
X008628Y013839D01*
X008617Y013857D01*
X008628Y013876D01*
X008638Y013912D01*
X008638Y014078D01*
X008389Y014078D01*
X008389Y013925D01*
X008389Y013637D01*
X008331Y013637D01*
X008331Y013925D01*
X008331Y014078D01*
X008389Y014078D01*
X008389Y014136D01*
X008638Y014136D01*
X008638Y014303D01*
X008628Y014339D01*
X008617Y014357D01*
X008628Y014376D01*
X008638Y014412D01*
X008638Y014578D01*
X008389Y014578D01*
X008389Y014290D01*
X008389Y014137D01*
X008331Y014137D01*
X008331Y014290D01*
X008331Y014578D01*
X008389Y014578D01*
X008389Y014636D01*
X008638Y014636D01*
X008638Y014803D01*
X008628Y014839D01*
X008617Y014857D01*
X008628Y014876D01*
X008638Y014912D01*
X008638Y015078D01*
X008389Y015078D01*
X008389Y014790D01*
X008389Y014637D01*
X008331Y014637D01*
X008331Y014925D01*
X008331Y015078D01*
X008389Y015078D01*
X008389Y015136D01*
X008638Y015136D01*
X008638Y015303D01*
X008628Y015339D01*
X008617Y015357D01*
X008628Y015376D01*
X008638Y015412D01*
X008638Y015578D01*
X008389Y015578D01*
X008389Y015290D01*
X008389Y015137D01*
X008331Y015137D01*
X008331Y015290D01*
X008331Y015578D01*
X008389Y015578D01*
X008389Y015636D01*
X008638Y015636D01*
X008638Y015803D01*
X008628Y015839D01*
X008864Y015839D01*
X008864Y015909D02*
X008864Y015225D01*
X008859Y015224D01*
X008788Y015152D01*
X008749Y015058D01*
X008749Y014957D01*
X008788Y014863D01*
X008859Y014791D01*
X008953Y014752D01*
X009055Y014752D01*
X009148Y014791D01*
X009220Y014863D01*
X009259Y014957D01*
X009259Y015058D01*
X009220Y015152D01*
X009148Y015224D01*
X009144Y015225D01*
X009144Y015909D01*
X009148Y015911D01*
X009220Y015983D01*
X009259Y016077D01*
X009259Y016178D01*
X009220Y016272D01*
X009148Y016344D01*
X009055Y016382D01*
X008953Y016382D01*
X008859Y016344D01*
X008788Y016272D01*
X008749Y016178D01*
X008749Y016077D01*
X008788Y015983D01*
X008859Y015911D01*
X008864Y015909D01*
X008853Y015917D02*
X008598Y015917D01*
X008598Y015889D02*
X008598Y016326D01*
X008566Y016357D01*
X008598Y016389D01*
X008598Y016427D01*
X009623Y016427D01*
X009659Y016391D01*
X009753Y016352D01*
X009855Y016352D01*
X009948Y016391D01*
X010020Y016463D01*
X010059Y016557D01*
X010059Y016658D01*
X010020Y016752D01*
X009948Y016824D01*
X009855Y016862D01*
X009753Y016862D01*
X009659Y016824D01*
X009623Y016787D01*
X008598Y016787D01*
X008598Y016826D01*
X008594Y016829D01*
X008610Y016844D01*
X008628Y016876D01*
X008638Y016912D01*
X008638Y017078D01*
X008389Y017078D01*
X008389Y017136D01*
X008638Y017136D01*
X008638Y017303D01*
X008628Y017339D01*
X008610Y017371D01*
X008584Y017397D01*
X008552Y017415D01*
X008516Y017425D01*
X008389Y017425D01*
X008389Y017137D01*
X008331Y017137D01*
X008331Y017425D01*
X008204Y017425D01*
X008168Y017415D01*
X008136Y017397D01*
X008110Y017371D01*
X008092Y017339D01*
X008086Y017317D01*
X008086Y017326D01*
X008027Y017385D01*
X007866Y017385D01*
X007777Y017474D01*
X007825Y017589D01*
X007825Y017768D01*
X007756Y017933D01*
X007630Y018060D01*
X007464Y018128D01*
X007285Y018128D01*
X007120Y018060D01*
X006993Y017933D01*
X006925Y017768D01*
X006925Y017589D01*
X006943Y017544D01*
X006644Y017245D01*
X006644Y017949D01*
X006962Y018267D01*
X008546Y018267D01*
X009964Y016849D01*
X010046Y016767D01*
X018546Y016767D01*
X018664Y016649D01*
X018746Y016567D01*
X018914Y016567D01*
X018934Y016547D01*
X018846Y016547D01*
X018764Y016465D01*
X018727Y016429D01*
X012034Y016429D01*
X011953Y016347D01*
X008638Y013032D01*
X008638Y013078D01*
X008389Y013078D01*
X008389Y012790D01*
X008396Y012790D01*
X007988Y012382D01*
X007988Y012417D01*
X007988Y012830D01*
X008027Y012830D01*
X008086Y012889D01*
X008086Y012898D01*
X008092Y012876D01*
X008110Y012844D01*
X008136Y012818D01*
X008168Y012800D01*
X008204Y012790D01*
X008331Y012790D01*
X008331Y013078D01*
X008389Y013078D01*
X008389Y013136D01*
X008638Y013136D01*
X008638Y013303D01*
X008628Y013339D01*
X008617Y013357D01*
X008628Y013376D01*
X008638Y013412D01*
X008638Y013578D01*
X008389Y013578D01*
X008389Y013639D02*
X008331Y013639D01*
X008331Y013718D02*
X008389Y013718D01*
X008389Y013797D02*
X008331Y013797D01*
X008331Y013875D02*
X008389Y013875D01*
X008389Y013954D02*
X008331Y013954D01*
X008331Y014032D02*
X008389Y014032D01*
X008389Y014111D02*
X009716Y014111D01*
X009638Y014032D02*
X008638Y014032D01*
X008638Y013954D02*
X009559Y013954D01*
X009481Y013875D02*
X008627Y013875D01*
X008638Y013797D02*
X009402Y013797D01*
X009324Y013718D02*
X008638Y013718D01*
X008638Y013639D02*
X009245Y013639D01*
X009167Y013561D02*
X008638Y013561D01*
X008638Y013482D02*
X009088Y013482D01*
X009010Y013404D02*
X008635Y013404D01*
X008632Y013325D02*
X008931Y013325D01*
X008852Y013247D02*
X008638Y013247D01*
X008638Y013168D02*
X008774Y013168D01*
X008695Y013090D02*
X008389Y013090D01*
X008389Y013168D02*
X008331Y013168D01*
X008331Y013247D02*
X008389Y013247D01*
X008389Y013325D02*
X008331Y013325D01*
X008331Y013404D02*
X008389Y013404D01*
X008389Y013482D02*
X008331Y013482D01*
X008331Y013011D02*
X008389Y013011D01*
X008389Y012933D02*
X008331Y012933D01*
X008331Y012854D02*
X008389Y012854D01*
X008381Y012776D02*
X007988Y012776D01*
X007988Y012697D02*
X008303Y012697D01*
X008224Y012618D02*
X007988Y012618D01*
X007988Y012540D02*
X008146Y012540D01*
X008067Y012461D02*
X007988Y012461D01*
X007988Y012383D02*
X007988Y012383D01*
X007708Y012461D02*
X006356Y012461D01*
X006277Y012383D02*
X007674Y012383D01*
X007596Y012304D02*
X006199Y012304D01*
X006120Y012226D02*
X007517Y012226D01*
X007438Y012147D02*
X006042Y012147D01*
X005963Y012069D02*
X007360Y012069D01*
X007281Y011990D02*
X005885Y011990D01*
X005806Y011912D02*
X007203Y011912D01*
X007124Y011833D02*
X005728Y011833D01*
X005649Y011754D02*
X006037Y011754D01*
X006053Y011770D02*
X005958Y011675D01*
X005906Y011551D01*
X005906Y011416D01*
X005958Y011292D01*
X006053Y011197D01*
X006177Y011146D01*
X006311Y011146D01*
X006435Y011197D01*
X006530Y011292D01*
X006581Y011416D01*
X006581Y011551D01*
X006530Y011675D01*
X006435Y011770D01*
X006311Y011821D01*
X006177Y011821D01*
X006053Y011770D01*
X005959Y011676D02*
X005570Y011676D01*
X005492Y011597D02*
X005926Y011597D01*
X005906Y011519D02*
X005413Y011519D01*
X005335Y011440D02*
X005906Y011440D01*
X005929Y011362D02*
X005256Y011362D01*
X005178Y011283D02*
X005967Y011283D01*
X006045Y011205D02*
X005099Y011205D01*
X005021Y011126D02*
X006417Y011126D01*
X006443Y011205D02*
X006496Y011205D01*
X006521Y011283D02*
X006574Y011283D01*
X006559Y011362D02*
X006653Y011362D01*
X006581Y011440D02*
X006732Y011440D01*
X006810Y011519D02*
X006581Y011519D01*
X006562Y011597D02*
X006889Y011597D01*
X006967Y011676D02*
X006529Y011676D01*
X006450Y011754D02*
X007046Y011754D01*
X006339Y011048D02*
X004942Y011048D01*
X004864Y010969D02*
X006260Y010969D01*
X006182Y010890D02*
X004785Y010890D01*
X004706Y010812D02*
X006103Y010812D01*
X006025Y010733D02*
X004628Y010733D01*
X004497Y010800D02*
X007004Y013307D01*
X007004Y013707D01*
X007404Y014107D01*
X007848Y014107D01*
X008331Y014189D02*
X008389Y014189D01*
X008389Y014268D02*
X008331Y014268D01*
X008331Y014346D02*
X008389Y014346D01*
X008389Y014425D02*
X008331Y014425D01*
X008331Y014503D02*
X008389Y014503D01*
X008389Y014582D02*
X010188Y014582D01*
X010266Y014661D02*
X008638Y014661D01*
X008638Y014739D02*
X010345Y014739D01*
X010423Y014818D02*
X009175Y014818D01*
X009234Y014896D02*
X010502Y014896D01*
X010580Y014975D02*
X009259Y014975D01*
X009259Y015053D02*
X010659Y015053D01*
X010737Y015132D02*
X009228Y015132D01*
X009162Y015210D02*
X010816Y015210D01*
X010895Y015289D02*
X009144Y015289D01*
X009144Y015367D02*
X010973Y015367D01*
X011052Y015446D02*
X009144Y015446D01*
X009144Y015525D02*
X011130Y015525D01*
X011209Y015603D02*
X009144Y015603D01*
X009144Y015682D02*
X011287Y015682D01*
X011366Y015760D02*
X009144Y015760D01*
X009144Y015839D02*
X011444Y015839D01*
X011523Y015917D02*
X009154Y015917D01*
X009225Y015996D02*
X011601Y015996D01*
X011680Y016074D02*
X009258Y016074D01*
X009259Y016153D02*
X011759Y016153D01*
X011837Y016231D02*
X009237Y016231D01*
X009182Y016310D02*
X011916Y016310D01*
X011994Y016389D02*
X009942Y016389D01*
X010022Y016467D02*
X018766Y016467D01*
X018844Y016546D02*
X010054Y016546D01*
X010059Y016624D02*
X018689Y016624D01*
X018664Y016649D02*
X018664Y016649D01*
X018611Y016703D02*
X010040Y016703D01*
X010032Y016781D02*
X009991Y016781D01*
X009954Y016860D02*
X009861Y016860D01*
X009875Y016938D02*
X008638Y016938D01*
X008638Y017017D02*
X009796Y017017D01*
X009718Y017095D02*
X008389Y017095D01*
X008389Y017174D02*
X008331Y017174D01*
X008331Y017252D02*
X008389Y017252D01*
X008389Y017331D02*
X008331Y017331D01*
X008331Y017410D02*
X008389Y017410D01*
X008561Y017410D02*
X009404Y017410D01*
X009325Y017488D02*
X007783Y017488D01*
X007816Y017567D02*
X009247Y017567D01*
X009168Y017645D02*
X007825Y017645D01*
X007825Y017724D02*
X009090Y017724D01*
X009011Y017802D02*
X007810Y017802D01*
X007778Y017881D02*
X008932Y017881D01*
X008854Y017959D02*
X007730Y017959D01*
X007651Y018038D02*
X008775Y018038D01*
X008697Y018116D02*
X007492Y018116D01*
X007257Y018116D02*
X006811Y018116D01*
X006732Y018038D02*
X007098Y018038D01*
X007020Y017959D02*
X006654Y017959D01*
X006644Y017881D02*
X006972Y017881D01*
X006939Y017802D02*
X006644Y017802D01*
X006644Y017724D02*
X006925Y017724D01*
X006925Y017645D02*
X006644Y017645D01*
X006644Y017567D02*
X006934Y017567D01*
X006887Y017488D02*
X006644Y017488D01*
X006644Y017410D02*
X006808Y017410D01*
X006730Y017331D02*
X006644Y017331D01*
X006644Y017252D02*
X006651Y017252D01*
X006504Y017207D02*
X006504Y018007D01*
X006904Y018407D01*
X008604Y018407D01*
X010104Y016907D01*
X018604Y016907D01*
X018804Y016707D01*
X019290Y016707D01*
X019293Y016704D01*
X019275Y016407D02*
X019293Y016389D01*
X019275Y016407D02*
X018904Y016407D01*
X018785Y016289D01*
X012093Y016289D01*
X005611Y009807D01*
X005604Y009807D01*
X005604Y008700D01*
X005583Y008679D01*
X005921Y009005D02*
X006064Y009005D01*
X006064Y008927D02*
X005989Y008927D01*
X006021Y008848D02*
X006064Y008848D01*
X006052Y008770D02*
X006064Y008770D01*
X006052Y008691D02*
X006064Y008691D01*
X006052Y008613D02*
X006064Y008613D01*
X006064Y008534D02*
X006031Y008534D01*
X005999Y008456D02*
X006064Y008456D01*
X006040Y008377D02*
X005945Y008377D01*
X005833Y009084D02*
X006064Y009084D01*
X006064Y009163D02*
X005744Y009163D01*
X005744Y009241D02*
X006064Y009241D01*
X006064Y009320D02*
X005744Y009320D01*
X005744Y009398D02*
X006064Y009398D01*
X006064Y009477D02*
X005744Y009477D01*
X005744Y009555D02*
X006064Y009555D01*
X006064Y009634D02*
X005744Y009634D01*
X005744Y009712D02*
X006064Y009712D01*
X006064Y009791D02*
X005792Y009791D01*
X005871Y009869D02*
X006064Y009869D01*
X006064Y009948D02*
X005950Y009948D01*
X006028Y010026D02*
X006064Y010026D01*
X005582Y010093D02*
X004168Y010093D01*
X003830Y010419D02*
X003745Y010419D01*
X003762Y010341D02*
X003580Y010341D01*
X003730Y010262D02*
X002701Y010262D01*
X002660Y010341D02*
X003342Y010341D01*
X003177Y010419D02*
X002619Y010419D01*
X002579Y010498D02*
X003099Y010498D01*
X003045Y010576D02*
X002549Y010576D01*
X002519Y010655D02*
X003013Y010655D01*
X002991Y010733D02*
X002489Y010733D01*
X002459Y010812D02*
X002991Y010812D01*
X002991Y010890D02*
X002430Y010890D01*
X002400Y010969D02*
X003022Y010969D01*
X003055Y011048D02*
X002872Y011048D01*
X003037Y011126D02*
X003122Y011126D01*
X003116Y011205D02*
X003209Y011205D01*
X003170Y011283D02*
X004782Y011283D01*
X004860Y011362D02*
X003202Y011362D01*
X003304Y011507D02*
X002754Y011507D01*
X003193Y011676D02*
X003274Y011676D01*
X003353Y011754D02*
X003160Y011754D01*
X003093Y011833D02*
X003432Y011833D01*
X003510Y011912D02*
X003006Y011912D01*
X002923Y012069D02*
X003667Y012069D01*
X003746Y012147D02*
X003058Y012147D01*
X003137Y012226D02*
X003824Y012226D01*
X003903Y012304D02*
X003179Y012304D01*
X003320Y012383D02*
X003981Y012383D01*
X004060Y012461D02*
X003398Y012461D01*
X003477Y012540D02*
X004138Y012540D01*
X004217Y012618D02*
X003555Y012618D01*
X003634Y012697D02*
X004296Y012697D01*
X004374Y012776D02*
X003712Y012776D01*
X003791Y012854D02*
X004453Y012854D01*
X004531Y012933D02*
X003870Y012933D01*
X003948Y013011D02*
X004610Y013011D01*
X004688Y013090D02*
X004027Y013090D01*
X004105Y013168D02*
X004767Y013168D01*
X004845Y013247D02*
X004184Y013247D01*
X004262Y013325D02*
X004924Y013325D01*
X005002Y013404D02*
X004341Y013404D01*
X004419Y013482D02*
X005081Y013482D01*
X005159Y013561D02*
X004498Y013561D01*
X004576Y013639D02*
X005238Y013639D01*
X005317Y013718D02*
X004655Y013718D01*
X004734Y013797D02*
X005395Y013797D01*
X005474Y013875D02*
X004812Y013875D01*
X004891Y013954D02*
X005552Y013954D01*
X005631Y014032D02*
X004969Y014032D01*
X005048Y014111D02*
X005709Y014111D01*
X005788Y014189D02*
X005126Y014189D01*
X005205Y014268D02*
X005866Y014268D01*
X005945Y014346D02*
X005283Y014346D01*
X005362Y014425D02*
X006023Y014425D01*
X006102Y014503D02*
X005877Y014503D01*
X005957Y014582D02*
X006181Y014582D01*
X006259Y014661D02*
X006019Y014661D01*
X006051Y014739D02*
X006338Y014739D01*
X006404Y014607D02*
X007404Y014607D01*
X007848Y014607D01*
X008331Y014661D02*
X008389Y014661D01*
X008389Y014739D02*
X008331Y014739D01*
X008331Y014818D02*
X008389Y014818D01*
X008389Y014896D02*
X008331Y014896D01*
X008331Y014975D02*
X008389Y014975D01*
X008389Y015053D02*
X008331Y015053D01*
X008389Y015132D02*
X008779Y015132D01*
X008749Y015053D02*
X008638Y015053D01*
X008638Y014975D02*
X008749Y014975D01*
X008774Y014896D02*
X008633Y014896D01*
X008634Y014818D02*
X008833Y014818D01*
X009004Y015007D02*
X009004Y016127D01*
X008826Y016310D02*
X008598Y016310D01*
X008597Y016389D02*
X009666Y016389D01*
X009747Y016860D02*
X008619Y016860D01*
X008638Y017174D02*
X009639Y017174D01*
X009561Y017252D02*
X008638Y017252D01*
X008630Y017331D02*
X009482Y017331D01*
X010204Y017107D02*
X018704Y017107D01*
X018804Y017007D01*
X019282Y017007D01*
X019293Y017019D01*
X019293Y017334D02*
X010270Y017334D01*
X007975Y019629D01*
X004875Y019629D01*
X004440Y019452D02*
X003068Y019452D01*
X003109Y019530D02*
X004407Y019530D01*
X004405Y019609D02*
X003157Y019609D01*
X003211Y019687D02*
X004405Y019687D01*
X004424Y019766D02*
X003266Y019766D01*
X003320Y019844D02*
X004456Y019844D01*
X004505Y019923D02*
X003374Y019923D01*
X003428Y020001D02*
X004584Y020001D01*
X004737Y020080D02*
X003482Y020080D01*
X003537Y020159D02*
X005147Y020159D01*
X005115Y020237D02*
X003591Y020237D01*
X003645Y020316D02*
X005113Y020316D01*
X005113Y020394D02*
X003699Y020394D01*
X003753Y020473D02*
X005131Y020473D01*
X005163Y020551D02*
X003810Y020551D01*
X003879Y020630D02*
X005212Y020630D01*
X005290Y020708D02*
X003949Y020708D01*
X004018Y020787D02*
X005444Y020787D01*
X005721Y020787D02*
X005887Y020787D01*
X005891Y020777D02*
X006023Y020644D01*
X006196Y020573D01*
X006383Y020573D01*
X006556Y020644D01*
X006688Y020777D01*
X006760Y020949D01*
X006760Y021136D01*
X006688Y021309D01*
X006556Y021441D01*
X006383Y021513D01*
X006196Y021513D01*
X006023Y021441D01*
X005891Y021309D01*
X005820Y021136D01*
X005820Y020949D01*
X005891Y020777D01*
X005875Y020708D02*
X005959Y020708D01*
X005953Y020630D02*
X006058Y020630D01*
X006002Y020551D02*
X008120Y020551D01*
X008127Y020569D02*
X008068Y020426D01*
X008068Y020273D01*
X008127Y020130D01*
X008236Y020022D01*
X008378Y019963D01*
X008532Y019963D01*
X008674Y020022D01*
X008783Y020130D01*
X008842Y020273D01*
X008842Y020426D01*
X008783Y020569D01*
X008674Y020677D01*
X008532Y020736D01*
X008378Y020736D01*
X008236Y020677D01*
X008127Y020569D01*
X008188Y020630D02*
X006521Y020630D01*
X006620Y020708D02*
X008310Y020708D01*
X008599Y020708D02*
X012291Y020708D01*
X012369Y020630D02*
X008721Y020630D01*
X008790Y020551D02*
X012448Y020551D01*
X012526Y020473D02*
X008822Y020473D01*
X008842Y020394D02*
X012605Y020394D01*
X012684Y020316D02*
X008842Y020316D01*
X008827Y020237D02*
X012762Y020237D01*
X012841Y020159D02*
X008794Y020159D01*
X008732Y020080D02*
X014719Y020080D01*
X014798Y020001D02*
X008625Y020001D01*
X008284Y020001D02*
X008115Y020001D01*
X008177Y020080D02*
X008036Y020080D01*
X007958Y020159D02*
X008115Y020159D01*
X008083Y020237D02*
X007879Y020237D01*
X007801Y020316D02*
X008068Y020316D01*
X008068Y020394D02*
X007722Y020394D01*
X007611Y020307D02*
X010370Y017549D01*
X018725Y017549D01*
X018825Y017649D01*
X019293Y017649D01*
X019293Y017964D02*
X016648Y017964D01*
X016604Y018007D01*
X016554Y018057D02*
X016504Y018107D01*
X015960Y018107D01*
X015722Y018116D02*
X015686Y018116D01*
X015686Y018038D02*
X015722Y018038D01*
X015722Y017959D02*
X015686Y017959D01*
X015686Y017889D02*
X015627Y017830D01*
X015269Y017830D01*
X015210Y017889D01*
X015210Y017927D01*
X014285Y017927D01*
X014248Y017891D01*
X014155Y017852D01*
X014053Y017852D01*
X013959Y017891D01*
X013888Y017963D01*
X013849Y018057D01*
X013849Y018158D01*
X013888Y018252D01*
X013959Y018324D01*
X014053Y018362D01*
X014155Y018362D01*
X014248Y018324D01*
X014285Y018287D01*
X015210Y018287D01*
X015210Y018326D01*
X015242Y018357D01*
X015210Y018389D01*
X015210Y018826D01*
X015269Y018885D01*
X015627Y018885D01*
X015686Y018826D01*
X015686Y018389D01*
X015654Y018357D01*
X015686Y018326D01*
X015686Y017889D01*
X015678Y017881D02*
X015730Y017881D01*
X015722Y018195D02*
X015686Y018195D01*
X015686Y018274D02*
X015722Y018274D01*
X015748Y018352D02*
X015660Y018352D01*
X015686Y018431D02*
X015722Y018431D01*
X015722Y018509D02*
X015686Y018509D01*
X015686Y018588D02*
X015722Y018588D01*
X015722Y018666D02*
X015686Y018666D01*
X015686Y018745D02*
X015722Y018745D01*
X015722Y018823D02*
X015686Y018823D01*
X015854Y018902D02*
X009214Y018902D01*
X009136Y018980D02*
X015854Y018980D01*
X015854Y019059D02*
X009057Y019059D01*
X008979Y019138D02*
X015854Y019138D01*
X015854Y019216D02*
X008900Y019216D01*
X008822Y019295D02*
X015356Y019295D01*
X015284Y019373D02*
X008743Y019373D01*
X008665Y019452D02*
X015251Y019452D01*
X015249Y019530D02*
X008586Y019530D01*
X008507Y019609D02*
X015190Y019609D01*
X015112Y019687D02*
X008429Y019687D01*
X008350Y019766D02*
X015033Y019766D01*
X014955Y019844D02*
X008272Y019844D01*
X008193Y019923D02*
X014876Y019923D01*
X015065Y020159D02*
X015241Y020159D01*
X015162Y020237D02*
X014986Y020237D01*
X014908Y020316D02*
X015084Y020316D01*
X015143Y020080D02*
X015319Y020080D01*
X015398Y020001D02*
X015222Y020001D01*
X015300Y019923D02*
X015476Y019923D01*
X015555Y019844D02*
X015379Y019844D01*
X015458Y019766D02*
X015633Y019766D01*
X015685Y019687D02*
X015712Y019687D01*
X015738Y019609D02*
X015790Y019609D01*
X015759Y019530D02*
X015854Y019530D01*
X015854Y019452D02*
X015757Y019452D01*
X015724Y019373D02*
X015854Y019373D01*
X015854Y019295D02*
X015652Y019295D01*
X016154Y019295D02*
X020574Y019295D01*
X020631Y019373D02*
X016154Y019373D01*
X016154Y019452D02*
X020737Y019452D01*
X020845Y019530D02*
X016154Y019530D01*
X016154Y019609D02*
X020962Y019609D01*
X021204Y019687D02*
X016136Y019687D01*
X016058Y019766D02*
X023231Y019766D01*
X023411Y019844D02*
X015979Y019844D01*
X015900Y019923D02*
X023519Y019923D01*
X023595Y020001D02*
X023271Y020001D01*
X023319Y020022D02*
X023428Y020130D01*
X023487Y020273D01*
X023487Y020426D01*
X023428Y020569D01*
X023319Y020677D01*
X023177Y020736D01*
X023023Y020736D01*
X022881Y020677D01*
X022772Y020569D01*
X022714Y020426D01*
X022714Y020273D01*
X022772Y020130D01*
X022881Y020022D01*
X023023Y019963D01*
X023177Y019963D01*
X023319Y020022D01*
X023378Y020080D02*
X023652Y020080D01*
X023706Y020159D02*
X023440Y020159D01*
X023473Y020237D02*
X023731Y020237D01*
X023757Y020316D02*
X023487Y020316D01*
X023487Y020394D02*
X023780Y020394D01*
X023786Y020473D02*
X023468Y020473D01*
X023436Y020551D02*
X023789Y020551D01*
X023789Y020630D02*
X023367Y020630D01*
X023245Y020708D02*
X023789Y020708D01*
X023789Y020787D02*
X012936Y020787D01*
X012858Y020865D02*
X023789Y020865D01*
X023789Y020944D02*
X015979Y020944D01*
X015978Y020943D02*
X016004Y020969D01*
X016022Y021001D01*
X016032Y021036D01*
X016032Y021123D01*
X015656Y021123D01*
X015656Y021124D01*
X016032Y021124D01*
X016032Y021211D01*
X016022Y021246D01*
X016019Y021251D01*
X016022Y021256D01*
X016032Y021292D01*
X016032Y021379D01*
X015656Y021379D01*
X015656Y021380D01*
X015655Y021380D01*
X015655Y021588D01*
X015655Y021635D01*
X015279Y021635D01*
X015279Y021548D01*
X015289Y021512D01*
X015292Y021507D01*
X015289Y021502D01*
X015279Y021467D01*
X015279Y021380D01*
X015655Y021380D01*
X015655Y021379D01*
X015279Y021379D01*
X015279Y021292D01*
X015289Y021256D01*
X015292Y021251D01*
X015289Y021246D01*
X015279Y021211D01*
X015279Y021124D01*
X015655Y021124D01*
X015655Y021332D01*
X015655Y021379D01*
X015656Y021379D01*
X015656Y021332D01*
X015656Y021124D01*
X015655Y021124D01*
X015655Y021123D01*
X015656Y021123D01*
X015656Y020915D01*
X015910Y020915D01*
X015946Y020924D01*
X015978Y020943D01*
X016028Y021023D02*
X023788Y021023D01*
X023784Y021101D02*
X016032Y021101D01*
X016032Y021180D02*
X023780Y021180D01*
X023777Y021258D02*
X016023Y021258D01*
X016032Y021337D02*
X023772Y021337D01*
X023756Y021415D02*
X016032Y021415D01*
X016032Y021380D02*
X016032Y021467D01*
X016022Y021502D01*
X016019Y021507D01*
X016022Y021512D01*
X016032Y021548D01*
X016032Y021635D01*
X015656Y021635D01*
X015656Y021636D01*
X015655Y021636D01*
X015655Y021844D01*
X015655Y021891D01*
X015279Y021891D01*
X015279Y021804D01*
X015289Y021768D01*
X015292Y021763D01*
X015289Y021758D01*
X015279Y021723D01*
X015279Y021636D01*
X015655Y021636D01*
X015655Y021635D01*
X015656Y021635D01*
X015656Y021588D01*
X015656Y021380D01*
X016032Y021380D01*
X016024Y021494D02*
X023740Y021494D01*
X023725Y021572D02*
X016032Y021572D01*
X016032Y021636D02*
X016032Y021723D01*
X016022Y021758D01*
X016019Y021763D01*
X016022Y021768D01*
X016032Y021804D01*
X016032Y021891D01*
X015656Y021891D01*
X015656Y021891D01*
X015656Y021844D01*
X015656Y021636D01*
X016032Y021636D01*
X016032Y021651D02*
X023709Y021651D01*
X023694Y021729D02*
X016030Y021729D01*
X016032Y021808D02*
X023678Y021808D01*
X023662Y021887D02*
X016032Y021887D01*
X016032Y021891D02*
X016032Y021979D01*
X016022Y022014D01*
X016004Y022046D01*
X015978Y022072D01*
X015946Y022091D01*
X015910Y022100D01*
X015656Y022100D01*
X015656Y021892D01*
X015655Y021892D01*
X015655Y022100D01*
X015401Y022100D01*
X015365Y022091D01*
X015333Y022072D01*
X015307Y022046D01*
X015289Y022014D01*
X015279Y021979D01*
X015279Y021891D01*
X015655Y021891D01*
X015655Y021891D01*
X015656Y021891D01*
X016032Y021891D01*
X016032Y021965D02*
X023646Y021965D01*
X023613Y022044D02*
X016005Y022044D01*
X015656Y022044D02*
X015655Y022044D01*
X015655Y021965D02*
X015656Y021965D01*
X015655Y021887D02*
X015656Y021887D01*
X015655Y021808D02*
X015656Y021808D01*
X015655Y021729D02*
X015656Y021729D01*
X015655Y021651D02*
X015656Y021651D01*
X015655Y021572D02*
X015656Y021572D01*
X015655Y021494D02*
X015656Y021494D01*
X015655Y021415D02*
X015656Y021415D01*
X015655Y021337D02*
X015656Y021337D01*
X015655Y021258D02*
X015656Y021258D01*
X015655Y021180D02*
X015656Y021180D01*
X015655Y021123D02*
X015279Y021123D01*
X015279Y021036D01*
X015289Y021001D01*
X015307Y020969D01*
X015333Y020943D01*
X015365Y020924D01*
X015401Y020915D01*
X015655Y020915D01*
X015655Y021123D01*
X015655Y021101D02*
X015656Y021101D01*
X015655Y021023D02*
X015656Y021023D01*
X015655Y020944D02*
X015656Y020944D01*
X015332Y020944D02*
X012779Y020944D01*
X012701Y021023D02*
X012877Y021023D01*
X012926Y020974D02*
X013050Y020974D01*
X013056Y020974D01*
X013075Y020955D01*
X013630Y020955D01*
X013689Y021013D01*
X013689Y021234D01*
X013671Y021251D01*
X013689Y021269D01*
X013689Y021468D01*
X013701Y021480D01*
X013719Y021512D01*
X013729Y021548D01*
X013729Y021635D01*
X013353Y021635D01*
X013353Y021636D01*
X013729Y021636D01*
X013729Y021723D01*
X013724Y021741D01*
X013921Y021741D01*
X013987Y021675D01*
X014081Y021636D01*
X014183Y021636D01*
X014276Y021675D01*
X014348Y021747D01*
X014387Y021841D01*
X014387Y021934D01*
X014683Y022230D01*
X014927Y022230D01*
X014986Y022289D01*
X014986Y022298D01*
X014992Y022276D01*
X015010Y022244D01*
X015036Y022218D01*
X015068Y022200D01*
X015104Y022190D01*
X015231Y022190D01*
X015231Y022478D01*
X015289Y022478D01*
X015289Y022190D01*
X015416Y022190D01*
X015452Y022200D01*
X015484Y022218D01*
X015510Y022244D01*
X015528Y022276D01*
X015538Y022312D01*
X015538Y022478D01*
X015289Y022478D01*
X015289Y022536D01*
X015538Y022536D01*
X015538Y022703D01*
X015528Y022739D01*
X015510Y022771D01*
X015484Y022797D01*
X015452Y022815D01*
X015416Y022825D01*
X015289Y022825D01*
X015289Y022537D01*
X015231Y022537D01*
X015231Y022825D01*
X015104Y022825D01*
X015068Y022815D01*
X015036Y022797D01*
X015010Y022771D01*
X014992Y022739D01*
X014986Y022717D01*
X014986Y022726D01*
X014927Y022785D01*
X014569Y022785D01*
X014510Y022726D01*
X014510Y022482D01*
X014175Y022146D01*
X014081Y022146D01*
X013987Y022107D01*
X013921Y022041D01*
X013649Y022041D01*
X013630Y022060D01*
X013075Y022060D01*
X013016Y022002D01*
X013016Y021802D01*
X013004Y021790D01*
X012986Y021758D01*
X012976Y021723D01*
X012976Y021647D01*
X012554Y022070D01*
X012554Y022715D01*
X012677Y022766D01*
X012809Y022898D01*
X012881Y023071D01*
X012881Y023258D01*
X012809Y023430D01*
X012677Y023563D01*
X012504Y023634D01*
X012317Y023634D01*
X012145Y023563D01*
X012012Y023430D01*
X011941Y023258D01*
X011941Y023071D01*
X012012Y022898D01*
X012145Y022766D01*
X012254Y022720D01*
X012254Y022069D01*
X011593Y022731D01*
X011677Y022766D01*
X011809Y022898D01*
X011881Y023071D01*
X011881Y023258D01*
X011809Y023430D01*
X011677Y023563D01*
X011504Y023634D01*
X011317Y023634D01*
X011145Y023563D01*
X011012Y023430D01*
X010941Y023258D01*
X010941Y023071D01*
X011012Y022898D01*
X011145Y022766D01*
X011254Y022720D01*
X011254Y022645D01*
X011342Y022557D01*
X012926Y020974D01*
X012798Y021101D02*
X012622Y021101D01*
X012544Y021180D02*
X012720Y021180D01*
X012641Y021258D02*
X012465Y021258D01*
X012387Y021337D02*
X012562Y021337D01*
X012484Y021415D02*
X012308Y021415D01*
X012230Y021494D02*
X012405Y021494D01*
X012327Y021572D02*
X012151Y021572D01*
X012073Y021651D02*
X012248Y021651D01*
X012170Y021729D02*
X011994Y021729D01*
X011915Y021808D02*
X012091Y021808D01*
X012013Y021887D02*
X011837Y021887D01*
X011758Y021965D02*
X011934Y021965D01*
X011856Y022044D02*
X011680Y022044D01*
X011601Y022122D02*
X011777Y022122D01*
X011698Y022201D02*
X011523Y022201D01*
X011444Y022279D02*
X011620Y022279D01*
X011541Y022358D02*
X011366Y022358D01*
X011287Y022436D02*
X011463Y022436D01*
X011384Y022515D02*
X011209Y022515D01*
X011130Y022593D02*
X011306Y022593D01*
X011254Y022672D02*
X011051Y022672D01*
X010973Y022751D02*
X011181Y022751D01*
X011081Y022829D02*
X010894Y022829D01*
X010816Y022908D02*
X011008Y022908D01*
X010976Y022986D02*
X010846Y022986D01*
X010878Y023065D02*
X010943Y023065D01*
X010941Y023143D02*
X010881Y023143D01*
X010881Y023222D02*
X010941Y023222D01*
X010959Y023300D02*
X010863Y023300D01*
X010831Y023379D02*
X010991Y023379D01*
X011039Y023457D02*
X010782Y023457D01*
X010704Y023536D02*
X011118Y023536D01*
X011270Y023614D02*
X010552Y023614D01*
X010270Y023614D02*
X009552Y023614D01*
X009704Y023536D02*
X010118Y023536D01*
X010039Y023457D02*
X009782Y023457D01*
X009831Y023379D02*
X009991Y023379D01*
X009959Y023300D02*
X009863Y023300D01*
X009881Y023222D02*
X009941Y023222D01*
X009941Y023143D02*
X009881Y023143D01*
X009878Y023065D02*
X009943Y023065D01*
X009976Y022986D02*
X009846Y022986D01*
X009816Y022908D02*
X010008Y022908D01*
X010081Y022829D02*
X009894Y022829D01*
X009973Y022751D02*
X010181Y022751D01*
X010051Y022672D02*
X010627Y022672D01*
X010720Y022279D02*
X008139Y022279D01*
X008106Y022201D02*
X010798Y022201D01*
X010877Y022122D02*
X008034Y022122D01*
X007970Y022059D02*
X008102Y022191D01*
X008174Y022364D01*
X008174Y022551D01*
X008102Y022723D01*
X007970Y022855D01*
X007797Y022927D01*
X007610Y022927D01*
X007438Y022855D01*
X007305Y022723D01*
X007234Y022551D01*
X007234Y022364D01*
X007305Y022191D01*
X007438Y022059D01*
X007610Y021987D01*
X007797Y021987D01*
X007970Y022059D01*
X007934Y022044D02*
X010956Y022044D01*
X011034Y021965D02*
X007416Y021965D01*
X007395Y022016D02*
X007467Y021843D01*
X007467Y021656D01*
X007395Y021484D01*
X007263Y021351D01*
X007090Y021280D01*
X006903Y021280D01*
X006730Y021351D01*
X006598Y021484D01*
X006527Y021656D01*
X006527Y021843D01*
X006598Y022016D01*
X006730Y022148D01*
X006903Y022220D01*
X007090Y022220D01*
X007263Y022148D01*
X007395Y022016D01*
X007368Y022044D02*
X007474Y022044D01*
X007374Y022122D02*
X007289Y022122D01*
X007301Y022201D02*
X007137Y022201D01*
X007269Y022279D02*
X005570Y022279D01*
X005459Y022201D02*
X006857Y022201D01*
X006704Y022122D02*
X005370Y022122D01*
X005281Y022044D02*
X006626Y022044D01*
X006577Y021965D02*
X005193Y021965D01*
X005104Y021887D02*
X006545Y021887D01*
X006527Y021808D02*
X005016Y021808D01*
X004927Y021729D02*
X006527Y021729D01*
X006529Y021651D02*
X004838Y021651D01*
X004750Y021572D02*
X006561Y021572D01*
X006594Y021494D02*
X006429Y021494D01*
X006582Y021415D02*
X006667Y021415D01*
X006660Y021337D02*
X006766Y021337D01*
X006709Y021258D02*
X011741Y021258D01*
X011820Y021180D02*
X006742Y021180D01*
X006760Y021101D02*
X011898Y021101D01*
X011977Y021023D02*
X006760Y021023D01*
X006757Y020944D02*
X012055Y020944D01*
X012134Y020865D02*
X006725Y020865D01*
X006692Y020787D02*
X012212Y020787D01*
X011662Y021337D02*
X007227Y021337D01*
X007327Y021415D02*
X011584Y021415D01*
X011505Y021494D02*
X007399Y021494D01*
X007432Y021572D02*
X011427Y021572D01*
X011348Y021651D02*
X007464Y021651D01*
X007467Y021729D02*
X011270Y021729D01*
X011191Y021808D02*
X007467Y021808D01*
X007449Y021887D02*
X011113Y021887D01*
X011809Y022515D02*
X012254Y022515D01*
X012254Y022593D02*
X011730Y022593D01*
X011651Y022672D02*
X012254Y022672D01*
X012181Y022751D02*
X011640Y022751D01*
X011740Y022829D02*
X012081Y022829D01*
X012008Y022908D02*
X011813Y022908D01*
X011846Y022986D02*
X011976Y022986D01*
X011943Y023065D02*
X011878Y023065D01*
X011881Y023143D02*
X011941Y023143D01*
X011941Y023222D02*
X011881Y023222D01*
X011863Y023300D02*
X011959Y023300D01*
X011991Y023379D02*
X011831Y023379D01*
X011782Y023457D02*
X012039Y023457D01*
X012118Y023536D02*
X011704Y023536D01*
X011552Y023614D02*
X012270Y023614D01*
X012552Y023614D02*
X013270Y023614D01*
X013317Y023634D02*
X013145Y023563D01*
X013012Y023430D01*
X012941Y023258D01*
X012941Y023071D01*
X013012Y022898D01*
X013145Y022766D01*
X013317Y022694D01*
X013504Y022694D01*
X013677Y022766D01*
X013809Y022898D01*
X013881Y023071D01*
X013881Y023258D01*
X013809Y023430D01*
X013677Y023563D01*
X013504Y023634D01*
X013317Y023634D01*
X013118Y023536D02*
X012704Y023536D01*
X012782Y023457D02*
X013039Y023457D01*
X012991Y023379D02*
X012831Y023379D01*
X012863Y023300D02*
X012959Y023300D01*
X012941Y023222D02*
X012881Y023222D01*
X012881Y023143D02*
X012941Y023143D01*
X012943Y023065D02*
X012878Y023065D01*
X012846Y022986D02*
X012976Y022986D01*
X013008Y022908D02*
X012813Y022908D01*
X012740Y022829D02*
X013081Y022829D01*
X013181Y022751D02*
X012640Y022751D01*
X012554Y022672D02*
X014510Y022672D01*
X014510Y022593D02*
X012554Y022593D01*
X012554Y022515D02*
X014510Y022515D01*
X014465Y022436D02*
X012554Y022436D01*
X012554Y022358D02*
X014386Y022358D01*
X014308Y022279D02*
X012554Y022279D01*
X012554Y022201D02*
X014229Y022201D01*
X014023Y022122D02*
X012554Y022122D01*
X012580Y022044D02*
X013058Y022044D01*
X013016Y021965D02*
X012658Y021965D01*
X012737Y021887D02*
X013016Y021887D01*
X013016Y021808D02*
X012815Y021808D01*
X012894Y021729D02*
X012978Y021729D01*
X012973Y021651D02*
X012976Y021651D01*
X013708Y021494D02*
X015287Y021494D01*
X015279Y021572D02*
X013729Y021572D01*
X013729Y021651D02*
X014046Y021651D01*
X013933Y021729D02*
X013727Y021729D01*
X013689Y021415D02*
X015279Y021415D01*
X015279Y021337D02*
X013689Y021337D01*
X013678Y021258D02*
X015288Y021258D01*
X015279Y021180D02*
X013689Y021180D01*
X013689Y021101D02*
X015279Y021101D01*
X015283Y021023D02*
X013689Y021023D01*
X013015Y020708D02*
X022956Y020708D01*
X022834Y020630D02*
X015194Y020630D01*
X015272Y020551D02*
X022765Y020551D01*
X022733Y020473D02*
X015351Y020473D01*
X015429Y020394D02*
X022714Y020394D01*
X022714Y020316D02*
X015508Y020316D01*
X015586Y020237D02*
X022728Y020237D01*
X022761Y020159D02*
X015665Y020159D01*
X015743Y020080D02*
X022823Y020080D01*
X022930Y020001D02*
X015822Y020001D01*
X016154Y019216D02*
X020517Y019216D01*
X020460Y019138D02*
X016154Y019138D01*
X016154Y019059D02*
X018928Y019059D01*
X018898Y018980D02*
X016154Y018980D01*
X016154Y018902D02*
X018898Y018902D01*
X018898Y018823D02*
X016198Y018823D01*
X016364Y018745D02*
X018929Y018745D01*
X018898Y018666D02*
X016443Y018666D01*
X016522Y018588D02*
X018898Y018588D01*
X018898Y018509D02*
X016600Y018509D01*
X016679Y018431D02*
X018930Y018431D01*
X019293Y018279D02*
X016633Y018279D01*
X016304Y018607D01*
X015960Y018607D01*
X016198Y017959D02*
X016349Y017959D01*
X016380Y017881D02*
X016190Y017881D01*
X016448Y017802D02*
X010314Y017802D01*
X010393Y017724D02*
X018702Y017724D01*
X018931Y017802D02*
X016759Y017802D01*
X015218Y017881D02*
X014223Y017881D01*
X013985Y017881D02*
X010235Y017881D01*
X010157Y017959D02*
X013891Y017959D01*
X013857Y018038D02*
X010078Y018038D01*
X010000Y018116D02*
X013849Y018116D01*
X013864Y018195D02*
X009921Y018195D01*
X009843Y018274D02*
X013909Y018274D01*
X014028Y018352D02*
X009764Y018352D01*
X009686Y018431D02*
X015210Y018431D01*
X015210Y018509D02*
X009607Y018509D01*
X009529Y018588D02*
X015210Y018588D01*
X015210Y018666D02*
X009450Y018666D01*
X009371Y018745D02*
X015210Y018745D01*
X015210Y018823D02*
X009293Y018823D01*
X008704Y018607D02*
X010204Y017107D01*
X008771Y016231D02*
X008598Y016231D01*
X008598Y016153D02*
X008749Y016153D01*
X008750Y016074D02*
X008598Y016074D01*
X008598Y015996D02*
X008782Y015996D01*
X008610Y015871D02*
X008594Y015886D01*
X008598Y015889D01*
X008610Y015871D02*
X008628Y015839D01*
X008638Y015760D02*
X008864Y015760D01*
X008864Y015682D02*
X008638Y015682D01*
X008638Y015525D02*
X008864Y015525D01*
X008864Y015603D02*
X008389Y015603D01*
X008389Y015525D02*
X008331Y015525D01*
X008331Y015446D02*
X008389Y015446D01*
X008389Y015367D02*
X008331Y015367D01*
X008331Y015289D02*
X008389Y015289D01*
X008389Y015210D02*
X008331Y015210D01*
X008638Y015210D02*
X008846Y015210D01*
X008864Y015289D02*
X008638Y015289D01*
X008623Y015367D02*
X008864Y015367D01*
X008864Y015446D02*
X008638Y015446D01*
X007848Y015607D02*
X006346Y015607D01*
X005625Y014886D01*
X003246Y012507D01*
X002754Y012507D01*
X002585Y012069D02*
X002046Y012069D01*
X002026Y012147D02*
X002450Y012147D01*
X002371Y012226D02*
X002007Y012226D01*
X001987Y012304D02*
X002329Y012304D01*
X002297Y012383D02*
X001968Y012383D01*
X001949Y012461D02*
X002284Y012461D01*
X002284Y012540D02*
X001929Y012540D01*
X001910Y012618D02*
X002291Y012618D01*
X002324Y012697D02*
X001891Y012697D01*
X001875Y012776D02*
X002357Y012776D01*
X002436Y012854D02*
X001866Y012854D01*
X001856Y012933D02*
X002552Y012933D01*
X002534Y013090D02*
X001837Y013090D01*
X001828Y013168D02*
X002429Y013168D01*
X002353Y013247D02*
X001818Y013247D01*
X001809Y013325D02*
X002321Y013325D01*
X002288Y013404D02*
X001799Y013404D01*
X001789Y013482D02*
X002284Y013482D01*
X002284Y013561D02*
X001780Y013561D01*
X001770Y013639D02*
X002300Y013639D01*
X002333Y013718D02*
X001761Y013718D01*
X001751Y013797D02*
X002379Y013797D01*
X002457Y013875D02*
X001742Y013875D01*
X001737Y013954D02*
X002603Y013954D01*
X002486Y014111D02*
X001737Y014111D01*
X001737Y014189D02*
X002407Y014189D01*
X002344Y014268D02*
X001737Y014268D01*
X001737Y014346D02*
X002312Y014346D01*
X002284Y014425D02*
X001737Y014425D01*
X001737Y014503D02*
X002284Y014503D01*
X002284Y014582D02*
X001737Y014582D01*
X001737Y014661D02*
X002309Y014661D01*
X002341Y014739D02*
X001737Y014739D01*
X001737Y014818D02*
X002400Y014818D01*
X002478Y014896D02*
X001737Y014896D01*
X001737Y014975D02*
X002654Y014975D01*
X002622Y015053D02*
X001737Y015053D01*
X001741Y015132D02*
X002465Y015132D01*
X002386Y015210D02*
X001750Y015210D01*
X001760Y015289D02*
X002336Y015289D01*
X002303Y015367D02*
X001769Y015367D01*
X001779Y015446D02*
X002284Y015446D01*
X002284Y015525D02*
X001788Y015525D01*
X001798Y015603D02*
X002285Y015603D01*
X002317Y015682D02*
X001808Y015682D01*
X001817Y015760D02*
X002350Y015760D01*
X002421Y015839D02*
X001827Y015839D01*
X001836Y015917D02*
X002515Y015917D01*
X002571Y016074D02*
X001855Y016074D01*
X001846Y015996D02*
X003833Y015996D01*
X003814Y016021D02*
X003859Y015960D01*
X004176Y016278D01*
X004233Y016221D01*
X003915Y015903D01*
X003976Y015859D01*
X004045Y015824D01*
X004118Y015800D01*
X004195Y015788D01*
X004272Y015788D01*
X004348Y015800D01*
X004421Y015824D01*
X004490Y015859D01*
X004551Y015903D01*
X004233Y016221D01*
X004290Y016278D01*
X004608Y015960D01*
X004652Y016021D01*
X004687Y016090D01*
X004711Y016163D01*
X004723Y016240D01*
X004723Y016317D01*
X004711Y016393D01*
X004687Y016466D01*
X004652Y016535D01*
X004608Y016596D01*
X004290Y016278D01*
X004233Y016335D01*
X004176Y016278D01*
X003859Y016596D01*
X003814Y016535D01*
X003779Y016466D01*
X003755Y016393D01*
X003743Y016317D01*
X003743Y016240D01*
X003755Y016163D01*
X003779Y016090D01*
X003814Y016021D01*
X003787Y016074D02*
X002937Y016074D01*
X003020Y016109D02*
X002847Y016037D01*
X002660Y016037D01*
X002488Y016109D01*
X002355Y016241D01*
X002284Y016414D01*
X002284Y016601D01*
X002355Y016774D01*
X002488Y016906D01*
X002660Y016977D01*
X002847Y016977D01*
X003020Y016906D01*
X003152Y016774D01*
X003224Y016601D01*
X003224Y016414D01*
X003152Y016241D01*
X003020Y016109D01*
X003064Y016153D02*
X003759Y016153D01*
X003744Y016231D02*
X003143Y016231D01*
X003181Y016310D02*
X003743Y016310D01*
X003755Y016389D02*
X003213Y016389D01*
X003224Y016467D02*
X003780Y016467D01*
X003822Y016546D02*
X003224Y016546D01*
X003214Y016624D02*
X003944Y016624D01*
X003915Y016653D02*
X004233Y016335D01*
X004551Y016653D01*
X004490Y016697D01*
X004421Y016732D01*
X004348Y016756D01*
X004272Y016768D01*
X004195Y016768D01*
X004118Y016756D01*
X004045Y016732D01*
X003976Y016697D01*
X003915Y016653D01*
X003987Y016703D02*
X003182Y016703D01*
X003145Y016781D02*
X004980Y016781D01*
X004988Y016763D02*
X005059Y016691D01*
X005153Y016652D01*
X005255Y016652D01*
X005348Y016691D01*
X005420Y016763D01*
X005459Y016857D01*
X005459Y016958D01*
X005420Y017052D01*
X005348Y017124D01*
X005344Y017125D01*
X005344Y017828D01*
X005344Y017944D01*
X004586Y018702D01*
X004638Y018828D01*
X004638Y019015D01*
X004567Y019188D01*
X004435Y019320D01*
X004262Y019392D01*
X004075Y019392D01*
X003902Y019320D01*
X003770Y019188D01*
X003698Y019015D01*
X003698Y018828D01*
X003770Y018655D01*
X003902Y018523D01*
X004075Y018452D01*
X004262Y018452D01*
X004388Y018504D01*
X005064Y017828D01*
X005064Y017125D01*
X005059Y017124D01*
X004988Y017052D01*
X004949Y016958D01*
X004949Y016857D01*
X004988Y016763D01*
X005048Y016703D02*
X004479Y016703D01*
X004523Y016624D02*
X005423Y016624D01*
X005360Y016703D02*
X005501Y016703D01*
X005428Y016781D02*
X005580Y016781D01*
X005658Y016860D02*
X005459Y016860D01*
X005459Y016938D02*
X005737Y016938D01*
X005815Y017017D02*
X005435Y017017D01*
X005376Y017095D02*
X005894Y017095D01*
X005973Y017174D02*
X005344Y017174D01*
X005344Y017252D02*
X006051Y017252D01*
X006130Y017331D02*
X005344Y017331D01*
X005344Y017410D02*
X006164Y017410D01*
X006164Y017488D02*
X005344Y017488D01*
X005344Y017567D02*
X006164Y017567D01*
X006164Y017645D02*
X005344Y017645D01*
X005344Y017724D02*
X006164Y017724D01*
X006164Y017802D02*
X005344Y017802D01*
X005344Y017881D02*
X006164Y017881D01*
X006164Y017959D02*
X005328Y017959D01*
X005250Y018038D02*
X006164Y018038D01*
X006164Y018116D02*
X005171Y018116D01*
X005093Y018195D02*
X006194Y018195D01*
X006272Y018274D02*
X005014Y018274D01*
X004936Y018352D02*
X006351Y018352D01*
X006429Y018431D02*
X004857Y018431D01*
X004779Y018509D02*
X006508Y018509D01*
X006586Y018588D02*
X006070Y018588D01*
X006097Y018592D02*
X006171Y018616D01*
X006239Y018651D01*
X006301Y018695D01*
X005983Y019013D01*
X006039Y019070D01*
X005983Y019127D01*
X005926Y019070D01*
X005983Y019013D01*
X005665Y018695D01*
X005726Y018651D01*
X005795Y018616D01*
X005868Y018592D01*
X005944Y018580D01*
X006021Y018580D01*
X006097Y018592D01*
X006261Y018666D02*
X006665Y018666D01*
X006743Y018745D02*
X006251Y018745D01*
X006286Y018823D02*
X006173Y018823D01*
X006207Y018902D02*
X006094Y018902D01*
X006129Y018980D02*
X006016Y018980D01*
X005950Y018980D02*
X005837Y018980D01*
X005871Y018902D02*
X005758Y018902D01*
X005793Y018823D02*
X005679Y018823D01*
X005714Y018745D02*
X004604Y018745D01*
X004622Y018666D02*
X005705Y018666D01*
X005608Y018752D02*
X005926Y019070D01*
X005608Y019388D01*
X005564Y019327D01*
X005529Y019258D01*
X005505Y019185D01*
X005493Y019109D01*
X005493Y019031D01*
X005505Y018955D01*
X005529Y018882D01*
X005564Y018813D01*
X005608Y018752D01*
X005558Y018823D02*
X004636Y018823D01*
X004638Y018902D02*
X005522Y018902D01*
X005501Y018980D02*
X004638Y018980D01*
X004620Y019059D02*
X005493Y019059D01*
X005497Y019138D02*
X004588Y019138D01*
X004538Y019216D02*
X004643Y019216D01*
X004545Y019295D02*
X004460Y019295D01*
X004472Y019373D02*
X004306Y019373D01*
X004030Y019373D02*
X003027Y019373D01*
X002986Y019295D02*
X003877Y019295D01*
X003798Y019216D02*
X002945Y019216D01*
X002903Y019138D02*
X003749Y019138D01*
X003717Y019059D02*
X002862Y019059D01*
X002821Y018980D02*
X003698Y018980D01*
X003698Y018902D02*
X002780Y018902D01*
X002738Y018823D02*
X003700Y018823D01*
X003733Y018745D02*
X002697Y018745D01*
X002656Y018666D02*
X003324Y018666D01*
X003368Y018684D02*
X003195Y018613D01*
X003063Y018481D01*
X002991Y018308D01*
X002991Y018121D01*
X003063Y017948D01*
X003195Y017816D01*
X003368Y017744D01*
X003555Y017744D01*
X003727Y017816D01*
X003860Y017948D01*
X003931Y018121D01*
X003931Y018308D01*
X003860Y018481D01*
X003727Y018613D01*
X003555Y018684D01*
X003368Y018684D01*
X003170Y018588D02*
X002615Y018588D01*
X002576Y018509D02*
X003091Y018509D01*
X003042Y018431D02*
X002546Y018431D01*
X002516Y018352D02*
X003009Y018352D01*
X002991Y018274D02*
X002486Y018274D01*
X002456Y018195D02*
X002991Y018195D01*
X002993Y018116D02*
X002427Y018116D01*
X002397Y018038D02*
X003026Y018038D01*
X003058Y017959D02*
X002891Y017959D01*
X002848Y017977D02*
X002661Y017977D01*
X002488Y017906D01*
X002356Y017774D01*
X002284Y017601D01*
X002284Y017414D01*
X002356Y017241D01*
X002488Y017109D01*
X002661Y017037D01*
X002848Y017037D01*
X003020Y017109D01*
X003152Y017241D01*
X003224Y017414D01*
X003224Y017601D01*
X003152Y017774D01*
X003020Y017906D01*
X002848Y017977D01*
X003045Y017881D02*
X003130Y017881D01*
X003124Y017802D02*
X003228Y017802D01*
X003173Y017724D02*
X005064Y017724D01*
X005064Y017802D02*
X003694Y017802D01*
X003792Y017881D02*
X005011Y017881D01*
X004932Y017959D02*
X003864Y017959D01*
X003897Y018038D02*
X004854Y018038D01*
X004775Y018116D02*
X003929Y018116D01*
X003931Y018195D02*
X004697Y018195D01*
X004618Y018274D02*
X003931Y018274D01*
X003913Y018352D02*
X004540Y018352D01*
X004461Y018431D02*
X003880Y018431D01*
X003831Y018509D02*
X003936Y018509D01*
X003837Y018588D02*
X003753Y018588D01*
X003765Y018666D02*
X003598Y018666D01*
X004168Y018922D02*
X005204Y017886D01*
X005204Y016907D01*
X004973Y017017D02*
X002063Y017017D01*
X002082Y017095D02*
X002520Y017095D01*
X002423Y017174D02*
X002102Y017174D01*
X002121Y017252D02*
X002351Y017252D01*
X002318Y017331D02*
X002140Y017331D01*
X002160Y017410D02*
X002286Y017410D01*
X002284Y017488D02*
X002188Y017488D01*
X002218Y017567D02*
X002284Y017567D01*
X002302Y017645D02*
X002248Y017645D01*
X002278Y017724D02*
X002335Y017724D01*
X002307Y017802D02*
X002384Y017802D01*
X002337Y017881D02*
X002463Y017881D01*
X002367Y017959D02*
X002617Y017959D01*
X003206Y017645D02*
X005064Y017645D01*
X005064Y017567D02*
X003224Y017567D01*
X003224Y017488D02*
X005064Y017488D01*
X005064Y017410D02*
X003222Y017410D01*
X003190Y017331D02*
X005064Y017331D01*
X005064Y017252D02*
X003157Y017252D01*
X003085Y017174D02*
X005064Y017174D01*
X005031Y017095D02*
X002988Y017095D01*
X002942Y016938D02*
X004949Y016938D01*
X004949Y016860D02*
X003066Y016860D01*
X002566Y016938D02*
X002044Y016938D01*
X002024Y016860D02*
X002442Y016860D01*
X002363Y016781D02*
X002005Y016781D01*
X001986Y016703D02*
X002326Y016703D01*
X002294Y016624D02*
X001966Y016624D01*
X001947Y016546D02*
X002284Y016546D01*
X002284Y016467D02*
X001927Y016467D01*
X001908Y016389D02*
X002294Y016389D01*
X002327Y016310D02*
X001889Y016310D01*
X001874Y016231D02*
X002365Y016231D01*
X002444Y016153D02*
X001865Y016153D01*
X002754Y015507D02*
X004504Y015507D01*
X006304Y017307D01*
X006304Y018107D01*
X006804Y018607D01*
X008704Y018607D01*
X008583Y018823D02*
X006407Y018823D01*
X006402Y018813D02*
X006437Y018882D01*
X006461Y018955D01*
X006473Y019031D01*
X006473Y019109D01*
X006461Y019185D01*
X006437Y019258D01*
X006402Y019327D01*
X006357Y019388D01*
X006039Y019070D01*
X006357Y018752D01*
X006402Y018813D01*
X006443Y018902D02*
X008504Y018902D01*
X008426Y018980D02*
X006465Y018980D01*
X006473Y019059D02*
X008347Y019059D01*
X008268Y019138D02*
X006468Y019138D01*
X006450Y019216D02*
X008190Y019216D01*
X008111Y019295D02*
X006418Y019295D01*
X006368Y019373D02*
X008033Y019373D01*
X007954Y019452D02*
X006291Y019452D01*
X006342Y019373D02*
X006229Y019373D01*
X006264Y019295D02*
X006151Y019295D01*
X006185Y019216D02*
X006072Y019216D01*
X006107Y019138D02*
X005994Y019138D01*
X005972Y019138D02*
X005859Y019138D01*
X005893Y019216D02*
X005780Y019216D01*
X005815Y019295D02*
X005701Y019295D01*
X005736Y019373D02*
X005623Y019373D01*
X005597Y019373D02*
X005278Y019373D01*
X005311Y019452D02*
X005674Y019452D01*
X005547Y019295D02*
X005206Y019295D01*
X005107Y019216D02*
X005515Y019216D01*
X005915Y019059D02*
X005937Y019059D01*
X006028Y019059D02*
X006050Y019059D01*
X005896Y018588D02*
X004700Y018588D01*
X005295Y019844D02*
X007876Y019844D01*
X007797Y019923D02*
X005814Y019923D01*
X005913Y020001D02*
X007719Y020001D01*
X007640Y020080D02*
X005985Y020080D01*
X006018Y020159D02*
X007562Y020159D01*
X007611Y020307D02*
X005611Y020307D01*
X005583Y020336D01*
X005252Y020001D02*
X005167Y020001D01*
X005180Y020080D02*
X005014Y020080D01*
X005246Y019923D02*
X005351Y019923D01*
X006034Y020473D02*
X008087Y020473D01*
X006150Y021494D02*
X004661Y021494D01*
X004575Y021415D02*
X005997Y021415D01*
X005919Y021337D02*
X005094Y021337D01*
X005072Y021359D02*
X004963Y021404D01*
X004845Y021404D01*
X004736Y021359D01*
X004652Y021276D01*
X004607Y021166D01*
X004607Y021048D01*
X004652Y020939D01*
X004736Y020856D01*
X004845Y020811D01*
X004963Y020811D01*
X005072Y020856D01*
X005156Y020939D01*
X005201Y021048D01*
X005201Y021166D01*
X005156Y021276D01*
X005072Y021359D01*
X005163Y021258D02*
X005870Y021258D01*
X005838Y021180D02*
X005195Y021180D01*
X005201Y021101D02*
X005820Y021101D01*
X005820Y021023D02*
X005190Y021023D01*
X005158Y020944D02*
X005822Y020944D01*
X005854Y020865D02*
X005082Y020865D01*
X004726Y020865D02*
X004088Y020865D01*
X004157Y020944D02*
X004650Y020944D01*
X004618Y021023D02*
X004227Y021023D01*
X004297Y021101D02*
X004607Y021101D01*
X004613Y021180D02*
X004366Y021180D01*
X004436Y021258D02*
X004645Y021258D01*
X004713Y021337D02*
X004505Y021337D01*
X005683Y022358D02*
X007236Y022358D01*
X007234Y022436D02*
X005797Y022436D01*
X005911Y022515D02*
X007234Y022515D01*
X007252Y022593D02*
X006025Y022593D01*
X006139Y022672D02*
X007284Y022672D01*
X007333Y022751D02*
X006252Y022751D01*
X006366Y022829D02*
X007411Y022829D01*
X007563Y022908D02*
X006492Y022908D01*
X006642Y022986D02*
X007976Y022986D01*
X008008Y022908D02*
X007844Y022908D01*
X008012Y022898D02*
X008145Y022766D01*
X008317Y022694D01*
X008504Y022694D01*
X008677Y022766D01*
X008809Y022898D01*
X008881Y023071D01*
X008881Y023258D01*
X008809Y023430D01*
X008677Y023563D01*
X008504Y023634D01*
X008317Y023634D01*
X008145Y023563D01*
X008012Y023430D01*
X007941Y023258D01*
X007941Y023071D01*
X008012Y022898D01*
X007996Y022829D02*
X008081Y022829D01*
X008075Y022751D02*
X008181Y022751D01*
X008123Y022672D02*
X009627Y022672D01*
X009706Y022593D02*
X008156Y022593D01*
X008174Y022515D02*
X009784Y022515D01*
X009863Y022436D02*
X008174Y022436D01*
X008171Y022358D02*
X009941Y022358D01*
X009181Y022751D02*
X008640Y022751D01*
X008740Y022829D02*
X009081Y022829D01*
X009008Y022908D02*
X008813Y022908D01*
X008846Y022986D02*
X008976Y022986D01*
X008943Y023065D02*
X008878Y023065D01*
X008881Y023143D02*
X008941Y023143D01*
X008941Y023222D02*
X008881Y023222D01*
X008863Y023300D02*
X008959Y023300D01*
X008991Y023379D02*
X008831Y023379D01*
X008782Y023457D02*
X009039Y023457D01*
X009118Y023536D02*
X008704Y023536D01*
X008552Y023614D02*
X009270Y023614D01*
X009233Y024007D02*
X021805Y024007D01*
X021994Y023929D02*
X008915Y023929D01*
X008596Y023850D02*
X022134Y023850D01*
X022251Y023772D02*
X008388Y023772D01*
X008270Y023614D02*
X007974Y023614D01*
X008118Y023536D02*
X007766Y023536D01*
X007559Y023457D02*
X008039Y023457D01*
X007991Y023379D02*
X007390Y023379D01*
X007240Y023300D02*
X007959Y023300D01*
X007941Y023222D02*
X007091Y023222D01*
X006941Y023143D02*
X007941Y023143D01*
X007943Y023065D02*
X006791Y023065D01*
X008181Y023693D02*
X022369Y023693D01*
X022487Y023614D02*
X013552Y023614D01*
X013704Y023536D02*
X022599Y023536D01*
X022677Y023457D02*
X013782Y023457D01*
X013831Y023379D02*
X022756Y023379D01*
X022834Y023300D02*
X013863Y023300D01*
X013881Y023222D02*
X022913Y023222D01*
X022991Y023143D02*
X013881Y023143D01*
X013878Y023065D02*
X023061Y023065D01*
X023114Y022986D02*
X013846Y022986D01*
X013813Y022908D02*
X023166Y022908D01*
X023219Y022829D02*
X013740Y022829D01*
X013640Y022751D02*
X014535Y022751D01*
X014961Y022751D02*
X014998Y022751D01*
X015231Y022751D02*
X015289Y022751D01*
X015289Y022672D02*
X015231Y022672D01*
X015231Y022593D02*
X015289Y022593D01*
X015289Y022515D02*
X023418Y022515D01*
X023451Y022436D02*
X015538Y022436D01*
X015538Y022358D02*
X023483Y022358D01*
X023516Y022279D02*
X015529Y022279D01*
X015453Y022201D02*
X023548Y022201D01*
X023581Y022122D02*
X014575Y022122D01*
X014496Y022044D02*
X015306Y022044D01*
X015279Y021965D02*
X014418Y021965D01*
X014387Y021887D02*
X015279Y021887D01*
X015279Y021808D02*
X014373Y021808D01*
X014331Y021729D02*
X015281Y021729D01*
X015279Y021651D02*
X014218Y021651D01*
X013924Y022044D02*
X013646Y022044D01*
X014653Y022201D02*
X015066Y022201D01*
X014991Y022279D02*
X014976Y022279D01*
X015231Y022279D02*
X015289Y022279D01*
X015289Y022201D02*
X015231Y022201D01*
X015231Y022358D02*
X015289Y022358D01*
X015289Y022436D02*
X015231Y022436D01*
X015538Y022593D02*
X023376Y022593D01*
X023324Y022672D02*
X015538Y022672D01*
X015521Y022751D02*
X023271Y022751D01*
X021615Y024086D02*
X009552Y024086D01*
X010005Y024164D02*
X021390Y024164D01*
X020996Y024243D02*
X010652Y024243D01*
X011887Y022436D02*
X012254Y022436D01*
X012254Y022358D02*
X011966Y022358D01*
X012044Y022279D02*
X012254Y022279D01*
X012254Y022201D02*
X012123Y022201D01*
X012201Y022122D02*
X012254Y022122D01*
X014179Y018352D02*
X015236Y018352D01*
X013119Y015525D02*
X018589Y015525D01*
X018667Y015446D02*
X013059Y015446D01*
X013059Y015367D02*
X013948Y015367D01*
X013861Y015289D02*
X013031Y015289D01*
X012967Y015210D02*
X013783Y015210D01*
X014260Y015367D02*
X018746Y015367D01*
X019293Y014814D02*
X016897Y014814D01*
X016697Y014614D01*
X016053Y014614D01*
X015960Y014707D01*
X015448Y014707D02*
X015448Y014207D01*
X015210Y014189D02*
X013610Y014189D01*
X013531Y014111D02*
X015210Y014111D01*
X015210Y014032D02*
X013453Y014032D01*
X013374Y013954D02*
X015189Y013954D01*
X015180Y013939D02*
X015170Y013903D01*
X015170Y013736D01*
X015419Y013736D01*
X015419Y013678D01*
X015170Y013678D01*
X015170Y013512D01*
X015180Y013476D01*
X015198Y013444D01*
X015213Y013429D01*
X015210Y013426D01*
X015210Y012989D01*
X015242Y012957D01*
X015210Y012926D01*
X015210Y012887D01*
X013478Y012887D01*
X012893Y013473D01*
X014358Y014937D01*
X014363Y014949D01*
X015233Y014949D01*
X015210Y014926D01*
X015210Y014489D01*
X015242Y014457D01*
X015210Y014426D01*
X015210Y013989D01*
X015213Y013986D01*
X015198Y013971D01*
X015180Y013939D01*
X015170Y013875D02*
X013296Y013875D01*
X013217Y013797D02*
X015170Y013797D01*
X015170Y013639D02*
X013060Y013639D01*
X012982Y013561D02*
X015170Y013561D01*
X015178Y013482D02*
X012903Y013482D01*
X012962Y013404D02*
X015210Y013404D01*
X015210Y013325D02*
X013041Y013325D01*
X013119Y013247D02*
X015210Y013247D01*
X015210Y013168D02*
X013198Y013168D01*
X013276Y013090D02*
X015210Y013090D01*
X015210Y013011D02*
X013355Y013011D01*
X013433Y012933D02*
X015217Y012933D01*
X015448Y012707D02*
X015448Y013207D01*
X015960Y013207D02*
X016060Y013307D01*
X016904Y013307D01*
X017466Y013869D01*
X019293Y013869D01*
X019293Y013554D02*
X017451Y013554D01*
X017004Y013107D01*
X016757Y013107D01*
X016604Y012954D01*
X016357Y012707D01*
X015960Y012707D01*
X015381Y012304D02*
X011725Y012304D01*
X011711Y012226D02*
X015210Y012226D01*
X015210Y012147D02*
X011711Y012147D01*
X011711Y012069D02*
X015210Y012069D01*
X015210Y011990D02*
X011711Y011990D01*
X011711Y011912D02*
X015210Y011912D01*
X015210Y011833D02*
X011711Y011833D01*
X011711Y011754D02*
X015245Y011754D01*
X015226Y011597D02*
X014482Y011597D01*
X014484Y011597D02*
X014452Y011615D01*
X014416Y011625D01*
X014289Y011625D01*
X014289Y011337D01*
X014231Y011337D01*
X014231Y011625D01*
X014104Y011625D01*
X014068Y011615D01*
X014036Y011597D01*
X014010Y011571D01*
X013992Y011539D01*
X013986Y011517D01*
X013986Y011526D01*
X013927Y011585D01*
X013569Y011585D01*
X013510Y011526D01*
X013510Y011089D01*
X013542Y011057D01*
X013510Y011026D01*
X013510Y010947D01*
X013422Y010947D01*
X013420Y010952D01*
X013348Y011024D01*
X013255Y011062D01*
X013153Y011062D01*
X013059Y011024D01*
X012988Y010952D01*
X012949Y010858D01*
X012949Y010757D01*
X012988Y010663D01*
X013059Y010591D01*
X013153Y010552D01*
X013255Y010552D01*
X013348Y010591D01*
X013420Y010663D01*
X013422Y010667D01*
X013510Y010667D01*
X013510Y010589D01*
X013569Y010530D01*
X013927Y010530D01*
X013986Y010589D01*
X013986Y011026D01*
X013954Y011057D01*
X013986Y011089D01*
X013986Y011098D01*
X013992Y011076D01*
X014010Y011044D01*
X014025Y011029D01*
X014022Y011026D01*
X014022Y010589D01*
X014081Y010530D01*
X014100Y010530D01*
X014100Y010478D01*
X013820Y010478D01*
X013761Y010420D01*
X013761Y009943D01*
X013820Y009885D01*
X014454Y009885D01*
X014513Y009943D01*
X014513Y010420D01*
X014454Y010478D01*
X014420Y010478D01*
X014420Y010530D01*
X014439Y010530D01*
X014498Y010589D01*
X014498Y011026D01*
X014494Y011029D01*
X014510Y011044D01*
X014528Y011076D01*
X014538Y011112D01*
X014538Y011278D01*
X014289Y011278D01*
X014289Y011336D01*
X014538Y011336D01*
X014538Y011503D01*
X014528Y011539D01*
X014510Y011571D01*
X014484Y011597D01*
X014533Y011519D02*
X015174Y011519D01*
X015170Y011440D02*
X014538Y011440D01*
X014538Y011362D02*
X015170Y011362D01*
X015170Y011205D02*
X014538Y011205D01*
X014538Y011126D02*
X015170Y011126D01*
X015185Y011048D02*
X014512Y011048D01*
X014498Y010969D02*
X015170Y010969D01*
X015170Y010890D02*
X014498Y010890D01*
X014498Y010812D02*
X015419Y010812D01*
X015419Y010890D02*
X015477Y010890D01*
X015477Y010969D02*
X015419Y010969D01*
X015419Y011048D02*
X015477Y011048D01*
X015477Y011126D02*
X015419Y011126D01*
X015419Y011205D02*
X015477Y011205D01*
X015419Y011283D02*
X014289Y011283D01*
X014289Y011362D02*
X014231Y011362D01*
X014231Y011440D02*
X014289Y011440D01*
X014289Y011519D02*
X014231Y011519D01*
X014231Y011597D02*
X014289Y011597D01*
X014037Y011597D02*
X011711Y011597D01*
X011711Y011519D02*
X013510Y011519D01*
X013510Y011440D02*
X011711Y011440D01*
X011711Y011362D02*
X013510Y011362D01*
X013510Y011283D02*
X011711Y011283D01*
X011711Y011205D02*
X013510Y011205D01*
X013510Y011126D02*
X011711Y011126D01*
X011711Y011048D02*
X013117Y011048D01*
X013005Y010969D02*
X011711Y010969D01*
X011711Y010890D02*
X012962Y010890D01*
X012949Y010812D02*
X011711Y010812D01*
X011711Y010733D02*
X012959Y010733D01*
X012996Y010655D02*
X011711Y010655D01*
X011711Y010576D02*
X013095Y010576D01*
X013312Y010576D02*
X013523Y010576D01*
X013510Y010655D02*
X013412Y010655D01*
X013204Y010807D02*
X013748Y010807D01*
X013748Y011307D01*
X013986Y011519D02*
X013986Y011519D01*
X013964Y011048D02*
X014008Y011048D01*
X014022Y010969D02*
X013986Y010969D01*
X013986Y010890D02*
X014022Y010890D01*
X014022Y010812D02*
X013986Y010812D01*
X013986Y010733D02*
X014022Y010733D01*
X014022Y010655D02*
X013986Y010655D01*
X013973Y010576D02*
X014035Y010576D01*
X014100Y010498D02*
X011711Y010498D01*
X011711Y010419D02*
X013761Y010419D01*
X013761Y010341D02*
X011711Y010341D01*
X011711Y010262D02*
X013761Y010262D01*
X013761Y010184D02*
X011711Y010184D01*
X011711Y010105D02*
X013761Y010105D01*
X013761Y010026D02*
X013646Y010026D01*
X013646Y009948D02*
X013761Y009948D01*
X013646Y009869D02*
X014740Y009869D01*
X014744Y009858D02*
X014762Y009826D01*
X014788Y009800D01*
X014820Y009782D01*
X014856Y009772D01*
X015090Y009772D01*
X015090Y010167D01*
X014734Y010167D01*
X014734Y009894D01*
X014744Y009858D01*
X014804Y009791D02*
X013646Y009791D01*
X013646Y009712D02*
X013802Y009712D01*
X013761Y009634D02*
X013646Y009634D01*
X013633Y009555D02*
X013761Y009555D01*
X013761Y009477D02*
X011711Y009477D01*
X011711Y009555D02*
X012909Y009555D01*
X013761Y009398D02*
X011711Y009398D01*
X011711Y009320D02*
X013761Y009320D01*
X013761Y009241D02*
X011711Y009241D01*
X011711Y009163D02*
X013794Y009163D01*
X014480Y009163D02*
X023421Y009163D01*
X023529Y009084D02*
X011711Y009084D01*
X011711Y009005D02*
X022989Y009005D01*
X023023Y009020D02*
X022881Y008961D01*
X022772Y008852D01*
X022714Y008710D01*
X022714Y008556D01*
X022772Y008414D01*
X022881Y008305D01*
X023023Y008246D01*
X023177Y008246D01*
X023319Y008305D01*
X023428Y008414D01*
X023487Y008556D01*
X023487Y008710D01*
X023428Y008852D01*
X023319Y008961D01*
X023177Y009020D01*
X023023Y009020D01*
X023212Y009005D02*
X023600Y009005D01*
X023658Y008927D02*
X023354Y008927D01*
X023430Y008848D02*
X023708Y008848D01*
X023734Y008770D02*
X023462Y008770D01*
X023487Y008691D02*
X023759Y008691D01*
X023781Y008613D02*
X023487Y008613D01*
X023478Y008534D02*
X023787Y008534D01*
X023789Y008456D02*
X023446Y008456D01*
X023392Y008377D02*
X023789Y008377D01*
X023789Y008299D02*
X023304Y008299D01*
X022897Y008299D02*
X011711Y008299D01*
X011711Y008377D02*
X022809Y008377D01*
X022755Y008456D02*
X011711Y008456D01*
X011711Y008534D02*
X022723Y008534D01*
X022714Y008613D02*
X011711Y008613D01*
X011711Y008691D02*
X022714Y008691D01*
X022738Y008770D02*
X011711Y008770D01*
X011711Y008848D02*
X022771Y008848D01*
X022847Y008927D02*
X011711Y008927D01*
X011111Y008927D02*
X008708Y008927D01*
X008784Y008848D02*
X011111Y008848D01*
X011111Y008770D02*
X008817Y008770D01*
X008842Y008691D02*
X011111Y008691D01*
X011111Y008613D02*
X008842Y008613D01*
X008832Y008534D02*
X011111Y008534D01*
X011111Y008456D02*
X008800Y008456D01*
X008746Y008377D02*
X011111Y008377D01*
X011111Y008299D02*
X008658Y008299D01*
X008566Y009005D02*
X011111Y009005D01*
X011711Y008220D02*
X023789Y008220D01*
X023789Y008141D02*
X011711Y008141D01*
X011711Y008063D02*
X023789Y008063D01*
X023788Y007984D02*
X011711Y007984D01*
X011711Y007906D02*
X023784Y007906D01*
X023780Y007827D02*
X011711Y007827D01*
X011711Y007749D02*
X023776Y007749D01*
X023770Y007670D02*
X011711Y007670D01*
X011711Y007592D02*
X023754Y007592D01*
X023739Y007513D02*
X011711Y007513D01*
X011711Y007435D02*
X023723Y007435D01*
X023708Y007356D02*
X011711Y007356D01*
X011711Y007277D02*
X023692Y007277D01*
X023676Y007199D02*
X011711Y007199D01*
X011711Y007120D02*
X023661Y007120D01*
X023643Y007042D02*
X011711Y007042D01*
X011711Y006963D02*
X023610Y006963D01*
X023577Y006885D02*
X011711Y006885D01*
X011711Y006806D02*
X023545Y006806D01*
X023512Y006728D02*
X011711Y006728D01*
X011711Y006649D02*
X023480Y006649D01*
X023447Y006571D02*
X011711Y006571D01*
X011711Y006492D02*
X023415Y006492D01*
X023371Y006414D02*
X011711Y006414D01*
X011711Y006335D02*
X012251Y006335D01*
X012215Y006323D02*
X012143Y006287D01*
X012079Y006240D01*
X012022Y006183D01*
X011975Y006118D01*
X011938Y006046D01*
X011913Y005970D01*
X011901Y005891D01*
X011901Y005891D01*
X012371Y005891D01*
X012371Y006361D01*
X012371Y006361D01*
X012291Y006348D01*
X012215Y006323D01*
X012102Y006256D02*
X011711Y006256D01*
X011748Y006178D02*
X012018Y006178D01*
X011965Y006099D02*
X011816Y006099D01*
X011849Y006021D02*
X011930Y006021D01*
X011909Y005942D02*
X011881Y005942D01*
X011881Y005864D02*
X012371Y005864D01*
X012371Y005891D02*
X012371Y005811D01*
X011901Y005811D01*
X011901Y005810D01*
X011913Y005731D01*
X011938Y005655D01*
X011975Y005583D01*
X012022Y005518D01*
X012079Y005462D01*
X012143Y005414D01*
X012215Y005378D01*
X012291Y005353D01*
X012371Y005341D01*
X012371Y005810D01*
X012451Y005810D01*
X012451Y005341D01*
X012530Y005353D01*
X012607Y005378D01*
X012678Y005414D01*
X012743Y005462D01*
X012800Y005518D01*
X012847Y005583D01*
X012883Y005655D01*
X012908Y005731D01*
X012921Y005810D01*
X012921Y005811D01*
X012451Y005811D01*
X012451Y005891D01*
X012371Y005891D01*
X012371Y005942D02*
X012451Y005942D01*
X012451Y005891D02*
X012451Y006361D01*
X012451Y006361D01*
X012530Y006348D01*
X012607Y006323D01*
X012678Y006287D01*
X012743Y006240D01*
X012800Y006183D01*
X012847Y006118D01*
X012883Y006046D01*
X012908Y005970D01*
X012921Y005891D01*
X012921Y005891D01*
X012451Y005891D01*
X012451Y005864D02*
X012941Y005864D01*
X012941Y005942D02*
X012913Y005942D01*
X012941Y005944D02*
X012941Y005757D01*
X013012Y005584D01*
X013145Y005452D01*
X013317Y005381D01*
X013504Y005381D01*
X013677Y005452D01*
X013809Y005584D01*
X013881Y005757D01*
X013881Y005944D01*
X013809Y006117D01*
X013677Y006249D01*
X013504Y006321D01*
X013317Y006321D01*
X013145Y006249D01*
X013012Y006117D01*
X012941Y005944D01*
X012973Y006021D02*
X012892Y006021D01*
X012856Y006099D02*
X013005Y006099D01*
X013073Y006178D02*
X012803Y006178D01*
X012720Y006256D02*
X013162Y006256D01*
X013659Y006256D02*
X022233Y006256D01*
X022236Y006259D02*
X022152Y006176D01*
X022107Y006066D01*
X022107Y005948D01*
X022152Y005839D01*
X022236Y005756D01*
X022345Y005711D01*
X022463Y005711D01*
X022572Y005756D01*
X022656Y005839D01*
X022701Y005948D01*
X022701Y006066D01*
X022656Y006176D01*
X022572Y006259D01*
X022463Y006304D01*
X022345Y006304D01*
X022236Y006259D01*
X022155Y006178D02*
X013748Y006178D01*
X013816Y006099D02*
X022121Y006099D01*
X022107Y006021D02*
X013849Y006021D01*
X013881Y005942D02*
X022110Y005942D01*
X022142Y005864D02*
X013881Y005864D01*
X013881Y005785D02*
X022206Y005785D01*
X022601Y005785D02*
X022905Y005785D01*
X022826Y005707D02*
X013860Y005707D01*
X013827Y005628D02*
X022748Y005628D01*
X022669Y005550D02*
X013774Y005550D01*
X013696Y005471D02*
X022591Y005471D01*
X022475Y005392D02*
X013533Y005392D01*
X013289Y005392D02*
X012635Y005392D01*
X012752Y005471D02*
X013126Y005471D01*
X013047Y005550D02*
X012822Y005550D01*
X012870Y005628D02*
X012994Y005628D01*
X012962Y005707D02*
X012900Y005707D01*
X012917Y005785D02*
X012941Y005785D01*
X012451Y005785D02*
X012371Y005785D01*
X012371Y005707D02*
X012451Y005707D01*
X012451Y005628D02*
X012371Y005628D01*
X012371Y005550D02*
X012451Y005550D01*
X012451Y005471D02*
X012371Y005471D01*
X012371Y005392D02*
X012451Y005392D01*
X012451Y005341D02*
X012451Y005341D01*
X012371Y005341D02*
X012371Y005341D01*
X012187Y005392D02*
X011533Y005392D01*
X011696Y005471D02*
X012069Y005471D01*
X011999Y005550D02*
X011774Y005550D01*
X011827Y005628D02*
X011952Y005628D01*
X011921Y005707D02*
X011860Y005707D01*
X011881Y005785D02*
X011905Y005785D01*
X011289Y005392D02*
X010635Y005392D01*
X010607Y005378D02*
X010678Y005414D01*
X010743Y005462D01*
X010800Y005518D01*
X010847Y005583D01*
X010883Y005655D01*
X010908Y005731D01*
X010921Y005810D01*
X010921Y005811D01*
X010451Y005811D01*
X010451Y005891D01*
X010371Y005891D01*
X010371Y006361D01*
X010371Y006361D01*
X010291Y006348D01*
X010215Y006323D01*
X010144Y006287D01*
X010079Y006240D01*
X010022Y006183D01*
X009975Y006118D01*
X009938Y006046D01*
X009913Y005970D01*
X009901Y005891D01*
X009901Y005891D01*
X010371Y005891D01*
X010371Y005811D01*
X009901Y005811D01*
X009901Y005810D01*
X009913Y005731D01*
X009938Y005655D01*
X009975Y005583D01*
X010022Y005518D01*
X010079Y005462D01*
X010144Y005414D01*
X010215Y005378D01*
X010291Y005353D01*
X010371Y005341D01*
X010371Y005810D01*
X010451Y005810D01*
X010451Y005341D01*
X010530Y005353D01*
X010607Y005378D01*
X010451Y005392D02*
X010371Y005392D01*
X010371Y005341D02*
X010371Y005341D01*
X010451Y005341D02*
X010451Y005341D01*
X010451Y005471D02*
X010371Y005471D01*
X010371Y005550D02*
X010451Y005550D01*
X010451Y005628D02*
X010371Y005628D01*
X010371Y005707D02*
X010451Y005707D01*
X010451Y005785D02*
X010371Y005785D01*
X010371Y005864D02*
X009881Y005864D01*
X009881Y005942D02*
X009909Y005942D01*
X009881Y005944D02*
X009809Y006117D01*
X009677Y006249D01*
X009504Y006321D01*
X009317Y006321D01*
X009145Y006249D01*
X009012Y006117D01*
X008941Y005944D01*
X008941Y005757D01*
X009012Y005584D01*
X009145Y005452D01*
X009317Y005381D01*
X009504Y005381D01*
X009677Y005452D01*
X009809Y005584D01*
X009881Y005757D01*
X009881Y005944D01*
X009849Y006021D02*
X009930Y006021D01*
X009965Y006099D02*
X009816Y006099D01*
X009748Y006178D02*
X010018Y006178D01*
X010102Y006256D02*
X009659Y006256D01*
X009162Y006256D02*
X008720Y006256D01*
X008743Y006240D02*
X008678Y006287D01*
X008607Y006323D01*
X008530Y006348D01*
X008451Y006361D01*
X008371Y006361D01*
X008291Y006348D01*
X008215Y006323D01*
X008144Y006287D01*
X008130Y006277D01*
X008140Y006290D01*
X008176Y006362D01*
X008201Y006438D01*
X008214Y006518D01*
X007744Y006518D01*
X007744Y006598D01*
X007664Y006598D01*
X007664Y006518D01*
X007744Y006518D01*
X007744Y006048D01*
X007823Y006060D01*
X007900Y006085D01*
X007971Y006122D01*
X007985Y006131D01*
X007975Y006118D01*
X007938Y006046D01*
X007913Y005970D01*
X007901Y005891D01*
X007901Y005810D01*
X007913Y005731D01*
X007938Y005655D01*
X007975Y005583D01*
X008022Y005518D01*
X008354Y005850D01*
X008411Y005794D01*
X008468Y005850D01*
X008800Y005518D01*
X008800Y005518D01*
X008847Y005583D01*
X008884Y005655D01*
X008908Y005731D01*
X008921Y005810D01*
X008921Y005891D01*
X008908Y005970D01*
X008884Y006046D01*
X008847Y006118D01*
X008800Y006183D01*
X008800Y006183D01*
X008468Y005851D01*
X008411Y005907D01*
X008743Y006239D01*
X008743Y006240D01*
X008795Y006178D02*
X008682Y006178D01*
X008716Y006099D02*
X008603Y006099D01*
X008638Y006021D02*
X008525Y006021D01*
X008559Y005942D02*
X008446Y005942D01*
X008454Y005864D02*
X008481Y005864D01*
X008533Y005785D02*
X008420Y005785D01*
X008411Y005794D02*
X008743Y005462D01*
X008743Y005462D01*
X008678Y005414D01*
X008607Y005378D01*
X008530Y005353D01*
X008451Y005341D01*
X008371Y005341D01*
X008291Y005353D01*
X008215Y005378D01*
X008144Y005414D01*
X008079Y005462D01*
X008079Y005462D01*
X008411Y005794D01*
X008402Y005785D02*
X008289Y005785D01*
X008324Y005707D02*
X008210Y005707D01*
X008245Y005628D02*
X008132Y005628D01*
X008166Y005550D02*
X008053Y005550D01*
X008022Y005518D02*
X008022Y005518D01*
X007999Y005550D02*
X007580Y005550D01*
X007405Y005628D02*
X007952Y005628D01*
X007921Y005707D02*
X007255Y005707D01*
X007106Y005785D02*
X007905Y005785D01*
X007901Y005864D02*
X006956Y005864D01*
X006806Y005942D02*
X007909Y005942D01*
X007930Y006021D02*
X006657Y006021D01*
X006507Y006099D02*
X007480Y006099D01*
X007508Y006085D02*
X007436Y006122D01*
X007372Y006169D01*
X007315Y006225D01*
X007268Y006290D01*
X007231Y006362D01*
X007206Y006438D01*
X007194Y006518D01*
X007194Y006518D01*
X007664Y006518D01*
X007664Y006048D01*
X007664Y006048D01*
X007584Y006060D01*
X007508Y006085D01*
X007664Y006099D02*
X007744Y006099D01*
X007744Y006048D02*
X007744Y006048D01*
X007744Y006178D02*
X007664Y006178D01*
X007664Y006256D02*
X007744Y006256D01*
X007744Y006335D02*
X007664Y006335D01*
X007664Y006414D02*
X007744Y006414D01*
X007744Y006492D02*
X007664Y006492D01*
X007664Y006571D02*
X005809Y006571D01*
X005922Y006492D02*
X007198Y006492D01*
X007214Y006414D02*
X006036Y006414D01*
X006150Y006335D02*
X007245Y006335D01*
X007292Y006256D02*
X006264Y006256D01*
X006378Y006178D02*
X007362Y006178D01*
X007202Y006649D02*
X005695Y006649D01*
X005581Y006728D02*
X007223Y006728D01*
X007220Y006806D02*
X007258Y006806D01*
X007455Y007042D02*
X007544Y007042D01*
X007486Y007120D02*
X011111Y007120D01*
X011111Y007042D02*
X007864Y007042D01*
X007900Y007030D02*
X007823Y007055D01*
X007744Y007068D01*
X007744Y007068D01*
X007744Y006598D01*
X008214Y006598D01*
X008201Y006677D01*
X008176Y006753D01*
X008140Y006825D01*
X008093Y006890D01*
X008036Y006947D01*
X007971Y006994D01*
X007900Y007030D01*
X008013Y006963D02*
X011111Y006963D01*
X011111Y006885D02*
X008097Y006885D01*
X008150Y006806D02*
X011111Y006806D01*
X011111Y006728D02*
X008185Y006728D01*
X008206Y006649D02*
X011111Y006649D01*
X011111Y006571D02*
X007744Y006571D01*
X007744Y006649D02*
X007664Y006649D01*
X007664Y006728D02*
X007744Y006728D01*
X007744Y006806D02*
X007664Y006806D01*
X007664Y006885D02*
X007744Y006885D01*
X007744Y006963D02*
X007664Y006963D01*
X007664Y007042D02*
X007744Y007042D01*
X008214Y006598D02*
X008214Y006598D01*
X008214Y006518D02*
X008214Y006518D01*
X008210Y006492D02*
X011111Y006492D01*
X011111Y006414D02*
X008193Y006414D01*
X008163Y006335D02*
X008251Y006335D01*
X008570Y006335D02*
X010251Y006335D01*
X010371Y006335D02*
X010451Y006335D01*
X010451Y006361D02*
X010451Y006361D01*
X010530Y006348D01*
X010607Y006323D01*
X010678Y006287D01*
X010743Y006240D01*
X010800Y006183D01*
X010847Y006118D01*
X010883Y006046D01*
X010908Y005970D01*
X010921Y005891D01*
X010921Y005891D01*
X010451Y005891D01*
X010451Y006361D01*
X010451Y006256D02*
X010371Y006256D01*
X010371Y006178D02*
X010451Y006178D01*
X010451Y006099D02*
X010371Y006099D01*
X010371Y006021D02*
X010451Y006021D01*
X010451Y005942D02*
X010371Y005942D01*
X010451Y005864D02*
X010941Y005864D01*
X010941Y005942D02*
X010913Y005942D01*
X010892Y006021D02*
X010973Y006021D01*
X011005Y006099D02*
X010856Y006099D01*
X010803Y006178D02*
X011073Y006178D01*
X011111Y006256D02*
X010720Y006256D01*
X010570Y006335D02*
X011111Y006335D01*
X010941Y005785D02*
X010917Y005785D01*
X010900Y005707D02*
X010962Y005707D01*
X010994Y005628D02*
X010870Y005628D01*
X010822Y005550D02*
X011047Y005550D01*
X011126Y005471D02*
X010752Y005471D01*
X010187Y005392D02*
X009533Y005392D01*
X009696Y005471D02*
X010069Y005471D01*
X009999Y005550D02*
X009774Y005550D01*
X009827Y005628D02*
X009952Y005628D01*
X009921Y005707D02*
X009860Y005707D01*
X009881Y005785D02*
X009905Y005785D01*
X009289Y005392D02*
X008635Y005392D01*
X008734Y005471D02*
X009126Y005471D01*
X009047Y005550D02*
X008823Y005550D01*
X008768Y005550D02*
X008655Y005550D01*
X008690Y005628D02*
X008577Y005628D01*
X008611Y005707D02*
X008498Y005707D01*
X008187Y005392D02*
X007994Y005392D01*
X008088Y005471D02*
X007787Y005471D01*
X008201Y005314D02*
X022357Y005314D01*
X022240Y005235D02*
X008408Y005235D01*
X008628Y005157D02*
X022122Y005157D01*
X021975Y005078D02*
X008946Y005078D01*
X009265Y005000D02*
X021786Y005000D01*
X021596Y004921D02*
X009584Y004921D01*
X010069Y004843D02*
X021351Y004843D01*
X020956Y004764D02*
X010716Y004764D01*
X008994Y005628D02*
X008870Y005628D01*
X008900Y005707D02*
X008962Y005707D01*
X008941Y005785D02*
X008917Y005785D01*
X008921Y005864D02*
X008941Y005864D01*
X008941Y005942D02*
X008913Y005942D01*
X008892Y006021D02*
X008973Y006021D01*
X009005Y006099D02*
X008856Y006099D01*
X008803Y006178D02*
X009073Y006178D01*
X007965Y006099D02*
X007927Y006099D01*
X004756Y008927D02*
X003488Y008927D01*
X003434Y009005D02*
X004591Y009005D01*
X004513Y009084D02*
X003379Y009084D01*
X003325Y009163D02*
X004459Y009163D01*
X004427Y009241D02*
X003271Y009241D01*
X003217Y009320D02*
X004405Y009320D01*
X004405Y009398D02*
X003163Y009398D01*
X003114Y009477D02*
X004405Y009477D01*
X004437Y009555D02*
X003072Y009555D01*
X003031Y009634D02*
X004049Y009634D01*
X003884Y009712D02*
X002990Y009712D01*
X002949Y009791D02*
X003806Y009791D01*
X003752Y009869D02*
X002907Y009869D01*
X002866Y009948D02*
X003720Y009948D01*
X003698Y010026D02*
X002825Y010026D01*
X002784Y010105D02*
X003698Y010105D01*
X003698Y010184D02*
X002743Y010184D01*
X003461Y010800D02*
X004497Y010800D01*
X004468Y010969D02*
X003900Y010969D01*
X003867Y011048D02*
X004546Y011048D01*
X004625Y011126D02*
X003800Y011126D01*
X003713Y011205D02*
X004703Y011205D01*
X004939Y011440D02*
X003435Y011440D01*
X003513Y011519D02*
X005017Y011519D01*
X005096Y011597D02*
X003592Y011597D01*
X003670Y011676D02*
X005174Y011676D01*
X005253Y011754D02*
X003749Y011754D01*
X003828Y011833D02*
X005332Y011833D01*
X005410Y011912D02*
X003906Y011912D01*
X003985Y011990D02*
X005489Y011990D01*
X005567Y012069D02*
X004063Y012069D01*
X004142Y012147D02*
X005646Y012147D01*
X005724Y012226D02*
X005434Y012226D01*
X005416Y012208D02*
X005528Y012319D01*
X005588Y012465D01*
X005588Y012623D01*
X005528Y012769D01*
X005416Y012880D01*
X005270Y012941D01*
X005113Y012941D01*
X004967Y012880D01*
X004855Y012769D01*
X004795Y012623D01*
X004795Y012465D01*
X004855Y012319D01*
X004967Y012208D01*
X005113Y012147D01*
X005270Y012147D01*
X005416Y012208D01*
X005513Y012304D02*
X005803Y012304D01*
X005881Y012383D02*
X005554Y012383D01*
X005587Y012461D02*
X005960Y012461D01*
X006038Y012540D02*
X005588Y012540D01*
X005588Y012618D02*
X006117Y012618D01*
X006196Y012697D02*
X005558Y012697D01*
X005521Y012776D02*
X006274Y012776D01*
X006353Y012854D02*
X005443Y012854D01*
X005290Y012933D02*
X006431Y012933D01*
X006510Y013011D02*
X005006Y013011D01*
X005084Y013090D02*
X006588Y013090D01*
X006667Y013168D02*
X005163Y013168D01*
X005241Y013247D02*
X006745Y013247D01*
X006824Y013325D02*
X005320Y013325D01*
X005398Y013404D02*
X006864Y013404D01*
X006864Y013482D02*
X005477Y013482D01*
X005555Y013561D02*
X006864Y013561D01*
X006864Y013639D02*
X005634Y013639D01*
X005713Y013718D02*
X006864Y013718D01*
X006895Y013797D02*
X005791Y013797D01*
X005870Y013875D02*
X006974Y013875D01*
X007052Y013954D02*
X005948Y013954D01*
X006027Y014032D02*
X007131Y014032D01*
X007149Y014111D02*
X006105Y014111D01*
X006184Y014189D02*
X007162Y014189D01*
X007204Y014268D02*
X006262Y014268D01*
X006341Y014346D02*
X007315Y014346D01*
X007226Y014425D02*
X006419Y014425D01*
X006404Y014607D02*
X003304Y011507D01*
X003589Y011990D02*
X002065Y011990D01*
X002084Y011912D02*
X002502Y011912D01*
X002415Y011833D02*
X002104Y011833D01*
X002123Y011754D02*
X002348Y011754D01*
X002315Y011676D02*
X002142Y011676D01*
X002162Y011597D02*
X002284Y011597D01*
X002284Y011519D02*
X002191Y011519D01*
X002221Y011440D02*
X002284Y011440D01*
X002306Y011362D02*
X002251Y011362D01*
X002281Y011283D02*
X002338Y011283D01*
X002311Y011205D02*
X002392Y011205D01*
X002340Y011126D02*
X002471Y011126D01*
X002370Y011048D02*
X002636Y011048D01*
X003823Y010498D02*
X003917Y010498D01*
X003877Y010576D02*
X005868Y010576D01*
X005946Y010655D02*
X003910Y010655D01*
X004420Y010498D02*
X005789Y010498D01*
X005711Y010419D02*
X004507Y010419D01*
X004574Y010341D02*
X005632Y010341D01*
X005553Y010262D02*
X004607Y010262D01*
X004625Y009791D02*
X004531Y009791D01*
X004537Y009712D02*
X004452Y009712D01*
X004469Y009634D02*
X004288Y009634D01*
X004220Y012226D02*
X004949Y012226D01*
X004870Y012304D02*
X004299Y012304D01*
X004377Y012383D02*
X004829Y012383D01*
X004796Y012461D02*
X004456Y012461D01*
X004534Y012540D02*
X004795Y012540D01*
X004795Y012618D02*
X004613Y012618D01*
X004691Y012697D02*
X004826Y012697D01*
X004862Y012776D02*
X004770Y012776D01*
X004849Y012854D02*
X004941Y012854D01*
X004927Y012933D02*
X005093Y012933D01*
X004102Y013561D02*
X003355Y013561D01*
X003277Y013482D02*
X004023Y013482D01*
X003945Y013404D02*
X003220Y013404D01*
X003187Y013325D02*
X003866Y013325D01*
X003788Y013247D02*
X003155Y013247D01*
X003080Y013168D02*
X003709Y013168D01*
X003631Y013090D02*
X002974Y013090D01*
X002956Y012933D02*
X003474Y012933D01*
X003552Y013011D02*
X001847Y013011D01*
X001737Y014032D02*
X003431Y014032D01*
X003509Y014111D02*
X003022Y014111D01*
X003101Y014189D02*
X003588Y014189D01*
X003666Y014268D02*
X003163Y014268D01*
X003196Y014346D02*
X003745Y014346D01*
X003804Y014507D02*
X006504Y017207D01*
X006733Y016938D02*
X007610Y016938D01*
X007610Y017017D02*
X006811Y017017D01*
X006890Y017095D02*
X007610Y017095D01*
X007610Y017174D02*
X006968Y017174D01*
X007047Y017252D02*
X007226Y017252D01*
X007523Y017252D02*
X007602Y017252D01*
X007848Y017205D02*
X007375Y017678D01*
X007345Y017707D01*
X007304Y017707D01*
X003104Y013507D01*
X002754Y013507D01*
X003051Y013875D02*
X003274Y013875D01*
X003352Y013954D02*
X002905Y013954D01*
X003130Y013797D02*
X003195Y013797D01*
X003434Y013639D02*
X004181Y013639D01*
X004259Y013718D02*
X003513Y013718D01*
X003591Y013797D02*
X004338Y013797D01*
X004416Y013875D02*
X003670Y013875D01*
X003748Y013954D02*
X004495Y013954D01*
X004573Y014032D02*
X003827Y014032D01*
X003905Y014111D02*
X004652Y014111D01*
X004730Y014189D02*
X003984Y014189D01*
X004062Y014268D02*
X004809Y014268D01*
X004887Y014346D02*
X004141Y014346D01*
X004219Y014425D02*
X004966Y014425D01*
X005044Y014503D02*
X004298Y014503D01*
X004376Y014582D02*
X005123Y014582D01*
X005202Y014661D02*
X004455Y014661D01*
X004534Y014739D02*
X005199Y014739D01*
X005175Y014818D02*
X004612Y014818D01*
X004691Y014896D02*
X005175Y014896D01*
X005175Y014975D02*
X004769Y014975D01*
X004848Y015053D02*
X005207Y015053D01*
X005240Y015132D02*
X004926Y015132D01*
X005005Y015210D02*
X005313Y015210D01*
X005422Y015289D02*
X005083Y015289D01*
X005162Y015367D02*
X005908Y015367D01*
X005987Y015446D02*
X005240Y015446D01*
X005319Y015525D02*
X006066Y015525D01*
X006144Y015603D02*
X005398Y015603D01*
X005476Y015682D02*
X006223Y015682D01*
X006383Y015446D02*
X007610Y015446D01*
X007632Y015367D02*
X006304Y015367D01*
X006226Y015289D02*
X007225Y015289D01*
X007171Y015210D02*
X006147Y015210D01*
X006069Y015132D02*
X007149Y015132D01*
X007150Y015053D02*
X006043Y015053D01*
X006075Y014975D02*
X007183Y014975D01*
X007255Y014896D02*
X006075Y014896D01*
X006075Y014818D02*
X007254Y014818D01*
X007404Y015107D02*
X007848Y015107D01*
X007610Y015289D02*
X007583Y015289D01*
X007848Y015607D02*
X007848Y016107D01*
X007610Y016074D02*
X005869Y016074D01*
X005790Y015996D02*
X007610Y015996D01*
X007610Y015917D02*
X005712Y015917D01*
X005633Y015839D02*
X007623Y015839D01*
X007610Y015760D02*
X005555Y015760D01*
X005947Y016153D02*
X007610Y016153D01*
X007610Y016231D02*
X006026Y016231D01*
X006104Y016310D02*
X007610Y016310D01*
X007611Y016389D02*
X006183Y016389D01*
X006262Y016467D02*
X007610Y016467D01*
X007610Y016546D02*
X006340Y016546D01*
X006419Y016624D02*
X007610Y016624D01*
X007610Y016703D02*
X006497Y016703D01*
X006576Y016781D02*
X007610Y016781D01*
X007639Y016860D02*
X006654Y016860D01*
X007848Y017107D02*
X007848Y016607D01*
X008360Y016607D02*
X008360Y016107D01*
X007848Y017107D02*
X007848Y017205D01*
X007841Y017410D02*
X008159Y017410D01*
X008090Y017331D02*
X008081Y017331D01*
X008618Y018195D02*
X006890Y018195D01*
X005344Y016546D02*
X004645Y016546D01*
X004557Y016546D02*
X004444Y016546D01*
X004479Y016467D02*
X004366Y016467D01*
X004400Y016389D02*
X004287Y016389D01*
X004258Y016310D02*
X004322Y016310D01*
X004336Y016231D02*
X004243Y016231D01*
X004223Y016231D02*
X004130Y016231D01*
X004145Y016310D02*
X004208Y016310D01*
X004179Y016389D02*
X004066Y016389D01*
X004101Y016467D02*
X003988Y016467D01*
X004022Y016546D02*
X003909Y016546D01*
X004051Y016153D02*
X004164Y016153D01*
X004086Y016074D02*
X003973Y016074D01*
X004007Y015996D02*
X003894Y015996D01*
X003929Y015917D02*
X002993Y015917D01*
X003087Y015839D02*
X004016Y015839D01*
X004302Y016153D02*
X004415Y016153D01*
X004380Y016074D02*
X004493Y016074D01*
X004459Y015996D02*
X004572Y015996D01*
X004634Y015996D02*
X004794Y015996D01*
X004716Y015917D02*
X004537Y015917D01*
X004450Y015839D02*
X004637Y015839D01*
X004559Y015760D02*
X003158Y015760D01*
X003190Y015682D02*
X004480Y015682D01*
X004387Y015289D02*
X003172Y015289D01*
X003122Y015210D02*
X004309Y015210D01*
X004230Y015132D02*
X003043Y015132D01*
X002886Y015053D02*
X004152Y015053D01*
X004073Y014975D02*
X002854Y014975D01*
X003030Y014896D02*
X003995Y014896D01*
X003916Y014818D02*
X003108Y014818D01*
X003167Y014739D02*
X003838Y014739D01*
X003759Y014661D02*
X003199Y014661D01*
X002754Y014507D02*
X003804Y014507D01*
X003395Y012854D02*
X003072Y012854D01*
X003151Y012776D02*
X003317Y012776D01*
X003238Y012697D02*
X003184Y012697D01*
X005604Y014907D02*
X005625Y014886D01*
X004873Y016074D02*
X004679Y016074D01*
X004708Y016153D02*
X004951Y016153D01*
X005030Y016231D02*
X004722Y016231D01*
X004723Y016310D02*
X005109Y016310D01*
X005187Y016389D02*
X004712Y016389D01*
X004687Y016467D02*
X005266Y016467D01*
X007144Y013639D02*
X007149Y013639D01*
X007144Y013561D02*
X007149Y013561D01*
X007144Y013482D02*
X007180Y013482D01*
X007144Y013404D02*
X007247Y013404D01*
X006906Y013011D02*
X007610Y013011D01*
X007610Y012933D02*
X006827Y012933D01*
X006749Y012854D02*
X007645Y012854D01*
X007708Y012776D02*
X006670Y012776D01*
X006591Y012697D02*
X007708Y012697D01*
X007708Y012618D02*
X006513Y012618D01*
X006434Y012540D02*
X007708Y012540D01*
X008051Y012854D02*
X008104Y012854D01*
X008638Y014189D02*
X009795Y014189D01*
X009874Y014268D02*
X008638Y014268D01*
X008624Y014346D02*
X009952Y014346D01*
X010031Y014425D02*
X008638Y014425D01*
X008638Y014503D02*
X010109Y014503D01*
X012170Y016074D02*
X019293Y016074D01*
X019651Y016231D02*
X020289Y016231D01*
X020289Y016153D02*
X019689Y016153D01*
X019689Y016074D02*
X020289Y016074D01*
X020289Y015996D02*
X019689Y015996D01*
X019652Y015917D02*
X020289Y015917D01*
X020289Y015839D02*
X019689Y015839D01*
X019689Y015760D02*
X020289Y015760D01*
X020289Y015682D02*
X019689Y015682D01*
X019653Y015603D02*
X020289Y015603D01*
X020289Y015525D02*
X019689Y015525D01*
X019689Y015446D02*
X020289Y015446D01*
X020289Y015367D02*
X019689Y015367D01*
X019654Y015289D02*
X020289Y015289D01*
X020289Y015210D02*
X019689Y015210D01*
X019689Y015132D02*
X020289Y015132D01*
X020289Y015053D02*
X019689Y015053D01*
X019654Y014975D02*
X020289Y014975D01*
X020289Y014896D02*
X019689Y014896D01*
X019689Y014818D02*
X020289Y014818D01*
X020289Y014739D02*
X019689Y014739D01*
X019655Y014661D02*
X020289Y014661D01*
X020289Y014582D02*
X019689Y014582D01*
X019689Y014503D02*
X020289Y014503D01*
X020289Y014425D02*
X019689Y014425D01*
X019656Y014346D02*
X020289Y014346D01*
X020289Y014268D02*
X019689Y014268D01*
X019689Y014189D02*
X020289Y014189D01*
X020289Y014111D02*
X019689Y014111D01*
X019657Y014032D02*
X020289Y014032D01*
X020289Y013954D02*
X019689Y013954D01*
X019689Y013875D02*
X020289Y013875D01*
X020289Y013797D02*
X019689Y013797D01*
X019658Y013718D02*
X020289Y013718D01*
X020289Y013639D02*
X019689Y013639D01*
X019689Y013561D02*
X020289Y013561D01*
X020289Y013482D02*
X019689Y013482D01*
X019658Y013404D02*
X020289Y013404D01*
X020289Y013325D02*
X019689Y013325D01*
X019689Y013247D02*
X020289Y013247D01*
X020289Y013168D02*
X019689Y013168D01*
X019659Y013090D02*
X020289Y013090D01*
X020289Y013011D02*
X019689Y013011D01*
X019689Y012933D02*
X020289Y012933D01*
X020289Y012854D02*
X019689Y012854D01*
X019699Y012776D02*
X020289Y012776D01*
X020289Y012697D02*
X019729Y012697D01*
X019729Y012618D02*
X020289Y012618D01*
X020289Y012540D02*
X019729Y012540D01*
X019710Y012461D02*
X020289Y012461D01*
X020289Y012383D02*
X019689Y012383D01*
X019689Y012304D02*
X020289Y012304D01*
X020289Y012226D02*
X019689Y012226D01*
X019661Y012147D02*
X020289Y012147D01*
X020289Y012069D02*
X019689Y012069D01*
X019689Y011990D02*
X020289Y011990D01*
X020289Y011912D02*
X019689Y011912D01*
X019662Y011833D02*
X020289Y011833D01*
X020289Y011754D02*
X019689Y011754D01*
X019689Y011676D02*
X020289Y011676D01*
X020289Y011597D02*
X019689Y011597D01*
X019663Y011519D02*
X020289Y011519D01*
X020289Y011440D02*
X019689Y011440D01*
X019689Y011362D02*
X020289Y011362D01*
X020289Y011283D02*
X019689Y011283D01*
X019664Y011205D02*
X020289Y011205D01*
X020289Y011126D02*
X019689Y011126D01*
X019689Y011048D02*
X020289Y011048D01*
X020289Y010969D02*
X019689Y010969D01*
X019665Y010890D02*
X020289Y010890D01*
X020289Y010812D02*
X019689Y010812D01*
X019689Y010733D02*
X020289Y010733D01*
X020289Y010655D02*
X019689Y010655D01*
X019665Y010576D02*
X020289Y010576D01*
X020289Y010498D02*
X019689Y010498D01*
X019689Y010419D02*
X020289Y010419D01*
X020289Y010341D02*
X019689Y010341D01*
X019666Y010262D02*
X020306Y010262D01*
X020332Y010184D02*
X019689Y010184D01*
X019689Y010105D02*
X020357Y010105D01*
X020383Y010026D02*
X019689Y010026D01*
X019667Y009948D02*
X020409Y009948D01*
X020466Y009869D02*
X017020Y009869D01*
X016942Y009791D02*
X020523Y009791D01*
X020580Y009712D02*
X016863Y009712D01*
X016785Y009634D02*
X020639Y009634D01*
X020747Y009555D02*
X016706Y009555D01*
X016628Y009477D02*
X020856Y009477D01*
X020986Y009398D02*
X016549Y009398D01*
X016471Y009320D02*
X021228Y009320D01*
X023255Y009241D02*
X016392Y009241D01*
X016276Y009634D02*
X014513Y009634D01*
X014472Y009712D02*
X016354Y009712D01*
X016433Y009791D02*
X015456Y009791D01*
X015519Y009869D02*
X015523Y009869D01*
X015170Y009869D02*
X015090Y009869D01*
X015090Y009791D02*
X015170Y009791D01*
X015170Y009948D02*
X015090Y009948D01*
X015090Y010026D02*
X015170Y010026D01*
X015170Y010105D02*
X015090Y010105D01*
X015090Y010184D02*
X014513Y010184D01*
X014513Y010262D02*
X014734Y010262D01*
X014734Y010341D02*
X014513Y010341D01*
X014513Y010419D02*
X014734Y010419D01*
X014734Y010498D02*
X014420Y010498D01*
X014485Y010576D02*
X014755Y010576D01*
X014498Y010655D02*
X015170Y010655D01*
X015170Y010643D02*
X015170Y010643D01*
X015170Y010576D02*
X015090Y010576D01*
X015090Y010498D02*
X015170Y010498D01*
X015170Y010419D02*
X015090Y010419D01*
X015090Y010341D02*
X015170Y010341D01*
X015170Y010262D02*
X015090Y010262D01*
X014734Y010105D02*
X014513Y010105D01*
X014513Y010026D02*
X014734Y010026D01*
X014734Y009948D02*
X014513Y009948D01*
X014260Y010204D02*
X014160Y010204D01*
X014137Y010181D01*
X014498Y010733D02*
X015170Y010733D01*
X015419Y011362D02*
X015477Y011362D01*
X015477Y011440D02*
X015419Y011440D01*
X015419Y011519D02*
X015477Y011519D01*
X015477Y011597D02*
X015419Y011597D01*
X015582Y011676D02*
X011711Y011676D01*
X011804Y012383D02*
X015302Y012383D01*
X015238Y012461D02*
X011882Y012461D01*
X011961Y012540D02*
X013317Y012540D01*
X013238Y012618D02*
X012039Y012618D01*
X012118Y012697D02*
X013160Y012697D01*
X013081Y012776D02*
X012196Y012776D01*
X012275Y012854D02*
X013003Y012854D01*
X012924Y012933D02*
X012353Y012933D01*
X012432Y013011D02*
X012846Y013011D01*
X012767Y013090D02*
X012510Y013090D01*
X012589Y013168D02*
X012689Y013168D01*
X013139Y013718D02*
X015419Y013718D01*
X015960Y013707D02*
X016060Y013607D01*
X016904Y013607D01*
X017481Y014184D01*
X019293Y014184D01*
X019293Y014499D02*
X017304Y014499D01*
X016704Y013899D01*
X016704Y013907D01*
X016404Y014207D01*
X015960Y014207D01*
X015210Y014268D02*
X013689Y014268D01*
X013767Y014346D02*
X015210Y014346D01*
X015210Y014425D02*
X013846Y014425D01*
X013924Y014503D02*
X015210Y014503D01*
X015210Y014582D02*
X014003Y014582D01*
X014081Y014661D02*
X015210Y014661D01*
X015210Y014739D02*
X014160Y014739D01*
X014238Y014818D02*
X015210Y014818D01*
X015210Y014896D02*
X014317Y014896D01*
X016704Y012607D02*
X017021Y012924D01*
X019293Y012924D01*
X019293Y012610D02*
X018858Y012610D01*
X018858Y012707D01*
X018868Y012742D01*
X018886Y012774D01*
X018896Y012784D01*
X017079Y012784D01*
X016902Y012607D01*
X017075Y012434D01*
X018896Y012434D01*
X018886Y012445D01*
X018868Y012477D01*
X018858Y012512D01*
X018858Y012609D01*
X019293Y012609D01*
X019293Y012610D01*
X019293Y012294D02*
X017017Y012294D01*
X016704Y012607D01*
X016913Y012618D02*
X018858Y012618D01*
X018858Y012540D02*
X016969Y012540D01*
X017048Y012461D02*
X018876Y012461D01*
X018858Y012697D02*
X016991Y012697D01*
X017070Y012776D02*
X018887Y012776D01*
X019293Y011979D02*
X015988Y011979D01*
X015960Y012007D01*
X015791Y011664D02*
X015448Y012007D01*
X015791Y011664D02*
X019293Y011664D01*
X018898Y010184D02*
X017335Y010184D01*
X017256Y010105D02*
X018898Y010105D01*
X018898Y010026D02*
X017178Y010026D01*
X017099Y009948D02*
X018920Y009948D01*
X017140Y010498D02*
X016821Y010498D01*
X016742Y010419D02*
X017061Y010419D01*
X016983Y010341D02*
X016663Y010341D01*
X016585Y010262D02*
X016904Y010262D01*
X016826Y010184D02*
X016506Y010184D01*
X016428Y010105D02*
X016747Y010105D01*
X016669Y010026D02*
X016234Y010026D01*
X016234Y009948D02*
X016590Y009948D01*
X016511Y009869D02*
X016233Y009869D01*
X013510Y010969D02*
X013403Y010969D01*
X013290Y011048D02*
X013532Y011048D01*
X012570Y006335D02*
X023318Y006335D01*
X023266Y006256D02*
X022575Y006256D01*
X022653Y006178D02*
X023213Y006178D01*
X023161Y006099D02*
X022687Y006099D01*
X022701Y006021D02*
X023108Y006021D01*
X023056Y005942D02*
X022698Y005942D01*
X022666Y005864D02*
X022984Y005864D01*
X012451Y006021D02*
X012371Y006021D01*
X012371Y006099D02*
X012451Y006099D01*
X012451Y006178D02*
X012371Y006178D01*
X012371Y006256D02*
X012451Y006256D01*
X012451Y006335D02*
X012371Y006335D01*
X019689Y016310D02*
X020289Y016310D01*
X020289Y016389D02*
X019689Y016389D01*
X019689Y016467D02*
X020289Y016467D01*
X020289Y016546D02*
X019652Y016546D01*
X019689Y016624D02*
X020289Y016624D01*
X020289Y016703D02*
X019689Y016703D01*
X019689Y016781D02*
X020289Y016781D01*
X020289Y016860D02*
X019653Y016860D01*
X019689Y016938D02*
X020289Y016938D01*
X020289Y017017D02*
X019689Y017017D01*
X019689Y017095D02*
X020289Y017095D01*
X020289Y017174D02*
X019654Y017174D01*
X019689Y017252D02*
X020289Y017252D01*
X020289Y017331D02*
X019689Y017331D01*
X019689Y017410D02*
X020289Y017410D01*
X020289Y017488D02*
X019654Y017488D01*
X019689Y017567D02*
X020289Y017567D01*
X020289Y017645D02*
X019689Y017645D01*
X019689Y017724D02*
X020289Y017724D01*
X020289Y017802D02*
X019655Y017802D01*
X019689Y017881D02*
X020289Y017881D01*
X020289Y017959D02*
X019689Y017959D01*
X019689Y018038D02*
X020289Y018038D01*
X020289Y018116D02*
X019656Y018116D01*
X019689Y018195D02*
X020289Y018195D01*
X020289Y018274D02*
X019689Y018274D01*
X019689Y018352D02*
X020289Y018352D01*
X020289Y018431D02*
X019657Y018431D01*
X019689Y018509D02*
X020289Y018509D01*
X020289Y018588D02*
X019689Y018588D01*
X019689Y018666D02*
X020289Y018666D01*
X020304Y018745D02*
X019658Y018745D01*
X019689Y018823D02*
X020329Y018823D01*
X020355Y018902D02*
X019689Y018902D01*
X019689Y018980D02*
X020380Y018980D01*
X020406Y019059D02*
X019658Y019059D01*
D19*
X020004Y019007D03*
X020004Y018007D03*
X020004Y017007D03*
X020004Y016007D03*
X020004Y015007D03*
X020004Y014007D03*
X020004Y013007D03*
X020004Y012007D03*
X020004Y011007D03*
X020004Y010007D03*
X020004Y009007D03*
X019004Y008007D03*
X018004Y007007D03*
X017004Y006007D03*
X012504Y009007D03*
X013204Y010807D03*
X012504Y011507D03*
X012504Y012507D03*
X013504Y012007D03*
X014504Y012007D03*
X014504Y013507D03*
X013504Y013507D03*
X014104Y015107D03*
X012804Y015407D03*
X012404Y015627D03*
X011504Y014507D03*
X011504Y013507D03*
X010504Y013507D03*
X010504Y012507D03*
X010504Y011507D03*
X009504Y012507D03*
X007404Y013607D03*
X007404Y014107D03*
X007404Y014607D03*
X007404Y015107D03*
X006604Y015107D03*
X006004Y015807D03*
X005204Y016907D03*
X005804Y018207D03*
X008304Y017607D03*
X009004Y016127D03*
X009804Y016607D03*
X010504Y018007D03*
X011504Y018007D03*
X012504Y018007D03*
X013504Y018007D03*
X014104Y018107D03*
X015504Y019507D03*
X017004Y019007D03*
X018004Y019007D03*
X016604Y018007D03*
X019004Y021007D03*
X020004Y020007D03*
X018004Y022007D03*
X017004Y022007D03*
X017004Y023007D03*
X016004Y023007D03*
X015004Y023007D03*
X014132Y021891D03*
X010504Y021007D03*
X010504Y019007D03*
X007504Y021007D03*
X009004Y015007D03*
X009504Y015007D03*
X006404Y012107D03*
X002004Y014507D03*
X016604Y012954D03*
X017154Y012607D03*
X016704Y013899D03*
X016697Y014614D03*
X018604Y012607D03*
D20*
X015454Y014713D02*
X015448Y014707D01*
X016604Y018007D02*
X016554Y018057D01*
X016004Y018651D02*
X015960Y018607D01*
X016004Y018651D02*
X016004Y019607D01*
X015104Y020507D01*
X013004Y020507D01*
X010411Y023100D01*
X010411Y023164D01*
X010704Y022507D02*
X010004Y022507D01*
X009411Y023100D01*
X009411Y023164D01*
X010704Y022507D02*
X012904Y020307D01*
X014704Y020307D01*
X015504Y019507D01*
X013352Y021124D02*
X012988Y021124D01*
X011404Y022707D01*
X011404Y023157D01*
X011411Y023164D01*
X012404Y023157D02*
X012404Y022007D01*
X013032Y021379D01*
X013352Y021379D01*
X013352Y021891D02*
X014132Y021891D01*
X014748Y022507D01*
X012411Y023164D02*
X012404Y023157D01*
D21*
X015454Y012701D02*
X015454Y012457D01*
X015554Y012357D01*
X016304Y012357D01*
X016554Y012607D01*
X016704Y012607D01*
X015960Y011350D02*
X015960Y011307D01*
X015960Y011350D02*
X019293Y011350D01*
X019293Y011035D02*
X016431Y011035D01*
X016204Y010807D01*
X015960Y010807D01*
X015878Y010207D02*
X016304Y010207D01*
X016816Y010720D01*
X019293Y010720D01*
X014260Y010807D02*
X014260Y010204D01*
D22*
X014137Y009433D02*
X014163Y009407D01*
X016304Y009407D01*
X017301Y010405D01*
X019293Y010405D01*
X015454Y012701D02*
X015454Y013201D01*
X015448Y013207D01*
X015448Y012707D02*
X013404Y012707D01*
X012554Y013557D01*
X014104Y015107D02*
X014126Y015129D01*
X015404Y015129D01*
X015448Y015085D01*
X015448Y014207D01*
X015404Y015129D02*
X019293Y015129D01*
X015448Y018107D02*
X015448Y018607D01*
X015448Y018107D02*
X014104Y018107D01*
X009804Y016607D02*
X008404Y016607D01*
X008360Y016563D01*
X008360Y016107D01*
D23*
X011411Y009807D02*
X013271Y009807D01*
X013304Y009774D01*
D24*
X011411Y009807D02*
X011411Y012414D01*
X012554Y013557D01*
X014104Y015107D01*
X011411Y009807D02*
X011411Y005851D01*
M02*
