G75*
G70*
%OFA0B0*%
%FSLAX24Y24*%
%IPPOS*%
%LPD*%
%AMOC8*
5,1,8,0,0,1.08239X$1,22.5*
%
%ADD10C,0.0001*%
%ADD11C,0.0040*%
%ADD12C,0.0050*%
%ADD13C,0.0120*%
%ADD14R,0.0740X0.0740*%
%ADD15R,0.0820X0.0820*%
%ADD16C,0.0740*%
%ADD17C,0.0820*%
D10*
X001374Y014507D02*
X001386Y015000D01*
X001422Y015492D01*
X001483Y015982D01*
X001567Y016468D01*
X001675Y016949D01*
X001807Y017424D01*
X001961Y017893D01*
X002139Y018353D01*
X002339Y018804D01*
X002561Y019245D01*
X002804Y019674D01*
X003068Y020090D01*
X003352Y020494D01*
X003655Y020883D01*
X003977Y021256D01*
X004318Y021613D01*
X004675Y021954D01*
X005048Y022276D01*
X005437Y022579D01*
X005841Y022863D01*
X006257Y023127D01*
X006686Y023370D01*
X007127Y023592D01*
X007578Y023792D01*
X008038Y023970D01*
X008507Y024124D01*
X008982Y024256D01*
X009463Y024364D01*
X009949Y024448D01*
X010439Y024509D01*
X010931Y024545D01*
X011424Y024557D01*
X011917Y024545D01*
X012409Y024509D01*
X012899Y024448D01*
X013385Y024364D01*
X013866Y024256D01*
X014341Y024124D01*
X014810Y023970D01*
X015270Y023792D01*
X015721Y023592D01*
X016162Y023370D01*
X016591Y023127D01*
X017007Y022863D01*
X017411Y022579D01*
X017800Y022276D01*
X018173Y021954D01*
X018530Y021613D01*
X018871Y021256D01*
X019193Y020883D01*
X019496Y020494D01*
X019780Y020090D01*
X020044Y019674D01*
X020287Y019245D01*
X020509Y018804D01*
X020709Y018353D01*
X020887Y017893D01*
X021041Y017424D01*
X021173Y016949D01*
X021281Y016468D01*
X021365Y015982D01*
X021426Y015492D01*
X021462Y015000D01*
X021474Y014507D01*
X021462Y014014D01*
X021426Y013522D01*
X021365Y013032D01*
X021281Y012546D01*
X021173Y012065D01*
X021041Y011590D01*
X020887Y011121D01*
X020709Y010661D01*
X020509Y010210D01*
X020287Y009769D01*
X020044Y009340D01*
X019780Y008924D01*
X019496Y008520D01*
X019193Y008131D01*
X018871Y007758D01*
X018530Y007401D01*
X018173Y007060D01*
X017800Y006738D01*
X017411Y006435D01*
X017007Y006151D01*
X016591Y005887D01*
X016162Y005644D01*
X015721Y005422D01*
X015270Y005222D01*
X014810Y005044D01*
X014341Y004890D01*
X013866Y004758D01*
X013385Y004650D01*
X012899Y004566D01*
X012409Y004505D01*
X011917Y004469D01*
X011424Y004457D01*
X010931Y004469D01*
X010439Y004505D01*
X009949Y004566D01*
X009463Y004650D01*
X008982Y004758D01*
X008507Y004890D01*
X008038Y005044D01*
X007578Y005222D01*
X007127Y005422D01*
X006686Y005644D01*
X006257Y005887D01*
X005841Y006151D01*
X005437Y006435D01*
X005048Y006738D01*
X004675Y007060D01*
X004318Y007401D01*
X003977Y007758D01*
X003655Y008131D01*
X003352Y008520D01*
X003068Y008924D01*
X002804Y009340D01*
X002561Y009769D01*
X002339Y010210D01*
X002139Y010661D01*
X001961Y011121D01*
X001807Y011590D01*
X001675Y012065D01*
X001567Y012546D01*
X001483Y013032D01*
X001422Y013522D01*
X001386Y014014D01*
X001374Y014507D01*
D11*
X004542Y012334D02*
X004542Y011951D01*
X004618Y011874D01*
X004695Y011874D01*
X004772Y012027D02*
X004542Y012027D01*
X004772Y012027D02*
X004848Y012104D01*
X004848Y012334D01*
X005002Y012258D02*
X005079Y012334D01*
X005232Y012334D01*
X005232Y012181D02*
X005002Y012181D01*
X005002Y012258D02*
X005002Y012027D01*
X005232Y012027D01*
X005309Y012104D01*
X005232Y012181D01*
X005462Y012104D02*
X005462Y012334D01*
X005462Y012104D02*
X005539Y012027D01*
X005616Y012104D01*
X005692Y012027D01*
X005769Y012104D01*
X005769Y012334D01*
X005923Y012258D02*
X005923Y012027D01*
X005923Y012258D02*
X005999Y012334D01*
X006230Y012334D01*
X006230Y012027D01*
X006383Y012181D02*
X006690Y012181D01*
X006690Y012258D02*
X006613Y012334D01*
X006460Y012334D01*
X006383Y012258D01*
X006383Y012181D01*
X006460Y012027D02*
X006613Y012027D01*
X006690Y012104D01*
X006690Y012258D01*
X006843Y012258D02*
X006920Y012334D01*
X007074Y012334D01*
X007150Y012258D01*
X007150Y012104D01*
X007074Y012027D01*
X006920Y012027D01*
X006843Y012181D02*
X007150Y012181D01*
X007304Y012334D02*
X007380Y012334D01*
X007534Y012181D01*
X007534Y012334D02*
X007534Y012027D01*
X007687Y012104D02*
X007687Y012258D01*
X007841Y012258D01*
X007994Y012411D02*
X007994Y012104D01*
X007918Y012027D01*
X007764Y012027D01*
X007687Y012104D01*
X007687Y012411D02*
X007764Y012488D01*
X007918Y012488D01*
X007994Y012411D01*
X008608Y012411D02*
X008608Y012104D01*
X008685Y012027D01*
X008915Y012027D01*
X008915Y012488D01*
X008685Y012488D01*
X008608Y012411D01*
X008608Y013027D02*
X008761Y013027D01*
X008685Y013027D02*
X008685Y013334D01*
X008761Y013334D01*
X008685Y013488D02*
X008685Y013564D01*
X008455Y013334D02*
X008301Y013334D01*
X008378Y013411D02*
X008378Y013104D01*
X008301Y013027D01*
X008148Y013104D02*
X008148Y013258D01*
X008071Y013334D01*
X007918Y013334D01*
X007841Y013258D01*
X007841Y013181D01*
X008148Y013181D01*
X008148Y013104D02*
X008071Y013027D01*
X007918Y013027D01*
X007687Y013027D02*
X007534Y013027D01*
X007611Y013027D02*
X007611Y013488D01*
X007687Y013488D01*
X007380Y013334D02*
X007380Y013027D01*
X007227Y013027D02*
X007227Y013258D01*
X007150Y013334D01*
X007074Y013258D01*
X007074Y013027D01*
X006920Y013104D02*
X006843Y013181D01*
X006613Y013181D01*
X006613Y013258D02*
X006613Y013027D01*
X006843Y013027D01*
X006920Y013104D01*
X006843Y013334D02*
X006690Y013334D01*
X006613Y013258D01*
X006460Y013334D02*
X006460Y013027D01*
X006153Y013027D02*
X006153Y013258D01*
X006230Y013334D01*
X006460Y013334D01*
X007227Y013258D02*
X007304Y013334D01*
X007380Y013334D01*
X006843Y012258D02*
X006843Y012181D01*
X008915Y013181D02*
X009222Y013181D01*
X009222Y013104D02*
X009222Y013258D01*
X009145Y013334D01*
X008992Y013334D01*
X008915Y013258D01*
X008915Y013181D01*
X008992Y013027D02*
X009145Y013027D01*
X009222Y013104D01*
X009529Y013027D02*
X009529Y013488D01*
X009682Y013488D02*
X009375Y013488D01*
X010296Y013258D02*
X010296Y013027D01*
X010296Y013258D02*
X010373Y013334D01*
X010603Y013334D01*
X010603Y013027D01*
X010756Y013027D02*
X010987Y013027D01*
X011063Y013104D01*
X010987Y013181D01*
X010756Y013181D01*
X010756Y013258D02*
X010756Y013027D01*
X010756Y013258D02*
X010833Y013334D01*
X010987Y013334D01*
X011217Y013334D02*
X011370Y013027D01*
X011524Y013334D01*
X011497Y013334D02*
X011497Y013258D01*
X011574Y013258D01*
X011574Y013334D01*
X011497Y013334D01*
X011497Y013104D02*
X011497Y013027D01*
X011574Y013027D01*
X011574Y013104D01*
X011497Y013104D01*
X011677Y013027D02*
X011984Y013027D01*
X011984Y013488D01*
X011677Y013488D01*
X011727Y013334D02*
X011727Y012951D01*
X011804Y012874D01*
X011880Y012874D01*
X011957Y013027D02*
X011727Y013027D01*
X011957Y013027D02*
X012034Y013104D01*
X012034Y013334D01*
X011984Y013258D02*
X011831Y013258D01*
X012187Y013334D02*
X012264Y013258D01*
X012494Y013258D01*
X012494Y013488D02*
X012264Y013488D01*
X012187Y013411D01*
X012187Y013334D01*
X012264Y013258D02*
X012187Y013181D01*
X012187Y013104D01*
X012264Y013027D01*
X012494Y013027D01*
X012494Y013488D01*
X012724Y014027D02*
X013031Y014027D01*
X012878Y014027D02*
X012878Y014488D01*
X013031Y014334D01*
X013645Y014258D02*
X013645Y014027D01*
X013645Y014258D02*
X013722Y014334D01*
X013952Y014334D01*
X013952Y014027D01*
X014105Y014104D02*
X014105Y014258D01*
X014182Y014334D01*
X014336Y014334D01*
X014412Y014258D01*
X014412Y014104D01*
X014336Y014027D01*
X014182Y014027D01*
X014105Y014104D01*
X014566Y014027D02*
X014719Y014027D01*
X014643Y014027D02*
X014643Y014334D01*
X014719Y014334D01*
X014873Y014334D02*
X015103Y014334D01*
X015180Y014258D01*
X015103Y014181D01*
X014949Y014181D01*
X014873Y014104D01*
X014949Y014027D01*
X015180Y014027D01*
X015333Y014334D02*
X015410Y014334D01*
X015563Y014181D01*
X015563Y014334D02*
X015563Y014027D01*
X015717Y014181D02*
X016024Y014181D01*
X016024Y014258D02*
X015947Y014334D01*
X015793Y014334D01*
X015717Y014258D01*
X015717Y014181D01*
X015793Y014027D02*
X015947Y014027D01*
X016024Y014104D01*
X016024Y014258D01*
X016177Y014181D02*
X016177Y014488D01*
X016484Y014488D02*
X016484Y014181D01*
X016331Y014027D01*
X016177Y014181D01*
X016254Y013488D02*
X016484Y013488D01*
X016484Y013027D01*
X016254Y013027D01*
X016177Y013104D01*
X016177Y013411D01*
X016254Y013488D01*
X016024Y013258D02*
X015947Y013334D01*
X015793Y013334D01*
X015717Y013258D01*
X015717Y013181D01*
X016024Y013181D01*
X016024Y013104D02*
X016024Y013258D01*
X016024Y013104D02*
X015947Y013027D01*
X015793Y013027D01*
X015563Y013027D02*
X015333Y013027D01*
X015256Y013104D01*
X015333Y013181D01*
X015487Y013181D01*
X015563Y013258D01*
X015487Y013334D01*
X015256Y013334D01*
X015103Y013334D02*
X015026Y013334D01*
X015026Y013027D01*
X015103Y013027D02*
X014949Y013027D01*
X014796Y013104D02*
X014719Y013027D01*
X014489Y013027D01*
X014489Y012951D02*
X014489Y013334D01*
X014719Y013334D01*
X014796Y013258D01*
X014796Y013104D01*
X014643Y012874D02*
X014566Y012874D01*
X014489Y012951D01*
X014336Y013027D02*
X014336Y013334D01*
X014105Y013334D01*
X014029Y013258D01*
X014029Y013027D01*
X013875Y013104D02*
X013875Y013258D01*
X013799Y013334D01*
X013645Y013334D01*
X013568Y013258D01*
X013568Y013181D01*
X013875Y013181D01*
X013875Y013104D02*
X013799Y013027D01*
X013645Y013027D01*
X013415Y013104D02*
X013415Y013258D01*
X013338Y013334D01*
X013108Y013334D01*
X013108Y013488D02*
X013108Y013027D01*
X013338Y013027D01*
X013415Y013104D01*
X011984Y012488D02*
X011984Y012027D01*
X011831Y012181D01*
X011677Y012027D01*
X011677Y012488D01*
X011447Y012334D02*
X011293Y012334D01*
X011217Y012258D01*
X011217Y012027D01*
X011447Y012027D01*
X011524Y012104D01*
X011447Y012181D01*
X011217Y012181D01*
X011063Y012181D02*
X010910Y012334D01*
X010833Y012334D01*
X010680Y012334D02*
X010680Y012027D01*
X010680Y012181D02*
X010526Y012334D01*
X010449Y012334D01*
X010296Y012258D02*
X010219Y012334D01*
X010066Y012334D01*
X009989Y012258D01*
X009989Y012181D01*
X010296Y012181D01*
X010296Y012104D02*
X010296Y012258D01*
X010296Y012104D02*
X010219Y012027D01*
X010066Y012027D01*
X009836Y012027D02*
X009836Y012334D01*
X009605Y012334D01*
X009529Y012258D01*
X009529Y012027D01*
X011063Y012027D02*
X011063Y012334D01*
X014643Y014488D02*
X014643Y014564D01*
X015026Y013564D02*
X015026Y013488D01*
D12*
X015099Y014849D02*
X015007Y014941D01*
X015007Y015399D01*
X015282Y015399D01*
X015374Y015308D01*
X015374Y015124D01*
X015282Y015032D01*
X015007Y015032D01*
X014822Y015032D02*
X014822Y015399D01*
X014730Y015399D01*
X014638Y015308D01*
X014546Y015399D01*
X014455Y015308D01*
X014455Y015032D01*
X014638Y015032D02*
X014638Y015308D01*
X014269Y015399D02*
X014269Y015124D01*
X014177Y015032D01*
X013902Y015032D01*
X013902Y014941D02*
X013994Y014849D01*
X014086Y014849D01*
X013902Y014941D02*
X013902Y015399D01*
X013164Y015216D02*
X012889Y015216D01*
X012797Y015308D01*
X012797Y015491D01*
X012889Y015583D01*
X013164Y015583D01*
X013164Y015032D01*
X012612Y015124D02*
X012520Y015032D01*
X012337Y015032D01*
X012245Y015124D01*
X012245Y015308D01*
X012337Y015399D01*
X012520Y015399D01*
X012612Y015308D01*
X012612Y015124D01*
X012059Y015124D02*
X011968Y015032D01*
X011876Y015124D01*
X011784Y015032D01*
X011692Y015124D01*
X011692Y015399D01*
X011507Y015308D02*
X011415Y015399D01*
X011232Y015399D01*
X011140Y015308D01*
X011140Y015216D01*
X011507Y015216D01*
X011507Y015124D02*
X011507Y015308D01*
X011507Y015124D02*
X011415Y015032D01*
X011232Y015032D01*
X010955Y015032D02*
X010955Y015399D01*
X010955Y015216D02*
X010771Y015399D01*
X010679Y015399D01*
X009942Y015491D02*
X009942Y015124D01*
X009850Y015032D01*
X009667Y015032D01*
X009575Y015124D01*
X009389Y015124D02*
X009298Y015032D01*
X009114Y015032D01*
X009022Y015124D01*
X009022Y015308D01*
X009114Y015399D01*
X009298Y015399D01*
X009389Y015308D01*
X009389Y015124D01*
X009575Y015491D02*
X009667Y015583D01*
X009850Y015583D01*
X009942Y015491D01*
X008837Y015399D02*
X008837Y015032D01*
X008470Y015032D02*
X008470Y015308D01*
X008562Y015399D01*
X008837Y015399D01*
X008284Y015399D02*
X008101Y015399D01*
X008193Y015491D02*
X008193Y015124D01*
X008101Y015032D01*
X007916Y015032D02*
X007916Y015399D01*
X007916Y015216D02*
X007733Y015399D01*
X007641Y015399D01*
X007456Y015308D02*
X007456Y015124D01*
X007364Y015032D01*
X007181Y015032D01*
X007089Y015124D01*
X007089Y015308D01*
X007181Y015399D01*
X007364Y015399D01*
X007456Y015308D01*
X006903Y015583D02*
X006812Y015583D01*
X006812Y015032D01*
X006903Y015032D02*
X006720Y015032D01*
X005983Y015124D02*
X005891Y015032D01*
X005707Y015032D01*
X005616Y015124D01*
X005616Y015216D01*
X005707Y015308D01*
X005891Y015308D01*
X005983Y015399D01*
X005983Y015491D01*
X005891Y015583D01*
X005707Y015583D01*
X005616Y015491D01*
X005430Y015583D02*
X005430Y015032D01*
X005430Y015308D02*
X005338Y015399D01*
X005155Y015399D01*
X005063Y015308D01*
X005063Y015032D01*
X004878Y015032D02*
X004694Y015032D01*
X004786Y015032D02*
X004786Y015399D01*
X004878Y015399D01*
X004786Y015583D02*
X004786Y015675D01*
X004509Y015308D02*
X004418Y015399D01*
X004234Y015399D01*
X004142Y015308D01*
X004142Y015216D01*
X004509Y015216D01*
X004509Y015124D02*
X004509Y015308D01*
X004509Y015124D02*
X004418Y015032D01*
X004234Y015032D01*
X003957Y015032D02*
X003773Y015032D01*
X003865Y015032D02*
X003865Y015583D01*
X003957Y015583D01*
X003589Y015308D02*
X003497Y015399D01*
X003222Y015399D01*
X003222Y015583D02*
X003222Y015032D01*
X003497Y015032D01*
X003589Y015124D01*
X003589Y015308D01*
X012059Y015399D02*
X012059Y015124D01*
X015099Y014849D02*
X015191Y014849D01*
X015560Y014941D02*
X015560Y015399D01*
X015926Y015399D02*
X015926Y015124D01*
X015835Y015032D01*
X015560Y015032D01*
X015560Y014941D02*
X015651Y014849D01*
X015743Y014849D01*
X016112Y015308D02*
X016204Y015216D01*
X016479Y015216D01*
X016479Y015032D02*
X016479Y015583D01*
X016204Y015583D01*
X016112Y015491D01*
X016112Y015308D01*
D13*
X013439Y017667D02*
X013604Y018057D01*
X013544Y018177D01*
X013229Y018357D01*
X013199Y018612D01*
X013229Y018657D01*
X013574Y018897D01*
X013574Y019032D01*
X013394Y019467D01*
X013304Y019497D01*
X013019Y019437D01*
X012929Y019437D01*
X012749Y019617D01*
X012734Y019692D01*
X012854Y020007D01*
X012839Y020112D01*
X012419Y020382D01*
X012314Y020382D01*
X012059Y020112D01*
X012014Y020052D01*
X011834Y020052D01*
X011789Y020112D01*
X011699Y020442D01*
X011579Y020517D01*
X011114Y020457D01*
X011054Y020412D01*
X011039Y020007D01*
X010904Y019917D01*
X010649Y020067D01*
X010439Y020067D01*
X010199Y019782D01*
X010199Y019677D01*
X010349Y019422D01*
X010364Y019377D01*
X010304Y019227D01*
X010019Y019167D01*
X009959Y019092D01*
X009929Y018732D01*
X009974Y018672D01*
X010169Y018567D01*
X010214Y018507D01*
X010244Y018297D01*
X010049Y018132D01*
X010004Y018042D01*
X010139Y017742D01*
X010229Y017712D01*
X010499Y017757D01*
X010679Y017592D01*
X010694Y017532D01*
X010619Y017277D01*
X010619Y017187D01*
X010889Y016992D01*
X010979Y017022D01*
X011174Y017202D01*
X011234Y017202D01*
X011444Y017142D01*
X011489Y017097D01*
X011549Y016842D01*
X011594Y016782D01*
X011954Y016737D01*
X012014Y016797D01*
X012089Y017097D01*
X012239Y017127D01*
X012314Y017112D01*
X012554Y016917D01*
X012644Y016917D01*
X012959Y017082D01*
X012989Y017157D01*
X012884Y017457D01*
X012899Y017547D01*
X013034Y017667D01*
X013124Y017682D01*
X013364Y017637D01*
X013439Y017667D01*
X012689Y018027D02*
X012749Y018147D01*
X012794Y018327D01*
X012794Y018612D01*
X012779Y018702D01*
X012659Y019002D01*
X012569Y019137D01*
X012494Y019242D01*
X012419Y019317D01*
X012374Y019092D01*
X012344Y019002D01*
X012284Y018957D01*
X012239Y018957D01*
X012134Y019002D01*
X012149Y018837D01*
X012179Y018597D01*
X012209Y018312D01*
X012239Y018102D01*
X012299Y018012D01*
X012374Y017937D01*
X012464Y017892D01*
X012569Y017862D01*
X012629Y017937D01*
X012689Y018027D01*
X011819Y017562D02*
X011744Y017622D01*
X011714Y017712D01*
X011684Y017847D01*
X011669Y017967D01*
X011654Y018072D01*
X011609Y018117D01*
X011429Y018132D01*
X011309Y018177D01*
X011039Y018282D01*
X010859Y018402D01*
X010769Y018522D01*
X010694Y018642D01*
X010694Y018777D01*
X010694Y018642D02*
X010709Y018477D01*
X010739Y018342D01*
X010799Y018207D01*
X010904Y018042D01*
X011024Y017892D01*
X011204Y017757D01*
X011369Y017652D01*
X011669Y017562D01*
X011819Y017562D01*
X011564Y018642D02*
X011489Y018657D01*
X011369Y018732D01*
X011294Y018822D01*
X011279Y018972D01*
X011294Y019062D01*
X011354Y019137D01*
X011459Y019137D01*
X011504Y019092D01*
X011564Y018642D01*
X010979Y019407D02*
X011054Y019482D01*
X011159Y019557D01*
X011459Y019587D01*
X011909Y019572D01*
X011984Y019587D01*
X011759Y019677D01*
X011489Y019692D01*
X011249Y019632D01*
X011159Y019557D01*
D14*
X017504Y019507D03*
D15*
X017504Y019507D03*
D16*
X017504Y018507D03*
X017504Y017507D03*
X017504Y016507D03*
X017504Y015507D03*
X017504Y014507D03*
X017504Y013507D03*
X017504Y012507D03*
X017504Y010507D03*
X017504Y009507D03*
X013411Y005851D03*
X012411Y005851D03*
X011411Y005851D03*
X010411Y005851D03*
X009411Y005851D03*
X008411Y005851D03*
X007704Y006558D03*
X006997Y007265D03*
X006290Y007972D03*
X005583Y008679D03*
X004875Y009386D03*
X004168Y010093D03*
X003461Y010800D03*
X002754Y011507D03*
X002754Y012507D03*
X002754Y013507D03*
X002754Y014507D03*
X002754Y015507D03*
X002754Y016507D03*
X002754Y017507D03*
X003461Y018214D03*
X004168Y018922D03*
X004875Y019629D03*
X005583Y020336D03*
X006290Y021043D03*
X006997Y021750D03*
X007704Y022457D03*
X008411Y023164D03*
X009411Y023164D03*
X010411Y023164D03*
X011411Y023164D03*
X012411Y023164D03*
X013411Y023164D03*
D17*
X007704Y006558D03*
X008411Y005851D03*
X009411Y005851D03*
X010411Y005851D03*
X011411Y005851D03*
X012411Y005851D03*
X013411Y005851D03*
X017504Y009507D03*
X017504Y010507D03*
X017504Y012507D03*
X017504Y013507D03*
X017504Y014507D03*
X017504Y015507D03*
X017504Y016507D03*
X017504Y017507D03*
X017504Y018507D03*
X013411Y023164D03*
X012411Y023164D03*
X011411Y023164D03*
X010411Y023164D03*
X009411Y023164D03*
X008411Y023164D03*
X007704Y022457D03*
X006997Y021750D03*
X006290Y021043D03*
X005583Y020336D03*
X004875Y019629D03*
X004168Y018922D03*
X003461Y018214D03*
X002754Y017507D03*
X002754Y016507D03*
X002754Y015507D03*
X002754Y014507D03*
X002754Y013507D03*
X002754Y012507D03*
X002754Y011507D03*
X003461Y010800D03*
X004168Y010093D03*
X004875Y009386D03*
X005583Y008679D03*
X006290Y007972D03*
X006997Y007265D03*
M02*
