G75*
G70*
%OFA0B0*%
%FSLAX24Y24*%
%IPPOS*%
%LPD*%
%AMOC8*
5,1,8,0,0,1.08239X$1,22.5*
%
%ADD10C,0.0001*%
%ADD11C,0.0040*%
%ADD12C,0.0120*%
%ADD13R,0.0740X0.0740*%
%ADD14R,0.0820X0.0820*%
%ADD15C,0.0740*%
%ADD16C,0.0820*%
D10*
X001374Y014507D02*
X001386Y015000D01*
X001422Y015492D01*
X001483Y015982D01*
X001567Y016468D01*
X001675Y016949D01*
X001807Y017424D01*
X001961Y017893D01*
X002139Y018353D01*
X002339Y018804D01*
X002561Y019245D01*
X002804Y019674D01*
X003068Y020090D01*
X003352Y020494D01*
X003655Y020883D01*
X003977Y021256D01*
X004318Y021613D01*
X004675Y021954D01*
X005048Y022276D01*
X005437Y022579D01*
X005841Y022863D01*
X006257Y023127D01*
X006686Y023370D01*
X007127Y023592D01*
X007578Y023792D01*
X008038Y023970D01*
X008507Y024124D01*
X008982Y024256D01*
X009463Y024364D01*
X009949Y024448D01*
X010439Y024509D01*
X010931Y024545D01*
X011424Y024557D01*
X011917Y024545D01*
X012409Y024509D01*
X012899Y024448D01*
X013385Y024364D01*
X013866Y024256D01*
X014341Y024124D01*
X014810Y023970D01*
X015270Y023792D01*
X015721Y023592D01*
X016162Y023370D01*
X016591Y023127D01*
X017007Y022863D01*
X017411Y022579D01*
X017800Y022276D01*
X018173Y021954D01*
X018530Y021613D01*
X018871Y021256D01*
X019193Y020883D01*
X019496Y020494D01*
X019780Y020090D01*
X020044Y019674D01*
X020287Y019245D01*
X020509Y018804D01*
X020709Y018353D01*
X020887Y017893D01*
X021041Y017424D01*
X021173Y016949D01*
X021281Y016468D01*
X021365Y015982D01*
X021426Y015492D01*
X021462Y015000D01*
X021474Y014507D01*
X021462Y014014D01*
X021426Y013522D01*
X021365Y013032D01*
X021281Y012546D01*
X021173Y012065D01*
X021041Y011590D01*
X020887Y011121D01*
X020709Y010661D01*
X020509Y010210D01*
X020287Y009769D01*
X020044Y009340D01*
X019780Y008924D01*
X019496Y008520D01*
X019193Y008131D01*
X018871Y007758D01*
X018530Y007401D01*
X018173Y007060D01*
X017800Y006738D01*
X017411Y006435D01*
X017007Y006151D01*
X016591Y005887D01*
X016162Y005644D01*
X015721Y005422D01*
X015270Y005222D01*
X014810Y005044D01*
X014341Y004890D01*
X013866Y004758D01*
X013385Y004650D01*
X012899Y004566D01*
X012409Y004505D01*
X011917Y004469D01*
X011424Y004457D01*
X010931Y004469D01*
X010439Y004505D01*
X009949Y004566D01*
X009463Y004650D01*
X008982Y004758D01*
X008507Y004890D01*
X008038Y005044D01*
X007578Y005222D01*
X007127Y005422D01*
X006686Y005644D01*
X006257Y005887D01*
X005841Y006151D01*
X005437Y006435D01*
X005048Y006738D01*
X004675Y007060D01*
X004318Y007401D01*
X003977Y007758D01*
X003655Y008131D01*
X003352Y008520D01*
X003068Y008924D01*
X002804Y009340D01*
X002561Y009769D01*
X002339Y010210D01*
X002139Y010661D01*
X001961Y011121D01*
X001807Y011590D01*
X001675Y012065D01*
X001567Y012546D01*
X001483Y013032D01*
X001422Y013522D01*
X001386Y014014D01*
X001374Y014507D01*
D11*
X004327Y015027D02*
X004583Y015027D01*
X004668Y015112D01*
X004668Y015283D01*
X004583Y015368D01*
X004327Y015368D01*
X004327Y015538D02*
X004327Y015027D01*
X004835Y015027D02*
X005005Y015027D01*
X004920Y015027D02*
X004920Y015538D01*
X005005Y015538D01*
X005256Y015368D02*
X005171Y015283D01*
X005171Y015198D01*
X005512Y015198D01*
X005512Y015283D02*
X005427Y015368D01*
X005256Y015368D01*
X005512Y015283D02*
X005512Y015112D01*
X005427Y015027D01*
X005256Y015027D01*
X005679Y015027D02*
X005849Y015027D01*
X005764Y015027D02*
X005764Y015368D01*
X005849Y015368D01*
X006015Y015283D02*
X006015Y015027D01*
X006015Y015283D02*
X006100Y015368D01*
X006271Y015368D01*
X006356Y015283D01*
X006522Y015198D02*
X006522Y015112D01*
X006607Y015027D01*
X006777Y015027D01*
X006862Y015112D01*
X006777Y015283D02*
X006862Y015368D01*
X006862Y015453D01*
X006777Y015538D01*
X006607Y015538D01*
X006522Y015453D01*
X006356Y015538D02*
X006356Y015027D01*
X006522Y015198D02*
X006607Y015283D01*
X006777Y015283D01*
X007536Y015027D02*
X007706Y015027D01*
X007621Y015027D02*
X007621Y015538D01*
X007706Y015538D01*
X007957Y015368D02*
X008127Y015368D01*
X008212Y015283D01*
X008212Y015112D01*
X008127Y015027D01*
X007957Y015027D01*
X007872Y015112D01*
X007872Y015283D01*
X007957Y015368D01*
X008379Y015368D02*
X008464Y015368D01*
X008634Y015198D01*
X008634Y015368D02*
X008634Y015027D01*
X008802Y015027D02*
X008887Y015112D01*
X008887Y015453D01*
X008972Y015368D02*
X008802Y015368D01*
X009138Y015283D02*
X009138Y015027D01*
X009138Y015283D02*
X009223Y015368D01*
X009479Y015368D01*
X009479Y015027D01*
X009645Y015112D02*
X009645Y015283D01*
X009730Y015368D01*
X009900Y015368D01*
X009985Y015283D01*
X009985Y015112D01*
X009900Y015027D01*
X009730Y015027D01*
X009645Y015112D01*
X010151Y015112D02*
X010236Y015027D01*
X010406Y015027D01*
X010491Y015112D01*
X010491Y015453D01*
X010406Y015538D01*
X010236Y015538D01*
X010151Y015453D01*
X011165Y015368D02*
X011250Y015368D01*
X011420Y015198D01*
X011586Y015198D02*
X011926Y015198D01*
X011926Y015283D02*
X011841Y015368D01*
X011671Y015368D01*
X011586Y015283D01*
X011586Y015198D01*
X011671Y015027D02*
X011841Y015027D01*
X011926Y015112D01*
X011926Y015283D01*
X012092Y015368D02*
X012092Y015112D01*
X012177Y015027D01*
X012262Y015112D01*
X012348Y015027D01*
X012433Y015112D01*
X012433Y015368D01*
X012599Y015283D02*
X012684Y015368D01*
X012854Y015368D01*
X012939Y015283D01*
X012939Y015112D01*
X012854Y015027D01*
X012684Y015027D01*
X012599Y015112D01*
X012599Y015283D01*
X013105Y015283D02*
X013105Y015453D01*
X013190Y015538D01*
X013445Y015538D01*
X013445Y015027D01*
X013445Y015198D02*
X013190Y015198D01*
X013105Y015283D01*
X012878Y014488D02*
X012878Y014027D01*
X013031Y014027D02*
X012724Y014027D01*
X013031Y014334D02*
X012878Y014488D01*
X013645Y014258D02*
X013645Y014027D01*
X013645Y014258D02*
X013722Y014334D01*
X013952Y014334D01*
X013952Y014027D01*
X014105Y014104D02*
X014105Y014258D01*
X014182Y014334D01*
X014336Y014334D01*
X014412Y014258D01*
X014412Y014104D01*
X014336Y014027D01*
X014182Y014027D01*
X014105Y014104D01*
X014566Y014027D02*
X014719Y014027D01*
X014643Y014027D02*
X014643Y014334D01*
X014719Y014334D01*
X014873Y014334D02*
X015103Y014334D01*
X015180Y014258D01*
X015103Y014181D01*
X014949Y014181D01*
X014873Y014104D01*
X014949Y014027D01*
X015180Y014027D01*
X015333Y014334D02*
X015410Y014334D01*
X015563Y014181D01*
X015563Y014334D02*
X015563Y014027D01*
X015717Y014181D02*
X016024Y014181D01*
X016024Y014258D02*
X015947Y014334D01*
X015793Y014334D01*
X015717Y014258D01*
X015717Y014181D01*
X015793Y014027D02*
X015947Y014027D01*
X016024Y014104D01*
X016024Y014258D01*
X016177Y014181D02*
X016177Y014488D01*
X016484Y014488D02*
X016484Y014181D01*
X016331Y014027D01*
X016177Y014181D01*
X015807Y014857D02*
X015722Y014857D01*
X015637Y014942D01*
X015637Y015368D01*
X015471Y015283D02*
X015471Y015112D01*
X015386Y015027D01*
X015131Y015027D01*
X015131Y014942D02*
X015131Y015368D01*
X015386Y015368D01*
X015471Y015283D01*
X015637Y015027D02*
X015892Y015027D01*
X015978Y015112D01*
X015978Y015368D01*
X016144Y015453D02*
X016144Y015283D01*
X016229Y015198D01*
X016484Y015198D01*
X016484Y015027D02*
X016484Y015538D01*
X016229Y015538D01*
X016144Y015453D01*
X015301Y014857D02*
X015216Y014857D01*
X015131Y014942D01*
X014965Y015027D02*
X014965Y015368D01*
X014880Y015368D01*
X014795Y015283D01*
X014709Y015368D01*
X014624Y015283D01*
X014624Y015027D01*
X014795Y015027D02*
X014795Y015283D01*
X014458Y015368D02*
X014458Y015112D01*
X014373Y015027D01*
X014118Y015027D01*
X014118Y014942D02*
X014203Y014857D01*
X014288Y014857D01*
X014118Y014942D02*
X014118Y015368D01*
X014643Y014564D02*
X014643Y014488D01*
X015026Y013064D02*
X015026Y012988D01*
X015026Y012834D02*
X015026Y012527D01*
X015103Y012527D02*
X014949Y012527D01*
X014796Y012604D02*
X014719Y012527D01*
X014489Y012527D01*
X014489Y012451D02*
X014489Y012834D01*
X014719Y012834D01*
X014796Y012758D01*
X014796Y012604D01*
X014643Y012374D02*
X014566Y012374D01*
X014489Y012451D01*
X014336Y012527D02*
X014336Y012834D01*
X014105Y012834D01*
X014029Y012758D01*
X014029Y012527D01*
X013875Y012604D02*
X013875Y012758D01*
X013799Y012834D01*
X013645Y012834D01*
X013568Y012758D01*
X013568Y012681D01*
X013875Y012681D01*
X013875Y012604D02*
X013799Y012527D01*
X013645Y012527D01*
X013415Y012604D02*
X013415Y012758D01*
X013338Y012834D01*
X013108Y012834D01*
X013108Y012988D02*
X013108Y012527D01*
X013338Y012527D01*
X013415Y012604D01*
X013185Y012064D02*
X013185Y011988D01*
X013185Y011834D02*
X013185Y011527D01*
X013261Y011527D02*
X013108Y011527D01*
X012878Y011604D02*
X012878Y011911D01*
X012955Y011834D02*
X012801Y011834D01*
X012648Y011758D02*
X012571Y011834D01*
X012418Y011834D01*
X012341Y011758D01*
X012341Y011681D01*
X012648Y011681D01*
X012648Y011604D02*
X012648Y011758D01*
X012648Y011604D02*
X012571Y011527D01*
X012418Y011527D01*
X012187Y011527D02*
X012034Y011527D01*
X012111Y011527D02*
X012111Y011988D01*
X012187Y011988D01*
X011880Y011834D02*
X011804Y011834D01*
X011727Y011758D01*
X011650Y011834D01*
X011574Y011758D01*
X011574Y011527D01*
X011727Y011527D02*
X011727Y011758D01*
X011880Y011834D02*
X011880Y011527D01*
X011420Y011604D02*
X011343Y011681D01*
X011113Y011681D01*
X011113Y011758D02*
X011113Y011527D01*
X011343Y011527D01*
X011420Y011604D01*
X011343Y011834D02*
X011190Y011834D01*
X011113Y011758D01*
X010960Y011834D02*
X010730Y011834D01*
X010653Y011758D01*
X010653Y011527D01*
X010960Y011527D02*
X010960Y011834D01*
X011497Y012527D02*
X011574Y012527D01*
X011574Y012604D01*
X011497Y012604D01*
X011497Y012527D01*
X011727Y012527D02*
X011957Y012527D01*
X012034Y012604D01*
X012034Y012834D01*
X012187Y012834D02*
X012264Y012758D01*
X012494Y012758D01*
X012494Y012988D02*
X012494Y012527D01*
X012264Y012527D01*
X012187Y012604D01*
X012187Y012681D01*
X012264Y012758D01*
X012187Y012834D02*
X012187Y012911D01*
X012264Y012988D01*
X012494Y012988D01*
X011727Y012834D02*
X011727Y012451D01*
X011804Y012374D01*
X011880Y012374D01*
X011574Y012758D02*
X011574Y012834D01*
X011497Y012834D01*
X011497Y012758D01*
X011574Y012758D01*
X012801Y011527D02*
X012878Y011604D01*
X013185Y011834D02*
X013261Y011834D01*
X013415Y011758D02*
X013415Y011681D01*
X013722Y011681D01*
X013722Y011758D02*
X013645Y011834D01*
X013492Y011834D01*
X013415Y011758D01*
X013492Y011527D02*
X013645Y011527D01*
X013722Y011604D01*
X013722Y011758D01*
X013875Y011988D02*
X014182Y011988D01*
X014029Y011988D02*
X014029Y011527D01*
X014105Y010834D02*
X014029Y010758D01*
X014029Y010527D01*
X014336Y010527D02*
X014336Y010834D01*
X014105Y010834D01*
X014489Y010758D02*
X014489Y010681D01*
X014796Y010681D01*
X014796Y010604D02*
X014796Y010758D01*
X014719Y010834D01*
X014566Y010834D01*
X014489Y010758D01*
X014566Y010527D02*
X014719Y010527D01*
X014796Y010604D01*
X014949Y010834D02*
X015026Y010834D01*
X015180Y010681D01*
X015180Y010834D02*
X015180Y010527D01*
X015333Y010834D02*
X015410Y010834D01*
X015563Y010681D01*
X015563Y010834D02*
X015563Y010527D01*
X015717Y010527D02*
X015717Y010758D01*
X015793Y010834D01*
X015947Y010834D01*
X015947Y010681D02*
X015717Y010681D01*
X015717Y010527D02*
X015947Y010527D01*
X016024Y010604D01*
X015947Y010681D01*
X016177Y010527D02*
X016177Y010988D01*
X016484Y010988D02*
X016484Y010527D01*
X016331Y010681D01*
X016177Y010527D01*
X016177Y011527D02*
X016484Y011527D01*
X016484Y011988D01*
X016177Y011988D01*
X016024Y011834D02*
X015870Y011527D01*
X015717Y011834D01*
X015487Y011834D02*
X015333Y011834D01*
X015256Y011758D01*
X015256Y011527D01*
X015487Y011527D01*
X015563Y011604D01*
X015487Y011681D01*
X015256Y011681D01*
X015103Y011834D02*
X014873Y011834D01*
X014796Y011758D01*
X014796Y011527D01*
X015103Y011527D02*
X015103Y011834D01*
X015333Y012527D02*
X015256Y012604D01*
X015333Y012681D01*
X015487Y012681D01*
X015563Y012758D01*
X015487Y012834D01*
X015256Y012834D01*
X015103Y012834D02*
X015026Y012834D01*
X015333Y012527D02*
X015563Y012527D01*
X015717Y012681D02*
X016024Y012681D01*
X016024Y012758D02*
X015947Y012834D01*
X015793Y012834D01*
X015717Y012758D01*
X015717Y012681D01*
X015793Y012527D02*
X015947Y012527D01*
X016024Y012604D01*
X016024Y012758D01*
X016177Y012911D02*
X016177Y012604D01*
X016254Y012527D01*
X016484Y012527D01*
X016484Y012988D01*
X016254Y012988D01*
X016177Y012911D01*
X016331Y011758D02*
X016484Y011758D01*
X013415Y010988D02*
X013415Y010527D01*
X013185Y010527D01*
X013108Y010604D01*
X013108Y010911D01*
X013185Y010988D01*
X013415Y010988D01*
X012494Y010911D02*
X012494Y010604D01*
X012418Y010527D01*
X012264Y010527D01*
X012187Y010604D01*
X012187Y010758D01*
X012341Y010758D01*
X012494Y010911D02*
X012418Y010988D01*
X012264Y010988D01*
X012187Y010911D01*
X012034Y010834D02*
X012034Y010527D01*
X012034Y010681D02*
X011880Y010834D01*
X011804Y010834D01*
X011650Y010758D02*
X011574Y010834D01*
X011420Y010834D01*
X011343Y010758D01*
X011343Y010681D01*
X011650Y010681D01*
X011650Y010604D02*
X011650Y010758D01*
X011650Y010604D02*
X011574Y010527D01*
X011420Y010527D01*
X011190Y010604D02*
X011190Y010758D01*
X011113Y010834D01*
X010960Y010834D01*
X010883Y010758D01*
X010883Y010681D01*
X011190Y010681D01*
X011190Y010604D02*
X011113Y010527D01*
X010960Y010527D01*
X010730Y010527D02*
X010730Y010834D01*
X010499Y010834D01*
X010423Y010758D01*
X010423Y010527D01*
X010269Y010604D02*
X010192Y010527D01*
X010116Y010604D01*
X010039Y010527D01*
X009962Y010604D01*
X009962Y010834D01*
X009732Y010834D02*
X009579Y010834D01*
X009502Y010758D01*
X009502Y010527D01*
X009732Y010527D01*
X009809Y010604D01*
X009732Y010681D01*
X009502Y010681D01*
X009348Y010604D02*
X009272Y010527D01*
X009042Y010527D01*
X009042Y010451D02*
X009118Y010374D01*
X009195Y010374D01*
X009042Y010451D02*
X009042Y010834D01*
X009348Y010834D02*
X009348Y010604D01*
X010269Y010604D02*
X010269Y010834D01*
X011420Y015027D02*
X011420Y015368D01*
X005764Y015538D02*
X005764Y015623D01*
D12*
X010139Y017742D02*
X010229Y017712D01*
X010499Y017757D01*
X010679Y017592D01*
X010694Y017532D01*
X010619Y017277D01*
X010619Y017187D01*
X010889Y016992D01*
X010979Y017022D01*
X011174Y017202D01*
X011234Y017202D01*
X011444Y017142D01*
X011489Y017097D01*
X011549Y016842D01*
X011594Y016782D01*
X011954Y016737D01*
X012014Y016797D01*
X012089Y017097D01*
X012239Y017127D01*
X012314Y017112D01*
X012554Y016917D01*
X012644Y016917D01*
X012959Y017082D01*
X012989Y017157D01*
X012884Y017457D01*
X012899Y017547D01*
X013034Y017667D01*
X013124Y017682D01*
X013364Y017637D01*
X013439Y017667D01*
X013604Y018057D01*
X013544Y018177D01*
X013229Y018357D01*
X013199Y018612D01*
X013229Y018657D01*
X013574Y018897D01*
X013574Y019032D01*
X013394Y019467D01*
X013304Y019497D01*
X013019Y019437D01*
X012929Y019437D01*
X012749Y019617D01*
X012734Y019692D01*
X012854Y020007D01*
X012839Y020112D01*
X012419Y020382D01*
X012314Y020382D01*
X012059Y020112D01*
X012014Y020052D01*
X011834Y020052D01*
X011789Y020112D01*
X011699Y020442D01*
X011579Y020517D01*
X011114Y020457D01*
X011054Y020412D01*
X011039Y020007D01*
X010904Y019917D01*
X010649Y020067D01*
X010439Y020067D01*
X010199Y019782D01*
X010199Y019677D01*
X010349Y019422D01*
X010364Y019377D01*
X010304Y019227D01*
X010019Y019167D01*
X009959Y019092D01*
X009929Y018732D01*
X009974Y018672D01*
X010169Y018567D01*
X010214Y018507D01*
X010244Y018297D01*
X010049Y018132D01*
X010004Y018042D01*
X010139Y017742D01*
X010799Y018207D02*
X010739Y018342D01*
X010709Y018477D01*
X010694Y018642D01*
X010694Y018777D01*
X010694Y018642D02*
X010769Y018522D01*
X010859Y018402D01*
X011039Y018282D01*
X011309Y018177D01*
X011429Y018132D01*
X011609Y018117D01*
X011654Y018072D01*
X011669Y017967D01*
X011684Y017847D01*
X011714Y017712D01*
X011744Y017622D01*
X011819Y017562D01*
X011669Y017562D01*
X011369Y017652D01*
X011204Y017757D01*
X011024Y017892D01*
X010904Y018042D01*
X010799Y018207D01*
X011369Y018732D02*
X011489Y018657D01*
X011564Y018642D01*
X011504Y019092D01*
X011459Y019137D01*
X011354Y019137D01*
X011294Y019062D01*
X011279Y018972D01*
X011294Y018822D01*
X011369Y018732D01*
X010979Y019407D02*
X011054Y019482D01*
X011159Y019557D01*
X011459Y019587D01*
X011909Y019572D01*
X011984Y019587D01*
X011759Y019677D01*
X011489Y019692D01*
X011249Y019632D01*
X011159Y019557D01*
X012134Y019002D02*
X012149Y018837D01*
X012179Y018597D01*
X012209Y018312D01*
X012239Y018102D01*
X012299Y018012D01*
X012374Y017937D01*
X012464Y017892D01*
X012569Y017862D01*
X012629Y017937D01*
X012689Y018027D01*
X012749Y018147D01*
X012794Y018327D01*
X012794Y018612D01*
X012779Y018702D01*
X012659Y019002D01*
X012569Y019137D01*
X012494Y019242D01*
X012419Y019317D01*
X012374Y019092D01*
X012344Y019002D01*
X012284Y018957D01*
X012239Y018957D01*
X012134Y019002D01*
D13*
X017504Y019507D03*
D14*
X017504Y019507D03*
D15*
X017504Y018507D03*
X017504Y017507D03*
X017504Y016507D03*
X017504Y015507D03*
X017504Y014507D03*
X017504Y013507D03*
X017504Y012507D03*
X017504Y010507D03*
X017504Y009507D03*
X013411Y005851D03*
X012411Y005851D03*
X011411Y005851D03*
X010411Y005851D03*
X009411Y005851D03*
X008411Y005851D03*
X007704Y006558D03*
X006997Y007265D03*
X006290Y007972D03*
X005583Y008679D03*
X004875Y009386D03*
X004168Y010093D03*
X003461Y010800D03*
X002754Y011507D03*
X002754Y012507D03*
X002754Y013507D03*
X002754Y014507D03*
X002754Y015507D03*
X002754Y016507D03*
X002754Y017507D03*
X003461Y018214D03*
X004168Y018922D03*
X004875Y019629D03*
X005583Y020336D03*
X006290Y021043D03*
X006997Y021750D03*
X007704Y022457D03*
X008411Y023164D03*
X009411Y023164D03*
X010411Y023164D03*
X011411Y023164D03*
X012411Y023164D03*
X013411Y023164D03*
D16*
X007704Y006558D03*
X008411Y005851D03*
X009411Y005851D03*
X010411Y005851D03*
X011411Y005851D03*
X012411Y005851D03*
X013411Y005851D03*
X017504Y009507D03*
X017504Y010507D03*
X017504Y012507D03*
X017504Y013507D03*
X017504Y014507D03*
X017504Y015507D03*
X017504Y016507D03*
X017504Y017507D03*
X017504Y018507D03*
X013411Y023164D03*
X012411Y023164D03*
X011411Y023164D03*
X010411Y023164D03*
X009411Y023164D03*
X008411Y023164D03*
X007704Y022457D03*
X006997Y021750D03*
X006290Y021043D03*
X005583Y020336D03*
X004875Y019629D03*
X004168Y018922D03*
X003461Y018214D03*
X002754Y017507D03*
X002754Y016507D03*
X002754Y015507D03*
X002754Y014507D03*
X002754Y013507D03*
X002754Y012507D03*
X002754Y011507D03*
X003461Y010800D03*
X004168Y010093D03*
X004875Y009386D03*
X005583Y008679D03*
X006290Y007972D03*
X006997Y007265D03*
M02*
