G75*
G70*
%OFA0B0*%
%FSLAX24Y24*%
%IPPOS*%
%LPD*%
%AMOC8*
5,1,8,0,0,1.08239X$1,22.5*
%
%ADD10R,0.0670X0.0790*%
%ADD11R,0.0866X0.0197*%
%ADD12R,0.0276X0.0354*%
%ADD13R,0.0217X0.0472*%
D10*
X011668Y005566D03*
D11*
X012702Y007905D03*
X012702Y008405D03*
X012702Y008905D03*
X012702Y009401D03*
X015185Y009401D03*
X015185Y008901D03*
X015185Y008401D03*
X015185Y007901D03*
X010185Y007901D03*
X010185Y008401D03*
X010185Y008901D03*
X010185Y009401D03*
X007702Y009401D03*
X007702Y008905D03*
X007702Y008405D03*
X007702Y007905D03*
X007702Y012905D03*
X007702Y013405D03*
X007702Y013905D03*
X007702Y014401D03*
X010185Y014401D03*
X010185Y013901D03*
X010185Y013401D03*
X010185Y012901D03*
X012702Y012905D03*
X012702Y013405D03*
X012702Y013905D03*
X012702Y014401D03*
X015185Y014401D03*
X015185Y013901D03*
X015185Y013401D03*
X015185Y012901D03*
D12*
X015199Y012151D03*
X014688Y012151D03*
X013199Y012151D03*
X012688Y012151D03*
X010099Y012151D03*
X009588Y012151D03*
X008299Y012151D03*
X007788Y012151D03*
X008688Y010151D03*
X009199Y010151D03*
X013688Y010151D03*
X014199Y010151D03*
X014199Y007151D03*
X013688Y007151D03*
X009199Y007151D03*
X008688Y007151D03*
D13*
X005817Y008339D03*
X005443Y008339D03*
X005069Y008339D03*
X005069Y009363D03*
X005443Y009363D03*
X005817Y009363D03*
X005817Y012939D03*
X005443Y012939D03*
X005069Y012939D03*
X005069Y013963D03*
X005443Y013963D03*
X005817Y013963D03*
M02*
