G75*
G70*
%OFA0B0*%
%FSLAX24Y24*%
%IPPOS*%
%LPD*%
%AMOC8*
5,1,8,0,0,1.08239X$1,22.5*
%
%ADD10R,0.0820X0.0820*%
%ADD11C,0.0820*%
%ADD12R,0.0330X0.0580*%
%ADD13R,0.0946X0.0277*%
%ADD14R,0.0356X0.0434*%
%ADD15R,0.0297X0.0552*%
D10*
X017443Y016151D03*
D11*
X007643Y003201D03*
X006936Y003909D03*
X006229Y004616D03*
X005522Y005323D03*
X004815Y006030D03*
X004108Y006737D03*
X003401Y007444D03*
X002694Y008151D03*
X002694Y009151D03*
X002694Y010151D03*
X002694Y011151D03*
X002693Y012151D03*
X002693Y013151D03*
X002694Y014151D03*
X003401Y014858D03*
X004108Y015565D03*
X004815Y016272D03*
X005522Y016980D03*
X006229Y017687D03*
X006936Y018394D03*
X007643Y019101D03*
X008350Y019808D03*
X009350Y019808D03*
X010350Y019808D03*
X011350Y019808D03*
X012350Y019808D03*
X013350Y019808D03*
X017443Y015151D03*
X017443Y014151D03*
X017443Y013151D03*
X017443Y012151D03*
X017443Y011151D03*
X017443Y010151D03*
X017443Y009151D03*
X017443Y007151D03*
X017443Y006151D03*
X013350Y002494D03*
X012350Y002494D03*
X011350Y002494D03*
X010350Y002494D03*
X009350Y002494D03*
X008350Y002494D03*
D12*
X011123Y005571D03*
X011443Y005571D03*
X011763Y005571D03*
D13*
X012702Y007905D03*
X012702Y008405D03*
X012702Y008905D03*
X012702Y009401D03*
X015185Y009401D03*
X015185Y008901D03*
X015185Y008401D03*
X015185Y007901D03*
X010185Y007901D03*
X010185Y008401D03*
X010185Y008901D03*
X010185Y009401D03*
X007702Y009401D03*
X007702Y008905D03*
X007702Y008405D03*
X007702Y007905D03*
X007702Y012905D03*
X007702Y013405D03*
X007702Y013905D03*
X007702Y014401D03*
X010185Y014401D03*
X010185Y013901D03*
X010185Y013401D03*
X010185Y012901D03*
X012702Y012905D03*
X012702Y013405D03*
X012702Y013905D03*
X012702Y014401D03*
X015185Y014401D03*
X015185Y013901D03*
X015185Y013401D03*
X015185Y012901D03*
D14*
X015199Y012151D03*
X014688Y012151D03*
X013199Y012151D03*
X012688Y012151D03*
X010099Y012151D03*
X009588Y012151D03*
X008299Y012151D03*
X007788Y012151D03*
X008688Y010151D03*
X009199Y010151D03*
X013688Y010151D03*
X014199Y010151D03*
X014199Y007151D03*
X013688Y007151D03*
X009199Y007151D03*
X008688Y007151D03*
D15*
X005817Y008339D03*
X005443Y008339D03*
X005069Y008339D03*
X005069Y009363D03*
X005443Y009363D03*
X005817Y009363D03*
X005817Y012939D03*
X005443Y012939D03*
X005069Y012939D03*
X005069Y013963D03*
X005443Y013963D03*
X005817Y013963D03*
M02*
