G75*
G70*
%OFA0B0*%
%FSLAX24Y24*%
%IPPOS*%
%LPD*%
%AMOC8*
5,1,8,0,0,1.08239X$1,22.5*
%
%ADD10C,0.0001*%
%ADD11C,0.0040*%
D10*
X001313Y011151D02*
X001325Y011644D01*
X001361Y012136D01*
X001422Y012626D01*
X001506Y013112D01*
X001614Y013593D01*
X001746Y014068D01*
X001900Y014537D01*
X002078Y014997D01*
X002278Y015448D01*
X002500Y015889D01*
X002743Y016318D01*
X003007Y016734D01*
X003291Y017138D01*
X003594Y017527D01*
X003916Y017900D01*
X004257Y018257D01*
X004614Y018598D01*
X004987Y018920D01*
X005376Y019223D01*
X005780Y019507D01*
X006196Y019771D01*
X006625Y020014D01*
X007066Y020236D01*
X007517Y020436D01*
X007977Y020614D01*
X008446Y020768D01*
X008921Y020900D01*
X009402Y021008D01*
X009888Y021092D01*
X010378Y021153D01*
X010870Y021189D01*
X011363Y021201D01*
X011856Y021189D01*
X012348Y021153D01*
X012838Y021092D01*
X013324Y021008D01*
X013805Y020900D01*
X014280Y020768D01*
X014749Y020614D01*
X015209Y020436D01*
X015660Y020236D01*
X016101Y020014D01*
X016530Y019771D01*
X016946Y019507D01*
X017350Y019223D01*
X017739Y018920D01*
X018112Y018598D01*
X018469Y018257D01*
X018810Y017900D01*
X019132Y017527D01*
X019435Y017138D01*
X019719Y016734D01*
X019983Y016318D01*
X020226Y015889D01*
X020448Y015448D01*
X020648Y014997D01*
X020826Y014537D01*
X020980Y014068D01*
X021112Y013593D01*
X021220Y013112D01*
X021304Y012626D01*
X021365Y012136D01*
X021401Y011644D01*
X021413Y011151D01*
X021401Y010658D01*
X021365Y010166D01*
X021304Y009676D01*
X021220Y009190D01*
X021112Y008709D01*
X020980Y008234D01*
X020826Y007765D01*
X020648Y007305D01*
X020448Y006854D01*
X020226Y006413D01*
X019983Y005984D01*
X019719Y005568D01*
X019435Y005164D01*
X019132Y004775D01*
X018810Y004402D01*
X018469Y004045D01*
X018112Y003704D01*
X017739Y003382D01*
X017350Y003079D01*
X016946Y002795D01*
X016530Y002531D01*
X016101Y002288D01*
X015660Y002066D01*
X015209Y001866D01*
X014749Y001688D01*
X014280Y001534D01*
X013805Y001402D01*
X013324Y001294D01*
X012838Y001210D01*
X012348Y001149D01*
X011856Y001113D01*
X011363Y001101D01*
X010870Y001113D01*
X010378Y001149D01*
X009888Y001210D01*
X009402Y001294D01*
X008921Y001402D01*
X008446Y001534D01*
X007977Y001688D01*
X007517Y001866D01*
X007066Y002066D01*
X006625Y002288D01*
X006196Y002531D01*
X005780Y002795D01*
X005376Y003079D01*
X004987Y003382D01*
X004614Y003704D01*
X004257Y004045D01*
X003916Y004402D01*
X003594Y004775D01*
X003291Y005164D01*
X003007Y005568D01*
X002743Y005984D01*
X002500Y006413D01*
X002278Y006854D01*
X002078Y007305D01*
X001900Y007765D01*
X001746Y008234D01*
X001614Y008709D01*
X001506Y009190D01*
X001422Y009676D01*
X001361Y010166D01*
X001325Y010658D01*
X001313Y011151D01*
D11*
X010363Y006248D02*
X010440Y006171D01*
X010594Y006171D01*
X010670Y006248D01*
X010670Y006401D01*
X010594Y006478D01*
X010517Y006478D01*
X010363Y006401D01*
X010363Y006632D01*
X010670Y006632D01*
X010824Y006632D02*
X010824Y006325D01*
X010977Y006171D01*
X011131Y006325D01*
X011131Y006632D01*
X011270Y006871D02*
X011117Y007025D01*
X011194Y007025D02*
X010963Y007025D01*
X010963Y006871D02*
X010963Y007332D01*
X011194Y007332D01*
X011270Y007255D01*
X011270Y007101D01*
X011194Y007025D01*
X011424Y007025D02*
X011731Y007025D01*
X011731Y007101D01*
X011654Y007178D01*
X011501Y007178D01*
X011424Y007101D01*
X011424Y006948D01*
X011501Y006871D01*
X011654Y006871D01*
X011961Y006871D02*
X011961Y007255D01*
X012038Y007332D01*
X012038Y007101D02*
X011884Y007101D01*
X011940Y006632D02*
X011863Y006555D01*
X011863Y006248D01*
X012170Y006555D01*
X012170Y006248D01*
X012094Y006171D01*
X011940Y006171D01*
X011863Y006248D01*
X011940Y006632D02*
X012094Y006632D01*
X012170Y006555D01*
X012324Y006632D02*
X012324Y006325D01*
X012477Y006171D01*
X012631Y006325D01*
X012631Y006632D01*
X015463Y006332D02*
X015463Y005871D01*
X015463Y006025D02*
X015694Y006025D01*
X015770Y006101D01*
X015770Y006255D01*
X015694Y006332D01*
X015463Y006332D01*
X015617Y006025D02*
X015770Y005871D01*
X015924Y005948D02*
X016001Y005871D01*
X016154Y005871D01*
X016231Y006025D02*
X015924Y006025D01*
X015924Y006101D02*
X016001Y006178D01*
X016154Y006178D01*
X016231Y006101D01*
X016231Y006025D01*
X016384Y006101D02*
X016538Y006101D01*
X016461Y006255D02*
X016461Y005871D01*
X015924Y005948D02*
X015924Y006101D01*
X016461Y006255D02*
X016538Y006332D01*
X016538Y006871D02*
X016538Y007101D01*
X016461Y007178D01*
X016231Y007178D01*
X016231Y006871D01*
X016077Y006871D02*
X015924Y006871D01*
X016001Y006871D02*
X016001Y007178D01*
X015924Y007178D01*
X016001Y007332D02*
X016001Y007408D01*
X015770Y007332D02*
X015770Y007025D01*
X015617Y006871D01*
X015463Y007025D01*
X015463Y007332D01*
X016290Y008921D02*
X016213Y008998D01*
X016213Y009075D01*
X016290Y009151D01*
X016444Y009151D01*
X016520Y009075D01*
X016520Y008998D01*
X016444Y008921D01*
X016290Y008921D01*
X016290Y009151D02*
X016213Y009228D01*
X016213Y009305D01*
X016290Y009382D01*
X016444Y009382D01*
X016520Y009305D01*
X016520Y009228D01*
X016444Y009151D01*
X016213Y009921D02*
X016213Y009998D01*
X016520Y010305D01*
X016520Y010382D01*
X016213Y010382D01*
X016290Y010921D02*
X016444Y010921D01*
X016520Y010998D01*
X016520Y011075D01*
X016444Y011151D01*
X016213Y011151D01*
X016213Y010998D01*
X016290Y010921D01*
X016213Y011151D02*
X016367Y011305D01*
X016520Y011382D01*
X016444Y011921D02*
X016290Y011921D01*
X016213Y011998D01*
X016213Y012151D02*
X016367Y012228D01*
X016444Y012228D01*
X016520Y012151D01*
X016520Y011998D01*
X016444Y011921D01*
X016213Y012151D02*
X016213Y012382D01*
X016520Y012382D01*
X016444Y012921D02*
X016444Y013382D01*
X016213Y013151D01*
X016520Y013151D01*
X016444Y013921D02*
X016290Y013921D01*
X016213Y013998D01*
X016367Y014151D02*
X016444Y014151D01*
X016520Y014075D01*
X016520Y013998D01*
X016444Y013921D01*
X016444Y014151D02*
X016520Y014228D01*
X016520Y014305D01*
X016444Y014382D01*
X016290Y014382D01*
X016213Y014305D01*
X016213Y014921D02*
X016520Y015228D01*
X016520Y015305D01*
X016444Y015382D01*
X016290Y015382D01*
X016213Y015305D01*
X016213Y014921D02*
X016520Y014921D01*
X016520Y015921D02*
X016213Y015921D01*
X016367Y015921D02*
X016367Y016382D01*
X016213Y016228D01*
M02*
