G75*
G70*
%OFA0B0*%
%FSLAX24Y24*%
%IPPOS*%
%LPD*%
%AMOC8*
5,1,8,0,0,1.08239X$1,22.5*
%
%ADD10C,0.0001*%
D10*
X001313Y011151D02*
X001325Y011644D01*
X001361Y012136D01*
X001422Y012626D01*
X001506Y013112D01*
X001614Y013593D01*
X001746Y014068D01*
X001900Y014537D01*
X002078Y014997D01*
X002278Y015448D01*
X002500Y015889D01*
X002743Y016318D01*
X003007Y016734D01*
X003291Y017138D01*
X003594Y017527D01*
X003916Y017900D01*
X004257Y018257D01*
X004614Y018598D01*
X004987Y018920D01*
X005376Y019223D01*
X005780Y019507D01*
X006196Y019771D01*
X006625Y020014D01*
X007066Y020236D01*
X007517Y020436D01*
X007977Y020614D01*
X008446Y020768D01*
X008921Y020900D01*
X009402Y021008D01*
X009888Y021092D01*
X010378Y021153D01*
X010870Y021189D01*
X011363Y021201D01*
X011856Y021189D01*
X012348Y021153D01*
X012838Y021092D01*
X013324Y021008D01*
X013805Y020900D01*
X014280Y020768D01*
X014749Y020614D01*
X015209Y020436D01*
X015660Y020236D01*
X016101Y020014D01*
X016530Y019771D01*
X016946Y019507D01*
X017350Y019223D01*
X017739Y018920D01*
X018112Y018598D01*
X018469Y018257D01*
X018810Y017900D01*
X019132Y017527D01*
X019435Y017138D01*
X019719Y016734D01*
X019983Y016318D01*
X020226Y015889D01*
X020448Y015448D01*
X020648Y014997D01*
X020826Y014537D01*
X020980Y014068D01*
X021112Y013593D01*
X021220Y013112D01*
X021304Y012626D01*
X021365Y012136D01*
X021401Y011644D01*
X021413Y011151D01*
X021401Y010658D01*
X021365Y010166D01*
X021304Y009676D01*
X021220Y009190D01*
X021112Y008709D01*
X020980Y008234D01*
X020826Y007765D01*
X020648Y007305D01*
X020448Y006854D01*
X020226Y006413D01*
X019983Y005984D01*
X019719Y005568D01*
X019435Y005164D01*
X019132Y004775D01*
X018810Y004402D01*
X018469Y004045D01*
X018112Y003704D01*
X017739Y003382D01*
X017350Y003079D01*
X016946Y002795D01*
X016530Y002531D01*
X016101Y002288D01*
X015660Y002066D01*
X015209Y001866D01*
X014749Y001688D01*
X014280Y001534D01*
X013805Y001402D01*
X013324Y001294D01*
X012838Y001210D01*
X012348Y001149D01*
X011856Y001113D01*
X011363Y001101D01*
X010870Y001113D01*
X010378Y001149D01*
X009888Y001210D01*
X009402Y001294D01*
X008921Y001402D01*
X008446Y001534D01*
X007977Y001688D01*
X007517Y001866D01*
X007066Y002066D01*
X006625Y002288D01*
X006196Y002531D01*
X005780Y002795D01*
X005376Y003079D01*
X004987Y003382D01*
X004614Y003704D01*
X004257Y004045D01*
X003916Y004402D01*
X003594Y004775D01*
X003291Y005164D01*
X003007Y005568D01*
X002743Y005984D01*
X002500Y006413D01*
X002278Y006854D01*
X002078Y007305D01*
X001900Y007765D01*
X001746Y008234D01*
X001614Y008709D01*
X001506Y009190D01*
X001422Y009676D01*
X001361Y010166D01*
X001325Y010658D01*
X001313Y011151D01*
M02*
