%
M48
M72
T01C0.0150
T02C0.0400
%
T01
X9643Y6951
X9643Y7351
X9163Y7591
X11743Y7911
X13243Y7351
X13243Y6951
X13743Y8951
X14643Y9951
X14643Y10351
X13083Y11111
X12763Y11111
X12463Y11751
X13643Y11951
X13643Y12351
X13503Y13335
X15643Y12351
X15643Y11951
X11243Y10071
X10923Y10071
X9643Y9951
X9643Y10351
X8943Y11951
X8943Y12351
X8943Y12851
X7343Y12151
X5843Y12151
X5469Y11376
X5718Y10126
X10743Y11951
X10743Y12351
X8683Y14311
X8043Y15351
X8043Y15751
X5143Y14551
X4643Y12951
T02
X7643Y3201
X6936Y3909
X6229Y4616
X5522Y5323
X4815Y6030
X4108Y6737
X3401Y7444
X2694Y8151
X2694Y9151
X2694Y10151
X2694Y11151
X2693Y12151
X2693Y13151
X2694Y14151
X3401Y14858
X4108Y15565
X4815Y16272
X5522Y16980
X6229Y17687
X6936Y18394
X7643Y19101
X8350Y19808
X9350Y19808
X10350Y19808
X11350Y19808
X12350Y19808
X13350Y19808
X17443Y16151
X17443Y15151
X17443Y14151
X17443Y13151
X17443Y12151
X17443Y11151
X17443Y10151
X17443Y9151
X17443Y7151
X17443Y6151
X13350Y2494
X12350Y2494
X11350Y2494
X10350Y2494
X9350Y2494
X8350Y2494
M30
