G75*
G70*
%OFA0B0*%
%FSLAX24Y24*%
%IPPOS*%
%LPD*%
%AMOC8*
5,1,8,0,0,1.08239X$1,22.5*
%
%ADD10R,0.0297X0.0474*%
%ADD11R,0.0474X0.0297*%
%ADD12R,0.0297X0.0552*%
%ADD13R,0.0631X0.0356*%
%ADD14R,0.0552X0.0356*%
%ADD15R,0.0552X0.0552*%
%ADD16R,0.0395X0.0552*%
%ADD17R,0.1340X0.0552*%
%ADD18R,0.0828X0.0671*%
%ADD19R,0.0631X0.0474*%
%ADD20R,0.0356X0.0434*%
%ADD21R,0.0434X0.0356*%
%ADD22C,0.0820*%
%ADD23R,0.0330X0.0580*%
D10*
X008091Y009207D03*
X008485Y009207D03*
X008879Y009207D03*
X009272Y009207D03*
X009666Y009207D03*
X010060Y009207D03*
X010060Y013144D03*
X010454Y013144D03*
X009666Y013144D03*
X009272Y013144D03*
X008879Y013144D03*
X008485Y013144D03*
D11*
X007304Y012357D03*
X007304Y011963D03*
X007304Y011570D03*
X007304Y011176D03*
X007304Y010782D03*
X007304Y010389D03*
X011241Y010389D03*
X011241Y010782D03*
X011241Y011176D03*
X011241Y011570D03*
X011241Y011963D03*
X011241Y009995D03*
D12*
X012930Y009696D03*
X013304Y009696D03*
X013678Y009696D03*
X013678Y010719D03*
X012930Y010719D03*
X012930Y012196D03*
X013304Y012196D03*
X013678Y012196D03*
X013678Y013219D03*
X012930Y013219D03*
D13*
X008080Y016007D03*
X008080Y016440D03*
X008080Y016874D03*
X008080Y017307D03*
X008080Y017740D03*
X008080Y018173D03*
X008080Y018606D03*
X008080Y019039D03*
D14*
X008040Y019433D03*
D15*
X009733Y019787D03*
D16*
X012174Y019787D03*
D17*
X013591Y019787D03*
D18*
X013985Y014511D03*
D19*
X008080Y015259D03*
D20*
X007060Y016007D03*
X006548Y016007D03*
X006548Y016507D03*
X007060Y016507D03*
X007060Y017007D03*
X006548Y017007D03*
X006548Y018007D03*
X006548Y018507D03*
X007060Y018507D03*
X007060Y018007D03*
X007060Y019007D03*
X006548Y019007D03*
X006548Y019507D03*
X006548Y020007D03*
X007060Y020007D03*
X007060Y019507D03*
X013148Y008707D03*
X013660Y008707D03*
D21*
X012404Y010251D03*
X012404Y010763D03*
X012204Y012751D03*
X012204Y013263D03*
D22*
X007704Y006558D03*
X008411Y005851D03*
X009411Y005851D03*
X010411Y005851D03*
X011411Y005851D03*
X012411Y005851D03*
X013411Y005851D03*
X006997Y007265D03*
X006290Y007972D03*
X005583Y008679D03*
X004875Y009386D03*
X004168Y010093D03*
X003461Y010800D03*
X002754Y011507D03*
X002754Y012507D03*
X002754Y013507D03*
X002754Y014507D03*
X002754Y015507D03*
X002754Y016507D03*
X002754Y017507D03*
X003461Y018214D03*
X004168Y018922D03*
X004875Y019629D03*
X005583Y020336D03*
X006290Y021043D03*
X006997Y021750D03*
X007704Y022457D03*
X008411Y023164D03*
X009411Y023164D03*
X010411Y023164D03*
X011411Y023164D03*
X012411Y023164D03*
X013411Y023164D03*
D23*
X013454Y007607D03*
X013104Y007607D03*
X012754Y007607D03*
M02*
