G75*
G70*
%OFA0B0*%
%FSLAX24Y24*%
%IPPOS*%
%LPD*%
%AMOC8*
5,1,8,0,0,1.08239X$1,22.5*
%
%ADD10C,0.0040*%
%ADD11C,0.0050*%
%ADD12C,0.0010*%
%ADD13C,0.0080*%
D10*
X007968Y013174D02*
X008045Y013174D01*
X007968Y013174D02*
X007892Y013251D01*
X007892Y013634D01*
X008198Y013634D02*
X008198Y013404D01*
X008122Y013327D01*
X007892Y013327D01*
X008352Y013327D02*
X008352Y013558D01*
X008429Y013634D01*
X008582Y013634D01*
X008582Y013481D02*
X008352Y013481D01*
X008352Y013327D02*
X008582Y013327D01*
X008659Y013404D01*
X008582Y013481D01*
X008812Y013404D02*
X008812Y013634D01*
X008812Y013404D02*
X008889Y013327D01*
X008966Y013404D01*
X009042Y013327D01*
X009119Y013404D01*
X009119Y013634D01*
X009273Y013558D02*
X009273Y013327D01*
X009273Y013558D02*
X009349Y013634D01*
X009580Y013634D01*
X009580Y013327D01*
X009733Y013481D02*
X010040Y013481D01*
X010040Y013404D02*
X010040Y013558D01*
X009963Y013634D01*
X009810Y013634D01*
X009733Y013558D01*
X009733Y013481D01*
X009810Y013327D02*
X009963Y013327D01*
X010040Y013404D01*
X010193Y013481D02*
X010500Y013481D01*
X010500Y013404D02*
X010500Y013558D01*
X010424Y013634D01*
X010270Y013634D01*
X010193Y013558D01*
X010193Y013481D01*
X010270Y013327D02*
X010424Y013327D01*
X010500Y013404D01*
X010654Y013634D02*
X010730Y013634D01*
X010884Y013481D01*
X010884Y013634D02*
X010884Y013327D01*
X011037Y013404D02*
X011037Y013558D01*
X011191Y013558D01*
X011344Y013711D02*
X011344Y013404D01*
X011268Y013327D01*
X011114Y013327D01*
X011037Y013404D01*
X011037Y013711D02*
X011114Y013788D01*
X011268Y013788D01*
X011344Y013711D01*
X011268Y014127D02*
X011421Y014127D01*
X011498Y014204D01*
X011498Y014358D01*
X011421Y014434D01*
X011268Y014434D01*
X011191Y014358D01*
X011191Y014281D01*
X011498Y014281D01*
X011651Y014434D02*
X011805Y014434D01*
X011728Y014511D02*
X011728Y014204D01*
X011651Y014127D01*
X011958Y014127D02*
X012111Y014127D01*
X012035Y014127D02*
X012035Y014434D01*
X012111Y014434D01*
X012035Y014588D02*
X012035Y014664D01*
X012265Y014358D02*
X012265Y014281D01*
X012572Y014281D01*
X012572Y014358D02*
X012495Y014434D01*
X012342Y014434D01*
X012265Y014358D01*
X012342Y014127D02*
X012495Y014127D01*
X012572Y014204D01*
X012572Y014358D01*
X012725Y014588D02*
X013032Y014588D01*
X012879Y014588D02*
X012879Y014127D01*
X012955Y013634D02*
X012879Y013558D01*
X012879Y013327D01*
X013186Y013327D02*
X013186Y013634D01*
X012955Y013634D01*
X013339Y013558D02*
X013339Y013481D01*
X013646Y013481D01*
X013646Y013404D02*
X013646Y013558D01*
X013569Y013634D01*
X013416Y013634D01*
X013339Y013558D01*
X013416Y013327D02*
X013569Y013327D01*
X013646Y013404D01*
X013799Y013634D02*
X013876Y013634D01*
X014030Y013481D01*
X014030Y013634D02*
X014030Y013327D01*
X014183Y013634D02*
X014260Y013634D01*
X014413Y013481D01*
X014413Y013634D02*
X014413Y013327D01*
X014567Y013327D02*
X014797Y013327D01*
X014874Y013404D01*
X014797Y013481D01*
X014567Y013481D01*
X014567Y013558D02*
X014567Y013327D01*
X014567Y013558D02*
X014643Y013634D01*
X014797Y013634D01*
X015027Y013788D02*
X015027Y013327D01*
X015181Y013481D01*
X015334Y013327D01*
X015334Y013788D01*
X015334Y014127D02*
X015027Y014127D01*
X015181Y014358D02*
X015334Y014358D01*
X015334Y014588D02*
X015027Y014588D01*
X014874Y014434D02*
X014720Y014127D01*
X014567Y014434D01*
X014337Y014434D02*
X014183Y014434D01*
X014106Y014358D01*
X014106Y014127D01*
X014337Y014127D01*
X014413Y014204D01*
X014337Y014281D01*
X014106Y014281D01*
X013953Y014434D02*
X013953Y014127D01*
X013646Y014127D02*
X013646Y014358D01*
X013723Y014434D01*
X013953Y014434D01*
X013493Y014974D02*
X013416Y014974D01*
X013339Y015051D01*
X013339Y015434D01*
X013569Y015434D01*
X013646Y015358D01*
X013646Y015204D01*
X013569Y015127D01*
X013339Y015127D01*
X013186Y015127D02*
X013186Y015434D01*
X012955Y015434D01*
X012879Y015358D01*
X012879Y015127D01*
X012725Y015204D02*
X012725Y015358D01*
X012649Y015434D01*
X012495Y015434D01*
X012418Y015358D01*
X012418Y015281D01*
X012725Y015281D01*
X012725Y015204D02*
X012649Y015127D01*
X012495Y015127D01*
X012265Y015204D02*
X012265Y015358D01*
X012188Y015434D01*
X011958Y015434D01*
X011958Y015588D02*
X011958Y015127D01*
X012188Y015127D01*
X012265Y015204D01*
X012495Y015827D02*
X012495Y016058D01*
X012572Y016134D01*
X012802Y016134D01*
X012802Y015827D01*
X012955Y015904D02*
X012955Y016058D01*
X013032Y016134D01*
X013186Y016134D01*
X013262Y016058D01*
X013262Y015904D01*
X013186Y015827D01*
X013032Y015827D01*
X012955Y015904D01*
X013416Y015827D02*
X013569Y015827D01*
X013493Y015827D02*
X013493Y016134D01*
X013569Y016134D01*
X013723Y016134D02*
X013953Y016134D01*
X014030Y016058D01*
X013953Y015981D01*
X013799Y015981D01*
X013723Y015904D01*
X013799Y015827D01*
X014030Y015827D01*
X013876Y015664D02*
X013876Y015588D01*
X013876Y015434D02*
X013876Y015127D01*
X013953Y015127D02*
X013799Y015127D01*
X013876Y015434D02*
X013953Y015434D01*
X014106Y015434D02*
X014337Y015434D01*
X014413Y015358D01*
X014337Y015281D01*
X014183Y015281D01*
X014106Y015204D01*
X014183Y015127D01*
X014413Y015127D01*
X014567Y015281D02*
X014874Y015281D01*
X014874Y015358D02*
X014797Y015434D01*
X014643Y015434D01*
X014567Y015358D01*
X014567Y015281D01*
X014643Y015127D02*
X014797Y015127D01*
X014874Y015204D01*
X014874Y015358D01*
X015027Y015511D02*
X015104Y015588D01*
X015334Y015588D01*
X015334Y015127D01*
X015104Y015127D01*
X015027Y015204D01*
X015027Y015511D01*
X015181Y015827D02*
X015027Y015981D01*
X015027Y016288D01*
X014797Y016134D02*
X014643Y016134D01*
X014567Y016058D01*
X014567Y015981D01*
X014874Y015981D01*
X014874Y015904D02*
X014874Y016058D01*
X014797Y016134D01*
X014874Y015904D02*
X014797Y015827D01*
X014643Y015827D01*
X014413Y015827D02*
X014413Y016134D01*
X014413Y015981D02*
X014260Y016134D01*
X014183Y016134D01*
X013493Y016288D02*
X013493Y016364D01*
X011881Y016134D02*
X011728Y016288D01*
X011728Y015827D01*
X011881Y015827D02*
X011574Y015827D01*
X011344Y015588D02*
X011114Y015588D01*
X011037Y015511D01*
X011037Y015434D01*
X011114Y015358D01*
X011344Y015358D01*
X011344Y015588D02*
X011344Y015127D01*
X011114Y015127D01*
X011037Y015204D01*
X011037Y015281D01*
X011114Y015358D01*
X010884Y015434D02*
X010884Y015204D01*
X010807Y015127D01*
X010577Y015127D01*
X010577Y015051D02*
X010654Y014974D01*
X010730Y014974D01*
X010577Y015051D02*
X010577Y015434D01*
X010424Y015434D02*
X010424Y015358D01*
X010347Y015358D01*
X010347Y015434D01*
X010424Y015434D01*
X010424Y015204D02*
X010424Y015127D01*
X010347Y015127D01*
X010347Y015204D01*
X010424Y015204D01*
X010961Y014588D02*
X010961Y014127D01*
X011037Y014127D02*
X010884Y014127D01*
X010730Y014127D02*
X010730Y014434D01*
X010654Y014434D01*
X010577Y014358D01*
X010500Y014434D01*
X010424Y014358D01*
X010424Y014127D01*
X010577Y014127D02*
X010577Y014358D01*
X010270Y014204D02*
X010193Y014281D01*
X009963Y014281D01*
X009963Y014358D02*
X009963Y014127D01*
X010193Y014127D01*
X010270Y014204D01*
X010193Y014434D02*
X010040Y014434D01*
X009963Y014358D01*
X009810Y014434D02*
X009810Y014127D01*
X009503Y014127D02*
X009503Y014358D01*
X009580Y014434D01*
X009810Y014434D01*
X010961Y014588D02*
X011037Y014588D01*
X011958Y013711D02*
X012035Y013788D01*
X012265Y013788D01*
X012265Y013327D01*
X012035Y013327D01*
X011958Y013404D01*
X011958Y013711D01*
X015181Y015827D02*
X015334Y015981D01*
X015334Y016288D01*
X015334Y014588D02*
X015334Y014127D01*
D11*
X014518Y016429D02*
X014416Y016429D01*
X014314Y016531D01*
X014314Y017039D01*
X014114Y016938D02*
X014114Y016734D01*
X014012Y016632D01*
X013706Y016632D01*
X013706Y016531D02*
X013706Y017039D01*
X014012Y017039D01*
X014114Y016938D01*
X014314Y016632D02*
X014619Y016632D01*
X014721Y016734D01*
X014721Y017039D01*
X014922Y016938D02*
X014922Y017141D01*
X015024Y017243D01*
X015329Y017243D01*
X015329Y016632D01*
X015329Y016836D02*
X015024Y016836D01*
X014922Y016938D01*
X013910Y016429D02*
X013808Y016429D01*
X013706Y016531D01*
X013506Y016632D02*
X013506Y017039D01*
X013404Y017039D01*
X013302Y016938D01*
X013201Y017039D01*
X013099Y016938D01*
X013099Y016632D01*
X013302Y016632D02*
X013302Y016938D01*
X012898Y017039D02*
X012898Y016734D01*
X012796Y016632D01*
X012491Y016632D01*
X012491Y016531D02*
X012593Y016429D01*
X012695Y016429D01*
X012491Y016531D02*
X012491Y017039D01*
X011683Y017141D02*
X011683Y016734D01*
X011581Y016632D01*
X011377Y016632D01*
X011276Y016734D01*
X011075Y016734D02*
X010973Y016632D01*
X010668Y016632D01*
X010668Y016938D01*
X010770Y017039D01*
X010973Y017039D01*
X010973Y016836D02*
X010668Y016836D01*
X010467Y017039D02*
X010467Y016632D01*
X010264Y016632D02*
X010264Y016938D01*
X010162Y017039D01*
X010060Y016938D01*
X010060Y016632D01*
X009859Y016734D02*
X009859Y016938D01*
X009758Y017039D01*
X009554Y017039D01*
X009452Y016938D01*
X009452Y016836D01*
X009859Y016836D01*
X009859Y016734D02*
X009758Y016632D01*
X009554Y016632D01*
X009252Y016632D02*
X009252Y017039D01*
X009252Y016836D02*
X009048Y017039D01*
X008947Y017039D01*
X008644Y017039D02*
X008440Y017039D01*
X008338Y016938D01*
X008338Y016632D01*
X008644Y016632D01*
X008745Y016734D01*
X008644Y016836D01*
X008338Y016836D01*
X007530Y017039D02*
X007326Y017243D01*
X007326Y016632D01*
X007123Y016632D02*
X007530Y016632D01*
X006922Y016632D02*
X006820Y016632D01*
X006820Y016734D01*
X006922Y016734D01*
X006922Y016632D01*
X006618Y016734D02*
X006517Y016632D01*
X006313Y016632D01*
X006211Y016734D01*
X006211Y016836D01*
X006313Y016938D01*
X006415Y016938D01*
X006313Y016938D02*
X006211Y017039D01*
X006211Y017141D01*
X006313Y017243D01*
X006517Y017243D01*
X006618Y017141D01*
X006011Y017243D02*
X006011Y016632D01*
X005604Y016632D02*
X005604Y017243D01*
X005807Y017039D01*
X006011Y017243D01*
X004795Y017141D02*
X004795Y017039D01*
X004693Y016938D01*
X004490Y016938D01*
X004388Y016836D01*
X004388Y016734D01*
X004490Y016632D01*
X004693Y016632D01*
X004795Y016734D01*
X004795Y017141D02*
X004693Y017243D01*
X004490Y017243D01*
X004388Y017141D01*
X004187Y017243D02*
X004187Y016632D01*
X004187Y016938D02*
X004086Y017039D01*
X003882Y017039D01*
X003780Y016938D01*
X003780Y016632D01*
X003580Y016632D02*
X003376Y016632D01*
X003478Y016632D02*
X003478Y017039D01*
X003580Y017039D01*
X003478Y017243D02*
X003478Y017345D01*
X003073Y017039D02*
X002869Y017039D01*
X002768Y016938D01*
X002768Y016836D01*
X003175Y016836D01*
X003175Y016938D02*
X003073Y017039D01*
X003175Y016938D02*
X003175Y016734D01*
X003073Y016632D01*
X002869Y016632D01*
X002567Y016632D02*
X002363Y016632D01*
X002465Y016632D02*
X002465Y017243D01*
X002567Y017243D01*
X002162Y016938D02*
X002060Y017039D01*
X001755Y017039D01*
X001755Y017243D02*
X001755Y016632D01*
X002060Y016632D01*
X002162Y016734D01*
X002162Y016938D01*
X010264Y016938D02*
X010365Y017039D01*
X010467Y017039D01*
X010973Y016836D02*
X011075Y016734D01*
X011276Y017141D02*
X011377Y017243D01*
X011581Y017243D01*
X011683Y017141D01*
D12*
X011504Y024507D02*
X011021Y024495D01*
X010539Y024460D01*
X010059Y024402D01*
X009583Y024321D01*
X009111Y024216D01*
X008645Y024089D01*
X008185Y023940D01*
X007733Y023769D01*
X007290Y023576D01*
X006857Y023362D01*
X006434Y023127D01*
X006024Y022872D01*
X005626Y022597D01*
X005242Y022304D01*
X004873Y021992D01*
X004519Y021663D01*
X004181Y021317D01*
X003861Y020955D01*
X003558Y020579D01*
X003274Y020188D01*
X003009Y019783D01*
X002764Y019367D01*
X002540Y018939D01*
X002336Y018501D01*
X002154Y018053D01*
X001993Y017597D01*
X001855Y017134D01*
X001740Y016665D01*
X001647Y016191D01*
X001577Y015712D01*
X001530Y015231D01*
X001507Y014749D01*
X001507Y014265D01*
X001530Y013783D01*
X001577Y013302D01*
X001647Y012823D01*
X001740Y012349D01*
X001855Y011880D01*
X001993Y011417D01*
X002154Y010961D01*
X002336Y010513D01*
X002540Y010075D01*
X002764Y009647D01*
X003009Y009231D01*
X003274Y008826D01*
X003558Y008435D01*
X003861Y008059D01*
X004181Y007697D01*
X004519Y007351D01*
X004873Y007022D01*
X005242Y006710D01*
X005626Y006417D01*
X006024Y006142D01*
X006434Y005887D01*
X006857Y005652D01*
X007290Y005438D01*
X007733Y005245D01*
X008185Y005074D01*
X008645Y004925D01*
X009111Y004798D01*
X009583Y004693D01*
X010059Y004612D01*
X010539Y004554D01*
X011021Y004519D01*
X011504Y004507D01*
X013504Y004507D01*
X013597Y004506D01*
X013690Y004511D01*
X013782Y004519D01*
X013874Y004532D01*
X013965Y004550D01*
X014055Y004572D01*
X014145Y004598D01*
X014232Y004628D01*
X014319Y004662D01*
X014403Y004701D01*
X014486Y004743D01*
X014566Y004789D01*
X014645Y004839D01*
X014720Y004893D01*
X014793Y004950D01*
X014864Y005011D01*
X014931Y005075D01*
X014995Y005142D01*
X015056Y005212D01*
X015114Y005285D01*
X015168Y005360D01*
X015218Y005439D01*
X015265Y005519D01*
X015307Y005601D01*
X015346Y005686D01*
X015381Y005772D01*
X015411Y005860D01*
X015438Y005949D01*
X015460Y006039D01*
X015477Y006130D01*
X015491Y006222D01*
X015500Y006314D01*
X015504Y006407D01*
X015504Y022507D01*
X015502Y022602D01*
X015495Y022697D01*
X015484Y022792D01*
X015468Y022886D01*
X015448Y022979D01*
X015423Y023070D01*
X015394Y023161D01*
X015361Y023250D01*
X015323Y023338D01*
X015282Y023423D01*
X015236Y023507D01*
X015187Y023588D01*
X015133Y023667D01*
X015076Y023743D01*
X015015Y023817D01*
X014951Y023887D01*
X014884Y023954D01*
X014814Y024018D01*
X014740Y024079D01*
X014664Y024136D01*
X014585Y024190D01*
X014504Y024239D01*
X014420Y024285D01*
X014335Y024326D01*
X014247Y024364D01*
X014158Y024397D01*
X014067Y024426D01*
X013976Y024451D01*
X013883Y024471D01*
X013789Y024487D01*
X013694Y024498D01*
X013599Y024505D01*
X013504Y024507D01*
X011504Y024507D01*
D13*
X010919Y009887D02*
X011189Y009692D01*
X011279Y009722D01*
X011474Y009902D01*
X011534Y009902D01*
X011744Y009842D01*
X011789Y009797D01*
X011849Y009542D01*
X011894Y009482D01*
X012254Y009437D01*
X012314Y009497D01*
X012389Y009797D01*
X012539Y009827D01*
X012614Y009812D01*
X012854Y009617D01*
X012944Y009617D01*
X013259Y009782D01*
X013289Y009857D01*
X013184Y010157D01*
X013199Y010247D01*
X013334Y010367D01*
X013424Y010382D01*
X013664Y010337D01*
X013739Y010367D01*
X013904Y010757D01*
X013844Y010877D01*
X013529Y011057D01*
X013499Y011312D01*
X013529Y011357D01*
X013874Y011597D01*
X013874Y011732D01*
X013694Y012167D01*
X013604Y012197D01*
X013319Y012137D01*
X013229Y012137D01*
X013049Y012317D01*
X013034Y012392D01*
X013154Y012707D01*
X013139Y012812D01*
X012719Y013082D01*
X012614Y013082D01*
X012359Y012812D01*
X012314Y012752D01*
X012134Y012752D01*
X012089Y012812D01*
X011999Y013142D01*
X011879Y013217D01*
X011414Y013157D01*
X011354Y013112D01*
X011339Y012707D01*
X011204Y012617D01*
X010949Y012767D01*
X010739Y012767D01*
X010499Y012482D01*
X010499Y012377D01*
X010649Y012122D01*
X010664Y012077D01*
X010604Y011927D01*
X010319Y011867D01*
X010259Y011792D01*
X010229Y011432D01*
X010274Y011372D01*
X010469Y011267D01*
X010514Y011207D01*
X010544Y010997D01*
X010349Y010832D01*
X010304Y010742D01*
X010439Y010442D01*
X010529Y010412D01*
X010799Y010457D01*
X010979Y010292D01*
X010994Y010232D01*
X010919Y009977D01*
X010919Y009887D01*
X011324Y010592D02*
X011504Y010457D01*
X011669Y010352D01*
X011969Y010262D01*
X012119Y010262D01*
X012044Y010322D01*
X012014Y010412D01*
X011984Y010547D01*
X011969Y010667D01*
X011954Y010772D01*
X011909Y010817D01*
X011729Y010832D01*
X011609Y010877D01*
X011339Y010982D01*
X011159Y011102D01*
X011069Y011222D01*
X010994Y011342D01*
X010994Y011477D01*
X010994Y011342D02*
X011009Y011177D01*
X011039Y011042D01*
X011099Y010907D01*
X011204Y010742D01*
X011324Y010592D01*
X011789Y011357D02*
X011864Y011342D01*
X011804Y011792D01*
X011759Y011837D01*
X011654Y011837D01*
X011594Y011762D01*
X011579Y011672D01*
X011594Y011522D01*
X011669Y011432D01*
X011789Y011357D01*
X012449Y011537D02*
X012479Y011297D01*
X012509Y011012D01*
X012539Y010802D01*
X012599Y010712D01*
X012674Y010637D01*
X012764Y010592D01*
X012869Y010562D01*
X012929Y010637D01*
X012989Y010727D01*
X013049Y010847D01*
X013094Y011027D01*
X013094Y011312D01*
X013079Y011402D01*
X012959Y011702D01*
X012869Y011837D01*
X012794Y011942D01*
X012719Y012017D01*
X012674Y011792D01*
X012644Y011702D01*
X012584Y011657D01*
X012539Y011657D01*
X012434Y011702D01*
X012449Y011537D01*
X012284Y012287D02*
X012209Y012272D01*
X011759Y012287D01*
X011459Y012257D01*
X011354Y012182D01*
X011279Y012107D01*
X011459Y012257D02*
X011549Y012332D01*
X011789Y012392D01*
X012059Y012377D01*
X012284Y012287D01*
M02*
