G75*
G70*
%OFA0B0*%
%FSLAX24Y24*%
%IPPOS*%
%LPD*%
%AMOC8*
5,1,8,0,0,1.08239X$1,22.5*
%
%ADD10R,0.0217X0.0394*%
%ADD11R,0.0394X0.0217*%
%ADD12R,0.0217X0.0472*%
%ADD13R,0.0551X0.0276*%
%ADD14R,0.0472X0.0276*%
%ADD15R,0.0472X0.0472*%
%ADD16R,0.0315X0.0472*%
%ADD17R,0.1260X0.0472*%
%ADD18R,0.0748X0.0591*%
%ADD19R,0.0551X0.0394*%
%ADD20R,0.0276X0.0354*%
%ADD21R,0.0354X0.0276*%
%ADD22C,0.0740*%
%ADD23R,0.0250X0.0500*%
%ADD24C,0.0100*%
%ADD25C,0.0310*%
%ADD26C,0.0080*%
%ADD27C,0.0160*%
D10*
X008091Y009207D03*
X008485Y009207D03*
X008879Y009207D03*
X009272Y009207D03*
X009666Y009207D03*
X010060Y009207D03*
X010060Y013144D03*
X010454Y013144D03*
X009666Y013144D03*
X009272Y013144D03*
X008879Y013144D03*
X008485Y013144D03*
D11*
X007304Y012357D03*
X007304Y011963D03*
X007304Y011570D03*
X007304Y011176D03*
X007304Y010782D03*
X007304Y010389D03*
X011241Y010389D03*
X011241Y010782D03*
X011241Y011176D03*
X011241Y011570D03*
X011241Y011963D03*
X011241Y009995D03*
D12*
X012930Y009696D03*
X013304Y009696D03*
X013678Y009696D03*
X013678Y010719D03*
X012930Y010719D03*
X012930Y012196D03*
X013304Y012196D03*
X013678Y012196D03*
X013678Y013219D03*
X012930Y013219D03*
D13*
X008080Y016007D03*
X008080Y016440D03*
X008080Y016874D03*
X008080Y017307D03*
X008080Y017740D03*
X008080Y018173D03*
X008080Y018606D03*
X008080Y019039D03*
D14*
X008040Y019433D03*
D15*
X009733Y019787D03*
D16*
X012174Y019787D03*
D17*
X013591Y019787D03*
D18*
X013985Y014511D03*
D19*
X008080Y015259D03*
D20*
X007060Y016007D03*
X006548Y016007D03*
X006548Y016507D03*
X007060Y016507D03*
X007060Y017007D03*
X006548Y017007D03*
X006548Y018007D03*
X006548Y018507D03*
X007060Y018507D03*
X007060Y018007D03*
X007060Y019007D03*
X006548Y019007D03*
X006548Y019507D03*
X006548Y020007D03*
X007060Y020007D03*
X007060Y019507D03*
X013148Y008707D03*
X013660Y008707D03*
D21*
X012404Y010251D03*
X012404Y010763D03*
X012204Y012751D03*
X012204Y013263D03*
D22*
X006290Y007972D03*
X006997Y007265D03*
X007704Y006558D03*
X008411Y005851D03*
X009411Y005851D03*
X010411Y005851D03*
X011411Y005851D03*
X012411Y005851D03*
X013411Y005851D03*
X005583Y008679D03*
X004875Y009386D03*
X004168Y010093D03*
X003461Y010800D03*
X002754Y011507D03*
X002754Y012507D03*
X002754Y013507D03*
X002754Y014507D03*
X002754Y015507D03*
X002754Y016507D03*
X002754Y017507D03*
X003461Y018214D03*
X004168Y018922D03*
X004875Y019629D03*
X005583Y020336D03*
X006290Y021043D03*
X006997Y021750D03*
X007704Y022457D03*
X008411Y023164D03*
X009411Y023164D03*
X010411Y023164D03*
X011411Y023164D03*
X012411Y023164D03*
X013411Y023164D03*
D23*
X013454Y007607D03*
X013104Y007607D03*
X012754Y007607D03*
D24*
X006437Y006125D02*
X005463Y006797D01*
X004578Y007581D01*
X003793Y008467D01*
X003122Y009440D01*
X002572Y010487D01*
X002152Y011593D01*
X001869Y012742D01*
X001727Y013916D01*
X001727Y015099D01*
X001869Y016273D01*
X002152Y017421D01*
X002572Y018527D01*
X003122Y019575D01*
X003793Y020548D01*
X004578Y021434D01*
X005463Y022218D01*
X006437Y022890D01*
X007484Y023439D01*
X008590Y023859D01*
X009738Y024142D01*
X010913Y024285D01*
X011504Y024302D01*
X013504Y024302D01*
X013705Y024291D01*
X014097Y024202D01*
X014459Y024027D01*
X014773Y023777D01*
X015024Y023462D01*
X015198Y023100D01*
X015288Y022708D01*
X015299Y022507D01*
X015299Y022422D01*
X015299Y006412D01*
X015283Y006218D01*
X015186Y005839D01*
X015008Y005491D01*
X014756Y005192D01*
X014444Y004956D01*
X014088Y004795D01*
X013705Y004718D01*
X013511Y004712D01*
X013508Y004712D01*
X013424Y004714D01*
X013422Y004712D01*
X011504Y004712D01*
X010912Y004730D01*
X009738Y004873D01*
X008590Y005156D01*
X007484Y005575D01*
X006437Y006125D01*
X006374Y006168D02*
X007358Y006168D01*
X007365Y006161D02*
X007431Y006113D01*
X007504Y006076D01*
X007582Y006051D01*
X007654Y006039D01*
X007654Y006508D01*
X007754Y006508D01*
X007754Y006608D01*
X007654Y006608D01*
X007654Y007076D01*
X007582Y007065D01*
X007504Y007040D01*
X007452Y007013D01*
X007479Y007065D01*
X007504Y007143D01*
X007515Y007215D01*
X007047Y007215D01*
X007047Y007315D01*
X007515Y007315D01*
X007504Y007387D01*
X007479Y007464D01*
X007441Y007537D01*
X007393Y007604D01*
X007335Y007661D01*
X007269Y007709D01*
X007196Y007747D01*
X007118Y007772D01*
X007047Y007783D01*
X007047Y007315D01*
X006947Y007315D01*
X006947Y007783D01*
X006875Y007772D01*
X006797Y007747D01*
X006724Y007709D01*
X006721Y007707D01*
X006790Y007872D01*
X006790Y008071D01*
X006713Y008255D01*
X006573Y008396D01*
X006474Y008437D01*
X006474Y008637D01*
X007974Y010137D01*
X007974Y010278D01*
X007974Y010678D01*
X007874Y010777D01*
X007700Y010952D01*
X007623Y010952D01*
X007596Y010979D01*
X007631Y011014D01*
X007631Y011338D01*
X007596Y011373D01*
X007631Y011407D01*
X007631Y011732D01*
X007610Y011752D01*
X007621Y011763D01*
X007641Y011797D01*
X007651Y011835D01*
X007651Y011959D01*
X007308Y011959D01*
X007308Y011967D01*
X007651Y011967D01*
X007651Y012091D01*
X007641Y012129D01*
X007621Y012164D01*
X007610Y012174D01*
X007631Y012195D01*
X007631Y012519D01*
X007555Y012595D01*
X007195Y012595D01*
X007246Y012646D01*
X007289Y012751D01*
X007289Y012864D01*
X007246Y012969D01*
X007165Y013049D01*
X007145Y013057D01*
X007165Y013066D01*
X007246Y013146D01*
X007289Y013251D01*
X007289Y013364D01*
X007246Y013469D01*
X007165Y013549D01*
X007061Y013592D01*
X006959Y013592D01*
X006514Y014037D01*
X008924Y014037D01*
X009104Y013857D01*
X009104Y013465D01*
X009090Y013451D01*
X009079Y013461D01*
X009045Y013481D01*
X009007Y013491D01*
X008891Y013491D01*
X008946Y013546D01*
X008989Y013651D01*
X008989Y013764D01*
X008946Y013869D01*
X008865Y013949D01*
X008761Y013992D01*
X008647Y013992D01*
X008542Y013949D01*
X008462Y013869D01*
X008419Y013764D01*
X008419Y013719D01*
X008275Y013575D01*
X008275Y013423D01*
X008247Y013395D01*
X008247Y012894D01*
X008294Y012847D01*
X008294Y012420D01*
X008417Y012297D01*
X009850Y010864D01*
X009850Y009534D01*
X009832Y009544D01*
X009794Y009554D01*
X009670Y009554D01*
X009670Y009212D01*
X009662Y009212D01*
X009662Y009554D01*
X009538Y009554D01*
X009500Y009544D01*
X009466Y009524D01*
X009455Y009514D01*
X009435Y009534D01*
X009110Y009534D01*
X009076Y009499D01*
X009041Y009534D01*
X008717Y009534D01*
X008682Y009499D01*
X008647Y009534D01*
X008323Y009534D01*
X008288Y009499D01*
X008253Y009534D01*
X007929Y009534D01*
X007853Y009458D01*
X007853Y008957D01*
X007929Y008881D01*
X007934Y008881D01*
X007934Y008878D01*
X007849Y008792D01*
X007747Y008792D01*
X007642Y008749D01*
X007562Y008669D01*
X007519Y008564D01*
X007519Y008451D01*
X007562Y008346D01*
X007642Y008266D01*
X007747Y008222D01*
X007861Y008222D01*
X007965Y008266D01*
X008046Y008346D01*
X008054Y008366D01*
X008062Y008346D01*
X008142Y008266D01*
X008247Y008222D01*
X008361Y008222D01*
X008465Y008266D01*
X008546Y008346D01*
X008554Y008366D01*
X008562Y008346D01*
X008642Y008266D01*
X008747Y008222D01*
X008861Y008222D01*
X008965Y008266D01*
X009046Y008346D01*
X009054Y008366D01*
X009062Y008346D01*
X009142Y008266D01*
X009247Y008222D01*
X009361Y008222D01*
X009465Y008266D01*
X009546Y008346D01*
X009589Y008451D01*
X009589Y008564D01*
X009546Y008669D01*
X009474Y008740D01*
X009474Y008886D01*
X009500Y008871D01*
X009538Y008861D01*
X009662Y008861D01*
X009662Y009203D01*
X009670Y009203D01*
X009670Y008861D01*
X009794Y008861D01*
X009832Y008871D01*
X009866Y008891D01*
X009877Y008901D01*
X009898Y008881D01*
X010222Y008881D01*
X010298Y008957D01*
X010298Y009458D01*
X010270Y009486D01*
X010270Y010864D01*
X010270Y011038D01*
X008714Y012594D01*
X008714Y012807D01*
X008751Y012798D01*
X008875Y012798D01*
X008875Y013140D01*
X008883Y013140D01*
X008883Y012798D01*
X009007Y012798D01*
X009045Y012808D01*
X009079Y012828D01*
X009090Y012838D01*
X009110Y012818D01*
X009435Y012818D01*
X009469Y012852D01*
X009504Y012818D01*
X009828Y012818D01*
X009863Y012852D01*
X009898Y012818D01*
X010222Y012818D01*
X010257Y012852D01*
X010291Y012818D01*
X010616Y012818D01*
X010692Y012894D01*
X010692Y013395D01*
X010624Y013463D01*
X010624Y014448D01*
X010665Y014466D01*
X010746Y014546D01*
X010789Y014651D01*
X010789Y014764D01*
X010746Y014869D01*
X010665Y014949D01*
X010561Y014992D01*
X010447Y014992D01*
X010342Y014949D01*
X010262Y014869D01*
X010219Y014764D01*
X010219Y014651D01*
X010262Y014546D01*
X010284Y014525D01*
X010284Y014177D01*
X010246Y014269D01*
X010165Y014349D01*
X010061Y014392D01*
X009947Y014392D01*
X009842Y014349D01*
X009762Y014269D01*
X009719Y014164D01*
X009719Y014073D01*
X009214Y014577D01*
X009074Y014577D01*
X008914Y014577D01*
X009374Y015037D01*
X014494Y015037D01*
X014494Y015136D02*
X009472Y015136D01*
X009474Y015137D02*
X009474Y016537D01*
X009474Y016678D01*
X009174Y016978D01*
X009074Y017077D01*
X008473Y017077D01*
X008460Y017090D01*
X008467Y017097D01*
X013017Y017097D01*
X014494Y015620D01*
X014494Y014873D01*
X014479Y014899D01*
X014451Y014927D01*
X014417Y014946D01*
X014379Y014957D01*
X014035Y014957D01*
X014035Y014561D01*
X013935Y014561D01*
X013935Y014461D01*
X014035Y014461D01*
X014035Y014066D01*
X014379Y014066D01*
X014417Y014076D01*
X014451Y014096D01*
X014479Y014124D01*
X014494Y014150D01*
X014494Y008894D01*
X013917Y008317D01*
X012817Y008317D01*
X012694Y008194D01*
X012544Y008044D01*
X012544Y007956D01*
X012499Y007911D01*
X012499Y007817D01*
X012391Y007817D01*
X012217Y007817D01*
X011317Y006917D01*
X011194Y006794D01*
X011194Y006302D01*
X011128Y006274D01*
X010987Y006134D01*
X010919Y005969D01*
X010918Y005972D01*
X010893Y006050D01*
X010856Y006123D01*
X010807Y006189D01*
X010750Y006247D01*
X010683Y006295D01*
X010610Y006332D01*
X010533Y006358D01*
X010461Y006369D01*
X010461Y005901D01*
X010361Y005901D01*
X010361Y006369D01*
X010289Y006358D01*
X010211Y006332D01*
X010138Y006295D01*
X010072Y006247D01*
X010014Y006189D01*
X009966Y006123D01*
X009929Y006050D01*
X009904Y005972D01*
X009903Y005969D01*
X009835Y006134D01*
X009694Y006274D01*
X009510Y006351D01*
X009311Y006351D01*
X009128Y006274D01*
X008987Y006134D01*
X008919Y005969D01*
X008918Y005972D01*
X008893Y006050D01*
X008856Y006123D01*
X008813Y006182D01*
X008482Y005851D01*
X008411Y005921D01*
X008742Y006253D01*
X008683Y006295D01*
X008611Y006332D01*
X008533Y006358D01*
X008452Y006371D01*
X008370Y006371D01*
X008289Y006358D01*
X008211Y006332D01*
X008159Y006306D01*
X008186Y006358D01*
X008211Y006436D01*
X008222Y006508D01*
X007754Y006508D01*
X007754Y006039D01*
X007826Y006051D01*
X007903Y006076D01*
X007956Y006102D01*
X007929Y006050D01*
X007904Y005972D01*
X007891Y005891D01*
X007891Y005810D01*
X007904Y005729D01*
X007929Y005651D01*
X007966Y005578D01*
X008009Y005519D01*
X008340Y005850D01*
X008411Y005780D01*
X008482Y005850D01*
X008813Y005519D01*
X008856Y005578D01*
X008893Y005651D01*
X008918Y005729D01*
X008919Y005732D01*
X008987Y005567D01*
X009128Y005427D01*
X009311Y005351D01*
X009510Y005351D01*
X009694Y005427D01*
X009835Y005567D01*
X009903Y005732D01*
X009904Y005729D01*
X009929Y005651D01*
X009966Y005578D01*
X010014Y005512D01*
X010072Y005454D01*
X010138Y005406D01*
X010211Y005369D01*
X010289Y005343D01*
X010361Y005332D01*
X010361Y005800D01*
X010461Y005800D01*
X010461Y005332D01*
X010533Y005343D01*
X010610Y005369D01*
X010683Y005406D01*
X010750Y005454D01*
X010807Y005512D01*
X010856Y005578D01*
X010893Y005651D01*
X010918Y005729D01*
X010919Y005732D01*
X010987Y005567D01*
X011128Y005427D01*
X011311Y005351D01*
X011510Y005351D01*
X011694Y005427D01*
X011835Y005567D01*
X011903Y005732D01*
X011904Y005729D01*
X011929Y005651D01*
X011966Y005578D01*
X012014Y005512D01*
X012072Y005454D01*
X012138Y005406D01*
X012211Y005369D01*
X012289Y005343D01*
X012361Y005332D01*
X012361Y005800D01*
X012461Y005800D01*
X012461Y005332D01*
X012533Y005343D01*
X012610Y005369D01*
X012683Y005406D01*
X012750Y005454D01*
X012807Y005512D01*
X012856Y005578D01*
X012893Y005651D01*
X012918Y005729D01*
X012919Y005732D01*
X012987Y005567D01*
X013128Y005427D01*
X013311Y005351D01*
X013510Y005351D01*
X013694Y005427D01*
X013835Y005567D01*
X013911Y005751D01*
X013911Y005950D01*
X013835Y006134D01*
X013694Y006274D01*
X013664Y006287D01*
X013664Y007259D01*
X013709Y007304D01*
X013709Y007897D01*
X013917Y007897D01*
X014091Y007897D01*
X014914Y008720D01*
X014914Y008894D01*
X014914Y015620D01*
X014914Y015794D01*
X013314Y017394D01*
X013191Y017517D01*
X008917Y017517D01*
X008946Y017546D01*
X008989Y017651D01*
X008989Y017764D01*
X008946Y017869D01*
X008865Y017949D01*
X008761Y017992D01*
X008647Y017992D01*
X008542Y017949D01*
X008485Y017892D01*
X008485Y017931D01*
X008474Y017942D01*
X008475Y017943D01*
X008495Y017977D01*
X008505Y018015D01*
X008505Y018154D01*
X008099Y018154D01*
X008099Y018192D01*
X008505Y018192D01*
X008505Y018330D01*
X008495Y018368D01*
X008475Y018403D01*
X008474Y018403D01*
X008485Y018414D01*
X008485Y018423D01*
X008542Y018366D01*
X008647Y018322D01*
X008761Y018322D01*
X008865Y018366D01*
X008946Y018446D01*
X008989Y018551D01*
X008989Y018664D01*
X008946Y018769D01*
X008865Y018849D01*
X008845Y018857D01*
X008865Y018866D01*
X008946Y018946D01*
X008989Y019051D01*
X008989Y019164D01*
X008946Y019269D01*
X008865Y019349D01*
X008761Y019392D01*
X008647Y019392D01*
X008542Y019349D01*
X008471Y019277D01*
X008438Y019277D01*
X008426Y019289D01*
X008426Y019414D01*
X008059Y019414D01*
X008059Y019451D01*
X008426Y019451D01*
X008426Y019590D01*
X008416Y019628D01*
X008396Y019662D01*
X008368Y019690D01*
X008334Y019710D01*
X008296Y019720D01*
X008059Y019720D01*
X008059Y019452D01*
X008021Y019452D01*
X008021Y019720D01*
X007784Y019720D01*
X007746Y019710D01*
X007712Y019690D01*
X007684Y019662D01*
X007664Y019628D01*
X007654Y019590D01*
X007654Y019451D01*
X008021Y019451D01*
X008021Y019414D01*
X007654Y019414D01*
X007654Y019275D01*
X007664Y019237D01*
X007674Y019220D01*
X007674Y019209D01*
X007328Y019209D01*
X007328Y019238D01*
X007309Y019257D01*
X007328Y019276D01*
X007328Y019738D01*
X007309Y019757D01*
X007328Y019776D01*
X007328Y020238D01*
X007301Y020265D01*
X007474Y020437D01*
X011283Y020437D01*
X011887Y019834D01*
X011887Y019497D01*
X011963Y019421D01*
X012385Y019421D01*
X012461Y019497D01*
X012461Y020077D01*
X012385Y020153D01*
X012048Y020153D01*
X011424Y020777D01*
X011283Y020777D01*
X007334Y020777D01*
X007234Y020678D01*
X006890Y020334D01*
X006890Y020315D01*
X006868Y020315D01*
X006804Y020250D01*
X006796Y020259D01*
X007474Y020937D01*
X009474Y020937D01*
X009574Y021037D01*
X011233Y022696D01*
X011311Y022664D01*
X011510Y022664D01*
X011694Y022740D01*
X011835Y022881D01*
X011911Y023065D01*
X011911Y023264D01*
X011835Y023447D01*
X011694Y023588D01*
X011510Y023664D01*
X011311Y023664D01*
X011128Y023588D01*
X010987Y023447D01*
X010911Y023264D01*
X010911Y023065D01*
X010972Y022916D01*
X009334Y021277D01*
X007474Y021277D01*
X007334Y021277D01*
X006534Y020477D01*
X006434Y020378D01*
X006434Y020315D01*
X006356Y020315D01*
X006280Y020238D01*
X006280Y019776D01*
X006299Y019757D01*
X006280Y019738D01*
X006280Y019276D01*
X006299Y019257D01*
X006280Y019238D01*
X006280Y018776D01*
X006299Y018757D01*
X006280Y018738D01*
X006280Y018276D01*
X006299Y018257D01*
X006280Y018238D01*
X006280Y017776D01*
X006338Y017719D01*
X006338Y017594D01*
X006338Y017420D01*
X006338Y017296D01*
X006280Y017238D01*
X006280Y016776D01*
X006299Y016757D01*
X006280Y016738D01*
X006280Y016276D01*
X006299Y016257D01*
X006280Y016238D01*
X006280Y015776D01*
X006356Y015700D01*
X006740Y015700D01*
X006804Y015765D01*
X006868Y015700D01*
X007251Y015700D01*
X007328Y015776D01*
X007328Y015837D01*
X007674Y015837D01*
X007674Y015816D01*
X007750Y015740D01*
X008409Y015740D01*
X008419Y015750D01*
X008462Y015646D01*
X008542Y015566D01*
X008647Y015522D01*
X008761Y015522D01*
X008865Y015566D01*
X008946Y015646D01*
X008989Y015751D01*
X008989Y015864D01*
X008946Y015969D01*
X008865Y016049D01*
X008761Y016092D01*
X008659Y016092D01*
X008617Y016135D01*
X008647Y016122D01*
X008761Y016122D01*
X008865Y016166D01*
X008946Y016246D01*
X008989Y016351D01*
X008989Y016464D01*
X008946Y016569D01*
X008865Y016649D01*
X008761Y016692D01*
X008647Y016692D01*
X008542Y016649D01*
X008485Y016592D01*
X008485Y016632D01*
X008460Y016657D01*
X008485Y016682D01*
X008485Y016737D01*
X008934Y016737D01*
X009134Y016537D01*
X009134Y015278D01*
X008634Y014777D01*
X004989Y014777D01*
X004989Y014864D01*
X004946Y014969D01*
X004865Y015049D01*
X004761Y015092D01*
X004647Y015092D01*
X004542Y015049D01*
X004462Y014969D01*
X004419Y014864D01*
X004419Y014751D01*
X004432Y014720D01*
X004338Y014813D01*
X004338Y018451D01*
X004451Y018498D01*
X004592Y018638D01*
X004668Y018822D01*
X004668Y019021D01*
X004592Y019205D01*
X004776Y019129D01*
X004975Y019129D01*
X005159Y019205D01*
X005299Y019345D01*
X005375Y019529D01*
X005375Y019728D01*
X005299Y019912D01*
X005159Y020053D01*
X005299Y019912D01*
X005483Y019836D01*
X005682Y019836D01*
X005866Y019912D01*
X006006Y020053D01*
X006082Y020236D01*
X006082Y020435D01*
X006006Y020619D01*
X006190Y020543D01*
X006389Y020543D01*
X006573Y020619D01*
X006713Y020760D01*
X006790Y020943D01*
X006790Y021142D01*
X006713Y021326D01*
X006573Y021467D01*
X006713Y021326D01*
X006897Y021250D01*
X007096Y021250D01*
X007280Y021326D01*
X007421Y021467D01*
X007497Y021650D01*
X007497Y021849D01*
X007421Y022033D01*
X007604Y021957D01*
X007803Y021957D01*
X007987Y022033D01*
X008128Y022174D01*
X008204Y022358D01*
X008204Y022556D01*
X008128Y022740D01*
X007987Y022881D01*
X008128Y022740D01*
X008311Y022664D01*
X008510Y022664D01*
X008694Y022740D01*
X008835Y022881D01*
X008911Y023065D01*
X008987Y022881D01*
X009128Y022740D01*
X009311Y022664D01*
X009510Y022664D01*
X009694Y022740D01*
X009835Y022881D01*
X009911Y023065D01*
X009987Y022881D01*
X010128Y022740D01*
X010311Y022664D01*
X010510Y022664D01*
X010694Y022740D01*
X010835Y022881D01*
X010911Y023065D01*
X010911Y023264D01*
X010835Y023447D01*
X010694Y023588D01*
X010510Y023664D01*
X010311Y023664D01*
X010128Y023588D01*
X009987Y023447D01*
X009911Y023264D01*
X009911Y023065D01*
X009911Y023264D01*
X009835Y023447D01*
X009694Y023588D01*
X009510Y023664D01*
X009311Y023664D01*
X009128Y023588D01*
X008987Y023447D01*
X008911Y023264D01*
X008911Y023065D01*
X008911Y023264D01*
X008835Y023447D01*
X008694Y023588D01*
X008510Y023664D01*
X008311Y023664D01*
X008128Y023588D01*
X007987Y023447D01*
X007911Y023264D01*
X007911Y023065D01*
X007987Y022881D01*
X007803Y022957D01*
X007604Y022957D01*
X007421Y022881D01*
X007280Y022740D01*
X007204Y022556D01*
X007204Y022358D01*
X007280Y022174D01*
X007421Y022033D01*
X007280Y022174D01*
X007096Y022250D01*
X006897Y022250D01*
X006713Y022174D01*
X006573Y022033D01*
X006497Y021849D01*
X006497Y021650D01*
X006573Y021467D01*
X006389Y021543D01*
X006190Y021543D01*
X006006Y021467D01*
X005866Y021326D01*
X005790Y021142D01*
X005790Y020943D01*
X005866Y020760D01*
X005682Y020836D01*
X005483Y020836D01*
X005299Y020760D01*
X005159Y020619D01*
X005083Y020435D01*
X005083Y020236D01*
X005159Y020053D01*
X004975Y020129D01*
X004776Y020129D01*
X004592Y020053D01*
X004451Y019912D01*
X004375Y019728D01*
X004375Y019529D01*
X004451Y019345D01*
X004592Y019205D01*
X004451Y019345D01*
X004268Y019422D01*
X004069Y019422D01*
X003885Y019345D01*
X003744Y019205D01*
X003668Y019021D01*
X003668Y018822D01*
X003744Y018638D01*
X003561Y018714D01*
X003362Y018714D01*
X003178Y018638D01*
X003037Y018498D01*
X002961Y018314D01*
X002961Y018115D01*
X003037Y017931D01*
X002854Y018007D01*
X002655Y018007D01*
X002471Y017931D01*
X002330Y017791D01*
X002254Y017607D01*
X002254Y017408D01*
X002330Y017224D01*
X002471Y017083D01*
X002655Y017007D01*
X002854Y017007D01*
X003037Y017083D01*
X003178Y017224D01*
X003254Y017408D01*
X003254Y017607D01*
X003178Y017791D01*
X003037Y017931D01*
X003178Y017791D01*
X003362Y017714D01*
X003561Y017714D01*
X003744Y017791D01*
X003885Y017931D01*
X003961Y018115D01*
X003961Y018314D01*
X003885Y018498D01*
X003998Y018451D01*
X003998Y015553D01*
X003222Y016330D01*
X003254Y016408D01*
X003254Y016607D01*
X003178Y016791D01*
X003037Y016931D01*
X002853Y017007D01*
X002654Y017007D01*
X002471Y016931D01*
X002330Y016791D01*
X002254Y016607D01*
X002254Y016408D01*
X002330Y016224D01*
X002471Y016084D01*
X002654Y016007D01*
X002471Y015931D01*
X002330Y015791D01*
X002254Y015607D01*
X002254Y015408D01*
X002330Y015224D01*
X002471Y015084D01*
X002654Y015007D01*
X002853Y015007D01*
X003002Y015069D01*
X004094Y013977D01*
X003574Y013977D01*
X003222Y014330D01*
X003254Y014408D01*
X003254Y014607D01*
X003178Y014791D01*
X003037Y014931D01*
X002853Y015007D01*
X002655Y015007D01*
X002471Y014931D01*
X002330Y014791D01*
X002254Y014607D01*
X002254Y014408D01*
X002330Y014224D01*
X002471Y014084D01*
X002655Y014007D01*
X002471Y013931D01*
X002330Y013791D01*
X002254Y013607D01*
X002254Y013408D01*
X002330Y013224D01*
X002471Y013084D01*
X002655Y013007D01*
X002854Y013007D01*
X002853Y013007D02*
X002655Y013007D01*
X002471Y012931D01*
X002330Y012791D01*
X002254Y012607D01*
X002254Y012408D01*
X002330Y012224D01*
X002471Y012084D01*
X002655Y012007D01*
X002471Y011931D01*
X002330Y011791D01*
X002254Y011607D01*
X002254Y011408D01*
X002330Y011224D01*
X002471Y011084D01*
X002655Y011007D01*
X002854Y011007D01*
X003037Y011084D01*
X003178Y011224D01*
X003254Y011408D01*
X003254Y011607D01*
X003178Y011791D01*
X003037Y011931D01*
X002854Y012007D01*
X002655Y012007D01*
X002853Y012007D01*
X003037Y012084D01*
X003178Y012224D01*
X003254Y012408D01*
X003254Y012607D01*
X003178Y012791D01*
X003037Y012931D01*
X002853Y013007D01*
X002854Y013007D02*
X003037Y013084D01*
X003178Y013224D01*
X003254Y013408D01*
X003254Y013607D01*
X003178Y013791D01*
X003037Y013931D01*
X002854Y014007D01*
X002655Y014007D01*
X002853Y014007D01*
X003002Y014069D01*
X003334Y013737D01*
X003434Y013637D01*
X005934Y013637D01*
X006719Y012852D01*
X006719Y012751D01*
X006762Y012646D01*
X006842Y012566D01*
X006936Y012527D01*
X006524Y012527D01*
X006383Y012527D01*
X004396Y010540D01*
X004268Y010593D01*
X004069Y010593D01*
X003885Y010517D01*
X003961Y010701D01*
X004557Y010701D01*
X004459Y010603D02*
X003920Y010603D01*
X003885Y010517D02*
X003744Y010376D01*
X003668Y010193D01*
X003668Y009994D01*
X003744Y009810D01*
X003885Y009669D01*
X004069Y009593D01*
X004268Y009593D01*
X004451Y009669D01*
X004375Y009486D01*
X004375Y009287D01*
X004451Y009103D01*
X004592Y008962D01*
X004776Y008886D01*
X004975Y008886D01*
X005159Y008962D01*
X005083Y008778D01*
X005083Y008579D01*
X005159Y008396D01*
X005299Y008255D01*
X005483Y008179D01*
X005682Y008179D01*
X005866Y008255D01*
X005790Y008071D01*
X005790Y007872D01*
X005866Y007689D01*
X006006Y007548D01*
X006190Y007472D01*
X006389Y007472D01*
X006554Y007540D01*
X006552Y007537D01*
X006515Y007464D01*
X006489Y007387D01*
X006478Y007315D01*
X006946Y007315D01*
X006946Y007215D01*
X006478Y007215D01*
X006489Y007143D01*
X006515Y007065D01*
X006552Y006992D01*
X006600Y006926D01*
X006658Y006868D01*
X006724Y006820D01*
X006797Y006783D01*
X006875Y006758D01*
X006947Y006746D01*
X006947Y007215D01*
X007047Y007215D01*
X007047Y006746D01*
X007118Y006758D01*
X007196Y006783D01*
X007248Y006809D01*
X007222Y006757D01*
X007197Y006679D01*
X007185Y006608D01*
X007654Y006608D01*
X007654Y006508D01*
X007185Y006508D01*
X007197Y006436D01*
X007222Y006358D01*
X007259Y006285D01*
X007307Y006219D01*
X007365Y006161D01*
X007272Y006267D02*
X006231Y006267D01*
X006089Y006365D02*
X007220Y006365D01*
X007192Y006464D02*
X005946Y006464D01*
X005803Y006562D02*
X007654Y006562D01*
X007654Y006464D02*
X007754Y006464D01*
X007754Y006562D02*
X011194Y006562D01*
X011194Y006464D02*
X008215Y006464D01*
X008188Y006365D02*
X008336Y006365D01*
X008486Y006365D02*
X010336Y006365D01*
X010361Y006365D02*
X010461Y006365D01*
X010486Y006365D02*
X011194Y006365D01*
X011120Y006267D02*
X010723Y006267D01*
X010823Y006168D02*
X011021Y006168D01*
X010960Y006070D02*
X010883Y006070D01*
X010918Y005971D02*
X010919Y005971D01*
X010901Y005675D02*
X010942Y005675D01*
X010983Y005577D02*
X010855Y005577D01*
X010774Y005478D02*
X011076Y005478D01*
X011241Y005380D02*
X010632Y005380D01*
X010461Y005380D02*
X010361Y005380D01*
X010361Y005478D02*
X010461Y005478D01*
X010461Y005577D02*
X010361Y005577D01*
X010361Y005675D02*
X010461Y005675D01*
X010461Y005774D02*
X010361Y005774D01*
X010361Y005971D02*
X010461Y005971D01*
X010461Y006070D02*
X010361Y006070D01*
X010361Y006168D02*
X010461Y006168D01*
X010461Y006267D02*
X010361Y006267D01*
X010099Y006267D02*
X009702Y006267D01*
X009800Y006168D02*
X009999Y006168D01*
X009939Y006070D02*
X009861Y006070D01*
X009902Y005971D02*
X009903Y005971D01*
X009879Y005675D02*
X009921Y005675D01*
X009967Y005577D02*
X009839Y005577D01*
X009746Y005478D02*
X010048Y005478D01*
X010190Y005380D02*
X009581Y005380D01*
X009241Y005380D02*
X008632Y005380D01*
X008611Y005369D02*
X008683Y005406D01*
X008742Y005449D01*
X008411Y005780D01*
X008080Y005449D01*
X008138Y005406D01*
X008211Y005369D01*
X008289Y005343D01*
X008370Y005331D01*
X008452Y005331D01*
X008533Y005343D01*
X008611Y005369D01*
X008712Y005478D02*
X009076Y005478D01*
X008983Y005577D02*
X008855Y005577D01*
X008755Y005577D02*
X008614Y005577D01*
X008657Y005675D02*
X008515Y005675D01*
X008558Y005774D02*
X008417Y005774D01*
X008405Y005774D02*
X008264Y005774D01*
X008306Y005675D02*
X008165Y005675D01*
X008208Y005577D02*
X008066Y005577D01*
X007967Y005577D02*
X007481Y005577D01*
X007293Y005675D02*
X007921Y005675D01*
X007897Y005774D02*
X007106Y005774D01*
X006918Y005872D02*
X007891Y005872D01*
X007904Y005971D02*
X006730Y005971D01*
X006542Y006070D02*
X007523Y006070D01*
X007654Y006070D02*
X007754Y006070D01*
X007754Y006168D02*
X007654Y006168D01*
X007654Y006267D02*
X007754Y006267D01*
X007754Y006365D02*
X007654Y006365D01*
X007754Y006608D02*
X008222Y006608D01*
X008211Y006679D01*
X008186Y006757D01*
X008149Y006830D01*
X008100Y006896D01*
X008043Y006954D01*
X007976Y007002D01*
X007903Y007040D01*
X007826Y007065D01*
X007754Y007076D01*
X007754Y006608D01*
X007754Y006661D02*
X007654Y006661D01*
X007654Y006759D02*
X007754Y006759D01*
X007754Y006858D02*
X007654Y006858D01*
X007654Y006956D02*
X007754Y006956D01*
X007754Y007055D02*
X007654Y007055D01*
X007551Y007055D02*
X007473Y007055D01*
X007506Y007154D02*
X011553Y007154D01*
X011652Y007252D02*
X007047Y007252D01*
X007047Y007154D02*
X006947Y007154D01*
X006946Y007252D02*
X004949Y007252D01*
X004838Y007351D02*
X006484Y007351D01*
X006510Y007449D02*
X004727Y007449D01*
X004616Y007548D02*
X006007Y007548D01*
X005908Y007646D02*
X004520Y007646D01*
X004433Y007745D02*
X005842Y007745D01*
X005802Y007843D02*
X004346Y007843D01*
X004258Y007942D02*
X005790Y007942D01*
X005790Y008040D02*
X004171Y008040D01*
X004084Y008139D02*
X005818Y008139D01*
X005823Y008237D02*
X005858Y008237D01*
X005342Y008237D02*
X003996Y008237D01*
X003909Y008336D02*
X005218Y008336D01*
X005142Y008435D02*
X003822Y008435D01*
X003748Y008533D02*
X005102Y008533D01*
X005083Y008632D02*
X003680Y008632D01*
X003611Y008730D02*
X005083Y008730D01*
X005103Y008829D02*
X003544Y008829D01*
X003475Y008927D02*
X004676Y008927D01*
X004528Y009026D02*
X003407Y009026D01*
X003339Y009124D02*
X004443Y009124D01*
X004402Y009223D02*
X003271Y009223D01*
X003203Y009321D02*
X004375Y009321D01*
X004375Y009420D02*
X003135Y009420D01*
X003080Y009519D02*
X004389Y009519D01*
X004430Y009617D02*
X004326Y009617D01*
X004011Y009617D02*
X003029Y009617D01*
X002977Y009716D02*
X003839Y009716D01*
X003743Y009814D02*
X002925Y009814D01*
X002873Y009913D02*
X003702Y009913D01*
X003668Y010011D02*
X002822Y010011D01*
X002770Y010110D02*
X003668Y010110D01*
X003675Y010208D02*
X002718Y010208D01*
X002667Y010307D02*
X003346Y010307D01*
X003362Y010300D02*
X003561Y010300D01*
X003744Y010376D01*
X003885Y010517D01*
X003872Y010504D02*
X003872Y010504D01*
X003774Y010405D02*
X003773Y010405D01*
X003716Y010307D02*
X003576Y010307D01*
X003362Y010300D02*
X003178Y010376D01*
X003037Y010517D01*
X002961Y010701D01*
X002491Y010701D01*
X002528Y010603D02*
X003002Y010603D01*
X002961Y010701D02*
X002961Y010900D01*
X003037Y011083D01*
X003178Y011224D01*
X003362Y011300D01*
X003561Y011300D01*
X003744Y011224D01*
X003885Y011083D01*
X003961Y010900D01*
X003961Y010701D01*
X003961Y010800D02*
X004656Y010800D01*
X004754Y010898D02*
X003961Y010898D01*
X003921Y010997D02*
X004853Y010997D01*
X004951Y011095D02*
X003873Y011095D01*
X003775Y011194D02*
X005050Y011194D01*
X005149Y011292D02*
X003580Y011292D01*
X003343Y011292D02*
X003206Y011292D01*
X003247Y011391D02*
X005247Y011391D01*
X005346Y011489D02*
X003254Y011489D01*
X003254Y011588D02*
X005444Y011588D01*
X005543Y011686D02*
X003221Y011686D01*
X003180Y011785D02*
X005641Y011785D01*
X005740Y011884D02*
X003085Y011884D01*
X002914Y011982D02*
X005838Y011982D01*
X005937Y012081D02*
X003030Y012081D01*
X003133Y012179D02*
X006035Y012179D01*
X006134Y012278D02*
X003200Y012278D01*
X003241Y012376D02*
X006232Y012376D01*
X006331Y012475D02*
X003254Y012475D01*
X003254Y012573D02*
X006835Y012573D01*
X006752Y012672D02*
X003227Y012672D01*
X003186Y012770D02*
X006719Y012770D01*
X006702Y012869D02*
X003099Y012869D01*
X002950Y012968D02*
X006603Y012968D01*
X006505Y013066D02*
X002995Y013066D01*
X003118Y013165D02*
X006406Y013165D01*
X006308Y013263D02*
X003194Y013263D01*
X003235Y013362D02*
X006209Y013362D01*
X006111Y013460D02*
X003254Y013460D01*
X003254Y013559D02*
X006012Y013559D01*
X006599Y013953D02*
X008552Y013953D01*
X008456Y013854D02*
X006697Y013854D01*
X006796Y013756D02*
X008419Y013756D01*
X008357Y013657D02*
X006894Y013657D01*
X007142Y013559D02*
X008275Y013559D01*
X008275Y013460D02*
X007249Y013460D01*
X007289Y013362D02*
X008247Y013362D01*
X008247Y013263D02*
X007289Y013263D01*
X007253Y013165D02*
X008247Y013165D01*
X008247Y013066D02*
X007166Y013066D01*
X007246Y012968D02*
X008247Y012968D01*
X008271Y012869D02*
X007287Y012869D01*
X007289Y012770D02*
X008294Y012770D01*
X008294Y012672D02*
X007256Y012672D01*
X007576Y012573D02*
X008294Y012573D01*
X008294Y012475D02*
X007631Y012475D01*
X007631Y012376D02*
X008338Y012376D01*
X008437Y012278D02*
X007631Y012278D01*
X007615Y012179D02*
X008535Y012179D01*
X008634Y012081D02*
X007651Y012081D01*
X007651Y011982D02*
X008732Y011982D01*
X008831Y011884D02*
X007651Y011884D01*
X007634Y011785D02*
X008929Y011785D01*
X009028Y011686D02*
X007631Y011686D01*
X007631Y011588D02*
X009126Y011588D01*
X009225Y011489D02*
X007631Y011489D01*
X007614Y011391D02*
X009323Y011391D01*
X009422Y011292D02*
X007631Y011292D01*
X007631Y011194D02*
X009521Y011194D01*
X009619Y011095D02*
X007631Y011095D01*
X007614Y010997D02*
X009718Y010997D01*
X009816Y010898D02*
X007754Y010898D01*
X007852Y010800D02*
X009850Y010800D01*
X009850Y010701D02*
X007951Y010701D01*
X007974Y010603D02*
X009850Y010603D01*
X009850Y010504D02*
X007974Y010504D01*
X007974Y010405D02*
X009850Y010405D01*
X009850Y010307D02*
X007974Y010307D01*
X007974Y010208D02*
X009850Y010208D01*
X009850Y010110D02*
X007947Y010110D01*
X007848Y010011D02*
X009850Y010011D01*
X009850Y009913D02*
X007750Y009913D01*
X007651Y009814D02*
X009850Y009814D01*
X009850Y009716D02*
X007553Y009716D01*
X007454Y009617D02*
X009850Y009617D01*
X009670Y009519D02*
X009662Y009519D01*
X009662Y009420D02*
X009670Y009420D01*
X009662Y009321D02*
X009670Y009321D01*
X009662Y009223D02*
X009670Y009223D01*
X009662Y009124D02*
X009670Y009124D01*
X009662Y009026D02*
X009670Y009026D01*
X009662Y008927D02*
X009670Y008927D01*
X009474Y008829D02*
X011646Y008829D01*
X011662Y008869D02*
X011619Y008764D01*
X011619Y008651D01*
X011662Y008546D01*
X011742Y008466D01*
X011847Y008422D01*
X011961Y008422D01*
X012065Y008466D01*
X012137Y008537D01*
X012880Y008537D01*
X012880Y008476D01*
X012956Y008400D01*
X013340Y008400D01*
X013404Y008465D01*
X013468Y008400D01*
X013851Y008400D01*
X013928Y008476D01*
X013928Y008938D01*
X013883Y008983D01*
X013946Y009046D01*
X013989Y009151D01*
X013989Y009264D01*
X013946Y009369D01*
X013914Y009400D01*
X013914Y009403D01*
X013916Y009406D01*
X013916Y009986D01*
X013840Y010062D01*
X013516Y010062D01*
X013505Y010051D01*
X013504Y010052D01*
X013470Y010072D01*
X013432Y010082D01*
X013308Y010082D01*
X013308Y009700D01*
X013300Y009700D01*
X013300Y010082D01*
X013176Y010082D01*
X013138Y010072D01*
X013104Y010052D01*
X013103Y010051D01*
X013092Y010062D01*
X012768Y010062D01*
X012692Y009986D01*
X012692Y009406D01*
X012695Y009402D01*
X012662Y009369D01*
X012619Y009264D01*
X012619Y009151D01*
X012662Y009046D01*
X012742Y008966D01*
X012847Y008922D01*
X012880Y008922D01*
X012880Y008877D01*
X012137Y008877D01*
X012065Y008949D01*
X011961Y008992D01*
X011847Y008992D01*
X011742Y008949D01*
X011662Y008869D01*
X011721Y008927D02*
X010269Y008927D01*
X010298Y009026D02*
X012682Y009026D01*
X012630Y009124D02*
X010298Y009124D01*
X010298Y009223D02*
X012619Y009223D01*
X012643Y009321D02*
X010298Y009321D01*
X010298Y009420D02*
X012692Y009420D01*
X012692Y009519D02*
X010270Y009519D01*
X010270Y009617D02*
X012692Y009617D01*
X012692Y009716D02*
X010270Y009716D01*
X010270Y009814D02*
X010933Y009814D01*
X010914Y009833D02*
X010990Y009757D01*
X011492Y009757D01*
X011522Y009787D01*
X011542Y009766D01*
X011647Y009722D01*
X011761Y009722D01*
X011865Y009766D01*
X011946Y009846D01*
X011989Y009951D01*
X011989Y010064D01*
X011946Y010169D01*
X011907Y010207D01*
X011946Y010246D01*
X011989Y010351D01*
X011989Y010464D01*
X011946Y010569D01*
X011865Y010649D01*
X011761Y010692D01*
X011647Y010692D01*
X011588Y010668D01*
X011588Y010778D01*
X011245Y010778D01*
X011245Y010786D01*
X011588Y010786D01*
X011588Y010847D01*
X011647Y010822D01*
X011761Y010822D01*
X011865Y010866D01*
X011946Y010946D01*
X011989Y011051D01*
X011989Y011164D01*
X011946Y011269D01*
X011865Y011349D01*
X011761Y011392D01*
X011647Y011392D01*
X011563Y011357D01*
X011554Y011357D01*
X011548Y011357D01*
X011547Y011359D01*
X011558Y011369D01*
X011578Y011403D01*
X011588Y011442D01*
X011588Y011565D01*
X011245Y011565D01*
X011245Y011574D01*
X011588Y011574D01*
X011588Y011698D01*
X011578Y011736D01*
X011567Y011753D01*
X011761Y011753D01*
X012194Y011320D01*
X012194Y011031D01*
X012173Y011031D01*
X012097Y010955D01*
X012097Y010572D01*
X012150Y010518D01*
X012135Y010509D01*
X012107Y010481D01*
X012087Y010447D01*
X012077Y010409D01*
X012077Y010270D01*
X012385Y010270D01*
X012385Y010233D01*
X012077Y010233D01*
X012077Y010094D01*
X012087Y010056D01*
X012107Y010022D01*
X012135Y009994D01*
X012169Y009974D01*
X012207Y009964D01*
X012385Y009964D01*
X012385Y010232D01*
X012423Y010232D01*
X012423Y009964D01*
X012601Y009964D01*
X012639Y009974D01*
X012673Y009994D01*
X012701Y010022D01*
X012721Y010056D01*
X012731Y010094D01*
X012731Y010233D01*
X012423Y010233D01*
X012423Y010270D01*
X012731Y010270D01*
X012731Y010390D01*
X012768Y010353D01*
X013092Y010353D01*
X013168Y010429D01*
X013168Y011009D01*
X013092Y011085D01*
X012768Y011085D01*
X012692Y011009D01*
X012692Y010974D01*
X012635Y011031D01*
X012614Y011031D01*
X012614Y011494D01*
X012491Y011617D01*
X011935Y012173D01*
X011761Y012173D01*
X011520Y012173D01*
X011492Y012202D01*
X010990Y012202D01*
X010914Y012125D01*
X010914Y011801D01*
X010935Y011781D01*
X010924Y011770D01*
X010904Y011736D01*
X010894Y011698D01*
X010894Y011574D01*
X011237Y011574D01*
X011237Y011565D01*
X010894Y011565D01*
X010894Y011442D01*
X010904Y011403D01*
X010924Y011369D01*
X010935Y011359D01*
X010914Y011338D01*
X010914Y011014D01*
X010935Y010993D01*
X010924Y010983D01*
X010904Y010948D01*
X010894Y010910D01*
X010894Y010786D01*
X011237Y010786D01*
X011237Y010778D01*
X010894Y010778D01*
X010894Y010654D01*
X010904Y010616D01*
X010924Y010582D01*
X010935Y010571D01*
X010914Y010551D01*
X010914Y010226D01*
X010949Y010192D01*
X010914Y010157D01*
X010914Y009833D01*
X010914Y009913D02*
X010270Y009913D01*
X010270Y010011D02*
X010914Y010011D01*
X010914Y010110D02*
X010270Y010110D01*
X010270Y010208D02*
X010932Y010208D01*
X010914Y010307D02*
X010270Y010307D01*
X010270Y010405D02*
X010914Y010405D01*
X010914Y010504D02*
X010270Y010504D01*
X010270Y010603D02*
X010912Y010603D01*
X010894Y010701D02*
X010270Y010701D01*
X010270Y010800D02*
X010894Y010800D01*
X010894Y010898D02*
X010270Y010898D01*
X010270Y010997D02*
X010931Y010997D01*
X010914Y011095D02*
X010213Y011095D01*
X010114Y011194D02*
X010914Y011194D01*
X010914Y011292D02*
X010016Y011292D01*
X009917Y011391D02*
X010912Y011391D01*
X010894Y011489D02*
X009819Y011489D01*
X009720Y011588D02*
X010894Y011588D01*
X010894Y011686D02*
X009622Y011686D01*
X009523Y011785D02*
X010930Y011785D01*
X010914Y011884D02*
X009425Y011884D01*
X009326Y011982D02*
X010914Y011982D01*
X010914Y012081D02*
X009228Y012081D01*
X009129Y012179D02*
X010968Y012179D01*
X011514Y012179D02*
X012692Y012179D01*
X012692Y012081D02*
X012028Y012081D01*
X012126Y011982D02*
X012692Y011982D01*
X012692Y011906D02*
X012694Y011903D01*
X012694Y011800D01*
X012662Y011769D01*
X012619Y011664D01*
X012619Y011551D01*
X012662Y011446D01*
X012742Y011366D01*
X012847Y011322D01*
X012961Y011322D01*
X013065Y011366D01*
X013146Y011446D01*
X013189Y011551D01*
X013189Y011664D01*
X013146Y011769D01*
X013114Y011800D01*
X013114Y011833D01*
X013138Y011820D01*
X013176Y011809D01*
X013300Y011809D01*
X013300Y012191D01*
X013308Y012191D01*
X013308Y011809D01*
X013432Y011809D01*
X013468Y011819D01*
X013468Y011774D01*
X013462Y011769D01*
X013419Y011664D01*
X013419Y011551D01*
X013462Y011446D01*
X013542Y011366D01*
X013647Y011322D01*
X013761Y011322D01*
X013865Y011366D01*
X013946Y011446D01*
X013989Y011551D01*
X013989Y011664D01*
X013946Y011769D01*
X013888Y011826D01*
X013888Y011877D01*
X013916Y011906D01*
X013916Y012486D01*
X013840Y012562D01*
X013516Y012562D01*
X013505Y012551D01*
X013504Y012552D01*
X013470Y012572D01*
X013432Y012582D01*
X013308Y012582D01*
X013308Y012200D01*
X013300Y012200D01*
X013300Y012582D01*
X013176Y012582D01*
X013138Y012572D01*
X013104Y012552D01*
X013103Y012551D01*
X013092Y012562D01*
X012768Y012562D01*
X012692Y012486D01*
X012692Y011906D01*
X012694Y011884D02*
X012225Y011884D01*
X012323Y011785D02*
X012679Y011785D01*
X012628Y011686D02*
X012422Y011686D01*
X012520Y011588D02*
X012619Y011588D01*
X012614Y011489D02*
X012644Y011489D01*
X012614Y011391D02*
X012717Y011391D01*
X012614Y011292D02*
X014494Y011292D01*
X014494Y011194D02*
X012614Y011194D01*
X012614Y011095D02*
X014494Y011095D01*
X014494Y010997D02*
X013916Y010997D01*
X013916Y011009D02*
X013840Y011085D01*
X013516Y011085D01*
X013440Y011009D01*
X013440Y010429D01*
X013516Y010353D01*
X013840Y010353D01*
X013916Y010429D01*
X013916Y011009D01*
X013916Y010898D02*
X014494Y010898D01*
X014494Y010800D02*
X013916Y010800D01*
X013916Y010701D02*
X014494Y010701D01*
X014494Y010603D02*
X013916Y010603D01*
X013916Y010504D02*
X014494Y010504D01*
X014494Y010405D02*
X013892Y010405D01*
X013463Y010405D02*
X013144Y010405D01*
X013168Y010504D02*
X013440Y010504D01*
X013440Y010603D02*
X013168Y010603D01*
X013168Y010701D02*
X013440Y010701D01*
X013440Y010800D02*
X013168Y010800D01*
X013168Y010898D02*
X013440Y010898D01*
X013440Y010997D02*
X013168Y010997D01*
X013090Y011391D02*
X013517Y011391D01*
X013444Y011489D02*
X013164Y011489D01*
X013189Y011588D02*
X013419Y011588D01*
X013428Y011686D02*
X013180Y011686D01*
X013129Y011785D02*
X013468Y011785D01*
X013308Y011884D02*
X013300Y011884D01*
X013300Y011982D02*
X013308Y011982D01*
X013300Y012081D02*
X013308Y012081D01*
X013300Y012179D02*
X013308Y012179D01*
X013300Y012278D02*
X013308Y012278D01*
X013300Y012376D02*
X013308Y012376D01*
X013300Y012475D02*
X013308Y012475D01*
X013300Y012573D02*
X013308Y012573D01*
X013463Y012573D02*
X014494Y012573D01*
X014494Y012475D02*
X013916Y012475D01*
X013916Y012376D02*
X014494Y012376D01*
X014494Y012278D02*
X013916Y012278D01*
X013916Y012179D02*
X014494Y012179D01*
X014494Y012081D02*
X013916Y012081D01*
X013916Y011982D02*
X014494Y011982D01*
X014494Y011884D02*
X013894Y011884D01*
X013929Y011785D02*
X014494Y011785D01*
X014494Y011686D02*
X013980Y011686D01*
X013989Y011588D02*
X014494Y011588D01*
X014494Y011489D02*
X013964Y011489D01*
X013890Y011391D02*
X014494Y011391D01*
X014914Y011391D02*
X015299Y011391D01*
X015299Y011489D02*
X014914Y011489D01*
X014914Y011588D02*
X015299Y011588D01*
X015299Y011686D02*
X014914Y011686D01*
X014914Y011785D02*
X015299Y011785D01*
X015299Y011884D02*
X014914Y011884D01*
X014914Y011982D02*
X015299Y011982D01*
X015299Y012081D02*
X014914Y012081D01*
X014914Y012179D02*
X015299Y012179D01*
X015299Y012278D02*
X014914Y012278D01*
X014914Y012376D02*
X015299Y012376D01*
X015299Y012475D02*
X014914Y012475D01*
X014914Y012573D02*
X015299Y012573D01*
X015299Y012672D02*
X014914Y012672D01*
X014914Y012770D02*
X015299Y012770D01*
X015299Y012869D02*
X014914Y012869D01*
X014914Y012968D02*
X015299Y012968D01*
X015299Y013066D02*
X014914Y013066D01*
X014914Y013165D02*
X015299Y013165D01*
X015299Y013263D02*
X014914Y013263D01*
X014914Y013362D02*
X015299Y013362D01*
X015299Y013460D02*
X014914Y013460D01*
X014914Y013559D02*
X015299Y013559D01*
X015299Y013657D02*
X014914Y013657D01*
X014914Y013756D02*
X015299Y013756D01*
X015299Y013854D02*
X014914Y013854D01*
X014914Y013953D02*
X015299Y013953D01*
X015299Y014052D02*
X014914Y014052D01*
X014914Y014150D02*
X015299Y014150D01*
X015299Y014249D02*
X014914Y014249D01*
X014914Y014347D02*
X015299Y014347D01*
X015299Y014446D02*
X014914Y014446D01*
X014914Y014544D02*
X015299Y014544D01*
X015299Y014643D02*
X014914Y014643D01*
X014914Y014741D02*
X015299Y014741D01*
X015299Y014840D02*
X014914Y014840D01*
X014914Y014938D02*
X015299Y014938D01*
X015299Y015037D02*
X014914Y015037D01*
X014914Y015136D02*
X015299Y015136D01*
X015299Y015234D02*
X014914Y015234D01*
X014914Y015333D02*
X015299Y015333D01*
X015299Y015431D02*
X014914Y015431D01*
X014914Y015530D02*
X015299Y015530D01*
X015299Y015628D02*
X014914Y015628D01*
X014914Y015727D02*
X015299Y015727D01*
X015299Y015825D02*
X014883Y015825D01*
X014784Y015924D02*
X015299Y015924D01*
X015299Y016022D02*
X014686Y016022D01*
X014587Y016121D02*
X015299Y016121D01*
X015299Y016219D02*
X014489Y016219D01*
X014390Y016318D02*
X015299Y016318D01*
X015299Y016417D02*
X014292Y016417D01*
X014193Y016515D02*
X015299Y016515D01*
X015299Y016614D02*
X014095Y016614D01*
X013996Y016712D02*
X015299Y016712D01*
X015299Y016811D02*
X013898Y016811D01*
X013799Y016909D02*
X015299Y016909D01*
X015299Y017008D02*
X013700Y017008D01*
X013602Y017106D02*
X015299Y017106D01*
X015299Y017205D02*
X013503Y017205D01*
X013405Y017303D02*
X015299Y017303D01*
X015299Y017402D02*
X013306Y017402D01*
X013208Y017501D02*
X015299Y017501D01*
X015299Y017599D02*
X008968Y017599D01*
X008989Y017698D02*
X015299Y017698D01*
X015299Y017796D02*
X008976Y017796D01*
X008920Y017895D02*
X015299Y017895D01*
X015299Y017993D02*
X008499Y017993D01*
X008485Y017895D02*
X008488Y017895D01*
X008505Y018092D02*
X015299Y018092D01*
X015299Y018190D02*
X008099Y018190D01*
X008060Y018190D02*
X007328Y018190D01*
X007328Y018177D02*
X007328Y018238D01*
X007309Y018257D01*
X007328Y018276D01*
X007328Y018337D01*
X007474Y018337D01*
X007573Y018436D01*
X007674Y018436D01*
X007674Y018414D01*
X007685Y018403D01*
X007684Y018403D01*
X007664Y018368D01*
X007654Y018330D01*
X007654Y018192D01*
X008060Y018192D01*
X008060Y018154D01*
X007654Y018154D01*
X007654Y018015D01*
X007660Y017991D01*
X007474Y018177D01*
X007334Y018177D01*
X007328Y018177D01*
X007328Y018289D02*
X007654Y018289D01*
X007675Y018387D02*
X007524Y018387D01*
X007560Y018092D02*
X007654Y018092D01*
X007658Y017993D02*
X007660Y017993D01*
X008505Y018289D02*
X015299Y018289D01*
X015299Y018387D02*
X008887Y018387D01*
X008962Y018486D02*
X015299Y018486D01*
X015299Y018585D02*
X008989Y018585D01*
X008981Y018683D02*
X015299Y018683D01*
X015299Y018782D02*
X008933Y018782D01*
X008880Y018880D02*
X015299Y018880D01*
X015299Y018979D02*
X008959Y018979D01*
X008989Y019077D02*
X015299Y019077D01*
X015299Y019176D02*
X008984Y019176D01*
X008940Y019274D02*
X015299Y019274D01*
X015299Y019373D02*
X008808Y019373D01*
X008600Y019373D02*
X008426Y019373D01*
X008426Y019471D02*
X009392Y019471D01*
X009367Y019497D02*
X009443Y019421D01*
X010023Y019421D01*
X010099Y019497D01*
X010099Y020077D01*
X010023Y020153D01*
X009443Y020153D01*
X009367Y020077D01*
X009367Y019497D01*
X009367Y019570D02*
X008426Y019570D01*
X008390Y019669D02*
X009367Y019669D01*
X009367Y019767D02*
X007318Y019767D01*
X007328Y019669D02*
X007690Y019669D01*
X007654Y019570D02*
X007328Y019570D01*
X007328Y019471D02*
X007654Y019471D01*
X007654Y019373D02*
X007328Y019373D01*
X007326Y019274D02*
X007654Y019274D01*
X008021Y019471D02*
X008059Y019471D01*
X008059Y019570D02*
X008021Y019570D01*
X008021Y019669D02*
X008059Y019669D01*
X007328Y019866D02*
X009367Y019866D01*
X009367Y019964D02*
X007328Y019964D01*
X007328Y020063D02*
X009367Y020063D01*
X010099Y020063D02*
X011658Y020063D01*
X011559Y020161D02*
X007328Y020161D01*
X007306Y020260D02*
X011461Y020260D01*
X011362Y020358D02*
X007395Y020358D01*
X007112Y020555D02*
X007092Y020555D01*
X007013Y020457D02*
X006994Y020457D01*
X006914Y020358D02*
X006895Y020358D01*
X006813Y020260D02*
X006797Y020260D01*
X006513Y020457D02*
X006074Y020457D01*
X006082Y020358D02*
X006434Y020358D01*
X006302Y020260D02*
X006082Y020260D01*
X006051Y020161D02*
X006280Y020161D01*
X006280Y020063D02*
X006011Y020063D01*
X005918Y019964D02*
X006280Y019964D01*
X006280Y019866D02*
X005754Y019866D01*
X005411Y019866D02*
X005318Y019866D01*
X005359Y019767D02*
X006290Y019767D01*
X006280Y019669D02*
X005375Y019669D01*
X005375Y019570D02*
X006280Y019570D01*
X006280Y019471D02*
X005351Y019471D01*
X005311Y019373D02*
X006280Y019373D01*
X006282Y019274D02*
X005228Y019274D01*
X005089Y019176D02*
X006280Y019176D01*
X006280Y019077D02*
X004645Y019077D01*
X004662Y019176D02*
X004604Y019176D01*
X004523Y019274D02*
X004523Y019274D01*
X004440Y019373D02*
X004385Y019373D01*
X004399Y019471D02*
X003067Y019471D01*
X003016Y019373D02*
X003951Y019373D01*
X003814Y019274D02*
X002964Y019274D01*
X002912Y019176D02*
X003732Y019176D01*
X003692Y019077D02*
X002860Y019077D01*
X002809Y018979D02*
X003668Y018979D01*
X003668Y018880D02*
X002757Y018880D01*
X002705Y018782D02*
X003685Y018782D01*
X003726Y018683D02*
X003636Y018683D01*
X003744Y018638D02*
X003885Y018498D01*
X003744Y018638D01*
X003798Y018585D02*
X003798Y018585D01*
X003890Y018486D02*
X003913Y018486D01*
X003931Y018387D02*
X003998Y018387D01*
X003998Y018289D02*
X003961Y018289D01*
X003961Y018190D02*
X003998Y018190D01*
X003998Y018092D02*
X003951Y018092D01*
X003911Y017993D02*
X003998Y017993D01*
X003998Y017895D02*
X003849Y017895D01*
X003750Y017796D02*
X003998Y017796D01*
X003998Y017698D02*
X003216Y017698D01*
X003254Y017599D02*
X003998Y017599D01*
X003998Y017501D02*
X003254Y017501D01*
X003252Y017402D02*
X003998Y017402D01*
X003998Y017303D02*
X003211Y017303D01*
X003159Y017205D02*
X003998Y017205D01*
X003998Y017106D02*
X003060Y017106D01*
X003059Y016909D02*
X003998Y016909D01*
X003998Y016811D02*
X003158Y016811D01*
X003210Y016712D02*
X003998Y016712D01*
X003998Y016614D02*
X003251Y016614D01*
X003254Y016515D02*
X003998Y016515D01*
X003998Y016417D02*
X003254Y016417D01*
X003234Y016318D02*
X003998Y016318D01*
X003998Y016219D02*
X003332Y016219D01*
X003431Y016121D02*
X003998Y016121D01*
X003998Y016022D02*
X003529Y016022D01*
X003628Y015924D02*
X003998Y015924D01*
X003998Y015825D02*
X003726Y015825D01*
X003825Y015727D02*
X003998Y015727D01*
X003998Y015628D02*
X003923Y015628D01*
X003640Y015431D02*
X003254Y015431D01*
X003254Y015408D02*
X003254Y015607D01*
X003178Y015791D01*
X003037Y015931D01*
X002853Y016007D01*
X002654Y016007D01*
X002853Y016007D01*
X003002Y016069D01*
X003834Y015237D01*
X003834Y014718D01*
X003222Y015330D01*
X003254Y015408D01*
X003223Y015333D02*
X003738Y015333D01*
X003834Y015234D02*
X003318Y015234D01*
X003416Y015136D02*
X003834Y015136D01*
X003834Y015037D02*
X003515Y015037D01*
X003613Y014938D02*
X003834Y014938D01*
X003834Y014840D02*
X003712Y014840D01*
X003810Y014741D02*
X003834Y014741D01*
X003625Y014446D02*
X003254Y014446D01*
X003254Y014544D02*
X003527Y014544D01*
X003428Y014643D02*
X003239Y014643D01*
X003198Y014741D02*
X003330Y014741D01*
X003231Y014840D02*
X003129Y014840D01*
X003133Y014938D02*
X003020Y014938D01*
X003034Y015037D02*
X002925Y015037D01*
X002583Y015037D02*
X001727Y015037D01*
X001727Y014938D02*
X002488Y014938D01*
X002379Y014840D02*
X001727Y014840D01*
X001727Y014741D02*
X002310Y014741D01*
X002269Y014643D02*
X001727Y014643D01*
X001727Y014544D02*
X002254Y014544D01*
X002254Y014446D02*
X001727Y014446D01*
X001727Y014347D02*
X002279Y014347D01*
X002320Y014249D02*
X001727Y014249D01*
X001727Y014150D02*
X002404Y014150D01*
X002548Y014052D02*
X001727Y014052D01*
X001727Y013953D02*
X002523Y013953D01*
X002394Y013854D02*
X001734Y013854D01*
X001746Y013756D02*
X002316Y013756D01*
X002275Y013657D02*
X001758Y013657D01*
X001770Y013559D02*
X002254Y013559D01*
X002254Y013460D02*
X001782Y013460D01*
X001794Y013362D02*
X002273Y013362D01*
X002314Y013263D02*
X001806Y013263D01*
X001818Y013165D02*
X002390Y013165D01*
X002513Y013066D02*
X001830Y013066D01*
X001842Y012968D02*
X002558Y012968D01*
X002409Y012869D02*
X001854Y012869D01*
X001866Y012770D02*
X002322Y012770D01*
X002281Y012672D02*
X001887Y012672D01*
X001911Y012573D02*
X002254Y012573D01*
X002254Y012475D02*
X001935Y012475D01*
X001959Y012376D02*
X002267Y012376D01*
X002308Y012278D02*
X001984Y012278D01*
X002008Y012179D02*
X002375Y012179D01*
X002478Y012081D02*
X002032Y012081D01*
X002057Y011982D02*
X002594Y011982D01*
X002423Y011884D02*
X002081Y011884D01*
X002105Y011785D02*
X002328Y011785D01*
X002287Y011686D02*
X002129Y011686D01*
X002154Y011588D02*
X002254Y011588D01*
X002254Y011489D02*
X002192Y011489D01*
X002229Y011391D02*
X002261Y011391D01*
X002267Y011292D02*
X002302Y011292D01*
X002304Y011194D02*
X002361Y011194D01*
X002341Y011095D02*
X002459Y011095D01*
X002379Y010997D02*
X003001Y010997D01*
X002961Y010898D02*
X002416Y010898D01*
X002453Y010800D02*
X002961Y010800D01*
X003050Y010504D02*
X002566Y010504D01*
X002615Y010405D02*
X003149Y010405D01*
X004628Y010291D02*
X006524Y012187D01*
X006985Y012187D01*
X006998Y012174D01*
X006987Y012164D01*
X006967Y012129D01*
X006957Y012091D01*
X006957Y011967D01*
X007300Y011967D01*
X007300Y011959D01*
X006957Y011959D01*
X006957Y011852D01*
X006861Y011892D01*
X006747Y011892D01*
X006642Y011849D01*
X006562Y011769D01*
X006519Y011664D01*
X006519Y011551D01*
X006562Y011446D01*
X006642Y011366D01*
X006663Y011357D01*
X006642Y011349D01*
X006562Y011269D01*
X006519Y011164D01*
X006519Y011051D01*
X006562Y010946D01*
X006642Y010866D01*
X006747Y010822D01*
X006861Y010822D01*
X006965Y010866D01*
X006977Y010878D01*
X006977Y010620D01*
X007012Y010585D01*
X006977Y010551D01*
X006977Y010302D01*
X005804Y009128D01*
X005682Y009179D01*
X005483Y009179D01*
X005299Y009103D01*
X005375Y009287D01*
X005375Y009486D01*
X005299Y009669D01*
X005159Y009810D01*
X004975Y009886D01*
X004776Y009886D01*
X004592Y009810D01*
X004668Y009994D01*
X004668Y010193D01*
X004628Y010291D01*
X004644Y010307D02*
X006977Y010307D01*
X006977Y010405D02*
X004742Y010405D01*
X004841Y010504D02*
X006977Y010504D01*
X006995Y010603D02*
X004939Y010603D01*
X005038Y010701D02*
X006977Y010701D01*
X006977Y010800D02*
X005136Y010800D01*
X005235Y010898D02*
X006610Y010898D01*
X006541Y010997D02*
X005334Y010997D01*
X005432Y011095D02*
X006519Y011095D01*
X006531Y011194D02*
X005531Y011194D01*
X005629Y011292D02*
X006586Y011292D01*
X006617Y011391D02*
X005728Y011391D01*
X005826Y011489D02*
X006544Y011489D01*
X006519Y011588D02*
X005925Y011588D01*
X006023Y011686D02*
X006528Y011686D01*
X006579Y011785D02*
X006122Y011785D01*
X006220Y011884D02*
X006726Y011884D01*
X006882Y011884D02*
X006957Y011884D01*
X006957Y011982D02*
X006319Y011982D01*
X006418Y012081D02*
X006957Y012081D01*
X006993Y012179D02*
X006516Y012179D01*
X006883Y010208D02*
X004662Y010208D01*
X004668Y010110D02*
X006785Y010110D01*
X006686Y010011D02*
X004668Y010011D01*
X004635Y009913D02*
X006588Y009913D01*
X006489Y009814D02*
X005148Y009814D01*
X005253Y009716D02*
X006391Y009716D01*
X006292Y009617D02*
X005321Y009617D01*
X005362Y009519D02*
X006194Y009519D01*
X006095Y009420D02*
X005375Y009420D01*
X005375Y009321D02*
X005997Y009321D01*
X005898Y009223D02*
X005349Y009223D01*
X005351Y009124D02*
X005308Y009124D01*
X005299Y009103D02*
X005159Y008962D01*
X005299Y009103D01*
X005222Y009026D02*
X005222Y009026D01*
X005144Y008927D02*
X005074Y008927D01*
X004602Y009814D02*
X004594Y009814D01*
X006474Y008632D02*
X007547Y008632D01*
X007519Y008533D02*
X006474Y008533D01*
X006479Y008435D02*
X007526Y008435D01*
X007572Y008336D02*
X006632Y008336D01*
X006721Y008237D02*
X007711Y008237D01*
X007897Y008237D02*
X008211Y008237D01*
X008072Y008336D02*
X008036Y008336D01*
X008397Y008237D02*
X008711Y008237D01*
X008572Y008336D02*
X008536Y008336D01*
X008897Y008237D02*
X009211Y008237D01*
X009072Y008336D02*
X009036Y008336D01*
X009397Y008237D02*
X012737Y008237D01*
X012639Y008139D02*
X006762Y008139D01*
X006790Y008040D02*
X012544Y008040D01*
X012530Y007942D02*
X006790Y007942D01*
X006777Y007843D02*
X012499Y007843D01*
X012144Y007745D02*
X007200Y007745D01*
X007047Y007745D02*
X006947Y007745D01*
X006947Y007646D02*
X007047Y007646D01*
X007047Y007548D02*
X006947Y007548D01*
X006947Y007449D02*
X007047Y007449D01*
X007047Y007351D02*
X006947Y007351D01*
X006947Y007055D02*
X007047Y007055D01*
X007047Y006956D02*
X006947Y006956D01*
X006947Y006858D02*
X007047Y006858D01*
X007047Y006759D02*
X006947Y006759D01*
X006869Y006759D02*
X005518Y006759D01*
X005394Y006858D02*
X006672Y006858D01*
X006578Y006956D02*
X005283Y006956D01*
X005172Y007055D02*
X006520Y007055D01*
X006488Y007154D02*
X005061Y007154D01*
X005660Y006661D02*
X007194Y006661D01*
X007223Y006759D02*
X007124Y006759D01*
X007510Y007351D02*
X011750Y007351D01*
X011849Y007449D02*
X007484Y007449D01*
X007434Y007548D02*
X011947Y007548D01*
X012046Y007646D02*
X007351Y007646D01*
X006793Y007745D02*
X006737Y007745D01*
X006567Y008730D02*
X007624Y008730D01*
X007885Y008829D02*
X006666Y008829D01*
X006764Y008927D02*
X007882Y008927D01*
X007853Y009026D02*
X006863Y009026D01*
X006961Y009124D02*
X007853Y009124D01*
X007853Y009223D02*
X007060Y009223D01*
X007158Y009321D02*
X007853Y009321D01*
X007853Y009420D02*
X007257Y009420D01*
X007355Y009519D02*
X007914Y009519D01*
X008269Y009519D02*
X008307Y009519D01*
X008663Y009519D02*
X008701Y009519D01*
X009056Y009519D02*
X009095Y009519D01*
X009450Y009519D02*
X009460Y009519D01*
X009484Y008730D02*
X011619Y008730D01*
X011627Y008632D02*
X009561Y008632D01*
X009589Y008533D02*
X011675Y008533D01*
X011818Y008435D02*
X009582Y008435D01*
X009536Y008336D02*
X013936Y008336D01*
X013886Y008435D02*
X014034Y008435D01*
X014133Y008533D02*
X013928Y008533D01*
X013928Y008632D02*
X014231Y008632D01*
X014330Y008730D02*
X013928Y008730D01*
X013928Y008829D02*
X014428Y008829D01*
X014494Y008927D02*
X013928Y008927D01*
X013925Y009026D02*
X014494Y009026D01*
X014494Y009124D02*
X013978Y009124D01*
X013989Y009223D02*
X014494Y009223D01*
X014494Y009321D02*
X013965Y009321D01*
X013916Y009420D02*
X014494Y009420D01*
X014494Y009519D02*
X013916Y009519D01*
X013916Y009617D02*
X014494Y009617D01*
X014494Y009716D02*
X013916Y009716D01*
X013916Y009814D02*
X014494Y009814D01*
X014494Y009913D02*
X013916Y009913D01*
X013891Y010011D02*
X014494Y010011D01*
X014494Y010110D02*
X012731Y010110D01*
X012731Y010208D02*
X014494Y010208D01*
X014494Y010307D02*
X012731Y010307D01*
X012717Y010011D02*
X012691Y010011D01*
X012692Y009913D02*
X011973Y009913D01*
X011989Y010011D02*
X012117Y010011D01*
X012077Y010110D02*
X011970Y010110D01*
X011908Y010208D02*
X012077Y010208D01*
X012077Y010307D02*
X011971Y010307D01*
X011989Y010405D02*
X012077Y010405D01*
X012129Y010504D02*
X011972Y010504D01*
X011912Y010603D02*
X012097Y010603D01*
X012097Y010701D02*
X011588Y010701D01*
X011588Y010800D02*
X012097Y010800D01*
X012097Y010898D02*
X011898Y010898D01*
X011967Y010997D02*
X012139Y010997D01*
X012194Y011095D02*
X011989Y011095D01*
X011977Y011194D02*
X012194Y011194D01*
X012194Y011292D02*
X011922Y011292D01*
X011764Y011391D02*
X012123Y011391D01*
X012025Y011489D02*
X011588Y011489D01*
X011588Y011588D02*
X011926Y011588D01*
X011828Y011686D02*
X011588Y011686D01*
X011570Y011391D02*
X011644Y011391D01*
X012669Y010997D02*
X012692Y010997D01*
X012423Y010208D02*
X012385Y010208D01*
X012385Y010110D02*
X012423Y010110D01*
X012423Y010011D02*
X012385Y010011D01*
X012692Y009814D02*
X011914Y009814D01*
X012087Y008927D02*
X012835Y008927D01*
X013114Y009015D02*
X013146Y009046D01*
X013189Y009151D01*
X013189Y009264D01*
X013169Y009311D01*
X013176Y009309D01*
X013300Y009309D01*
X013300Y009691D01*
X013308Y009691D01*
X013308Y009309D01*
X013432Y009309D01*
X013438Y009311D01*
X013419Y009264D01*
X013419Y009151D01*
X013450Y009076D01*
X013450Y008996D01*
X013404Y008950D01*
X013340Y009015D01*
X013114Y009015D01*
X013125Y009026D02*
X013450Y009026D01*
X013430Y009124D02*
X013178Y009124D01*
X013189Y009223D02*
X013419Y009223D01*
X013308Y009321D02*
X013300Y009321D01*
X013300Y009420D02*
X013308Y009420D01*
X013300Y009519D02*
X013308Y009519D01*
X013300Y009617D02*
X013308Y009617D01*
X013300Y009716D02*
X013308Y009716D01*
X013300Y009814D02*
X013308Y009814D01*
X013300Y009913D02*
X013308Y009913D01*
X013300Y010011D02*
X013308Y010011D01*
X012880Y008533D02*
X012133Y008533D01*
X011990Y008435D02*
X012922Y008435D01*
X013374Y008435D02*
X013434Y008435D01*
X013709Y007843D02*
X015299Y007843D01*
X015299Y007745D02*
X013709Y007745D01*
X013709Y007646D02*
X015299Y007646D01*
X015299Y007548D02*
X013709Y007548D01*
X013709Y007449D02*
X015299Y007449D01*
X015299Y007351D02*
X013709Y007351D01*
X013664Y007252D02*
X015299Y007252D01*
X015299Y007154D02*
X013664Y007154D01*
X013664Y007055D02*
X015299Y007055D01*
X015299Y006956D02*
X013664Y006956D01*
X013664Y006858D02*
X015299Y006858D01*
X015299Y006759D02*
X013664Y006759D01*
X013664Y006661D02*
X015299Y006661D01*
X015299Y006562D02*
X013664Y006562D01*
X013664Y006464D02*
X015299Y006464D01*
X015295Y006365D02*
X013664Y006365D01*
X013702Y006267D02*
X015287Y006267D01*
X015270Y006168D02*
X013800Y006168D01*
X013861Y006070D02*
X015245Y006070D01*
X015220Y005971D02*
X013902Y005971D01*
X013911Y005872D02*
X015195Y005872D01*
X015186Y005839D02*
X015186Y005839D01*
X015153Y005774D02*
X013911Y005774D01*
X013879Y005675D02*
X015102Y005675D01*
X015052Y005577D02*
X013839Y005577D01*
X013746Y005478D02*
X014997Y005478D01*
X014914Y005380D02*
X013581Y005380D01*
X013241Y005380D02*
X012632Y005380D01*
X012461Y005380D02*
X012361Y005380D01*
X012361Y005478D02*
X012461Y005478D01*
X012461Y005577D02*
X012361Y005577D01*
X012361Y005675D02*
X012461Y005675D01*
X012461Y005774D02*
X012361Y005774D01*
X012361Y005901D02*
X012361Y006369D01*
X012289Y006358D01*
X012211Y006332D01*
X012138Y006295D01*
X012072Y006247D01*
X012014Y006189D01*
X011966Y006123D01*
X011929Y006050D01*
X011904Y005972D01*
X011903Y005969D01*
X011835Y006134D01*
X011694Y006274D01*
X011614Y006308D01*
X011614Y006620D01*
X012391Y007397D01*
X012499Y007397D01*
X012499Y007304D01*
X012575Y007227D01*
X012894Y007227D01*
X012894Y007094D01*
X012892Y007092D01*
X012847Y007092D01*
X012742Y007049D01*
X012662Y006969D01*
X012619Y006864D01*
X012619Y006751D01*
X012662Y006646D01*
X012742Y006566D01*
X012847Y006522D01*
X012961Y006522D01*
X013065Y006566D01*
X013146Y006646D01*
X013189Y006751D01*
X013189Y006795D01*
X013244Y006850D01*
X013244Y006323D01*
X013128Y006274D01*
X012987Y006134D01*
X012919Y005969D01*
X012918Y005972D01*
X012893Y006050D01*
X012856Y006123D01*
X012807Y006189D01*
X012750Y006247D01*
X012683Y006295D01*
X012610Y006332D01*
X012533Y006358D01*
X012461Y006369D01*
X012461Y005901D01*
X012361Y005901D01*
X012361Y005971D02*
X012461Y005971D01*
X012461Y006070D02*
X012361Y006070D01*
X012361Y006168D02*
X012461Y006168D01*
X012461Y006267D02*
X012361Y006267D01*
X012361Y006365D02*
X012461Y006365D01*
X012486Y006365D02*
X013244Y006365D01*
X013244Y006464D02*
X011614Y006464D01*
X011614Y006562D02*
X012751Y006562D01*
X012656Y006661D02*
X011654Y006661D01*
X011753Y006759D02*
X012619Y006759D01*
X012619Y006858D02*
X011851Y006858D01*
X011950Y006956D02*
X012657Y006956D01*
X012757Y007055D02*
X012048Y007055D01*
X012147Y007154D02*
X012894Y007154D01*
X012550Y007252D02*
X012246Y007252D01*
X012344Y007351D02*
X012499Y007351D01*
X013189Y006759D02*
X013244Y006759D01*
X013244Y006661D02*
X013152Y006661D01*
X013244Y006562D02*
X013057Y006562D01*
X013120Y006267D02*
X012723Y006267D01*
X012823Y006168D02*
X013021Y006168D01*
X012960Y006070D02*
X012883Y006070D01*
X012918Y005971D02*
X012919Y005971D01*
X012901Y005675D02*
X012942Y005675D01*
X012983Y005577D02*
X012855Y005577D01*
X012774Y005478D02*
X013076Y005478D01*
X012189Y005380D02*
X011581Y005380D01*
X011746Y005478D02*
X012048Y005478D01*
X011967Y005577D02*
X011839Y005577D01*
X011879Y005675D02*
X011921Y005675D01*
X011902Y005971D02*
X011903Y005971D01*
X011939Y006070D02*
X011861Y006070D01*
X011800Y006168D02*
X011999Y006168D01*
X012099Y006267D02*
X011702Y006267D01*
X011614Y006365D02*
X012336Y006365D01*
X011455Y007055D02*
X007856Y007055D01*
X008040Y006956D02*
X011356Y006956D01*
X011257Y006858D02*
X008128Y006858D01*
X008185Y006759D02*
X011194Y006759D01*
X011194Y006661D02*
X008214Y006661D01*
X008723Y006267D02*
X009120Y006267D01*
X009021Y006168D02*
X008823Y006168D01*
X008799Y006168D02*
X008658Y006168D01*
X008701Y006070D02*
X008559Y006070D01*
X008602Y005971D02*
X008461Y005971D01*
X008460Y005872D02*
X008504Y005872D01*
X008109Y005478D02*
X007740Y005478D01*
X008000Y005380D02*
X008190Y005380D01*
X008259Y005281D02*
X014831Y005281D01*
X014744Y005183D02*
X008519Y005183D01*
X008881Y005084D02*
X014614Y005084D01*
X014484Y004986D02*
X009281Y004986D01*
X009681Y004887D02*
X014291Y004887D01*
X014053Y004788D02*
X010433Y004788D01*
X008942Y005675D02*
X008901Y005675D01*
X008918Y005971D02*
X008920Y005971D01*
X008883Y006070D02*
X008960Y006070D01*
X007939Y006070D02*
X007884Y006070D01*
X014135Y007942D02*
X015299Y007942D01*
X015299Y008040D02*
X014234Y008040D01*
X014332Y008139D02*
X015299Y008139D01*
X015299Y008237D02*
X014431Y008237D01*
X014530Y008336D02*
X015299Y008336D01*
X015299Y008435D02*
X014628Y008435D01*
X014727Y008533D02*
X015299Y008533D01*
X015299Y008632D02*
X014825Y008632D01*
X014914Y008730D02*
X015299Y008730D01*
X015299Y008829D02*
X014914Y008829D01*
X014914Y008927D02*
X015299Y008927D01*
X015299Y009026D02*
X014914Y009026D01*
X014914Y009124D02*
X015299Y009124D01*
X015299Y009223D02*
X014914Y009223D01*
X014914Y009321D02*
X015299Y009321D01*
X015299Y009420D02*
X014914Y009420D01*
X014914Y009519D02*
X015299Y009519D01*
X015299Y009617D02*
X014914Y009617D01*
X014914Y009716D02*
X015299Y009716D01*
X015299Y009814D02*
X014914Y009814D01*
X014914Y009913D02*
X015299Y009913D01*
X015299Y010011D02*
X014914Y010011D01*
X014914Y010110D02*
X015299Y010110D01*
X015299Y010208D02*
X014914Y010208D01*
X014914Y010307D02*
X015299Y010307D01*
X015299Y010405D02*
X014914Y010405D01*
X014914Y010504D02*
X015299Y010504D01*
X015299Y010603D02*
X014914Y010603D01*
X014914Y010701D02*
X015299Y010701D01*
X015299Y010800D02*
X014914Y010800D01*
X014914Y010898D02*
X015299Y010898D01*
X015299Y010997D02*
X014914Y010997D01*
X014914Y011095D02*
X015299Y011095D01*
X015299Y011194D02*
X014914Y011194D01*
X014914Y011292D02*
X015299Y011292D01*
X014494Y012672D02*
X012531Y012672D01*
X012531Y012733D02*
X012223Y012733D01*
X012223Y012770D01*
X012531Y012770D01*
X012531Y012909D01*
X012521Y012947D01*
X012501Y012981D01*
X012473Y013009D01*
X012458Y013018D01*
X012493Y013053D01*
X012692Y013053D01*
X012692Y012929D01*
X012768Y012853D01*
X013092Y012853D01*
X013168Y012929D01*
X013168Y013075D01*
X013214Y013120D01*
X013214Y013294D01*
X013168Y013340D01*
X013168Y013509D01*
X013114Y013563D01*
X013114Y013714D01*
X013146Y013746D01*
X013189Y013851D01*
X013189Y013964D01*
X013146Y014069D01*
X013065Y014149D01*
X012961Y014192D01*
X012847Y014192D01*
X012742Y014149D01*
X012662Y014069D01*
X012619Y013964D01*
X012619Y013851D01*
X012662Y013746D01*
X012694Y013714D01*
X012694Y013511D01*
X012692Y013509D01*
X012692Y013473D01*
X012493Y013473D01*
X012435Y013531D01*
X011973Y013531D01*
X011897Y013455D01*
X011897Y013072D01*
X011950Y013018D01*
X011935Y013009D01*
X011907Y012981D01*
X011887Y012947D01*
X011877Y012909D01*
X011877Y012770D01*
X012185Y012770D01*
X012185Y012733D01*
X011877Y012733D01*
X011877Y012594D01*
X011887Y012556D01*
X011907Y012522D01*
X011935Y012494D01*
X011969Y012474D01*
X012007Y012464D01*
X012185Y012464D01*
X012185Y012732D01*
X012223Y012732D01*
X012223Y012464D01*
X012401Y012464D01*
X012439Y012474D01*
X012473Y012494D01*
X012501Y012522D01*
X012521Y012556D01*
X012531Y012594D01*
X012531Y012733D01*
X012531Y012770D02*
X014494Y012770D01*
X014494Y012869D02*
X013856Y012869D01*
X013840Y012853D02*
X013916Y012929D01*
X013916Y013509D01*
X013840Y013585D01*
X013516Y013585D01*
X013440Y013509D01*
X013440Y012929D01*
X013516Y012853D01*
X013840Y012853D01*
X013916Y012968D02*
X014494Y012968D01*
X014494Y013066D02*
X013916Y013066D01*
X013916Y013165D02*
X014494Y013165D01*
X014494Y013263D02*
X013916Y013263D01*
X013916Y013362D02*
X014494Y013362D01*
X014494Y013460D02*
X013916Y013460D01*
X013867Y013559D02*
X014494Y013559D01*
X014494Y013657D02*
X013114Y013657D01*
X013119Y013559D02*
X013489Y013559D01*
X013440Y013460D02*
X013168Y013460D01*
X013168Y013362D02*
X013440Y013362D01*
X013440Y013263D02*
X013214Y013263D01*
X013214Y013165D02*
X013440Y013165D01*
X013440Y013066D02*
X013168Y013066D01*
X013168Y012968D02*
X013440Y012968D01*
X013500Y012869D02*
X013108Y012869D01*
X013145Y012573D02*
X012526Y012573D01*
X012441Y012475D02*
X012692Y012475D01*
X012692Y012376D02*
X008932Y012376D01*
X009031Y012278D02*
X012692Y012278D01*
X012752Y012869D02*
X012531Y012869D01*
X012509Y012968D02*
X012692Y012968D01*
X012223Y012672D02*
X012185Y012672D01*
X012185Y012573D02*
X012223Y012573D01*
X012223Y012475D02*
X012185Y012475D01*
X011967Y012475D02*
X008833Y012475D01*
X008735Y012573D02*
X011882Y012573D01*
X011877Y012672D02*
X008714Y012672D01*
X008714Y012770D02*
X011877Y012770D01*
X011877Y012869D02*
X010667Y012869D01*
X010692Y012968D02*
X011899Y012968D01*
X011902Y013066D02*
X010692Y013066D01*
X010692Y013165D02*
X011897Y013165D01*
X011897Y013263D02*
X010692Y013263D01*
X010692Y013362D02*
X011897Y013362D01*
X011902Y013460D02*
X010627Y013460D01*
X010624Y013559D02*
X012694Y013559D01*
X012694Y013657D02*
X010624Y013657D01*
X010624Y013756D02*
X012658Y013756D01*
X012619Y013854D02*
X010624Y013854D01*
X010624Y013953D02*
X012619Y013953D01*
X012655Y014052D02*
X010624Y014052D01*
X010624Y014150D02*
X012745Y014150D01*
X013063Y014150D02*
X013476Y014150D01*
X013471Y014158D02*
X013491Y014124D01*
X013519Y014096D01*
X013553Y014076D01*
X013591Y014066D01*
X013935Y014066D01*
X013935Y014461D01*
X013461Y014461D01*
X013461Y014196D01*
X013471Y014158D01*
X013461Y014249D02*
X010624Y014249D01*
X010624Y014347D02*
X013461Y014347D01*
X013461Y014446D02*
X010624Y014446D01*
X010744Y014544D02*
X013935Y014544D01*
X013935Y014561D02*
X013461Y014561D01*
X013461Y014826D01*
X013471Y014864D01*
X013491Y014899D01*
X013519Y014927D01*
X013553Y014946D01*
X013591Y014957D01*
X013935Y014957D01*
X013935Y014561D01*
X013935Y014643D02*
X014035Y014643D01*
X014035Y014741D02*
X013935Y014741D01*
X013935Y014840D02*
X014035Y014840D01*
X014035Y014938D02*
X013935Y014938D01*
X013539Y014938D02*
X010676Y014938D01*
X010758Y014840D02*
X013465Y014840D01*
X013461Y014741D02*
X010789Y014741D01*
X010786Y014643D02*
X013461Y014643D01*
X013935Y014446D02*
X014035Y014446D01*
X014035Y014347D02*
X013935Y014347D01*
X013935Y014249D02*
X014035Y014249D01*
X014035Y014150D02*
X013935Y014150D01*
X014494Y014052D02*
X013153Y014052D01*
X013189Y013953D02*
X014494Y013953D01*
X014494Y013854D02*
X013189Y013854D01*
X013150Y013756D02*
X014494Y013756D01*
X014494Y014938D02*
X014431Y014938D01*
X014494Y015234D02*
X009474Y015234D01*
X009474Y015137D02*
X009374Y015037D01*
X009275Y014938D02*
X010332Y014938D01*
X010250Y014840D02*
X009177Y014840D01*
X009078Y014741D02*
X010219Y014741D01*
X010222Y014643D02*
X008980Y014643D01*
X009247Y014544D02*
X010264Y014544D01*
X010284Y014446D02*
X009346Y014446D01*
X009445Y014347D02*
X009841Y014347D01*
X009754Y014249D02*
X009543Y014249D01*
X009642Y014150D02*
X009719Y014150D01*
X010167Y014347D02*
X010284Y014347D01*
X010284Y014249D02*
X010254Y014249D01*
X009474Y015333D02*
X014494Y015333D01*
X014494Y015431D02*
X009474Y015431D01*
X009474Y015530D02*
X014494Y015530D01*
X014486Y015628D02*
X009474Y015628D01*
X009474Y015727D02*
X014388Y015727D01*
X014289Y015825D02*
X009474Y015825D01*
X009474Y015924D02*
X014190Y015924D01*
X014092Y016022D02*
X009474Y016022D01*
X009474Y016121D02*
X013993Y016121D01*
X013895Y016219D02*
X009474Y016219D01*
X009474Y016318D02*
X013796Y016318D01*
X013698Y016417D02*
X009474Y016417D01*
X009474Y016515D02*
X013599Y016515D01*
X013501Y016614D02*
X009474Y016614D01*
X009439Y016712D02*
X013402Y016712D01*
X013304Y016811D02*
X009341Y016811D01*
X009242Y016909D02*
X013205Y016909D01*
X013106Y017008D02*
X009144Y017008D01*
X008959Y016712D02*
X008485Y016712D01*
X008485Y016614D02*
X008507Y016614D01*
X008631Y016121D02*
X009134Y016121D01*
X009134Y016219D02*
X008919Y016219D01*
X008975Y016318D02*
X009134Y016318D01*
X009134Y016417D02*
X008989Y016417D01*
X008968Y016515D02*
X009134Y016515D01*
X009057Y016614D02*
X008901Y016614D01*
X008892Y016022D02*
X009134Y016022D01*
X009134Y015924D02*
X008964Y015924D01*
X008989Y015825D02*
X009134Y015825D01*
X009134Y015727D02*
X008979Y015727D01*
X008928Y015628D02*
X009134Y015628D01*
X009134Y015530D02*
X008778Y015530D01*
X008630Y015530D02*
X008486Y015530D01*
X008495Y015514D02*
X008475Y015548D01*
X008447Y015576D01*
X008413Y015596D01*
X008375Y015606D01*
X008128Y015606D01*
X008128Y015308D01*
X008031Y015308D01*
X008031Y015606D01*
X007784Y015606D01*
X007746Y015596D01*
X007712Y015576D01*
X007684Y015548D01*
X007664Y015514D01*
X007654Y015476D01*
X007654Y015308D01*
X008031Y015308D01*
X008031Y015211D01*
X007654Y015211D01*
X007654Y015043D01*
X007664Y015005D01*
X007684Y014970D01*
X007712Y014942D01*
X007746Y014923D01*
X007784Y014913D01*
X008031Y014913D01*
X008031Y015211D01*
X008128Y015211D01*
X008128Y015308D01*
X008505Y015308D01*
X008505Y015476D01*
X008495Y015514D01*
X008505Y015431D02*
X009134Y015431D01*
X009134Y015333D02*
X008505Y015333D01*
X008505Y015211D02*
X008128Y015211D01*
X008128Y014913D01*
X008375Y014913D01*
X008413Y014923D01*
X008447Y014942D01*
X008475Y014970D01*
X008495Y015005D01*
X008505Y015043D01*
X008505Y015211D01*
X008505Y015136D02*
X008992Y015136D01*
X009090Y015234D02*
X008128Y015234D01*
X008031Y015234D02*
X004338Y015234D01*
X004338Y015136D02*
X007654Y015136D01*
X007655Y015037D02*
X004877Y015037D01*
X004958Y014938D02*
X007719Y014938D01*
X008031Y014938D02*
X008128Y014938D01*
X008128Y015037D02*
X008031Y015037D01*
X008031Y015136D02*
X008128Y015136D01*
X008128Y015333D02*
X008031Y015333D01*
X008031Y015431D02*
X008128Y015431D01*
X008128Y015530D02*
X008031Y015530D01*
X007673Y015530D02*
X004338Y015530D01*
X004338Y015628D02*
X008480Y015628D01*
X008429Y015727D02*
X007278Y015727D01*
X007328Y015825D02*
X007674Y015825D01*
X007654Y015431D02*
X004338Y015431D01*
X004338Y015333D02*
X007654Y015333D01*
X008440Y014938D02*
X008795Y014938D01*
X008696Y014840D02*
X004989Y014840D01*
X004530Y015037D02*
X004338Y015037D01*
X004338Y014938D02*
X004450Y014938D01*
X004419Y014840D02*
X004338Y014840D01*
X004410Y014741D02*
X004423Y014741D01*
X003921Y014150D02*
X003402Y014150D01*
X003500Y014052D02*
X004019Y014052D01*
X003822Y014249D02*
X003303Y014249D01*
X003229Y014347D02*
X003724Y014347D01*
X003216Y013854D02*
X003114Y013854D01*
X003118Y013953D02*
X002985Y013953D01*
X002960Y014052D02*
X003019Y014052D01*
X003192Y013756D02*
X003315Y013756D01*
X003233Y013657D02*
X003414Y013657D01*
X002419Y015136D02*
X001731Y015136D01*
X001743Y015234D02*
X002326Y015234D01*
X002285Y015333D02*
X001755Y015333D01*
X001767Y015431D02*
X002254Y015431D01*
X002254Y015530D02*
X001779Y015530D01*
X001791Y015628D02*
X002263Y015628D01*
X002304Y015727D02*
X001803Y015727D01*
X001815Y015825D02*
X002365Y015825D01*
X002463Y015924D02*
X001827Y015924D01*
X001839Y016022D02*
X002618Y016022D01*
X002433Y016121D02*
X001851Y016121D01*
X001863Y016219D02*
X002335Y016219D01*
X002291Y016318D02*
X001880Y016318D01*
X001905Y016417D02*
X002254Y016417D01*
X002254Y016515D02*
X001929Y016515D01*
X001953Y016614D02*
X002257Y016614D01*
X002298Y016712D02*
X001978Y016712D01*
X002002Y016811D02*
X002350Y016811D01*
X002449Y016909D02*
X002026Y016909D01*
X002050Y017008D02*
X002653Y017008D01*
X002855Y017008D02*
X003998Y017008D01*
X004338Y017008D02*
X006280Y017008D01*
X006280Y017106D02*
X004338Y017106D01*
X004338Y017205D02*
X006280Y017205D01*
X006338Y017303D02*
X004338Y017303D01*
X004338Y017402D02*
X006338Y017402D01*
X006338Y017501D02*
X004338Y017501D01*
X004338Y017599D02*
X006338Y017599D01*
X006338Y017698D02*
X004338Y017698D01*
X004338Y017796D02*
X006280Y017796D01*
X006280Y017895D02*
X004338Y017895D01*
X004338Y017993D02*
X006280Y017993D01*
X006280Y018092D02*
X004338Y018092D01*
X004338Y018190D02*
X006280Y018190D01*
X006280Y018289D02*
X004338Y018289D01*
X004338Y018387D02*
X006280Y018387D01*
X006280Y018486D02*
X004423Y018486D01*
X004538Y018585D02*
X006280Y018585D01*
X006280Y018683D02*
X004611Y018683D01*
X004651Y018782D02*
X006280Y018782D01*
X006280Y018880D02*
X004668Y018880D01*
X004668Y018979D02*
X006280Y018979D01*
X005247Y019964D02*
X005247Y019964D01*
X005154Y020063D02*
X005134Y020063D01*
X005114Y020161D02*
X003526Y020161D01*
X003458Y020063D02*
X004617Y020063D01*
X004504Y019964D02*
X003390Y019964D01*
X003322Y019866D02*
X004432Y019866D01*
X004391Y019767D02*
X003254Y019767D01*
X003186Y019669D02*
X004375Y019669D01*
X004375Y019570D02*
X003119Y019570D01*
X003594Y020260D02*
X005083Y020260D01*
X005083Y020358D02*
X003662Y020358D01*
X003730Y020457D02*
X005091Y020457D01*
X005132Y020555D02*
X003800Y020555D01*
X003887Y020654D02*
X005194Y020654D01*
X005292Y020752D02*
X003974Y020752D01*
X004062Y020851D02*
X005828Y020851D01*
X005790Y020950D02*
X004149Y020950D01*
X004236Y021048D02*
X005790Y021048D01*
X005791Y021147D02*
X004324Y021147D01*
X004411Y021245D02*
X005832Y021245D01*
X005883Y021344D02*
X004498Y021344D01*
X004588Y021442D02*
X005982Y021442D01*
X006185Y021541D02*
X004699Y021541D01*
X004810Y021639D02*
X006501Y021639D01*
X006497Y021738D02*
X004921Y021738D01*
X005033Y021836D02*
X006497Y021836D01*
X006532Y021935D02*
X005144Y021935D01*
X005255Y022034D02*
X006573Y022034D01*
X006672Y022132D02*
X005366Y022132D01*
X005482Y022231D02*
X006851Y022231D01*
X007143Y022231D02*
X007256Y022231D01*
X007216Y022329D02*
X005624Y022329D01*
X005767Y022428D02*
X007204Y022428D01*
X007204Y022526D02*
X005910Y022526D01*
X006053Y022625D02*
X007232Y022625D01*
X007273Y022723D02*
X006195Y022723D01*
X006338Y022822D02*
X007362Y022822D01*
X007516Y022920D02*
X006495Y022920D01*
X006683Y023019D02*
X007930Y023019D01*
X007911Y023118D02*
X006871Y023118D01*
X007058Y023216D02*
X007911Y023216D01*
X007932Y023315D02*
X007246Y023315D01*
X007434Y023413D02*
X007973Y023413D01*
X008051Y023512D02*
X007674Y023512D01*
X007934Y023610D02*
X008181Y023610D01*
X008194Y023709D02*
X014827Y023709D01*
X014906Y023610D02*
X013640Y023610D01*
X013694Y023588D02*
X013510Y023664D01*
X013311Y023664D01*
X013128Y023588D01*
X012987Y023447D01*
X012911Y023264D01*
X012911Y023065D01*
X012987Y022881D01*
X013128Y022740D01*
X013311Y022664D01*
X013510Y022664D01*
X013694Y022740D01*
X013835Y022881D01*
X013911Y023065D01*
X013911Y023264D01*
X013835Y023447D01*
X013694Y023588D01*
X013770Y023512D02*
X014984Y023512D01*
X015047Y023413D02*
X013849Y023413D01*
X013890Y023315D02*
X015095Y023315D01*
X015142Y023216D02*
X013911Y023216D01*
X013911Y023118D02*
X015190Y023118D01*
X015217Y023019D02*
X013892Y023019D01*
X013851Y022920D02*
X015239Y022920D01*
X015262Y022822D02*
X013776Y022822D01*
X013653Y022723D02*
X015284Y022723D01*
X015292Y022625D02*
X011162Y022625D01*
X011063Y022526D02*
X015298Y022526D01*
X015299Y022428D02*
X010965Y022428D01*
X010866Y022329D02*
X015299Y022329D01*
X015299Y022231D02*
X010768Y022231D01*
X010669Y022132D02*
X015299Y022132D01*
X015299Y022034D02*
X010570Y022034D01*
X010472Y021935D02*
X015299Y021935D01*
X015299Y021836D02*
X010373Y021836D01*
X010275Y021738D02*
X015299Y021738D01*
X015299Y021639D02*
X010176Y021639D01*
X010078Y021541D02*
X015299Y021541D01*
X015299Y021442D02*
X009979Y021442D01*
X009881Y021344D02*
X015299Y021344D01*
X015299Y021245D02*
X009782Y021245D01*
X009684Y021147D02*
X015299Y021147D01*
X015299Y021048D02*
X009585Y021048D01*
X009486Y020950D02*
X015299Y020950D01*
X015299Y020851D02*
X007388Y020851D01*
X007309Y020752D02*
X007289Y020752D01*
X007210Y020654D02*
X007191Y020654D01*
X006907Y020851D02*
X006751Y020851D01*
X006790Y020950D02*
X007006Y020950D01*
X007104Y021048D02*
X006790Y021048D01*
X006788Y021147D02*
X007203Y021147D01*
X007301Y021245D02*
X006747Y021245D01*
X006696Y021344D02*
X006696Y021344D01*
X006597Y021442D02*
X006597Y021442D01*
X006542Y021541D02*
X006394Y021541D01*
X006706Y020752D02*
X006809Y020752D01*
X006710Y020654D02*
X006608Y020654D01*
X006612Y020555D02*
X006419Y020555D01*
X006160Y020555D02*
X006033Y020555D01*
X007298Y021344D02*
X009400Y021344D01*
X009498Y021442D02*
X007396Y021442D01*
X007451Y021541D02*
X009597Y021541D01*
X009696Y021639D02*
X007492Y021639D01*
X007497Y021738D02*
X009794Y021738D01*
X009893Y021836D02*
X007497Y021836D01*
X007461Y021935D02*
X009991Y021935D01*
X010090Y022034D02*
X007987Y022034D01*
X008086Y022132D02*
X010188Y022132D01*
X010287Y022231D02*
X008151Y022231D01*
X008192Y022329D02*
X010385Y022329D01*
X010484Y022428D02*
X008204Y022428D01*
X008204Y022526D02*
X010582Y022526D01*
X010681Y022625D02*
X008175Y022625D01*
X008169Y022723D02*
X008135Y022723D01*
X008046Y022822D02*
X008046Y022822D01*
X007971Y022920D02*
X007892Y022920D01*
X008653Y022723D02*
X009169Y022723D01*
X009046Y022822D02*
X008776Y022822D01*
X008851Y022920D02*
X008971Y022920D01*
X008930Y023019D02*
X008892Y023019D01*
X008911Y023118D02*
X008911Y023118D01*
X008911Y023216D02*
X008911Y023216D01*
X008890Y023315D02*
X008932Y023315D01*
X008973Y023413D02*
X008849Y023413D01*
X008770Y023512D02*
X009051Y023512D01*
X009181Y023610D02*
X008641Y023610D01*
X008454Y023807D02*
X014735Y023807D01*
X014611Y023906D02*
X008780Y023906D01*
X009180Y024004D02*
X014488Y024004D01*
X014302Y024103D02*
X009580Y024103D01*
X009641Y023610D02*
X010181Y023610D01*
X010051Y023512D02*
X009770Y023512D01*
X009849Y023413D02*
X009973Y023413D01*
X009932Y023315D02*
X009890Y023315D01*
X009892Y023019D02*
X009930Y023019D01*
X009971Y022920D02*
X009851Y022920D01*
X009776Y022822D02*
X010046Y022822D01*
X010169Y022723D02*
X009653Y022723D01*
X010653Y022723D02*
X010779Y022723D01*
X010776Y022822D02*
X010878Y022822D01*
X010851Y022920D02*
X010971Y022920D01*
X010930Y023019D02*
X010892Y023019D01*
X010911Y023118D02*
X010911Y023118D01*
X010911Y023216D02*
X010911Y023216D01*
X010890Y023315D02*
X010932Y023315D01*
X010973Y023413D02*
X010849Y023413D01*
X010770Y023512D02*
X011051Y023512D01*
X011181Y023610D02*
X010640Y023610D01*
X010229Y024201D02*
X014097Y024201D01*
X013546Y024300D02*
X011426Y024300D01*
X011640Y023610D02*
X012181Y023610D01*
X012128Y023588D02*
X011987Y023447D01*
X011911Y023264D01*
X011911Y023065D01*
X011987Y022881D01*
X012128Y022740D01*
X012311Y022664D01*
X012510Y022664D01*
X012694Y022740D01*
X012835Y022881D01*
X012911Y023065D01*
X012911Y023264D01*
X012835Y023447D01*
X012694Y023588D01*
X012510Y023664D01*
X012311Y023664D01*
X012128Y023588D01*
X012051Y023512D02*
X011770Y023512D01*
X011849Y023413D02*
X011973Y023413D01*
X011932Y023315D02*
X011890Y023315D01*
X011892Y023019D02*
X011930Y023019D01*
X011971Y022920D02*
X011851Y022920D01*
X011776Y022822D02*
X012046Y022822D01*
X012168Y022723D02*
X011653Y022723D01*
X012653Y022723D02*
X013169Y022723D01*
X013046Y022822D02*
X012776Y022822D01*
X012851Y022920D02*
X012971Y022920D01*
X012930Y023019D02*
X012892Y023019D01*
X012911Y023118D02*
X012911Y023118D01*
X012911Y023216D02*
X012911Y023216D01*
X012890Y023315D02*
X012932Y023315D01*
X012973Y023413D02*
X012849Y023413D01*
X012770Y023512D02*
X013051Y023512D01*
X013181Y023610D02*
X012640Y023610D01*
X011449Y020752D02*
X015299Y020752D01*
X015299Y020654D02*
X011547Y020654D01*
X011646Y020555D02*
X015299Y020555D01*
X015299Y020457D02*
X011744Y020457D01*
X011843Y020358D02*
X015299Y020358D01*
X015299Y020260D02*
X011942Y020260D01*
X012040Y020161D02*
X012901Y020161D01*
X012904Y020163D02*
X012869Y020143D01*
X012841Y020115D01*
X012822Y020081D01*
X012811Y020043D01*
X012811Y019837D01*
X013541Y019837D01*
X013541Y019737D01*
X012811Y019737D01*
X012811Y019531D01*
X012822Y019493D01*
X012841Y019459D01*
X012869Y019431D01*
X012904Y019411D01*
X012942Y019401D01*
X013541Y019401D01*
X013541Y019737D01*
X013641Y019737D01*
X013641Y019401D01*
X014241Y019401D01*
X014279Y019411D01*
X014313Y019431D01*
X014341Y019459D01*
X014361Y019493D01*
X014371Y019531D01*
X014371Y019737D01*
X013641Y019737D01*
X013641Y019837D01*
X013541Y019837D01*
X013541Y020173D01*
X012942Y020173D01*
X012904Y020163D01*
X012817Y020063D02*
X012461Y020063D01*
X012461Y019964D02*
X012811Y019964D01*
X012811Y019866D02*
X012461Y019866D01*
X012461Y019767D02*
X013541Y019767D01*
X013541Y019669D02*
X013641Y019669D01*
X013641Y019767D02*
X015299Y019767D01*
X015299Y019669D02*
X014371Y019669D01*
X014371Y019570D02*
X015299Y019570D01*
X015299Y019471D02*
X014349Y019471D01*
X014371Y019837D02*
X014371Y020043D01*
X014361Y020081D01*
X014341Y020115D01*
X014313Y020143D01*
X014279Y020163D01*
X014241Y020173D01*
X013641Y020173D01*
X013641Y019837D01*
X014371Y019837D01*
X014371Y019866D02*
X015299Y019866D01*
X015299Y019964D02*
X014371Y019964D01*
X014366Y020063D02*
X015299Y020063D01*
X015299Y020161D02*
X014282Y020161D01*
X013641Y020161D02*
X013541Y020161D01*
X013541Y020063D02*
X013641Y020063D01*
X013641Y019964D02*
X013541Y019964D01*
X013541Y019866D02*
X013641Y019866D01*
X013641Y019570D02*
X013541Y019570D01*
X013541Y019471D02*
X013641Y019471D01*
X012834Y019471D02*
X012436Y019471D01*
X012461Y019570D02*
X012811Y019570D01*
X012811Y019669D02*
X012461Y019669D01*
X011887Y019669D02*
X010099Y019669D01*
X010099Y019767D02*
X011887Y019767D01*
X011855Y019866D02*
X010099Y019866D01*
X010099Y019964D02*
X011756Y019964D01*
X011887Y019570D02*
X010099Y019570D01*
X010074Y019471D02*
X011912Y019471D01*
X008521Y018387D02*
X008484Y018387D01*
X006280Y016909D02*
X004338Y016909D01*
X004338Y016811D02*
X006280Y016811D01*
X006280Y016712D02*
X004338Y016712D01*
X004338Y016614D02*
X006280Y016614D01*
X006280Y016515D02*
X004338Y016515D01*
X004338Y016417D02*
X006280Y016417D01*
X006280Y016318D02*
X004338Y016318D01*
X004338Y016219D02*
X006280Y016219D01*
X006280Y016121D02*
X004338Y016121D01*
X004338Y016022D02*
X006280Y016022D01*
X006280Y015924D02*
X004338Y015924D01*
X004338Y015825D02*
X006280Y015825D01*
X006330Y015727D02*
X004338Y015727D01*
X003541Y015530D02*
X003254Y015530D01*
X003245Y015628D02*
X003443Y015628D01*
X003344Y015727D02*
X003204Y015727D01*
X003246Y015825D02*
X003143Y015825D01*
X003147Y015924D02*
X003045Y015924D01*
X003049Y016022D02*
X002890Y016022D01*
X002448Y017106D02*
X002075Y017106D01*
X002099Y017205D02*
X002349Y017205D01*
X002297Y017303D02*
X002123Y017303D01*
X002148Y017402D02*
X002256Y017402D01*
X002254Y017501D02*
X002182Y017501D01*
X002220Y017599D02*
X002254Y017599D01*
X002257Y017698D02*
X002292Y017698D01*
X002294Y017796D02*
X002336Y017796D01*
X002332Y017895D02*
X002434Y017895D01*
X002369Y017993D02*
X002621Y017993D01*
X002407Y018092D02*
X002971Y018092D01*
X002961Y018190D02*
X002444Y018190D01*
X002481Y018289D02*
X002961Y018289D01*
X002992Y018387D02*
X002519Y018387D01*
X002556Y018486D02*
X003032Y018486D01*
X003124Y018585D02*
X002602Y018585D01*
X002654Y018683D02*
X003286Y018683D01*
X003012Y017993D02*
X002887Y017993D01*
X006766Y015727D02*
X006842Y015727D01*
X008504Y015037D02*
X008893Y015037D01*
X008856Y013953D02*
X009008Y013953D01*
X008951Y013854D02*
X009104Y013854D01*
X009104Y013756D02*
X008989Y013756D01*
X008989Y013657D02*
X009104Y013657D01*
X009104Y013559D02*
X008951Y013559D01*
X009080Y013460D02*
X009099Y013460D01*
X008883Y013066D02*
X008875Y013066D01*
X008875Y012968D02*
X008883Y012968D01*
X008875Y012869D02*
X008883Y012869D01*
D25*
X008704Y013707D03*
X010004Y014107D03*
X010504Y014707D03*
X012104Y014707D03*
X012604Y014707D03*
X013104Y014707D03*
X012904Y013907D03*
X011604Y012707D03*
X012904Y011607D03*
X013704Y011607D03*
X011704Y011107D03*
X011704Y010407D03*
X011704Y010007D03*
X012904Y009207D03*
X013704Y009207D03*
X011904Y008707D03*
X009804Y008507D03*
X009304Y008507D03*
X008804Y008507D03*
X008304Y008507D03*
X007804Y008507D03*
X007404Y009107D03*
X006804Y011107D03*
X006804Y011607D03*
X005804Y011107D03*
X004604Y012507D03*
X004004Y012507D03*
X005804Y013107D03*
X007004Y013307D03*
X007004Y012807D03*
X004704Y014807D03*
X008704Y015807D03*
X008704Y016407D03*
X008704Y017707D03*
X008704Y018607D03*
X008704Y019107D03*
X013104Y020707D03*
X013604Y020707D03*
X014104Y020707D03*
X012904Y006807D03*
D26*
X013148Y008707D02*
X011904Y008707D01*
X011704Y010007D02*
X011254Y010007D01*
X011241Y009995D01*
X011241Y010389D02*
X011260Y010407D01*
X011704Y010407D01*
X011704Y011107D02*
X011624Y011187D01*
X011252Y011187D01*
X011241Y011176D01*
X010454Y013144D02*
X010454Y014657D01*
X010504Y014707D01*
X010004Y014107D02*
X010004Y013200D01*
X010060Y013144D01*
X009674Y013152D02*
X009666Y013144D01*
X009674Y013152D02*
X009674Y013877D01*
X009144Y014407D01*
X004504Y014407D01*
X004168Y014743D01*
X004168Y018922D01*
X006548Y020007D02*
X006604Y020063D01*
X006604Y020307D01*
X007404Y021107D01*
X009404Y021107D01*
X011411Y023114D01*
X011354Y020607D02*
X012174Y019787D01*
X012174Y019837D01*
X011354Y020607D02*
X007404Y020607D01*
X007060Y020263D01*
X007060Y020007D01*
X007060Y019507D01*
X007091Y019039D02*
X007060Y019007D01*
X007091Y019039D02*
X008080Y019039D01*
X008148Y019107D01*
X008704Y019107D01*
X008704Y018607D02*
X008081Y018607D01*
X008080Y018606D01*
X007502Y018606D01*
X007404Y018507D01*
X007060Y018507D01*
X007060Y018007D02*
X007404Y018007D01*
X007672Y017740D01*
X008080Y017740D01*
X008112Y017707D01*
X008704Y017707D01*
X009004Y016907D02*
X008113Y016907D01*
X008080Y016874D01*
X007638Y016874D01*
X007504Y017007D01*
X007060Y017007D01*
X007060Y016507D02*
X008013Y016507D01*
X008080Y016440D01*
X008113Y016407D01*
X008704Y016407D01*
X009004Y016907D02*
X009304Y016607D01*
X009304Y015207D01*
X008704Y014607D01*
X004904Y014607D01*
X004704Y014807D01*
X004404Y014207D02*
X008994Y014207D01*
X009274Y013927D01*
X009274Y013146D01*
X009272Y013144D01*
X007304Y012357D02*
X006454Y012357D01*
X004204Y010107D01*
X004183Y010107D01*
X004168Y010093D01*
X005594Y008679D02*
X007304Y010389D01*
X007304Y010782D02*
X007629Y010782D01*
X007804Y010607D01*
X007804Y010207D01*
X006304Y008707D01*
X006304Y007986D01*
X006290Y007972D01*
X007804Y008507D02*
X008104Y008807D01*
X008104Y009195D01*
X008091Y009207D01*
X008485Y009207D02*
X008504Y009189D01*
X008504Y008707D01*
X008304Y008507D01*
X008804Y008507D02*
X008904Y008607D01*
X008904Y009182D01*
X008879Y009207D01*
X009272Y009207D02*
X009304Y009176D01*
X009304Y008507D01*
X007304Y011176D02*
X006872Y011176D01*
X006804Y011107D01*
X006842Y011570D02*
X006804Y011607D01*
X006842Y011570D02*
X007304Y011570D01*
X007004Y012807D02*
X006004Y013807D01*
X003504Y013807D01*
X002804Y014507D01*
X002804Y015507D02*
X004304Y014007D01*
X006304Y014007D01*
X007004Y013307D01*
X007060Y016007D02*
X008080Y016007D01*
X008504Y016007D01*
X008704Y015807D01*
X008080Y016440D02*
X007871Y016440D01*
X004404Y014207D02*
X004004Y014607D01*
X004004Y015307D01*
X002804Y016507D01*
D27*
X006548Y016507D02*
X006548Y017007D01*
X006548Y016007D01*
X006548Y017507D01*
X007504Y017507D01*
X007705Y017307D01*
X008080Y017307D01*
X008080Y017307D01*
X013104Y017307D01*
X014704Y015707D01*
X014704Y008807D01*
X014004Y008107D01*
X012904Y008107D01*
X012754Y007957D01*
X012754Y007607D01*
X012304Y007607D01*
X011404Y006707D01*
X011404Y005857D01*
X011411Y005851D01*
X012904Y006807D02*
X013104Y007007D01*
X013104Y007607D01*
X013454Y007607D02*
X013454Y005894D01*
X013411Y005851D01*
X013660Y008707D02*
X013660Y009163D01*
X013704Y009207D01*
X013704Y009670D01*
X013678Y009696D01*
X012930Y009696D02*
X012930Y009233D01*
X012904Y009207D01*
X012930Y010719D02*
X012448Y010719D01*
X012404Y010763D01*
X012404Y011407D01*
X011848Y011963D01*
X011241Y011963D01*
X010060Y010951D02*
X008504Y012507D01*
X008504Y013126D01*
X008485Y013144D01*
X008485Y013489D01*
X008704Y013707D01*
X010060Y010951D02*
X010060Y009207D01*
X012904Y011607D02*
X012904Y012170D01*
X012930Y012196D01*
X013678Y012196D02*
X013678Y011633D01*
X013704Y011607D01*
X013004Y013207D02*
X012948Y013263D01*
X012204Y013263D01*
X012886Y013263D01*
X012930Y013219D01*
X012904Y013245D01*
X012904Y013907D01*
X006548Y017507D02*
X006548Y018007D01*
X006548Y018507D01*
X006548Y019007D01*
X006548Y019507D01*
M02*
