%
M48
M72
T01C0.0150
T02C0.0400
%
T01
X7804Y8507
X8304Y8507
X8804Y8507
X9304Y8507
X9804Y8507
X11904Y8707
X12904Y9207
X13704Y9207
X11704Y10007
X11704Y10407
X11704Y11107
X12904Y11607
X13704Y11607
X11604Y12707
X12904Y13907
X13104Y14707
X12604Y14707
X12104Y14707
X10504Y14707
X10004Y14107
X8704Y13707
X7004Y13307
X7004Y12807
X5804Y13107
X4604Y12507
X4004Y12507
X5804Y11107
X6804Y11107
X6804Y11607
X7404Y9107
X12904Y6807
X4704Y14807
X8704Y15807
X8704Y16407
X8704Y17707
X8704Y18607
X8704Y19107
X13104Y20707
X13604Y20707
X14104Y20707
T02
X7704Y6558
X8411Y5851
X9411Y5851
X10411Y5851
X11411Y5851
X12411Y5851
X13411Y5851
X6997Y7265
X6290Y7972
X5583Y8679
X4875Y9386
X4168Y10093
X3461Y10800
X2754Y11507
X2754Y12507
X2754Y13507
X2754Y14507
X2754Y15507
X2754Y16507
X2754Y17507
X3461Y18214
X4168Y18922
X4875Y19629
X5583Y20336
X6290Y21043
X6997Y21750
X7704Y22457
X8411Y23164
X9411Y23164
X10411Y23164
X11411Y23164
X12411Y23164
X13411Y23164
M30
