%
M48
M72
T01C0.0150
T02C0.0400
%
T01
X12004Y8507
X10004Y9507
X11304Y10407
X10004Y11507
X11904Y12707
X13504Y12707
X15004Y12507
X15004Y13507
X15004Y11507
X15004Y10507
X15004Y9507
X15004Y8507
X15004Y7507
X15004Y6507
X13504Y11207
X10004Y13507
X12004Y15007
X13004Y16007
X13004Y17007
X11504Y17007
X10004Y17007
X7504Y17007
X7504Y19007
X7504Y20507
X9504Y20507
X10004Y20007
X10004Y19007
X11004Y19007
X12504Y20007
X14504Y20507
X15004Y20507
X15004Y19507
X15004Y18507
X15004Y17507
X15004Y16507
X15004Y15507
X14004Y18507
X15004Y21507
X15004Y22507
X11004Y21507
X7504Y13507
T02
X8411Y5851
X7704Y6558
X6997Y7265
X6290Y7972
X5583Y8679
X4875Y9386
X4168Y10093
X3461Y10800
X2754Y11507
X2754Y12507
X2754Y13507
X2754Y14507
X2754Y15507
X2754Y16507
X2754Y17507
X3461Y18214
X4168Y18922
X4875Y19629
X5583Y20336
X6290Y21043
X6997Y21750
X7704Y22457
X8411Y23164
X9411Y23164
X10411Y23164
X11411Y23164
X12411Y23164
X13411Y23164
X13954Y15207
X13954Y14207
X13954Y13207
X13964Y9407
X13964Y8407
X13964Y7407
X13411Y5851
X12411Y5851
X11411Y5851
X10411Y5851
X9411Y5851
M30
