G75*
G70*
%OFA0B0*%
%FSLAX24Y24*%
%IPPOS*%
%LPD*%
%AMOC8*
5,1,8,0,0,1.08239X$1,22.5*
%
%ADD10R,0.0276X0.0354*%
%ADD11R,0.0472X0.0138*%
%ADD12R,0.0354X0.0276*%
%ADD13R,0.1000X0.1000*%
%ADD14R,0.0700X0.0200*%
%ADD15R,0.0276X0.0394*%
%ADD16R,0.0551X0.0709*%
%ADD17R,0.0472X0.0217*%
D10*
X011948Y010307D03*
X012460Y010307D03*
X012460Y012107D03*
X011948Y012107D03*
X013248Y019007D03*
X013248Y019507D03*
X013248Y020007D03*
X013248Y020507D03*
X013248Y021007D03*
X013248Y021507D03*
X013760Y021507D03*
X013760Y021007D03*
X013760Y020507D03*
X013760Y020007D03*
X013760Y019507D03*
X013760Y019007D03*
X013748Y022007D03*
X014260Y022007D03*
X009260Y022007D03*
X008748Y022007D03*
D11*
X010152Y022008D03*
X010152Y021752D03*
X010152Y021497D03*
X010152Y021241D03*
X012456Y021241D03*
X012456Y021497D03*
X012456Y021752D03*
X012456Y022008D03*
D12*
X006004Y018383D03*
X006004Y017871D03*
X006004Y017263D03*
X006004Y016751D03*
D13*
X011404Y017807D03*
D14*
X006904Y017807D03*
X006904Y017307D03*
X006904Y018307D03*
D15*
X010528Y019614D03*
X011020Y019614D03*
X011512Y019614D03*
X012004Y019614D03*
X012004Y020401D03*
X011512Y020401D03*
X011020Y020401D03*
X010528Y020401D03*
D16*
X013035Y011807D03*
X014373Y011807D03*
X014373Y010607D03*
X013035Y010607D03*
D17*
X012416Y010833D03*
X012416Y011207D03*
X012416Y011581D03*
X011392Y011581D03*
X011392Y011207D03*
X011392Y010833D03*
M02*
