G75*
G70*
%OFA0B0*%
%FSLAX24Y24*%
%IPPOS*%
%LPD*%
%AMOC8*
5,1,8,0,0,1.08239X$1,22.5*
%
%ADD10C,0.0740*%
%ADD11C,0.0120*%
%ADD12C,0.0310*%
%ADD13C,0.0240*%
%ADD14C,0.0080*%
%ADD15C,0.0160*%
%ADD16C,0.0100*%
D10*
X008411Y005851D03*
X007704Y006558D03*
X006997Y007265D03*
X006290Y007972D03*
X005583Y008679D03*
X004875Y009386D03*
X004168Y010093D03*
X003461Y010800D03*
X002754Y011507D03*
X002754Y012507D03*
X002754Y013507D03*
X002754Y014507D03*
X002754Y015507D03*
X002754Y016507D03*
X002754Y017507D03*
X003461Y018214D03*
X004168Y018922D03*
X004875Y019629D03*
X005583Y020336D03*
X006290Y021043D03*
X006997Y021750D03*
X007704Y022457D03*
X008411Y023164D03*
X009411Y023164D03*
X010411Y023164D03*
X011411Y023164D03*
X012411Y023164D03*
X013411Y023164D03*
X013954Y015207D03*
X013954Y014207D03*
X013954Y013207D03*
X013964Y009407D03*
X013964Y008407D03*
X013964Y007407D03*
X013411Y005851D03*
X012411Y005851D03*
X011411Y005851D03*
X010411Y005851D03*
X009411Y005851D03*
D11*
X014204Y013207D02*
X014504Y013507D01*
X014504Y020507D01*
D12*
X014504Y020507D03*
X015004Y020507D03*
X015004Y019507D03*
X015004Y018507D03*
X015004Y017507D03*
X015004Y016507D03*
X015004Y015507D03*
X013004Y016007D03*
X013004Y017007D03*
X011504Y017007D03*
X010004Y017007D03*
X007504Y017007D03*
X007504Y019007D03*
X007504Y020507D03*
X009504Y020507D03*
X010004Y020007D03*
X010004Y019007D03*
X011004Y019007D03*
X012504Y020007D03*
X014004Y018507D03*
X015004Y021507D03*
X015004Y022507D03*
X011004Y021507D03*
X012004Y015007D03*
X010004Y013507D03*
X011904Y012707D03*
X013504Y012707D03*
X015004Y012507D03*
X015004Y013507D03*
X015004Y011507D03*
X015004Y010507D03*
X015004Y009507D03*
X015004Y008507D03*
X015004Y007507D03*
X015004Y006507D03*
X012004Y008507D03*
X010004Y009507D03*
X011304Y010407D03*
X010004Y011507D03*
X007504Y013507D03*
X013504Y011207D03*
D13*
X013954Y013207D02*
X014204Y013207D01*
D14*
X011004Y021507D02*
X011004Y021757D01*
X012411Y023164D01*
D15*
X009461Y021750D02*
X014004Y017207D01*
X014004Y015257D01*
X013954Y015207D01*
X012404Y018107D02*
X012404Y010967D01*
X013964Y009407D01*
X012404Y018107D02*
X009469Y021043D01*
X006290Y021043D01*
X006997Y021750D02*
X009461Y021750D01*
D16*
X006447Y006142D02*
X007492Y005594D01*
X008596Y005175D01*
X009742Y004892D01*
X010914Y004750D01*
X011504Y004732D01*
X013411Y004732D01*
X013426Y004732D01*
X013504Y004732D01*
X013703Y004744D01*
X014090Y004832D01*
X014448Y005004D01*
X014759Y005252D01*
X015007Y005563D01*
X015179Y005921D01*
X015268Y006309D01*
X015279Y006507D01*
X015279Y022508D01*
X015268Y022706D01*
X015179Y023094D01*
X015007Y023452D01*
X014759Y023763D01*
X014448Y024010D01*
X014090Y024183D01*
X013703Y024271D01*
X013504Y024282D01*
X011504Y024282D01*
X010914Y024265D01*
X009742Y024122D01*
X008596Y023840D01*
X007492Y023421D01*
X006447Y022873D01*
X005475Y022202D01*
X004592Y021419D01*
X003809Y020536D01*
X003139Y019564D01*
X002590Y018519D01*
X002171Y017416D01*
X001889Y016269D01*
X001747Y015098D01*
X001747Y013917D01*
X001889Y012745D01*
X002171Y011599D01*
X002590Y010496D01*
X003139Y009450D01*
X003809Y008479D01*
X004592Y007595D01*
X005475Y006813D01*
X006447Y006142D01*
X006409Y006168D02*
X007358Y006168D01*
X007365Y006161D02*
X007431Y006113D01*
X007504Y006076D01*
X007582Y006051D01*
X007654Y006039D01*
X007654Y006508D01*
X007754Y006508D01*
X007754Y006608D01*
X007654Y006608D01*
X007654Y007076D01*
X007582Y007065D01*
X007504Y007040D01*
X007452Y007013D01*
X007479Y007065D01*
X007504Y007143D01*
X007515Y007215D01*
X007047Y007215D01*
X007047Y007315D01*
X007515Y007315D01*
X007504Y007387D01*
X007479Y007464D01*
X007441Y007537D01*
X007393Y007604D01*
X007335Y007661D01*
X007269Y007709D01*
X007196Y007747D01*
X007118Y007772D01*
X007047Y007783D01*
X007047Y007315D01*
X006947Y007315D01*
X006947Y007783D01*
X006875Y007772D01*
X006797Y007747D01*
X006724Y007709D01*
X006721Y007707D01*
X006790Y007872D01*
X006790Y008071D01*
X006713Y008255D01*
X006573Y008396D01*
X006389Y008472D01*
X006190Y008472D01*
X006006Y008396D01*
X006082Y008579D01*
X006082Y008778D01*
X006006Y008962D01*
X005866Y009103D01*
X005682Y009179D01*
X005483Y009179D01*
X005299Y009103D01*
X005375Y009287D01*
X005375Y009486D01*
X005299Y009669D01*
X005159Y009810D01*
X004975Y009886D01*
X004776Y009886D01*
X004592Y009810D01*
X004668Y009994D01*
X004668Y010193D01*
X004592Y010376D01*
X004451Y010517D01*
X004268Y010593D01*
X004069Y010593D01*
X003885Y010517D01*
X003961Y010701D01*
X012373Y010701D01*
X012275Y010800D02*
X003961Y010800D01*
X003961Y010898D02*
X012194Y010898D01*
X012194Y010880D02*
X013494Y009580D01*
X013464Y009507D01*
X013464Y009308D01*
X013540Y009124D01*
X013681Y008984D01*
X013846Y008915D01*
X013842Y008915D01*
X013764Y008889D01*
X013691Y008852D01*
X013625Y008804D01*
X013567Y008746D01*
X013519Y008680D01*
X013482Y008607D01*
X013457Y008529D01*
X013445Y008457D01*
X013914Y008457D01*
X013914Y008357D01*
X013445Y008357D01*
X013457Y008286D01*
X013482Y008208D01*
X013519Y008135D01*
X013567Y008069D01*
X013625Y008011D01*
X013691Y007963D01*
X013764Y007926D01*
X013842Y007900D01*
X013846Y007900D01*
X013681Y007831D01*
X013540Y007691D01*
X013464Y007507D01*
X013464Y007308D01*
X013540Y007124D01*
X013681Y006984D01*
X013864Y006907D01*
X014063Y006907D01*
X014247Y006984D01*
X014388Y007124D01*
X014464Y007308D01*
X014464Y007507D01*
X014388Y007691D01*
X014247Y007831D01*
X014082Y007900D01*
X014086Y007900D01*
X014164Y007926D01*
X014236Y007963D01*
X014303Y008011D01*
X014361Y008069D01*
X014409Y008135D01*
X014446Y008208D01*
X014471Y008286D01*
X014482Y008357D01*
X014014Y008357D01*
X014014Y008457D01*
X014482Y008457D01*
X014471Y008529D01*
X014446Y008607D01*
X014409Y008680D01*
X014361Y008746D01*
X014303Y008804D01*
X014236Y008852D01*
X014164Y008889D01*
X014086Y008915D01*
X014082Y008915D01*
X014247Y008984D01*
X014388Y009124D01*
X014464Y009308D01*
X014464Y009507D01*
X014388Y009691D01*
X014247Y009831D01*
X014063Y009907D01*
X013864Y009907D01*
X013791Y009877D01*
X012614Y011054D01*
X012614Y018194D01*
X012491Y018317D01*
X009555Y021253D01*
X009381Y021253D01*
X007103Y021253D01*
X007280Y021326D01*
X007421Y021467D01*
X007451Y021540D01*
X009374Y021540D01*
X013794Y017120D01*
X013794Y015682D01*
X013671Y015631D01*
X013530Y015491D01*
X013454Y015307D01*
X013454Y015108D01*
X013530Y014924D01*
X013671Y014784D01*
X013836Y014715D01*
X013832Y014715D01*
X013754Y014689D01*
X013681Y014652D01*
X013615Y014604D01*
X013557Y014546D01*
X013509Y014480D01*
X013472Y014407D01*
X013447Y014329D01*
X013435Y014257D01*
X013904Y014257D01*
X013904Y014157D01*
X013435Y014157D01*
X013447Y014086D01*
X013472Y014008D01*
X013509Y013935D01*
X013557Y013869D01*
X013615Y013811D01*
X013681Y013763D01*
X013754Y013726D01*
X013832Y013700D01*
X013836Y013700D01*
X013671Y013631D01*
X013530Y013491D01*
X013454Y013307D01*
X013454Y013108D01*
X013530Y012924D01*
X013671Y012784D01*
X013854Y012707D01*
X014053Y012707D01*
X014237Y012784D01*
X014378Y012924D01*
X014454Y013108D01*
X014454Y013189D01*
X014583Y013317D01*
X014694Y013429D01*
X014694Y020294D01*
X014746Y020346D01*
X014789Y020451D01*
X014789Y020564D01*
X014746Y020669D01*
X014665Y020749D01*
X014561Y020792D01*
X014447Y020792D01*
X014342Y020749D01*
X014262Y020669D01*
X014219Y020564D01*
X014219Y020451D01*
X014262Y020346D01*
X014314Y020294D01*
X014314Y015554D01*
X014237Y015631D01*
X014214Y015641D01*
X014214Y017294D01*
X014091Y017417D01*
X009548Y021960D01*
X009374Y021960D01*
X007810Y021960D01*
X007987Y022033D01*
X008128Y022174D01*
X008204Y022358D01*
X008204Y022556D01*
X008128Y022740D01*
X008311Y022664D01*
X008510Y022664D01*
X008694Y022740D01*
X008835Y022881D01*
X008911Y023065D01*
X008987Y022881D01*
X009128Y022740D01*
X009311Y022664D01*
X009510Y022664D01*
X009694Y022740D01*
X009835Y022881D01*
X009911Y023065D01*
X009987Y022881D01*
X010128Y022740D01*
X010311Y022664D01*
X010510Y022664D01*
X010694Y022740D01*
X010835Y022881D01*
X010911Y023065D01*
X010911Y023264D01*
X010835Y023447D01*
X010694Y023588D01*
X010510Y023664D01*
X010311Y023664D01*
X010128Y023588D01*
X009987Y023447D01*
X009911Y023264D01*
X009911Y023065D01*
X009911Y023264D01*
X009835Y023447D01*
X009694Y023588D01*
X009510Y023664D01*
X009311Y023664D01*
X009128Y023588D01*
X008987Y023447D01*
X008911Y023264D01*
X008911Y023065D01*
X008911Y023264D01*
X008835Y023447D01*
X008694Y023588D01*
X008510Y023664D01*
X008311Y023664D01*
X008128Y023588D01*
X007987Y023447D01*
X007911Y023264D01*
X007911Y023065D01*
X007987Y022881D01*
X008128Y022740D01*
X007987Y022881D01*
X007803Y022957D01*
X007604Y022957D01*
X007421Y022881D01*
X007280Y022740D01*
X007204Y022556D01*
X007204Y022358D01*
X007280Y022174D01*
X007096Y022250D01*
X006897Y022250D01*
X006713Y022174D01*
X006573Y022033D01*
X006497Y021849D01*
X006497Y021650D01*
X006573Y021467D01*
X006713Y021326D01*
X006573Y021467D01*
X006389Y021543D01*
X006190Y021543D01*
X006006Y021467D01*
X005866Y021326D01*
X005790Y021142D01*
X005790Y020943D01*
X005866Y020760D01*
X005682Y020836D01*
X005483Y020836D01*
X005299Y020760D01*
X005159Y020619D01*
X005083Y020435D01*
X005083Y020236D01*
X005159Y020053D01*
X005299Y019912D01*
X005159Y020053D01*
X004975Y020129D01*
X004776Y020129D01*
X004592Y020053D01*
X004451Y019912D01*
X004375Y019728D01*
X004375Y019529D01*
X004451Y019345D01*
X004592Y019205D01*
X004776Y019129D01*
X004975Y019129D01*
X005159Y019205D01*
X005299Y019345D01*
X005375Y019529D01*
X005375Y019728D01*
X005299Y019912D01*
X005483Y019836D01*
X005682Y019836D01*
X005866Y019912D01*
X006006Y020053D01*
X006082Y020236D01*
X006082Y020435D01*
X006006Y020619D01*
X006190Y020543D01*
X006389Y020543D01*
X006573Y020619D01*
X006713Y020760D01*
X006744Y020833D01*
X009381Y020833D01*
X012194Y018020D01*
X012194Y011054D01*
X012194Y010880D01*
X012194Y010997D02*
X003921Y010997D01*
X003885Y011083D02*
X003744Y011224D01*
X003561Y011300D01*
X003362Y011300D01*
X003178Y011224D01*
X003254Y011408D01*
X003254Y011607D01*
X003178Y011791D01*
X003037Y011931D01*
X002854Y012007D01*
X002655Y012007D01*
X002471Y011931D01*
X002330Y011791D01*
X002254Y011607D01*
X002254Y011408D01*
X002330Y011224D01*
X002471Y011084D01*
X002655Y011007D01*
X002854Y011007D01*
X003037Y011084D01*
X003178Y011224D01*
X003037Y011083D01*
X002961Y010900D01*
X002961Y010701D01*
X002512Y010701D01*
X002550Y010603D02*
X003002Y010603D01*
X003037Y010517D02*
X003178Y010376D01*
X003362Y010300D01*
X003561Y010300D01*
X003744Y010376D01*
X003668Y010193D01*
X003668Y009994D01*
X003744Y009810D01*
X003885Y009669D01*
X004069Y009593D01*
X004268Y009593D01*
X004451Y009669D01*
X004375Y009486D01*
X004375Y009287D01*
X004451Y009103D01*
X004592Y008962D01*
X004776Y008886D01*
X004975Y008886D01*
X005159Y008962D01*
X005083Y008778D01*
X005083Y008579D01*
X005159Y008396D01*
X005299Y008255D01*
X005483Y008179D01*
X005682Y008179D01*
X005866Y008255D01*
X005790Y008071D01*
X005790Y007872D01*
X005866Y007689D01*
X006006Y007548D01*
X006190Y007472D01*
X006389Y007472D01*
X006554Y007540D01*
X006552Y007537D01*
X006515Y007464D01*
X006489Y007387D01*
X006478Y007315D01*
X006946Y007315D01*
X006946Y007215D01*
X006478Y007215D01*
X006489Y007143D01*
X006515Y007065D01*
X006552Y006992D01*
X006600Y006926D01*
X006658Y006868D01*
X006724Y006820D01*
X006797Y006783D01*
X006875Y006758D01*
X006947Y006746D01*
X006947Y007215D01*
X007047Y007215D01*
X007047Y006746D01*
X007118Y006758D01*
X007196Y006783D01*
X007248Y006809D01*
X007222Y006757D01*
X007197Y006679D01*
X007185Y006608D01*
X007654Y006608D01*
X007654Y006508D01*
X007185Y006508D01*
X007197Y006436D01*
X007222Y006358D01*
X007259Y006285D01*
X007307Y006219D01*
X007365Y006161D01*
X007272Y006267D02*
X006267Y006267D01*
X006124Y006365D02*
X007220Y006365D01*
X007192Y006464D02*
X005981Y006464D01*
X005838Y006562D02*
X007654Y006562D01*
X007654Y006464D02*
X007754Y006464D01*
X007754Y006508D02*
X007754Y006039D01*
X007826Y006051D01*
X007903Y006076D01*
X007956Y006102D01*
X007929Y006050D01*
X007904Y005972D01*
X007891Y005891D01*
X007891Y005810D01*
X007904Y005729D01*
X007929Y005651D01*
X007966Y005578D01*
X008009Y005519D01*
X008340Y005850D01*
X008411Y005780D01*
X008482Y005850D01*
X008813Y005519D01*
X008856Y005578D01*
X008893Y005651D01*
X008918Y005729D01*
X008919Y005732D01*
X008987Y005567D01*
X009128Y005427D01*
X009311Y005351D01*
X009510Y005351D01*
X009694Y005427D01*
X009835Y005567D01*
X009903Y005732D01*
X009904Y005729D01*
X009929Y005651D01*
X009966Y005578D01*
X010014Y005512D01*
X010072Y005454D01*
X010138Y005406D01*
X010211Y005369D01*
X010289Y005343D01*
X010361Y005332D01*
X010361Y005800D01*
X010461Y005800D01*
X010461Y005332D01*
X010533Y005343D01*
X010610Y005369D01*
X010683Y005406D01*
X010750Y005454D01*
X010807Y005512D01*
X010856Y005578D01*
X010893Y005651D01*
X010918Y005729D01*
X010919Y005732D01*
X010987Y005567D01*
X011128Y005427D01*
X011311Y005351D01*
X011510Y005351D01*
X011694Y005427D01*
X011835Y005567D01*
X011903Y005732D01*
X011904Y005729D01*
X011929Y005651D01*
X011966Y005578D01*
X012014Y005512D01*
X012072Y005454D01*
X012138Y005406D01*
X012211Y005369D01*
X012289Y005343D01*
X012361Y005332D01*
X012361Y005800D01*
X012461Y005800D01*
X012461Y005332D01*
X012533Y005343D01*
X012610Y005369D01*
X012683Y005406D01*
X012750Y005454D01*
X012807Y005512D01*
X012856Y005578D01*
X012893Y005651D01*
X012918Y005729D01*
X012919Y005732D01*
X012987Y005567D01*
X013128Y005427D01*
X013311Y005351D01*
X013510Y005351D01*
X013694Y005427D01*
X013835Y005567D01*
X013911Y005751D01*
X013911Y005950D01*
X013835Y006134D01*
X013694Y006274D01*
X013510Y006351D01*
X013311Y006351D01*
X013128Y006274D01*
X012987Y006134D01*
X012919Y005969D01*
X012918Y005972D01*
X012893Y006050D01*
X012856Y006123D01*
X012807Y006189D01*
X012750Y006247D01*
X012683Y006295D01*
X012610Y006332D01*
X012533Y006358D01*
X012461Y006369D01*
X012461Y005901D01*
X012361Y005901D01*
X012361Y006369D01*
X012289Y006358D01*
X012211Y006332D01*
X012138Y006295D01*
X012072Y006247D01*
X012014Y006189D01*
X011966Y006123D01*
X011929Y006050D01*
X011904Y005972D01*
X011903Y005969D01*
X011835Y006134D01*
X011694Y006274D01*
X011510Y006351D01*
X011311Y006351D01*
X011128Y006274D01*
X010987Y006134D01*
X010919Y005969D01*
X010918Y005972D01*
X010893Y006050D01*
X010856Y006123D01*
X010807Y006189D01*
X010750Y006247D01*
X010683Y006295D01*
X010610Y006332D01*
X010533Y006358D01*
X010461Y006369D01*
X010461Y005901D01*
X010361Y005901D01*
X010361Y006369D01*
X010289Y006358D01*
X010211Y006332D01*
X010138Y006295D01*
X010072Y006247D01*
X010014Y006189D01*
X009966Y006123D01*
X009929Y006050D01*
X009904Y005972D01*
X009903Y005969D01*
X009835Y006134D01*
X009694Y006274D01*
X009510Y006351D01*
X009311Y006351D01*
X009128Y006274D01*
X008987Y006134D01*
X008919Y005969D01*
X008918Y005972D01*
X008893Y006050D01*
X008856Y006123D01*
X008813Y006182D01*
X008482Y005851D01*
X008411Y005921D01*
X008742Y006253D01*
X008683Y006295D01*
X008611Y006332D01*
X008533Y006358D01*
X008452Y006371D01*
X008370Y006371D01*
X008289Y006358D01*
X008211Y006332D01*
X008159Y006306D01*
X008186Y006358D01*
X008211Y006436D01*
X008222Y006508D01*
X007754Y006508D01*
X007754Y006562D02*
X015279Y006562D01*
X015277Y006464D02*
X008215Y006464D01*
X008188Y006365D02*
X008336Y006365D01*
X008486Y006365D02*
X010336Y006365D01*
X010361Y006365D02*
X010461Y006365D01*
X010486Y006365D02*
X012336Y006365D01*
X012361Y006365D02*
X012461Y006365D01*
X012486Y006365D02*
X015271Y006365D01*
X015258Y006267D02*
X013702Y006267D01*
X013800Y006168D02*
X015236Y006168D01*
X015213Y006070D02*
X013861Y006070D01*
X013902Y005971D02*
X015191Y005971D01*
X015156Y005872D02*
X013911Y005872D01*
X013911Y005774D02*
X015108Y005774D01*
X015061Y005675D02*
X013879Y005675D01*
X013839Y005577D02*
X015014Y005577D01*
X014939Y005478D02*
X013746Y005478D01*
X013581Y005380D02*
X014861Y005380D01*
X014782Y005281D02*
X008316Y005281D01*
X008289Y005343D02*
X008370Y005331D01*
X008452Y005331D01*
X008533Y005343D01*
X008611Y005369D01*
X008683Y005406D01*
X008742Y005449D01*
X008411Y005780D01*
X008080Y005449D01*
X008138Y005406D01*
X008211Y005369D01*
X008289Y005343D01*
X008190Y005380D02*
X008056Y005380D01*
X008109Y005478D02*
X007796Y005478D01*
X007967Y005577D02*
X007536Y005577D01*
X007336Y005675D02*
X007921Y005675D01*
X007897Y005774D02*
X007149Y005774D01*
X006961Y005872D02*
X007891Y005872D01*
X007904Y005971D02*
X006773Y005971D01*
X006585Y006070D02*
X007523Y006070D01*
X007654Y006070D02*
X007754Y006070D01*
X007754Y006168D02*
X007654Y006168D01*
X007654Y006267D02*
X007754Y006267D01*
X007754Y006365D02*
X007654Y006365D01*
X007754Y006608D02*
X008222Y006608D01*
X008211Y006679D01*
X008186Y006757D01*
X008149Y006830D01*
X008100Y006896D01*
X008043Y006954D01*
X007976Y007002D01*
X007903Y007040D01*
X007826Y007065D01*
X007754Y007076D01*
X007754Y006608D01*
X007754Y006661D02*
X007654Y006661D01*
X007654Y006759D02*
X007754Y006759D01*
X007754Y006858D02*
X007654Y006858D01*
X007654Y006956D02*
X007754Y006956D01*
X007754Y007055D02*
X007654Y007055D01*
X007551Y007055D02*
X007473Y007055D01*
X007506Y007154D02*
X013528Y007154D01*
X013487Y007252D02*
X007047Y007252D01*
X007047Y007154D02*
X006947Y007154D01*
X006946Y007252D02*
X004979Y007252D01*
X004868Y007351D02*
X006484Y007351D01*
X006510Y007449D02*
X004757Y007449D01*
X004646Y007548D02*
X006007Y007548D01*
X005908Y007646D02*
X004547Y007646D01*
X004460Y007745D02*
X005842Y007745D01*
X005802Y007843D02*
X004372Y007843D01*
X004285Y007942D02*
X005790Y007942D01*
X005790Y008040D02*
X004198Y008040D01*
X004110Y008139D02*
X005818Y008139D01*
X005823Y008237D02*
X005858Y008237D01*
X006022Y008435D02*
X006100Y008435D01*
X006063Y008533D02*
X013458Y008533D01*
X013495Y008632D02*
X006082Y008632D01*
X006082Y008730D02*
X013556Y008730D01*
X013659Y008829D02*
X006062Y008829D01*
X006021Y008927D02*
X013816Y008927D01*
X013638Y009026D02*
X005943Y009026D01*
X005814Y009124D02*
X013540Y009124D01*
X013499Y009223D02*
X005349Y009223D01*
X005351Y009124D02*
X005308Y009124D01*
X005299Y009103D02*
X005159Y008962D01*
X005299Y009103D01*
X005222Y009026D02*
X005222Y009026D01*
X005144Y008927D02*
X005074Y008927D01*
X005103Y008829D02*
X003568Y008829D01*
X003500Y008927D02*
X004676Y008927D01*
X004528Y009026D02*
X003432Y009026D01*
X003364Y009124D02*
X004443Y009124D01*
X004402Y009223D02*
X003296Y009223D01*
X003228Y009321D02*
X004375Y009321D01*
X004375Y009420D02*
X003160Y009420D01*
X003103Y009519D02*
X004389Y009519D01*
X004430Y009617D02*
X004326Y009617D01*
X004011Y009617D02*
X003051Y009617D01*
X002999Y009716D02*
X003839Y009716D01*
X003743Y009814D02*
X002948Y009814D01*
X002896Y009913D02*
X003702Y009913D01*
X003668Y010011D02*
X002844Y010011D01*
X002793Y010110D02*
X003668Y010110D01*
X003675Y010208D02*
X002741Y010208D01*
X002689Y010307D02*
X003346Y010307D01*
X003149Y010405D02*
X002637Y010405D01*
X002587Y010504D02*
X003050Y010504D01*
X003037Y010517D02*
X002961Y010701D01*
X002961Y010800D02*
X002475Y010800D01*
X002437Y010898D02*
X002961Y010898D01*
X003001Y010997D02*
X002400Y010997D01*
X002363Y011095D02*
X002459Y011095D01*
X002361Y011194D02*
X002325Y011194D01*
X002302Y011292D02*
X002288Y011292D01*
X002261Y011391D02*
X002251Y011391D01*
X002254Y011489D02*
X002213Y011489D01*
X002176Y011588D02*
X002254Y011588D01*
X002287Y011686D02*
X002150Y011686D01*
X002126Y011785D02*
X002328Y011785D01*
X002423Y011884D02*
X002101Y011884D01*
X002077Y011982D02*
X002594Y011982D01*
X002655Y012007D02*
X002853Y012007D01*
X003037Y012084D01*
X003178Y012224D01*
X003254Y012408D01*
X003254Y012607D01*
X003178Y012791D01*
X003037Y012931D01*
X002853Y013007D01*
X002655Y013007D01*
X002854Y013007D01*
X003037Y013084D01*
X003178Y013224D01*
X003254Y013408D01*
X003254Y013607D01*
X003178Y013791D01*
X003037Y013931D01*
X002854Y014007D01*
X002655Y014007D01*
X002471Y013931D01*
X002330Y013791D01*
X002254Y013607D01*
X002254Y013408D01*
X002330Y013224D01*
X002471Y013084D01*
X002655Y013007D01*
X002471Y012931D01*
X002330Y012791D01*
X002254Y012607D01*
X002254Y012408D01*
X002330Y012224D01*
X002471Y012084D01*
X002655Y012007D01*
X002478Y012081D02*
X002053Y012081D01*
X002029Y012179D02*
X002375Y012179D01*
X002308Y012278D02*
X002004Y012278D01*
X001980Y012376D02*
X002267Y012376D01*
X002254Y012475D02*
X001956Y012475D01*
X001931Y012573D02*
X002254Y012573D01*
X002281Y012672D02*
X001907Y012672D01*
X001886Y012770D02*
X002322Y012770D01*
X002409Y012869D02*
X001874Y012869D01*
X001862Y012968D02*
X002558Y012968D01*
X002513Y013066D02*
X001850Y013066D01*
X001838Y013165D02*
X002390Y013165D01*
X002314Y013263D02*
X001826Y013263D01*
X001814Y013362D02*
X002273Y013362D01*
X002254Y013460D02*
X001802Y013460D01*
X001790Y013559D02*
X002254Y013559D01*
X002275Y013657D02*
X001778Y013657D01*
X001766Y013756D02*
X002316Y013756D01*
X002394Y013854D02*
X001754Y013854D01*
X001747Y013953D02*
X002523Y013953D01*
X002548Y014052D02*
X001747Y014052D01*
X001747Y014150D02*
X002404Y014150D01*
X002471Y014084D02*
X002655Y014007D01*
X002853Y014007D01*
X003037Y014084D01*
X003178Y014224D01*
X003254Y014408D01*
X003254Y014607D01*
X003178Y014791D01*
X003037Y014931D01*
X002853Y015007D01*
X003037Y015084D01*
X003178Y015224D01*
X003254Y015408D01*
X003254Y015607D01*
X003178Y015791D01*
X003037Y015931D01*
X002853Y016007D01*
X002654Y016007D01*
X002853Y016007D01*
X003037Y016084D01*
X003178Y016224D01*
X003254Y016408D01*
X003254Y016607D01*
X003178Y016791D01*
X003037Y016931D01*
X002853Y017007D01*
X002654Y017007D01*
X002471Y016931D01*
X002330Y016791D01*
X002254Y016607D01*
X002254Y016408D01*
X002330Y016224D01*
X002471Y016084D01*
X002654Y016007D01*
X002471Y015931D01*
X002330Y015791D01*
X002254Y015607D01*
X002254Y015408D01*
X002330Y015224D01*
X002471Y015084D01*
X002654Y015007D01*
X002853Y015007D01*
X002655Y015007D01*
X002471Y014931D01*
X002330Y014791D01*
X002254Y014607D01*
X002254Y014408D01*
X002330Y014224D01*
X002471Y014084D01*
X002320Y014249D02*
X001747Y014249D01*
X001747Y014347D02*
X002279Y014347D01*
X002254Y014446D02*
X001747Y014446D01*
X001747Y014544D02*
X002254Y014544D01*
X002269Y014643D02*
X001747Y014643D01*
X001747Y014741D02*
X002310Y014741D01*
X002379Y014840D02*
X001747Y014840D01*
X001747Y014938D02*
X002488Y014938D01*
X002583Y015037D02*
X001747Y015037D01*
X001751Y015136D02*
X002419Y015136D01*
X002326Y015234D02*
X001763Y015234D01*
X001775Y015333D02*
X002285Y015333D01*
X002254Y015431D02*
X001787Y015431D01*
X001799Y015530D02*
X002254Y015530D01*
X002263Y015628D02*
X001811Y015628D01*
X001823Y015727D02*
X002304Y015727D01*
X002365Y015825D02*
X001835Y015825D01*
X001847Y015924D02*
X002463Y015924D01*
X002618Y016022D02*
X001859Y016022D01*
X001871Y016121D02*
X002433Y016121D01*
X002335Y016219D02*
X001883Y016219D01*
X001901Y016318D02*
X002291Y016318D01*
X002254Y016417D02*
X001925Y016417D01*
X001950Y016515D02*
X002254Y016515D01*
X002257Y016614D02*
X001974Y016614D01*
X001998Y016712D02*
X002298Y016712D01*
X002350Y016811D02*
X002022Y016811D01*
X002047Y016909D02*
X002449Y016909D01*
X002471Y017083D02*
X002655Y017007D01*
X002854Y017007D01*
X003037Y017083D01*
X003178Y017224D01*
X003254Y017408D01*
X003254Y017607D01*
X003178Y017791D01*
X003037Y017931D01*
X002854Y018007D01*
X002655Y018007D01*
X002471Y017931D01*
X002330Y017791D01*
X002254Y017607D01*
X002254Y017408D01*
X002330Y017224D01*
X002471Y017083D01*
X002448Y017106D02*
X002095Y017106D01*
X002071Y017008D02*
X002653Y017008D01*
X002855Y017008D02*
X012194Y017008D01*
X012194Y017106D02*
X003060Y017106D01*
X003159Y017205D02*
X012194Y017205D01*
X012194Y017303D02*
X003211Y017303D01*
X003252Y017402D02*
X012194Y017402D01*
X012194Y017501D02*
X003254Y017501D01*
X003254Y017599D02*
X012194Y017599D01*
X012194Y017698D02*
X003216Y017698D01*
X003178Y017791D02*
X003362Y017714D01*
X003561Y017714D01*
X003744Y017791D01*
X003885Y017931D01*
X003961Y018115D01*
X003961Y018314D01*
X003885Y018498D01*
X004069Y018422D01*
X004268Y018422D01*
X004451Y018498D01*
X004592Y018638D01*
X004668Y018822D01*
X004668Y019021D01*
X004592Y019205D01*
X004451Y019345D01*
X004268Y019422D01*
X004069Y019422D01*
X003885Y019345D01*
X003744Y019205D01*
X003668Y019021D01*
X003668Y018822D01*
X003744Y018638D01*
X003561Y018714D01*
X003362Y018714D01*
X003178Y018638D01*
X003037Y018498D01*
X002961Y018314D01*
X002961Y018115D01*
X003037Y017931D01*
X003178Y017791D01*
X003012Y017993D02*
X002887Y017993D01*
X002971Y018092D02*
X002428Y018092D01*
X002465Y018190D02*
X002961Y018190D01*
X002961Y018289D02*
X002503Y018289D01*
X002540Y018387D02*
X002992Y018387D01*
X003032Y018486D02*
X002577Y018486D01*
X002624Y018585D02*
X003124Y018585D01*
X003286Y018683D02*
X002676Y018683D01*
X002728Y018782D02*
X003685Y018782D01*
X003668Y018880D02*
X002779Y018880D01*
X002831Y018979D02*
X003668Y018979D01*
X003692Y019077D02*
X002883Y019077D01*
X002935Y019176D02*
X003732Y019176D01*
X003814Y019274D02*
X002986Y019274D01*
X003038Y019373D02*
X003951Y019373D01*
X004385Y019373D02*
X004440Y019373D01*
X004399Y019471D02*
X003090Y019471D01*
X003142Y019570D02*
X004375Y019570D01*
X004375Y019669D02*
X003210Y019669D01*
X003278Y019767D02*
X004391Y019767D01*
X004432Y019866D02*
X003346Y019866D01*
X003415Y019964D02*
X004504Y019964D01*
X004617Y020063D02*
X003483Y020063D01*
X003551Y020161D02*
X005114Y020161D01*
X005134Y020063D02*
X005154Y020063D01*
X005247Y019964D02*
X005247Y019964D01*
X005318Y019866D02*
X005411Y019866D01*
X005359Y019767D02*
X010447Y019767D01*
X010349Y019866D02*
X005754Y019866D01*
X005918Y019964D02*
X010250Y019964D01*
X010152Y020063D02*
X006011Y020063D01*
X006051Y020161D02*
X010053Y020161D01*
X009955Y020260D02*
X006082Y020260D01*
X006082Y020358D02*
X009856Y020358D01*
X009757Y020457D02*
X006074Y020457D01*
X006033Y020555D02*
X006160Y020555D01*
X006419Y020555D02*
X009659Y020555D01*
X009560Y020654D02*
X006608Y020654D01*
X006706Y020752D02*
X009462Y020752D01*
X009760Y021048D02*
X009866Y021048D01*
X009859Y020950D02*
X009965Y020950D01*
X009957Y020851D02*
X010063Y020851D01*
X010056Y020752D02*
X010162Y020752D01*
X010154Y020654D02*
X010260Y020654D01*
X010253Y020555D02*
X010359Y020555D01*
X010351Y020457D02*
X010457Y020457D01*
X010450Y020358D02*
X010556Y020358D01*
X010549Y020260D02*
X010655Y020260D01*
X010647Y020161D02*
X010753Y020161D01*
X010746Y020063D02*
X010852Y020063D01*
X010844Y019964D02*
X010950Y019964D01*
X010943Y019866D02*
X011049Y019866D01*
X011041Y019767D02*
X011147Y019767D01*
X011140Y019669D02*
X011246Y019669D01*
X011238Y019570D02*
X011344Y019570D01*
X011337Y019471D02*
X011443Y019471D01*
X011435Y019373D02*
X011541Y019373D01*
X011534Y019274D02*
X011640Y019274D01*
X011632Y019176D02*
X011739Y019176D01*
X011731Y019077D02*
X011837Y019077D01*
X011830Y018979D02*
X011936Y018979D01*
X011928Y018880D02*
X012034Y018880D01*
X012027Y018782D02*
X012133Y018782D01*
X012125Y018683D02*
X012231Y018683D01*
X012224Y018585D02*
X012330Y018585D01*
X012322Y018486D02*
X012428Y018486D01*
X012421Y018387D02*
X012527Y018387D01*
X012519Y018289D02*
X012625Y018289D01*
X012614Y018190D02*
X012724Y018190D01*
X012823Y018092D02*
X012614Y018092D01*
X012614Y017993D02*
X012921Y017993D01*
X013020Y017895D02*
X012614Y017895D01*
X012614Y017796D02*
X013118Y017796D01*
X013217Y017698D02*
X012614Y017698D01*
X012614Y017599D02*
X013315Y017599D01*
X013414Y017501D02*
X012614Y017501D01*
X012614Y017402D02*
X013512Y017402D01*
X013611Y017303D02*
X012614Y017303D01*
X012614Y017205D02*
X013709Y017205D01*
X013794Y017106D02*
X012614Y017106D01*
X012614Y017008D02*
X013794Y017008D01*
X013794Y016909D02*
X012614Y016909D01*
X012614Y016811D02*
X013794Y016811D01*
X013794Y016712D02*
X012614Y016712D01*
X012614Y016614D02*
X013794Y016614D01*
X013794Y016515D02*
X012614Y016515D01*
X012614Y016417D02*
X013794Y016417D01*
X013794Y016318D02*
X012614Y016318D01*
X012614Y016219D02*
X013794Y016219D01*
X013794Y016121D02*
X012614Y016121D01*
X012614Y016022D02*
X013794Y016022D01*
X013794Y015924D02*
X012614Y015924D01*
X012614Y015825D02*
X013794Y015825D01*
X013794Y015727D02*
X012614Y015727D01*
X012614Y015628D02*
X013668Y015628D01*
X013569Y015530D02*
X012614Y015530D01*
X012614Y015431D02*
X013505Y015431D01*
X013465Y015333D02*
X012614Y015333D01*
X012614Y015234D02*
X013454Y015234D01*
X013454Y015136D02*
X012614Y015136D01*
X012614Y015037D02*
X013483Y015037D01*
X013524Y014938D02*
X012614Y014938D01*
X012614Y014840D02*
X013614Y014840D01*
X013773Y014741D02*
X012614Y014741D01*
X012614Y014643D02*
X013669Y014643D01*
X013556Y014544D02*
X012614Y014544D01*
X012614Y014446D02*
X013492Y014446D01*
X013453Y014347D02*
X012614Y014347D01*
X012614Y014249D02*
X013904Y014249D01*
X013436Y014150D02*
X012614Y014150D01*
X012614Y014052D02*
X013458Y014052D01*
X013500Y013953D02*
X012614Y013953D01*
X012614Y013854D02*
X013571Y013854D01*
X013695Y013756D02*
X012614Y013756D01*
X012614Y013657D02*
X013734Y013657D01*
X013598Y013559D02*
X012614Y013559D01*
X012614Y013460D02*
X013518Y013460D01*
X013477Y013362D02*
X012614Y013362D01*
X012614Y013263D02*
X013454Y013263D01*
X013454Y013165D02*
X012614Y013165D01*
X012614Y013066D02*
X013471Y013066D01*
X013512Y012968D02*
X012614Y012968D01*
X012614Y012869D02*
X013585Y012869D01*
X013702Y012770D02*
X012614Y012770D01*
X012614Y012672D02*
X015279Y012672D01*
X015279Y012770D02*
X014206Y012770D01*
X014323Y012869D02*
X015279Y012869D01*
X015279Y012968D02*
X014396Y012968D01*
X014437Y013066D02*
X015279Y013066D01*
X015279Y013165D02*
X014454Y013165D01*
X014528Y013263D02*
X015279Y013263D01*
X015279Y013362D02*
X014627Y013362D01*
X014694Y013460D02*
X015279Y013460D01*
X015279Y013559D02*
X014694Y013559D01*
X014694Y013657D02*
X015279Y013657D01*
X015279Y013756D02*
X014694Y013756D01*
X014694Y013854D02*
X015279Y013854D01*
X015279Y013953D02*
X014694Y013953D01*
X014694Y014052D02*
X015279Y014052D01*
X015279Y014150D02*
X014694Y014150D01*
X014694Y014249D02*
X015279Y014249D01*
X015279Y014347D02*
X014694Y014347D01*
X014694Y014446D02*
X015279Y014446D01*
X015279Y014544D02*
X014694Y014544D01*
X014694Y014643D02*
X015279Y014643D01*
X015279Y014741D02*
X014694Y014741D01*
X014694Y014840D02*
X015279Y014840D01*
X015279Y014938D02*
X014694Y014938D01*
X014694Y015037D02*
X015279Y015037D01*
X015279Y015136D02*
X014694Y015136D01*
X014694Y015234D02*
X015279Y015234D01*
X015279Y015333D02*
X014694Y015333D01*
X014694Y015431D02*
X015279Y015431D01*
X015279Y015530D02*
X014694Y015530D01*
X014694Y015628D02*
X015279Y015628D01*
X015279Y015727D02*
X014694Y015727D01*
X014694Y015825D02*
X015279Y015825D01*
X015279Y015924D02*
X014694Y015924D01*
X014694Y016022D02*
X015279Y016022D01*
X015279Y016121D02*
X014694Y016121D01*
X014694Y016219D02*
X015279Y016219D01*
X015279Y016318D02*
X014694Y016318D01*
X014694Y016417D02*
X015279Y016417D01*
X015279Y016515D02*
X014694Y016515D01*
X014694Y016614D02*
X015279Y016614D01*
X015279Y016712D02*
X014694Y016712D01*
X014694Y016811D02*
X015279Y016811D01*
X015279Y016909D02*
X014694Y016909D01*
X014694Y017008D02*
X015279Y017008D01*
X015279Y017106D02*
X014694Y017106D01*
X014694Y017205D02*
X015279Y017205D01*
X015279Y017303D02*
X014694Y017303D01*
X014694Y017402D02*
X015279Y017402D01*
X015279Y017501D02*
X014694Y017501D01*
X014694Y017599D02*
X015279Y017599D01*
X015279Y017698D02*
X014694Y017698D01*
X014694Y017796D02*
X015279Y017796D01*
X015279Y017895D02*
X014694Y017895D01*
X014694Y017993D02*
X015279Y017993D01*
X015279Y018092D02*
X014694Y018092D01*
X014694Y018190D02*
X015279Y018190D01*
X015279Y018289D02*
X014694Y018289D01*
X014694Y018387D02*
X015279Y018387D01*
X015279Y018486D02*
X014694Y018486D01*
X014694Y018585D02*
X015279Y018585D01*
X015279Y018683D02*
X014694Y018683D01*
X014694Y018782D02*
X015279Y018782D01*
X015279Y018880D02*
X014694Y018880D01*
X014694Y018979D02*
X015279Y018979D01*
X015279Y019077D02*
X014694Y019077D01*
X014694Y019176D02*
X015279Y019176D01*
X015279Y019274D02*
X014694Y019274D01*
X014694Y019373D02*
X015279Y019373D01*
X015279Y019471D02*
X014694Y019471D01*
X014694Y019570D02*
X015279Y019570D01*
X015279Y019669D02*
X014694Y019669D01*
X014694Y019767D02*
X015279Y019767D01*
X015279Y019866D02*
X014694Y019866D01*
X014694Y019964D02*
X015279Y019964D01*
X015279Y020063D02*
X014694Y020063D01*
X014694Y020161D02*
X015279Y020161D01*
X015279Y020260D02*
X014694Y020260D01*
X014751Y020358D02*
X015279Y020358D01*
X015279Y020457D02*
X014789Y020457D01*
X014789Y020555D02*
X015279Y020555D01*
X015279Y020654D02*
X014752Y020654D01*
X014657Y020752D02*
X015279Y020752D01*
X015279Y020851D02*
X010657Y020851D01*
X010559Y020950D02*
X015279Y020950D01*
X015279Y021048D02*
X010460Y021048D01*
X010362Y021147D02*
X015279Y021147D01*
X015279Y021245D02*
X011116Y021245D01*
X011165Y021266D02*
X011246Y021346D01*
X011289Y021451D01*
X011289Y021564D01*
X011246Y021669D01*
X011201Y021714D01*
X012198Y022711D01*
X012311Y022664D01*
X012510Y022664D01*
X012694Y022740D01*
X012835Y022881D01*
X012911Y023065D01*
X012987Y022881D01*
X013128Y022740D01*
X013311Y022664D01*
X013510Y022664D01*
X013694Y022740D01*
X013835Y022881D01*
X013911Y023065D01*
X013911Y023264D01*
X013835Y023447D01*
X013694Y023588D01*
X013510Y023664D01*
X013311Y023664D01*
X013128Y023588D01*
X012987Y023447D01*
X012911Y023264D01*
X012911Y023065D01*
X012911Y023264D01*
X012835Y023447D01*
X012694Y023588D01*
X012510Y023664D01*
X012311Y023664D01*
X012128Y023588D01*
X011987Y023447D01*
X011911Y023264D01*
X011911Y023065D01*
X011958Y022951D01*
X010834Y021828D01*
X010834Y021740D01*
X010762Y021669D01*
X010719Y021564D01*
X010719Y021451D01*
X010762Y021346D01*
X010842Y021266D01*
X010947Y021222D01*
X011061Y021222D01*
X011165Y021266D01*
X011243Y021344D02*
X015279Y021344D01*
X015279Y021442D02*
X011285Y021442D01*
X011289Y021541D02*
X015279Y021541D01*
X015279Y021639D02*
X011258Y021639D01*
X011225Y021738D02*
X015279Y021738D01*
X015279Y021836D02*
X011323Y021836D01*
X011422Y021935D02*
X015279Y021935D01*
X015279Y022034D02*
X011521Y022034D01*
X011619Y022132D02*
X015279Y022132D01*
X015279Y022231D02*
X011718Y022231D01*
X011816Y022329D02*
X015279Y022329D01*
X015279Y022428D02*
X011915Y022428D01*
X012013Y022526D02*
X015278Y022526D01*
X015272Y022625D02*
X012112Y022625D01*
X011828Y022822D02*
X011776Y022822D01*
X011835Y022881D02*
X011911Y023065D01*
X011911Y023264D01*
X011835Y023447D01*
X011694Y023588D01*
X011510Y023664D01*
X011311Y023664D01*
X011128Y023588D01*
X010987Y023447D01*
X010911Y023264D01*
X010911Y023065D01*
X010987Y022881D01*
X011128Y022740D01*
X011311Y022664D01*
X011510Y022664D01*
X011694Y022740D01*
X011835Y022881D01*
X011851Y022920D02*
X011927Y022920D01*
X011930Y023019D02*
X011892Y023019D01*
X011890Y023315D02*
X011932Y023315D01*
X011973Y023413D02*
X011849Y023413D01*
X011770Y023512D02*
X012051Y023512D01*
X012181Y023610D02*
X011640Y023610D01*
X011181Y023610D02*
X010640Y023610D01*
X010770Y023512D02*
X011051Y023512D01*
X010973Y023413D02*
X010849Y023413D01*
X010890Y023315D02*
X010932Y023315D01*
X010911Y023216D02*
X010911Y023216D01*
X010911Y023118D02*
X010911Y023118D01*
X010892Y023019D02*
X010930Y023019D01*
X010971Y022920D02*
X010851Y022920D01*
X010776Y022822D02*
X011046Y022822D01*
X011169Y022723D02*
X010653Y022723D01*
X010169Y022723D02*
X009653Y022723D01*
X009776Y022822D02*
X010046Y022822D01*
X009971Y022920D02*
X009851Y022920D01*
X009892Y023019D02*
X009930Y023019D01*
X009932Y023315D02*
X009890Y023315D01*
X009849Y023413D02*
X009973Y023413D01*
X010051Y023512D02*
X009770Y023512D01*
X009641Y023610D02*
X010181Y023610D01*
X010394Y024201D02*
X014008Y024201D01*
X014256Y024103D02*
X009663Y024103D01*
X009264Y024004D02*
X014456Y024004D01*
X014579Y023906D02*
X008864Y023906D01*
X008510Y023807D02*
X014703Y023807D01*
X014802Y023709D02*
X008250Y023709D01*
X008181Y023610D02*
X007991Y023610D01*
X008051Y023512D02*
X007731Y023512D01*
X007973Y023413D02*
X007477Y023413D01*
X007289Y023315D02*
X007932Y023315D01*
X007911Y023216D02*
X007101Y023216D01*
X006913Y023118D02*
X007911Y023118D01*
X007930Y023019D02*
X006726Y023019D01*
X006538Y022920D02*
X007516Y022920D01*
X007362Y022822D02*
X006373Y022822D01*
X006231Y022723D02*
X007273Y022723D01*
X007232Y022625D02*
X006088Y022625D01*
X005945Y022526D02*
X007204Y022526D01*
X007204Y022428D02*
X005802Y022428D01*
X005660Y022329D02*
X007216Y022329D01*
X007256Y022231D02*
X007143Y022231D01*
X007280Y022174D02*
X007421Y022033D01*
X007451Y021960D01*
X007597Y021960D01*
X007421Y022033D01*
X007280Y022174D01*
X006851Y022231D02*
X005517Y022231D01*
X005396Y022132D02*
X006672Y022132D01*
X006573Y022034D02*
X005285Y022034D01*
X005174Y021935D02*
X006532Y021935D01*
X006497Y021836D02*
X005063Y021836D01*
X004951Y021738D02*
X006497Y021738D01*
X006501Y021639D02*
X004840Y021639D01*
X004729Y021541D02*
X006185Y021541D01*
X006394Y021541D02*
X006542Y021541D01*
X006597Y021442D02*
X006597Y021442D01*
X006696Y021344D02*
X006696Y021344D01*
X006713Y021326D02*
X006744Y021253D01*
X006890Y021253D01*
X006713Y021326D01*
X007298Y021344D02*
X009571Y021344D01*
X009563Y021245D02*
X009669Y021245D01*
X009662Y021147D02*
X009768Y021147D01*
X009472Y021442D02*
X007396Y021442D01*
X007987Y022034D02*
X011040Y022034D01*
X011138Y022132D02*
X008086Y022132D01*
X008151Y022231D02*
X011237Y022231D01*
X011335Y022329D02*
X008192Y022329D01*
X008204Y022428D02*
X011434Y022428D01*
X011533Y022526D02*
X008204Y022526D01*
X008175Y022625D02*
X011631Y022625D01*
X011653Y022723D02*
X011730Y022723D01*
X012653Y022723D02*
X013169Y022723D01*
X013046Y022822D02*
X012776Y022822D01*
X012851Y022920D02*
X012971Y022920D01*
X012930Y023019D02*
X012892Y023019D01*
X012911Y023118D02*
X012911Y023118D01*
X012911Y023216D02*
X012911Y023216D01*
X012890Y023315D02*
X012932Y023315D01*
X012973Y023413D02*
X012849Y023413D01*
X012770Y023512D02*
X013051Y023512D01*
X013181Y023610D02*
X012640Y023610D01*
X013640Y023610D02*
X014880Y023610D01*
X014959Y023512D02*
X013770Y023512D01*
X013849Y023413D02*
X015025Y023413D01*
X015073Y023315D02*
X013890Y023315D01*
X013911Y023216D02*
X015120Y023216D01*
X015168Y023118D02*
X013911Y023118D01*
X013892Y023019D02*
X015196Y023019D01*
X015219Y022920D02*
X013851Y022920D01*
X013776Y022822D02*
X015241Y022822D01*
X015264Y022723D02*
X013653Y022723D01*
X014351Y020752D02*
X010756Y020752D01*
X010854Y020654D02*
X014256Y020654D01*
X014219Y020555D02*
X010953Y020555D01*
X011051Y020457D02*
X014219Y020457D01*
X014257Y020358D02*
X011150Y020358D01*
X011249Y020260D02*
X014314Y020260D01*
X014314Y020161D02*
X011347Y020161D01*
X011446Y020063D02*
X014314Y020063D01*
X014314Y019964D02*
X011544Y019964D01*
X011643Y019866D02*
X014314Y019866D01*
X014314Y019767D02*
X011741Y019767D01*
X011840Y019669D02*
X014314Y019669D01*
X014314Y019570D02*
X011938Y019570D01*
X012037Y019471D02*
X014314Y019471D01*
X014314Y019373D02*
X012135Y019373D01*
X012234Y019274D02*
X014314Y019274D01*
X014314Y019176D02*
X012332Y019176D01*
X012431Y019077D02*
X014314Y019077D01*
X014314Y018979D02*
X012530Y018979D01*
X012628Y018880D02*
X014314Y018880D01*
X014314Y018782D02*
X012727Y018782D01*
X012825Y018683D02*
X014314Y018683D01*
X014314Y018585D02*
X012924Y018585D01*
X013022Y018486D02*
X014314Y018486D01*
X014314Y018387D02*
X013121Y018387D01*
X013219Y018289D02*
X014314Y018289D01*
X014314Y018190D02*
X013318Y018190D01*
X013416Y018092D02*
X014314Y018092D01*
X014314Y017993D02*
X013515Y017993D01*
X013614Y017895D02*
X014314Y017895D01*
X014314Y017796D02*
X013712Y017796D01*
X013811Y017698D02*
X014314Y017698D01*
X014314Y017599D02*
X013909Y017599D01*
X014008Y017501D02*
X014314Y017501D01*
X014314Y017402D02*
X014106Y017402D01*
X014205Y017303D02*
X014314Y017303D01*
X014314Y017205D02*
X014214Y017205D01*
X014214Y017106D02*
X014314Y017106D01*
X014314Y017008D02*
X014214Y017008D01*
X014214Y016909D02*
X014314Y016909D01*
X014314Y016811D02*
X014214Y016811D01*
X014214Y016712D02*
X014314Y016712D01*
X014314Y016614D02*
X014214Y016614D01*
X014214Y016515D02*
X014314Y016515D01*
X014314Y016417D02*
X014214Y016417D01*
X014214Y016318D02*
X014314Y016318D01*
X014314Y016219D02*
X014214Y016219D01*
X014214Y016121D02*
X014314Y016121D01*
X014314Y016022D02*
X014214Y016022D01*
X014214Y015924D02*
X014314Y015924D01*
X014314Y015825D02*
X014214Y015825D01*
X014214Y015727D02*
X014314Y015727D01*
X014314Y015628D02*
X014240Y015628D01*
X012194Y015628D02*
X003245Y015628D01*
X003254Y015530D02*
X012194Y015530D01*
X012194Y015431D02*
X003254Y015431D01*
X003223Y015333D02*
X012194Y015333D01*
X012194Y015234D02*
X003182Y015234D01*
X003089Y015136D02*
X012194Y015136D01*
X012194Y015037D02*
X002925Y015037D01*
X003020Y014938D02*
X012194Y014938D01*
X012194Y014840D02*
X003129Y014840D01*
X003198Y014741D02*
X012194Y014741D01*
X012194Y014643D02*
X003239Y014643D01*
X003254Y014544D02*
X012194Y014544D01*
X012194Y014446D02*
X003254Y014446D01*
X003229Y014347D02*
X012194Y014347D01*
X012194Y014249D02*
X003188Y014249D01*
X003104Y014150D02*
X012194Y014150D01*
X012194Y014052D02*
X002960Y014052D01*
X002985Y013953D02*
X012194Y013953D01*
X012194Y013854D02*
X003114Y013854D01*
X003192Y013756D02*
X012194Y013756D01*
X012194Y013657D02*
X003233Y013657D01*
X003254Y013559D02*
X012194Y013559D01*
X012194Y013460D02*
X003254Y013460D01*
X003235Y013362D02*
X012194Y013362D01*
X012194Y013263D02*
X003194Y013263D01*
X003118Y013165D02*
X012194Y013165D01*
X012194Y013066D02*
X002995Y013066D01*
X002950Y012968D02*
X012194Y012968D01*
X012194Y012869D02*
X003099Y012869D01*
X003186Y012770D02*
X012194Y012770D01*
X012194Y012672D02*
X003227Y012672D01*
X003254Y012573D02*
X012194Y012573D01*
X012194Y012475D02*
X003254Y012475D01*
X003241Y012376D02*
X012194Y012376D01*
X012194Y012278D02*
X003200Y012278D01*
X003133Y012179D02*
X012194Y012179D01*
X012194Y012081D02*
X003030Y012081D01*
X002914Y011982D02*
X012194Y011982D01*
X012194Y011884D02*
X003085Y011884D01*
X003180Y011785D02*
X012194Y011785D01*
X012194Y011686D02*
X003221Y011686D01*
X003254Y011588D02*
X012194Y011588D01*
X012194Y011489D02*
X003254Y011489D01*
X003247Y011391D02*
X012194Y011391D01*
X012194Y011292D02*
X003580Y011292D01*
X003775Y011194D02*
X012194Y011194D01*
X012194Y011095D02*
X003873Y011095D01*
X003885Y011083D02*
X003961Y010900D01*
X003961Y010701D01*
X003920Y010603D02*
X012472Y010603D01*
X012570Y010504D02*
X004464Y010504D01*
X004563Y010405D02*
X012669Y010405D01*
X012767Y010307D02*
X004621Y010307D01*
X004662Y010208D02*
X012866Y010208D01*
X012965Y010110D02*
X004668Y010110D01*
X004668Y010011D02*
X013063Y010011D01*
X013162Y009913D02*
X004635Y009913D01*
X004602Y009814D02*
X004594Y009814D01*
X005148Y009814D02*
X013260Y009814D01*
X013359Y009716D02*
X005253Y009716D01*
X005321Y009617D02*
X013457Y009617D01*
X013469Y009519D02*
X005362Y009519D01*
X005375Y009420D02*
X013464Y009420D01*
X013464Y009321D02*
X005375Y009321D01*
X005083Y008730D02*
X003636Y008730D01*
X003704Y008632D02*
X005083Y008632D01*
X005102Y008533D02*
X003772Y008533D01*
X003849Y008435D02*
X005142Y008435D01*
X005218Y008336D02*
X003936Y008336D01*
X004023Y008237D02*
X005342Y008237D01*
X006479Y008435D02*
X013914Y008435D01*
X014014Y008435D02*
X015279Y008435D01*
X015279Y008533D02*
X014470Y008533D01*
X014433Y008632D02*
X015279Y008632D01*
X015279Y008730D02*
X014372Y008730D01*
X014269Y008829D02*
X015279Y008829D01*
X015279Y008927D02*
X014111Y008927D01*
X014289Y009026D02*
X015279Y009026D01*
X015279Y009124D02*
X014388Y009124D01*
X014429Y009223D02*
X015279Y009223D01*
X015279Y009321D02*
X014464Y009321D01*
X014464Y009420D02*
X015279Y009420D01*
X015279Y009519D02*
X014459Y009519D01*
X014418Y009617D02*
X015279Y009617D01*
X015279Y009716D02*
X014363Y009716D01*
X014264Y009814D02*
X015279Y009814D01*
X015279Y009913D02*
X013756Y009913D01*
X013657Y010011D02*
X015279Y010011D01*
X015279Y010110D02*
X013558Y010110D01*
X013460Y010208D02*
X015279Y010208D01*
X015279Y010307D02*
X013361Y010307D01*
X013263Y010405D02*
X015279Y010405D01*
X015279Y010504D02*
X013164Y010504D01*
X013066Y010603D02*
X015279Y010603D01*
X015279Y010701D02*
X012967Y010701D01*
X012869Y010800D02*
X015279Y010800D01*
X015279Y010898D02*
X012770Y010898D01*
X012672Y010997D02*
X015279Y010997D01*
X015279Y011095D02*
X012614Y011095D01*
X012614Y011194D02*
X015279Y011194D01*
X015279Y011292D02*
X012614Y011292D01*
X012614Y011391D02*
X015279Y011391D01*
X015279Y011489D02*
X012614Y011489D01*
X012614Y011588D02*
X015279Y011588D01*
X015279Y011686D02*
X012614Y011686D01*
X012614Y011785D02*
X015279Y011785D01*
X015279Y011884D02*
X012614Y011884D01*
X012614Y011982D02*
X015279Y011982D01*
X015279Y012081D02*
X012614Y012081D01*
X012614Y012179D02*
X015279Y012179D01*
X015279Y012278D02*
X012614Y012278D01*
X012614Y012376D02*
X015279Y012376D01*
X015279Y012475D02*
X012614Y012475D01*
X012614Y012573D02*
X015279Y012573D01*
X012194Y015727D02*
X003204Y015727D01*
X003143Y015825D02*
X012194Y015825D01*
X012194Y015924D02*
X003045Y015924D01*
X002890Y016022D02*
X012194Y016022D01*
X012194Y016121D02*
X003075Y016121D01*
X003173Y016219D02*
X012194Y016219D01*
X012194Y016318D02*
X003217Y016318D01*
X003254Y016417D02*
X012194Y016417D01*
X012194Y016515D02*
X003254Y016515D01*
X003251Y016614D02*
X012194Y016614D01*
X012194Y016712D02*
X003210Y016712D01*
X003158Y016811D02*
X012194Y016811D01*
X012194Y016909D02*
X003059Y016909D01*
X002349Y017205D02*
X002120Y017205D01*
X002144Y017303D02*
X002297Y017303D01*
X002256Y017402D02*
X002168Y017402D01*
X002204Y017501D02*
X002254Y017501D01*
X002241Y017599D02*
X002254Y017599D01*
X002278Y017698D02*
X002292Y017698D01*
X002316Y017796D02*
X002336Y017796D01*
X002353Y017895D02*
X002434Y017895D01*
X002391Y017993D02*
X002621Y017993D01*
X003636Y018683D02*
X003726Y018683D01*
X003744Y018638D02*
X003885Y018498D01*
X003744Y018638D01*
X003798Y018585D02*
X003798Y018585D01*
X003890Y018486D02*
X003913Y018486D01*
X003931Y018387D02*
X011827Y018387D01*
X011925Y018289D02*
X003961Y018289D01*
X003961Y018190D02*
X012024Y018190D01*
X012123Y018092D02*
X003951Y018092D01*
X003911Y017993D02*
X012194Y017993D01*
X012194Y017895D02*
X003849Y017895D01*
X003750Y017796D02*
X012194Y017796D01*
X011728Y018486D02*
X004423Y018486D01*
X004538Y018585D02*
X011630Y018585D01*
X011531Y018683D02*
X004611Y018683D01*
X004651Y018782D02*
X011433Y018782D01*
X011334Y018880D02*
X004668Y018880D01*
X004668Y018979D02*
X011236Y018979D01*
X011137Y019077D02*
X004645Y019077D01*
X004662Y019176D02*
X004604Y019176D01*
X004523Y019274D02*
X004523Y019274D01*
X005089Y019176D02*
X011039Y019176D01*
X010940Y019274D02*
X005228Y019274D01*
X005311Y019373D02*
X010841Y019373D01*
X010743Y019471D02*
X005351Y019471D01*
X005375Y019570D02*
X010644Y019570D01*
X010546Y019669D02*
X005375Y019669D01*
X005083Y020260D02*
X003619Y020260D01*
X003687Y020358D02*
X005083Y020358D01*
X005091Y020457D02*
X003755Y020457D01*
X003826Y020555D02*
X005132Y020555D01*
X005194Y020654D02*
X003914Y020654D01*
X004001Y020752D02*
X005292Y020752D01*
X005790Y020950D02*
X004176Y020950D01*
X004263Y021048D02*
X005790Y021048D01*
X005791Y021147D02*
X004350Y021147D01*
X004438Y021245D02*
X005832Y021245D01*
X005883Y021344D02*
X004525Y021344D01*
X004618Y021442D02*
X005982Y021442D01*
X005828Y020851D02*
X004088Y020851D01*
X007892Y022920D02*
X007971Y022920D01*
X008046Y022822D02*
X008046Y022822D01*
X008135Y022723D02*
X008169Y022723D01*
X008653Y022723D02*
X009169Y022723D01*
X009046Y022822D02*
X008776Y022822D01*
X008851Y022920D02*
X008971Y022920D01*
X008930Y023019D02*
X008892Y023019D01*
X008911Y023118D02*
X008911Y023118D01*
X008911Y023216D02*
X008911Y023216D01*
X008890Y023315D02*
X008932Y023315D01*
X008973Y023413D02*
X008849Y023413D01*
X008770Y023512D02*
X009051Y023512D01*
X009181Y023610D02*
X008641Y023610D01*
X009573Y021935D02*
X010941Y021935D01*
X010843Y021836D02*
X009672Y021836D01*
X009770Y021738D02*
X010831Y021738D01*
X010750Y021639D02*
X009869Y021639D01*
X009967Y021541D02*
X010719Y021541D01*
X010722Y021442D02*
X010066Y021442D01*
X010165Y021344D02*
X010765Y021344D01*
X010892Y021245D02*
X010263Y021245D01*
X003343Y011292D02*
X003206Y011292D01*
X003885Y010517D02*
X003744Y010376D01*
X003885Y010517D01*
X003872Y010504D02*
X003872Y010504D01*
X003774Y010405D02*
X003773Y010405D01*
X003716Y010307D02*
X003576Y010307D01*
X006632Y008336D02*
X013449Y008336D01*
X013472Y008237D02*
X006721Y008237D01*
X006762Y008139D02*
X013517Y008139D01*
X013596Y008040D02*
X006790Y008040D01*
X006790Y007942D02*
X013732Y007942D01*
X013710Y007843D02*
X006777Y007843D01*
X006793Y007745D02*
X006737Y007745D01*
X006947Y007745D02*
X007047Y007745D01*
X007047Y007646D02*
X006947Y007646D01*
X006947Y007548D02*
X007047Y007548D01*
X007047Y007449D02*
X006947Y007449D01*
X006947Y007351D02*
X007047Y007351D01*
X007047Y007055D02*
X006947Y007055D01*
X006947Y006956D02*
X007047Y006956D01*
X007047Y006858D02*
X006947Y006858D01*
X006947Y006759D02*
X007047Y006759D01*
X007124Y006759D02*
X007223Y006759D01*
X007194Y006661D02*
X005695Y006661D01*
X005553Y006759D02*
X006869Y006759D01*
X006672Y006858D02*
X005424Y006858D01*
X005313Y006956D02*
X006578Y006956D01*
X006520Y007055D02*
X005202Y007055D01*
X005091Y007154D02*
X006488Y007154D01*
X007200Y007745D02*
X013594Y007745D01*
X013522Y007646D02*
X007351Y007646D01*
X007434Y007548D02*
X013481Y007548D01*
X013464Y007449D02*
X007484Y007449D01*
X007510Y007351D02*
X013464Y007351D01*
X013609Y007055D02*
X007856Y007055D01*
X008040Y006956D02*
X013746Y006956D01*
X014182Y006956D02*
X015279Y006956D01*
X015279Y006858D02*
X008128Y006858D01*
X008185Y006759D02*
X015279Y006759D01*
X015279Y006661D02*
X008214Y006661D01*
X008723Y006267D02*
X009120Y006267D01*
X009021Y006168D02*
X008823Y006168D01*
X008799Y006168D02*
X008658Y006168D01*
X008701Y006070D02*
X008559Y006070D01*
X008602Y005971D02*
X008461Y005971D01*
X008460Y005872D02*
X008504Y005872D01*
X008558Y005774D02*
X008417Y005774D01*
X008405Y005774D02*
X008264Y005774D01*
X008306Y005675D02*
X008165Y005675D01*
X008208Y005577D02*
X008066Y005577D01*
X008515Y005675D02*
X008657Y005675D01*
X008614Y005577D02*
X008755Y005577D01*
X008855Y005577D02*
X008983Y005577D01*
X008942Y005675D02*
X008901Y005675D01*
X009076Y005478D02*
X008712Y005478D01*
X008632Y005380D02*
X009241Y005380D01*
X009581Y005380D02*
X010190Y005380D01*
X010361Y005380D02*
X010461Y005380D01*
X010461Y005478D02*
X010361Y005478D01*
X010361Y005577D02*
X010461Y005577D01*
X010461Y005675D02*
X010361Y005675D01*
X010361Y005774D02*
X010461Y005774D01*
X010461Y005971D02*
X010361Y005971D01*
X010361Y006070D02*
X010461Y006070D01*
X010461Y006168D02*
X010361Y006168D01*
X010361Y006267D02*
X010461Y006267D01*
X010723Y006267D02*
X011120Y006267D01*
X011021Y006168D02*
X010823Y006168D01*
X010883Y006070D02*
X010960Y006070D01*
X010918Y005971D02*
X010919Y005971D01*
X010901Y005675D02*
X010942Y005675D01*
X010983Y005577D02*
X010855Y005577D01*
X010774Y005478D02*
X011076Y005478D01*
X011241Y005380D02*
X010632Y005380D01*
X010048Y005478D02*
X009746Y005478D01*
X009839Y005577D02*
X009967Y005577D01*
X009921Y005675D02*
X009879Y005675D01*
X009902Y005971D02*
X009903Y005971D01*
X009939Y006070D02*
X009861Y006070D01*
X009800Y006168D02*
X009999Y006168D01*
X010099Y006267D02*
X009702Y006267D01*
X008960Y006070D02*
X008883Y006070D01*
X008918Y005971D02*
X008920Y005971D01*
X008576Y005183D02*
X014672Y005183D01*
X014548Y005084D02*
X008964Y005084D01*
X009364Y004986D02*
X014409Y004986D01*
X014204Y004887D02*
X009787Y004887D01*
X010599Y004788D02*
X013900Y004788D01*
X013241Y005380D02*
X012632Y005380D01*
X012461Y005380D02*
X012361Y005380D01*
X012361Y005478D02*
X012461Y005478D01*
X012461Y005577D02*
X012361Y005577D01*
X012361Y005675D02*
X012461Y005675D01*
X012461Y005774D02*
X012361Y005774D01*
X012361Y005971D02*
X012461Y005971D01*
X012461Y006070D02*
X012361Y006070D01*
X012361Y006168D02*
X012461Y006168D01*
X012461Y006267D02*
X012361Y006267D01*
X012099Y006267D02*
X011702Y006267D01*
X011800Y006168D02*
X011999Y006168D01*
X011939Y006070D02*
X011861Y006070D01*
X011902Y005971D02*
X011903Y005971D01*
X011879Y005675D02*
X011921Y005675D01*
X011967Y005577D02*
X011839Y005577D01*
X011746Y005478D02*
X012048Y005478D01*
X012189Y005380D02*
X011581Y005380D01*
X012774Y005478D02*
X013076Y005478D01*
X012983Y005577D02*
X012855Y005577D01*
X012901Y005675D02*
X012942Y005675D01*
X012918Y005971D02*
X012920Y005971D01*
X012883Y006070D02*
X012960Y006070D01*
X013021Y006168D02*
X012823Y006168D01*
X012723Y006267D02*
X013120Y006267D01*
X014319Y007055D02*
X015279Y007055D01*
X015279Y007154D02*
X014400Y007154D01*
X014441Y007252D02*
X015279Y007252D01*
X015279Y007351D02*
X014464Y007351D01*
X014464Y007449D02*
X015279Y007449D01*
X015279Y007548D02*
X014447Y007548D01*
X014406Y007646D02*
X015279Y007646D01*
X015279Y007745D02*
X014334Y007745D01*
X014218Y007843D02*
X015279Y007843D01*
X015279Y007942D02*
X014196Y007942D01*
X014332Y008040D02*
X015279Y008040D01*
X015279Y008139D02*
X014411Y008139D01*
X014455Y008237D02*
X015279Y008237D01*
X015279Y008336D02*
X014479Y008336D01*
X007939Y006070D02*
X007884Y006070D01*
M02*
