G75*
G70*
%OFA0B0*%
%FSLAX24Y24*%
%IPPOS*%
%LPD*%
%AMOC8*
5,1,8,0,0,1.08239X$1,22.5*
%
%ADD10R,0.0276X0.0354*%
%ADD11R,0.0512X0.0591*%
%ADD12R,0.0551X0.0394*%
%ADD13R,0.0591X0.0197*%
%ADD14C,0.0740*%
%ADD15R,0.0250X0.0500*%
%ADD16C,0.0700*%
%ADD17R,0.0472X0.0217*%
%ADD18R,0.0472X0.0157*%
%ADD19C,0.0080*%
%ADD20C,0.0310*%
%ADD21C,0.0240*%
%ADD22C,0.0120*%
%ADD23C,0.0160*%
D10*
X015748Y011207D03*
X015748Y011707D03*
X015748Y012207D03*
X015748Y012707D03*
X015748Y013207D03*
X015748Y013707D03*
X015748Y014207D03*
X015748Y014707D03*
X016260Y014707D03*
X016260Y014207D03*
X016260Y013707D03*
X016260Y013207D03*
X016260Y012707D03*
X016260Y012207D03*
X016260Y011707D03*
X016260Y011207D03*
X019148Y014307D03*
X019660Y014307D03*
X016260Y015907D03*
X016260Y016407D03*
X015748Y016407D03*
X015748Y015907D03*
X008760Y015907D03*
X008760Y016407D03*
X008760Y016907D03*
X008248Y016907D03*
X008248Y016407D03*
X008248Y015907D03*
X008248Y015407D03*
X008760Y015407D03*
X008760Y013907D03*
X008760Y013407D03*
X008760Y012907D03*
X008248Y012907D03*
X008248Y013407D03*
X008248Y013907D03*
D11*
X012730Y008107D03*
X013478Y008107D03*
X016230Y007507D03*
X016978Y007507D03*
D12*
X019437Y015133D03*
X018571Y015507D03*
X019437Y015881D03*
X019437Y016633D03*
X018571Y017007D03*
X019437Y017381D03*
D13*
X021938Y015005D03*
X021938Y014690D03*
X021938Y014375D03*
X021938Y014060D03*
X021938Y013745D03*
X021938Y013430D03*
X021938Y013115D03*
X021938Y012800D03*
X021938Y012485D03*
X021938Y012170D03*
X021938Y011855D03*
X021938Y011540D03*
D14*
X013411Y005851D03*
X012411Y005851D03*
X011411Y005851D03*
X010411Y005851D03*
X009411Y005851D03*
X008411Y005851D03*
X007704Y006558D03*
X006997Y007265D03*
X006290Y007972D03*
X005583Y008679D03*
X004875Y009386D03*
X004168Y010093D03*
X003461Y010800D03*
X002754Y011507D03*
X002754Y012507D03*
X002754Y013507D03*
X002754Y014507D03*
X002754Y015507D03*
X002754Y016507D03*
X002754Y017507D03*
X003461Y018214D03*
X004168Y018922D03*
X004875Y019629D03*
X005583Y020336D03*
X006290Y021043D03*
X006997Y021750D03*
X007704Y022457D03*
X008411Y023164D03*
X009411Y023164D03*
X010411Y023164D03*
X011411Y023164D03*
X012411Y023164D03*
X013411Y023164D03*
D15*
X011954Y008107D03*
X011604Y008107D03*
X011254Y008107D03*
D16*
X005625Y014886D03*
X004233Y016278D03*
X007375Y017678D03*
X005983Y019070D03*
D17*
X014292Y008081D03*
X014292Y007707D03*
X014292Y007333D03*
X015316Y007333D03*
X015316Y008081D03*
D18*
X017362Y012090D03*
X017362Y012346D03*
X017362Y012601D03*
X017362Y012857D03*
X017362Y013113D03*
X017362Y013369D03*
X017362Y013625D03*
X019646Y013625D03*
X019646Y013369D03*
X019646Y013113D03*
X019646Y012857D03*
X019646Y012601D03*
X019646Y012346D03*
X019646Y012090D03*
D19*
X007488Y005584D02*
X006442Y006134D01*
X005469Y006805D01*
X004585Y007588D01*
X003801Y008473D01*
X003130Y009445D01*
X002581Y010491D01*
X002162Y011596D01*
X001879Y012744D01*
X001737Y013917D01*
X001737Y015098D01*
X001879Y016271D01*
X002162Y017418D01*
X002581Y018523D01*
X003130Y019570D01*
X003801Y020542D01*
X004585Y021426D01*
X005469Y022210D01*
X006442Y022881D01*
X007488Y023430D01*
X008593Y023849D01*
X009740Y024132D01*
X010913Y024275D01*
X011504Y024292D01*
X022504Y024292D01*
X022826Y024277D01*
X023458Y024151D01*
X024052Y023905D01*
X024588Y023547D01*
X025043Y023091D01*
X025401Y022556D01*
X025647Y021961D01*
X025773Y021329D01*
X025789Y021008D01*
X025789Y020596D01*
X025789Y020507D01*
X025779Y020385D01*
X025703Y020151D01*
X025559Y019952D01*
X025360Y019808D01*
X025127Y019732D01*
X025004Y019722D01*
X024915Y019722D01*
X023593Y019722D01*
X023504Y019722D01*
X023490Y019722D01*
X023415Y019722D01*
X023311Y019722D01*
X022946Y019603D01*
X022945Y019603D01*
X022634Y019377D01*
X022408Y019066D01*
X022289Y018700D01*
X022289Y018700D01*
X022289Y018596D01*
X022289Y015232D01*
X022287Y015234D01*
X022251Y015243D01*
X021947Y015243D01*
X021947Y015014D01*
X021929Y015014D01*
X021929Y015243D01*
X021624Y015243D01*
X021588Y015234D01*
X021557Y015215D01*
X021530Y015189D01*
X021512Y015157D01*
X021503Y015121D01*
X021503Y015014D01*
X021928Y015014D01*
X021928Y014995D01*
X021503Y014995D01*
X021503Y014888D01*
X021512Y014852D01*
X021515Y014847D01*
X021512Y014842D01*
X021503Y014807D01*
X021503Y014699D01*
X021928Y014699D01*
X021928Y014680D01*
X021503Y014680D01*
X021503Y014573D01*
X021512Y014537D01*
X021525Y014515D01*
X021195Y014515D01*
X020944Y014765D01*
X020944Y016149D01*
X020944Y016265D01*
X020544Y016665D01*
X020462Y016747D01*
X019813Y016747D01*
X019813Y016872D01*
X019754Y016930D01*
X019120Y016930D01*
X019061Y016872D01*
X019061Y016395D01*
X019120Y016337D01*
X019754Y016337D01*
X019813Y016395D01*
X019813Y016467D01*
X020346Y016467D01*
X020664Y016149D01*
X020664Y014649D01*
X020746Y014567D01*
X021079Y014235D01*
X021195Y014235D01*
X021525Y014235D01*
X021512Y014212D01*
X021503Y014177D01*
X021503Y014069D01*
X021928Y014069D01*
X021928Y014050D01*
X021503Y014050D01*
X021503Y013943D01*
X021512Y013907D01*
X021525Y013885D01*
X020448Y013885D01*
X020420Y013952D01*
X020348Y014024D01*
X020267Y014057D01*
X020348Y014091D01*
X020420Y014163D01*
X020459Y014257D01*
X020459Y014358D01*
X020420Y014452D01*
X020348Y014524D01*
X020255Y014562D01*
X020153Y014562D01*
X020059Y014524D01*
X020023Y014487D01*
X019898Y014487D01*
X019898Y014526D01*
X019839Y014585D01*
X019481Y014585D01*
X019422Y014526D01*
X019422Y014517D01*
X019416Y014539D01*
X019398Y014571D01*
X019372Y014597D01*
X019340Y014615D01*
X019304Y014625D01*
X019177Y014625D01*
X019177Y014337D01*
X019119Y014337D01*
X019119Y014625D01*
X018992Y014625D01*
X018956Y014615D01*
X018924Y014597D01*
X018898Y014571D01*
X018880Y014539D01*
X018870Y014503D01*
X018870Y014336D01*
X019119Y014336D01*
X019119Y014278D01*
X019177Y014278D01*
X019177Y013990D01*
X019304Y013990D01*
X019340Y014000D01*
X019372Y014018D01*
X019398Y014044D01*
X019416Y014076D01*
X019422Y014098D01*
X019422Y014089D01*
X019466Y014045D01*
X019466Y013804D01*
X019368Y013804D01*
X019309Y013745D01*
X019309Y013507D01*
X019176Y013507D01*
X019094Y013425D01*
X018259Y012590D01*
X018259Y012658D01*
X018220Y012752D01*
X018148Y012824D01*
X018055Y012862D01*
X017953Y012862D01*
X017859Y012824D01*
X017788Y012752D01*
X017786Y012747D01*
X017698Y012747D01*
X017698Y012978D01*
X017691Y012985D01*
X017698Y012993D01*
X017698Y013215D01*
X017746Y013167D01*
X017862Y013167D01*
X018286Y013167D01*
X018288Y013163D01*
X018359Y013091D01*
X018453Y013052D01*
X018555Y013052D01*
X018648Y013091D01*
X018720Y013163D01*
X018759Y013257D01*
X018759Y013358D01*
X018720Y013452D01*
X018648Y013524D01*
X018555Y013562D01*
X018453Y013562D01*
X018359Y013524D01*
X018288Y013452D01*
X018286Y013447D01*
X018104Y013447D01*
X018120Y013463D01*
X018159Y013557D01*
X018159Y013658D01*
X018120Y013752D01*
X018104Y013767D01*
X018649Y013767D01*
X018649Y013757D01*
X018688Y013663D01*
X018759Y013591D01*
X018853Y013552D01*
X018955Y013552D01*
X019048Y013591D01*
X019120Y013663D01*
X019159Y013757D01*
X019159Y013858D01*
X019120Y013952D01*
X019082Y013990D01*
X019119Y013990D01*
X019119Y014278D01*
X018870Y014278D01*
X018870Y014112D01*
X018880Y014076D01*
X018888Y014062D01*
X018853Y014062D01*
X018817Y014047D01*
X018746Y014047D01*
X017046Y014047D01*
X016964Y013965D01*
X016846Y013847D01*
X016498Y013847D01*
X016498Y013926D01*
X016466Y013957D01*
X016498Y013989D01*
X016498Y014426D01*
X016466Y014457D01*
X016498Y014489D01*
X016498Y014567D01*
X016966Y014567D01*
X016859Y014461D01*
X016855Y014462D01*
X016753Y014462D01*
X016659Y014424D01*
X016588Y014352D01*
X016549Y014258D01*
X016549Y014157D01*
X016588Y014063D01*
X016659Y013991D01*
X016753Y013952D01*
X016855Y013952D01*
X016948Y013991D01*
X017020Y014063D01*
X017059Y014157D01*
X017059Y014258D01*
X017057Y014263D01*
X018162Y015367D01*
X018195Y015367D01*
X018195Y015269D01*
X018254Y015211D01*
X018888Y015211D01*
X018946Y015269D01*
X018946Y015741D01*
X019061Y015741D01*
X019061Y015643D01*
X019120Y015585D01*
X019754Y015585D01*
X019813Y015643D01*
X019813Y016120D01*
X019754Y016178D01*
X019120Y016178D01*
X019061Y016120D01*
X019061Y016021D01*
X018236Y016021D01*
X018120Y016021D01*
X016946Y014847D01*
X016498Y014847D01*
X016498Y014926D01*
X016439Y014985D01*
X016081Y014985D01*
X016022Y014926D01*
X016022Y014917D01*
X016016Y014939D01*
X015998Y014971D01*
X015972Y014997D01*
X015940Y015015D01*
X015904Y015025D01*
X015777Y015025D01*
X015777Y014737D01*
X015719Y014737D01*
X015719Y015025D01*
X015592Y015025D01*
X015556Y015015D01*
X015524Y014997D01*
X015498Y014971D01*
X015480Y014939D01*
X015470Y014903D01*
X015470Y014736D01*
X015719Y014736D01*
X015719Y014678D01*
X015470Y014678D01*
X015470Y014639D01*
X015457Y014652D01*
X015459Y014657D01*
X015459Y014758D01*
X015420Y014852D01*
X015348Y014924D01*
X015255Y014962D01*
X015170Y014962D01*
X015295Y015087D01*
X016780Y015087D01*
X016962Y015087D01*
X018585Y016711D01*
X018888Y016711D01*
X018946Y016769D01*
X018946Y017241D01*
X019061Y017241D01*
X019061Y017143D01*
X019120Y017085D01*
X019754Y017085D01*
X019813Y017143D01*
X019813Y017620D01*
X019754Y017678D01*
X019120Y017678D01*
X019061Y017620D01*
X019061Y017521D01*
X017036Y017521D01*
X016920Y017521D01*
X016246Y016847D01*
X016164Y016765D01*
X016164Y016685D01*
X016081Y016685D01*
X016022Y016626D01*
X016022Y016189D01*
X016053Y016157D01*
X016022Y016126D01*
X016022Y016117D01*
X016016Y016139D01*
X015998Y016171D01*
X015983Y016186D01*
X015986Y016189D01*
X015986Y016626D01*
X015927Y016685D01*
X015888Y016685D01*
X015888Y020769D01*
X015888Y020885D01*
X013829Y022944D01*
X013881Y023071D01*
X013881Y023258D01*
X013809Y023430D01*
X013677Y023563D01*
X013504Y023634D01*
X013317Y023634D01*
X013145Y023563D01*
X013012Y023430D01*
X012941Y023258D01*
X012941Y023071D01*
X013012Y022898D01*
X013145Y022766D01*
X013317Y022694D01*
X013504Y022694D01*
X013631Y022746D01*
X015608Y020769D01*
X015608Y016685D01*
X015569Y016685D01*
X015510Y016626D01*
X015510Y016189D01*
X015513Y016186D01*
X015498Y016171D01*
X015480Y016139D01*
X015470Y016103D01*
X015470Y015936D01*
X015719Y015936D01*
X015719Y015878D01*
X015777Y015878D01*
X015777Y015590D01*
X015904Y015590D01*
X015940Y015600D01*
X015972Y015618D01*
X015998Y015644D01*
X016016Y015676D01*
X016022Y015698D01*
X016022Y015689D01*
X016081Y015630D01*
X016439Y015630D01*
X016498Y015689D01*
X016498Y016126D01*
X016466Y016157D01*
X016498Y016189D01*
X016498Y016626D01*
X016459Y016665D01*
X017036Y017241D01*
X018195Y017241D01*
X018195Y016943D01*
X016780Y015527D01*
X015113Y015527D01*
X014984Y015399D01*
X011414Y011828D01*
X011414Y011991D01*
X012575Y013152D01*
X012655Y013152D01*
X012748Y013191D01*
X012820Y013263D01*
X012859Y013357D01*
X012859Y013458D01*
X012820Y013552D01*
X012748Y013624D01*
X012655Y013662D01*
X012579Y013662D01*
X012648Y013691D01*
X012720Y013763D01*
X012759Y013857D01*
X012759Y013958D01*
X012720Y014052D01*
X012648Y014124D01*
X012555Y014162D01*
X012453Y014162D01*
X012449Y014161D01*
X011842Y014767D01*
X012046Y014767D01*
X012851Y013963D01*
X012849Y013958D01*
X012849Y013857D01*
X012888Y013763D01*
X012959Y013691D01*
X013053Y013652D01*
X013155Y013652D01*
X013248Y013691D01*
X013320Y013763D01*
X013359Y013857D01*
X013359Y013958D01*
X013320Y014052D01*
X013248Y014124D01*
X013155Y014162D01*
X013053Y014162D01*
X013049Y014161D01*
X012162Y015047D01*
X012046Y015047D01*
X007242Y015047D01*
X007462Y015267D01*
X008010Y015267D01*
X008010Y015189D01*
X008069Y015130D01*
X008427Y015130D01*
X008486Y015189D01*
X008486Y015198D01*
X008492Y015176D01*
X008510Y015144D01*
X008536Y015118D01*
X008568Y015100D01*
X008604Y015090D01*
X008731Y015090D01*
X008731Y015378D01*
X008789Y015378D01*
X008789Y015090D01*
X008916Y015090D01*
X008952Y015100D01*
X008984Y015118D01*
X009010Y015144D01*
X009028Y015176D01*
X009038Y015212D01*
X009038Y015378D01*
X008789Y015378D01*
X008789Y015436D01*
X009038Y015436D01*
X009038Y015603D01*
X015550Y015603D01*
X015556Y015600D02*
X015592Y015590D01*
X015719Y015590D01*
X015719Y015878D01*
X015470Y015878D01*
X015470Y015712D01*
X015480Y015676D01*
X015498Y015644D01*
X015524Y015618D01*
X015556Y015600D01*
X015478Y015682D02*
X009029Y015682D01*
X009028Y015676D02*
X009038Y015712D01*
X009038Y015878D01*
X008789Y015878D01*
X008789Y015590D01*
X008789Y015437D01*
X008731Y015437D01*
X008731Y015725D01*
X008731Y015878D01*
X008789Y015878D01*
X008789Y015936D01*
X009038Y015936D01*
X009038Y016103D01*
X009028Y016139D01*
X009017Y016157D01*
X009028Y016176D01*
X009038Y016212D01*
X009038Y016378D01*
X008789Y016378D01*
X008789Y016090D01*
X008789Y015937D01*
X008731Y015937D01*
X008731Y016090D01*
X008731Y016378D01*
X008789Y016378D01*
X008789Y016436D01*
X009038Y016436D01*
X009038Y016603D01*
X009028Y016639D01*
X009017Y016657D01*
X009028Y016676D01*
X009038Y016712D01*
X009038Y016878D01*
X008789Y016878D01*
X008789Y016590D01*
X008789Y016437D01*
X008731Y016437D01*
X008731Y016590D01*
X008731Y016878D01*
X008789Y016878D01*
X008789Y016936D01*
X009038Y016936D01*
X009038Y017103D01*
X009028Y017139D01*
X009010Y017171D01*
X008984Y017197D01*
X008952Y017215D01*
X008916Y017225D01*
X008789Y017225D01*
X008789Y016937D01*
X008731Y016937D01*
X008731Y017225D01*
X008604Y017225D01*
X008568Y017215D01*
X008536Y017197D01*
X008510Y017171D01*
X008492Y017139D01*
X008486Y017117D01*
X008486Y017126D01*
X008427Y017185D01*
X008069Y017185D01*
X008067Y017183D01*
X007777Y017474D01*
X007825Y017589D01*
X007825Y017768D01*
X007756Y017933D01*
X007630Y018060D01*
X007464Y018128D01*
X007285Y018128D01*
X007120Y018060D01*
X006993Y017933D01*
X006946Y017818D01*
X005470Y017818D01*
X004586Y018702D01*
X004638Y018828D01*
X004638Y019015D01*
X004567Y019188D01*
X004435Y019320D01*
X004262Y019392D01*
X004075Y019392D01*
X003902Y019320D01*
X003770Y019188D01*
X003698Y019015D01*
X003698Y018828D01*
X003770Y018655D01*
X003902Y018523D01*
X004075Y018452D01*
X004262Y018452D01*
X004388Y018504D01*
X005354Y017538D01*
X005470Y017538D01*
X006946Y017538D01*
X006993Y017423D01*
X007120Y017297D01*
X007285Y017228D01*
X007464Y017228D01*
X007579Y017276D01*
X008010Y016845D01*
X008010Y016689D01*
X008042Y016657D01*
X008010Y016626D01*
X008010Y016547D01*
X007862Y016547D01*
X007746Y016547D01*
X006246Y015047D01*
X006045Y015047D01*
X006007Y015141D01*
X005880Y015268D01*
X005765Y015315D01*
X005765Y015992D01*
X005765Y016108D01*
X003879Y017995D01*
X003931Y018121D01*
X003931Y018308D01*
X003860Y018481D01*
X003727Y018613D01*
X003555Y018684D01*
X003368Y018684D01*
X003195Y018613D01*
X003063Y018481D01*
X002991Y018308D01*
X002991Y018121D01*
X003063Y017948D01*
X003195Y017816D01*
X003368Y017744D01*
X003555Y017744D01*
X003681Y017797D01*
X005485Y015992D01*
X005485Y015315D01*
X005370Y015268D01*
X005244Y015141D01*
X005175Y014976D01*
X005175Y014797D01*
X005244Y014631D01*
X005370Y014505D01*
X005509Y014447D01*
X005262Y014447D01*
X003644Y016065D01*
X003644Y016699D01*
X003644Y016815D01*
X003172Y017288D01*
X003224Y017414D01*
X003224Y017601D01*
X003152Y017774D01*
X003020Y017906D01*
X002848Y017977D01*
X002661Y017977D01*
X002488Y017906D01*
X002356Y017774D01*
X002284Y017601D01*
X002284Y017414D01*
X002356Y017241D01*
X002488Y017109D01*
X002661Y017037D01*
X002848Y017037D01*
X002974Y017090D01*
X003364Y016699D01*
X003364Y016095D01*
X003172Y016288D01*
X003224Y016414D01*
X003224Y016601D01*
X003152Y016774D01*
X003020Y016906D01*
X002847Y016977D01*
X002660Y016977D01*
X002488Y016906D01*
X002355Y016774D01*
X002284Y016601D01*
X002284Y016414D01*
X002355Y016241D01*
X002488Y016109D01*
X002660Y016037D01*
X002847Y016037D01*
X002974Y016090D01*
X003416Y015647D01*
X003205Y015647D01*
X003152Y015774D01*
X003020Y015906D01*
X002847Y015977D01*
X002660Y015977D01*
X002488Y015906D01*
X002355Y015774D01*
X002284Y015601D01*
X002284Y015414D01*
X002355Y015241D01*
X002488Y015109D01*
X002660Y015037D01*
X002847Y015037D01*
X003020Y015109D01*
X003152Y015241D01*
X003205Y015367D01*
X003446Y015367D01*
X004166Y014647D01*
X004146Y014647D01*
X003205Y014647D01*
X003152Y014774D01*
X003020Y014906D01*
X002847Y014977D01*
X002661Y014977D01*
X002488Y014906D01*
X002356Y014774D01*
X002284Y014601D01*
X002284Y014414D01*
X002356Y014241D01*
X002488Y014109D01*
X002661Y014037D01*
X002847Y014037D01*
X003020Y014109D01*
X003152Y014241D01*
X003205Y014367D01*
X004146Y014367D01*
X004864Y013649D01*
X004946Y013567D01*
X006246Y013567D01*
X006266Y013567D01*
X006146Y013447D01*
X003224Y013447D01*
X003224Y013601D01*
X003152Y013774D01*
X003020Y013906D01*
X002848Y013977D01*
X002661Y013977D01*
X002488Y013906D01*
X002356Y013774D01*
X002284Y013601D01*
X002284Y013414D01*
X002356Y013241D01*
X002488Y013109D01*
X002661Y013037D01*
X002848Y013037D01*
X003020Y013109D01*
X003079Y013167D01*
X003216Y013167D01*
X002974Y012925D01*
X002847Y012977D01*
X002661Y012977D01*
X002488Y012906D01*
X002356Y012774D01*
X002284Y012601D01*
X002284Y012414D01*
X002356Y012241D01*
X002488Y012109D01*
X002661Y012037D01*
X002847Y012037D01*
X003020Y012109D01*
X003152Y012241D01*
X003224Y012414D01*
X003224Y012601D01*
X003172Y012727D01*
X003412Y012967D01*
X006266Y012967D01*
X004946Y011647D01*
X003205Y011647D01*
X003152Y011774D01*
X003020Y011906D01*
X002848Y011977D01*
X002661Y011977D01*
X002488Y011906D01*
X002356Y011774D01*
X002284Y011601D01*
X002284Y011414D01*
X002356Y011241D01*
X002488Y011109D01*
X002661Y011037D01*
X002848Y011037D01*
X003020Y011109D01*
X003152Y011241D01*
X003205Y011367D01*
X004946Y011367D01*
X004975Y011367D01*
X004548Y010940D01*
X003912Y010940D01*
X003860Y011066D01*
X003727Y011199D01*
X003555Y011270D01*
X003368Y011270D01*
X003195Y011199D01*
X003063Y011066D01*
X002991Y010894D01*
X002991Y010707D01*
X003063Y010534D01*
X003195Y010402D01*
X003368Y010330D01*
X003555Y010330D01*
X003727Y010402D01*
X003860Y010534D01*
X003912Y010660D01*
X004548Y010660D01*
X004664Y010660D01*
X007271Y013267D01*
X007586Y013267D01*
X007588Y013263D01*
X007659Y013191D01*
X007741Y013157D01*
X007659Y013124D01*
X007588Y013052D01*
X007549Y012958D01*
X007549Y012857D01*
X007588Y012763D01*
X007659Y012691D01*
X007753Y012652D01*
X007855Y012652D01*
X007948Y012691D01*
X008010Y012753D01*
X008010Y012689D01*
X008069Y012630D01*
X008427Y012630D01*
X008486Y012689D01*
X008486Y012698D01*
X008492Y012676D01*
X008510Y012644D01*
X008536Y012618D01*
X008568Y012600D01*
X008604Y012590D01*
X008731Y012590D01*
X008731Y012878D01*
X008789Y012878D01*
X008789Y012590D01*
X008916Y012590D01*
X008952Y012600D01*
X008984Y012618D01*
X010695Y012618D01*
X010746Y012567D02*
X010786Y012567D01*
X010788Y012563D01*
X010859Y012491D01*
X010953Y012452D01*
X011055Y012452D01*
X011148Y012491D01*
X011220Y012563D01*
X011259Y012657D01*
X011259Y012758D01*
X011220Y012852D01*
X011164Y012907D01*
X011220Y012963D01*
X011259Y013057D01*
X011259Y013158D01*
X011220Y013252D01*
X011148Y013324D01*
X011055Y013362D01*
X010953Y013362D01*
X010859Y013324D01*
X010788Y013252D01*
X010786Y013247D01*
X010762Y013247D01*
X009444Y014565D01*
X009442Y014567D01*
X011646Y014567D01*
X012251Y013963D01*
X012249Y013958D01*
X012249Y013857D01*
X012288Y013763D01*
X012359Y013691D01*
X012453Y013652D01*
X012529Y013652D01*
X012459Y013624D01*
X012388Y013552D01*
X012349Y013458D01*
X012349Y013379D01*
X011094Y012124D01*
X011094Y011991D01*
X011094Y008457D01*
X011087Y008457D01*
X011029Y008399D01*
X011029Y007816D01*
X011034Y007811D01*
X011034Y006138D01*
X011012Y006117D01*
X010941Y005944D01*
X010941Y005757D01*
X011012Y005584D01*
X011145Y005452D01*
X011317Y005381D01*
X011504Y005381D01*
X011677Y005452D01*
X011809Y005584D01*
X011881Y005757D01*
X011881Y005944D01*
X011809Y006117D01*
X011677Y006249D01*
X011504Y006321D01*
X011474Y006321D01*
X011474Y007757D01*
X011770Y007757D01*
X011779Y007766D01*
X011787Y007757D01*
X012120Y007757D01*
X012179Y007816D01*
X012179Y007887D01*
X012374Y007887D01*
X012374Y007771D01*
X012433Y007712D01*
X013027Y007712D01*
X013086Y007771D01*
X013086Y008444D01*
X013027Y008503D01*
X012433Y008503D01*
X012374Y008444D01*
X012374Y008327D01*
X012179Y008327D01*
X012179Y008399D01*
X012120Y008457D01*
X011824Y008457D01*
X011824Y011616D01*
X014949Y014741D01*
X014949Y014657D01*
X014988Y014563D01*
X015059Y014491D01*
X015141Y014457D01*
X015059Y014424D01*
X014988Y014352D01*
X014949Y014258D01*
X014949Y014157D01*
X014988Y014063D01*
X015059Y013991D01*
X015153Y013952D01*
X015255Y013952D01*
X015259Y013954D01*
X015510Y013703D01*
X015510Y013489D01*
X015542Y013457D01*
X015510Y013426D01*
X015510Y012989D01*
X015542Y012957D01*
X015510Y012926D01*
X015510Y012489D01*
X015542Y012457D01*
X015510Y012426D01*
X015510Y011989D01*
X015542Y011957D01*
X015510Y011926D01*
X015510Y011489D01*
X015542Y011457D01*
X015510Y011426D01*
X015510Y010989D01*
X015568Y010931D01*
X015568Y008938D01*
X015568Y008789D01*
X015949Y008408D01*
X015949Y008357D01*
X015984Y008272D01*
X015984Y007903D01*
X015933Y007903D01*
X015874Y007844D01*
X015874Y007553D01*
X015225Y007553D01*
X015213Y007542D01*
X015038Y007542D01*
X014980Y007483D01*
X014980Y007184D01*
X015038Y007125D01*
X015213Y007125D01*
X015225Y007113D01*
X015931Y007113D01*
X015933Y007112D01*
X016527Y007112D01*
X016586Y007171D01*
X016586Y007180D01*
X016592Y007158D01*
X016610Y007126D01*
X016636Y007100D01*
X016668Y007082D01*
X016704Y007072D01*
X016938Y007072D01*
X016938Y007467D01*
X017018Y007467D01*
X017018Y007072D01*
X017252Y007072D01*
X017288Y007082D01*
X017320Y007100D01*
X017346Y007126D01*
X017364Y007158D01*
X017374Y007194D01*
X017374Y007467D01*
X017018Y007467D01*
X017018Y007547D01*
X017374Y007547D01*
X017374Y007821D01*
X017364Y007857D01*
X017346Y007889D01*
X017320Y007915D01*
X017288Y007933D01*
X017252Y007943D01*
X017018Y007943D01*
X017018Y007548D01*
X016938Y007548D01*
X016938Y007943D01*
X016704Y007943D01*
X016668Y007933D01*
X016636Y007915D01*
X016610Y007889D01*
X016592Y007857D01*
X016586Y007835D01*
X016586Y007844D01*
X016527Y007903D01*
X016424Y007903D01*
X016424Y008272D01*
X016459Y008357D01*
X016459Y008458D01*
X016420Y008552D01*
X016348Y008624D01*
X016255Y008662D01*
X016203Y008662D01*
X015928Y008938D01*
X015928Y010931D01*
X015986Y010989D01*
X015986Y011426D01*
X015954Y011457D01*
X015986Y011489D01*
X015986Y011926D01*
X015954Y011957D01*
X015986Y011989D01*
X015986Y012426D01*
X015954Y012457D01*
X015986Y012489D01*
X015986Y012926D01*
X015954Y012957D01*
X015986Y012989D01*
X015986Y013426D01*
X015954Y013457D01*
X015986Y013489D01*
X015986Y013926D01*
X015954Y013957D01*
X015986Y013989D01*
X015986Y014426D01*
X015983Y014429D01*
X015998Y014444D01*
X016016Y014476D01*
X016022Y014498D01*
X016022Y014489D01*
X016053Y014457D01*
X016022Y014426D01*
X016022Y013989D01*
X016053Y013957D01*
X016022Y013926D01*
X016022Y013489D01*
X016053Y013457D01*
X016022Y013426D01*
X016022Y012989D01*
X016053Y012957D01*
X016022Y012926D01*
X016022Y012489D01*
X016053Y012457D01*
X016022Y012426D01*
X016022Y011989D01*
X016053Y011957D01*
X016022Y011926D01*
X016022Y011489D01*
X016053Y011457D01*
X016022Y011426D01*
X016022Y010989D01*
X016081Y010930D01*
X016439Y010930D01*
X016498Y010989D01*
X016498Y011067D01*
X016546Y011067D01*
X016662Y011067D01*
X016862Y011267D01*
X017756Y011267D01*
X017872Y011267D01*
X019062Y012457D01*
X019309Y012457D01*
X019309Y012266D01*
X019297Y012254D01*
X019279Y012222D01*
X019269Y012187D01*
X019269Y012090D01*
X019645Y012090D01*
X019645Y012089D01*
X019646Y012089D01*
X019646Y011871D01*
X019900Y011871D01*
X019936Y011880D01*
X019968Y011899D01*
X019994Y011925D01*
X020012Y011957D01*
X020022Y011992D01*
X020022Y012089D01*
X019646Y012089D01*
X019646Y012090D01*
X020022Y012090D01*
X020022Y012187D01*
X020012Y012222D01*
X019994Y012254D01*
X019982Y012266D01*
X019982Y012461D01*
X020512Y012461D01*
X021184Y011789D01*
X021266Y011707D01*
X021521Y011707D01*
X021512Y011693D01*
X021503Y011657D01*
X021503Y011549D01*
X021928Y011549D01*
X021928Y011531D01*
X021503Y011531D01*
X021503Y011423D01*
X021512Y011388D01*
X021530Y011356D01*
X021557Y011330D01*
X021588Y011311D01*
X021624Y011302D01*
X021929Y011302D01*
X021929Y011531D01*
X021947Y011531D01*
X021947Y011302D01*
X022251Y011302D01*
X022287Y011311D01*
X022289Y011312D01*
X022289Y010418D01*
X022289Y010315D01*
X022289Y010315D01*
X022408Y009949D01*
X022634Y009638D01*
X022634Y009638D01*
X022945Y009411D01*
X022946Y009411D02*
X023311Y009292D01*
X023311Y009292D01*
X023415Y009292D01*
X023497Y009292D01*
X023504Y009292D01*
X023593Y009292D01*
X025004Y009292D01*
X025127Y009283D01*
X025360Y009207D01*
X025559Y009062D01*
X025703Y008864D01*
X025779Y008630D01*
X025789Y008507D01*
X025789Y008432D01*
X025789Y008418D01*
X025789Y008007D01*
X025773Y007685D01*
X025647Y007054D01*
X025401Y006459D01*
X025043Y005923D01*
X024588Y005468D01*
X024052Y005110D01*
X023457Y004864D01*
X022826Y004738D01*
X022504Y004722D01*
X022415Y004722D01*
X011593Y004722D01*
X011504Y004722D01*
X010913Y004740D01*
X009740Y004883D01*
X008593Y005165D01*
X007488Y005584D01*
X007405Y005628D02*
X007952Y005628D01*
X007938Y005655D02*
X007975Y005583D01*
X008022Y005518D01*
X008354Y005850D01*
X008411Y005794D01*
X008468Y005850D01*
X008800Y005518D01*
X008800Y005518D01*
X008847Y005583D01*
X008884Y005655D01*
X008908Y005731D01*
X008921Y005810D01*
X008921Y005891D01*
X008908Y005970D01*
X008884Y006046D01*
X008847Y006118D01*
X008800Y006183D01*
X008800Y006183D01*
X008468Y005851D01*
X008411Y005907D01*
X008743Y006239D01*
X008743Y006240D01*
X008678Y006287D01*
X008607Y006323D01*
X008530Y006348D01*
X008451Y006361D01*
X008371Y006361D01*
X008291Y006348D01*
X008215Y006323D01*
X008144Y006287D01*
X008130Y006277D01*
X008140Y006290D01*
X008176Y006362D01*
X008201Y006438D01*
X008214Y006518D01*
X007744Y006518D01*
X007744Y006598D01*
X007664Y006598D01*
X007664Y007068D01*
X007664Y007068D01*
X007584Y007055D01*
X007508Y007030D01*
X007436Y006994D01*
X007423Y006984D01*
X007433Y006997D01*
X007469Y007069D01*
X007494Y007145D01*
X007507Y007225D01*
X007037Y007225D01*
X007037Y007305D01*
X007507Y007305D01*
X007494Y007384D01*
X007469Y007461D01*
X007433Y007532D01*
X007386Y007597D01*
X007329Y007654D01*
X007264Y007701D01*
X007192Y007737D01*
X007116Y007762D01*
X007037Y007775D01*
X007037Y007775D01*
X007037Y007305D01*
X006957Y007305D01*
X006957Y007775D01*
X006957Y007775D01*
X006877Y007762D01*
X006801Y007737D01*
X006729Y007701D01*
X006664Y007654D01*
X006608Y007597D01*
X006561Y007532D01*
X006524Y007461D01*
X006499Y007384D01*
X006487Y007305D01*
X006487Y007305D01*
X006956Y007305D01*
X006956Y007225D01*
X006487Y007225D01*
X006487Y007225D01*
X006499Y007145D01*
X006524Y007069D01*
X006561Y006997D01*
X006608Y006933D01*
X006664Y006876D01*
X006729Y006829D01*
X006801Y006792D01*
X006877Y006767D01*
X006957Y006755D01*
X006957Y007225D01*
X007037Y007225D01*
X007037Y006755D01*
X007116Y006767D01*
X007192Y006792D01*
X007264Y006829D01*
X007277Y006838D01*
X007268Y006825D01*
X007231Y006753D01*
X007206Y006677D01*
X007194Y006598D01*
X007194Y006598D01*
X007664Y006598D01*
X007664Y006518D01*
X007744Y006518D01*
X007744Y006048D01*
X007823Y006060D01*
X007900Y006085D01*
X007971Y006122D01*
X007985Y006131D01*
X007975Y006118D01*
X007938Y006046D01*
X007913Y005970D01*
X007901Y005891D01*
X007901Y005810D01*
X007913Y005731D01*
X007938Y005655D01*
X007921Y005707D02*
X007255Y005707D01*
X007106Y005785D02*
X007905Y005785D01*
X007901Y005864D02*
X006956Y005864D01*
X006806Y005942D02*
X007909Y005942D01*
X007930Y006021D02*
X006657Y006021D01*
X006507Y006099D02*
X007480Y006099D01*
X007508Y006085D02*
X007584Y006060D01*
X007664Y006048D01*
X007664Y006518D01*
X007194Y006518D01*
X007194Y006518D01*
X007206Y006438D01*
X007231Y006362D01*
X007268Y006290D01*
X007315Y006225D01*
X007372Y006169D01*
X007436Y006122D01*
X007508Y006085D01*
X007664Y006099D02*
X007744Y006099D01*
X007744Y006048D02*
X007744Y006048D01*
X007664Y006048D02*
X007664Y006048D01*
X007664Y006178D02*
X007744Y006178D01*
X007744Y006256D02*
X007664Y006256D01*
X007664Y006335D02*
X007744Y006335D01*
X007744Y006414D02*
X007664Y006414D01*
X007664Y006492D02*
X007744Y006492D01*
X007744Y006571D02*
X011034Y006571D01*
X011034Y006649D02*
X008206Y006649D01*
X008201Y006677D02*
X008176Y006753D01*
X008140Y006825D01*
X008093Y006890D01*
X008036Y006947D01*
X007971Y006994D01*
X007900Y007030D01*
X007823Y007055D01*
X007744Y007068D01*
X007744Y007068D01*
X007744Y006598D01*
X008214Y006598D01*
X008201Y006677D01*
X008185Y006728D02*
X011034Y006728D01*
X011034Y006806D02*
X008150Y006806D01*
X008097Y006885D02*
X011034Y006885D01*
X011034Y006963D02*
X008013Y006963D01*
X007864Y007042D02*
X011034Y007042D01*
X011034Y007120D02*
X007486Y007120D01*
X007503Y007199D02*
X011034Y007199D01*
X011034Y007277D02*
X007037Y007277D01*
X007037Y007199D02*
X006957Y007199D01*
X006956Y007277D02*
X004936Y007277D01*
X005024Y007199D02*
X006491Y007199D01*
X006507Y007120D02*
X005113Y007120D01*
X005202Y007042D02*
X006538Y007042D01*
X006585Y006963D02*
X005290Y006963D01*
X005379Y006885D02*
X006655Y006885D01*
X006773Y006806D02*
X005468Y006806D01*
X005581Y006728D02*
X007223Y006728D01*
X007220Y006806D02*
X007258Y006806D01*
X007202Y006649D02*
X005695Y006649D01*
X005809Y006571D02*
X007664Y006571D01*
X007664Y006649D02*
X007744Y006649D01*
X007744Y006728D02*
X007664Y006728D01*
X007664Y006806D02*
X007744Y006806D01*
X007744Y006885D02*
X007664Y006885D01*
X007664Y006963D02*
X007744Y006963D01*
X007744Y007042D02*
X007664Y007042D01*
X007544Y007042D02*
X007455Y007042D01*
X007507Y007225D02*
X007507Y007225D01*
X007507Y007305D02*
X007507Y007305D01*
X007499Y007356D02*
X011034Y007356D01*
X011034Y007435D02*
X007478Y007435D01*
X007443Y007513D02*
X011034Y007513D01*
X011034Y007592D02*
X007390Y007592D01*
X007306Y007670D02*
X011034Y007670D01*
X011034Y007749D02*
X007157Y007749D01*
X007037Y007749D02*
X006957Y007749D01*
X006957Y007670D02*
X007037Y007670D01*
X007037Y007592D02*
X006957Y007592D01*
X006957Y007513D02*
X007037Y007513D01*
X007037Y007435D02*
X006957Y007435D01*
X006957Y007356D02*
X007037Y007356D01*
X007037Y007120D02*
X006957Y007120D01*
X006957Y007042D02*
X007037Y007042D01*
X007037Y006963D02*
X006957Y006963D01*
X006957Y006885D02*
X007037Y006885D01*
X007037Y006806D02*
X006957Y006806D01*
X006957Y006755D02*
X006957Y006755D01*
X007037Y006755D02*
X007037Y006755D01*
X007198Y006492D02*
X005922Y006492D01*
X006036Y006414D02*
X007214Y006414D01*
X007245Y006335D02*
X006150Y006335D01*
X006264Y006256D02*
X007292Y006256D01*
X007362Y006178D02*
X006378Y006178D01*
X007580Y005550D02*
X007999Y005550D01*
X008022Y005518D02*
X008022Y005518D01*
X008053Y005550D02*
X008166Y005550D01*
X008132Y005628D02*
X008245Y005628D01*
X008210Y005707D02*
X008324Y005707D01*
X008289Y005785D02*
X008402Y005785D01*
X008411Y005794D02*
X008079Y005462D01*
X008144Y005414D01*
X008215Y005378D01*
X008291Y005353D01*
X008371Y005341D01*
X008451Y005341D01*
X008530Y005353D01*
X008607Y005378D01*
X008678Y005414D01*
X008743Y005462D01*
X008411Y005794D01*
X008420Y005785D02*
X008533Y005785D01*
X008498Y005707D02*
X008611Y005707D01*
X008577Y005628D02*
X008690Y005628D01*
X008655Y005550D02*
X008768Y005550D01*
X008823Y005550D02*
X009047Y005550D01*
X009012Y005584D02*
X009145Y005452D01*
X009317Y005381D01*
X009504Y005381D01*
X009677Y005452D01*
X009809Y005584D01*
X009881Y005757D01*
X009881Y005944D01*
X009809Y006117D01*
X009677Y006249D01*
X009504Y006321D01*
X009317Y006321D01*
X009145Y006249D01*
X009012Y006117D01*
X008941Y005944D01*
X008941Y005757D01*
X009012Y005584D01*
X008994Y005628D02*
X008870Y005628D01*
X008900Y005707D02*
X008962Y005707D01*
X008941Y005785D02*
X008917Y005785D01*
X008921Y005864D02*
X008941Y005864D01*
X008941Y005942D02*
X008913Y005942D01*
X008892Y006021D02*
X008973Y006021D01*
X009005Y006099D02*
X008856Y006099D01*
X008803Y006178D02*
X009073Y006178D01*
X009162Y006256D02*
X008720Y006256D01*
X008682Y006178D02*
X008795Y006178D01*
X008716Y006099D02*
X008603Y006099D01*
X008638Y006021D02*
X008525Y006021D01*
X008559Y005942D02*
X008446Y005942D01*
X008454Y005864D02*
X008481Y005864D01*
X008734Y005471D02*
X009126Y005471D01*
X009289Y005392D02*
X008635Y005392D01*
X008743Y005462D02*
X008743Y005462D01*
X008628Y005157D02*
X024122Y005157D01*
X024240Y005235D02*
X008409Y005235D01*
X008201Y005314D02*
X024357Y005314D01*
X024475Y005392D02*
X013533Y005392D01*
X013504Y005381D02*
X013677Y005452D01*
X013809Y005584D01*
X013881Y005757D01*
X013881Y005944D01*
X013809Y006117D01*
X013698Y006228D01*
X013698Y007113D01*
X014383Y007113D01*
X014395Y007125D01*
X014570Y007125D01*
X014628Y007184D01*
X014628Y007483D01*
X014619Y007492D01*
X014640Y007513D01*
X015010Y007513D01*
X014980Y007435D02*
X014628Y007435D01*
X014628Y007356D02*
X014980Y007356D01*
X014980Y007277D02*
X014628Y007277D01*
X014628Y007199D02*
X014980Y007199D01*
X015218Y007120D02*
X014390Y007120D01*
X014640Y007513D02*
X014659Y007545D01*
X014668Y007581D01*
X014668Y007693D01*
X014306Y007693D01*
X014306Y007722D01*
X014668Y007722D01*
X014668Y007834D01*
X014659Y007870D01*
X014640Y007902D01*
X014619Y007923D01*
X014628Y007932D01*
X014628Y008231D01*
X014570Y008290D01*
X014395Y008290D01*
X014383Y008301D01*
X013834Y008301D01*
X013834Y008444D01*
X013775Y008503D01*
X013181Y008503D01*
X013122Y008444D01*
X013122Y007771D01*
X013181Y007712D01*
X013258Y007712D01*
X013258Y007399D01*
X013258Y007216D01*
X013258Y006296D01*
X013145Y006249D01*
X013012Y006117D01*
X012941Y005944D01*
X012941Y005757D01*
X013012Y005584D01*
X013145Y005452D01*
X013317Y005381D01*
X013504Y005381D01*
X013696Y005471D02*
X024591Y005471D01*
X024669Y005550D02*
X013774Y005550D01*
X013827Y005628D02*
X024748Y005628D01*
X024826Y005707D02*
X013860Y005707D01*
X013881Y005785D02*
X024905Y005785D01*
X024984Y005864D02*
X013881Y005864D01*
X013881Y005942D02*
X025056Y005942D01*
X025108Y006021D02*
X013849Y006021D01*
X013816Y006099D02*
X025161Y006099D01*
X025213Y006178D02*
X013748Y006178D01*
X013698Y006256D02*
X025266Y006256D01*
X025318Y006335D02*
X013698Y006335D01*
X013698Y006414D02*
X025371Y006414D01*
X025415Y006492D02*
X013698Y006492D01*
X013698Y006571D02*
X025447Y006571D01*
X025480Y006649D02*
X013698Y006649D01*
X013698Y006728D02*
X025512Y006728D01*
X025545Y006806D02*
X013698Y006806D01*
X013698Y006885D02*
X025577Y006885D01*
X025610Y006963D02*
X013698Y006963D01*
X013698Y007042D02*
X025643Y007042D01*
X025661Y007120D02*
X017340Y007120D01*
X017374Y007199D02*
X025676Y007199D01*
X025692Y007277D02*
X017374Y007277D01*
X017374Y007356D02*
X025708Y007356D01*
X025723Y007435D02*
X017374Y007435D01*
X017374Y007592D02*
X025754Y007592D01*
X025770Y007670D02*
X017374Y007670D01*
X017374Y007749D02*
X025776Y007749D01*
X025780Y007827D02*
X017372Y007827D01*
X017329Y007906D02*
X025784Y007906D01*
X025788Y007984D02*
X016424Y007984D01*
X016424Y007906D02*
X016627Y007906D01*
X016424Y008063D02*
X025789Y008063D01*
X025789Y008141D02*
X025326Y008141D01*
X025435Y008250D01*
X025494Y008392D01*
X025494Y008546D01*
X025435Y008688D01*
X025326Y008797D01*
X025184Y008856D01*
X025030Y008856D01*
X024888Y008797D01*
X024779Y008688D01*
X024720Y008546D01*
X024720Y008392D01*
X024779Y008250D01*
X024888Y008141D01*
X025030Y008082D01*
X025184Y008082D01*
X025326Y008141D01*
X025405Y008220D02*
X025789Y008220D01*
X025789Y008299D02*
X025455Y008299D01*
X025488Y008377D02*
X025789Y008377D01*
X025789Y008456D02*
X025494Y008456D01*
X025494Y008534D02*
X025787Y008534D01*
X025781Y008613D02*
X025466Y008613D01*
X025432Y008691D02*
X025759Y008691D01*
X025734Y008770D02*
X025354Y008770D01*
X025203Y008848D02*
X025708Y008848D01*
X025658Y008927D02*
X015939Y008927D01*
X015928Y009005D02*
X025600Y009005D01*
X025529Y009084D02*
X015928Y009084D01*
X015928Y009163D02*
X025421Y009163D01*
X025255Y009241D02*
X015928Y009241D01*
X015928Y009320D02*
X023228Y009320D01*
X023415Y009292D02*
X023415Y009292D01*
X022986Y009398D02*
X015928Y009398D01*
X015928Y009477D02*
X022856Y009477D01*
X022945Y009411D02*
X022946Y009411D01*
X022747Y009555D02*
X015928Y009555D01*
X015928Y009634D02*
X022639Y009634D01*
X022634Y009638D02*
X022634Y009638D01*
X022580Y009712D02*
X015928Y009712D01*
X015928Y009791D02*
X022523Y009791D01*
X022466Y009869D02*
X015928Y009869D01*
X015928Y009948D02*
X022409Y009948D01*
X022408Y009949D02*
X022408Y009949D01*
X022383Y010026D02*
X015928Y010026D01*
X015928Y010105D02*
X022357Y010105D01*
X022332Y010184D02*
X015928Y010184D01*
X015928Y010262D02*
X022306Y010262D01*
X022289Y010341D02*
X015928Y010341D01*
X015928Y010419D02*
X022289Y010419D01*
X022289Y010418D02*
X022289Y010418D01*
X022289Y010498D02*
X015928Y010498D01*
X015928Y010576D02*
X022289Y010576D01*
X022289Y010655D02*
X015928Y010655D01*
X015928Y010733D02*
X022289Y010733D01*
X022289Y010812D02*
X015928Y010812D01*
X015928Y010890D02*
X022289Y010890D01*
X022289Y010969D02*
X016478Y010969D01*
X016498Y011048D02*
X022289Y011048D01*
X022289Y011126D02*
X016721Y011126D01*
X016799Y011205D02*
X022289Y011205D01*
X022289Y011283D02*
X017888Y011283D01*
X017966Y011362D02*
X021527Y011362D01*
X021503Y011440D02*
X018045Y011440D01*
X018123Y011519D02*
X021503Y011519D01*
X021503Y011597D02*
X018202Y011597D01*
X018280Y011676D02*
X021508Y011676D01*
X021324Y011847D02*
X021930Y011847D01*
X021938Y011855D01*
X021929Y011519D02*
X021947Y011519D01*
X021947Y011440D02*
X021929Y011440D01*
X021929Y011362D02*
X021947Y011362D01*
X021324Y011847D02*
X020570Y012601D01*
X019646Y012601D01*
X019642Y012597D01*
X019004Y012597D01*
X017814Y011407D01*
X016804Y011407D01*
X016604Y011207D01*
X016260Y011207D01*
X016022Y011205D02*
X015986Y011205D01*
X015986Y011283D02*
X016022Y011283D01*
X016022Y011362D02*
X015986Y011362D01*
X015971Y011440D02*
X016036Y011440D01*
X016022Y011519D02*
X015986Y011519D01*
X015986Y011597D02*
X016022Y011597D01*
X016022Y011676D02*
X015986Y011676D01*
X015986Y011754D02*
X016022Y011754D01*
X016022Y011833D02*
X015986Y011833D01*
X015986Y011912D02*
X016022Y011912D01*
X016022Y011990D02*
X015986Y011990D01*
X015986Y012069D02*
X016022Y012069D01*
X016022Y012147D02*
X015986Y012147D01*
X015986Y012226D02*
X016022Y012226D01*
X016022Y012304D02*
X015986Y012304D01*
X015986Y012383D02*
X016022Y012383D01*
X016049Y012461D02*
X015958Y012461D01*
X015986Y012540D02*
X016022Y012540D01*
X016022Y012618D02*
X015986Y012618D01*
X015986Y012697D02*
X016022Y012697D01*
X016022Y012776D02*
X015986Y012776D01*
X015986Y012854D02*
X016022Y012854D01*
X016029Y012933D02*
X015979Y012933D01*
X015986Y013011D02*
X016022Y013011D01*
X016022Y013090D02*
X015986Y013090D01*
X015986Y013168D02*
X016022Y013168D01*
X016022Y013247D02*
X015986Y013247D01*
X015986Y013325D02*
X016022Y013325D01*
X016022Y013404D02*
X015986Y013404D01*
X015979Y013482D02*
X016028Y013482D01*
X016022Y013561D02*
X015986Y013561D01*
X015986Y013639D02*
X016022Y013639D01*
X016022Y013718D02*
X015986Y013718D01*
X015986Y013797D02*
X016022Y013797D01*
X016022Y013875D02*
X015986Y013875D01*
X015958Y013954D02*
X016050Y013954D01*
X016022Y014032D02*
X015986Y014032D01*
X015986Y014111D02*
X016022Y014111D01*
X016022Y014189D02*
X015986Y014189D01*
X015986Y014268D02*
X016022Y014268D01*
X016022Y014346D02*
X015986Y014346D01*
X015986Y014425D02*
X016022Y014425D01*
X016260Y014207D02*
X016260Y014707D01*
X017004Y014707D01*
X018178Y015881D01*
X019437Y015881D01*
X019813Y015917D02*
X020664Y015917D01*
X020664Y015839D02*
X019813Y015839D01*
X019813Y015760D02*
X020664Y015760D01*
X020664Y015682D02*
X019813Y015682D01*
X019773Y015603D02*
X020664Y015603D01*
X020664Y015525D02*
X018946Y015525D01*
X018946Y015603D02*
X019101Y015603D01*
X019061Y015682D02*
X018946Y015682D01*
X018946Y015446D02*
X019082Y015446D01*
X019075Y015442D02*
X019049Y015416D01*
X019031Y015384D01*
X019021Y015349D01*
X019021Y015173D01*
X019397Y015173D01*
X019397Y015093D01*
X019477Y015093D01*
X019477Y014797D01*
X019731Y014797D01*
X019767Y014806D01*
X019799Y014824D01*
X019825Y014851D01*
X019843Y014882D01*
X019853Y014918D01*
X019853Y015093D01*
X019477Y015093D01*
X019477Y015173D01*
X019853Y015173D01*
X019853Y015349D01*
X019843Y015384D01*
X019825Y015416D01*
X019799Y015442D01*
X019767Y015461D01*
X019731Y015470D01*
X019477Y015470D01*
X019477Y015174D01*
X019397Y015174D01*
X019397Y015470D01*
X019143Y015470D01*
X019107Y015461D01*
X019075Y015442D01*
X019026Y015367D02*
X018946Y015367D01*
X018946Y015289D02*
X019021Y015289D01*
X019021Y015210D02*
X018005Y015210D01*
X017926Y015132D02*
X019397Y015132D01*
X019397Y015093D02*
X019021Y015093D01*
X019021Y014918D01*
X019031Y014882D01*
X019049Y014851D01*
X019075Y014824D01*
X019107Y014806D01*
X019143Y014797D01*
X019397Y014797D01*
X019397Y015093D01*
X019397Y015053D02*
X019477Y015053D01*
X019477Y014975D02*
X019397Y014975D01*
X019397Y014896D02*
X019477Y014896D01*
X019477Y014818D02*
X019397Y014818D01*
X019386Y014582D02*
X019478Y014582D01*
X019177Y014582D02*
X019119Y014582D01*
X019119Y014503D02*
X019177Y014503D01*
X019177Y014425D02*
X019119Y014425D01*
X019119Y014346D02*
X019177Y014346D01*
X019177Y014268D02*
X019119Y014268D01*
X019119Y014189D02*
X019177Y014189D01*
X019177Y014111D02*
X019119Y014111D01*
X019119Y014032D02*
X019177Y014032D01*
X019118Y013954D02*
X019466Y013954D01*
X019466Y014032D02*
X019386Y014032D01*
X019466Y013875D02*
X019152Y013875D01*
X019159Y013797D02*
X019361Y013797D01*
X019309Y013718D02*
X019143Y013718D01*
X019097Y013639D02*
X019309Y013639D01*
X019309Y013561D02*
X018975Y013561D01*
X018833Y013561D02*
X018558Y013561D01*
X018450Y013561D02*
X018159Y013561D01*
X018159Y013639D02*
X018711Y013639D01*
X018665Y013718D02*
X018134Y013718D01*
X018128Y013482D02*
X018318Y013482D01*
X018504Y013307D02*
X017804Y013307D01*
X017704Y013407D01*
X017400Y013407D01*
X017362Y013369D01*
X017362Y013113D02*
X017356Y013107D01*
X016804Y013107D01*
X016954Y012857D02*
X016804Y012707D01*
X016954Y012857D02*
X017362Y012857D01*
X017368Y012607D02*
X017362Y012601D01*
X017368Y012607D02*
X018004Y012607D01*
X018259Y012618D02*
X018287Y012618D01*
X018243Y012697D02*
X018366Y012697D01*
X018444Y012776D02*
X018196Y012776D01*
X018075Y012854D02*
X018523Y012854D01*
X018601Y012933D02*
X017698Y012933D01*
X017698Y013011D02*
X018680Y013011D01*
X018645Y013090D02*
X018758Y013090D01*
X018722Y013168D02*
X018837Y013168D01*
X018915Y013247D02*
X018755Y013247D01*
X018759Y013325D02*
X018994Y013325D01*
X019072Y013404D02*
X018740Y013404D01*
X018689Y013482D02*
X019151Y013482D01*
X019234Y013367D02*
X019644Y013367D01*
X019646Y013369D01*
X021877Y013369D01*
X021938Y013430D01*
X021938Y013745D02*
X020267Y013745D01*
X020204Y013807D01*
X020327Y014032D02*
X021503Y014032D01*
X021503Y013954D02*
X020418Y013954D01*
X020368Y014111D02*
X021503Y014111D01*
X021506Y014189D02*
X020431Y014189D01*
X020459Y014268D02*
X021045Y014268D01*
X020967Y014346D02*
X020459Y014346D01*
X020431Y014425D02*
X020888Y014425D01*
X020810Y014503D02*
X020368Y014503D01*
X020039Y014503D02*
X019898Y014503D01*
X019842Y014582D02*
X020731Y014582D01*
X020664Y014661D02*
X017455Y014661D01*
X017534Y014739D02*
X020664Y014739D01*
X020664Y014818D02*
X019787Y014818D01*
X019847Y014896D02*
X020664Y014896D01*
X020664Y014975D02*
X019853Y014975D01*
X019853Y015053D02*
X020664Y015053D01*
X020664Y015132D02*
X019477Y015132D01*
X019477Y015210D02*
X019397Y015210D01*
X019397Y015289D02*
X019477Y015289D01*
X019477Y015367D02*
X019397Y015367D01*
X019397Y015446D02*
X019477Y015446D01*
X019792Y015446D02*
X020664Y015446D01*
X020664Y015367D02*
X019848Y015367D01*
X019853Y015289D02*
X020664Y015289D01*
X020664Y015210D02*
X019853Y015210D01*
X019021Y015053D02*
X017848Y015053D01*
X017769Y014975D02*
X019021Y014975D01*
X019027Y014896D02*
X017691Y014896D01*
X017612Y014818D02*
X019087Y014818D01*
X018910Y014582D02*
X017376Y014582D01*
X017298Y014503D02*
X018870Y014503D01*
X018870Y014425D02*
X017219Y014425D01*
X017141Y014346D02*
X018870Y014346D01*
X018870Y014268D02*
X017062Y014268D01*
X017059Y014189D02*
X018870Y014189D01*
X018870Y014111D02*
X017040Y014111D01*
X017031Y014032D02*
X016989Y014032D01*
X016952Y013954D02*
X016858Y013954D01*
X016874Y013875D02*
X016498Y013875D01*
X016470Y013954D02*
X016750Y013954D01*
X016619Y014032D02*
X016498Y014032D01*
X016498Y014111D02*
X016568Y014111D01*
X016549Y014189D02*
X016498Y014189D01*
X016498Y014268D02*
X016553Y014268D01*
X016586Y014346D02*
X016498Y014346D01*
X016498Y014425D02*
X016663Y014425D01*
X016498Y014503D02*
X016902Y014503D01*
X016804Y014207D02*
X018104Y015507D01*
X018571Y015507D01*
X018195Y015289D02*
X018083Y015289D01*
X017702Y015603D02*
X017478Y015603D01*
X017556Y015682D02*
X017780Y015682D01*
X017859Y015760D02*
X017635Y015760D01*
X017713Y015839D02*
X017937Y015839D01*
X018016Y015917D02*
X017792Y015917D01*
X017870Y015996D02*
X018094Y015996D01*
X017949Y016074D02*
X019061Y016074D01*
X019095Y016153D02*
X018027Y016153D01*
X018106Y016231D02*
X020582Y016231D01*
X020660Y016153D02*
X019779Y016153D01*
X019813Y016074D02*
X020664Y016074D01*
X020664Y015996D02*
X019813Y015996D01*
X019806Y016389D02*
X020425Y016389D01*
X020503Y016310D02*
X018184Y016310D01*
X018263Y016389D02*
X019068Y016389D01*
X019061Y016467D02*
X018342Y016467D01*
X018420Y016546D02*
X019061Y016546D01*
X019061Y016624D02*
X018499Y016624D01*
X018577Y016703D02*
X019061Y016703D01*
X019061Y016781D02*
X018946Y016781D01*
X018946Y016860D02*
X019061Y016860D01*
X018946Y016938D02*
X022289Y016938D01*
X022289Y016860D02*
X019813Y016860D01*
X019813Y016781D02*
X022289Y016781D01*
X022289Y016703D02*
X020507Y016703D01*
X020585Y016624D02*
X022289Y016624D01*
X022289Y016546D02*
X020664Y016546D01*
X020742Y016467D02*
X022289Y016467D01*
X022289Y016389D02*
X020821Y016389D01*
X020899Y016310D02*
X022289Y016310D01*
X022289Y016231D02*
X020944Y016231D01*
X020944Y016153D02*
X022289Y016153D01*
X022289Y016074D02*
X020944Y016074D01*
X020944Y015996D02*
X022289Y015996D01*
X022289Y015917D02*
X020944Y015917D01*
X020944Y015839D02*
X022289Y015839D01*
X022289Y015760D02*
X020944Y015760D01*
X020944Y015682D02*
X022289Y015682D01*
X022289Y015603D02*
X020944Y015603D01*
X020944Y015525D02*
X022289Y015525D01*
X022289Y015446D02*
X020944Y015446D01*
X020944Y015367D02*
X022289Y015367D01*
X022289Y015289D02*
X020944Y015289D01*
X020944Y015210D02*
X021552Y015210D01*
X021505Y015132D02*
X020944Y015132D01*
X020944Y015053D02*
X021503Y015053D01*
X021503Y014975D02*
X020944Y014975D01*
X020944Y014896D02*
X021503Y014896D01*
X021506Y014818D02*
X020944Y014818D01*
X020970Y014739D02*
X021503Y014739D01*
X021503Y014661D02*
X021049Y014661D01*
X021127Y014582D02*
X021503Y014582D01*
X021137Y014375D02*
X020804Y014707D01*
X020804Y016207D01*
X020404Y016607D01*
X019463Y016607D01*
X019437Y016633D01*
X019813Y016467D02*
X020346Y016467D01*
X019765Y017095D02*
X022289Y017095D01*
X022289Y017017D02*
X018946Y017017D01*
X018946Y017095D02*
X019109Y017095D01*
X019061Y017174D02*
X018946Y017174D01*
X019061Y017567D02*
X015888Y017567D01*
X015888Y017645D02*
X019087Y017645D01*
X019437Y017381D02*
X016978Y017381D01*
X016304Y016707D01*
X016304Y015951D01*
X016260Y015907D01*
X016260Y016407D01*
X016498Y016389D02*
X017641Y016389D01*
X017719Y016467D02*
X016498Y016467D01*
X016498Y016546D02*
X017798Y016546D01*
X017877Y016624D02*
X016498Y016624D01*
X016497Y016703D02*
X017955Y016703D01*
X018034Y016781D02*
X016576Y016781D01*
X016654Y016860D02*
X018112Y016860D01*
X018191Y016938D02*
X016733Y016938D01*
X016811Y017017D02*
X018195Y017017D01*
X018195Y017095D02*
X016890Y017095D01*
X016968Y017174D02*
X018195Y017174D01*
X017562Y016310D02*
X016498Y016310D01*
X016498Y016231D02*
X017484Y016231D01*
X017405Y016153D02*
X016471Y016153D01*
X016498Y016074D02*
X017327Y016074D01*
X017248Y015996D02*
X016498Y015996D01*
X016498Y015917D02*
X017170Y015917D01*
X017091Y015839D02*
X016498Y015839D01*
X016498Y015760D02*
X017013Y015760D01*
X016934Y015682D02*
X016490Y015682D01*
X016855Y015603D02*
X015946Y015603D01*
X016018Y015682D02*
X016029Y015682D01*
X015777Y015682D02*
X015719Y015682D01*
X015719Y015760D02*
X015777Y015760D01*
X015777Y015839D02*
X015719Y015839D01*
X015719Y015917D02*
X008789Y015917D01*
X008789Y015839D02*
X008731Y015839D01*
X008731Y015760D02*
X008789Y015760D01*
X008789Y015682D02*
X008731Y015682D01*
X008731Y015603D02*
X008789Y015603D01*
X008789Y015525D02*
X008731Y015525D01*
X008731Y015446D02*
X008789Y015446D01*
X008789Y015367D02*
X008731Y015367D01*
X008731Y015289D02*
X008789Y015289D01*
X008789Y015210D02*
X008731Y015210D01*
X008731Y015132D02*
X008789Y015132D01*
X008997Y015132D02*
X014717Y015132D01*
X014639Y015053D02*
X007248Y015053D01*
X007326Y015132D02*
X008067Y015132D01*
X008010Y015210D02*
X007405Y015210D01*
X007404Y015407D02*
X006104Y014107D01*
X005154Y014107D01*
X002754Y016507D01*
X003181Y016310D02*
X003364Y016310D01*
X003364Y016389D02*
X003213Y016389D01*
X003224Y016467D02*
X003364Y016467D01*
X003364Y016546D02*
X003224Y016546D01*
X003214Y016624D02*
X003364Y016624D01*
X003361Y016703D02*
X003182Y016703D01*
X003145Y016781D02*
X003282Y016781D01*
X003204Y016860D02*
X003066Y016860D01*
X003125Y016938D02*
X002942Y016938D01*
X003047Y017017D02*
X002063Y017017D01*
X002082Y017095D02*
X002520Y017095D01*
X002423Y017174D02*
X002102Y017174D01*
X002121Y017252D02*
X002351Y017252D01*
X002318Y017331D02*
X002140Y017331D01*
X002160Y017410D02*
X002286Y017410D01*
X002284Y017488D02*
X002188Y017488D01*
X002218Y017567D02*
X002284Y017567D01*
X002302Y017645D02*
X002248Y017645D01*
X002278Y017724D02*
X002335Y017724D01*
X002307Y017802D02*
X002384Y017802D01*
X002337Y017881D02*
X002463Y017881D01*
X002367Y017959D02*
X002617Y017959D01*
X002397Y018038D02*
X003026Y018038D01*
X003058Y017959D02*
X002891Y017959D01*
X003045Y017881D02*
X003130Y017881D01*
X003124Y017802D02*
X003228Y017802D01*
X003173Y017724D02*
X003754Y017724D01*
X003832Y017645D02*
X003206Y017645D01*
X003224Y017567D02*
X003911Y017567D01*
X003989Y017488D02*
X003224Y017488D01*
X003222Y017410D02*
X004068Y017410D01*
X004147Y017331D02*
X003190Y017331D01*
X003207Y017252D02*
X004225Y017252D01*
X004304Y017174D02*
X003285Y017174D01*
X003364Y017095D02*
X004382Y017095D01*
X004461Y017017D02*
X003443Y017017D01*
X003521Y016938D02*
X004539Y016938D01*
X004618Y016860D02*
X003600Y016860D01*
X003644Y016781D02*
X004696Y016781D01*
X004775Y016703D02*
X004479Y016703D01*
X004490Y016697D02*
X004421Y016732D01*
X004348Y016756D01*
X004272Y016768D01*
X004195Y016768D01*
X004118Y016756D01*
X004045Y016732D01*
X003976Y016697D01*
X003915Y016653D01*
X004233Y016335D01*
X004176Y016278D01*
X004233Y016221D01*
X003915Y015903D01*
X003976Y015859D01*
X004045Y015824D01*
X004118Y015800D01*
X004195Y015788D01*
X004272Y015788D01*
X004348Y015800D01*
X004421Y015824D01*
X004490Y015859D01*
X004551Y015903D01*
X004233Y016221D01*
X004290Y016278D01*
X004608Y015960D01*
X004652Y016021D01*
X004687Y016090D01*
X004711Y016163D01*
X004723Y016240D01*
X004723Y016317D01*
X004711Y016393D01*
X004687Y016466D01*
X004652Y016535D01*
X004608Y016596D01*
X004290Y016278D01*
X004233Y016335D01*
X004551Y016653D01*
X004490Y016697D01*
X004523Y016624D02*
X004853Y016624D01*
X004932Y016546D02*
X004645Y016546D01*
X004557Y016546D02*
X004444Y016546D01*
X004479Y016467D02*
X004366Y016467D01*
X004400Y016389D02*
X004287Y016389D01*
X004258Y016310D02*
X004322Y016310D01*
X004336Y016231D02*
X004243Y016231D01*
X004223Y016231D02*
X004130Y016231D01*
X004176Y016278D02*
X003859Y015960D01*
X003814Y016021D01*
X003779Y016090D01*
X003755Y016163D01*
X003743Y016240D01*
X003743Y016317D01*
X003755Y016393D01*
X003779Y016466D01*
X003814Y016535D01*
X003859Y016596D01*
X004176Y016278D01*
X004145Y016310D02*
X004208Y016310D01*
X004179Y016389D02*
X004066Y016389D01*
X004101Y016467D02*
X003988Y016467D01*
X004022Y016546D02*
X003909Y016546D01*
X003944Y016624D02*
X003644Y016624D01*
X003644Y016546D02*
X003822Y016546D01*
X003780Y016467D02*
X003644Y016467D01*
X003644Y016389D02*
X003755Y016389D01*
X003743Y016310D02*
X003644Y016310D01*
X003644Y016231D02*
X003744Y016231D01*
X003759Y016153D02*
X003644Y016153D01*
X003644Y016074D02*
X003787Y016074D01*
X003833Y015996D02*
X003714Y015996D01*
X003792Y015917D02*
X003929Y015917D01*
X003894Y015996D02*
X004007Y015996D01*
X003973Y016074D02*
X004086Y016074D01*
X004051Y016153D02*
X004164Y016153D01*
X004302Y016153D02*
X004415Y016153D01*
X004380Y016074D02*
X004493Y016074D01*
X004459Y015996D02*
X004572Y015996D01*
X004634Y015996D02*
X005482Y015996D01*
X005485Y015917D02*
X004537Y015917D01*
X004450Y015839D02*
X005485Y015839D01*
X005485Y015760D02*
X003949Y015760D01*
X004016Y015839D02*
X003871Y015839D01*
X004028Y015682D02*
X005485Y015682D01*
X005485Y015603D02*
X004106Y015603D01*
X004185Y015525D02*
X005485Y015525D01*
X005485Y015446D02*
X004263Y015446D01*
X004342Y015367D02*
X005485Y015367D01*
X005422Y015289D02*
X004420Y015289D01*
X004499Y015210D02*
X005313Y015210D01*
X005240Y015132D02*
X004577Y015132D01*
X004656Y015053D02*
X005207Y015053D01*
X005175Y014975D02*
X004735Y014975D01*
X004813Y014896D02*
X005175Y014896D01*
X005175Y014818D02*
X004892Y014818D01*
X004970Y014739D02*
X005199Y014739D01*
X005231Y014661D02*
X005049Y014661D01*
X005127Y014582D02*
X005293Y014582D01*
X005373Y014503D02*
X005206Y014503D01*
X005204Y014307D02*
X003504Y016007D01*
X003504Y016757D01*
X002754Y017507D01*
X002566Y016938D02*
X002044Y016938D01*
X002024Y016860D02*
X002442Y016860D01*
X002363Y016781D02*
X002005Y016781D01*
X001986Y016703D02*
X002326Y016703D01*
X002294Y016624D02*
X001966Y016624D01*
X001947Y016546D02*
X002284Y016546D01*
X002284Y016467D02*
X001927Y016467D01*
X001908Y016389D02*
X002294Y016389D01*
X002327Y016310D02*
X001889Y016310D01*
X001874Y016231D02*
X002365Y016231D01*
X002444Y016153D02*
X001865Y016153D01*
X001855Y016074D02*
X002571Y016074D01*
X002515Y015917D02*
X001836Y015917D01*
X001827Y015839D02*
X002421Y015839D01*
X002350Y015760D02*
X001817Y015760D01*
X001808Y015682D02*
X002317Y015682D01*
X002285Y015603D02*
X001798Y015603D01*
X001788Y015525D02*
X002284Y015525D01*
X002284Y015446D02*
X001779Y015446D01*
X001769Y015367D02*
X002303Y015367D01*
X002336Y015289D02*
X001760Y015289D01*
X001750Y015210D02*
X002386Y015210D01*
X002465Y015132D02*
X001741Y015132D01*
X001737Y015053D02*
X002622Y015053D01*
X002654Y014975D02*
X001737Y014975D01*
X001737Y014896D02*
X002478Y014896D01*
X002400Y014818D02*
X001737Y014818D01*
X001737Y014739D02*
X002341Y014739D01*
X002309Y014661D02*
X001737Y014661D01*
X001737Y014582D02*
X002284Y014582D01*
X002284Y014503D02*
X001737Y014503D01*
X001737Y014425D02*
X002284Y014425D01*
X002312Y014346D02*
X001737Y014346D01*
X001737Y014268D02*
X002344Y014268D01*
X002407Y014189D02*
X001737Y014189D01*
X001737Y014111D02*
X002486Y014111D01*
X002603Y013954D02*
X001737Y013954D01*
X001737Y014032D02*
X004481Y014032D01*
X004560Y013954D02*
X002905Y013954D01*
X003051Y013875D02*
X004638Y013875D01*
X004717Y013797D02*
X003130Y013797D01*
X003176Y013718D02*
X004795Y013718D01*
X004874Y013639D02*
X003208Y013639D01*
X003224Y013561D02*
X006260Y013561D01*
X006181Y013482D02*
X003224Y013482D01*
X002954Y013307D02*
X002754Y013507D01*
X002954Y013307D02*
X006204Y013307D01*
X007404Y014507D01*
X009304Y014507D01*
X010704Y013107D01*
X011004Y013107D01*
X011240Y013011D02*
X011981Y013011D01*
X011903Y012933D02*
X011190Y012933D01*
X011218Y012854D02*
X011824Y012854D01*
X011746Y012776D02*
X011252Y012776D01*
X011259Y012697D02*
X011667Y012697D01*
X011589Y012618D02*
X011243Y012618D01*
X011197Y012540D02*
X011510Y012540D01*
X011432Y012461D02*
X011076Y012461D01*
X010932Y012461D02*
X006465Y012461D01*
X006386Y012383D02*
X011353Y012383D01*
X011275Y012304D02*
X006308Y012304D01*
X006229Y012226D02*
X011196Y012226D01*
X011117Y012147D02*
X006150Y012147D01*
X006072Y012069D02*
X011094Y012069D01*
X011094Y011990D02*
X005993Y011990D01*
X005915Y011912D02*
X011094Y011912D01*
X011094Y011833D02*
X005836Y011833D01*
X005758Y011754D02*
X006037Y011754D01*
X006053Y011770D02*
X005958Y011675D01*
X005906Y011551D01*
X005906Y011416D01*
X005958Y011292D01*
X006053Y011197D01*
X006177Y011146D01*
X006311Y011146D01*
X006435Y011197D01*
X006530Y011292D01*
X006581Y011416D01*
X006581Y011551D01*
X006530Y011675D01*
X006435Y011770D01*
X006311Y011821D01*
X006177Y011821D01*
X006053Y011770D01*
X005959Y011676D02*
X005679Y011676D01*
X005601Y011597D02*
X005926Y011597D01*
X005906Y011519D02*
X005522Y011519D01*
X005444Y011440D02*
X005906Y011440D01*
X005929Y011362D02*
X005365Y011362D01*
X005286Y011283D02*
X005967Y011283D01*
X006045Y011205D02*
X005208Y011205D01*
X005129Y011126D02*
X011094Y011126D01*
X011094Y011048D02*
X005051Y011048D01*
X004972Y010969D02*
X011094Y010969D01*
X011094Y010890D02*
X004894Y010890D01*
X004815Y010812D02*
X011094Y010812D01*
X011094Y010733D02*
X004737Y010733D01*
X004606Y010800D02*
X007213Y013407D01*
X007804Y013407D01*
X008248Y013407D01*
X008248Y012907D02*
X007804Y012907D01*
X007571Y013011D02*
X007014Y013011D01*
X006936Y012933D02*
X007549Y012933D01*
X007550Y012854D02*
X006857Y012854D01*
X006779Y012776D02*
X007583Y012776D01*
X007654Y012697D02*
X006700Y012697D01*
X006622Y012618D02*
X008536Y012618D01*
X008486Y012697D02*
X008486Y012697D01*
X008731Y012697D02*
X008789Y012697D01*
X008789Y012776D02*
X008731Y012776D01*
X008731Y012854D02*
X008789Y012854D01*
X008789Y012878D02*
X008789Y012936D01*
X009038Y012936D01*
X009038Y013103D01*
X009028Y013139D01*
X009017Y013157D01*
X009028Y013176D01*
X009038Y013212D01*
X009038Y013378D01*
X008789Y013378D01*
X008789Y013225D01*
X008789Y012937D01*
X008731Y012937D01*
X008731Y013225D01*
X008731Y013378D01*
X008789Y013378D01*
X008789Y013436D01*
X009038Y013436D01*
X009038Y013603D01*
X009028Y013639D01*
X009017Y013657D01*
X009028Y013676D01*
X009038Y013712D01*
X009038Y013878D01*
X008789Y013878D01*
X008789Y013725D01*
X008789Y013437D01*
X008731Y013437D01*
X008731Y013725D01*
X008731Y013878D01*
X008789Y013878D01*
X008789Y013936D01*
X009038Y013936D01*
X009038Y014103D01*
X009028Y014139D01*
X009011Y014167D01*
X009146Y014167D01*
X010746Y012567D01*
X010811Y012540D02*
X006543Y012540D01*
X006153Y012854D02*
X005443Y012854D01*
X005416Y012880D02*
X005270Y012941D01*
X005113Y012941D01*
X004967Y012880D01*
X004855Y012769D01*
X004795Y012623D01*
X004795Y012465D01*
X004855Y012319D01*
X004967Y012208D01*
X005113Y012147D01*
X005270Y012147D01*
X005416Y012208D01*
X005528Y012319D01*
X005588Y012465D01*
X005588Y012623D01*
X005528Y012769D01*
X005416Y012880D01*
X005290Y012933D02*
X006231Y012933D01*
X006304Y013107D02*
X003354Y013107D01*
X002754Y012507D01*
X002923Y012069D02*
X005367Y012069D01*
X005446Y012147D02*
X003058Y012147D01*
X003137Y012226D02*
X004949Y012226D01*
X004870Y012304D02*
X003179Y012304D01*
X003211Y012383D02*
X004829Y012383D01*
X004796Y012461D02*
X003224Y012461D01*
X003224Y012540D02*
X004795Y012540D01*
X004795Y012618D02*
X003217Y012618D01*
X003184Y012697D02*
X004826Y012697D01*
X004862Y012776D02*
X003220Y012776D01*
X003299Y012854D02*
X004941Y012854D01*
X005093Y012933D02*
X003377Y012933D01*
X003138Y013090D02*
X002974Y013090D01*
X003060Y013011D02*
X001847Y013011D01*
X001856Y012933D02*
X002552Y012933D01*
X002436Y012854D02*
X001866Y012854D01*
X001875Y012776D02*
X002357Y012776D01*
X002324Y012697D02*
X001891Y012697D01*
X001910Y012618D02*
X002291Y012618D01*
X002284Y012540D02*
X001929Y012540D01*
X001949Y012461D02*
X002284Y012461D01*
X002297Y012383D02*
X001968Y012383D01*
X001987Y012304D02*
X002329Y012304D01*
X002371Y012226D02*
X002007Y012226D01*
X002026Y012147D02*
X002450Y012147D01*
X002585Y012069D02*
X002046Y012069D01*
X002065Y011990D02*
X005289Y011990D01*
X005210Y011912D02*
X003006Y011912D01*
X003093Y011833D02*
X005132Y011833D01*
X005053Y011754D02*
X003160Y011754D01*
X003193Y011676D02*
X004974Y011676D01*
X005004Y011507D02*
X007404Y013907D01*
X007804Y013907D01*
X008248Y013907D01*
X007504Y014307D02*
X006304Y013107D01*
X006074Y012776D02*
X005521Y012776D01*
X005558Y012697D02*
X005996Y012697D01*
X005917Y012618D02*
X005588Y012618D01*
X005588Y012540D02*
X005838Y012540D01*
X005760Y012461D02*
X005587Y012461D01*
X005554Y012383D02*
X005681Y012383D01*
X005603Y012304D02*
X005513Y012304D01*
X005524Y012226D02*
X005434Y012226D01*
X005004Y011507D02*
X002754Y011507D01*
X002284Y011519D02*
X002191Y011519D01*
X002162Y011597D02*
X002284Y011597D01*
X002315Y011676D02*
X002142Y011676D01*
X002123Y011754D02*
X002348Y011754D01*
X002415Y011833D02*
X002104Y011833D01*
X002084Y011912D02*
X002502Y011912D01*
X002284Y011440D02*
X002221Y011440D01*
X002251Y011362D02*
X002306Y011362D01*
X002281Y011283D02*
X002338Y011283D01*
X002311Y011205D02*
X002392Y011205D01*
X002340Y011126D02*
X002471Y011126D01*
X002370Y011048D02*
X002636Y011048D01*
X002872Y011048D02*
X003055Y011048D01*
X003037Y011126D02*
X003122Y011126D01*
X003116Y011205D02*
X003209Y011205D01*
X003170Y011283D02*
X004891Y011283D01*
X004969Y011362D02*
X003202Y011362D01*
X003713Y011205D02*
X004812Y011205D01*
X004733Y011126D02*
X003800Y011126D01*
X003867Y011048D02*
X004655Y011048D01*
X004576Y010969D02*
X003900Y010969D01*
X003910Y010655D02*
X011094Y010655D01*
X011094Y010576D02*
X003877Y010576D01*
X003917Y010498D02*
X003823Y010498D01*
X003830Y010419D02*
X003745Y010419D01*
X003770Y010359D02*
X003698Y010187D01*
X003698Y010000D01*
X003770Y009827D01*
X003902Y009695D01*
X004075Y009623D01*
X004262Y009623D01*
X004435Y009695D01*
X004567Y009827D01*
X004638Y010000D01*
X004638Y010187D01*
X004567Y010359D01*
X004435Y010492D01*
X004262Y010563D01*
X004075Y010563D01*
X003902Y010492D01*
X003770Y010359D01*
X003762Y010341D02*
X003580Y010341D01*
X003730Y010262D02*
X002701Y010262D01*
X002660Y010341D02*
X003342Y010341D01*
X003177Y010419D02*
X002619Y010419D01*
X002579Y010498D02*
X003099Y010498D01*
X003045Y010576D02*
X002549Y010576D01*
X002519Y010655D02*
X003013Y010655D01*
X002991Y010733D02*
X002489Y010733D01*
X002459Y010812D02*
X002991Y010812D01*
X002991Y010890D02*
X002430Y010890D01*
X002400Y010969D02*
X003022Y010969D01*
X003461Y010800D02*
X004606Y010800D01*
X004420Y010498D02*
X011094Y010498D01*
X011094Y010419D02*
X004507Y010419D01*
X004574Y010341D02*
X011094Y010341D01*
X011094Y010262D02*
X004607Y010262D01*
X004638Y010184D02*
X011094Y010184D01*
X011094Y010105D02*
X004638Y010105D01*
X004638Y010026D02*
X011094Y010026D01*
X011094Y009948D02*
X004617Y009948D01*
X004584Y009869D02*
X011094Y009869D01*
X011094Y009791D02*
X005126Y009791D01*
X005142Y009784D02*
X004969Y009856D01*
X004782Y009856D01*
X004609Y009784D01*
X004477Y009652D01*
X004405Y009480D01*
X004405Y009293D01*
X004477Y009120D01*
X004609Y008988D01*
X004782Y008916D01*
X004969Y008916D01*
X005142Y008988D01*
X005274Y009120D01*
X005345Y009293D01*
X005345Y009480D01*
X005274Y009652D01*
X005142Y009784D01*
X005214Y009712D02*
X011094Y009712D01*
X011094Y009634D02*
X005281Y009634D01*
X005314Y009555D02*
X011094Y009555D01*
X011094Y009477D02*
X005345Y009477D01*
X005345Y009398D02*
X011094Y009398D01*
X011094Y009320D02*
X005345Y009320D01*
X005324Y009241D02*
X011094Y009241D01*
X011094Y009163D02*
X005291Y009163D01*
X005332Y009084D02*
X005238Y009084D01*
X005316Y009077D02*
X005184Y008945D01*
X005113Y008772D01*
X005113Y008585D01*
X005184Y008413D01*
X005316Y008280D01*
X005489Y008209D01*
X005676Y008209D01*
X005849Y008280D01*
X005981Y008413D01*
X006052Y008585D01*
X006052Y008772D01*
X005981Y008945D01*
X005849Y009077D01*
X005676Y009149D01*
X005489Y009149D01*
X005316Y009077D01*
X005244Y009005D02*
X005159Y009005D01*
X005177Y008927D02*
X004995Y008927D01*
X005144Y008848D02*
X003542Y008848D01*
X003596Y008770D02*
X005113Y008770D01*
X005113Y008691D02*
X003651Y008691D01*
X003705Y008613D02*
X005113Y008613D01*
X005134Y008534D02*
X003759Y008534D01*
X003817Y008456D02*
X005166Y008456D01*
X005220Y008377D02*
X003886Y008377D01*
X003956Y008299D02*
X005298Y008299D01*
X005462Y008220D02*
X004025Y008220D01*
X004095Y008141D02*
X005851Y008141D01*
X005820Y008065D02*
X005820Y007878D01*
X005891Y007706D01*
X006023Y007573D01*
X006196Y007502D01*
X006383Y007502D01*
X006556Y007573D01*
X006688Y007706D01*
X006760Y007878D01*
X006760Y008065D01*
X006688Y008238D01*
X006556Y008370D01*
X006383Y008442D01*
X006196Y008442D01*
X006023Y008370D01*
X005891Y008238D01*
X005820Y008065D01*
X005820Y008063D02*
X004164Y008063D01*
X004234Y007984D02*
X005820Y007984D01*
X005820Y007906D02*
X004304Y007906D01*
X004373Y007827D02*
X005841Y007827D01*
X005873Y007749D02*
X004443Y007749D01*
X004512Y007670D02*
X005926Y007670D01*
X006005Y007592D02*
X004582Y007592D01*
X004670Y007513D02*
X006169Y007513D01*
X006410Y007513D02*
X006551Y007513D01*
X006574Y007592D02*
X006604Y007592D01*
X006653Y007670D02*
X006687Y007670D01*
X006706Y007749D02*
X006836Y007749D01*
X006738Y007827D02*
X011029Y007827D01*
X011029Y007906D02*
X006760Y007906D01*
X006760Y007984D02*
X011029Y007984D01*
X011029Y008063D02*
X006760Y008063D01*
X006728Y008141D02*
X008848Y008141D01*
X008849Y008141D02*
X008991Y008082D01*
X009145Y008082D01*
X009287Y008141D01*
X009396Y008250D01*
X009455Y008392D01*
X009455Y008546D01*
X009396Y008688D01*
X009287Y008797D01*
X009145Y008856D01*
X008991Y008856D01*
X008849Y008797D01*
X008740Y008688D01*
X008681Y008546D01*
X008681Y008392D01*
X008740Y008250D01*
X008849Y008141D01*
X008770Y008220D02*
X006696Y008220D01*
X006628Y008299D02*
X008720Y008299D01*
X008687Y008377D02*
X006539Y008377D01*
X006040Y008377D02*
X005945Y008377D01*
X005952Y008299D02*
X005867Y008299D01*
X005884Y008220D02*
X005703Y008220D01*
X005999Y008456D02*
X008681Y008456D01*
X008681Y008534D02*
X006031Y008534D01*
X006052Y008613D02*
X008708Y008613D01*
X008743Y008691D02*
X006052Y008691D01*
X006052Y008770D02*
X008821Y008770D01*
X008972Y008848D02*
X006021Y008848D01*
X005989Y008927D02*
X011094Y008927D01*
X011094Y009005D02*
X005921Y009005D01*
X005833Y009084D02*
X011094Y009084D01*
X011094Y008848D02*
X009163Y008848D01*
X009314Y008770D02*
X011094Y008770D01*
X011094Y008691D02*
X009393Y008691D01*
X009427Y008613D02*
X011094Y008613D01*
X011094Y008534D02*
X009455Y008534D01*
X009455Y008456D02*
X011086Y008456D01*
X011029Y008377D02*
X009448Y008377D01*
X009416Y008299D02*
X011029Y008299D01*
X011029Y008220D02*
X009366Y008220D01*
X009287Y008141D02*
X011029Y008141D01*
X011474Y007749D02*
X012396Y007749D01*
X012374Y007827D02*
X012179Y007827D01*
X012179Y008377D02*
X012374Y008377D01*
X012386Y008456D02*
X012122Y008456D01*
X011824Y008534D02*
X015823Y008534D01*
X015901Y008456D02*
X013822Y008456D01*
X013834Y008377D02*
X015949Y008377D01*
X015973Y008299D02*
X014386Y008299D01*
X014628Y008220D02*
X014980Y008220D01*
X014980Y008231D02*
X014980Y007932D01*
X015038Y007873D01*
X015593Y007873D01*
X015652Y007932D01*
X015652Y008231D01*
X015593Y008290D01*
X015038Y008290D01*
X014980Y008231D01*
X014980Y008141D02*
X014628Y008141D01*
X014628Y008063D02*
X014980Y008063D01*
X014980Y007984D02*
X014628Y007984D01*
X014636Y007906D02*
X015005Y007906D01*
X014668Y007827D02*
X015874Y007827D01*
X015874Y007749D02*
X014668Y007749D01*
X014668Y007670D02*
X015874Y007670D01*
X015874Y007592D02*
X014668Y007592D01*
X014278Y007693D02*
X013916Y007693D01*
X013916Y007581D01*
X013923Y007553D01*
X013698Y007553D01*
X013698Y007712D01*
X013775Y007712D01*
X013834Y007771D01*
X013834Y007861D01*
X013923Y007861D01*
X013916Y007834D01*
X013916Y007722D01*
X014278Y007722D01*
X014278Y007693D01*
X013916Y007670D02*
X013698Y007670D01*
X013698Y007592D02*
X013916Y007592D01*
X013916Y007749D02*
X013812Y007749D01*
X013834Y007827D02*
X013916Y007827D01*
X013258Y007670D02*
X011474Y007670D01*
X011474Y007592D02*
X013258Y007592D01*
X013258Y007513D02*
X011474Y007513D01*
X011474Y007435D02*
X013258Y007435D01*
X013258Y007356D02*
X011474Y007356D01*
X011474Y007277D02*
X013258Y007277D01*
X013258Y007199D02*
X011474Y007199D01*
X011474Y007120D02*
X013258Y007120D01*
X013258Y007042D02*
X011474Y007042D01*
X011474Y006963D02*
X013258Y006963D01*
X013258Y006885D02*
X011474Y006885D01*
X011474Y006806D02*
X013258Y006806D01*
X013258Y006728D02*
X011474Y006728D01*
X011474Y006649D02*
X013258Y006649D01*
X013258Y006571D02*
X011474Y006571D01*
X011474Y006492D02*
X013258Y006492D01*
X013258Y006414D02*
X011474Y006414D01*
X011474Y006335D02*
X012251Y006335D01*
X012215Y006323D02*
X012143Y006287D01*
X012079Y006240D01*
X012022Y006183D01*
X011975Y006118D01*
X011938Y006046D01*
X011913Y005970D01*
X011901Y005891D01*
X011901Y005891D01*
X012371Y005891D01*
X012371Y006361D01*
X012371Y006361D01*
X012291Y006348D01*
X012215Y006323D01*
X012102Y006256D02*
X011659Y006256D01*
X011748Y006178D02*
X012018Y006178D01*
X011965Y006099D02*
X011816Y006099D01*
X011849Y006021D02*
X011930Y006021D01*
X011909Y005942D02*
X011881Y005942D01*
X011881Y005864D02*
X012371Y005864D01*
X012371Y005891D02*
X012371Y005811D01*
X011901Y005811D01*
X011901Y005810D01*
X011913Y005731D01*
X011938Y005655D01*
X011975Y005583D01*
X012022Y005518D01*
X012079Y005462D01*
X012143Y005414D01*
X012215Y005378D01*
X012291Y005353D01*
X012371Y005341D01*
X012371Y005810D01*
X012451Y005810D01*
X012451Y005341D01*
X012530Y005353D01*
X012607Y005378D01*
X012678Y005414D01*
X012743Y005462D01*
X012800Y005518D01*
X012847Y005583D01*
X012883Y005655D01*
X012908Y005731D01*
X012921Y005810D01*
X012921Y005811D01*
X012451Y005811D01*
X012451Y005891D01*
X012371Y005891D01*
X012371Y005942D02*
X012451Y005942D01*
X012451Y005891D02*
X012451Y006361D01*
X012451Y006361D01*
X012530Y006348D01*
X012607Y006323D01*
X012678Y006287D01*
X012743Y006240D01*
X012800Y006183D01*
X012847Y006118D01*
X012883Y006046D01*
X012908Y005970D01*
X012921Y005891D01*
X012921Y005891D01*
X012451Y005891D01*
X012451Y005864D02*
X012941Y005864D01*
X012941Y005942D02*
X012913Y005942D01*
X012892Y006021D02*
X012973Y006021D01*
X013005Y006099D02*
X012856Y006099D01*
X012803Y006178D02*
X013073Y006178D01*
X013162Y006256D02*
X012720Y006256D01*
X012570Y006335D02*
X013258Y006335D01*
X012941Y005785D02*
X012917Y005785D01*
X012900Y005707D02*
X012962Y005707D01*
X012994Y005628D02*
X012870Y005628D01*
X012822Y005550D02*
X013047Y005550D01*
X013126Y005471D02*
X012752Y005471D01*
X012635Y005392D02*
X013289Y005392D01*
X012451Y005392D02*
X012371Y005392D01*
X012371Y005341D02*
X012371Y005341D01*
X012451Y005341D02*
X012451Y005341D01*
X012451Y005471D02*
X012371Y005471D01*
X012371Y005550D02*
X012451Y005550D01*
X012451Y005628D02*
X012371Y005628D01*
X012371Y005707D02*
X012451Y005707D01*
X012451Y005785D02*
X012371Y005785D01*
X012371Y006021D02*
X012451Y006021D01*
X012451Y006099D02*
X012371Y006099D01*
X012371Y006178D02*
X012451Y006178D01*
X012451Y006256D02*
X012371Y006256D01*
X012371Y006335D02*
X012451Y006335D01*
X011905Y005785D02*
X011881Y005785D01*
X011860Y005707D02*
X011921Y005707D01*
X011952Y005628D02*
X011827Y005628D01*
X011774Y005550D02*
X011999Y005550D01*
X012069Y005471D02*
X011696Y005471D01*
X011533Y005392D02*
X012187Y005392D01*
X011289Y005392D02*
X010635Y005392D01*
X010607Y005378D02*
X010678Y005414D01*
X010743Y005462D01*
X010800Y005518D01*
X010847Y005583D01*
X010883Y005655D01*
X010908Y005731D01*
X010921Y005810D01*
X010921Y005811D01*
X010451Y005811D01*
X010451Y005891D01*
X010371Y005891D01*
X010371Y006361D01*
X010371Y006361D01*
X010291Y006348D01*
X010215Y006323D01*
X010144Y006287D01*
X010079Y006240D01*
X010022Y006183D01*
X009975Y006118D01*
X009938Y006046D01*
X009913Y005970D01*
X009901Y005891D01*
X009901Y005891D01*
X010371Y005891D01*
X010371Y005811D01*
X009901Y005811D01*
X009901Y005810D01*
X009913Y005731D01*
X009938Y005655D01*
X009975Y005583D01*
X010022Y005518D01*
X010079Y005462D01*
X010144Y005414D01*
X010215Y005378D01*
X010291Y005353D01*
X010371Y005341D01*
X010371Y005810D01*
X010451Y005810D01*
X010451Y005341D01*
X010530Y005353D01*
X010607Y005378D01*
X010451Y005392D02*
X010371Y005392D01*
X010371Y005341D02*
X010371Y005341D01*
X010451Y005341D02*
X010451Y005341D01*
X010451Y005471D02*
X010371Y005471D01*
X010371Y005550D02*
X010451Y005550D01*
X010451Y005628D02*
X010371Y005628D01*
X010371Y005707D02*
X010451Y005707D01*
X010451Y005785D02*
X010371Y005785D01*
X010371Y005864D02*
X009881Y005864D01*
X009881Y005942D02*
X009909Y005942D01*
X009930Y006021D02*
X009849Y006021D01*
X009816Y006099D02*
X009965Y006099D01*
X010018Y006178D02*
X009748Y006178D01*
X009659Y006256D02*
X010102Y006256D01*
X010251Y006335D02*
X008570Y006335D01*
X008251Y006335D02*
X008163Y006335D01*
X008193Y006414D02*
X011034Y006414D01*
X011034Y006492D02*
X008210Y006492D01*
X008214Y006518D02*
X008214Y006518D01*
X008214Y006598D02*
X008214Y006598D01*
X007965Y006099D02*
X007927Y006099D01*
X007787Y005471D02*
X008088Y005471D01*
X008079Y005462D02*
X008079Y005462D01*
X007994Y005392D02*
X008187Y005392D01*
X008946Y005078D02*
X023975Y005078D01*
X023786Y005000D02*
X009265Y005000D01*
X009584Y004921D02*
X023596Y004921D01*
X023351Y004843D02*
X010069Y004843D01*
X010716Y004764D02*
X022956Y004764D01*
X025739Y007513D02*
X017018Y007513D01*
X017018Y007435D02*
X016938Y007435D01*
X016938Y007356D02*
X017018Y007356D01*
X017018Y007277D02*
X016938Y007277D01*
X016938Y007199D02*
X017018Y007199D01*
X017018Y007120D02*
X016938Y007120D01*
X016616Y007120D02*
X016536Y007120D01*
X016938Y007592D02*
X017018Y007592D01*
X017018Y007670D02*
X016938Y007670D01*
X016938Y007749D02*
X017018Y007749D01*
X017018Y007827D02*
X016938Y007827D01*
X016938Y007906D02*
X017018Y007906D01*
X016424Y008141D02*
X024888Y008141D01*
X024809Y008220D02*
X016424Y008220D01*
X016435Y008299D02*
X024759Y008299D01*
X024726Y008377D02*
X016459Y008377D01*
X016459Y008456D02*
X024720Y008456D01*
X024720Y008534D02*
X016427Y008534D01*
X016359Y008613D02*
X024748Y008613D01*
X024782Y008691D02*
X016175Y008691D01*
X016096Y008770D02*
X024861Y008770D01*
X025012Y008848D02*
X016017Y008848D01*
X015744Y008613D02*
X011824Y008613D01*
X011824Y008691D02*
X015666Y008691D01*
X015587Y008770D02*
X011824Y008770D01*
X011824Y008848D02*
X015568Y008848D01*
X015568Y008927D02*
X011824Y008927D01*
X011824Y009005D02*
X015568Y009005D01*
X015568Y009084D02*
X011824Y009084D01*
X011824Y009163D02*
X015568Y009163D01*
X015568Y009241D02*
X011824Y009241D01*
X011824Y009320D02*
X015568Y009320D01*
X015568Y009398D02*
X011824Y009398D01*
X011824Y009477D02*
X015568Y009477D01*
X015568Y009555D02*
X011824Y009555D01*
X011824Y009634D02*
X015568Y009634D01*
X015568Y009712D02*
X011824Y009712D01*
X011824Y009791D02*
X015568Y009791D01*
X015568Y009869D02*
X011824Y009869D01*
X011824Y009948D02*
X015568Y009948D01*
X015568Y010026D02*
X011824Y010026D01*
X011824Y010105D02*
X015568Y010105D01*
X015568Y010184D02*
X011824Y010184D01*
X011824Y010262D02*
X015568Y010262D01*
X015568Y010341D02*
X011824Y010341D01*
X011824Y010419D02*
X015568Y010419D01*
X015568Y010498D02*
X011824Y010498D01*
X011824Y010576D02*
X015568Y010576D01*
X015568Y010655D02*
X011824Y010655D01*
X011824Y010733D02*
X015568Y010733D01*
X015568Y010812D02*
X011824Y010812D01*
X011824Y010890D02*
X015568Y010890D01*
X015530Y010969D02*
X011824Y010969D01*
X011824Y011048D02*
X015510Y011048D01*
X015510Y011126D02*
X011824Y011126D01*
X011824Y011205D02*
X015510Y011205D01*
X015510Y011283D02*
X011824Y011283D01*
X011824Y011362D02*
X015510Y011362D01*
X015525Y011440D02*
X011824Y011440D01*
X011824Y011519D02*
X015510Y011519D01*
X015510Y011597D02*
X011824Y011597D01*
X011884Y011676D02*
X015510Y011676D01*
X015510Y011754D02*
X011962Y011754D01*
X012041Y011833D02*
X015510Y011833D01*
X015510Y011912D02*
X012119Y011912D01*
X012198Y011990D02*
X015510Y011990D01*
X015510Y012069D02*
X012276Y012069D01*
X012355Y012147D02*
X015510Y012147D01*
X015510Y012226D02*
X012433Y012226D01*
X012512Y012304D02*
X015510Y012304D01*
X015510Y012383D02*
X012590Y012383D01*
X012669Y012461D02*
X015538Y012461D01*
X015510Y012540D02*
X012747Y012540D01*
X012826Y012618D02*
X015510Y012618D01*
X015510Y012697D02*
X012905Y012697D01*
X012983Y012776D02*
X015510Y012776D01*
X015510Y012854D02*
X013062Y012854D01*
X013140Y012933D02*
X015517Y012933D01*
X015510Y013011D02*
X013219Y013011D01*
X013297Y013090D02*
X015510Y013090D01*
X015510Y013168D02*
X013376Y013168D01*
X013454Y013247D02*
X015510Y013247D01*
X015510Y013325D02*
X013533Y013325D01*
X013611Y013404D02*
X015510Y013404D01*
X015517Y013482D02*
X013690Y013482D01*
X013769Y013561D02*
X015510Y013561D01*
X015510Y013639D02*
X013847Y013639D01*
X013926Y013718D02*
X015495Y013718D01*
X015417Y013797D02*
X014004Y013797D01*
X014083Y013875D02*
X015338Y013875D01*
X015260Y013954D02*
X015258Y013954D01*
X015150Y013954D02*
X014161Y013954D01*
X014240Y014032D02*
X015019Y014032D01*
X014968Y014111D02*
X014318Y014111D01*
X014397Y014189D02*
X014949Y014189D01*
X014953Y014268D02*
X014475Y014268D01*
X014554Y014346D02*
X014986Y014346D01*
X015063Y014425D02*
X014633Y014425D01*
X014711Y014503D02*
X015047Y014503D01*
X014980Y014582D02*
X014790Y014582D01*
X014868Y014661D02*
X014949Y014661D01*
X014947Y014739D02*
X014949Y014739D01*
X015204Y014707D02*
X015704Y014207D01*
X015748Y014207D01*
X015704Y013707D02*
X015204Y014207D01*
X015459Y014661D02*
X015470Y014661D01*
X015459Y014739D02*
X015470Y014739D01*
X015470Y014818D02*
X015434Y014818D01*
X015470Y014896D02*
X015376Y014896D01*
X015502Y014975D02*
X015182Y014975D01*
X015261Y015053D02*
X017152Y015053D01*
X017073Y014975D02*
X016449Y014975D01*
X016498Y014896D02*
X016995Y014896D01*
X017006Y015132D02*
X017230Y015132D01*
X017309Y015210D02*
X017085Y015210D01*
X017163Y015289D02*
X017387Y015289D01*
X017466Y015367D02*
X017242Y015367D01*
X017321Y015446D02*
X017545Y015446D01*
X017623Y015525D02*
X017399Y015525D01*
X016071Y014975D02*
X015994Y014975D01*
X015777Y014975D02*
X015719Y014975D01*
X015719Y014896D02*
X015777Y014896D01*
X015777Y014818D02*
X015719Y014818D01*
X015719Y014739D02*
X015777Y014739D01*
X015031Y015446D02*
X009038Y015446D01*
X009038Y015367D02*
X014953Y015367D01*
X014874Y015289D02*
X009038Y015289D01*
X009037Y015210D02*
X014796Y015210D01*
X014560Y014975D02*
X012235Y014975D01*
X012313Y014896D02*
X014482Y014896D01*
X014403Y014818D02*
X012392Y014818D01*
X012470Y014739D02*
X014325Y014739D01*
X014246Y014661D02*
X012549Y014661D01*
X012627Y014582D02*
X014167Y014582D01*
X014089Y014503D02*
X012706Y014503D01*
X012784Y014425D02*
X014010Y014425D01*
X013932Y014346D02*
X012863Y014346D01*
X012941Y014268D02*
X013853Y014268D01*
X013775Y014189D02*
X013020Y014189D01*
X013261Y014111D02*
X013696Y014111D01*
X013618Y014032D02*
X013328Y014032D01*
X013359Y013954D02*
X013539Y013954D01*
X013461Y013875D02*
X013359Y013875D01*
X013334Y013797D02*
X013382Y013797D01*
X013304Y013718D02*
X013275Y013718D01*
X013225Y013639D02*
X012710Y013639D01*
X012675Y013718D02*
X012933Y013718D01*
X012874Y013797D02*
X012734Y013797D01*
X012759Y013875D02*
X012849Y013875D01*
X012849Y013954D02*
X012759Y013954D01*
X012781Y014032D02*
X012728Y014032D01*
X012703Y014111D02*
X012661Y014111D01*
X012624Y014189D02*
X012420Y014189D01*
X012341Y014268D02*
X012545Y014268D01*
X012467Y014346D02*
X012263Y014346D01*
X012184Y014425D02*
X012388Y014425D01*
X012310Y014503D02*
X012106Y014503D01*
X012027Y014582D02*
X012231Y014582D01*
X012153Y014661D02*
X011949Y014661D01*
X011870Y014739D02*
X012074Y014739D01*
X012104Y014907D02*
X013104Y013907D01*
X013146Y013561D02*
X012811Y013561D01*
X012849Y013482D02*
X013068Y013482D01*
X012989Y013404D02*
X012859Y013404D01*
X012846Y013325D02*
X012911Y013325D01*
X012832Y013247D02*
X012804Y013247D01*
X012754Y013168D02*
X012693Y013168D01*
X012675Y013090D02*
X012512Y013090D01*
X012434Y013011D02*
X012597Y013011D01*
X012518Y012933D02*
X012355Y012933D01*
X012277Y012854D02*
X012440Y012854D01*
X012361Y012776D02*
X012198Y012776D01*
X012120Y012697D02*
X012282Y012697D01*
X012204Y012618D02*
X012041Y012618D01*
X011963Y012540D02*
X012125Y012540D01*
X012047Y012461D02*
X011884Y012461D01*
X011806Y012383D02*
X011968Y012383D01*
X011890Y012304D02*
X011727Y012304D01*
X011649Y012226D02*
X011811Y012226D01*
X011733Y012147D02*
X011570Y012147D01*
X011491Y012069D02*
X011654Y012069D01*
X011576Y011990D02*
X011414Y011990D01*
X011414Y011912D02*
X011497Y011912D01*
X011418Y011833D02*
X011414Y011833D01*
X011094Y011754D02*
X006450Y011754D01*
X006529Y011676D02*
X011094Y011676D01*
X011094Y011597D02*
X006562Y011597D01*
X006581Y011519D02*
X011094Y011519D01*
X011094Y011440D02*
X006581Y011440D01*
X006559Y011362D02*
X011094Y011362D01*
X011094Y011283D02*
X006521Y011283D01*
X006443Y011205D02*
X011094Y011205D01*
X011004Y012707D02*
X010804Y012707D01*
X009204Y014307D01*
X007504Y014307D01*
X007304Y014707D02*
X011704Y014707D01*
X012504Y013907D01*
X012333Y013718D02*
X010291Y013718D01*
X010213Y013797D02*
X012274Y013797D01*
X012249Y013875D02*
X010134Y013875D01*
X010056Y013954D02*
X012249Y013954D01*
X012181Y014032D02*
X009977Y014032D01*
X009899Y014111D02*
X012103Y014111D01*
X012024Y014189D02*
X009820Y014189D01*
X009741Y014268D02*
X011945Y014268D01*
X011867Y014346D02*
X009663Y014346D01*
X009584Y014425D02*
X011788Y014425D01*
X011710Y014503D02*
X009506Y014503D01*
X009203Y014111D02*
X009036Y014111D01*
X009038Y014032D02*
X009281Y014032D01*
X009360Y013954D02*
X009038Y013954D01*
X009038Y013875D02*
X009438Y013875D01*
X009517Y013797D02*
X009038Y013797D01*
X009038Y013718D02*
X009595Y013718D01*
X009674Y013639D02*
X009028Y013639D01*
X009038Y013561D02*
X009752Y013561D01*
X009831Y013482D02*
X009038Y013482D01*
X009038Y013325D02*
X009988Y013325D01*
X010067Y013247D02*
X009038Y013247D01*
X009023Y013168D02*
X010145Y013168D01*
X010224Y013090D02*
X009038Y013090D01*
X009038Y013011D02*
X010302Y013011D01*
X010381Y012933D02*
X008789Y012933D01*
X008789Y012878D02*
X009038Y012878D01*
X009038Y012712D01*
X009028Y012676D01*
X009010Y012644D01*
X008984Y012618D01*
X009034Y012697D02*
X010616Y012697D01*
X010538Y012776D02*
X009038Y012776D01*
X009038Y012854D02*
X010459Y012854D01*
X010684Y013325D02*
X010864Y013325D01*
X010605Y013404D02*
X012349Y013404D01*
X012359Y013482D02*
X010527Y013482D01*
X010448Y013561D02*
X012397Y013561D01*
X012498Y013639D02*
X010370Y013639D01*
X009909Y013404D02*
X008789Y013404D01*
X008789Y013482D02*
X008731Y013482D01*
X008731Y013561D02*
X008789Y013561D01*
X008789Y013639D02*
X008731Y013639D01*
X008731Y013718D02*
X008789Y013718D01*
X008789Y013797D02*
X008731Y013797D01*
X008731Y013875D02*
X008789Y013875D01*
X008789Y013325D02*
X008731Y013325D01*
X008731Y013247D02*
X008789Y013247D01*
X008789Y013168D02*
X008731Y013168D01*
X008731Y013090D02*
X008789Y013090D01*
X008789Y013011D02*
X008731Y013011D01*
X008731Y012618D02*
X008789Y012618D01*
X008010Y012697D02*
X007954Y012697D01*
X007626Y013090D02*
X007093Y013090D01*
X007172Y013168D02*
X007715Y013168D01*
X007604Y013247D02*
X007250Y013247D01*
X006304Y013707D02*
X007304Y014707D01*
X007204Y014907D02*
X012104Y014907D01*
X012296Y013325D02*
X011144Y013325D01*
X011222Y013247D02*
X012217Y013247D01*
X012139Y013168D02*
X011255Y013168D01*
X011259Y013090D02*
X012060Y013090D01*
X015704Y013707D02*
X015748Y013707D01*
X016260Y013707D02*
X016260Y013207D01*
X016260Y013707D02*
X016904Y013707D01*
X017104Y013907D01*
X018804Y013907D01*
X018904Y013807D01*
X019234Y013367D02*
X017674Y011807D01*
X016904Y011807D01*
X016504Y012207D01*
X016260Y012207D01*
X016260Y011707D02*
X016704Y011707D01*
X016804Y011607D01*
X017754Y011607D01*
X019004Y012857D01*
X019646Y012857D01*
X021880Y012857D01*
X021938Y012800D01*
X021936Y013113D02*
X021938Y013115D01*
X021936Y013113D02*
X019646Y013113D01*
X019982Y012461D02*
X020512Y012461D01*
X020591Y012383D02*
X019982Y012383D01*
X019982Y012304D02*
X020669Y012304D01*
X020748Y012226D02*
X020010Y012226D01*
X020022Y012147D02*
X020826Y012147D01*
X020905Y012069D02*
X020022Y012069D01*
X020021Y011990D02*
X020983Y011990D01*
X021062Y011912D02*
X019980Y011912D01*
X019646Y011912D02*
X019645Y011912D01*
X019645Y011871D02*
X019645Y012089D01*
X019269Y012089D01*
X019269Y011992D01*
X019279Y011957D01*
X019297Y011925D01*
X019323Y011899D01*
X019355Y011880D01*
X019391Y011871D01*
X019645Y011871D01*
X019645Y011990D02*
X019646Y011990D01*
X019645Y012069D02*
X019646Y012069D01*
X019311Y011912D02*
X018516Y011912D01*
X018595Y011990D02*
X019270Y011990D01*
X019269Y012069D02*
X018673Y012069D01*
X018752Y012147D02*
X019269Y012147D01*
X019281Y012226D02*
X018830Y012226D01*
X018909Y012304D02*
X019309Y012304D01*
X019309Y012383D02*
X018987Y012383D01*
X018438Y011833D02*
X021140Y011833D01*
X021219Y011754D02*
X018359Y011754D01*
X017362Y012090D02*
X016878Y012090D01*
X016260Y012707D01*
X017698Y012776D02*
X017811Y012776D01*
X017698Y012854D02*
X017933Y012854D01*
X017698Y013090D02*
X018363Y013090D01*
X017745Y013168D02*
X017698Y013168D01*
X019646Y014293D02*
X019660Y014307D01*
X021137Y014375D02*
X021938Y014375D01*
X021929Y014699D02*
X021929Y014928D01*
X021929Y014995D01*
X021947Y014995D01*
X021947Y014928D01*
X021947Y014699D01*
X021929Y014699D01*
X021929Y014739D02*
X021947Y014739D01*
X021947Y014818D02*
X021929Y014818D01*
X021929Y014896D02*
X021947Y014896D01*
X021947Y014975D02*
X021929Y014975D01*
X021929Y015053D02*
X021947Y015053D01*
X021947Y015132D02*
X021929Y015132D01*
X021929Y015210D02*
X021947Y015210D01*
X022289Y017174D02*
X019813Y017174D01*
X019813Y017252D02*
X022289Y017252D01*
X022289Y017331D02*
X019813Y017331D01*
X019813Y017410D02*
X022289Y017410D01*
X022289Y017488D02*
X019813Y017488D01*
X019813Y017567D02*
X022289Y017567D01*
X022289Y017645D02*
X019787Y017645D01*
X022289Y017724D02*
X015888Y017724D01*
X015888Y017802D02*
X022289Y017802D01*
X022289Y017881D02*
X015888Y017881D01*
X015888Y017959D02*
X022289Y017959D01*
X022289Y018038D02*
X015888Y018038D01*
X015888Y018116D02*
X022289Y018116D01*
X022289Y018195D02*
X015888Y018195D01*
X015888Y018274D02*
X022289Y018274D01*
X022289Y018352D02*
X015888Y018352D01*
X015888Y018431D02*
X022289Y018431D01*
X022289Y018509D02*
X015888Y018509D01*
X015888Y018588D02*
X022289Y018588D01*
X022289Y018596D02*
X022289Y018596D01*
X022289Y018666D02*
X015888Y018666D01*
X015888Y018745D02*
X022304Y018745D01*
X022329Y018823D02*
X015888Y018823D01*
X015888Y018902D02*
X022355Y018902D01*
X022380Y018980D02*
X015888Y018980D01*
X015888Y019059D02*
X022406Y019059D01*
X022408Y019066D02*
X022408Y019066D01*
X022460Y019138D02*
X015888Y019138D01*
X015888Y019216D02*
X022517Y019216D01*
X022574Y019295D02*
X015888Y019295D01*
X015888Y019373D02*
X022631Y019373D01*
X022634Y019377D02*
X022634Y019377D01*
X022634Y019377D01*
X022737Y019452D02*
X015888Y019452D01*
X015888Y019530D02*
X022845Y019530D01*
X022962Y019609D02*
X015888Y019609D01*
X015888Y019687D02*
X023204Y019687D01*
X023311Y019722D02*
X023311Y019722D01*
X023415Y019722D02*
X023415Y019722D01*
X024779Y020356D02*
X024888Y020248D01*
X025030Y020189D01*
X025184Y020189D01*
X025326Y020248D01*
X025435Y020356D01*
X025494Y020499D01*
X025494Y020652D01*
X025435Y020795D01*
X025326Y020903D01*
X025184Y020962D01*
X025030Y020962D01*
X024888Y020903D01*
X024779Y020795D01*
X024720Y020652D01*
X024720Y020499D01*
X024779Y020356D01*
X024763Y020394D02*
X015888Y020394D01*
X015888Y020316D02*
X024820Y020316D01*
X024913Y020237D02*
X015888Y020237D01*
X015888Y020159D02*
X025706Y020159D01*
X025731Y020237D02*
X025301Y020237D01*
X025394Y020316D02*
X025757Y020316D01*
X025780Y020394D02*
X025451Y020394D01*
X025483Y020473D02*
X025786Y020473D01*
X025789Y020551D02*
X025494Y020551D01*
X025494Y020630D02*
X025789Y020630D01*
X025789Y020708D02*
X025471Y020708D01*
X025438Y020787D02*
X025789Y020787D01*
X025789Y020865D02*
X025364Y020865D01*
X025228Y020944D02*
X025789Y020944D01*
X025788Y021023D02*
X015750Y021023D01*
X015672Y021101D02*
X025784Y021101D01*
X025780Y021180D02*
X015593Y021180D01*
X015515Y021258D02*
X025777Y021258D01*
X025772Y021337D02*
X015436Y021337D01*
X015358Y021415D02*
X025756Y021415D01*
X025740Y021494D02*
X015279Y021494D01*
X015201Y021572D02*
X025725Y021572D01*
X025709Y021651D02*
X015122Y021651D01*
X015044Y021729D02*
X025694Y021729D01*
X025678Y021808D02*
X014965Y021808D01*
X014886Y021887D02*
X025662Y021887D01*
X025646Y021965D02*
X014808Y021965D01*
X014729Y022044D02*
X025613Y022044D01*
X025581Y022122D02*
X014651Y022122D01*
X014572Y022201D02*
X025548Y022201D01*
X025516Y022279D02*
X014494Y022279D01*
X014415Y022358D02*
X025483Y022358D01*
X025451Y022436D02*
X014337Y022436D01*
X014258Y022515D02*
X025418Y022515D01*
X025376Y022593D02*
X014180Y022593D01*
X014101Y022672D02*
X025324Y022672D01*
X025271Y022751D02*
X014022Y022751D01*
X013944Y022829D02*
X025219Y022829D01*
X025166Y022908D02*
X013865Y022908D01*
X013846Y022986D02*
X025114Y022986D01*
X025061Y023065D02*
X013878Y023065D01*
X013881Y023143D02*
X024991Y023143D01*
X024913Y023222D02*
X013881Y023222D01*
X013863Y023300D02*
X024834Y023300D01*
X024756Y023379D02*
X013831Y023379D01*
X013782Y023457D02*
X024677Y023457D01*
X024599Y023536D02*
X013704Y023536D01*
X013552Y023614D02*
X024486Y023614D01*
X024369Y023693D02*
X008181Y023693D01*
X008270Y023614D02*
X007974Y023614D01*
X008118Y023536D02*
X007766Y023536D01*
X007559Y023457D02*
X008039Y023457D01*
X008012Y023430D02*
X007941Y023258D01*
X007941Y023071D01*
X008012Y022898D01*
X008145Y022766D01*
X008317Y022694D01*
X008504Y022694D01*
X008677Y022766D01*
X008809Y022898D01*
X008881Y023071D01*
X008881Y023258D01*
X008809Y023430D01*
X008677Y023563D01*
X008504Y023634D01*
X008317Y023634D01*
X008145Y023563D01*
X008012Y023430D01*
X007991Y023379D02*
X007390Y023379D01*
X007240Y023300D02*
X007959Y023300D01*
X007941Y023222D02*
X007091Y023222D01*
X006941Y023143D02*
X007941Y023143D01*
X007943Y023065D02*
X006791Y023065D01*
X006642Y022986D02*
X007976Y022986D01*
X008008Y022908D02*
X007844Y022908D01*
X007797Y022927D02*
X007610Y022927D01*
X007438Y022855D01*
X007305Y022723D01*
X007234Y022551D01*
X007234Y022364D01*
X007305Y022191D01*
X007438Y022059D01*
X007610Y021987D01*
X007797Y021987D01*
X007970Y022059D01*
X008102Y022191D01*
X008174Y022364D01*
X008174Y022551D01*
X008102Y022723D01*
X007970Y022855D01*
X007797Y022927D01*
X007996Y022829D02*
X008081Y022829D01*
X008075Y022751D02*
X008181Y022751D01*
X008123Y022672D02*
X013705Y022672D01*
X013784Y022593D02*
X008156Y022593D01*
X008174Y022515D02*
X013862Y022515D01*
X013941Y022436D02*
X008174Y022436D01*
X008171Y022358D02*
X014019Y022358D01*
X014098Y022279D02*
X008139Y022279D01*
X008106Y022201D02*
X014176Y022201D01*
X014255Y022122D02*
X008034Y022122D01*
X007934Y022044D02*
X014333Y022044D01*
X014412Y021965D02*
X007416Y021965D01*
X007395Y022016D02*
X007263Y022148D01*
X007090Y022220D01*
X006903Y022220D01*
X006730Y022148D01*
X006598Y022016D01*
X006527Y021843D01*
X006527Y021656D01*
X006598Y021484D01*
X006730Y021351D01*
X006903Y021280D01*
X007090Y021280D01*
X007263Y021351D01*
X007395Y021484D01*
X007467Y021656D01*
X007467Y021843D01*
X007395Y022016D01*
X007368Y022044D02*
X007474Y022044D01*
X007374Y022122D02*
X007289Y022122D01*
X007301Y022201D02*
X007137Y022201D01*
X007269Y022279D02*
X005570Y022279D01*
X005459Y022201D02*
X006857Y022201D01*
X006704Y022122D02*
X005370Y022122D01*
X005282Y022044D02*
X006626Y022044D01*
X006577Y021965D02*
X005193Y021965D01*
X005104Y021887D02*
X006545Y021887D01*
X006527Y021808D02*
X005016Y021808D01*
X004927Y021729D02*
X006527Y021729D01*
X006529Y021651D02*
X004838Y021651D01*
X004750Y021572D02*
X006561Y021572D01*
X006594Y021494D02*
X006429Y021494D01*
X006383Y021513D02*
X006196Y021513D01*
X006023Y021441D01*
X005891Y021309D01*
X005820Y021136D01*
X005820Y020949D01*
X005891Y020777D01*
X006023Y020644D01*
X006196Y020573D01*
X006383Y020573D01*
X006556Y020644D01*
X006688Y020777D01*
X006760Y020949D01*
X006760Y021136D01*
X006688Y021309D01*
X006556Y021441D01*
X006383Y021513D01*
X006582Y021415D02*
X006667Y021415D01*
X006660Y021337D02*
X006766Y021337D01*
X006709Y021258D02*
X015119Y021258D01*
X015197Y021180D02*
X006742Y021180D01*
X006760Y021101D02*
X015276Y021101D01*
X015354Y021023D02*
X006760Y021023D01*
X006757Y020944D02*
X008947Y020944D01*
X008991Y020962D02*
X008849Y020903D01*
X008740Y020795D01*
X008681Y020652D01*
X008681Y020499D01*
X008740Y020356D01*
X008849Y020248D01*
X008991Y020189D01*
X009145Y020189D01*
X009287Y020248D01*
X009396Y020356D01*
X009455Y020499D01*
X009455Y020652D01*
X009396Y020795D01*
X009287Y020903D01*
X009145Y020962D01*
X008991Y020962D01*
X009189Y020944D02*
X015433Y020944D01*
X015512Y020865D02*
X009325Y020865D01*
X009399Y020787D02*
X015590Y020787D01*
X015608Y020708D02*
X009431Y020708D01*
X009455Y020630D02*
X015608Y020630D01*
X015608Y020551D02*
X009455Y020551D01*
X009444Y020473D02*
X015608Y020473D01*
X015608Y020394D02*
X009411Y020394D01*
X009355Y020316D02*
X015608Y020316D01*
X015608Y020237D02*
X009262Y020237D01*
X008874Y020237D02*
X006050Y020237D01*
X006052Y020242D02*
X005981Y020070D01*
X005849Y019937D01*
X005676Y019866D01*
X005489Y019866D01*
X005316Y019937D01*
X005184Y020070D01*
X005113Y020242D01*
X005113Y020429D01*
X005184Y020602D01*
X005316Y020734D01*
X005489Y020806D01*
X005676Y020806D01*
X005849Y020734D01*
X005981Y020602D01*
X006052Y020429D01*
X006052Y020242D01*
X006052Y020316D02*
X008780Y020316D01*
X008724Y020394D02*
X006052Y020394D01*
X006034Y020473D02*
X008692Y020473D01*
X008681Y020551D02*
X006002Y020551D01*
X005953Y020630D02*
X006058Y020630D01*
X005959Y020708D02*
X005875Y020708D01*
X005887Y020787D02*
X005721Y020787D01*
X005854Y020865D02*
X004088Y020865D01*
X004018Y020787D02*
X005444Y020787D01*
X005290Y020708D02*
X003949Y020708D01*
X003879Y020630D02*
X005212Y020630D01*
X005163Y020551D02*
X003810Y020551D01*
X003754Y020473D02*
X005131Y020473D01*
X005113Y020394D02*
X003699Y020394D01*
X003645Y020316D02*
X005113Y020316D01*
X005115Y020237D02*
X003591Y020237D01*
X003537Y020159D02*
X005147Y020159D01*
X005180Y020080D02*
X005014Y020080D01*
X004969Y020099D02*
X005142Y020027D01*
X005274Y019895D01*
X005345Y019722D01*
X005345Y019535D01*
X005274Y019362D01*
X005142Y019230D01*
X004969Y019159D01*
X004782Y019159D01*
X004609Y019230D01*
X004477Y019362D01*
X004405Y019535D01*
X004405Y019722D01*
X004477Y019895D01*
X004609Y020027D01*
X004782Y020099D01*
X004969Y020099D01*
X005167Y020001D02*
X005252Y020001D01*
X005246Y019923D02*
X005351Y019923D01*
X005295Y019844D02*
X015608Y019844D01*
X015608Y019766D02*
X005327Y019766D01*
X005345Y019687D02*
X015608Y019687D01*
X015608Y019609D02*
X005345Y019609D01*
X005343Y019530D02*
X005813Y019530D01*
X005795Y019524D02*
X005726Y019489D01*
X005665Y019445D01*
X005983Y019127D01*
X006301Y019445D01*
X006239Y019489D01*
X006171Y019524D01*
X006097Y019548D01*
X006021Y019560D01*
X005944Y019560D01*
X005868Y019548D01*
X005795Y019524D01*
X005674Y019452D02*
X005311Y019452D01*
X005278Y019373D02*
X005597Y019373D01*
X005608Y019388D02*
X005564Y019327D01*
X005529Y019258D01*
X005505Y019185D01*
X005493Y019109D01*
X005493Y019031D01*
X005505Y018955D01*
X005529Y018882D01*
X005564Y018813D01*
X005608Y018752D01*
X005926Y019070D01*
X005983Y019013D01*
X006039Y019070D01*
X005983Y019127D01*
X005926Y019070D01*
X005608Y019388D01*
X005623Y019373D02*
X005736Y019373D01*
X005701Y019295D02*
X005815Y019295D01*
X005780Y019216D02*
X005893Y019216D01*
X005859Y019138D02*
X005972Y019138D01*
X005994Y019138D02*
X006107Y019138D01*
X006072Y019216D02*
X006185Y019216D01*
X006151Y019295D02*
X006264Y019295D01*
X006229Y019373D02*
X006342Y019373D01*
X006357Y019388D02*
X006039Y019070D01*
X006357Y018752D01*
X006402Y018813D01*
X006437Y018882D01*
X006461Y018955D01*
X006473Y019031D01*
X006473Y019109D01*
X006461Y019185D01*
X006437Y019258D01*
X006402Y019327D01*
X006357Y019388D01*
X006368Y019373D02*
X015608Y019373D01*
X015608Y019295D02*
X006418Y019295D01*
X006450Y019216D02*
X015608Y019216D01*
X015608Y019138D02*
X006468Y019138D01*
X006473Y019059D02*
X015608Y019059D01*
X015608Y018980D02*
X006465Y018980D01*
X006443Y018902D02*
X015608Y018902D01*
X015608Y018823D02*
X006407Y018823D01*
X006286Y018823D02*
X006173Y018823D01*
X006207Y018902D02*
X006094Y018902D01*
X006129Y018980D02*
X006016Y018980D01*
X005983Y019013D02*
X006301Y018695D01*
X006239Y018651D01*
X006171Y018616D01*
X006097Y018592D01*
X006021Y018580D01*
X005944Y018580D01*
X005868Y018592D01*
X005795Y018616D01*
X005726Y018651D01*
X005665Y018695D01*
X005983Y019013D01*
X005950Y018980D02*
X005837Y018980D01*
X005871Y018902D02*
X005758Y018902D01*
X005793Y018823D02*
X005679Y018823D01*
X005714Y018745D02*
X004604Y018745D01*
X004622Y018666D02*
X005705Y018666D01*
X005896Y018588D02*
X004700Y018588D01*
X004779Y018509D02*
X015608Y018509D01*
X015608Y018431D02*
X004857Y018431D01*
X004936Y018352D02*
X015608Y018352D01*
X015608Y018274D02*
X005014Y018274D01*
X005093Y018195D02*
X015608Y018195D01*
X015608Y018116D02*
X007492Y018116D01*
X007651Y018038D02*
X015608Y018038D01*
X015608Y017959D02*
X007730Y017959D01*
X007778Y017881D02*
X015608Y017881D01*
X015608Y017802D02*
X007810Y017802D01*
X007825Y017724D02*
X015608Y017724D01*
X015608Y017645D02*
X007825Y017645D01*
X007816Y017567D02*
X015608Y017567D01*
X015608Y017488D02*
X007783Y017488D01*
X007841Y017410D02*
X015608Y017410D01*
X015608Y017331D02*
X007920Y017331D01*
X007998Y017252D02*
X015608Y017252D01*
X015608Y017174D02*
X009006Y017174D01*
X009038Y017095D02*
X015608Y017095D01*
X015608Y017017D02*
X009038Y017017D01*
X009038Y016938D02*
X015608Y016938D01*
X015608Y016860D02*
X009038Y016860D01*
X009038Y016781D02*
X015608Y016781D01*
X015608Y016703D02*
X009035Y016703D01*
X009032Y016624D02*
X015510Y016624D01*
X015510Y016546D02*
X009038Y016546D01*
X009038Y016467D02*
X015510Y016467D01*
X015510Y016389D02*
X008789Y016389D01*
X008789Y016467D02*
X008731Y016467D01*
X008731Y016546D02*
X008789Y016546D01*
X008789Y016624D02*
X008731Y016624D01*
X008731Y016703D02*
X008789Y016703D01*
X008789Y016781D02*
X008731Y016781D01*
X008731Y016860D02*
X008789Y016860D01*
X008789Y016938D02*
X008731Y016938D01*
X008731Y017017D02*
X008789Y017017D01*
X008789Y017095D02*
X008731Y017095D01*
X008731Y017174D02*
X008789Y017174D01*
X008513Y017174D02*
X008438Y017174D01*
X008248Y016907D02*
X008248Y016805D01*
X007375Y017678D01*
X005412Y017678D01*
X004168Y018922D01*
X003837Y018588D02*
X003753Y018588D01*
X003765Y018666D02*
X003598Y018666D01*
X003733Y018745D02*
X002697Y018745D01*
X002738Y018823D02*
X003700Y018823D01*
X003698Y018902D02*
X002780Y018902D01*
X002821Y018980D02*
X003698Y018980D01*
X003717Y019059D02*
X002862Y019059D01*
X002903Y019138D02*
X003749Y019138D01*
X003798Y019216D02*
X002945Y019216D01*
X002986Y019295D02*
X003877Y019295D01*
X004030Y019373D02*
X003027Y019373D01*
X003068Y019452D02*
X004440Y019452D01*
X004407Y019530D02*
X003109Y019530D01*
X003157Y019609D02*
X004405Y019609D01*
X004405Y019687D02*
X003211Y019687D01*
X003266Y019766D02*
X004424Y019766D01*
X004456Y019844D02*
X003320Y019844D01*
X003374Y019923D02*
X004505Y019923D01*
X004584Y020001D02*
X003428Y020001D01*
X003482Y020080D02*
X004737Y020080D01*
X005814Y019923D02*
X015608Y019923D01*
X015608Y020001D02*
X005913Y020001D01*
X005985Y020080D02*
X015608Y020080D01*
X015608Y020159D02*
X006018Y020159D01*
X006152Y019530D02*
X015608Y019530D01*
X015608Y019452D02*
X006291Y019452D01*
X006050Y019059D02*
X006028Y019059D01*
X005937Y019059D02*
X005915Y019059D01*
X005501Y018980D02*
X004638Y018980D01*
X004638Y018902D02*
X005522Y018902D01*
X005558Y018823D02*
X004636Y018823D01*
X004620Y019059D02*
X005493Y019059D01*
X005497Y019138D02*
X004588Y019138D01*
X004538Y019216D02*
X004643Y019216D01*
X004545Y019295D02*
X004460Y019295D01*
X004472Y019373D02*
X004306Y019373D01*
X005107Y019216D02*
X005515Y019216D01*
X005547Y019295D02*
X005206Y019295D01*
X006070Y018588D02*
X015608Y018588D01*
X015608Y018666D02*
X006261Y018666D01*
X006251Y018745D02*
X015608Y018745D01*
X015888Y019766D02*
X025231Y019766D01*
X025411Y019844D02*
X015888Y019844D01*
X015888Y019923D02*
X025519Y019923D01*
X025595Y020001D02*
X015888Y020001D01*
X015888Y020080D02*
X025652Y020080D01*
X024731Y020473D02*
X015888Y020473D01*
X015888Y020551D02*
X024720Y020551D01*
X024720Y020630D02*
X015888Y020630D01*
X015888Y020708D02*
X024743Y020708D01*
X024776Y020787D02*
X015888Y020787D01*
X015888Y020865D02*
X024850Y020865D01*
X024986Y020944D02*
X015829Y020944D01*
X015748Y020827D02*
X013411Y023164D01*
X013081Y022829D02*
X012740Y022829D01*
X012677Y022766D02*
X012809Y022898D01*
X012881Y023071D01*
X012881Y023258D01*
X012809Y023430D01*
X012677Y023563D01*
X012504Y023634D01*
X012317Y023634D01*
X012145Y023563D01*
X012012Y023430D01*
X011941Y023258D01*
X011941Y023071D01*
X012012Y022898D01*
X012145Y022766D01*
X012317Y022694D01*
X012504Y022694D01*
X012677Y022766D01*
X012640Y022751D02*
X013181Y022751D01*
X013008Y022908D02*
X012813Y022908D01*
X012846Y022986D02*
X012976Y022986D01*
X012943Y023065D02*
X012878Y023065D01*
X012881Y023143D02*
X012941Y023143D01*
X012941Y023222D02*
X012881Y023222D01*
X012863Y023300D02*
X012959Y023300D01*
X012991Y023379D02*
X012831Y023379D01*
X012782Y023457D02*
X013039Y023457D01*
X013118Y023536D02*
X012704Y023536D01*
X012552Y023614D02*
X013270Y023614D01*
X012270Y023614D02*
X011552Y023614D01*
X011504Y023634D02*
X011317Y023634D01*
X011145Y023563D01*
X011012Y023430D01*
X010941Y023258D01*
X010941Y023071D01*
X011012Y022898D01*
X011145Y022766D01*
X011317Y022694D01*
X011504Y022694D01*
X011677Y022766D01*
X011809Y022898D01*
X011881Y023071D01*
X011881Y023258D01*
X011809Y023430D01*
X011677Y023563D01*
X011504Y023634D01*
X011704Y023536D02*
X012118Y023536D01*
X012039Y023457D02*
X011782Y023457D01*
X011831Y023379D02*
X011991Y023379D01*
X011959Y023300D02*
X011863Y023300D01*
X011881Y023222D02*
X011941Y023222D01*
X011941Y023143D02*
X011881Y023143D01*
X011878Y023065D02*
X011943Y023065D01*
X011976Y022986D02*
X011846Y022986D01*
X011813Y022908D02*
X012008Y022908D01*
X012081Y022829D02*
X011740Y022829D01*
X011640Y022751D02*
X012181Y022751D01*
X011181Y022751D02*
X010640Y022751D01*
X010677Y022766D02*
X010809Y022898D01*
X010881Y023071D01*
X010881Y023258D01*
X010809Y023430D01*
X010677Y023563D01*
X010504Y023634D01*
X010317Y023634D01*
X010145Y023563D01*
X010012Y023430D01*
X009941Y023258D01*
X009941Y023071D01*
X010012Y022898D01*
X010145Y022766D01*
X010317Y022694D01*
X010504Y022694D01*
X010677Y022766D01*
X010740Y022829D02*
X011081Y022829D01*
X011008Y022908D02*
X010813Y022908D01*
X010846Y022986D02*
X010976Y022986D01*
X010943Y023065D02*
X010878Y023065D01*
X010881Y023143D02*
X010941Y023143D01*
X010941Y023222D02*
X010881Y023222D01*
X010863Y023300D02*
X010959Y023300D01*
X010991Y023379D02*
X010831Y023379D01*
X010782Y023457D02*
X011039Y023457D01*
X011118Y023536D02*
X010704Y023536D01*
X010552Y023614D02*
X011270Y023614D01*
X010652Y024243D02*
X022996Y024243D01*
X023390Y024164D02*
X010005Y024164D01*
X010270Y023614D02*
X009552Y023614D01*
X009504Y023634D02*
X009317Y023634D01*
X009145Y023563D01*
X009012Y023430D01*
X008941Y023258D01*
X008941Y023071D01*
X009012Y022898D01*
X009145Y022766D01*
X009317Y022694D01*
X009504Y022694D01*
X009677Y022766D01*
X009809Y022898D01*
X009881Y023071D01*
X009881Y023258D01*
X009809Y023430D01*
X009677Y023563D01*
X009504Y023634D01*
X009704Y023536D02*
X010118Y023536D01*
X010039Y023457D02*
X009782Y023457D01*
X009831Y023379D02*
X009991Y023379D01*
X009959Y023300D02*
X009863Y023300D01*
X009881Y023222D02*
X009941Y023222D01*
X009941Y023143D02*
X009881Y023143D01*
X009878Y023065D02*
X009943Y023065D01*
X009976Y022986D02*
X009846Y022986D01*
X009813Y022908D02*
X010008Y022908D01*
X010081Y022829D02*
X009740Y022829D01*
X009640Y022751D02*
X010181Y022751D01*
X009181Y022751D02*
X008640Y022751D01*
X008740Y022829D02*
X009081Y022829D01*
X009008Y022908D02*
X008813Y022908D01*
X008846Y022986D02*
X008976Y022986D01*
X008943Y023065D02*
X008878Y023065D01*
X008881Y023143D02*
X008941Y023143D01*
X008941Y023222D02*
X008881Y023222D01*
X008863Y023300D02*
X008959Y023300D01*
X008991Y023379D02*
X008831Y023379D01*
X008782Y023457D02*
X009039Y023457D01*
X009118Y023536D02*
X008704Y023536D01*
X008552Y023614D02*
X009270Y023614D01*
X009233Y024007D02*
X023805Y024007D01*
X023994Y023929D02*
X008915Y023929D01*
X008596Y023850D02*
X024134Y023850D01*
X024251Y023772D02*
X008388Y023772D01*
X009552Y024086D02*
X023615Y024086D01*
X015748Y020827D02*
X015748Y016407D01*
X015986Y016389D02*
X016022Y016389D01*
X016022Y016467D02*
X015986Y016467D01*
X015986Y016546D02*
X016022Y016546D01*
X016022Y016624D02*
X015986Y016624D01*
X015888Y016703D02*
X016164Y016703D01*
X016180Y016781D02*
X015888Y016781D01*
X015888Y016860D02*
X016258Y016860D01*
X016337Y016938D02*
X015888Y016938D01*
X015888Y017017D02*
X016415Y017017D01*
X016494Y017095D02*
X015888Y017095D01*
X015888Y017174D02*
X016572Y017174D01*
X016651Y017252D02*
X015888Y017252D01*
X015888Y017331D02*
X016730Y017331D01*
X016808Y017410D02*
X015888Y017410D01*
X015888Y017488D02*
X016887Y017488D01*
X016022Y016310D02*
X015986Y016310D01*
X015986Y016231D02*
X016022Y016231D01*
X016008Y016153D02*
X016049Y016153D01*
X015510Y016231D02*
X009038Y016231D01*
X009038Y016310D02*
X015510Y016310D01*
X015488Y016153D02*
X009020Y016153D01*
X009038Y016074D02*
X015470Y016074D01*
X015470Y015996D02*
X009038Y015996D01*
X009038Y015839D02*
X015470Y015839D01*
X015470Y015760D02*
X009038Y015760D01*
X009028Y015676D02*
X009017Y015657D01*
X009028Y015639D01*
X009038Y015603D01*
X009038Y015525D02*
X015110Y015525D01*
X015719Y015603D02*
X015777Y015603D01*
X015986Y011126D02*
X016022Y011126D01*
X016022Y011048D02*
X015986Y011048D01*
X015966Y010969D02*
X016042Y010969D01*
X013134Y008456D02*
X013074Y008456D01*
X013086Y008377D02*
X013122Y008377D01*
X013122Y008299D02*
X013086Y008299D01*
X013086Y008220D02*
X013122Y008220D01*
X013122Y008141D02*
X013086Y008141D01*
X013086Y008063D02*
X013122Y008063D01*
X013122Y007984D02*
X013086Y007984D01*
X013086Y007906D02*
X013122Y007906D01*
X013122Y007827D02*
X013086Y007827D01*
X013064Y007749D02*
X013144Y007749D01*
X011034Y006335D02*
X010570Y006335D01*
X010607Y006323D02*
X010530Y006348D01*
X010451Y006361D01*
X010451Y006361D01*
X010451Y005891D01*
X010921Y005891D01*
X010908Y005970D01*
X010883Y006046D01*
X010847Y006118D01*
X010800Y006183D01*
X010743Y006240D01*
X010678Y006287D01*
X010607Y006323D01*
X010720Y006256D02*
X011034Y006256D01*
X011034Y006178D02*
X010803Y006178D01*
X010856Y006099D02*
X011005Y006099D01*
X010973Y006021D02*
X010892Y006021D01*
X010913Y005942D02*
X010941Y005942D01*
X010921Y005891D02*
X010921Y005891D01*
X010941Y005864D02*
X010451Y005864D01*
X010451Y005942D02*
X010371Y005942D01*
X010371Y006021D02*
X010451Y006021D01*
X010451Y006099D02*
X010371Y006099D01*
X010371Y006178D02*
X010451Y006178D01*
X010451Y006256D02*
X010371Y006256D01*
X010371Y006335D02*
X010451Y006335D01*
X010917Y005785D02*
X010941Y005785D01*
X010962Y005707D02*
X010900Y005707D01*
X010870Y005628D02*
X010994Y005628D01*
X011047Y005550D02*
X010822Y005550D01*
X010752Y005471D02*
X011126Y005471D01*
X010187Y005392D02*
X009533Y005392D01*
X009696Y005471D02*
X010069Y005471D01*
X009999Y005550D02*
X009774Y005550D01*
X009827Y005628D02*
X009952Y005628D01*
X009921Y005707D02*
X009860Y005707D01*
X009881Y005785D02*
X009905Y005785D01*
X006495Y007356D02*
X004847Y007356D01*
X004758Y007435D02*
X006516Y007435D01*
X004756Y008927D02*
X003488Y008927D01*
X003434Y009005D02*
X004591Y009005D01*
X004513Y009084D02*
X003379Y009084D01*
X003325Y009163D02*
X004459Y009163D01*
X004427Y009241D02*
X003271Y009241D01*
X003217Y009320D02*
X004405Y009320D01*
X004405Y009398D02*
X003163Y009398D01*
X003114Y009477D02*
X004405Y009477D01*
X004437Y009555D02*
X003072Y009555D01*
X003031Y009634D02*
X004049Y009634D01*
X003884Y009712D02*
X002990Y009712D01*
X002949Y009791D02*
X003806Y009791D01*
X003752Y009869D02*
X002907Y009869D01*
X002866Y009948D02*
X003720Y009948D01*
X003698Y010026D02*
X002825Y010026D01*
X002784Y010105D02*
X003698Y010105D01*
X003698Y010184D02*
X002743Y010184D01*
X004288Y009634D02*
X004469Y009634D01*
X004452Y009712D02*
X004537Y009712D01*
X004531Y009791D02*
X004625Y009791D01*
X002981Y012933D02*
X002956Y012933D01*
X002534Y013090D02*
X001837Y013090D01*
X001828Y013168D02*
X002429Y013168D01*
X002353Y013247D02*
X001818Y013247D01*
X001809Y013325D02*
X002321Y013325D01*
X002288Y013404D02*
X001799Y013404D01*
X001789Y013482D02*
X002284Y013482D01*
X002284Y013561D02*
X001780Y013561D01*
X001770Y013639D02*
X002300Y013639D01*
X002333Y013718D02*
X001761Y013718D01*
X001751Y013797D02*
X002379Y013797D01*
X002457Y013875D02*
X001742Y013875D01*
X002754Y014507D02*
X004204Y014507D01*
X005004Y013707D01*
X006304Y013707D01*
X006204Y013907D02*
X007204Y014907D01*
X007404Y015407D02*
X008248Y015407D01*
X008429Y015132D02*
X008522Y015132D01*
X008248Y015907D02*
X007604Y015907D01*
X006004Y014307D01*
X005204Y014307D01*
X005104Y013907D02*
X006204Y013907D01*
X005104Y013907D02*
X003504Y015507D01*
X002754Y015507D01*
X003190Y015682D02*
X003382Y015682D01*
X003303Y015760D02*
X003158Y015760D01*
X003225Y015839D02*
X003087Y015839D01*
X003146Y015917D02*
X002993Y015917D01*
X003068Y015996D02*
X001846Y015996D01*
X002937Y016074D02*
X002989Y016074D01*
X003228Y016231D02*
X003364Y016231D01*
X003364Y016153D02*
X003306Y016153D01*
X003644Y016703D02*
X003987Y016703D01*
X004687Y016467D02*
X005011Y016467D01*
X005089Y016389D02*
X004712Y016389D01*
X004723Y016310D02*
X005168Y016310D01*
X005246Y016231D02*
X004722Y016231D01*
X004708Y016153D02*
X005325Y016153D01*
X005403Y016074D02*
X004679Y016074D01*
X005249Y016624D02*
X008010Y016624D01*
X008010Y016703D02*
X005171Y016703D01*
X005092Y016781D02*
X008010Y016781D01*
X007995Y016860D02*
X005014Y016860D01*
X004935Y016938D02*
X007916Y016938D01*
X007838Y017017D02*
X004857Y017017D01*
X004778Y017095D02*
X007759Y017095D01*
X007681Y017174D02*
X004700Y017174D01*
X004621Y017252D02*
X007226Y017252D01*
X007085Y017331D02*
X004543Y017331D01*
X004464Y017410D02*
X007007Y017410D01*
X006966Y017488D02*
X004385Y017488D01*
X004307Y017567D02*
X005325Y017567D01*
X005247Y017645D02*
X004228Y017645D01*
X004150Y017724D02*
X005168Y017724D01*
X005090Y017802D02*
X004071Y017802D01*
X003993Y017881D02*
X005011Y017881D01*
X004932Y017959D02*
X003914Y017959D01*
X003897Y018038D02*
X004854Y018038D01*
X004775Y018116D02*
X003929Y018116D01*
X003931Y018195D02*
X004697Y018195D01*
X004618Y018274D02*
X003931Y018274D01*
X003913Y018352D02*
X004540Y018352D01*
X004461Y018431D02*
X003880Y018431D01*
X003831Y018509D02*
X003936Y018509D01*
X003461Y018214D02*
X005625Y016050D01*
X005625Y014886D01*
X005646Y014907D01*
X006304Y014907D01*
X007804Y016407D01*
X008248Y016407D01*
X007744Y016546D02*
X005328Y016546D01*
X005406Y016467D02*
X007666Y016467D01*
X007587Y016389D02*
X005485Y016389D01*
X005564Y016310D02*
X007509Y016310D01*
X007430Y016231D02*
X005642Y016231D01*
X005721Y016153D02*
X007351Y016153D01*
X007273Y016074D02*
X005765Y016074D01*
X005765Y015996D02*
X007194Y015996D01*
X007116Y015917D02*
X005765Y015917D01*
X005765Y015839D02*
X007037Y015839D01*
X006959Y015760D02*
X005765Y015760D01*
X005765Y015682D02*
X006880Y015682D01*
X006802Y015603D02*
X005765Y015603D01*
X005765Y015525D02*
X006723Y015525D01*
X006645Y015446D02*
X005765Y015446D01*
X005765Y015367D02*
X006566Y015367D01*
X006487Y015289D02*
X005829Y015289D01*
X005937Y015210D02*
X006409Y015210D01*
X006330Y015132D02*
X006010Y015132D01*
X006043Y015053D02*
X006252Y015053D01*
X004403Y014111D02*
X003022Y014111D01*
X003101Y014189D02*
X004324Y014189D01*
X004245Y014268D02*
X003163Y014268D01*
X003196Y014346D02*
X004167Y014346D01*
X004153Y014661D02*
X003199Y014661D01*
X003167Y014739D02*
X004074Y014739D01*
X003996Y014818D02*
X003108Y014818D01*
X003030Y014896D02*
X003917Y014896D01*
X003839Y014975D02*
X002854Y014975D01*
X002886Y015053D02*
X003760Y015053D01*
X003681Y015132D02*
X003043Y015132D01*
X003122Y015210D02*
X003603Y015210D01*
X003524Y015289D02*
X003172Y015289D01*
X005407Y017881D02*
X006972Y017881D01*
X007020Y017959D02*
X005328Y017959D01*
X005250Y018038D02*
X007098Y018038D01*
X007257Y018116D02*
X005171Y018116D01*
X003324Y018666D02*
X002656Y018666D01*
X002615Y018588D02*
X003170Y018588D01*
X003091Y018509D02*
X002576Y018509D01*
X002546Y018431D02*
X003042Y018431D01*
X003009Y018352D02*
X002516Y018352D01*
X002486Y018274D02*
X002991Y018274D01*
X002991Y018195D02*
X002456Y018195D01*
X002427Y018116D02*
X002993Y018116D01*
X006521Y020630D02*
X008681Y020630D01*
X008704Y020708D02*
X006620Y020708D01*
X006692Y020787D02*
X008737Y020787D01*
X008811Y020865D02*
X006725Y020865D01*
X007227Y021337D02*
X015040Y021337D01*
X014962Y021415D02*
X007327Y021415D01*
X007399Y021494D02*
X014883Y021494D01*
X014805Y021572D02*
X007432Y021572D01*
X007464Y021651D02*
X014726Y021651D01*
X014648Y021729D02*
X007467Y021729D01*
X007467Y021808D02*
X014569Y021808D01*
X014490Y021887D02*
X007449Y021887D01*
X007236Y022358D02*
X005683Y022358D01*
X005797Y022436D02*
X007234Y022436D01*
X007234Y022515D02*
X005911Y022515D01*
X006025Y022593D02*
X007252Y022593D01*
X007284Y022672D02*
X006139Y022672D01*
X006252Y022751D02*
X007333Y022751D01*
X007411Y022829D02*
X006366Y022829D01*
X006492Y022908D02*
X007563Y022908D01*
X006150Y021494D02*
X004661Y021494D01*
X004575Y021415D02*
X005997Y021415D01*
X005919Y021337D02*
X004505Y021337D01*
X004436Y021258D02*
X005870Y021258D01*
X005838Y021180D02*
X004366Y021180D01*
X004297Y021101D02*
X005820Y021101D01*
X005820Y021023D02*
X004227Y021023D01*
X004157Y020944D02*
X005822Y020944D01*
X007523Y017252D02*
X007602Y017252D01*
X008731Y016310D02*
X008789Y016310D01*
X008789Y016231D02*
X008731Y016231D01*
X008731Y016153D02*
X008789Y016153D01*
X008789Y016074D02*
X008731Y016074D01*
X008731Y015996D02*
X008789Y015996D01*
X015652Y008220D02*
X015984Y008220D01*
X015984Y008141D02*
X015652Y008141D01*
X015652Y008063D02*
X015984Y008063D01*
X015984Y007984D02*
X015652Y007984D01*
X015626Y007906D02*
X015984Y007906D01*
D20*
X016204Y008407D03*
X017504Y009007D03*
X019004Y011507D03*
X018004Y012607D03*
X018504Y013307D03*
X017904Y013607D03*
X018904Y013807D03*
X020204Y013807D03*
X020204Y014307D03*
X021504Y015507D03*
X021504Y016507D03*
X021504Y017507D03*
X021504Y018507D03*
X021504Y019507D03*
X021504Y020507D03*
X021504Y021507D03*
X020504Y022507D03*
X019504Y023507D03*
X018504Y023507D03*
X017504Y023507D03*
X016504Y023507D03*
X015504Y023507D03*
X014504Y023507D03*
X014504Y021507D03*
X015004Y017507D03*
X016504Y017507D03*
X015004Y016007D03*
X015204Y014707D03*
X015204Y014207D03*
X014704Y014207D03*
X013104Y013907D03*
X012504Y013907D03*
X012604Y013407D03*
X011004Y013107D03*
X011004Y012707D03*
X010504Y011507D03*
X010504Y010507D03*
X010504Y009507D03*
X010504Y008507D03*
X010504Y007507D03*
X013504Y009007D03*
X014504Y009007D03*
X014504Y006507D03*
X014504Y005507D03*
X015504Y005507D03*
X016504Y005507D03*
X017504Y005507D03*
X018504Y005507D03*
X019504Y005507D03*
X020504Y006507D03*
X021504Y007507D03*
X021504Y008507D03*
X017504Y006507D03*
X015504Y006507D03*
X020504Y011507D03*
X021304Y012507D03*
X016804Y012707D03*
X016804Y013107D03*
X016804Y014207D03*
X011504Y017507D03*
X010504Y017507D03*
X009504Y017507D03*
X008504Y017507D03*
X009504Y016507D03*
X009504Y015507D03*
X007804Y013907D03*
X007804Y013407D03*
X007804Y012907D03*
X009504Y013507D03*
X008504Y011507D03*
X006504Y009507D03*
X003904Y014007D03*
X008504Y018507D03*
D21*
X015204Y015307D02*
X016871Y015307D01*
X018571Y017007D01*
X015204Y015307D02*
X011604Y011707D01*
X011604Y008107D01*
X011954Y008107D02*
X012730Y008107D01*
X013478Y008107D02*
X013504Y008081D01*
X014292Y008081D01*
X013478Y008107D02*
X013478Y007307D01*
X013504Y007333D01*
X014292Y007333D01*
X013478Y007307D02*
X013478Y005733D01*
X013504Y005707D01*
X013504Y005757D01*
X013411Y005851D01*
X011411Y005851D02*
X011254Y006007D01*
X011254Y008107D01*
X015316Y007333D02*
X016056Y007333D01*
X016230Y007507D01*
X016204Y007533D01*
X016204Y008407D01*
D22*
X011254Y008107D02*
X011254Y012057D01*
X012604Y013407D01*
X017384Y013627D02*
X017884Y013627D01*
X017904Y013607D01*
D23*
X019646Y013625D02*
X019646Y014293D01*
X019660Y014307D02*
X020204Y014307D01*
X021304Y012507D02*
X021915Y012507D01*
X021938Y012485D01*
X021938Y012170D01*
X016204Y008407D02*
X015748Y008863D01*
X015748Y011207D01*
X015748Y011707D01*
X015748Y012207D01*
X015748Y012707D01*
X015748Y013207D01*
M02*
