%
M48
M72
T01C0.0150
T02C0.0295
T03C0.0394
T04C0.0400
T05C0.0413
%
T01
X10504Y7507
X10504Y8507
X10504Y9507
X10504Y10507
X10504Y11507
X11004Y12707
X11004Y13107
X9504Y13507
X7804Y13407
X7804Y12907
X7804Y13907
X9504Y15507
X9504Y16507
X9504Y17507
X8504Y17507
X8504Y18507
X10504Y17507
X11504Y17507
X15004Y17507
X16504Y17507
X15004Y16007
X15204Y14707
X15204Y14207
X14704Y14207
X13104Y13907
X12504Y13907
X12604Y13407
X16804Y13107
X16804Y12707
X18004Y12607
X18504Y13307
X17904Y13607
X18904Y13807
X20204Y13807
X20204Y14307
X21504Y15507
X21504Y16507
X21504Y17507
X21504Y18507
X21504Y19507
X21504Y20507
X21504Y21507
X20504Y22507
X19504Y23507
X18504Y23507
X17504Y23507
X16504Y23507
X15504Y23507
X14504Y23507
X14504Y21507
X16804Y14207
X19004Y11507
X20504Y11507
X21304Y12507
X17504Y9007
X16204Y8407
X14504Y9007
X13504Y9007
X14504Y6507
X14504Y5507
X15504Y5507
X16504Y5507
X17504Y5507
X18504Y5507
X19504Y5507
X20504Y6507
X21504Y7507
X21504Y8507
X17504Y6507
X15504Y6507
X8504Y11507
X6504Y9507
X3904Y14007
T02
X6244Y11483
T03
X9068Y8469
X5625Y14886
X4233Y16278
X7375Y17678
X5983Y19070
X9068Y20576
X25107Y20576
X25107Y8469
T04
X8411Y5851
X7704Y6558
X6997Y7265
X6290Y7972
X5583Y8679
X4875Y9386
X4168Y10093
X3461Y10800
X2754Y11507
X2754Y12507
X2754Y13507
X2754Y14507
X2754Y15507
X2754Y16507
X2754Y17507
X3461Y18214
X4168Y18922
X4875Y19629
X5583Y20336
X6290Y21043
X6997Y21750
X7704Y22457
X8411Y23164
X9411Y23164
X10411Y23164
X11411Y23164
X12411Y23164
X13411Y23164
X13411Y5851
X12411Y5851
X11411Y5851
X10411Y5851
X9411Y5851
T05
X5192Y12544
M30
