G75*
G70*
%OFA0B0*%
%FSLAX24Y24*%
%IPPOS*%
%LPD*%
%AMOC8*
5,1,8,0,0,1.08239X$1,22.5*
%
%ADD10R,0.0808X0.0513*%
%ADD11R,0.0828X0.0867*%
%ADD12C,0.0375*%
%ADD13C,0.0493*%
%ADD14C,0.0474*%
%ADD15C,0.0820*%
%ADD16C,0.0780*%
D10*
G36*
X004719Y010596D02*
X005289Y011166D01*
X005651Y010804D01*
X005081Y010234D01*
X004719Y010596D01*
G37*
G36*
X004329Y010986D02*
X004899Y011556D01*
X005261Y011194D01*
X004691Y010624D01*
X004329Y010986D01*
G37*
G36*
X003939Y011375D02*
X004509Y011945D01*
X004871Y011583D01*
X004301Y011013D01*
X003939Y011375D01*
G37*
G36*
X005790Y013227D02*
X006360Y013797D01*
X006722Y013435D01*
X006152Y012865D01*
X005790Y013227D01*
G37*
G36*
X006180Y012837D02*
X006750Y013407D01*
X007112Y013045D01*
X006542Y012475D01*
X006180Y012837D01*
G37*
G36*
X006570Y012447D02*
X007140Y013017D01*
X007502Y012655D01*
X006932Y012085D01*
X006570Y012447D01*
G37*
D11*
G36*
X003974Y013174D02*
X004559Y013759D01*
X005170Y013148D01*
X004585Y012563D01*
X003974Y013174D01*
G37*
G36*
X006272Y010878D02*
X006857Y011463D01*
X007468Y010852D01*
X006883Y010267D01*
X006272Y010878D01*
G37*
D12*
X006244Y011483D03*
D13*
X005192Y012544D03*
D14*
X009068Y008469D03*
X025107Y008469D03*
X025107Y020576D03*
X009068Y020576D03*
D15*
X008411Y005851D03*
X007704Y006558D03*
X006997Y007265D03*
X006290Y007972D03*
X005583Y008679D03*
X004875Y009386D03*
X004168Y010093D03*
X003461Y010800D03*
X002754Y011507D03*
X002754Y012507D03*
X002754Y013507D03*
X002754Y014507D03*
X002754Y015507D03*
X002754Y016507D03*
X002754Y017507D03*
X003461Y018214D03*
X004168Y018922D03*
X004875Y019629D03*
X005583Y020336D03*
X006290Y021043D03*
X006997Y021750D03*
X007704Y022457D03*
X008411Y023164D03*
X009411Y023164D03*
X010411Y023164D03*
X011411Y023164D03*
X012411Y023164D03*
X013411Y023164D03*
X013411Y005851D03*
X012411Y005851D03*
X011411Y005851D03*
X010411Y005851D03*
X009411Y005851D03*
D16*
X005625Y014886D03*
X004233Y016278D03*
X007375Y017678D03*
X005983Y019070D03*
M02*
