G75*
G70*
%OFA0B0*%
%FSLAX24Y24*%
%IPPOS*%
%LPD*%
%AMOC8*
5,1,8,0,0,1.08239X$1,22.5*
%
%ADD10C,0.0050*%
%ADD11C,0.0040*%
%ADD12C,0.0000*%
%ADD13C,0.0080*%
%ADD14C,0.0060*%
D10*
X011504Y004507D02*
X022504Y004507D01*
X022671Y004511D01*
X022837Y004523D01*
X023002Y004543D01*
X023166Y004570D01*
X023329Y004606D01*
X023490Y004649D01*
X023649Y004699D01*
X023805Y004758D01*
X023958Y004823D01*
X024108Y004896D01*
X024254Y004976D01*
X024396Y005063D01*
X024534Y005156D01*
X024668Y005256D01*
X024796Y005362D01*
X024919Y005474D01*
X025037Y005592D01*
X025149Y005715D01*
X025255Y005843D01*
X025355Y005977D01*
X025448Y006115D01*
X025535Y006257D01*
X025615Y006403D01*
X025688Y006553D01*
X025753Y006706D01*
X025812Y006862D01*
X025862Y007021D01*
X025905Y007182D01*
X025941Y007345D01*
X025968Y007509D01*
X025988Y007674D01*
X026000Y007840D01*
X026004Y008007D01*
X026004Y008507D01*
X026002Y008567D01*
X025997Y008628D01*
X025988Y008687D01*
X025975Y008746D01*
X025959Y008805D01*
X025939Y008862D01*
X025916Y008917D01*
X025889Y008972D01*
X025860Y009024D01*
X025827Y009075D01*
X025791Y009124D01*
X025753Y009170D01*
X025711Y009214D01*
X025667Y009256D01*
X025621Y009294D01*
X025572Y009330D01*
X025521Y009363D01*
X025469Y009392D01*
X025414Y009419D01*
X025359Y009442D01*
X025302Y009462D01*
X025243Y009478D01*
X025184Y009491D01*
X025125Y009500D01*
X025064Y009505D01*
X025004Y009507D01*
X023504Y009507D01*
X023444Y009509D01*
X023383Y009514D01*
X023324Y009523D01*
X023265Y009536D01*
X023206Y009552D01*
X023149Y009572D01*
X023094Y009595D01*
X023039Y009622D01*
X022987Y009651D01*
X022936Y009684D01*
X022887Y009720D01*
X022841Y009758D01*
X022797Y009800D01*
X022755Y009844D01*
X022717Y009890D01*
X022681Y009939D01*
X022648Y009990D01*
X022619Y010042D01*
X022592Y010097D01*
X022569Y010152D01*
X022549Y010209D01*
X022533Y010268D01*
X022520Y010327D01*
X022511Y010386D01*
X022506Y010447D01*
X022504Y010507D01*
X022504Y018507D01*
X022506Y018567D01*
X022511Y018628D01*
X022520Y018687D01*
X022533Y018746D01*
X022549Y018805D01*
X022569Y018862D01*
X022592Y018917D01*
X022619Y018972D01*
X022648Y019024D01*
X022681Y019075D01*
X022717Y019124D01*
X022755Y019170D01*
X022797Y019214D01*
X022841Y019256D01*
X022887Y019294D01*
X022936Y019330D01*
X022987Y019363D01*
X023039Y019392D01*
X023094Y019419D01*
X023149Y019442D01*
X023206Y019462D01*
X023265Y019478D01*
X023324Y019491D01*
X023383Y019500D01*
X023444Y019505D01*
X023504Y019507D01*
X025004Y019507D01*
X025064Y019509D01*
X025125Y019514D01*
X025184Y019523D01*
X025243Y019536D01*
X025302Y019552D01*
X025359Y019572D01*
X025414Y019595D01*
X025469Y019622D01*
X025521Y019651D01*
X025572Y019684D01*
X025621Y019720D01*
X025667Y019758D01*
X025711Y019800D01*
X025753Y019844D01*
X025791Y019890D01*
X025827Y019939D01*
X025860Y019990D01*
X025889Y020042D01*
X025916Y020097D01*
X025939Y020152D01*
X025959Y020209D01*
X025975Y020268D01*
X025988Y020327D01*
X025997Y020386D01*
X026002Y020447D01*
X026004Y020507D01*
X026004Y021007D01*
X023579Y021432D02*
X023579Y022043D01*
X023274Y022043D01*
X023172Y021941D01*
X023172Y021738D01*
X023274Y021636D01*
X023579Y021636D01*
X022971Y021534D02*
X022869Y021432D01*
X022564Y021432D01*
X022564Y021331D02*
X022666Y021229D01*
X022768Y021229D01*
X022564Y021331D02*
X022564Y021839D01*
X022364Y021738D02*
X022364Y021534D01*
X022262Y021432D01*
X021956Y021432D01*
X021956Y021331D02*
X021956Y021839D01*
X022262Y021839D01*
X022364Y021738D01*
X022160Y021229D02*
X022058Y021229D01*
X021956Y021331D01*
X021756Y021432D02*
X021756Y021839D01*
X021654Y021839D01*
X021552Y021738D01*
X021451Y021839D01*
X021349Y021738D01*
X021349Y021432D01*
X021552Y021432D02*
X021552Y021738D01*
X021148Y021839D02*
X021148Y021534D01*
X021046Y021432D01*
X020741Y021432D01*
X020741Y021331D02*
X020843Y021229D01*
X020945Y021229D01*
X020741Y021331D02*
X020741Y021839D01*
X019933Y022043D02*
X019526Y021432D01*
X019526Y022043D01*
X019325Y021738D02*
X019223Y021839D01*
X019020Y021839D01*
X018918Y021738D01*
X018918Y021636D01*
X019325Y021636D01*
X019325Y021534D02*
X019325Y021738D01*
X019325Y021534D02*
X019223Y021432D01*
X019020Y021432D01*
X018717Y021432D02*
X018412Y021432D01*
X018310Y021534D01*
X018310Y021738D01*
X018412Y021839D01*
X018717Y021839D01*
X018717Y022043D02*
X018717Y021432D01*
X018109Y021534D02*
X018109Y021839D01*
X018109Y021534D02*
X018008Y021432D01*
X017702Y021432D01*
X017702Y021839D01*
X017502Y022043D02*
X017400Y022043D01*
X017400Y021432D01*
X017502Y021432D02*
X017298Y021432D01*
X017097Y021534D02*
X016995Y021636D01*
X016690Y021636D01*
X016690Y021738D02*
X016690Y021432D01*
X016995Y021432D01*
X017097Y021534D01*
X016995Y021839D02*
X016791Y021839D01*
X016690Y021738D01*
X015881Y021839D02*
X015779Y021738D01*
X015576Y021738D01*
X015474Y021636D01*
X015474Y021534D01*
X015576Y021432D01*
X015779Y021432D01*
X015881Y021534D01*
X015881Y021839D02*
X015881Y021941D01*
X015779Y022043D01*
X015576Y022043D01*
X015474Y021941D01*
X015274Y022043D02*
X014968Y022043D01*
X014866Y021941D01*
X014866Y021738D01*
X014968Y021636D01*
X015274Y021636D01*
X015274Y021432D02*
X015274Y022043D01*
X014666Y022043D02*
X014462Y022043D01*
X014564Y022043D02*
X014564Y021432D01*
X014666Y021432D02*
X014462Y021432D01*
X013653Y021432D02*
X013653Y022043D01*
X013045Y021941D02*
X013045Y021534D01*
X012944Y021432D01*
X012740Y021432D01*
X012638Y021534D01*
X012438Y021432D02*
X012132Y021432D01*
X012031Y021534D01*
X012031Y021941D01*
X012132Y022043D01*
X012438Y022043D01*
X012438Y021432D01*
X012638Y021941D02*
X012740Y022043D01*
X012944Y022043D01*
X013045Y021941D01*
X013246Y021432D02*
X013653Y021432D01*
X011222Y021534D02*
X011120Y021432D01*
X010917Y021432D01*
X010815Y021534D01*
X010815Y021636D01*
X010917Y021738D01*
X011120Y021738D01*
X011222Y021839D01*
X011222Y021941D01*
X011120Y022043D01*
X010917Y022043D01*
X010815Y021941D01*
X010614Y022043D02*
X010614Y021432D01*
X010614Y021738D02*
X010513Y021839D01*
X010309Y021839D01*
X010207Y021738D01*
X010207Y021432D01*
X010007Y021432D02*
X009803Y021432D01*
X009905Y021432D02*
X009905Y021839D01*
X010007Y021839D01*
X009905Y022043D02*
X009905Y022145D01*
X009500Y021839D02*
X009296Y021839D01*
X009195Y021738D01*
X009195Y021636D01*
X009602Y021636D01*
X009602Y021738D02*
X009500Y021839D01*
X009602Y021738D02*
X009602Y021534D01*
X009500Y021432D01*
X009296Y021432D01*
X008994Y021432D02*
X008790Y021432D01*
X008892Y021432D02*
X008892Y022043D01*
X008994Y022043D01*
X008589Y021738D02*
X008487Y021839D01*
X008182Y021839D01*
X008182Y022043D02*
X008182Y021432D01*
X008487Y021432D01*
X008589Y021534D01*
X008589Y021738D01*
X007373Y021636D02*
X007170Y021432D01*
X006966Y021636D01*
X006966Y022043D01*
X006766Y021839D02*
X006562Y022043D01*
X006562Y021432D01*
X006359Y021432D02*
X006766Y021432D01*
X007373Y021636D02*
X007373Y022043D01*
X006158Y021534D02*
X006158Y021432D01*
X006056Y021432D01*
X006056Y021534D01*
X006158Y021534D01*
X005854Y021534D02*
X005447Y021941D01*
X005447Y021534D01*
X005549Y021432D01*
X005752Y021432D01*
X005854Y021534D01*
X005854Y021941D01*
X005752Y022043D01*
X005549Y022043D01*
X005447Y021941D01*
X011504Y024507D02*
X022504Y024507D01*
X022971Y021839D02*
X022971Y021534D01*
X022504Y024507D02*
X022671Y024503D01*
X022837Y024491D01*
X023002Y024471D01*
X023166Y024444D01*
X023329Y024408D01*
X023490Y024365D01*
X023649Y024315D01*
X023805Y024256D01*
X023958Y024191D01*
X024108Y024118D01*
X024254Y024038D01*
X024396Y023951D01*
X024534Y023858D01*
X024668Y023758D01*
X024796Y023652D01*
X024919Y023540D01*
X025037Y023422D01*
X025149Y023299D01*
X025255Y023171D01*
X025355Y023037D01*
X025448Y022899D01*
X025535Y022757D01*
X025615Y022611D01*
X025688Y022461D01*
X025753Y022308D01*
X025812Y022152D01*
X025862Y021993D01*
X025905Y021832D01*
X025941Y021669D01*
X025968Y021505D01*
X025988Y021340D01*
X026000Y021174D01*
X026004Y021007D01*
X019933Y021432D02*
X019933Y022043D01*
X011504Y024507D02*
X011021Y024495D01*
X010539Y024460D01*
X010059Y024402D01*
X009583Y024321D01*
X009111Y024216D01*
X008645Y024089D01*
X008185Y023940D01*
X007733Y023769D01*
X007290Y023576D01*
X006857Y023362D01*
X006434Y023127D01*
X006024Y022872D01*
X005626Y022597D01*
X005242Y022304D01*
X004873Y021992D01*
X004519Y021663D01*
X004181Y021317D01*
X003861Y020955D01*
X003558Y020579D01*
X003274Y020188D01*
X003009Y019783D01*
X002764Y019367D01*
X002540Y018939D01*
X002336Y018501D01*
X002154Y018053D01*
X001993Y017597D01*
X001855Y017134D01*
X001740Y016665D01*
X001647Y016191D01*
X001577Y015712D01*
X001530Y015231D01*
X001507Y014749D01*
X001507Y014265D01*
X001530Y013783D01*
X001577Y013302D01*
X001647Y012823D01*
X001740Y012349D01*
X001855Y011880D01*
X001993Y011417D01*
X002154Y010961D01*
X002336Y010513D01*
X002540Y010075D01*
X002764Y009647D01*
X003009Y009231D01*
X003274Y008826D01*
X003558Y008435D01*
X003861Y008059D01*
X004181Y007697D01*
X004519Y007351D01*
X004873Y007022D01*
X005242Y006710D01*
X005626Y006417D01*
X006024Y006142D01*
X006434Y005887D01*
X006857Y005652D01*
X007290Y005438D01*
X007733Y005245D01*
X008185Y005074D01*
X008645Y004925D01*
X009111Y004798D01*
X009583Y004693D01*
X010059Y004612D01*
X010539Y004554D01*
X011021Y004519D01*
X011504Y004507D01*
D11*
X011747Y019327D02*
X012054Y019634D01*
X012284Y019634D02*
X012284Y019327D01*
X012361Y019327D02*
X012207Y019327D01*
X012054Y019327D02*
X011747Y019634D01*
X012284Y019634D02*
X012361Y019634D01*
X012514Y019558D02*
X012514Y019327D01*
X012514Y019558D02*
X012591Y019634D01*
X012821Y019634D01*
X012821Y019327D01*
X012974Y019404D02*
X012974Y019558D01*
X013051Y019634D01*
X013205Y019634D01*
X013281Y019558D01*
X013281Y019404D01*
X013205Y019327D01*
X013051Y019327D01*
X012974Y019404D01*
X013435Y019634D02*
X013511Y019634D01*
X013665Y019481D01*
X013665Y019634D02*
X013665Y019327D01*
X013818Y019327D02*
X013895Y019404D01*
X013895Y019711D01*
X013972Y019634D02*
X013818Y019634D01*
X013865Y019927D02*
X013865Y020274D01*
X013778Y020274D01*
X013692Y020188D01*
X013605Y020274D01*
X013518Y020188D01*
X013518Y019927D01*
X013692Y019927D02*
X013692Y020188D01*
X013350Y020014D02*
X013263Y020101D01*
X013003Y020101D01*
X013003Y020188D02*
X013003Y019927D01*
X013263Y019927D01*
X013350Y020014D01*
X013263Y020274D02*
X013089Y020274D01*
X013003Y020188D01*
X012834Y020274D02*
X012834Y019927D01*
X012487Y019927D02*
X012487Y020188D01*
X012574Y020274D01*
X012834Y020274D01*
X012284Y019864D02*
X012284Y019788D01*
X012404Y020627D02*
X012144Y020627D01*
X012057Y020714D01*
X012057Y021061D01*
X012144Y021148D01*
X012404Y021148D01*
X012404Y020627D01*
X013089Y020627D02*
X013089Y020888D01*
X013175Y020974D01*
X013435Y020974D01*
X013435Y020627D01*
X013604Y020801D02*
X013951Y020801D01*
X013951Y020888D02*
X013864Y020974D01*
X013691Y020974D01*
X013604Y020888D01*
X013604Y020801D01*
X013691Y020627D02*
X013864Y020627D01*
X013951Y020714D01*
X013951Y020888D01*
X014121Y020974D02*
X014207Y020974D01*
X014381Y020801D01*
X014381Y020974D02*
X014381Y020627D01*
X014209Y020448D02*
X014122Y020448D01*
X014122Y019927D01*
X014209Y019927D02*
X014035Y019927D01*
X014202Y019864D02*
X014202Y019788D01*
X014202Y019634D02*
X014202Y019327D01*
X014279Y019327D02*
X014125Y019327D01*
X014202Y019634D02*
X014279Y019634D01*
X014432Y019634D02*
X014509Y019634D01*
X014662Y019481D01*
X014662Y019634D02*
X014662Y019327D01*
X014816Y019327D02*
X015046Y019327D01*
X015123Y019404D01*
X015046Y019481D01*
X014816Y019481D01*
X014816Y019558D02*
X014816Y019327D01*
X014816Y019558D02*
X014892Y019634D01*
X015046Y019634D01*
X015276Y019481D02*
X015276Y019788D01*
X015239Y019927D02*
X015412Y019927D01*
X015325Y019927D02*
X015325Y020274D01*
X015412Y020274D01*
X015581Y020188D02*
X015581Y020101D01*
X015928Y020101D01*
X015928Y020188D02*
X015841Y020274D01*
X015667Y020274D01*
X015581Y020188D01*
X015667Y019927D02*
X015841Y019927D01*
X015928Y020014D01*
X015928Y020188D01*
X016096Y020448D02*
X016443Y020448D01*
X016270Y020448D02*
X016270Y019927D01*
X016504Y019788D02*
X016504Y019327D01*
X016657Y019327D02*
X016734Y019404D01*
X016734Y019711D01*
X016811Y019634D02*
X016657Y019634D01*
X016504Y019558D02*
X016427Y019634D01*
X016274Y019634D01*
X016197Y019558D01*
X016197Y019327D01*
X015583Y019481D02*
X015430Y019327D01*
X015276Y019481D01*
X015583Y019481D02*
X015583Y019788D01*
X014982Y020014D02*
X014895Y019927D01*
X014982Y020014D02*
X014982Y020361D01*
X015068Y020274D02*
X014895Y020274D01*
X014725Y020188D02*
X014638Y020274D01*
X014464Y020274D01*
X014378Y020188D01*
X014378Y020101D01*
X014725Y020101D01*
X014725Y020014D02*
X014725Y020188D01*
X014725Y020014D02*
X014638Y019927D01*
X014464Y019927D01*
X015325Y020448D02*
X015325Y020535D01*
X015239Y020627D02*
X015326Y020714D01*
X015239Y020801D01*
X014979Y020801D01*
X014979Y020888D02*
X014979Y020627D01*
X015239Y020627D01*
X015495Y020627D02*
X015495Y021148D01*
X015239Y020974D02*
X015066Y020974D01*
X014979Y020888D01*
X014810Y020974D02*
X014810Y020627D01*
X014810Y020801D02*
X014637Y020974D01*
X014550Y020974D01*
X015495Y020627D02*
X015668Y020801D01*
X015842Y020627D01*
X015842Y021148D01*
X016528Y020974D02*
X016528Y020888D01*
X016615Y020888D01*
X016615Y020974D01*
X016528Y020974D01*
X016784Y020974D02*
X016784Y020541D01*
X016871Y020454D01*
X016957Y020454D01*
X017044Y020627D02*
X016784Y020627D01*
X016615Y020627D02*
X016615Y020714D01*
X016528Y020714D01*
X016528Y020627D01*
X016615Y020627D01*
X017044Y020627D02*
X017131Y020714D01*
X017131Y020974D01*
X017299Y020974D02*
X017386Y020888D01*
X017646Y020888D01*
X017386Y020888D02*
X017299Y020801D01*
X017299Y020714D01*
X017386Y020627D01*
X017646Y020627D01*
X017646Y021148D01*
X017386Y021148D01*
X017299Y021061D01*
X017299Y020974D01*
X017214Y020274D02*
X017128Y020188D01*
X017128Y019927D01*
X017041Y019864D02*
X017041Y019788D01*
X017041Y019634D02*
X017041Y019327D01*
X017117Y019327D02*
X016964Y019327D01*
X017271Y019404D02*
X017271Y019634D01*
X017117Y019634D02*
X017041Y019634D01*
X017271Y019404D02*
X017348Y019327D01*
X017424Y019404D01*
X017501Y019327D01*
X017578Y019404D01*
X017578Y019634D01*
X017643Y019927D02*
X017903Y019927D01*
X017990Y020014D01*
X017903Y020101D01*
X017643Y020101D01*
X017643Y020188D02*
X017643Y019927D01*
X017475Y019927D02*
X017475Y020274D01*
X017214Y020274D01*
X017643Y020188D02*
X017730Y020274D01*
X017903Y020274D01*
X018159Y020274D02*
X018332Y019927D01*
X018506Y020274D01*
X018674Y020448D02*
X019021Y020448D01*
X019021Y019927D01*
X018674Y019927D01*
X018652Y019634D02*
X018882Y019634D01*
X018959Y019558D01*
X018882Y019481D01*
X018729Y019481D01*
X018652Y019404D01*
X018729Y019327D01*
X018959Y019327D01*
X019112Y019327D02*
X019112Y019634D01*
X019112Y019327D02*
X019343Y019327D01*
X019419Y019404D01*
X019419Y019634D01*
X019706Y019927D02*
X019966Y019927D01*
X020053Y020014D01*
X020053Y020188D01*
X019966Y020274D01*
X019706Y020274D01*
X019706Y020448D02*
X019706Y019927D01*
X020033Y019634D02*
X020110Y019634D01*
X020263Y019481D01*
X020263Y019634D02*
X020263Y019327D01*
X020417Y019404D02*
X020417Y019558D01*
X020493Y019634D01*
X020647Y019634D01*
X020724Y019558D01*
X020724Y019404D01*
X020647Y019327D01*
X020493Y019327D01*
X020417Y019404D01*
X020568Y019927D02*
X020568Y020274D01*
X020308Y020274D01*
X020221Y020188D01*
X020221Y019927D01*
X020737Y019927D02*
X020737Y020274D01*
X020910Y020448D01*
X021084Y020274D01*
X021084Y019927D01*
X021184Y019788D02*
X020877Y019788D01*
X021031Y019558D02*
X021184Y019558D01*
X021184Y019788D02*
X021184Y019327D01*
X021084Y020188D02*
X020737Y020188D01*
X020824Y020627D02*
X020737Y020714D01*
X020737Y021061D01*
X020824Y021148D01*
X021084Y021148D01*
X021084Y020627D01*
X020824Y020627D01*
X020568Y020714D02*
X020568Y020888D01*
X020482Y020974D01*
X020308Y020974D01*
X020221Y020888D01*
X020221Y020801D01*
X020568Y020801D01*
X020568Y020714D02*
X020482Y020627D01*
X020308Y020627D01*
X020053Y020627D02*
X019792Y020627D01*
X019706Y020714D01*
X019792Y020801D01*
X019966Y020801D01*
X020053Y020888D01*
X019966Y020974D01*
X019706Y020974D01*
X019537Y020974D02*
X019450Y020974D01*
X019450Y020627D01*
X019364Y020627D02*
X019537Y020627D01*
X019193Y020714D02*
X019107Y020627D01*
X018846Y020627D01*
X018846Y020541D02*
X018846Y020974D01*
X019107Y020974D01*
X019193Y020888D01*
X019193Y020714D01*
X019020Y020454D02*
X018933Y020454D01*
X018846Y020541D01*
X018678Y020627D02*
X018678Y020974D01*
X018417Y020974D01*
X018331Y020888D01*
X018331Y020627D01*
X018848Y020188D02*
X019021Y020188D01*
X018422Y019634D02*
X018268Y019634D01*
X018192Y019558D01*
X018192Y019481D01*
X018499Y019481D01*
X018499Y019558D02*
X018422Y019634D01*
X018499Y019558D02*
X018499Y019404D01*
X018422Y019327D01*
X018268Y019327D01*
X019450Y021148D02*
X019450Y021235D01*
X011373Y021061D02*
X011373Y020714D01*
X011286Y020627D01*
X011113Y020627D01*
X011026Y020714D01*
X011026Y020888D01*
X011199Y020888D01*
X011026Y021061D02*
X011113Y021148D01*
X011286Y021148D01*
X011373Y021061D01*
X010857Y020974D02*
X010857Y020627D01*
X010857Y020801D02*
X010684Y020974D01*
X010597Y020974D01*
X010428Y020974D02*
X010428Y020627D01*
X010428Y020801D02*
X010254Y020974D01*
X010167Y020974D01*
X009998Y020888D02*
X009911Y020974D01*
X009738Y020974D01*
X009651Y020888D01*
X009651Y020801D01*
X009998Y020801D01*
X009998Y020714D02*
X009998Y020888D01*
X009998Y020714D02*
X009911Y020627D01*
X009738Y020627D01*
X009482Y020714D02*
X009482Y020888D01*
X009396Y020974D01*
X009222Y020974D01*
X009135Y020888D01*
X009135Y020801D01*
X009482Y020801D01*
X009482Y020714D02*
X009396Y020627D01*
X009222Y020627D01*
X008967Y020627D02*
X008967Y020974D01*
X008706Y020974D01*
X008620Y020888D01*
X008620Y020627D01*
X008451Y020714D02*
X008364Y020627D01*
X008278Y020714D01*
X008191Y020627D01*
X008104Y020714D01*
X008104Y020974D01*
X007849Y020974D02*
X007675Y020974D01*
X007589Y020888D01*
X007589Y020627D01*
X007849Y020627D01*
X007935Y020714D01*
X007849Y020801D01*
X007589Y020801D01*
X007420Y020714D02*
X007420Y020974D01*
X007420Y020714D02*
X007333Y020627D01*
X007073Y020627D01*
X007073Y020541D02*
X007160Y020454D01*
X007246Y020454D01*
X007073Y020541D02*
X007073Y020974D01*
X008451Y020974D02*
X008451Y020714D01*
X008678Y019788D02*
X008678Y019327D01*
X008831Y019327D02*
X008524Y019327D01*
X008371Y019558D02*
X008064Y019558D01*
X007910Y019558D02*
X007604Y019558D01*
X007680Y019788D02*
X007680Y019327D01*
X007450Y019327D02*
X007450Y019788D01*
X007297Y019634D01*
X007143Y019788D01*
X007143Y019327D01*
X006990Y019481D02*
X006836Y019327D01*
X006683Y019481D01*
X006683Y019788D01*
X006529Y019711D02*
X006529Y019404D01*
X006453Y019327D01*
X006299Y019327D01*
X006223Y019404D01*
X006223Y019558D01*
X006376Y019558D01*
X006223Y019711D02*
X006299Y019788D01*
X006453Y019788D01*
X006529Y019711D01*
X006069Y019788D02*
X005916Y019788D01*
X005992Y019788D02*
X005992Y019327D01*
X005916Y019327D02*
X006069Y019327D01*
X005762Y019558D02*
X005455Y019558D01*
X005302Y019711D02*
X005225Y019788D01*
X005072Y019788D01*
X004995Y019711D01*
X005302Y019404D01*
X005225Y019327D01*
X005072Y019327D01*
X004995Y019404D01*
X004995Y019711D01*
X004841Y019711D02*
X004841Y019634D01*
X004765Y019558D01*
X004611Y019558D01*
X004535Y019481D01*
X004535Y019404D01*
X004611Y019327D01*
X004765Y019327D01*
X004841Y019404D01*
X004841Y019481D01*
X004765Y019558D01*
X004611Y019558D02*
X004535Y019634D01*
X004535Y019711D01*
X004611Y019788D01*
X004765Y019788D01*
X004841Y019711D01*
X005302Y019711D02*
X005302Y019404D01*
X006990Y019481D02*
X006990Y019788D01*
X007680Y019788D02*
X007910Y019558D01*
X008141Y019788D02*
X008141Y019327D01*
X008371Y019558D02*
X008141Y019788D01*
X008678Y019788D02*
X008831Y019634D01*
X008985Y019711D02*
X009061Y019788D01*
X009215Y019788D01*
X009292Y019711D01*
X009292Y019404D01*
X009215Y019327D01*
X009061Y019327D01*
X008985Y019404D01*
X009445Y019558D02*
X009752Y019558D01*
X009905Y019558D02*
X010059Y019558D01*
X009905Y019558D02*
X009905Y019404D01*
X009982Y019327D01*
X010136Y019327D01*
X010212Y019404D01*
X010212Y019711D01*
X010136Y019788D01*
X009982Y019788D01*
X009905Y019711D01*
X010366Y019711D02*
X010366Y019404D01*
X010442Y019327D01*
X010596Y019327D01*
X010673Y019404D01*
X010673Y019711D01*
X010596Y019788D01*
X010442Y019788D01*
X010366Y019711D01*
X010826Y019711D02*
X010903Y019788D01*
X011056Y019788D01*
X011133Y019711D01*
X011133Y019404D01*
X011056Y019327D01*
X010903Y019327D01*
X010826Y019404D01*
D12*
X008871Y020576D02*
X008873Y020603D01*
X008879Y020630D01*
X008888Y020656D01*
X008901Y020680D01*
X008917Y020703D01*
X008936Y020722D01*
X008958Y020739D01*
X008982Y020753D01*
X009007Y020763D01*
X009034Y020770D01*
X009061Y020773D01*
X009089Y020772D01*
X009116Y020767D01*
X009142Y020759D01*
X009166Y020747D01*
X009189Y020731D01*
X009210Y020713D01*
X009227Y020692D01*
X009242Y020668D01*
X009253Y020643D01*
X009261Y020617D01*
X009265Y020590D01*
X009265Y020562D01*
X009261Y020535D01*
X009253Y020509D01*
X009242Y020484D01*
X009227Y020460D01*
X009210Y020439D01*
X009189Y020421D01*
X009167Y020405D01*
X009142Y020393D01*
X009116Y020385D01*
X009089Y020380D01*
X009061Y020379D01*
X009034Y020382D01*
X009007Y020389D01*
X008982Y020399D01*
X008958Y020413D01*
X008936Y020430D01*
X008917Y020449D01*
X008901Y020472D01*
X008888Y020496D01*
X008879Y020522D01*
X008873Y020549D01*
X008871Y020576D01*
X004985Y012544D02*
X004987Y012572D01*
X004993Y012600D01*
X005002Y012626D01*
X005015Y012652D01*
X005031Y012675D01*
X005051Y012695D01*
X005073Y012713D01*
X005097Y012728D01*
X005123Y012739D01*
X005150Y012747D01*
X005178Y012751D01*
X005206Y012751D01*
X005234Y012747D01*
X005261Y012739D01*
X005287Y012728D01*
X005311Y012713D01*
X005333Y012695D01*
X005353Y012675D01*
X005369Y012652D01*
X005382Y012626D01*
X005391Y012600D01*
X005397Y012572D01*
X005399Y012544D01*
X005397Y012516D01*
X005391Y012488D01*
X005382Y012462D01*
X005369Y012436D01*
X005353Y012413D01*
X005333Y012393D01*
X005311Y012375D01*
X005287Y012360D01*
X005261Y012349D01*
X005234Y012341D01*
X005206Y012337D01*
X005178Y012337D01*
X005150Y012341D01*
X005123Y012349D01*
X005097Y012360D01*
X005073Y012375D01*
X005051Y012393D01*
X005031Y012413D01*
X005015Y012436D01*
X005002Y012462D01*
X004993Y012488D01*
X004987Y012516D01*
X004985Y012544D01*
X006096Y011483D02*
X006098Y011507D01*
X006104Y011530D01*
X006113Y011552D01*
X006126Y011572D01*
X006141Y011590D01*
X006160Y011605D01*
X006181Y011617D01*
X006203Y011625D01*
X006226Y011630D01*
X006250Y011631D01*
X006274Y011628D01*
X006296Y011621D01*
X006318Y011611D01*
X006338Y011598D01*
X006355Y011581D01*
X006369Y011562D01*
X006380Y011541D01*
X006388Y011518D01*
X006392Y011495D01*
X006392Y011471D01*
X006388Y011448D01*
X006380Y011425D01*
X006369Y011404D01*
X006355Y011385D01*
X006338Y011368D01*
X006318Y011355D01*
X006296Y011345D01*
X006274Y011338D01*
X006250Y011335D01*
X006226Y011336D01*
X006203Y011341D01*
X006181Y011349D01*
X006160Y011361D01*
X006141Y011376D01*
X006126Y011394D01*
X006113Y011414D01*
X006104Y011436D01*
X006098Y011459D01*
X006096Y011483D01*
X008871Y008469D02*
X008873Y008496D01*
X008879Y008523D01*
X008888Y008549D01*
X008901Y008573D01*
X008917Y008596D01*
X008936Y008615D01*
X008958Y008632D01*
X008982Y008646D01*
X009007Y008656D01*
X009034Y008663D01*
X009061Y008666D01*
X009089Y008665D01*
X009116Y008660D01*
X009142Y008652D01*
X009166Y008640D01*
X009189Y008624D01*
X009210Y008606D01*
X009227Y008585D01*
X009242Y008561D01*
X009253Y008536D01*
X009261Y008510D01*
X009265Y008483D01*
X009265Y008455D01*
X009261Y008428D01*
X009253Y008402D01*
X009242Y008377D01*
X009227Y008353D01*
X009210Y008332D01*
X009189Y008314D01*
X009167Y008298D01*
X009142Y008286D01*
X009116Y008278D01*
X009089Y008273D01*
X009061Y008272D01*
X009034Y008275D01*
X009007Y008282D01*
X008982Y008292D01*
X008958Y008306D01*
X008936Y008323D01*
X008917Y008342D01*
X008901Y008365D01*
X008888Y008389D01*
X008879Y008415D01*
X008873Y008442D01*
X008871Y008469D01*
X024910Y008469D02*
X024912Y008496D01*
X024918Y008523D01*
X024927Y008549D01*
X024940Y008573D01*
X024956Y008596D01*
X024975Y008615D01*
X024997Y008632D01*
X025021Y008646D01*
X025046Y008656D01*
X025073Y008663D01*
X025100Y008666D01*
X025128Y008665D01*
X025155Y008660D01*
X025181Y008652D01*
X025205Y008640D01*
X025228Y008624D01*
X025249Y008606D01*
X025266Y008585D01*
X025281Y008561D01*
X025292Y008536D01*
X025300Y008510D01*
X025304Y008483D01*
X025304Y008455D01*
X025300Y008428D01*
X025292Y008402D01*
X025281Y008377D01*
X025266Y008353D01*
X025249Y008332D01*
X025228Y008314D01*
X025206Y008298D01*
X025181Y008286D01*
X025155Y008278D01*
X025128Y008273D01*
X025100Y008272D01*
X025073Y008275D01*
X025046Y008282D01*
X025021Y008292D01*
X024997Y008306D01*
X024975Y008323D01*
X024956Y008342D01*
X024940Y008365D01*
X024927Y008389D01*
X024918Y008415D01*
X024912Y008442D01*
X024910Y008469D01*
X024910Y020576D02*
X024912Y020603D01*
X024918Y020630D01*
X024927Y020656D01*
X024940Y020680D01*
X024956Y020703D01*
X024975Y020722D01*
X024997Y020739D01*
X025021Y020753D01*
X025046Y020763D01*
X025073Y020770D01*
X025100Y020773D01*
X025128Y020772D01*
X025155Y020767D01*
X025181Y020759D01*
X025205Y020747D01*
X025228Y020731D01*
X025249Y020713D01*
X025266Y020692D01*
X025281Y020668D01*
X025292Y020643D01*
X025300Y020617D01*
X025304Y020590D01*
X025304Y020562D01*
X025300Y020535D01*
X025292Y020509D01*
X025281Y020484D01*
X025266Y020460D01*
X025249Y020439D01*
X025228Y020421D01*
X025206Y020405D01*
X025181Y020393D01*
X025155Y020385D01*
X025128Y020380D01*
X025100Y020379D01*
X025073Y020382D01*
X025046Y020389D01*
X025021Y020399D01*
X024997Y020413D01*
X024975Y020430D01*
X024956Y020449D01*
X024940Y020472D01*
X024927Y020496D01*
X024918Y020522D01*
X024912Y020549D01*
X024910Y020576D01*
D13*
X014874Y016432D02*
X014874Y016297D01*
X014529Y016057D01*
X014499Y016012D01*
X014529Y015757D01*
X014844Y015577D01*
X014904Y015457D01*
X014739Y015067D01*
X014664Y015037D01*
X014424Y015082D01*
X014334Y015067D01*
X014199Y014947D01*
X014184Y014857D01*
X014289Y014557D01*
X014259Y014482D01*
X013944Y014317D01*
X013854Y014317D01*
X013614Y014512D01*
X013539Y014527D01*
X013389Y014497D01*
X013314Y014197D01*
X013254Y014137D01*
X012894Y014182D01*
X012849Y014242D01*
X012789Y014497D01*
X012744Y014542D01*
X012534Y014602D01*
X012474Y014602D01*
X012279Y014422D01*
X012189Y014392D01*
X011919Y014587D01*
X011919Y014677D01*
X011994Y014932D01*
X011979Y014992D01*
X011799Y015157D01*
X011529Y015112D01*
X011439Y015142D01*
X011304Y015442D01*
X011349Y015532D01*
X011544Y015697D01*
X011514Y015907D01*
X011469Y015967D01*
X011274Y016072D01*
X011229Y016132D01*
X011259Y016492D01*
X011319Y016567D01*
X011604Y016627D01*
X011664Y016777D01*
X011649Y016822D01*
X011499Y017077D01*
X011499Y017182D01*
X011739Y017467D01*
X011949Y017467D01*
X012204Y017317D01*
X012339Y017407D01*
X012354Y017812D01*
X012414Y017857D01*
X012879Y017917D01*
X012999Y017842D01*
X013089Y017512D01*
X013134Y017452D01*
X013314Y017452D01*
X013359Y017512D01*
X013614Y017782D01*
X013719Y017782D01*
X014139Y017512D01*
X014154Y017407D01*
X014034Y017092D01*
X014049Y017017D01*
X014229Y016837D01*
X014319Y016837D01*
X014604Y016897D01*
X014694Y016867D01*
X014874Y016432D01*
X014079Y016102D02*
X013959Y016402D01*
X013869Y016537D01*
X013794Y016642D01*
X013719Y016717D01*
X013674Y016492D01*
X013644Y016402D01*
X013584Y016357D01*
X013539Y016357D01*
X013434Y016402D01*
X013449Y016237D01*
X013479Y015997D01*
X013509Y015712D01*
X013539Y015502D01*
X013599Y015412D01*
X013674Y015337D01*
X013764Y015292D01*
X013869Y015262D01*
X013929Y015337D01*
X013989Y015427D01*
X014049Y015547D01*
X014094Y015727D01*
X014094Y016012D01*
X014079Y016102D01*
X012954Y015472D02*
X012969Y015367D01*
X012984Y015247D01*
X013014Y015112D01*
X013044Y015022D01*
X013119Y014962D01*
X012969Y014962D01*
X012669Y015052D01*
X012504Y015157D01*
X012324Y015292D01*
X012204Y015442D01*
X012099Y015607D01*
X012039Y015742D01*
X012009Y015877D01*
X011994Y016042D01*
X011994Y016177D01*
X011994Y016042D02*
X012069Y015922D01*
X012159Y015802D01*
X012339Y015682D01*
X012609Y015577D01*
X012729Y015532D01*
X012909Y015517D01*
X012954Y015472D01*
X012864Y016042D02*
X012789Y016057D01*
X012669Y016132D01*
X012594Y016222D01*
X012579Y016372D01*
X012594Y016462D01*
X012654Y016537D01*
X012759Y016537D01*
X012804Y016492D01*
X012864Y016042D01*
X012759Y016987D02*
X012459Y016957D01*
X012354Y016882D01*
X012279Y016807D01*
X012459Y016957D02*
X012549Y017032D01*
X012789Y017092D01*
X013059Y017077D01*
X013284Y016987D01*
X013209Y016972D01*
X012759Y016987D01*
D14*
X011004Y008407D02*
X011004Y007807D01*
X011006Y007790D01*
X011010Y007773D01*
X011017Y007757D01*
X011027Y007743D01*
X011040Y007730D01*
X011054Y007720D01*
X011070Y007713D01*
X011087Y007709D01*
X011104Y007707D01*
X012104Y007707D01*
X012121Y007709D01*
X012138Y007713D01*
X012154Y007720D01*
X012168Y007730D01*
X012181Y007743D01*
X012191Y007757D01*
X012198Y007773D01*
X012202Y007790D01*
X012204Y007807D01*
X012204Y008407D01*
X012202Y008424D01*
X012198Y008441D01*
X012191Y008457D01*
X012181Y008471D01*
X012168Y008484D01*
X012154Y008494D01*
X012138Y008501D01*
X012121Y008505D01*
X012104Y008507D01*
X011104Y008507D01*
X011087Y008505D01*
X011070Y008501D01*
X011054Y008494D01*
X011040Y008484D01*
X011027Y008471D01*
X011017Y008457D01*
X011010Y008441D01*
X011006Y008424D01*
X011004Y008407D01*
M02*
