G75*
G70*
%OFA0B0*%
%FSLAX24Y24*%
%IPPOS*%
%LPD*%
%AMOC8*
5,1,8,0,0,1.08239X$1,22.5*
%
%ADD10R,0.0356X0.0434*%
%ADD11R,0.0592X0.0671*%
%ADD12R,0.0631X0.0474*%
%ADD13C,0.0375*%
%ADD14C,0.0493*%
%ADD15R,0.0671X0.0277*%
%ADD16C,0.0474*%
%ADD17C,0.0820*%
%ADD18R,0.0330X0.0580*%
%ADD19C,0.0780*%
%ADD20R,0.0552X0.0297*%
%ADD21R,0.0552X0.0237*%
D10*
X015748Y011207D03*
X015748Y011707D03*
X015748Y012207D03*
X015748Y012707D03*
X015748Y013207D03*
X015748Y013707D03*
X015748Y014207D03*
X015748Y014707D03*
X016260Y014707D03*
X016260Y014207D03*
X016260Y013707D03*
X016260Y013207D03*
X016260Y012707D03*
X016260Y012207D03*
X016260Y011707D03*
X016260Y011207D03*
X019148Y014307D03*
X019660Y014307D03*
X016260Y015907D03*
X016260Y016407D03*
X015748Y016407D03*
X015748Y015907D03*
X008760Y015907D03*
X008760Y016407D03*
X008760Y016907D03*
X008248Y016907D03*
X008248Y016407D03*
X008248Y015907D03*
X008248Y015407D03*
X008760Y015407D03*
X008760Y013907D03*
X008760Y013407D03*
X008760Y012907D03*
X008248Y012907D03*
X008248Y013407D03*
X008248Y013907D03*
D11*
X012730Y008107D03*
X013478Y008107D03*
X016230Y007507D03*
X016978Y007507D03*
D12*
X019437Y015133D03*
X018571Y015507D03*
X019437Y015881D03*
X019437Y016633D03*
X018571Y017007D03*
X019437Y017381D03*
D13*
X006244Y011483D03*
D14*
X005192Y012544D03*
D15*
X021938Y012485D03*
X021938Y012800D03*
X021938Y013115D03*
X021938Y013430D03*
X021938Y013745D03*
X021938Y014060D03*
X021938Y014375D03*
X021938Y014690D03*
X021938Y015005D03*
X021938Y012170D03*
X021938Y011855D03*
X021938Y011540D03*
D16*
X025107Y008469D03*
X009068Y008469D03*
X009068Y020576D03*
X025107Y020576D03*
D17*
X008411Y005851D03*
X007704Y006558D03*
X006997Y007265D03*
X006290Y007972D03*
X005583Y008679D03*
X004875Y009386D03*
X004168Y010093D03*
X003461Y010800D03*
X002754Y011507D03*
X002754Y012507D03*
X002754Y013507D03*
X002754Y014507D03*
X002754Y015507D03*
X002754Y016507D03*
X002754Y017507D03*
X003461Y018214D03*
X004168Y018922D03*
X004875Y019629D03*
X005583Y020336D03*
X006290Y021043D03*
X006997Y021750D03*
X007704Y022457D03*
X008411Y023164D03*
X009411Y023164D03*
X010411Y023164D03*
X011411Y023164D03*
X012411Y023164D03*
X013411Y023164D03*
X013411Y005851D03*
X012411Y005851D03*
X011411Y005851D03*
X010411Y005851D03*
X009411Y005851D03*
D18*
X011254Y008107D03*
X011604Y008107D03*
X011954Y008107D03*
D19*
X005625Y014886D03*
X004233Y016278D03*
X007375Y017678D03*
X005983Y019070D03*
D20*
X014292Y008081D03*
X014292Y007707D03*
X014292Y007333D03*
X015316Y007333D03*
X015316Y008081D03*
D21*
X017362Y012090D03*
X017362Y012346D03*
X017362Y012601D03*
X017362Y012857D03*
X017362Y013113D03*
X017362Y013369D03*
X017362Y013625D03*
X019646Y013625D03*
X019646Y013369D03*
X019646Y013113D03*
X019646Y012857D03*
X019646Y012601D03*
X019646Y012346D03*
X019646Y012090D03*
M02*
