G75*
G70*
%OFA0B0*%
%FSLAX24Y24*%
%IPPOS*%
%LPD*%
%AMOC8*
5,1,8,0,0,1.08239X$1,22.5*
%
%ADD10R,0.0728X0.0433*%
%ADD11R,0.0748X0.0787*%
%ADD12C,0.0740*%
%ADD13C,0.0700*%
%ADD14C,0.0310*%
%ADD15C,0.0080*%
%ADD16C,0.0120*%
%ADD17C,0.0160*%
D10*
G36*
X004775Y010596D02*
X005289Y011110D01*
X005595Y010804D01*
X005081Y010290D01*
X004775Y010596D01*
G37*
G36*
X004385Y010986D02*
X004899Y011500D01*
X005205Y011194D01*
X004691Y010680D01*
X004385Y010986D01*
G37*
G36*
X003995Y011375D02*
X004509Y011889D01*
X004815Y011583D01*
X004301Y011069D01*
X003995Y011375D01*
G37*
G36*
X005846Y013227D02*
X006360Y013741D01*
X006666Y013435D01*
X006152Y012921D01*
X005846Y013227D01*
G37*
G36*
X006236Y012837D02*
X006750Y013351D01*
X007056Y013045D01*
X006542Y012531D01*
X006236Y012837D01*
G37*
G36*
X006626Y012447D02*
X007140Y012961D01*
X007446Y012655D01*
X006932Y012141D01*
X006626Y012447D01*
G37*
D11*
G36*
X004030Y013174D02*
X004559Y013703D01*
X005114Y013148D01*
X004585Y012619D01*
X004030Y013174D01*
G37*
G36*
X006328Y010878D02*
X006857Y011407D01*
X007412Y010852D01*
X006883Y010323D01*
X006328Y010878D01*
G37*
D12*
X004875Y009386D03*
X004168Y010093D03*
X003461Y010800D03*
X002754Y011507D03*
X002754Y012507D03*
X002754Y013507D03*
X002754Y014507D03*
X002754Y015507D03*
X002754Y016507D03*
X002754Y017507D03*
X003461Y018214D03*
X004168Y018922D03*
X004875Y019629D03*
X005583Y020336D03*
X006290Y021043D03*
X006997Y021750D03*
X007704Y022457D03*
X008411Y023164D03*
X009411Y023164D03*
X010411Y023164D03*
X011411Y023164D03*
X012411Y023164D03*
X013411Y023164D03*
X005583Y008679D03*
X006290Y007972D03*
X006997Y007265D03*
X007704Y006558D03*
X008411Y005851D03*
X009411Y005851D03*
X010411Y005851D03*
X011411Y005851D03*
X012411Y005851D03*
X013411Y005851D03*
D13*
X005625Y014886D03*
X004233Y016278D03*
X007375Y017678D03*
X005983Y019070D03*
D14*
X008504Y018507D03*
X008504Y017507D03*
X009504Y017507D03*
X009504Y016507D03*
X010504Y017507D03*
X011504Y017507D03*
X009504Y015507D03*
X007804Y013907D03*
X007804Y013407D03*
X007804Y012907D03*
X009504Y013507D03*
X011004Y013107D03*
X011004Y012707D03*
X010504Y011507D03*
X010504Y010507D03*
X010504Y009507D03*
X010504Y008507D03*
X010504Y007507D03*
X013504Y009007D03*
X014504Y009007D03*
X016204Y008407D03*
X017504Y009007D03*
X019004Y011507D03*
X018004Y012607D03*
X018504Y013307D03*
X017904Y013607D03*
X018904Y013807D03*
X020204Y013807D03*
X020204Y014307D03*
X021504Y015507D03*
X021504Y016507D03*
X021504Y017507D03*
X021504Y018507D03*
X021504Y019507D03*
X021504Y020507D03*
X021504Y021507D03*
X020504Y022507D03*
X019504Y023507D03*
X018504Y023507D03*
X017504Y023507D03*
X016504Y023507D03*
X015504Y023507D03*
X014504Y023507D03*
X014504Y021507D03*
X015004Y017507D03*
X016504Y017507D03*
X015004Y016007D03*
X015204Y014707D03*
X015204Y014207D03*
X014704Y014207D03*
X013104Y013907D03*
X012504Y013907D03*
X012604Y013407D03*
X016804Y013107D03*
X016804Y012707D03*
X016804Y014207D03*
X020504Y011507D03*
X021304Y012507D03*
X021504Y008507D03*
X021504Y007507D03*
X020504Y006507D03*
X019504Y005507D03*
X018504Y005507D03*
X017504Y005507D03*
X016504Y005507D03*
X015504Y005507D03*
X014504Y005507D03*
X014504Y006507D03*
X015504Y006507D03*
X017504Y006507D03*
X008504Y011507D03*
X006504Y009507D03*
X003904Y014007D03*
D15*
X006442Y006134D02*
X007488Y005584D01*
X008593Y005165D01*
X009740Y004883D01*
X009740Y004883D01*
X010913Y004740D01*
X011504Y004722D01*
X022415Y004722D01*
X022504Y004722D01*
X022826Y004738D01*
X023457Y004864D01*
X024052Y005110D01*
X024588Y005468D01*
X025043Y005923D01*
X025401Y006459D01*
X025647Y007054D01*
X025773Y007685D01*
X025789Y008007D01*
X025789Y008096D01*
X025789Y008418D01*
X025789Y008507D01*
X025779Y008630D01*
X025703Y008864D01*
X025559Y009062D01*
X025360Y009207D01*
X025127Y009283D01*
X025004Y009292D01*
X023593Y009292D01*
X023504Y009292D01*
X023499Y009292D01*
X023415Y009292D01*
X023415Y009292D01*
X023311Y009292D01*
X023311Y009292D01*
X022946Y009411D01*
X022945Y009411D01*
X022634Y009638D01*
X022634Y009638D01*
X022408Y009949D01*
X022408Y009949D01*
X022289Y010315D01*
X022289Y010418D01*
X022289Y010418D01*
X022289Y018596D01*
X022289Y018596D01*
X022289Y018700D01*
X022289Y018700D01*
X022408Y019066D01*
X022408Y019066D01*
X022634Y019377D01*
X022634Y019377D01*
X022634Y019377D01*
X022945Y019603D01*
X022946Y019603D01*
X023311Y019722D01*
X023311Y019722D01*
X023415Y019722D01*
X023415Y019722D01*
X023492Y019722D01*
X023504Y019722D01*
X023593Y019722D01*
X024915Y019722D01*
X025004Y019722D01*
X025127Y019732D01*
X025360Y019808D01*
X025559Y019952D01*
X025703Y020151D01*
X025779Y020385D01*
X025789Y020507D01*
X025789Y020596D01*
X025789Y021008D01*
X025773Y021329D01*
X025647Y021961D01*
X025401Y022556D01*
X025043Y023091D01*
X024588Y023547D01*
X024052Y023905D01*
X023458Y024151D01*
X022826Y024277D01*
X022504Y024292D01*
X022415Y024292D01*
X011593Y024292D01*
X011504Y024292D01*
X010913Y024275D01*
X009740Y024132D01*
X008593Y023849D01*
X007488Y023430D01*
X006442Y022881D01*
X005469Y022210D01*
X004585Y021426D01*
X003801Y020542D01*
X003130Y019570D01*
X002581Y018523D01*
X002162Y017418D01*
X001879Y016271D01*
X001737Y015098D01*
X001737Y013917D01*
X001879Y012744D01*
X002162Y011596D01*
X002581Y010491D01*
X003130Y009445D01*
X003801Y008473D01*
X004585Y007588D01*
X005469Y006805D01*
X006442Y006134D01*
X006507Y006099D02*
X007480Y006099D01*
X007508Y006085D02*
X007584Y006060D01*
X007664Y006048D01*
X007664Y006518D01*
X007744Y006518D01*
X007744Y006598D01*
X007664Y006598D01*
X007664Y007068D01*
X007664Y007068D01*
X007584Y007055D01*
X007508Y007030D01*
X007436Y006994D01*
X007423Y006984D01*
X007433Y006997D01*
X007469Y007069D01*
X007494Y007145D01*
X007507Y007225D01*
X007037Y007225D01*
X007037Y007305D01*
X007507Y007305D01*
X007494Y007384D01*
X007469Y007461D01*
X007433Y007532D01*
X007386Y007597D01*
X007329Y007654D01*
X007264Y007701D01*
X007192Y007737D01*
X007116Y007762D01*
X007037Y007775D01*
X007037Y007775D01*
X007037Y007305D01*
X006957Y007305D01*
X006957Y007775D01*
X006957Y007775D01*
X006877Y007762D01*
X006801Y007737D01*
X006729Y007701D01*
X006664Y007654D01*
X006608Y007597D01*
X006561Y007532D01*
X006524Y007461D01*
X006499Y007384D01*
X006487Y007305D01*
X006487Y007305D01*
X006956Y007305D01*
X006956Y007225D01*
X006487Y007225D01*
X006487Y007225D01*
X006499Y007145D01*
X006524Y007069D01*
X006561Y006997D01*
X006608Y006933D01*
X006664Y006876D01*
X006729Y006829D01*
X006801Y006792D01*
X006877Y006767D01*
X006957Y006755D01*
X006957Y007225D01*
X007037Y007225D01*
X007037Y006755D01*
X007116Y006767D01*
X007192Y006792D01*
X007264Y006829D01*
X007277Y006838D01*
X007268Y006825D01*
X007231Y006753D01*
X007206Y006677D01*
X007194Y006598D01*
X007194Y006598D01*
X007664Y006598D01*
X007664Y006518D01*
X007194Y006518D01*
X007194Y006518D01*
X007206Y006438D01*
X007231Y006362D01*
X007268Y006290D01*
X007315Y006225D01*
X007372Y006169D01*
X007436Y006122D01*
X007508Y006085D01*
X007664Y006099D02*
X007744Y006099D01*
X007744Y006048D02*
X007823Y006060D01*
X007900Y006085D01*
X007971Y006122D01*
X007985Y006131D01*
X007975Y006118D01*
X007938Y006046D01*
X007913Y005970D01*
X007901Y005891D01*
X007901Y005810D01*
X007913Y005731D01*
X007938Y005655D01*
X007975Y005583D01*
X008022Y005518D01*
X008354Y005850D01*
X008411Y005794D01*
X008468Y005850D01*
X008800Y005518D01*
X008800Y005518D01*
X008847Y005583D01*
X008884Y005655D01*
X008908Y005731D01*
X008921Y005810D01*
X008921Y005891D01*
X008908Y005970D01*
X008884Y006046D01*
X008847Y006118D01*
X008800Y006183D01*
X008800Y006183D01*
X008468Y005851D01*
X008411Y005907D01*
X008743Y006239D01*
X008743Y006240D01*
X008678Y006287D01*
X008607Y006323D01*
X008530Y006348D01*
X008451Y006361D01*
X008371Y006361D01*
X008291Y006348D01*
X008215Y006323D01*
X008144Y006287D01*
X008130Y006277D01*
X008140Y006290D01*
X008176Y006362D01*
X008201Y006438D01*
X008214Y006518D01*
X007744Y006518D01*
X007744Y006048D01*
X007744Y006048D01*
X007664Y006048D02*
X007664Y006048D01*
X007664Y006178D02*
X007744Y006178D01*
X007744Y006256D02*
X007664Y006256D01*
X007664Y006335D02*
X007744Y006335D01*
X007744Y006414D02*
X007664Y006414D01*
X007664Y006492D02*
X007744Y006492D01*
X007744Y006571D02*
X025447Y006571D01*
X025480Y006649D02*
X008206Y006649D01*
X008201Y006677D02*
X008176Y006753D01*
X008140Y006825D01*
X008093Y006890D01*
X008036Y006947D01*
X007971Y006994D01*
X007900Y007030D01*
X007823Y007055D01*
X007744Y007068D01*
X007744Y007068D01*
X007744Y006598D01*
X008214Y006598D01*
X008201Y006677D01*
X008185Y006728D02*
X025512Y006728D01*
X025545Y006806D02*
X008150Y006806D01*
X008097Y006885D02*
X025577Y006885D01*
X025610Y006963D02*
X008013Y006963D01*
X007864Y007042D02*
X025643Y007042D01*
X025661Y007120D02*
X007486Y007120D01*
X007503Y007199D02*
X025676Y007199D01*
X025692Y007277D02*
X007037Y007277D01*
X007037Y007199D02*
X006957Y007199D01*
X006956Y007277D02*
X004936Y007277D01*
X005024Y007199D02*
X006491Y007199D01*
X006507Y007120D02*
X005113Y007120D01*
X005202Y007042D02*
X006538Y007042D01*
X006585Y006963D02*
X005290Y006963D01*
X005379Y006885D02*
X006655Y006885D01*
X006773Y006806D02*
X005468Y006806D01*
X005581Y006728D02*
X007223Y006728D01*
X007220Y006806D02*
X007258Y006806D01*
X007202Y006649D02*
X005695Y006649D01*
X005809Y006571D02*
X007664Y006571D01*
X007664Y006649D02*
X007744Y006649D01*
X007744Y006728D02*
X007664Y006728D01*
X007664Y006806D02*
X007744Y006806D01*
X007744Y006885D02*
X007664Y006885D01*
X007664Y006963D02*
X007744Y006963D01*
X007744Y007042D02*
X007664Y007042D01*
X007544Y007042D02*
X007455Y007042D01*
X007507Y007225D02*
X007507Y007225D01*
X007507Y007305D02*
X007507Y007305D01*
X007499Y007356D02*
X025708Y007356D01*
X025723Y007435D02*
X007478Y007435D01*
X007443Y007513D02*
X025739Y007513D01*
X025754Y007592D02*
X007390Y007592D01*
X007306Y007670D02*
X025770Y007670D01*
X025776Y007749D02*
X007157Y007749D01*
X007037Y007749D02*
X006957Y007749D01*
X006957Y007670D02*
X007037Y007670D01*
X007037Y007592D02*
X006957Y007592D01*
X006957Y007513D02*
X007037Y007513D01*
X007037Y007435D02*
X006957Y007435D01*
X006957Y007356D02*
X007037Y007356D01*
X007037Y007120D02*
X006957Y007120D01*
X006957Y007042D02*
X007037Y007042D01*
X007037Y006963D02*
X006957Y006963D01*
X006957Y006885D02*
X007037Y006885D01*
X007037Y006806D02*
X006957Y006806D01*
X006957Y006755D02*
X006957Y006755D01*
X007037Y006755D02*
X007037Y006755D01*
X007198Y006492D02*
X005922Y006492D01*
X006036Y006414D02*
X007214Y006414D01*
X007245Y006335D02*
X006150Y006335D01*
X006264Y006256D02*
X007292Y006256D01*
X007362Y006178D02*
X006378Y006178D01*
X006657Y006021D02*
X007930Y006021D01*
X007927Y006099D02*
X007965Y006099D01*
X007909Y005942D02*
X006806Y005942D01*
X006956Y005864D02*
X007901Y005864D01*
X007905Y005785D02*
X007106Y005785D01*
X007255Y005707D02*
X007921Y005707D01*
X007952Y005628D02*
X007405Y005628D01*
X007580Y005550D02*
X007999Y005550D01*
X008022Y005518D02*
X008022Y005518D01*
X008053Y005550D02*
X008166Y005550D01*
X008132Y005628D02*
X008245Y005628D01*
X008210Y005707D02*
X008324Y005707D01*
X008289Y005785D02*
X008402Y005785D01*
X008411Y005794D02*
X008079Y005462D01*
X008144Y005414D01*
X008215Y005378D01*
X008291Y005353D01*
X008371Y005341D01*
X008451Y005341D01*
X008530Y005353D01*
X008607Y005378D01*
X008678Y005414D01*
X008743Y005462D01*
X008411Y005794D01*
X008420Y005785D02*
X008533Y005785D01*
X008498Y005707D02*
X008611Y005707D01*
X008577Y005628D02*
X008690Y005628D01*
X008655Y005550D02*
X008768Y005550D01*
X008823Y005550D02*
X009047Y005550D01*
X009012Y005584D02*
X009145Y005452D01*
X009317Y005381D01*
X009504Y005381D01*
X009677Y005452D01*
X009809Y005584D01*
X009881Y005757D01*
X009881Y005944D01*
X009809Y006117D01*
X009677Y006249D01*
X009504Y006321D01*
X009317Y006321D01*
X009145Y006249D01*
X009012Y006117D01*
X008941Y005944D01*
X008941Y005757D01*
X009012Y005584D01*
X008994Y005628D02*
X008870Y005628D01*
X008900Y005707D02*
X008962Y005707D01*
X008941Y005785D02*
X008917Y005785D01*
X008921Y005864D02*
X008941Y005864D01*
X008941Y005942D02*
X008913Y005942D01*
X008892Y006021D02*
X008973Y006021D01*
X009005Y006099D02*
X008856Y006099D01*
X008803Y006178D02*
X009073Y006178D01*
X009162Y006256D02*
X008720Y006256D01*
X008682Y006178D02*
X008795Y006178D01*
X008716Y006099D02*
X008603Y006099D01*
X008638Y006021D02*
X008525Y006021D01*
X008559Y005942D02*
X008446Y005942D01*
X008454Y005864D02*
X008481Y005864D01*
X008734Y005471D02*
X009126Y005471D01*
X009289Y005392D02*
X008635Y005392D01*
X008743Y005462D02*
X008743Y005462D01*
X008628Y005157D02*
X024122Y005157D01*
X024240Y005235D02*
X008409Y005235D01*
X008201Y005314D02*
X024357Y005314D01*
X024475Y005392D02*
X013533Y005392D01*
X013504Y005381D02*
X013677Y005452D01*
X013809Y005584D01*
X013881Y005757D01*
X013881Y005944D01*
X013809Y006117D01*
X013677Y006249D01*
X013504Y006321D01*
X013317Y006321D01*
X013145Y006249D01*
X013012Y006117D01*
X012941Y005944D01*
X012941Y005757D01*
X013012Y005584D01*
X013145Y005452D01*
X013317Y005381D01*
X013504Y005381D01*
X013696Y005471D02*
X024591Y005471D01*
X024669Y005550D02*
X013774Y005550D01*
X013827Y005628D02*
X024748Y005628D01*
X024826Y005707D02*
X013860Y005707D01*
X013881Y005785D02*
X024905Y005785D01*
X024984Y005864D02*
X013881Y005864D01*
X013881Y005942D02*
X025056Y005942D01*
X025108Y006021D02*
X013849Y006021D01*
X013816Y006099D02*
X025161Y006099D01*
X025213Y006178D02*
X013748Y006178D01*
X013659Y006256D02*
X025266Y006256D01*
X025318Y006335D02*
X012570Y006335D01*
X012607Y006323D02*
X012530Y006348D01*
X012451Y006361D01*
X012451Y006361D01*
X012451Y005891D01*
X012371Y005891D01*
X012371Y006361D01*
X012371Y006361D01*
X012291Y006348D01*
X012215Y006323D01*
X012143Y006287D01*
X012079Y006240D01*
X012022Y006183D01*
X011975Y006118D01*
X011938Y006046D01*
X011913Y005970D01*
X011901Y005891D01*
X011901Y005891D01*
X012371Y005891D01*
X012371Y005811D01*
X011901Y005811D01*
X011901Y005810D01*
X011913Y005731D01*
X011938Y005655D01*
X011975Y005583D01*
X012022Y005518D01*
X012079Y005462D01*
X012143Y005414D01*
X012215Y005378D01*
X012291Y005353D01*
X012371Y005341D01*
X012371Y005810D01*
X012451Y005810D01*
X012451Y005341D01*
X012530Y005353D01*
X012607Y005378D01*
X012678Y005414D01*
X012743Y005462D01*
X012800Y005518D01*
X012847Y005583D01*
X012883Y005655D01*
X012908Y005731D01*
X012921Y005810D01*
X012921Y005811D01*
X012451Y005811D01*
X012451Y005891D01*
X012921Y005891D01*
X012908Y005970D01*
X012883Y006046D01*
X012847Y006118D01*
X012800Y006183D01*
X012743Y006240D01*
X012678Y006287D01*
X012607Y006323D01*
X012720Y006256D02*
X013162Y006256D01*
X013073Y006178D02*
X012803Y006178D01*
X012856Y006099D02*
X013005Y006099D01*
X012973Y006021D02*
X012892Y006021D01*
X012913Y005942D02*
X012941Y005942D01*
X012921Y005891D02*
X012921Y005891D01*
X012941Y005864D02*
X012451Y005864D01*
X012451Y005942D02*
X012371Y005942D01*
X012371Y005864D02*
X011881Y005864D01*
X011881Y005942D02*
X011909Y005942D01*
X011881Y005944D02*
X011809Y006117D01*
X011677Y006249D01*
X011504Y006321D01*
X011317Y006321D01*
X011145Y006249D01*
X011012Y006117D01*
X010941Y005944D01*
X010941Y005757D01*
X011012Y005584D01*
X011145Y005452D01*
X011317Y005381D01*
X011504Y005381D01*
X011677Y005452D01*
X011809Y005584D01*
X011881Y005757D01*
X011881Y005944D01*
X011849Y006021D02*
X011930Y006021D01*
X011965Y006099D02*
X011816Y006099D01*
X011748Y006178D02*
X012018Y006178D01*
X012102Y006256D02*
X011659Y006256D01*
X011881Y005785D02*
X011905Y005785D01*
X011921Y005707D02*
X011860Y005707D01*
X011827Y005628D02*
X011952Y005628D01*
X011999Y005550D02*
X011774Y005550D01*
X011696Y005471D02*
X012069Y005471D01*
X012187Y005392D02*
X011533Y005392D01*
X011289Y005392D02*
X010635Y005392D01*
X010607Y005378D02*
X010678Y005414D01*
X010743Y005462D01*
X010800Y005518D01*
X010847Y005583D01*
X010883Y005655D01*
X010908Y005731D01*
X010921Y005810D01*
X010921Y005811D01*
X010451Y005811D01*
X010451Y005891D01*
X010371Y005891D01*
X010371Y006361D01*
X010371Y006361D01*
X010291Y006348D01*
X010215Y006323D01*
X010144Y006287D01*
X010079Y006240D01*
X010022Y006183D01*
X009975Y006118D01*
X009938Y006046D01*
X009913Y005970D01*
X009901Y005891D01*
X009901Y005891D01*
X010371Y005891D01*
X010371Y005811D01*
X009901Y005811D01*
X009901Y005810D01*
X009913Y005731D01*
X009938Y005655D01*
X009975Y005583D01*
X010022Y005518D01*
X010079Y005462D01*
X010144Y005414D01*
X010215Y005378D01*
X010291Y005353D01*
X010371Y005341D01*
X010371Y005810D01*
X010451Y005810D01*
X010451Y005341D01*
X010530Y005353D01*
X010607Y005378D01*
X010451Y005392D02*
X010371Y005392D01*
X010371Y005341D02*
X010371Y005341D01*
X010451Y005341D02*
X010451Y005341D01*
X010451Y005471D02*
X010371Y005471D01*
X010371Y005550D02*
X010451Y005550D01*
X010451Y005628D02*
X010371Y005628D01*
X010371Y005707D02*
X010451Y005707D01*
X010451Y005785D02*
X010371Y005785D01*
X010371Y005864D02*
X009881Y005864D01*
X009881Y005942D02*
X009909Y005942D01*
X009930Y006021D02*
X009849Y006021D01*
X009816Y006099D02*
X009965Y006099D01*
X010018Y006178D02*
X009748Y006178D01*
X009659Y006256D02*
X010102Y006256D01*
X010251Y006335D02*
X008570Y006335D01*
X008251Y006335D02*
X008163Y006335D01*
X008193Y006414D02*
X025371Y006414D01*
X025415Y006492D02*
X008210Y006492D01*
X008214Y006518D02*
X008214Y006518D01*
X008214Y006598D02*
X008214Y006598D01*
X006836Y007749D02*
X006706Y007749D01*
X006688Y007706D02*
X006760Y007878D01*
X006760Y008065D01*
X006701Y008207D01*
X008962Y010467D01*
X009044Y010549D01*
X009044Y011942D01*
X011669Y014567D01*
X014986Y014567D01*
X014988Y014563D01*
X015059Y014491D01*
X015141Y014457D01*
X015059Y014424D01*
X014988Y014352D01*
X014949Y014258D01*
X014949Y014157D01*
X014988Y014063D01*
X015059Y013991D01*
X015153Y013952D01*
X015255Y013952D01*
X015348Y013991D01*
X015420Y014063D01*
X015422Y014067D01*
X016586Y014067D01*
X016588Y014063D01*
X016659Y013991D01*
X016753Y013952D01*
X016855Y013952D01*
X016948Y013991D01*
X017020Y014063D01*
X017059Y014157D01*
X017059Y014258D01*
X017020Y014352D01*
X016948Y014424D01*
X016855Y014462D01*
X016753Y014462D01*
X016659Y014424D01*
X016588Y014352D01*
X016586Y014347D01*
X015422Y014347D01*
X015420Y014352D01*
X015348Y014424D01*
X015267Y014457D01*
X015348Y014491D01*
X015420Y014563D01*
X015459Y014657D01*
X015459Y014758D01*
X015420Y014852D01*
X015348Y014924D01*
X015255Y014962D01*
X015153Y014962D01*
X015059Y014924D01*
X014988Y014852D01*
X014986Y014847D01*
X011669Y014847D01*
X011553Y014847D01*
X008764Y012058D01*
X008764Y011942D01*
X008764Y010665D01*
X006494Y008396D01*
X006383Y008442D01*
X006196Y008442D01*
X006023Y008370D01*
X005891Y008238D01*
X005820Y008065D01*
X005820Y007878D01*
X005891Y007706D01*
X006023Y007573D01*
X006196Y007502D01*
X006383Y007502D01*
X006556Y007573D01*
X006688Y007706D01*
X006687Y007670D02*
X006653Y007670D01*
X006604Y007592D02*
X006574Y007592D01*
X006551Y007513D02*
X006410Y007513D01*
X006516Y007435D02*
X004758Y007435D01*
X004670Y007513D02*
X006169Y007513D01*
X006005Y007592D02*
X004582Y007592D01*
X004512Y007670D02*
X005926Y007670D01*
X005873Y007749D02*
X004443Y007749D01*
X004373Y007827D02*
X005841Y007827D01*
X005820Y007906D02*
X004304Y007906D01*
X004234Y007984D02*
X005820Y007984D01*
X005820Y008063D02*
X004164Y008063D01*
X004095Y008141D02*
X005851Y008141D01*
X005884Y008220D02*
X005703Y008220D01*
X005676Y008209D02*
X005849Y008280D01*
X005981Y008413D01*
X006033Y008539D01*
X006417Y008539D01*
X006533Y008539D01*
X007862Y009867D01*
X007944Y009949D01*
X007944Y011725D01*
X007944Y011841D01*
X007359Y012426D01*
X007546Y012614D01*
X007546Y012697D01*
X007654Y012697D01*
X007659Y012691D02*
X007753Y012652D01*
X007855Y012652D01*
X007948Y012691D01*
X008020Y012763D01*
X008059Y012857D01*
X008059Y012958D01*
X008020Y013052D01*
X007948Y013124D01*
X007867Y013157D01*
X007948Y013191D01*
X008020Y013263D01*
X008059Y013357D01*
X008059Y013458D01*
X008020Y013552D01*
X007948Y013624D01*
X007867Y013657D01*
X007948Y013691D01*
X008020Y013763D01*
X008059Y013857D01*
X008059Y013958D01*
X008020Y014052D01*
X007948Y014124D01*
X007855Y014162D01*
X007753Y014162D01*
X007659Y014124D01*
X007588Y014052D01*
X007586Y014047D01*
X006891Y014047D01*
X006775Y014047D01*
X006486Y013758D01*
X006402Y013841D01*
X006319Y013841D01*
X005746Y013268D01*
X005746Y013185D01*
X006111Y012820D01*
X006136Y012820D01*
X006136Y012795D01*
X006500Y012430D01*
X006525Y012430D01*
X006525Y012405D01*
X006890Y012041D01*
X006973Y012041D01*
X007161Y012228D01*
X007664Y011725D01*
X007664Y010065D01*
X006417Y008819D01*
X006033Y008819D01*
X005981Y008945D01*
X005849Y009077D01*
X005676Y009149D01*
X005489Y009149D01*
X005316Y009077D01*
X005184Y008945D01*
X005113Y008772D01*
X005113Y008585D01*
X005184Y008413D01*
X005316Y008280D01*
X005489Y008209D01*
X005676Y008209D01*
X005867Y008299D02*
X005952Y008299D01*
X005945Y008377D02*
X006040Y008377D01*
X005999Y008456D02*
X006554Y008456D01*
X006633Y008534D02*
X006031Y008534D01*
X006021Y008848D02*
X006447Y008848D01*
X006525Y008927D02*
X005989Y008927D01*
X005921Y009005D02*
X006604Y009005D01*
X006683Y009084D02*
X005833Y009084D01*
X005583Y008679D02*
X006475Y008679D01*
X007804Y010007D01*
X007804Y011783D01*
X007036Y012551D01*
X007392Y012907D01*
X007804Y012907D01*
X008037Y013011D02*
X009717Y013011D01*
X009795Y013090D02*
X007982Y013090D01*
X007893Y013168D02*
X009874Y013168D01*
X009952Y013247D02*
X008004Y013247D01*
X008046Y013325D02*
X010031Y013325D01*
X010109Y013404D02*
X008059Y013404D01*
X008049Y013482D02*
X010188Y013482D01*
X010267Y013561D02*
X008011Y013561D01*
X007910Y013639D02*
X010345Y013639D01*
X010424Y013718D02*
X007975Y013718D01*
X008034Y013797D02*
X010502Y013797D01*
X010581Y013875D02*
X008059Y013875D01*
X008059Y013954D02*
X010659Y013954D01*
X010738Y014032D02*
X008028Y014032D01*
X007961Y014111D02*
X010816Y014111D01*
X010895Y014189D02*
X005520Y014189D01*
X005599Y014111D02*
X007647Y014111D01*
X007804Y013907D02*
X006833Y013907D01*
X006256Y013331D01*
X006039Y013561D02*
X005744Y013561D01*
X005744Y013639D02*
X006118Y013639D01*
X006196Y013718D02*
X005744Y013718D01*
X005744Y013797D02*
X006275Y013797D01*
X006447Y013797D02*
X006524Y013797D01*
X006603Y013875D02*
X005744Y013875D01*
X005744Y013849D02*
X005744Y013965D01*
X003644Y016065D01*
X003644Y016699D01*
X003644Y016815D01*
X003172Y017288D01*
X003224Y017414D01*
X003224Y017601D01*
X003152Y017774D01*
X003020Y017906D01*
X002848Y017977D01*
X002661Y017977D01*
X002488Y017906D01*
X002356Y017774D01*
X002284Y017601D01*
X002284Y017414D01*
X002356Y017241D01*
X002488Y017109D01*
X002661Y017037D01*
X002848Y017037D01*
X002974Y017090D01*
X003364Y016699D01*
X003364Y016095D01*
X003172Y016288D01*
X003224Y016414D01*
X003224Y016601D01*
X003152Y016774D01*
X003020Y016906D01*
X002847Y016977D01*
X002660Y016977D01*
X002488Y016906D01*
X002355Y016774D01*
X002284Y016601D01*
X002284Y016414D01*
X002355Y016241D01*
X002488Y016109D01*
X002660Y016037D01*
X002847Y016037D01*
X002974Y016090D01*
X003264Y015799D01*
X003264Y012349D01*
X003346Y012267D01*
X004046Y011568D01*
X003895Y011416D01*
X003895Y011333D01*
X004244Y010984D01*
X004244Y010967D01*
X004254Y010931D01*
X004272Y010899D01*
X004410Y010761D01*
X004738Y011089D01*
X004795Y011033D01*
X004467Y010705D01*
X004604Y010567D01*
X004636Y010548D01*
X004672Y010539D01*
X004689Y010539D01*
X005039Y010189D01*
X005122Y010189D01*
X005695Y010763D01*
X005695Y010846D01*
X005618Y010923D01*
X005662Y010967D01*
X005744Y011049D01*
X005744Y013849D01*
X005744Y013954D02*
X006682Y013954D01*
X006760Y014032D02*
X005677Y014032D01*
X005604Y013907D02*
X003504Y016007D01*
X003504Y016757D01*
X002754Y017507D01*
X002423Y017174D02*
X002102Y017174D01*
X002121Y017252D02*
X002351Y017252D01*
X002318Y017331D02*
X002140Y017331D01*
X002160Y017410D02*
X002286Y017410D01*
X002284Y017488D02*
X002188Y017488D01*
X002218Y017567D02*
X002284Y017567D01*
X002302Y017645D02*
X002248Y017645D01*
X002278Y017724D02*
X002335Y017724D01*
X002308Y017802D02*
X002384Y017802D01*
X002337Y017881D02*
X002463Y017881D01*
X002367Y017959D02*
X002617Y017959D01*
X002397Y018038D02*
X003026Y018038D01*
X003058Y017959D02*
X002891Y017959D01*
X003063Y017948D02*
X003195Y017816D01*
X003368Y017744D01*
X003555Y017744D01*
X003727Y017816D01*
X003860Y017948D01*
X003931Y018121D01*
X003931Y018308D01*
X003860Y018481D01*
X003727Y018613D01*
X003555Y018684D01*
X003368Y018684D01*
X003195Y018613D01*
X003063Y018481D01*
X002991Y018308D01*
X002991Y018121D01*
X003063Y017948D01*
X003045Y017881D02*
X003130Y017881D01*
X003124Y017802D02*
X003228Y017802D01*
X003173Y017724D02*
X006925Y017724D01*
X006925Y017768D02*
X006925Y017589D01*
X006993Y017423D01*
X007120Y017297D01*
X007285Y017228D01*
X007464Y017228D01*
X007630Y017297D01*
X007756Y017423D01*
X007825Y017589D01*
X007825Y017768D01*
X007756Y017933D01*
X007630Y018060D01*
X007464Y018128D01*
X007285Y018128D01*
X007120Y018060D01*
X006993Y017933D01*
X006925Y017768D01*
X006939Y017802D02*
X003694Y017802D01*
X003792Y017881D02*
X006972Y017881D01*
X007020Y017959D02*
X003864Y017959D01*
X003897Y018038D02*
X007098Y018038D01*
X007257Y018116D02*
X003929Y018116D01*
X003931Y018195D02*
X022289Y018195D01*
X022289Y018116D02*
X007492Y018116D01*
X007651Y018038D02*
X022289Y018038D01*
X022289Y017959D02*
X007730Y017959D01*
X007778Y017881D02*
X022289Y017881D01*
X022289Y017802D02*
X007810Y017802D01*
X007825Y017724D02*
X022289Y017724D01*
X022289Y017645D02*
X007825Y017645D01*
X007816Y017567D02*
X022289Y017567D01*
X022289Y017488D02*
X007783Y017488D01*
X007742Y017410D02*
X022289Y017410D01*
X022289Y017331D02*
X007664Y017331D01*
X007523Y017252D02*
X022289Y017252D01*
X022289Y017174D02*
X003285Y017174D01*
X003207Y017252D02*
X007226Y017252D01*
X007085Y017331D02*
X003190Y017331D01*
X003222Y017410D02*
X007007Y017410D01*
X006966Y017488D02*
X003224Y017488D01*
X003224Y017567D02*
X006934Y017567D01*
X006925Y017645D02*
X003206Y017645D01*
X002993Y018116D02*
X002427Y018116D01*
X002456Y018195D02*
X002991Y018195D01*
X002991Y018274D02*
X002486Y018274D01*
X002516Y018352D02*
X003009Y018352D01*
X003042Y018431D02*
X002546Y018431D01*
X002576Y018509D02*
X003091Y018509D01*
X003170Y018588D02*
X002615Y018588D01*
X002656Y018666D02*
X003324Y018666D01*
X003598Y018666D02*
X003765Y018666D01*
X003770Y018655D02*
X003902Y018523D01*
X004075Y018452D01*
X004262Y018452D01*
X004435Y018523D01*
X004567Y018655D01*
X004638Y018828D01*
X004638Y019015D01*
X004567Y019188D01*
X004435Y019320D01*
X004262Y019392D01*
X004075Y019392D01*
X003902Y019320D01*
X003770Y019188D01*
X003698Y019015D01*
X003698Y018828D01*
X003770Y018655D01*
X003753Y018588D02*
X003837Y018588D01*
X003831Y018509D02*
X003936Y018509D01*
X003880Y018431D02*
X022289Y018431D01*
X022289Y018509D02*
X004401Y018509D01*
X004499Y018588D02*
X005896Y018588D01*
X005868Y018592D02*
X005944Y018580D01*
X006021Y018580D01*
X006097Y018592D01*
X006171Y018616D01*
X006239Y018651D01*
X006301Y018695D01*
X005983Y019013D01*
X006039Y019070D01*
X005983Y019127D01*
X006301Y019445D01*
X006239Y019489D01*
X006171Y019524D01*
X006097Y019548D01*
X006021Y019560D01*
X005944Y019560D01*
X005868Y019548D01*
X005795Y019524D01*
X005726Y019489D01*
X005665Y019445D01*
X005983Y019127D01*
X005926Y019070D01*
X005983Y019013D01*
X005665Y018695D01*
X005726Y018651D01*
X005795Y018616D01*
X005868Y018592D01*
X005705Y018666D02*
X004571Y018666D01*
X004604Y018745D02*
X005714Y018745D01*
X005679Y018823D02*
X005793Y018823D01*
X005758Y018902D02*
X005871Y018902D01*
X005837Y018980D02*
X005950Y018980D01*
X006016Y018980D02*
X006129Y018980D01*
X006094Y018902D02*
X006207Y018902D01*
X006173Y018823D02*
X006286Y018823D01*
X006251Y018745D02*
X022304Y018745D01*
X022289Y018666D02*
X006261Y018666D01*
X006357Y018752D02*
X006402Y018813D01*
X006437Y018882D01*
X006461Y018955D01*
X006473Y019031D01*
X006473Y019109D01*
X006461Y019185D01*
X006437Y019258D01*
X006402Y019327D01*
X006357Y019388D01*
X006039Y019070D01*
X006357Y018752D01*
X006407Y018823D02*
X022329Y018823D01*
X022355Y018902D02*
X006443Y018902D01*
X006465Y018980D02*
X022380Y018980D01*
X022406Y019059D02*
X006473Y019059D01*
X006468Y019138D02*
X022460Y019138D01*
X022517Y019216D02*
X006450Y019216D01*
X006418Y019295D02*
X022574Y019295D01*
X022631Y019373D02*
X006368Y019373D01*
X006342Y019373D02*
X006229Y019373D01*
X006264Y019295D02*
X006151Y019295D01*
X006185Y019216D02*
X006072Y019216D01*
X006107Y019138D02*
X005994Y019138D01*
X005972Y019138D02*
X005859Y019138D01*
X005893Y019216D02*
X005780Y019216D01*
X005815Y019295D02*
X005701Y019295D01*
X005736Y019373D02*
X005623Y019373D01*
X005608Y019388D02*
X005564Y019327D01*
X005529Y019258D01*
X005505Y019185D01*
X005493Y019109D01*
X005493Y019031D01*
X005505Y018955D01*
X005529Y018882D01*
X005564Y018813D01*
X005608Y018752D01*
X005926Y019070D01*
X005608Y019388D01*
X005597Y019373D02*
X005278Y019373D01*
X005274Y019362D02*
X005345Y019535D01*
X005345Y019722D01*
X005274Y019895D01*
X005142Y020027D01*
X004969Y020099D01*
X004782Y020099D01*
X004609Y020027D01*
X004477Y019895D01*
X004405Y019722D01*
X004405Y019535D01*
X004477Y019362D01*
X004609Y019230D01*
X004782Y019159D01*
X004969Y019159D01*
X005142Y019230D01*
X005274Y019362D01*
X005206Y019295D02*
X005547Y019295D01*
X005515Y019216D02*
X005107Y019216D01*
X005311Y019452D02*
X005674Y019452D01*
X005813Y019530D02*
X005343Y019530D01*
X005345Y019609D02*
X022962Y019609D01*
X022845Y019530D02*
X006152Y019530D01*
X006291Y019452D02*
X022737Y019452D01*
X023204Y019687D02*
X005345Y019687D01*
X005327Y019766D02*
X025231Y019766D01*
X025411Y019844D02*
X005295Y019844D01*
X005246Y019923D02*
X005351Y019923D01*
X005316Y019937D02*
X005489Y019866D01*
X005676Y019866D01*
X005849Y019937D01*
X005981Y020070D01*
X006052Y020242D01*
X006052Y020429D01*
X005981Y020602D01*
X005849Y020734D01*
X005676Y020806D01*
X005489Y020806D01*
X005316Y020734D01*
X005184Y020602D01*
X005113Y020429D01*
X005113Y020242D01*
X005184Y020070D01*
X005316Y019937D01*
X005252Y020001D02*
X005167Y020001D01*
X005180Y020080D02*
X005014Y020080D01*
X005147Y020159D02*
X003537Y020159D01*
X003591Y020237D02*
X005115Y020237D01*
X005113Y020316D02*
X003645Y020316D01*
X003699Y020394D02*
X005113Y020394D01*
X005131Y020473D02*
X003754Y020473D01*
X003810Y020551D02*
X005163Y020551D01*
X005212Y020630D02*
X003879Y020630D01*
X003949Y020708D02*
X005290Y020708D01*
X005444Y020787D02*
X004018Y020787D01*
X004088Y020865D02*
X005854Y020865D01*
X005887Y020787D02*
X005721Y020787D01*
X005891Y020777D02*
X005820Y020949D01*
X005820Y021136D01*
X005891Y021309D01*
X006023Y021441D01*
X006196Y021513D01*
X006383Y021513D01*
X006556Y021441D01*
X006688Y021309D01*
X006760Y021136D01*
X006760Y020949D01*
X006688Y020777D01*
X006556Y020644D01*
X006383Y020573D01*
X006196Y020573D01*
X006023Y020644D01*
X005891Y020777D01*
X005875Y020708D02*
X005959Y020708D01*
X005953Y020630D02*
X006058Y020630D01*
X006002Y020551D02*
X008681Y020551D01*
X008681Y020499D02*
X008740Y020356D01*
X008849Y020248D01*
X008991Y020189D01*
X009145Y020189D01*
X009287Y020248D01*
X009396Y020356D01*
X009455Y020499D01*
X009455Y020652D01*
X009396Y020795D01*
X009287Y020903D01*
X009145Y020962D01*
X008991Y020962D01*
X008849Y020903D01*
X008740Y020795D01*
X008681Y020652D01*
X008681Y020499D01*
X008692Y020473D02*
X006034Y020473D01*
X006052Y020394D02*
X008724Y020394D01*
X008780Y020316D02*
X006052Y020316D01*
X006050Y020237D02*
X008874Y020237D01*
X009262Y020237D02*
X024913Y020237D01*
X024888Y020248D02*
X025030Y020189D01*
X025184Y020189D01*
X025326Y020248D01*
X025435Y020356D01*
X025494Y020499D01*
X025494Y020652D01*
X025435Y020795D01*
X025326Y020903D01*
X025184Y020962D01*
X025030Y020962D01*
X024888Y020903D01*
X024779Y020795D01*
X024720Y020652D01*
X024720Y020499D01*
X024779Y020356D01*
X024888Y020248D01*
X024820Y020316D02*
X009355Y020316D01*
X009411Y020394D02*
X024763Y020394D01*
X024731Y020473D02*
X009444Y020473D01*
X009455Y020551D02*
X024720Y020551D01*
X024720Y020630D02*
X009455Y020630D01*
X009431Y020708D02*
X024743Y020708D01*
X024776Y020787D02*
X009399Y020787D01*
X009325Y020865D02*
X024850Y020865D01*
X024986Y020944D02*
X009189Y020944D01*
X008947Y020944D02*
X006757Y020944D01*
X006760Y021023D02*
X025788Y021023D01*
X025784Y021101D02*
X006760Y021101D01*
X006742Y021180D02*
X025780Y021180D01*
X025777Y021258D02*
X006709Y021258D01*
X006660Y021337D02*
X006766Y021337D01*
X006730Y021351D02*
X006903Y021280D01*
X007090Y021280D01*
X007263Y021351D01*
X007395Y021484D01*
X007467Y021656D01*
X007467Y021843D01*
X007395Y022016D01*
X007263Y022148D01*
X007090Y022220D01*
X006903Y022220D01*
X006730Y022148D01*
X006598Y022016D01*
X006527Y021843D01*
X006527Y021656D01*
X006598Y021484D01*
X006730Y021351D01*
X006667Y021415D02*
X006582Y021415D01*
X006594Y021494D02*
X006429Y021494D01*
X006561Y021572D02*
X004750Y021572D01*
X004838Y021651D02*
X006529Y021651D01*
X006527Y021729D02*
X004927Y021729D01*
X005016Y021808D02*
X006527Y021808D01*
X006545Y021887D02*
X005104Y021887D01*
X005193Y021965D02*
X006577Y021965D01*
X006626Y022044D02*
X005282Y022044D01*
X005370Y022122D02*
X006704Y022122D01*
X006857Y022201D02*
X005459Y022201D01*
X005570Y022279D02*
X007269Y022279D01*
X007301Y022201D02*
X007137Y022201D01*
X007305Y022191D02*
X007438Y022059D01*
X007610Y021987D01*
X007797Y021987D01*
X007970Y022059D01*
X008102Y022191D01*
X008174Y022364D01*
X008174Y022551D01*
X008102Y022723D01*
X007970Y022855D01*
X007797Y022927D01*
X007610Y022927D01*
X007438Y022855D01*
X007305Y022723D01*
X007234Y022551D01*
X007234Y022364D01*
X007305Y022191D01*
X007289Y022122D02*
X007374Y022122D01*
X007368Y022044D02*
X007474Y022044D01*
X007416Y021965D02*
X025646Y021965D01*
X025662Y021887D02*
X007449Y021887D01*
X007467Y021808D02*
X025678Y021808D01*
X025694Y021729D02*
X007467Y021729D01*
X007464Y021651D02*
X025709Y021651D01*
X025725Y021572D02*
X007432Y021572D01*
X007399Y021494D02*
X025740Y021494D01*
X025756Y021415D02*
X007327Y021415D01*
X007227Y021337D02*
X025772Y021337D01*
X025789Y020944D02*
X025228Y020944D01*
X025364Y020865D02*
X025789Y020865D01*
X025789Y020787D02*
X025438Y020787D01*
X025471Y020708D02*
X025789Y020708D01*
X025789Y020630D02*
X025494Y020630D01*
X025494Y020551D02*
X025789Y020551D01*
X025786Y020473D02*
X025483Y020473D01*
X025451Y020394D02*
X025780Y020394D01*
X025757Y020316D02*
X025394Y020316D01*
X025301Y020237D02*
X025731Y020237D01*
X025706Y020159D02*
X006018Y020159D01*
X005985Y020080D02*
X025652Y020080D01*
X025595Y020001D02*
X005913Y020001D01*
X005814Y019923D02*
X025519Y019923D01*
X025613Y022044D02*
X007934Y022044D01*
X008034Y022122D02*
X025581Y022122D01*
X025548Y022201D02*
X008106Y022201D01*
X008139Y022279D02*
X025516Y022279D01*
X025483Y022358D02*
X008171Y022358D01*
X008174Y022436D02*
X025451Y022436D01*
X025418Y022515D02*
X008174Y022515D01*
X008156Y022593D02*
X025376Y022593D01*
X025324Y022672D02*
X008123Y022672D01*
X008075Y022751D02*
X008181Y022751D01*
X008145Y022766D02*
X008317Y022694D01*
X008504Y022694D01*
X008677Y022766D01*
X008809Y022898D01*
X008881Y023071D01*
X008881Y023258D01*
X008809Y023430D01*
X008677Y023563D01*
X008504Y023634D01*
X008317Y023634D01*
X008145Y023563D01*
X008012Y023430D01*
X007941Y023258D01*
X007941Y023071D01*
X008012Y022898D01*
X008145Y022766D01*
X008081Y022829D02*
X007996Y022829D01*
X008008Y022908D02*
X007844Y022908D01*
X007976Y022986D02*
X006642Y022986D01*
X006791Y023065D02*
X007943Y023065D01*
X007941Y023143D02*
X006941Y023143D01*
X007091Y023222D02*
X007941Y023222D01*
X007959Y023300D02*
X007240Y023300D01*
X007390Y023379D02*
X007991Y023379D01*
X008039Y023457D02*
X007559Y023457D01*
X007766Y023536D02*
X008118Y023536D01*
X007974Y023614D02*
X008270Y023614D01*
X008181Y023693D02*
X024369Y023693D01*
X024486Y023614D02*
X013552Y023614D01*
X013504Y023634D02*
X013317Y023634D01*
X013145Y023563D01*
X013012Y023430D01*
X012941Y023258D01*
X012941Y023071D01*
X013012Y022898D01*
X013145Y022766D01*
X013317Y022694D01*
X013504Y022694D01*
X013677Y022766D01*
X013809Y022898D01*
X013881Y023071D01*
X013881Y023258D01*
X013809Y023430D01*
X013677Y023563D01*
X013504Y023634D01*
X013704Y023536D02*
X024599Y023536D01*
X024677Y023457D02*
X013782Y023457D01*
X013831Y023379D02*
X024756Y023379D01*
X024834Y023300D02*
X013863Y023300D01*
X013881Y023222D02*
X024913Y023222D01*
X024991Y023143D02*
X013881Y023143D01*
X013878Y023065D02*
X025061Y023065D01*
X025114Y022986D02*
X013846Y022986D01*
X013813Y022908D02*
X025166Y022908D01*
X025219Y022829D02*
X013740Y022829D01*
X013640Y022751D02*
X025271Y022751D01*
X024251Y023772D02*
X008388Y023772D01*
X008596Y023850D02*
X024134Y023850D01*
X023994Y023929D02*
X008915Y023929D01*
X009233Y024007D02*
X023805Y024007D01*
X023615Y024086D02*
X009552Y024086D01*
X009504Y023634D02*
X009317Y023634D01*
X009145Y023563D01*
X009012Y023430D01*
X008941Y023258D01*
X008941Y023071D01*
X009012Y022898D01*
X009145Y022766D01*
X009317Y022694D01*
X009504Y022694D01*
X009677Y022766D01*
X009809Y022898D01*
X009881Y023071D01*
X009881Y023258D01*
X009809Y023430D01*
X009677Y023563D01*
X009504Y023634D01*
X009552Y023614D02*
X010270Y023614D01*
X010317Y023634D02*
X010145Y023563D01*
X010012Y023430D01*
X009941Y023258D01*
X009941Y023071D01*
X010012Y022898D01*
X010145Y022766D01*
X010317Y022694D01*
X010504Y022694D01*
X010677Y022766D01*
X010809Y022898D01*
X010881Y023071D01*
X010881Y023258D01*
X010809Y023430D01*
X010677Y023563D01*
X010504Y023634D01*
X010317Y023634D01*
X010118Y023536D02*
X009704Y023536D01*
X009782Y023457D02*
X010039Y023457D01*
X009991Y023379D02*
X009831Y023379D01*
X009863Y023300D02*
X009959Y023300D01*
X009941Y023222D02*
X009881Y023222D01*
X009881Y023143D02*
X009941Y023143D01*
X009943Y023065D02*
X009878Y023065D01*
X009846Y022986D02*
X009976Y022986D01*
X010008Y022908D02*
X009813Y022908D01*
X009740Y022829D02*
X010081Y022829D01*
X010181Y022751D02*
X009640Y022751D01*
X009181Y022751D02*
X008640Y022751D01*
X008740Y022829D02*
X009081Y022829D01*
X009008Y022908D02*
X008813Y022908D01*
X008846Y022986D02*
X008976Y022986D01*
X008943Y023065D02*
X008878Y023065D01*
X008881Y023143D02*
X008941Y023143D01*
X008941Y023222D02*
X008881Y023222D01*
X008863Y023300D02*
X008959Y023300D01*
X008991Y023379D02*
X008831Y023379D01*
X008782Y023457D02*
X009039Y023457D01*
X009118Y023536D02*
X008704Y023536D01*
X008552Y023614D02*
X009270Y023614D01*
X010005Y024164D02*
X023390Y024164D01*
X022996Y024243D02*
X010652Y024243D01*
X010552Y023614D02*
X011270Y023614D01*
X011317Y023634D02*
X011145Y023563D01*
X011012Y023430D01*
X010941Y023258D01*
X010941Y023071D01*
X011012Y022898D01*
X011145Y022766D01*
X011317Y022694D01*
X011504Y022694D01*
X011677Y022766D01*
X011809Y022898D01*
X011881Y023071D01*
X011881Y023258D01*
X011809Y023430D01*
X011677Y023563D01*
X011504Y023634D01*
X011317Y023634D01*
X011118Y023536D02*
X010704Y023536D01*
X010782Y023457D02*
X011039Y023457D01*
X010991Y023379D02*
X010831Y023379D01*
X010863Y023300D02*
X010959Y023300D01*
X010941Y023222D02*
X010881Y023222D01*
X010881Y023143D02*
X010941Y023143D01*
X010943Y023065D02*
X010878Y023065D01*
X010846Y022986D02*
X010976Y022986D01*
X011008Y022908D02*
X010813Y022908D01*
X010740Y022829D02*
X011081Y022829D01*
X011181Y022751D02*
X010640Y022751D01*
X011640Y022751D02*
X012181Y022751D01*
X012145Y022766D02*
X012317Y022694D01*
X012504Y022694D01*
X012677Y022766D01*
X012809Y022898D01*
X012881Y023071D01*
X012881Y023258D01*
X012809Y023430D01*
X012677Y023563D01*
X012504Y023634D01*
X012317Y023634D01*
X012145Y023563D01*
X012012Y023430D01*
X011941Y023258D01*
X011941Y023071D01*
X012012Y022898D01*
X012145Y022766D01*
X012081Y022829D02*
X011740Y022829D01*
X011813Y022908D02*
X012008Y022908D01*
X011976Y022986D02*
X011846Y022986D01*
X011878Y023065D02*
X011943Y023065D01*
X011941Y023143D02*
X011881Y023143D01*
X011881Y023222D02*
X011941Y023222D01*
X011959Y023300D02*
X011863Y023300D01*
X011831Y023379D02*
X011991Y023379D01*
X012039Y023457D02*
X011782Y023457D01*
X011704Y023536D02*
X012118Y023536D01*
X012270Y023614D02*
X011552Y023614D01*
X012552Y023614D02*
X013270Y023614D01*
X013118Y023536D02*
X012704Y023536D01*
X012782Y023457D02*
X013039Y023457D01*
X012991Y023379D02*
X012831Y023379D01*
X012863Y023300D02*
X012959Y023300D01*
X012941Y023222D02*
X012881Y023222D01*
X012881Y023143D02*
X012941Y023143D01*
X012943Y023065D02*
X012878Y023065D01*
X012846Y022986D02*
X012976Y022986D01*
X013008Y022908D02*
X012813Y022908D01*
X012740Y022829D02*
X013081Y022829D01*
X013181Y022751D02*
X012640Y022751D01*
X008811Y020865D02*
X006725Y020865D01*
X006692Y020787D02*
X008737Y020787D01*
X008704Y020708D02*
X006620Y020708D01*
X006521Y020630D02*
X008681Y020630D01*
X007236Y022358D02*
X005683Y022358D01*
X005797Y022436D02*
X007234Y022436D01*
X007234Y022515D02*
X005911Y022515D01*
X006025Y022593D02*
X007252Y022593D01*
X007284Y022672D02*
X006139Y022672D01*
X006252Y022751D02*
X007333Y022751D01*
X007411Y022829D02*
X006366Y022829D01*
X006492Y022908D02*
X007563Y022908D01*
X006150Y021494D02*
X004661Y021494D01*
X004575Y021415D02*
X005997Y021415D01*
X005919Y021337D02*
X004505Y021337D01*
X004436Y021258D02*
X005870Y021258D01*
X005838Y021180D02*
X004366Y021180D01*
X004297Y021101D02*
X005820Y021101D01*
X005820Y021023D02*
X004227Y021023D01*
X004157Y020944D02*
X005822Y020944D01*
X004737Y020080D02*
X003482Y020080D01*
X003428Y020001D02*
X004584Y020001D01*
X004505Y019923D02*
X003374Y019923D01*
X003320Y019844D02*
X004456Y019844D01*
X004424Y019766D02*
X003266Y019766D01*
X003211Y019687D02*
X004405Y019687D01*
X004405Y019609D02*
X003157Y019609D01*
X003109Y019530D02*
X004407Y019530D01*
X004440Y019452D02*
X003068Y019452D01*
X003027Y019373D02*
X004030Y019373D01*
X003877Y019295D02*
X002986Y019295D01*
X002945Y019216D02*
X003798Y019216D01*
X003749Y019138D02*
X002903Y019138D01*
X002862Y019059D02*
X003717Y019059D01*
X003698Y018980D02*
X002821Y018980D01*
X002780Y018902D02*
X003698Y018902D01*
X003700Y018823D02*
X002738Y018823D01*
X002697Y018745D02*
X003733Y018745D01*
X003913Y018352D02*
X022289Y018352D01*
X022289Y018274D02*
X003931Y018274D01*
X004636Y018823D02*
X005558Y018823D01*
X005522Y018902D02*
X004638Y018902D01*
X004638Y018980D02*
X005501Y018980D01*
X005493Y019059D02*
X004620Y019059D01*
X004588Y019138D02*
X005497Y019138D01*
X005915Y019059D02*
X005937Y019059D01*
X006028Y019059D02*
X006050Y019059D01*
X006070Y018588D02*
X022289Y018588D01*
X022289Y017095D02*
X003364Y017095D01*
X003443Y017017D02*
X022289Y017017D01*
X022289Y016938D02*
X003521Y016938D01*
X003600Y016860D02*
X022289Y016860D01*
X022289Y016781D02*
X003644Y016781D01*
X003644Y016703D02*
X003987Y016703D01*
X003976Y016697D02*
X003915Y016653D01*
X004233Y016335D01*
X004176Y016278D01*
X004233Y016221D01*
X003915Y015903D01*
X003976Y015859D01*
X004045Y015824D01*
X004118Y015800D01*
X004195Y015788D01*
X004272Y015788D01*
X004348Y015800D01*
X004421Y015824D01*
X004490Y015859D01*
X004551Y015903D01*
X004233Y016221D01*
X004290Y016278D01*
X004608Y015960D01*
X004652Y016021D01*
X004687Y016090D01*
X004711Y016163D01*
X004723Y016240D01*
X004723Y016317D01*
X004711Y016393D01*
X004687Y016466D01*
X004652Y016535D01*
X004608Y016596D01*
X004290Y016278D01*
X004233Y016335D01*
X004551Y016653D01*
X004490Y016697D01*
X004421Y016732D01*
X004348Y016756D01*
X004272Y016768D01*
X004195Y016768D01*
X004118Y016756D01*
X004045Y016732D01*
X003976Y016697D01*
X003944Y016624D02*
X003644Y016624D01*
X003644Y016546D02*
X003822Y016546D01*
X003814Y016535D02*
X003779Y016466D01*
X003755Y016393D01*
X003743Y016317D01*
X003743Y016240D01*
X003755Y016163D01*
X003779Y016090D01*
X003814Y016021D01*
X003859Y015960D01*
X004176Y016278D01*
X003859Y016596D01*
X003814Y016535D01*
X003780Y016467D02*
X003644Y016467D01*
X003644Y016389D02*
X003755Y016389D01*
X003743Y016310D02*
X003644Y016310D01*
X003644Y016231D02*
X003744Y016231D01*
X003759Y016153D02*
X003644Y016153D01*
X003644Y016074D02*
X003787Y016074D01*
X003833Y015996D02*
X003714Y015996D01*
X003792Y015917D02*
X003929Y015917D01*
X003894Y015996D02*
X004007Y015996D01*
X003973Y016074D02*
X004086Y016074D01*
X004051Y016153D02*
X004164Y016153D01*
X004130Y016231D02*
X004223Y016231D01*
X004243Y016231D02*
X004336Y016231D01*
X004322Y016310D02*
X004258Y016310D01*
X004208Y016310D02*
X004145Y016310D01*
X004179Y016389D02*
X004066Y016389D01*
X004101Y016467D02*
X003988Y016467D01*
X004022Y016546D02*
X003909Y016546D01*
X004287Y016389D02*
X004400Y016389D01*
X004366Y016467D02*
X004479Y016467D01*
X004444Y016546D02*
X004557Y016546D01*
X004523Y016624D02*
X022289Y016624D01*
X022289Y016546D02*
X004645Y016546D01*
X004687Y016467D02*
X022289Y016467D01*
X022289Y016389D02*
X004712Y016389D01*
X004723Y016310D02*
X022289Y016310D01*
X022289Y016231D02*
X004722Y016231D01*
X004708Y016153D02*
X022289Y016153D01*
X022289Y016074D02*
X004679Y016074D01*
X004634Y015996D02*
X022289Y015996D01*
X022289Y015917D02*
X004537Y015917D01*
X004572Y015996D02*
X004459Y015996D01*
X004493Y016074D02*
X004380Y016074D01*
X004415Y016153D02*
X004302Y016153D01*
X004450Y015839D02*
X022289Y015839D01*
X022289Y015760D02*
X003949Y015760D01*
X004016Y015839D02*
X003871Y015839D01*
X004028Y015682D02*
X022289Y015682D01*
X022289Y015603D02*
X004106Y015603D01*
X004185Y015525D02*
X022289Y015525D01*
X022289Y015446D02*
X004263Y015446D01*
X004342Y015367D02*
X022289Y015367D01*
X022289Y015289D02*
X005829Y015289D01*
X005880Y015268D02*
X005715Y015336D01*
X005536Y015336D01*
X005370Y015268D01*
X005244Y015141D01*
X005175Y014976D01*
X005175Y014797D01*
X005244Y014631D01*
X005370Y014505D01*
X005536Y014436D01*
X005715Y014436D01*
X005880Y014505D01*
X006007Y014631D01*
X006075Y014797D01*
X006075Y014976D01*
X006007Y015141D01*
X005880Y015268D01*
X005937Y015210D02*
X022289Y015210D01*
X022289Y015132D02*
X006010Y015132D01*
X006043Y015053D02*
X022289Y015053D01*
X022289Y014975D02*
X006075Y014975D01*
X006075Y014896D02*
X015032Y014896D01*
X015204Y014707D02*
X011611Y014707D01*
X008904Y012000D01*
X008904Y010607D01*
X006290Y007993D01*
X006290Y007972D01*
X006728Y008141D02*
X008848Y008141D01*
X008849Y008141D02*
X008991Y008082D01*
X009145Y008082D01*
X009287Y008141D01*
X009396Y008250D01*
X009455Y008392D01*
X009455Y008546D01*
X009396Y008688D01*
X009287Y008797D01*
X009145Y008856D01*
X008991Y008856D01*
X008849Y008797D01*
X008740Y008688D01*
X008681Y008546D01*
X008681Y008392D01*
X008740Y008250D01*
X008849Y008141D01*
X008770Y008220D02*
X006714Y008220D01*
X006793Y008299D02*
X008720Y008299D01*
X008687Y008377D02*
X006872Y008377D01*
X006950Y008456D02*
X008681Y008456D01*
X008681Y008534D02*
X007029Y008534D01*
X007107Y008613D02*
X008708Y008613D01*
X008743Y008691D02*
X007186Y008691D01*
X007264Y008770D02*
X008821Y008770D01*
X008972Y008848D02*
X007343Y008848D01*
X007421Y008927D02*
X019869Y008927D01*
X019947Y009005D02*
X007500Y009005D01*
X007578Y009084D02*
X020026Y009084D01*
X020105Y009163D02*
X007657Y009163D01*
X007736Y009241D02*
X020183Y009241D01*
X020262Y009320D02*
X007814Y009320D01*
X007893Y009398D02*
X020340Y009398D01*
X020419Y009477D02*
X007971Y009477D01*
X008050Y009555D02*
X020497Y009555D01*
X020576Y009634D02*
X008128Y009634D01*
X008207Y009712D02*
X020654Y009712D01*
X020733Y009791D02*
X008285Y009791D01*
X008364Y009869D02*
X020811Y009869D01*
X020890Y009948D02*
X008442Y009948D01*
X008521Y010026D02*
X020969Y010026D01*
X021047Y010105D02*
X008600Y010105D01*
X008678Y010184D02*
X021124Y010184D01*
X021124Y010182D02*
X019529Y008587D01*
X016385Y008587D01*
X016348Y008624D01*
X016255Y008662D01*
X016153Y008662D01*
X016059Y008624D01*
X015988Y008552D01*
X015949Y008458D01*
X015949Y008357D01*
X015988Y008263D01*
X016059Y008191D01*
X016153Y008152D01*
X016255Y008152D01*
X016348Y008191D01*
X016385Y008227D01*
X019529Y008227D01*
X019678Y008227D01*
X021378Y009927D01*
X021484Y010033D01*
X021484Y012327D01*
X021520Y012363D01*
X021559Y012457D01*
X021559Y012558D01*
X021520Y012652D01*
X021484Y012688D01*
X021484Y013133D01*
X021484Y013282D01*
X020459Y014307D01*
X020459Y014358D01*
X020420Y014452D01*
X020348Y014524D01*
X020255Y014562D01*
X020153Y014562D01*
X020059Y014524D01*
X019988Y014452D01*
X019949Y014358D01*
X019949Y014257D01*
X019988Y014163D01*
X020059Y014091D01*
X020141Y014057D01*
X020059Y014024D01*
X019988Y013952D01*
X019986Y013947D01*
X019122Y013947D01*
X019120Y013952D01*
X019048Y014024D01*
X018955Y014062D01*
X018853Y014062D01*
X018759Y014024D01*
X018688Y013952D01*
X018649Y013858D01*
X018649Y013757D01*
X018688Y013663D01*
X018759Y013591D01*
X018853Y013552D01*
X018955Y013552D01*
X019048Y013591D01*
X019120Y013663D01*
X019122Y013667D01*
X019986Y013667D01*
X019988Y013663D01*
X020059Y013591D01*
X020153Y013552D01*
X020255Y013552D01*
X020348Y013591D01*
X020420Y013663D01*
X020459Y013757D01*
X020459Y013798D01*
X021124Y013133D01*
X021124Y012688D01*
X021088Y012652D01*
X021049Y012558D01*
X021049Y012457D01*
X021088Y012363D01*
X021124Y012327D01*
X021124Y010182D01*
X021124Y010262D02*
X008757Y010262D01*
X008835Y010341D02*
X021124Y010341D01*
X021124Y010419D02*
X008914Y010419D01*
X008992Y010498D02*
X021124Y010498D01*
X021124Y010576D02*
X009044Y010576D01*
X009044Y010655D02*
X021124Y010655D01*
X021124Y010733D02*
X009044Y010733D01*
X009044Y010812D02*
X021124Y010812D01*
X021124Y010890D02*
X009044Y010890D01*
X009044Y010969D02*
X021124Y010969D01*
X021124Y011048D02*
X009044Y011048D01*
X009044Y011126D02*
X021124Y011126D01*
X021124Y011205D02*
X009044Y011205D01*
X009044Y011283D02*
X021124Y011283D01*
X021124Y011362D02*
X009044Y011362D01*
X009044Y011440D02*
X021124Y011440D01*
X021124Y011519D02*
X009044Y011519D01*
X009044Y011597D02*
X021124Y011597D01*
X021124Y011676D02*
X009044Y011676D01*
X009044Y011754D02*
X021124Y011754D01*
X021124Y011833D02*
X009044Y011833D01*
X009044Y011912D02*
X021124Y011912D01*
X021124Y011990D02*
X009092Y011990D01*
X009170Y012069D02*
X021124Y012069D01*
X021124Y012147D02*
X009249Y012147D01*
X009327Y012226D02*
X021124Y012226D01*
X021124Y012304D02*
X009406Y012304D01*
X009484Y012383D02*
X017880Y012383D01*
X017859Y012391D02*
X017953Y012352D01*
X018055Y012352D01*
X018148Y012391D01*
X018220Y012463D01*
X018259Y012557D01*
X018259Y012658D01*
X018257Y012663D01*
X018344Y012749D01*
X018344Y012865D01*
X018344Y013107D01*
X018359Y013091D01*
X018453Y013052D01*
X018555Y013052D01*
X018648Y013091D01*
X018720Y013163D01*
X018759Y013257D01*
X018759Y013358D01*
X018720Y013452D01*
X018648Y013524D01*
X018644Y013525D01*
X018644Y013865D01*
X018562Y013947D01*
X018262Y014247D01*
X018146Y014247D01*
X017546Y014247D01*
X017464Y014165D01*
X017246Y013947D01*
X016346Y013947D01*
X016264Y013865D01*
X016246Y013847D01*
X013762Y013847D01*
X013262Y014347D01*
X013146Y014347D01*
X012746Y014347D01*
X012664Y014265D01*
X012559Y014161D01*
X012555Y014162D01*
X012453Y014162D01*
X012359Y014124D01*
X012288Y014052D01*
X012249Y013958D01*
X012249Y013857D01*
X012288Y013763D01*
X012359Y013691D01*
X012453Y013652D01*
X012529Y013652D01*
X012459Y013624D01*
X012388Y013552D01*
X012349Y013458D01*
X012349Y013357D01*
X012388Y013263D01*
X012403Y013247D01*
X011222Y013247D01*
X011220Y013252D01*
X011148Y013324D01*
X011055Y013362D01*
X010953Y013362D01*
X010859Y013324D01*
X010788Y013252D01*
X010749Y013158D01*
X010749Y013057D01*
X010788Y012963D01*
X010843Y012907D01*
X010788Y012852D01*
X010749Y012758D01*
X010749Y012657D01*
X010788Y012563D01*
X010859Y012491D01*
X010953Y012452D01*
X011055Y012452D01*
X011148Y012491D01*
X011220Y012563D01*
X011222Y012567D01*
X016586Y012567D01*
X016588Y012563D01*
X016659Y012491D01*
X016753Y012452D01*
X016855Y012452D01*
X016948Y012491D01*
X017020Y012563D01*
X017059Y012657D01*
X017059Y012758D01*
X017020Y012852D01*
X016964Y012907D01*
X017020Y012963D01*
X017059Y013057D01*
X017059Y013158D01*
X017022Y013247D01*
X018064Y013247D01*
X018064Y013325D02*
X017848Y013325D01*
X017875Y013352D02*
X017770Y013247D01*
X017638Y013247D01*
X017022Y013247D01*
X017055Y013168D02*
X018064Y013168D01*
X018064Y013090D02*
X017059Y013090D01*
X017040Y013011D02*
X018064Y013011D01*
X018064Y012933D02*
X016990Y012933D01*
X017018Y012854D02*
X017933Y012854D01*
X017953Y012862D02*
X017859Y012824D01*
X017788Y012752D01*
X017749Y012658D01*
X017749Y012557D01*
X017788Y012463D01*
X017859Y012391D01*
X017789Y012461D02*
X016876Y012461D01*
X016732Y012461D02*
X011076Y012461D01*
X010932Y012461D02*
X009563Y012461D01*
X009641Y012540D02*
X010811Y012540D01*
X010765Y012618D02*
X009720Y012618D01*
X009799Y012697D02*
X010749Y012697D01*
X010756Y012776D02*
X009877Y012776D01*
X009956Y012854D02*
X010790Y012854D01*
X010818Y012933D02*
X010034Y012933D01*
X010113Y013011D02*
X010768Y013011D01*
X010749Y013090D02*
X010191Y013090D01*
X010270Y013168D02*
X010753Y013168D01*
X010786Y013247D02*
X010348Y013247D01*
X010427Y013325D02*
X010864Y013325D01*
X011004Y013107D02*
X016804Y013107D01*
X016804Y012707D02*
X011004Y012707D01*
X011197Y012540D02*
X016611Y012540D01*
X016997Y012540D02*
X017756Y012540D01*
X017749Y012618D02*
X017043Y012618D01*
X017059Y012697D02*
X017765Y012697D01*
X017811Y012776D02*
X017052Y012776D01*
X017953Y012862D02*
X018055Y012862D01*
X018059Y012861D01*
X018064Y012865D01*
X018064Y013407D01*
X018048Y013391D01*
X017955Y013352D01*
X017875Y013352D01*
X018061Y013404D02*
X018064Y013404D01*
X018204Y013707D02*
X018204Y012807D01*
X018004Y012607D01*
X018259Y012618D02*
X021074Y012618D01*
X021049Y012540D02*
X018252Y012540D01*
X018218Y012461D02*
X021049Y012461D01*
X021080Y012383D02*
X018128Y012383D01*
X018291Y012697D02*
X021124Y012697D01*
X021124Y012776D02*
X018344Y012776D01*
X018344Y012854D02*
X021124Y012854D01*
X021124Y012933D02*
X018344Y012933D01*
X018344Y013011D02*
X021124Y013011D01*
X021124Y013090D02*
X018645Y013090D01*
X018722Y013168D02*
X021089Y013168D01*
X021010Y013247D02*
X018755Y013247D01*
X018759Y013325D02*
X020931Y013325D01*
X020853Y013404D02*
X018740Y013404D01*
X018689Y013482D02*
X020774Y013482D01*
X020696Y013561D02*
X020275Y013561D01*
X020133Y013561D02*
X018975Y013561D01*
X018833Y013561D02*
X018644Y013561D01*
X018644Y013639D02*
X018711Y013639D01*
X018665Y013718D02*
X018644Y013718D01*
X018644Y013797D02*
X018649Y013797D01*
X018656Y013875D02*
X018634Y013875D01*
X018690Y013954D02*
X018556Y013954D01*
X018477Y014032D02*
X018780Y014032D01*
X019027Y014032D02*
X020080Y014032D01*
X020040Y014111D02*
X018399Y014111D01*
X018320Y014189D02*
X019977Y014189D01*
X019949Y014268D02*
X017055Y014268D01*
X017059Y014189D02*
X017488Y014189D01*
X017409Y014111D02*
X017040Y014111D01*
X016989Y014032D02*
X017331Y014032D01*
X017252Y013954D02*
X016858Y013954D01*
X016750Y013954D02*
X015258Y013954D01*
X015150Y013954D02*
X013656Y013954D01*
X013577Y014032D02*
X015019Y014032D01*
X014968Y014111D02*
X013499Y014111D01*
X013420Y014189D02*
X014949Y014189D01*
X014953Y014268D02*
X013341Y014268D01*
X013263Y014346D02*
X014986Y014346D01*
X015063Y014425D02*
X011527Y014425D01*
X011605Y014503D02*
X015047Y014503D01*
X015345Y014425D02*
X016663Y014425D01*
X016804Y014207D02*
X015204Y014207D01*
X015389Y014032D02*
X016619Y014032D01*
X016404Y013807D02*
X017304Y013807D01*
X017604Y014107D01*
X018204Y014107D01*
X018504Y013807D01*
X018504Y013307D01*
X018363Y013090D02*
X018344Y013090D01*
X018204Y013707D02*
X018004Y013907D01*
X017704Y013907D01*
X017404Y013607D01*
X016504Y013607D01*
X016404Y013507D01*
X013504Y013507D01*
X013104Y013907D01*
X013204Y014207D02*
X012804Y014207D01*
X012504Y013907D01*
X012333Y013718D02*
X010820Y013718D01*
X010898Y013797D02*
X012274Y013797D01*
X012249Y013875D02*
X010977Y013875D01*
X011055Y013954D02*
X012249Y013954D01*
X012280Y014032D02*
X011134Y014032D01*
X011212Y014111D02*
X012347Y014111D01*
X012588Y014189D02*
X011291Y014189D01*
X011369Y014268D02*
X012666Y014268D01*
X012745Y014346D02*
X011448Y014346D01*
X011288Y014582D02*
X005957Y014582D01*
X006019Y014661D02*
X011366Y014661D01*
X011445Y014739D02*
X006051Y014739D01*
X006075Y014818D02*
X011523Y014818D01*
X011209Y014503D02*
X005877Y014503D01*
X005441Y014268D02*
X010973Y014268D01*
X011052Y014346D02*
X005363Y014346D01*
X005284Y014425D02*
X011131Y014425D01*
X010741Y013639D02*
X012498Y013639D01*
X012397Y013561D02*
X010663Y013561D01*
X010584Y013482D02*
X012359Y013482D01*
X012349Y013404D02*
X010505Y013404D01*
X011144Y013325D02*
X012362Y013325D01*
X013204Y014207D02*
X013704Y013707D01*
X016304Y013707D01*
X016404Y013807D01*
X016274Y013875D02*
X013734Y013875D01*
X015361Y014503D02*
X020039Y014503D01*
X019977Y014425D02*
X016945Y014425D01*
X017022Y014346D02*
X019949Y014346D01*
X020368Y014503D02*
X022289Y014503D01*
X022289Y014425D02*
X020431Y014425D01*
X020459Y014346D02*
X022289Y014346D01*
X022289Y014268D02*
X020498Y014268D01*
X020577Y014189D02*
X022289Y014189D01*
X022289Y014111D02*
X020655Y014111D01*
X020734Y014032D02*
X022289Y014032D01*
X022289Y013954D02*
X020812Y013954D01*
X020891Y013875D02*
X022289Y013875D01*
X022289Y013797D02*
X020969Y013797D01*
X021048Y013718D02*
X022289Y013718D01*
X022289Y013639D02*
X021126Y013639D01*
X021205Y013561D02*
X022289Y013561D01*
X022289Y013482D02*
X021283Y013482D01*
X021362Y013404D02*
X022289Y013404D01*
X022289Y013325D02*
X021441Y013325D01*
X021484Y013247D02*
X022289Y013247D01*
X022289Y013168D02*
X021484Y013168D01*
X021484Y013090D02*
X022289Y013090D01*
X022289Y013011D02*
X021484Y013011D01*
X021484Y012933D02*
X022289Y012933D01*
X022289Y012854D02*
X021484Y012854D01*
X021484Y012776D02*
X022289Y012776D01*
X022289Y012697D02*
X021484Y012697D01*
X021534Y012618D02*
X022289Y012618D01*
X022289Y012540D02*
X021559Y012540D01*
X021559Y012461D02*
X022289Y012461D01*
X022289Y012383D02*
X021528Y012383D01*
X021484Y012304D02*
X022289Y012304D01*
X022289Y012226D02*
X021484Y012226D01*
X021484Y012147D02*
X022289Y012147D01*
X022289Y012069D02*
X021484Y012069D01*
X021484Y011990D02*
X022289Y011990D01*
X022289Y011912D02*
X021484Y011912D01*
X021484Y011833D02*
X022289Y011833D01*
X022289Y011754D02*
X021484Y011754D01*
X021484Y011676D02*
X022289Y011676D01*
X022289Y011597D02*
X021484Y011597D01*
X021484Y011519D02*
X022289Y011519D01*
X022289Y011440D02*
X021484Y011440D01*
X021484Y011362D02*
X022289Y011362D01*
X022289Y011283D02*
X021484Y011283D01*
X021484Y011205D02*
X022289Y011205D01*
X022289Y011126D02*
X021484Y011126D01*
X021484Y011048D02*
X022289Y011048D01*
X022289Y010969D02*
X021484Y010969D01*
X021484Y010890D02*
X022289Y010890D01*
X022289Y010812D02*
X021484Y010812D01*
X021484Y010733D02*
X022289Y010733D01*
X022289Y010655D02*
X021484Y010655D01*
X021484Y010576D02*
X022289Y010576D01*
X022289Y010498D02*
X021484Y010498D01*
X021484Y010419D02*
X022289Y010419D01*
X022289Y010341D02*
X021484Y010341D01*
X021484Y010262D02*
X022306Y010262D01*
X022289Y010315D02*
X022289Y010315D01*
X022332Y010184D02*
X021484Y010184D01*
X021484Y010105D02*
X022357Y010105D01*
X022383Y010026D02*
X021478Y010026D01*
X021399Y009948D02*
X022409Y009948D01*
X022466Y009869D02*
X021320Y009869D01*
X021242Y009791D02*
X022523Y009791D01*
X022580Y009712D02*
X021163Y009712D01*
X021085Y009634D02*
X022639Y009634D01*
X022634Y009638D02*
X022634Y009638D01*
X022747Y009555D02*
X021006Y009555D01*
X020928Y009477D02*
X022856Y009477D01*
X022986Y009398D02*
X020849Y009398D01*
X020771Y009320D02*
X023228Y009320D01*
X024779Y008688D02*
X024720Y008546D01*
X024720Y008392D01*
X024779Y008250D01*
X024888Y008141D01*
X025030Y008082D01*
X025184Y008082D01*
X025326Y008141D01*
X025435Y008250D01*
X025494Y008392D01*
X025494Y008546D01*
X025435Y008688D01*
X025326Y008797D01*
X025184Y008856D01*
X025030Y008856D01*
X024888Y008797D01*
X024779Y008688D01*
X024782Y008691D02*
X020142Y008691D01*
X020064Y008613D02*
X024748Y008613D01*
X024720Y008534D02*
X019985Y008534D01*
X019907Y008456D02*
X024720Y008456D01*
X024726Y008377D02*
X019828Y008377D01*
X019750Y008299D02*
X024759Y008299D01*
X024809Y008220D02*
X016377Y008220D01*
X016031Y008220D02*
X009366Y008220D01*
X009416Y008299D02*
X015973Y008299D01*
X015949Y008377D02*
X009448Y008377D01*
X009455Y008456D02*
X015949Y008456D01*
X015980Y008534D02*
X009455Y008534D01*
X009427Y008613D02*
X016049Y008613D01*
X016359Y008613D02*
X019555Y008613D01*
X019633Y008691D02*
X009393Y008691D01*
X009314Y008770D02*
X019712Y008770D01*
X019790Y008848D02*
X009163Y008848D01*
X009287Y008141D02*
X024888Y008141D01*
X025326Y008141D02*
X025789Y008141D01*
X025789Y008063D02*
X006760Y008063D01*
X006760Y007984D02*
X025788Y007984D01*
X025784Y007906D02*
X006760Y007906D01*
X006738Y007827D02*
X025780Y007827D01*
X025789Y008220D02*
X025405Y008220D01*
X025455Y008299D02*
X025789Y008299D01*
X025789Y008377D02*
X025488Y008377D01*
X025494Y008456D02*
X025789Y008456D01*
X025787Y008534D02*
X025494Y008534D01*
X025466Y008613D02*
X025781Y008613D01*
X025759Y008691D02*
X025432Y008691D01*
X025354Y008770D02*
X025734Y008770D01*
X025708Y008848D02*
X025203Y008848D01*
X025012Y008848D02*
X020299Y008848D01*
X020221Y008770D02*
X024861Y008770D01*
X025255Y009241D02*
X020692Y009241D01*
X020614Y009163D02*
X025421Y009163D01*
X025529Y009084D02*
X020535Y009084D01*
X020456Y009005D02*
X025600Y009005D01*
X025658Y008927D02*
X020378Y008927D01*
X023975Y005078D02*
X008946Y005078D01*
X009265Y005000D02*
X023786Y005000D01*
X023596Y004921D02*
X009584Y004921D01*
X010069Y004843D02*
X023351Y004843D01*
X022956Y004764D02*
X010716Y004764D01*
X010752Y005471D02*
X011126Y005471D01*
X011047Y005550D02*
X010822Y005550D01*
X010870Y005628D02*
X010994Y005628D01*
X010962Y005707D02*
X010900Y005707D01*
X010917Y005785D02*
X010941Y005785D01*
X010941Y005864D02*
X010451Y005864D01*
X010451Y005891D02*
X010921Y005891D01*
X010908Y005970D01*
X010883Y006046D01*
X010847Y006118D01*
X010800Y006183D01*
X010743Y006240D01*
X010678Y006287D01*
X010607Y006323D01*
X010530Y006348D01*
X010451Y006361D01*
X010451Y006361D01*
X010451Y005891D01*
X010451Y005942D02*
X010371Y005942D01*
X010371Y006021D02*
X010451Y006021D01*
X010451Y006099D02*
X010371Y006099D01*
X010371Y006178D02*
X010451Y006178D01*
X010451Y006256D02*
X010371Y006256D01*
X010371Y006335D02*
X010451Y006335D01*
X010570Y006335D02*
X012251Y006335D01*
X012371Y006335D02*
X012451Y006335D01*
X012451Y006256D02*
X012371Y006256D01*
X012371Y006178D02*
X012451Y006178D01*
X012451Y006099D02*
X012371Y006099D01*
X012371Y006021D02*
X012451Y006021D01*
X012451Y005785D02*
X012371Y005785D01*
X012371Y005707D02*
X012451Y005707D01*
X012451Y005628D02*
X012371Y005628D01*
X012371Y005550D02*
X012451Y005550D01*
X012451Y005471D02*
X012371Y005471D01*
X012371Y005392D02*
X012451Y005392D01*
X012451Y005341D02*
X012451Y005341D01*
X012371Y005341D02*
X012371Y005341D01*
X012635Y005392D02*
X013289Y005392D01*
X013126Y005471D02*
X012752Y005471D01*
X012822Y005550D02*
X013047Y005550D01*
X012994Y005628D02*
X012870Y005628D01*
X012900Y005707D02*
X012962Y005707D01*
X012941Y005785D02*
X012917Y005785D01*
X011162Y006256D02*
X010720Y006256D01*
X010803Y006178D02*
X011073Y006178D01*
X011005Y006099D02*
X010856Y006099D01*
X010892Y006021D02*
X010973Y006021D01*
X010941Y005942D02*
X010913Y005942D01*
X010921Y005891D02*
X010921Y005891D01*
X010187Y005392D02*
X009533Y005392D01*
X009696Y005471D02*
X010069Y005471D01*
X009999Y005550D02*
X009774Y005550D01*
X009827Y005628D02*
X009952Y005628D01*
X009921Y005707D02*
X009860Y005707D01*
X009881Y005785D02*
X009905Y005785D01*
X008187Y005392D02*
X007994Y005392D01*
X008079Y005462D02*
X008079Y005462D01*
X008088Y005471D02*
X007787Y005471D01*
X006495Y007356D02*
X004847Y007356D01*
X005298Y008299D02*
X003956Y008299D01*
X003886Y008377D02*
X005220Y008377D01*
X005166Y008456D02*
X003817Y008456D01*
X003759Y008534D02*
X005134Y008534D01*
X005113Y008613D02*
X003705Y008613D01*
X003651Y008691D02*
X005113Y008691D01*
X005113Y008770D02*
X003596Y008770D01*
X003542Y008848D02*
X005144Y008848D01*
X005177Y008927D02*
X004995Y008927D01*
X004969Y008916D02*
X005142Y008988D01*
X005274Y009120D01*
X005345Y009293D01*
X005345Y009480D01*
X005274Y009652D01*
X005142Y009784D01*
X004969Y009856D01*
X004782Y009856D01*
X004609Y009784D01*
X004477Y009652D01*
X004405Y009480D01*
X004405Y009293D01*
X004477Y009120D01*
X004609Y008988D01*
X004782Y008916D01*
X004969Y008916D01*
X005159Y009005D02*
X005244Y009005D01*
X005238Y009084D02*
X005332Y009084D01*
X005291Y009163D02*
X006761Y009163D01*
X006840Y009241D02*
X005324Y009241D01*
X005345Y009320D02*
X006918Y009320D01*
X006997Y009398D02*
X005345Y009398D01*
X005345Y009477D02*
X007075Y009477D01*
X007154Y009555D02*
X005314Y009555D01*
X005281Y009634D02*
X007232Y009634D01*
X007311Y009712D02*
X005214Y009712D01*
X005126Y009791D02*
X007389Y009791D01*
X007468Y009869D02*
X004584Y009869D01*
X004567Y009827D02*
X004638Y010000D01*
X004638Y010187D01*
X004567Y010359D01*
X004435Y010492D01*
X004262Y010563D01*
X004075Y010563D01*
X003902Y010492D01*
X003770Y010359D01*
X003698Y010187D01*
X003698Y010000D01*
X003770Y009827D01*
X003902Y009695D01*
X004075Y009623D01*
X004262Y009623D01*
X004435Y009695D01*
X004567Y009827D01*
X004531Y009791D02*
X004625Y009791D01*
X004537Y009712D02*
X004452Y009712D01*
X004469Y009634D02*
X004288Y009634D01*
X004437Y009555D02*
X003072Y009555D01*
X003114Y009477D02*
X004405Y009477D01*
X004405Y009398D02*
X003163Y009398D01*
X003217Y009320D02*
X004405Y009320D01*
X004427Y009241D02*
X003271Y009241D01*
X003325Y009163D02*
X004459Y009163D01*
X004513Y009084D02*
X003379Y009084D01*
X003434Y009005D02*
X004591Y009005D01*
X004756Y008927D02*
X003488Y008927D01*
X004025Y008220D02*
X005462Y008220D01*
X006607Y008613D02*
X006711Y008613D01*
X006686Y008691D02*
X006790Y008691D01*
X006764Y008770D02*
X006868Y008770D01*
X006843Y008848D02*
X006947Y008848D01*
X006921Y008927D02*
X007025Y008927D01*
X007000Y009005D02*
X007104Y009005D01*
X007079Y009084D02*
X007183Y009084D01*
X007157Y009163D02*
X007261Y009163D01*
X007236Y009241D02*
X007340Y009241D01*
X007314Y009320D02*
X007418Y009320D01*
X007393Y009398D02*
X007497Y009398D01*
X007471Y009477D02*
X007575Y009477D01*
X007550Y009555D02*
X007654Y009555D01*
X007628Y009634D02*
X007732Y009634D01*
X007707Y009712D02*
X007811Y009712D01*
X007785Y009791D02*
X007889Y009791D01*
X007864Y009869D02*
X007968Y009869D01*
X007942Y009948D02*
X008047Y009948D01*
X008125Y010026D02*
X007944Y010026D01*
X007944Y010105D02*
X008204Y010105D01*
X008282Y010184D02*
X007944Y010184D01*
X007944Y010262D02*
X008361Y010262D01*
X008439Y010341D02*
X007944Y010341D01*
X007944Y010419D02*
X008518Y010419D01*
X008596Y010498D02*
X007944Y010498D01*
X007944Y010576D02*
X008675Y010576D01*
X008753Y010655D02*
X007944Y010655D01*
X007944Y010733D02*
X008764Y010733D01*
X008764Y010812D02*
X007944Y010812D01*
X007944Y010890D02*
X008764Y010890D01*
X008764Y010969D02*
X007944Y010969D01*
X007944Y011048D02*
X008764Y011048D01*
X008764Y011126D02*
X007944Y011126D01*
X007944Y011205D02*
X008764Y011205D01*
X008764Y011283D02*
X007944Y011283D01*
X007944Y011362D02*
X008764Y011362D01*
X008764Y011440D02*
X007944Y011440D01*
X007944Y011519D02*
X008764Y011519D01*
X008764Y011597D02*
X007944Y011597D01*
X007944Y011676D02*
X008764Y011676D01*
X008764Y011754D02*
X007944Y011754D01*
X007944Y011833D02*
X008764Y011833D01*
X008764Y011912D02*
X007873Y011912D01*
X007795Y011990D02*
X008764Y011990D01*
X008774Y012069D02*
X007716Y012069D01*
X007638Y012147D02*
X008853Y012147D01*
X008931Y012226D02*
X007559Y012226D01*
X007481Y012304D02*
X009010Y012304D01*
X009088Y012383D02*
X007402Y012383D01*
X007394Y012461D02*
X009167Y012461D01*
X009246Y012540D02*
X007472Y012540D01*
X007546Y012618D02*
X009324Y012618D01*
X009403Y012697D02*
X007954Y012697D01*
X008025Y012776D02*
X009481Y012776D01*
X009560Y012854D02*
X008058Y012854D01*
X008059Y012933D02*
X009638Y012933D01*
X007804Y013407D02*
X007113Y013407D01*
X006646Y012941D01*
X006312Y012618D02*
X005744Y012618D01*
X005744Y012540D02*
X006391Y012540D01*
X006469Y012461D02*
X005744Y012461D01*
X005744Y012383D02*
X006548Y012383D01*
X006626Y012304D02*
X005744Y012304D01*
X005744Y012226D02*
X006705Y012226D01*
X006783Y012147D02*
X005744Y012147D01*
X005744Y012069D02*
X006862Y012069D01*
X007001Y012069D02*
X007320Y012069D01*
X007242Y012147D02*
X007080Y012147D01*
X007158Y012226D02*
X007163Y012226D01*
X007399Y011990D02*
X005744Y011990D01*
X005744Y011912D02*
X007477Y011912D01*
X007556Y011833D02*
X005744Y011833D01*
X005744Y011754D02*
X006037Y011754D01*
X006053Y011770D02*
X005958Y011675D01*
X005906Y011551D01*
X005906Y011416D01*
X005958Y011292D01*
X006053Y011197D01*
X006177Y011146D01*
X006311Y011146D01*
X006435Y011197D01*
X006530Y011292D01*
X006581Y011416D01*
X006581Y011551D01*
X006530Y011675D01*
X006435Y011770D01*
X006311Y011821D01*
X006177Y011821D01*
X006053Y011770D01*
X005959Y011676D02*
X005744Y011676D01*
X005744Y011597D02*
X005926Y011597D01*
X005906Y011519D02*
X005744Y011519D01*
X005744Y011440D02*
X005906Y011440D01*
X005929Y011362D02*
X005744Y011362D01*
X005744Y011283D02*
X005967Y011283D01*
X006045Y011205D02*
X005744Y011205D01*
X005744Y011126D02*
X006433Y011126D01*
X006443Y011205D02*
X006511Y011205D01*
X006521Y011283D02*
X006590Y011283D01*
X006559Y011362D02*
X006668Y011362D01*
X006747Y011440D02*
X006581Y011440D01*
X006581Y011519D02*
X007664Y011519D01*
X007664Y011597D02*
X006562Y011597D01*
X006529Y011676D02*
X007664Y011676D01*
X007634Y011754D02*
X006450Y011754D01*
X006815Y011508D02*
X006227Y010921D01*
X006227Y010838D01*
X006843Y010223D01*
X006926Y010223D01*
X007513Y010810D01*
X007513Y010893D01*
X006898Y011508D01*
X006815Y011508D01*
X006966Y011440D02*
X007664Y011440D01*
X007664Y011362D02*
X007044Y011362D01*
X007123Y011283D02*
X007664Y011283D01*
X007664Y011205D02*
X007201Y011205D01*
X007280Y011126D02*
X007664Y011126D01*
X007664Y011048D02*
X007358Y011048D01*
X007437Y010969D02*
X007664Y010969D01*
X007664Y010890D02*
X007513Y010890D01*
X007513Y010812D02*
X007664Y010812D01*
X007664Y010733D02*
X007436Y010733D01*
X007358Y010655D02*
X007664Y010655D01*
X007664Y010576D02*
X007279Y010576D01*
X007201Y010498D02*
X007664Y010498D01*
X007664Y010419D02*
X007122Y010419D01*
X007044Y010341D02*
X007664Y010341D01*
X007664Y010262D02*
X006965Y010262D01*
X006803Y010262D02*
X005195Y010262D01*
X005273Y010341D02*
X006725Y010341D01*
X006646Y010419D02*
X005352Y010419D01*
X005430Y010498D02*
X006568Y010498D01*
X006489Y010576D02*
X005509Y010576D01*
X005587Y010655D02*
X006410Y010655D01*
X006332Y010733D02*
X005666Y010733D01*
X005695Y010812D02*
X006253Y010812D01*
X006227Y010890D02*
X005650Y010890D01*
X005664Y010969D02*
X006276Y010969D01*
X006354Y011048D02*
X005742Y011048D01*
X005604Y011107D02*
X005604Y013907D01*
X005464Y013849D02*
X005464Y012833D01*
X005416Y012880D01*
X005270Y012941D01*
X005113Y012941D01*
X005006Y012897D01*
X005215Y013105D01*
X005215Y013188D01*
X004600Y013804D01*
X004517Y013804D01*
X003929Y013216D01*
X003929Y013133D01*
X004545Y012518D01*
X004627Y012518D01*
X004839Y012729D01*
X004795Y012623D01*
X004795Y012465D01*
X004855Y012319D01*
X004967Y012208D01*
X005113Y012147D01*
X005270Y012147D01*
X005416Y012208D01*
X005464Y012256D01*
X005464Y011165D01*
X005420Y011121D01*
X005345Y011195D01*
X005345Y011212D01*
X005336Y011248D01*
X005317Y011280D01*
X005179Y011418D01*
X004851Y011090D01*
X004795Y011146D01*
X005123Y011474D01*
X004985Y011612D01*
X004953Y011631D01*
X004918Y011640D01*
X004901Y011640D01*
X004551Y011990D01*
X004468Y011990D01*
X004244Y011766D01*
X003544Y012465D01*
X003544Y015769D01*
X005464Y013849D01*
X005438Y013875D02*
X003544Y013875D01*
X003544Y013797D02*
X004510Y013797D01*
X004607Y013797D02*
X005464Y013797D01*
X005464Y013718D02*
X004685Y013718D01*
X004764Y013639D02*
X005464Y013639D01*
X005464Y013561D02*
X004842Y013561D01*
X004921Y013482D02*
X005464Y013482D01*
X005464Y013404D02*
X004999Y013404D01*
X005078Y013325D02*
X005464Y013325D01*
X005464Y013247D02*
X005156Y013247D01*
X005215Y013168D02*
X005464Y013168D01*
X005464Y013090D02*
X005199Y013090D01*
X005121Y013011D02*
X005464Y013011D01*
X005464Y012933D02*
X005290Y012933D01*
X005443Y012854D02*
X005464Y012854D01*
X005744Y012854D02*
X006077Y012854D01*
X006155Y012776D02*
X005744Y012776D01*
X005744Y012697D02*
X006234Y012697D01*
X005998Y012933D02*
X005744Y012933D01*
X005744Y013011D02*
X005919Y013011D01*
X005841Y013090D02*
X005744Y013090D01*
X005744Y013168D02*
X005762Y013168D01*
X005746Y013247D02*
X005744Y013247D01*
X005744Y013325D02*
X005804Y013325D01*
X005744Y013404D02*
X005882Y013404D01*
X005961Y013482D02*
X005744Y013482D01*
X005360Y013954D02*
X003544Y013954D01*
X003544Y014032D02*
X005281Y014032D01*
X005203Y014111D02*
X003544Y014111D01*
X003544Y014189D02*
X005124Y014189D01*
X005045Y014268D02*
X003544Y014268D01*
X003544Y014346D02*
X004967Y014346D01*
X004888Y014425D02*
X003544Y014425D01*
X003544Y014503D02*
X004810Y014503D01*
X004731Y014582D02*
X003544Y014582D01*
X003544Y014661D02*
X004653Y014661D01*
X004574Y014739D02*
X003544Y014739D01*
X003544Y014818D02*
X004496Y014818D01*
X004417Y014896D02*
X003544Y014896D01*
X003544Y014975D02*
X004339Y014975D01*
X004260Y015053D02*
X003544Y015053D01*
X003544Y015132D02*
X004181Y015132D01*
X004103Y015210D02*
X003544Y015210D01*
X003544Y015289D02*
X004024Y015289D01*
X003946Y015367D02*
X003544Y015367D01*
X003544Y015446D02*
X003867Y015446D01*
X003789Y015525D02*
X003544Y015525D01*
X003544Y015603D02*
X003710Y015603D01*
X003632Y015682D02*
X003544Y015682D01*
X003544Y015760D02*
X003553Y015760D01*
X003404Y015857D02*
X002754Y016507D01*
X003181Y016310D02*
X003364Y016310D01*
X003364Y016389D02*
X003213Y016389D01*
X003224Y016467D02*
X003364Y016467D01*
X003364Y016546D02*
X003224Y016546D01*
X003214Y016624D02*
X003364Y016624D01*
X003361Y016703D02*
X003182Y016703D01*
X003145Y016781D02*
X003282Y016781D01*
X003204Y016860D02*
X003066Y016860D01*
X003125Y016938D02*
X002942Y016938D01*
X003047Y017017D02*
X002063Y017017D01*
X002082Y017095D02*
X002520Y017095D01*
X002566Y016938D02*
X002044Y016938D01*
X002024Y016860D02*
X002442Y016860D01*
X002363Y016781D02*
X002005Y016781D01*
X001986Y016703D02*
X002326Y016703D01*
X002294Y016624D02*
X001966Y016624D01*
X001947Y016546D02*
X002284Y016546D01*
X002284Y016467D02*
X001927Y016467D01*
X001908Y016389D02*
X002294Y016389D01*
X002327Y016310D02*
X001889Y016310D01*
X001874Y016231D02*
X002365Y016231D01*
X002444Y016153D02*
X001865Y016153D01*
X001855Y016074D02*
X002571Y016074D01*
X002660Y015977D02*
X002488Y015906D01*
X002355Y015774D01*
X002284Y015601D01*
X002284Y015414D01*
X002355Y015241D01*
X002488Y015109D01*
X002660Y015037D01*
X002847Y015037D01*
X003020Y015109D01*
X003152Y015241D01*
X003224Y015414D01*
X003224Y015601D01*
X003152Y015774D01*
X003020Y015906D01*
X002847Y015977D01*
X002660Y015977D01*
X002515Y015917D02*
X001836Y015917D01*
X001827Y015839D02*
X002421Y015839D01*
X002350Y015760D02*
X001817Y015760D01*
X001808Y015682D02*
X002317Y015682D01*
X002285Y015603D02*
X001798Y015603D01*
X001788Y015525D02*
X002284Y015525D01*
X002284Y015446D02*
X001779Y015446D01*
X001769Y015367D02*
X002303Y015367D01*
X002336Y015289D02*
X001760Y015289D01*
X001750Y015210D02*
X002386Y015210D01*
X002465Y015132D02*
X001741Y015132D01*
X001737Y015053D02*
X002622Y015053D01*
X002654Y014975D02*
X001737Y014975D01*
X001737Y014896D02*
X002478Y014896D01*
X002488Y014906D02*
X002356Y014774D01*
X002284Y014601D01*
X002284Y014414D01*
X002356Y014241D01*
X002488Y014109D01*
X002661Y014037D01*
X002847Y014037D01*
X003020Y014109D01*
X003152Y014241D01*
X003224Y014414D01*
X003224Y014601D01*
X003152Y014774D01*
X003020Y014906D01*
X002847Y014977D01*
X002661Y014977D01*
X002488Y014906D01*
X002400Y014818D02*
X001737Y014818D01*
X001737Y014739D02*
X002341Y014739D01*
X002309Y014661D02*
X001737Y014661D01*
X001737Y014582D02*
X002284Y014582D01*
X002284Y014503D02*
X001737Y014503D01*
X001737Y014425D02*
X002284Y014425D01*
X002312Y014346D02*
X001737Y014346D01*
X001737Y014268D02*
X002344Y014268D01*
X002407Y014189D02*
X001737Y014189D01*
X001737Y014111D02*
X002486Y014111D01*
X002603Y013954D02*
X001737Y013954D01*
X001737Y014032D02*
X003264Y014032D01*
X003264Y013954D02*
X002905Y013954D01*
X002848Y013977D02*
X002661Y013977D01*
X002488Y013906D01*
X002356Y013774D01*
X002284Y013601D01*
X002284Y013414D01*
X002356Y013241D01*
X002488Y013109D01*
X002661Y013037D01*
X002848Y013037D01*
X003020Y013109D01*
X003152Y013241D01*
X003224Y013414D01*
X003224Y013601D01*
X003152Y013774D01*
X003020Y013906D01*
X002848Y013977D01*
X003022Y014111D02*
X003264Y014111D01*
X003264Y014189D02*
X003101Y014189D01*
X003163Y014268D02*
X003264Y014268D01*
X003264Y014346D02*
X003196Y014346D01*
X003224Y014425D02*
X003264Y014425D01*
X003264Y014503D02*
X003224Y014503D01*
X003224Y014582D02*
X003264Y014582D01*
X003264Y014661D02*
X003199Y014661D01*
X003167Y014739D02*
X003264Y014739D01*
X003264Y014818D02*
X003108Y014818D01*
X003030Y014896D02*
X003264Y014896D01*
X003264Y014975D02*
X002854Y014975D01*
X002886Y015053D02*
X003264Y015053D01*
X003264Y015132D02*
X003043Y015132D01*
X003122Y015210D02*
X003264Y015210D01*
X003264Y015289D02*
X003172Y015289D01*
X003205Y015367D02*
X003264Y015367D01*
X003264Y015446D02*
X003224Y015446D01*
X003224Y015525D02*
X003264Y015525D01*
X003264Y015603D02*
X003223Y015603D01*
X003190Y015682D02*
X003264Y015682D01*
X003264Y015760D02*
X003158Y015760D01*
X003225Y015839D02*
X003087Y015839D01*
X003146Y015917D02*
X002993Y015917D01*
X003068Y015996D02*
X001846Y015996D01*
X002937Y016074D02*
X002989Y016074D01*
X003228Y016231D02*
X003364Y016231D01*
X003364Y016153D02*
X003306Y016153D01*
X003404Y015857D02*
X003404Y012407D01*
X004332Y011479D01*
X004405Y011479D01*
X004311Y011833D02*
X004176Y011833D01*
X004098Y011912D02*
X004390Y011912D01*
X004629Y011912D02*
X005464Y011912D01*
X005464Y011990D02*
X004019Y011990D01*
X003941Y012069D02*
X005464Y012069D01*
X005464Y012147D02*
X003862Y012147D01*
X003784Y012226D02*
X004949Y012226D01*
X004870Y012304D02*
X003705Y012304D01*
X003626Y012383D02*
X004829Y012383D01*
X004796Y012461D02*
X003548Y012461D01*
X003544Y012540D02*
X004523Y012540D01*
X004444Y012618D02*
X003544Y012618D01*
X003544Y012697D02*
X004366Y012697D01*
X004287Y012776D02*
X003544Y012776D01*
X003544Y012854D02*
X004208Y012854D01*
X004130Y012933D02*
X003544Y012933D01*
X003544Y013011D02*
X004051Y013011D01*
X003973Y013090D02*
X003544Y013090D01*
X003544Y013168D02*
X003929Y013168D01*
X003960Y013247D02*
X003544Y013247D01*
X003544Y013325D02*
X004039Y013325D01*
X004117Y013404D02*
X003544Y013404D01*
X003544Y013482D02*
X004196Y013482D01*
X004274Y013561D02*
X003544Y013561D01*
X003544Y013639D02*
X004353Y013639D01*
X004431Y013718D02*
X003544Y013718D01*
X003264Y013718D02*
X003176Y013718D01*
X003208Y013639D02*
X003264Y013639D01*
X003264Y013561D02*
X003224Y013561D01*
X003224Y013482D02*
X003264Y013482D01*
X003264Y013404D02*
X003220Y013404D01*
X003187Y013325D02*
X003264Y013325D01*
X003264Y013247D02*
X003155Y013247D01*
X003080Y013168D02*
X003264Y013168D01*
X003264Y013090D02*
X002974Y013090D01*
X002956Y012933D02*
X003264Y012933D01*
X003264Y013011D02*
X001847Y013011D01*
X001856Y012933D02*
X002552Y012933D01*
X002488Y012906D02*
X002661Y012977D01*
X002847Y012977D01*
X003020Y012906D01*
X003152Y012774D01*
X003224Y012601D01*
X003224Y012414D01*
X003152Y012241D01*
X003020Y012109D01*
X002847Y012037D01*
X002661Y012037D01*
X002488Y012109D01*
X002356Y012241D01*
X002284Y012414D01*
X002284Y012601D01*
X002356Y012774D01*
X002488Y012906D01*
X002436Y012854D02*
X001866Y012854D01*
X001875Y012776D02*
X002357Y012776D01*
X002324Y012697D02*
X001891Y012697D01*
X001910Y012618D02*
X002291Y012618D01*
X002284Y012540D02*
X001929Y012540D01*
X001949Y012461D02*
X002284Y012461D01*
X002297Y012383D02*
X001968Y012383D01*
X001987Y012304D02*
X002329Y012304D01*
X002371Y012226D02*
X002007Y012226D01*
X002026Y012147D02*
X002450Y012147D01*
X002585Y012069D02*
X002046Y012069D01*
X002065Y011990D02*
X003623Y011990D01*
X003545Y012069D02*
X002923Y012069D01*
X002848Y011977D02*
X003020Y011906D01*
X003152Y011774D01*
X003224Y011601D01*
X003224Y011414D01*
X003152Y011241D01*
X003020Y011109D01*
X002848Y011037D01*
X002661Y011037D01*
X002488Y011109D01*
X002356Y011241D01*
X002284Y011414D01*
X002284Y011601D01*
X002356Y011774D01*
X002488Y011906D01*
X002661Y011977D01*
X002848Y011977D01*
X003006Y011912D02*
X003702Y011912D01*
X003780Y011833D02*
X003093Y011833D01*
X003160Y011754D02*
X003859Y011754D01*
X003937Y011676D02*
X003193Y011676D01*
X003224Y011597D02*
X004016Y011597D01*
X003997Y011519D02*
X003224Y011519D01*
X003224Y011440D02*
X003919Y011440D01*
X003895Y011362D02*
X003202Y011362D01*
X003170Y011283D02*
X003945Y011283D01*
X004023Y011205D02*
X003713Y011205D01*
X003727Y011199D02*
X003555Y011270D01*
X003368Y011270D01*
X003195Y011199D01*
X003063Y011066D01*
X002991Y010894D01*
X002991Y010707D01*
X003063Y010534D01*
X003195Y010402D01*
X003368Y010330D01*
X003555Y010330D01*
X003727Y010402D01*
X003860Y010534D01*
X003931Y010707D01*
X003931Y010894D01*
X003860Y011066D01*
X003727Y011199D01*
X003800Y011126D02*
X004102Y011126D01*
X004180Y011048D02*
X003867Y011048D01*
X003900Y010969D02*
X004244Y010969D01*
X004281Y010890D02*
X003931Y010890D01*
X003931Y010812D02*
X004359Y010812D01*
X004461Y010812D02*
X004574Y010812D01*
X004539Y010890D02*
X004652Y010890D01*
X004618Y010969D02*
X004731Y010969D01*
X004696Y011048D02*
X004780Y011048D01*
X004815Y011126D02*
X004888Y011126D01*
X004853Y011205D02*
X004966Y011205D01*
X004932Y011283D02*
X005045Y011283D01*
X005011Y011362D02*
X005124Y011362D01*
X005089Y011440D02*
X005464Y011440D01*
X005464Y011362D02*
X005236Y011362D01*
X005314Y011283D02*
X005464Y011283D01*
X005464Y011205D02*
X005345Y011205D01*
X005415Y011126D02*
X005425Y011126D01*
X005604Y011107D02*
X005196Y010700D01*
X005185Y010700D01*
X004887Y010341D02*
X004574Y010341D01*
X004607Y010262D02*
X004966Y010262D01*
X004809Y010419D02*
X004507Y010419D01*
X004420Y010498D02*
X004730Y010498D01*
X004595Y010576D02*
X003877Y010576D01*
X003910Y010655D02*
X004516Y010655D01*
X004495Y010733D02*
X003931Y010733D01*
X003917Y010498D02*
X003823Y010498D01*
X003830Y010419D02*
X003745Y010419D01*
X003762Y010341D02*
X003580Y010341D01*
X003730Y010262D02*
X002701Y010262D01*
X002660Y010341D02*
X003342Y010341D01*
X003177Y010419D02*
X002619Y010419D01*
X002579Y010498D02*
X003099Y010498D01*
X003045Y010576D02*
X002549Y010576D01*
X002519Y010655D02*
X003013Y010655D01*
X002991Y010733D02*
X002489Y010733D01*
X002459Y010812D02*
X002991Y010812D01*
X002991Y010890D02*
X002430Y010890D01*
X002400Y010969D02*
X003022Y010969D01*
X003055Y011048D02*
X002872Y011048D01*
X003037Y011126D02*
X003122Y011126D01*
X003116Y011205D02*
X003209Y011205D01*
X002636Y011048D02*
X002370Y011048D01*
X002340Y011126D02*
X002471Y011126D01*
X002392Y011205D02*
X002311Y011205D01*
X002338Y011283D02*
X002281Y011283D01*
X002306Y011362D02*
X002251Y011362D01*
X002221Y011440D02*
X002284Y011440D01*
X002284Y011519D02*
X002191Y011519D01*
X002162Y011597D02*
X002284Y011597D01*
X002315Y011676D02*
X002142Y011676D01*
X002123Y011754D02*
X002348Y011754D01*
X002415Y011833D02*
X002104Y011833D01*
X002084Y011912D02*
X002502Y011912D01*
X003058Y012147D02*
X003466Y012147D01*
X003388Y012226D02*
X003137Y012226D01*
X003179Y012304D02*
X003309Y012304D01*
X003264Y012383D02*
X003211Y012383D01*
X003224Y012461D02*
X003264Y012461D01*
X003264Y012540D02*
X003224Y012540D01*
X003217Y012618D02*
X003264Y012618D01*
X003264Y012697D02*
X003184Y012697D01*
X003151Y012776D02*
X003264Y012776D01*
X003264Y012854D02*
X003072Y012854D01*
X002534Y013090D02*
X001837Y013090D01*
X001828Y013168D02*
X002429Y013168D01*
X002353Y013247D02*
X001818Y013247D01*
X001809Y013325D02*
X002321Y013325D01*
X002288Y013404D02*
X001799Y013404D01*
X001789Y013482D02*
X002284Y013482D01*
X002284Y013561D02*
X001780Y013561D01*
X001770Y013639D02*
X002300Y013639D01*
X002333Y013718D02*
X001761Y013718D01*
X001751Y013797D02*
X002379Y013797D01*
X002457Y013875D02*
X001742Y013875D01*
X003051Y013875D02*
X003264Y013875D01*
X003264Y013797D02*
X003130Y013797D01*
X004499Y015210D02*
X005313Y015210D01*
X005240Y015132D02*
X004577Y015132D01*
X004656Y015053D02*
X005207Y015053D01*
X005175Y014975D02*
X004735Y014975D01*
X004813Y014896D02*
X005175Y014896D01*
X005175Y014818D02*
X004892Y014818D01*
X004970Y014739D02*
X005199Y014739D01*
X005231Y014661D02*
X005049Y014661D01*
X005127Y014582D02*
X005293Y014582D01*
X005373Y014503D02*
X005206Y014503D01*
X005422Y015289D02*
X004420Y015289D01*
X004479Y016703D02*
X022289Y016703D01*
X022289Y014896D02*
X015376Y014896D01*
X015434Y014818D02*
X022289Y014818D01*
X022289Y014739D02*
X015459Y014739D01*
X015459Y014661D02*
X022289Y014661D01*
X022289Y014582D02*
X015428Y014582D01*
X018904Y013807D02*
X020204Y013807D01*
X020443Y013718D02*
X020539Y013718D01*
X020617Y013639D02*
X020397Y013639D01*
X020459Y013797D02*
X020460Y013797D01*
X020011Y013639D02*
X019097Y013639D01*
X019118Y013954D02*
X019990Y013954D01*
X007659Y012691D02*
X007588Y012763D01*
X007586Y012767D01*
X007476Y012767D01*
X007546Y012697D01*
X005464Y012226D02*
X005434Y012226D01*
X005464Y011833D02*
X004708Y011833D01*
X004786Y011754D02*
X005464Y011754D01*
X005464Y011676D02*
X004865Y011676D01*
X005000Y011597D02*
X005464Y011597D01*
X005464Y011519D02*
X005078Y011519D01*
X004795Y012540D02*
X004649Y012540D01*
X004728Y012618D02*
X004795Y012618D01*
X004806Y012697D02*
X004826Y012697D01*
X005042Y012933D02*
X005093Y012933D01*
X004638Y010184D02*
X007664Y010184D01*
X007664Y010105D02*
X004638Y010105D01*
X004638Y010026D02*
X007625Y010026D01*
X007546Y009948D02*
X004617Y009948D01*
X004049Y009634D02*
X003031Y009634D01*
X002990Y009712D02*
X003884Y009712D01*
X003806Y009791D02*
X002949Y009791D01*
X002907Y009869D02*
X003752Y009869D01*
X003720Y009948D02*
X002866Y009948D01*
X002825Y010026D02*
X003698Y010026D01*
X003698Y010105D02*
X002784Y010105D01*
X002743Y010184D02*
X003698Y010184D01*
X004538Y019216D02*
X004643Y019216D01*
X004545Y019295D02*
X004460Y019295D01*
X004472Y019373D02*
X004306Y019373D01*
D16*
X012604Y013407D02*
X012704Y013407D01*
X012804Y013307D01*
X016504Y013307D01*
X016604Y013407D01*
X017704Y013407D01*
X017904Y013607D01*
D17*
X020204Y014307D02*
X021304Y013207D01*
X021304Y012507D01*
X021304Y010107D01*
X019604Y008407D01*
X016204Y008407D01*
M02*
