G75*
G70*
%OFA0B0*%
%FSLAX24Y24*%
%IPPOS*%
%LPD*%
%AMOC8*
5,1,8,0,0,1.08239X$1,22.5*
%
%ADD10C,0.0100*%
%ADD11C,0.0000*%
D10*
X002504Y004507D02*
X003004Y004507D01*
X002504Y004507D02*
X002442Y004512D01*
X002381Y004520D01*
X002320Y004532D01*
X002260Y004547D01*
X002200Y004566D01*
X002143Y004589D01*
X002086Y004614D01*
X002031Y004644D01*
X001978Y004676D01*
X001927Y004711D01*
X001878Y004750D01*
X001832Y004791D01*
X001788Y004835D01*
X001747Y004881D01*
X001708Y004930D01*
X001673Y004981D01*
X001641Y005034D01*
X001611Y005089D01*
X001586Y005146D01*
X001563Y005203D01*
X001544Y005263D01*
X001529Y005323D01*
X001517Y005384D01*
X001509Y005445D01*
X001504Y005507D01*
X001504Y028007D01*
X001504Y028008D02*
X001509Y028070D01*
X001517Y028131D01*
X001529Y028192D01*
X001544Y028252D01*
X001563Y028312D01*
X001586Y028369D01*
X001611Y028426D01*
X001641Y028481D01*
X001673Y028534D01*
X001708Y028585D01*
X001747Y028634D01*
X001788Y028680D01*
X001832Y028724D01*
X001878Y028765D01*
X001927Y028804D01*
X001978Y028839D01*
X002031Y028871D01*
X002086Y028901D01*
X002143Y028926D01*
X002200Y028949D01*
X002260Y028968D01*
X002320Y028983D01*
X002381Y028995D01*
X002442Y029003D01*
X002504Y029008D01*
X002504Y029007D02*
X003004Y029007D01*
X003004Y029008D02*
X011494Y028395D01*
X020004Y028191D01*
X028514Y028395D01*
X037004Y029008D01*
X037004Y029007D02*
X037504Y029007D01*
X037504Y029008D02*
X037566Y029003D01*
X037627Y028995D01*
X037688Y028983D01*
X037748Y028968D01*
X037808Y028949D01*
X037865Y028926D01*
X037922Y028901D01*
X037977Y028871D01*
X038030Y028839D01*
X038081Y028804D01*
X038130Y028765D01*
X038176Y028724D01*
X038220Y028680D01*
X038261Y028634D01*
X038300Y028585D01*
X038335Y028534D01*
X038367Y028481D01*
X038397Y028426D01*
X038422Y028369D01*
X038445Y028312D01*
X038464Y028252D01*
X038479Y028192D01*
X038491Y028131D01*
X038499Y028070D01*
X038504Y028008D01*
X038504Y028007D02*
X038504Y005507D01*
X038499Y005445D01*
X038491Y005384D01*
X038479Y005323D01*
X038464Y005263D01*
X038445Y005203D01*
X038422Y005146D01*
X038397Y005089D01*
X038367Y005034D01*
X038335Y004981D01*
X038300Y004930D01*
X038261Y004881D01*
X038220Y004835D01*
X038176Y004791D01*
X038130Y004750D01*
X038081Y004711D01*
X038030Y004676D01*
X037977Y004644D01*
X037922Y004614D01*
X037865Y004589D01*
X037808Y004566D01*
X037748Y004547D01*
X037688Y004532D01*
X037627Y004520D01*
X037566Y004512D01*
X037504Y004507D01*
X037004Y004507D01*
X028514Y005120D01*
X020004Y005324D01*
X011494Y005120D01*
X003004Y004507D01*
D11*
X035827Y011218D02*
X035829Y011244D01*
X035835Y011270D01*
X035845Y011295D01*
X035858Y011318D01*
X035874Y011338D01*
X035894Y011356D01*
X035916Y011371D01*
X035939Y011383D01*
X035965Y011391D01*
X035991Y011395D01*
X036017Y011395D01*
X036043Y011391D01*
X036069Y011383D01*
X036093Y011371D01*
X036114Y011356D01*
X036134Y011338D01*
X036150Y011318D01*
X036163Y011295D01*
X036173Y011270D01*
X036179Y011244D01*
X036181Y011218D01*
X036179Y011192D01*
X036173Y011166D01*
X036163Y011141D01*
X036150Y011118D01*
X036134Y011098D01*
X036114Y011080D01*
X036092Y011065D01*
X036069Y011053D01*
X036043Y011045D01*
X036017Y011041D01*
X035991Y011041D01*
X035965Y011045D01*
X035939Y011053D01*
X035915Y011065D01*
X035894Y011080D01*
X035874Y011098D01*
X035858Y011118D01*
X035845Y011141D01*
X035835Y011166D01*
X035829Y011192D01*
X035827Y011218D01*
X035827Y012596D02*
X035829Y012622D01*
X035835Y012648D01*
X035845Y012673D01*
X035858Y012696D01*
X035874Y012716D01*
X035894Y012734D01*
X035916Y012749D01*
X035939Y012761D01*
X035965Y012769D01*
X035991Y012773D01*
X036017Y012773D01*
X036043Y012769D01*
X036069Y012761D01*
X036093Y012749D01*
X036114Y012734D01*
X036134Y012716D01*
X036150Y012696D01*
X036163Y012673D01*
X036173Y012648D01*
X036179Y012622D01*
X036181Y012596D01*
X036179Y012570D01*
X036173Y012544D01*
X036163Y012519D01*
X036150Y012496D01*
X036134Y012476D01*
X036114Y012458D01*
X036092Y012443D01*
X036069Y012431D01*
X036043Y012423D01*
X036017Y012419D01*
X035991Y012419D01*
X035965Y012423D01*
X035939Y012431D01*
X035915Y012443D01*
X035894Y012458D01*
X035874Y012476D01*
X035858Y012496D01*
X035845Y012519D01*
X035835Y012544D01*
X035829Y012570D01*
X035827Y012596D01*
M02*
