%
M48
M72
T01C0.0150
T02C0.0200
T03C0.0354
T04C0.0400
T05C0.1300
%
T01
X1907Y6477
X1907Y6877
X1907Y7277
X1907Y7677
X1907Y8077
X1907Y8477
X1907Y8877
X1907Y9277
X2307Y9277
X2307Y9677
X1907Y9677
X2707Y9677
X3107Y9677
X3507Y9677
X3907Y9677
X4307Y9677
X4707Y9677
X5107Y9677
X5407Y9877
X5407Y10277
X5407Y10677
X5407Y11077
X5807Y11077
X6207Y11077
X6507Y11277
X6207Y11477
X5807Y11477
X5407Y11477
X5407Y11877
X6407Y12577
X6807Y12577
X7207Y12577
X7607Y12577
X8327Y13297
X9064Y13987
X9704Y13987
X9647Y14657
X9967Y14817
X10424Y15747
X10504Y16387
X10344Y16787
X11784Y17107
X12424Y16387
X13144Y16947
X13584Y16907
X13784Y16107
X14264Y15427
X15224Y15667
X15224Y16067
X15224Y16707
X15624Y16707
X16024Y16707
X17664Y17547
X17944Y17267
X18184Y17987
X18584Y17907
X18704Y17547
X18824Y18227
X18584Y18867
X18104Y19027
X17864Y19267
X17624Y19507
X17064Y19587
X16784Y19867
X17144Y20147
X17344Y20347
X16864Y20427
X16464Y20587
X16144Y20787
X15824Y20787
X14024Y20227
X13704Y19907
X13384Y19587
X13064Y19267
X13704Y18627
X14744Y18787
X15624Y18787
X18344Y20747
X18584Y20427
X19744Y19867
X19864Y19147
X20264Y19107
X19944Y18707
X19944Y18307
X19944Y17827
X20264Y17267
X20344Y16787
X20024Y16547
X19944Y15627
X18744Y16547
X16904Y15107
X17224Y14627
X16224Y14507
X15624Y14947
X15224Y14547
X14544Y14547
X14264Y14227
X13784Y13347
X14904Y13187
X15384Y13267
X17744Y12627
X18424Y13147
X18584Y13507
X18784Y13867
X19144Y13147
X19584Y13387
X19824Y13067
X19824Y12107
X19664Y11867
X19224Y11187
X19224Y10867
X19464Y10547
X19784Y10547
X21424Y11227
X21824Y11227
X22424Y10987
X22424Y10667
X21504Y12347
X22104Y13907
X22424Y14307
X22744Y14067
X23064Y14307
X23384Y14067
X23704Y14307
X24344Y13907
X25064Y14147
X25384Y13827
X26424Y13827
X26984Y13667
X27624Y13667
X28184Y13107
X28424Y12627
X28424Y12227
X28424Y11827
X28424Y11427
X28424Y11027
X27864Y10867
X27704Y10067
X28664Y9107
X28984Y10707
X29624Y11267
X29624Y11667
X30744Y11027
X30744Y10627
X31384Y10947
X33144Y10787
X33224Y11507
X33624Y11507
X33624Y11907
X33224Y11907
X32264Y9427
X36504Y10067
X34704Y16587
X34304Y16587
X33824Y16947
X33824Y17347
X34104Y17707
X34504Y17707
X30984Y17547
X30984Y17147
X30424Y17947
X30064Y17947
X28344Y17667
X26364Y16267
X26364Y15867
X26684Y15067
X28104Y15587
X24904Y17747
X24504Y17827
X24104Y17267
X24024Y16627
X24424Y16627
X24824Y16867
X24024Y15907
X24504Y14867
X25384Y12947
X25664Y12667
X25944Y12387
X24984Y11907
X24744Y12147
X24144Y12027
X24144Y12387
X21404Y14427
X21124Y14147
X20844Y14427
X20564Y14147
X20284Y14427
X17944Y13587
X17304Y11267
X16904Y11267
X16264Y9827
X15544Y9787
X15384Y9427
X14664Y9587
X14184Y9187
X10744Y12467
X10104Y12787
X9207Y12477
X9107Y11377
X9544Y10467
X9544Y9507
X12264Y14467
X12664Y14547
X8367Y14537
X8367Y14937
X8307Y15777
X6207Y14577
X5807Y14577
X5407Y14577
X5407Y14977
X5407Y15377
X5807Y14977
X5407Y15777
X5407Y16177
X5407Y16577
X5107Y16777
X4707Y16777
X4307Y16777
X3907Y16777
X3507Y16777
X3107Y16777
X2707Y16777
X2307Y16777
X1907Y16777
X1907Y17177
X2307Y17177
X1907Y17577
X1907Y17977
X1907Y18377
X1907Y18777
X1907Y19177
X1907Y19577
X1907Y19977
X1907Y20377
X1907Y20777
X1907Y21177
X1907Y21577
X1907Y21977
X1907Y22377
X1907Y22777
X1907Y23177
X1907Y23577
X1907Y23977
X1907Y24377
X1907Y24777
X1907Y25177
X1907Y25577
X1907Y25977
X1907Y26377
X1907Y26777
X7864Y22387
X8264Y22387
X9624Y21427
X9624Y20961
X9704Y20547
X9624Y19587
X8264Y19027
X11144Y18627
X10184Y21987
X12664Y22067
X12904Y21747
X16824Y23587
X17144Y23267
X17464Y22867
X18744Y23347
X18744Y23747
X19704Y24227
X19704Y24627
X21944Y22947
X22184Y22627
X22024Y22227
X21544Y22307
X21304Y22547
X22604Y22267
X22924Y22507
X23244Y22267
X23564Y22507
X23884Y22267
X22744Y21267
X23944Y20387
X24104Y19107
X22744Y18627
X22756Y18239
X22744Y17827
X22104Y17667
X21784Y17907
X21504Y17627
X21224Y18067
X21944Y18307
X19944Y20587
X25884Y19260
X31864Y20627
X31864Y21067
X33144Y21307
X33144Y21747
X34304Y20787
X34304Y20427
X34664Y21187
X35224Y21187
X35664Y20867
X4907Y18377
X3907Y18377
X3507Y18377
X3107Y18377
T02
X31564Y15387
X35404Y16027
X36204Y9707
X36524Y9387
X37884Y9507
X37884Y8467
T03
X36004Y11218
X36004Y12596
T04
X37004Y15507
X37004Y16507
X37004Y17507
X37004Y24507
X36004Y24507
X35004Y24507
X34004Y24507
X33004Y24507
X32004Y24507
X31004Y24507
X30004Y24507
X29004Y24507
X28004Y24507
X27004Y24507
X26004Y24507
X25004Y24507
X24004Y24507
X23004Y24507
X22004Y24507
X21004Y24507
X21004Y25507
X22004Y25507
X23004Y25507
X24004Y25507
X25004Y25507
X26004Y25507
X27004Y25507
X28004Y25507
X29004Y25507
X30004Y25507
X31004Y25507
X32004Y25507
X33004Y25507
X34004Y25507
X35004Y25507
X36004Y25507
X37004Y25507
X37004Y26507
X36004Y26507
X35004Y26507
X34004Y26507
X33004Y26507
X32004Y26507
X31004Y26507
X30004Y26507
X29004Y26507
X28004Y26507
X27004Y26507
X26004Y26507
X25004Y26507
X24004Y26507
X23004Y26507
X22004Y26507
X21004Y26507
X19004Y26507
X19004Y25507
X19004Y24507
X18004Y24507
X17004Y24507
X16004Y24507
X15004Y24507
X14004Y24507
X13004Y24507
X12004Y24507
X11004Y24507
X10004Y24507
X9004Y24507
X8004Y24507
X7004Y24507
X6004Y24507
X5004Y24507
X4004Y24507
X3004Y24507
X3004Y25507
X4004Y25507
X5004Y25507
X6004Y25507
X7004Y25507
X8004Y25507
X9004Y25507
X10004Y25507
X11004Y25507
X12004Y25507
X13004Y25507
X14004Y25507
X15004Y25507
X16004Y25507
X17004Y25507
X18004Y25507
X18004Y26507
X17004Y26507
X16004Y26507
X15004Y26507
X14004Y26507
X13004Y26507
X12004Y26507
X11004Y26507
X10004Y26507
X9004Y26507
X8004Y26507
X7004Y26507
X6004Y26507
X5004Y26507
X4004Y26507
X3004Y26507
X4004Y8507
X5004Y8507
X6004Y8507
X7004Y8507
X8004Y8507
X9004Y8507
X10004Y8507
X11004Y8507
X12004Y8507
X13004Y8507
X14004Y8507
X15004Y8507
X16004Y8507
X17004Y8507
X18004Y8507
X19004Y8507
X19004Y7507
X19004Y6507
X18004Y6507
X17004Y6507
X16004Y6507
X15004Y6507
X14004Y6507
X13004Y6507
X12004Y6507
X11004Y6507
X10004Y6507
X9004Y6507
X8004Y6507
X7004Y6507
X6004Y6507
X5004Y6507
X4004Y6507
X4004Y7507
X5004Y7507
X6004Y7507
X7004Y7507
X8004Y7507
X9004Y7507
X10004Y7507
X11004Y7507
X12004Y7507
X13004Y7507
X14004Y7507
X15004Y7507
X16004Y7507
X17004Y7507
X18004Y7507
X21004Y7507
X22004Y7507
X22004Y6507
X21004Y6507
X23004Y6507
X24004Y6507
X25004Y6507
X26004Y6507
X27004Y6507
X28004Y6507
X29004Y6507
X30004Y6507
X31004Y6507
X32004Y6507
X33004Y6507
X34004Y6507
X35004Y6507
X36004Y6507
X36004Y7507
X35004Y7507
X34004Y7507
X33004Y7507
X32004Y7507
X31004Y7507
X30004Y7507
X29004Y7507
X28004Y7507
X27004Y7507
X26004Y7507
X25004Y7507
X24004Y7507
X23004Y7507
X23004Y8507
X24004Y8507
X25004Y8507
X26004Y8507
X27004Y8507
X28004Y8507
X29004Y8507
X30004Y8507
X31004Y8507
X32004Y8507
X33004Y8507
X34004Y8507
X35004Y8507
X36004Y8507
X22004Y8507
X21004Y8507
T05
X2564Y5557
X2564Y27947
X37444Y27947
X37444Y5557
M30
