G75*
G70*
%OFA0B0*%
%FSLAX24Y24*%
%IPPOS*%
%LPD*%
%AMOC8*
5,1,8,0,0,1.08239X$1,22.5*
%
%ADD10C,0.0040*%
%ADD11C,0.0100*%
%ADD12C,0.0070*%
%ADD13C,0.0000*%
%ADD14C,0.0060*%
%ADD15C,0.0080*%
D10*
X018844Y010467D02*
X018844Y010928D01*
X019074Y010928D01*
X019151Y010851D01*
X019151Y010698D01*
X019074Y010621D01*
X018844Y010621D01*
X018997Y010621D02*
X019151Y010467D01*
X019304Y010544D02*
X019304Y010698D01*
X019381Y010774D01*
X019534Y010774D01*
X019611Y010698D01*
X019611Y010621D01*
X019304Y010621D01*
X019304Y010544D02*
X019381Y010467D01*
X019534Y010467D01*
X019765Y010467D02*
X019995Y010467D01*
X020072Y010544D01*
X019995Y010621D01*
X019841Y010621D01*
X019765Y010698D01*
X019841Y010774D01*
X020072Y010774D01*
X020225Y010698D02*
X020225Y010544D01*
X020302Y010467D01*
X020455Y010467D01*
X020532Y010621D02*
X020225Y010621D01*
X020225Y010698D02*
X020302Y010774D01*
X020455Y010774D01*
X020532Y010698D01*
X020532Y010621D01*
X020685Y010774D02*
X020839Y010774D01*
X020762Y010851D02*
X020762Y010544D01*
X020839Y010467D01*
X035264Y008668D02*
X035264Y008438D01*
X035417Y008514D01*
X035494Y008514D01*
X035571Y008438D01*
X035571Y008284D01*
X035494Y008207D01*
X035341Y008207D01*
X035264Y008284D01*
X035264Y008668D02*
X035571Y008668D01*
X035724Y008668D02*
X035724Y008361D01*
X035878Y008207D01*
X036031Y008361D01*
X036031Y008668D01*
X036464Y008591D02*
X036541Y008668D01*
X036694Y008668D01*
X036771Y008591D01*
X036771Y008514D01*
X036694Y008438D01*
X036771Y008361D01*
X036771Y008284D01*
X036694Y008207D01*
X036541Y008207D01*
X036464Y008284D01*
X036617Y008438D02*
X036694Y008438D01*
X036924Y008284D02*
X037001Y008284D01*
X037001Y008207D01*
X036924Y008207D01*
X036924Y008284D01*
X037154Y008284D02*
X037231Y008207D01*
X037385Y008207D01*
X037461Y008284D01*
X037461Y008361D01*
X037385Y008438D01*
X037308Y008438D01*
X037385Y008438D02*
X037461Y008514D01*
X037461Y008591D01*
X037385Y008668D01*
X037231Y008668D01*
X037154Y008591D01*
X037615Y008668D02*
X037615Y008361D01*
X037768Y008207D01*
X037922Y008361D01*
X037922Y008668D01*
X037938Y021887D02*
X037938Y022348D01*
X037631Y022348D02*
X037938Y021887D01*
X037631Y021887D02*
X037631Y022348D01*
X037478Y022348D02*
X037324Y022348D01*
X037401Y022348D02*
X037401Y021887D01*
X037324Y021887D02*
X037478Y021887D01*
X037171Y022041D02*
X037171Y022348D01*
X036864Y022348D02*
X036864Y022041D01*
X037017Y021887D01*
X037171Y022041D01*
X036351Y022041D02*
X036198Y021887D01*
X036044Y022041D01*
X036044Y022348D01*
X035891Y022348D02*
X035584Y022348D01*
X035584Y022118D01*
X035737Y022194D01*
X035814Y022194D01*
X035891Y022118D01*
X035891Y021964D01*
X035814Y021887D01*
X035661Y021887D01*
X035584Y021964D01*
X036351Y022041D02*
X036351Y022348D01*
D11*
X003004Y004507D02*
X002504Y004507D01*
X002442Y004512D01*
X002381Y004520D01*
X002320Y004532D01*
X002260Y004547D01*
X002200Y004566D01*
X002143Y004589D01*
X002086Y004614D01*
X002031Y004644D01*
X001978Y004676D01*
X001927Y004711D01*
X001878Y004750D01*
X001832Y004791D01*
X001788Y004835D01*
X001747Y004881D01*
X001708Y004930D01*
X001673Y004981D01*
X001641Y005034D01*
X001611Y005089D01*
X001586Y005146D01*
X001563Y005203D01*
X001544Y005263D01*
X001529Y005323D01*
X001517Y005384D01*
X001509Y005445D01*
X001504Y005507D01*
X001504Y028007D01*
X001504Y028008D02*
X001509Y028070D01*
X001517Y028131D01*
X001529Y028192D01*
X001544Y028252D01*
X001563Y028312D01*
X001586Y028369D01*
X001611Y028426D01*
X001641Y028481D01*
X001673Y028534D01*
X001708Y028585D01*
X001747Y028634D01*
X001788Y028680D01*
X001832Y028724D01*
X001878Y028765D01*
X001927Y028804D01*
X001978Y028839D01*
X002031Y028871D01*
X002086Y028901D01*
X002143Y028926D01*
X002200Y028949D01*
X002260Y028968D01*
X002320Y028983D01*
X002381Y028995D01*
X002442Y029003D01*
X002504Y029008D01*
X002504Y029007D02*
X003004Y029007D01*
X003004Y029008D02*
X011494Y028395D01*
X020004Y028191D01*
X028514Y028395D01*
X037004Y029008D01*
X037004Y029007D02*
X037504Y029007D01*
X037504Y029008D02*
X037566Y029003D01*
X037627Y028995D01*
X037688Y028983D01*
X037748Y028968D01*
X037808Y028949D01*
X037865Y028926D01*
X037922Y028901D01*
X037977Y028871D01*
X038030Y028839D01*
X038081Y028804D01*
X038130Y028765D01*
X038176Y028724D01*
X038220Y028680D01*
X038261Y028634D01*
X038300Y028585D01*
X038335Y028534D01*
X038367Y028481D01*
X038397Y028426D01*
X038422Y028369D01*
X038445Y028312D01*
X038464Y028252D01*
X038479Y028192D01*
X038491Y028131D01*
X038499Y028070D01*
X038504Y028008D01*
X038504Y028007D02*
X038504Y005507D01*
X038499Y005445D01*
X038491Y005384D01*
X038479Y005323D01*
X038464Y005263D01*
X038445Y005203D01*
X038422Y005146D01*
X038397Y005089D01*
X038367Y005034D01*
X038335Y004981D01*
X038300Y004930D01*
X038261Y004881D01*
X038220Y004835D01*
X038176Y004791D01*
X038130Y004750D01*
X038081Y004711D01*
X038030Y004676D01*
X037977Y004644D01*
X037922Y004614D01*
X037865Y004589D01*
X037808Y004566D01*
X037748Y004547D01*
X037688Y004532D01*
X037627Y004520D01*
X037566Y004512D01*
X037504Y004507D01*
X037004Y004507D01*
X028514Y005120D01*
X020004Y005324D01*
X011494Y005120D01*
X003004Y004507D01*
D12*
X011039Y006674D02*
X011171Y006542D01*
X011434Y006542D01*
X011566Y006674D01*
X011566Y006938D01*
X011434Y007069D01*
X011302Y007069D01*
X011039Y006938D01*
X011039Y007333D01*
X011566Y007333D01*
X011831Y007333D02*
X011831Y006806D01*
X012094Y006542D01*
X012358Y006806D01*
X012358Y007333D01*
X026039Y007333D02*
X026039Y006938D01*
X026302Y007069D01*
X026434Y007069D01*
X026566Y006938D01*
X026566Y006674D01*
X026434Y006542D01*
X026171Y006542D01*
X026039Y006674D01*
X026039Y007333D02*
X026566Y007333D01*
X026831Y007333D02*
X026831Y006806D01*
X027094Y006542D01*
X027358Y006806D01*
X027358Y007333D01*
X028414Y006542D02*
X028942Y007333D01*
X029998Y007201D02*
X030130Y007333D01*
X030394Y007333D01*
X030525Y007201D01*
X030525Y007069D01*
X030394Y006938D01*
X030525Y006806D01*
X030525Y006674D01*
X030394Y006542D01*
X030130Y006542D01*
X029998Y006674D01*
X030262Y006938D02*
X030394Y006938D01*
X030790Y006674D02*
X030790Y006542D01*
X030922Y006542D01*
X030922Y006674D01*
X030790Y006674D01*
X031186Y006674D02*
X031318Y006542D01*
X031581Y006542D01*
X031713Y006674D01*
X031713Y006806D01*
X031581Y006938D01*
X031449Y006938D01*
X031581Y006938D02*
X031713Y007069D01*
X031713Y007201D01*
X031581Y007333D01*
X031318Y007333D01*
X031186Y007201D01*
X031978Y007333D02*
X031978Y006806D01*
X032241Y006542D01*
X032505Y006806D01*
X032505Y007333D01*
X027970Y022279D02*
X028101Y022411D01*
X028101Y023069D01*
X027706Y023069D01*
X027574Y022938D01*
X027574Y022674D01*
X027706Y022542D01*
X028101Y022542D01*
X027970Y022279D02*
X027838Y022279D01*
X028366Y022674D02*
X028498Y022542D01*
X028893Y022542D01*
X028893Y023069D01*
X029158Y023333D02*
X029290Y023333D01*
X029290Y022542D01*
X029158Y022542D02*
X029422Y022542D01*
X029686Y022674D02*
X029818Y022806D01*
X030213Y022806D01*
X030213Y022938D02*
X030081Y023069D01*
X029818Y023069D01*
X029686Y022674D02*
X029818Y022542D01*
X030213Y022542D01*
X030213Y022938D01*
X030478Y023069D02*
X030741Y023069D01*
X030610Y023201D02*
X030610Y022674D01*
X030741Y022542D01*
X031006Y022674D02*
X031006Y022938D01*
X031138Y023069D01*
X031401Y023069D01*
X031533Y022938D01*
X031533Y022806D01*
X031006Y022806D01*
X031006Y022674D02*
X031138Y022542D01*
X031401Y022542D01*
X031798Y022674D02*
X031798Y022938D01*
X031929Y023069D01*
X032325Y023069D01*
X032325Y023333D02*
X032325Y022542D01*
X031929Y022542D01*
X031798Y022674D01*
X033381Y022542D02*
X033908Y023333D01*
X034965Y023333D02*
X034965Y022938D01*
X035229Y023069D01*
X035360Y023069D01*
X035492Y022938D01*
X035492Y022674D01*
X035360Y022542D01*
X035097Y022542D01*
X034965Y022674D01*
X034965Y023333D02*
X035492Y023333D01*
X035757Y023333D02*
X035757Y022806D01*
X036020Y022542D01*
X036284Y022806D01*
X036284Y023333D01*
X028366Y023069D02*
X028366Y022674D01*
X027310Y022806D02*
X026783Y022806D01*
X026783Y022674D02*
X026783Y022938D01*
X026914Y023069D01*
X027178Y023069D01*
X027310Y022938D01*
X027310Y022806D01*
X027178Y022542D02*
X026914Y022542D01*
X026783Y022674D01*
X026518Y023069D02*
X026386Y023069D01*
X026123Y022806D01*
X026123Y023069D02*
X026123Y022542D01*
X025858Y022542D02*
X025858Y022938D01*
X025726Y023069D01*
X025331Y023069D01*
X025331Y022542D01*
X025066Y022674D02*
X025066Y023333D01*
X024539Y023333D02*
X024539Y022674D01*
X024671Y022542D01*
X024934Y022542D01*
X025066Y022674D01*
X017325Y022542D02*
X016929Y022542D01*
X016798Y022674D01*
X016798Y022938D01*
X016929Y023069D01*
X017325Y023069D01*
X017325Y023333D02*
X017325Y022542D01*
X016533Y022806D02*
X016533Y022938D01*
X016401Y023069D01*
X016138Y023069D01*
X016006Y022938D01*
X016006Y022674D01*
X016138Y022542D01*
X016401Y022542D01*
X016533Y022806D02*
X016006Y022806D01*
X015741Y023069D02*
X015478Y023069D01*
X015610Y023201D02*
X015610Y022674D01*
X015741Y022542D01*
X015213Y022542D02*
X015213Y022938D01*
X015081Y023069D01*
X014818Y023069D01*
X014818Y022806D02*
X015213Y022806D01*
X015213Y022542D02*
X014818Y022542D01*
X014686Y022674D01*
X014818Y022806D01*
X014422Y022542D02*
X014158Y022542D01*
X014290Y022542D02*
X014290Y023333D01*
X014158Y023333D01*
X013893Y023069D02*
X013893Y022542D01*
X013498Y022542D01*
X013366Y022674D01*
X013366Y023069D01*
X013101Y023069D02*
X012706Y023069D01*
X012574Y022938D01*
X012574Y022674D01*
X012706Y022542D01*
X013101Y022542D01*
X013101Y022411D02*
X013101Y023069D01*
X013101Y022411D02*
X012970Y022279D01*
X012838Y022279D01*
X012178Y022542D02*
X011914Y022542D01*
X011783Y022674D01*
X011783Y022938D01*
X011914Y023069D01*
X012178Y023069D01*
X012310Y022938D01*
X012310Y022806D01*
X011783Y022806D01*
X011518Y023069D02*
X011386Y023069D01*
X011123Y022806D01*
X011123Y023069D02*
X011123Y022542D01*
X010858Y022542D02*
X010858Y022938D01*
X010726Y023069D01*
X010331Y023069D01*
X010331Y022542D01*
X010066Y022674D02*
X010066Y023333D01*
X009539Y023333D02*
X009539Y022674D01*
X009671Y022542D01*
X009934Y022542D01*
X010066Y022674D01*
D13*
X035827Y012596D02*
X035829Y012622D01*
X035835Y012648D01*
X035845Y012673D01*
X035858Y012696D01*
X035874Y012716D01*
X035894Y012734D01*
X035916Y012749D01*
X035939Y012761D01*
X035965Y012769D01*
X035991Y012773D01*
X036017Y012773D01*
X036043Y012769D01*
X036069Y012761D01*
X036093Y012749D01*
X036114Y012734D01*
X036134Y012716D01*
X036150Y012696D01*
X036163Y012673D01*
X036173Y012648D01*
X036179Y012622D01*
X036181Y012596D01*
X036179Y012570D01*
X036173Y012544D01*
X036163Y012519D01*
X036150Y012496D01*
X036134Y012476D01*
X036114Y012458D01*
X036092Y012443D01*
X036069Y012431D01*
X036043Y012423D01*
X036017Y012419D01*
X035991Y012419D01*
X035965Y012423D01*
X035939Y012431D01*
X035915Y012443D01*
X035894Y012458D01*
X035874Y012476D01*
X035858Y012496D01*
X035845Y012519D01*
X035835Y012544D01*
X035829Y012570D01*
X035827Y012596D01*
X035827Y011218D02*
X035829Y011244D01*
X035835Y011270D01*
X035845Y011295D01*
X035858Y011318D01*
X035874Y011338D01*
X035894Y011356D01*
X035916Y011371D01*
X035939Y011383D01*
X035965Y011391D01*
X035991Y011395D01*
X036017Y011395D01*
X036043Y011391D01*
X036069Y011383D01*
X036093Y011371D01*
X036114Y011356D01*
X036134Y011338D01*
X036150Y011318D01*
X036163Y011295D01*
X036173Y011270D01*
X036179Y011244D01*
X036181Y011218D01*
X036179Y011192D01*
X036173Y011166D01*
X036163Y011141D01*
X036150Y011118D01*
X036134Y011098D01*
X036114Y011080D01*
X036092Y011065D01*
X036069Y011053D01*
X036043Y011045D01*
X036017Y011041D01*
X035991Y011041D01*
X035965Y011045D01*
X035939Y011053D01*
X035915Y011065D01*
X035894Y011080D01*
X035874Y011098D01*
X035858Y011118D01*
X035845Y011141D01*
X035835Y011166D01*
X035829Y011192D01*
X035827Y011218D01*
D14*
X036764Y009407D02*
X037764Y009407D01*
X037781Y009405D01*
X037798Y009401D01*
X037814Y009394D01*
X037828Y009384D01*
X037841Y009371D01*
X037851Y009357D01*
X037858Y009341D01*
X037862Y009324D01*
X037864Y009307D01*
X037864Y008707D01*
X037862Y008690D01*
X037858Y008673D01*
X037851Y008657D01*
X037841Y008643D01*
X037828Y008630D01*
X037814Y008620D01*
X037798Y008613D01*
X037781Y008609D01*
X037764Y008607D01*
X036764Y008607D01*
X036747Y008609D01*
X036730Y008613D01*
X036714Y008620D01*
X036700Y008630D01*
X036687Y008643D01*
X036677Y008657D01*
X036670Y008673D01*
X036666Y008690D01*
X036664Y008707D01*
X036664Y009307D01*
X036666Y009324D01*
X036670Y009341D01*
X036677Y009357D01*
X036687Y009371D01*
X036700Y009384D01*
X036714Y009394D01*
X036730Y009401D01*
X036747Y009405D01*
X036764Y009407D01*
X036584Y022067D02*
X037584Y022067D01*
X037601Y022069D01*
X037618Y022073D01*
X037634Y022080D01*
X037648Y022090D01*
X037661Y022103D01*
X037671Y022117D01*
X037678Y022133D01*
X037682Y022150D01*
X037684Y022167D01*
X037684Y022767D01*
X037682Y022784D01*
X037678Y022801D01*
X037671Y022817D01*
X037661Y022831D01*
X037648Y022844D01*
X037634Y022854D01*
X037618Y022861D01*
X037601Y022865D01*
X037584Y022867D01*
X036584Y022867D01*
X036567Y022865D01*
X036550Y022861D01*
X036534Y022854D01*
X036520Y022844D01*
X036507Y022831D01*
X036497Y022817D01*
X036490Y022801D01*
X036486Y022784D01*
X036484Y022767D01*
X036484Y022167D01*
X036486Y022150D01*
X036490Y022133D01*
X036497Y022117D01*
X036507Y022103D01*
X036520Y022090D01*
X036534Y022080D01*
X036550Y022073D01*
X036567Y022069D01*
X036584Y022067D01*
X009324Y011007D02*
X009324Y010007D01*
X009322Y009990D01*
X009318Y009973D01*
X009311Y009957D01*
X009301Y009943D01*
X009288Y009930D01*
X009274Y009920D01*
X009258Y009913D01*
X009241Y009909D01*
X009224Y009907D01*
X008624Y009907D01*
X008607Y009909D01*
X008590Y009913D01*
X008574Y009920D01*
X008560Y009930D01*
X008547Y009943D01*
X008537Y009957D01*
X008530Y009973D01*
X008526Y009990D01*
X008524Y010007D01*
X008524Y011007D01*
X008526Y011024D01*
X008530Y011041D01*
X008537Y011057D01*
X008547Y011071D01*
X008560Y011084D01*
X008574Y011094D01*
X008590Y011101D01*
X008607Y011105D01*
X008624Y011107D01*
X009224Y011107D01*
X009241Y011105D01*
X009258Y011101D01*
X009274Y011094D01*
X009288Y011084D01*
X009301Y011071D01*
X009311Y011057D01*
X009318Y011041D01*
X009322Y011024D01*
X009324Y011007D01*
X007084Y011007D02*
X007084Y010007D01*
X007082Y009990D01*
X007078Y009973D01*
X007071Y009957D01*
X007061Y009943D01*
X007048Y009930D01*
X007034Y009920D01*
X007018Y009913D01*
X007001Y009909D01*
X006984Y009907D01*
X006384Y009907D01*
X006367Y009909D01*
X006350Y009913D01*
X006334Y009920D01*
X006320Y009930D01*
X006307Y009943D01*
X006297Y009957D01*
X006290Y009973D01*
X006286Y009990D01*
X006284Y010007D01*
X006284Y011007D01*
X006286Y011024D01*
X006290Y011041D01*
X006297Y011057D01*
X006307Y011071D01*
X006320Y011084D01*
X006334Y011094D01*
X006350Y011101D01*
X006367Y011105D01*
X006384Y011107D01*
X006984Y011107D01*
X007001Y011105D01*
X007018Y011101D01*
X007034Y011094D01*
X007048Y011084D01*
X007061Y011071D01*
X007071Y011057D01*
X007078Y011041D01*
X007082Y011024D01*
X007084Y011007D01*
D15*
X025404Y016557D02*
X025569Y016167D01*
X025644Y016137D01*
X025884Y016182D01*
X025974Y016167D01*
X026109Y016047D01*
X026124Y015957D01*
X026019Y015657D01*
X026049Y015582D01*
X026364Y015417D01*
X026454Y015417D01*
X026694Y015612D01*
X026769Y015627D01*
X026919Y015597D01*
X026994Y015297D01*
X027054Y015237D01*
X027414Y015282D01*
X027459Y015342D01*
X027519Y015597D01*
X027564Y015642D01*
X027774Y015702D01*
X027834Y015702D01*
X028029Y015522D01*
X028119Y015492D01*
X028389Y015687D01*
X028389Y015777D01*
X028314Y016032D01*
X028329Y016092D01*
X028509Y016257D01*
X028779Y016212D01*
X028869Y016242D01*
X029004Y016542D01*
X028959Y016632D01*
X028764Y016797D01*
X028794Y017007D01*
X028839Y017067D01*
X029034Y017172D01*
X029079Y017232D01*
X029049Y017592D01*
X028989Y017667D01*
X028704Y017727D01*
X028644Y017877D01*
X028659Y017922D01*
X028809Y018177D01*
X028809Y018282D01*
X028569Y018567D01*
X028359Y018567D01*
X028104Y018417D01*
X027969Y018507D01*
X027954Y018912D01*
X027894Y018957D01*
X027429Y019017D01*
X027309Y018942D01*
X027219Y018612D01*
X027174Y018552D01*
X026994Y018552D01*
X026949Y018612D01*
X026694Y018882D01*
X026589Y018882D01*
X026169Y018612D01*
X026154Y018507D01*
X026274Y018192D01*
X026259Y018117D01*
X026079Y017937D01*
X025989Y017937D01*
X025704Y017997D01*
X025614Y017967D01*
X025434Y017532D01*
X025434Y017397D01*
X025779Y017157D01*
X025809Y017112D01*
X025779Y016857D01*
X025464Y016677D01*
X025404Y016557D01*
X026214Y016827D02*
X026214Y017112D01*
X026229Y017202D01*
X026349Y017502D01*
X026439Y017637D01*
X026514Y017742D01*
X026589Y017817D01*
X026634Y017592D01*
X026664Y017502D01*
X026724Y017457D01*
X026769Y017457D01*
X026874Y017502D01*
X026859Y017337D01*
X026829Y017097D01*
X026799Y016812D01*
X026769Y016602D01*
X026709Y016512D01*
X026634Y016437D01*
X026544Y016392D01*
X026439Y016362D01*
X026379Y016437D01*
X026319Y016527D01*
X026259Y016647D01*
X026214Y016827D01*
X027324Y016347D02*
X027294Y016212D01*
X027264Y016122D01*
X027189Y016062D01*
X027339Y016062D01*
X027639Y016152D01*
X027804Y016257D01*
X027984Y016392D01*
X028104Y016542D01*
X028209Y016707D01*
X028269Y016842D01*
X028299Y016977D01*
X028314Y017142D01*
X028314Y017277D01*
X028314Y017142D02*
X028239Y017022D01*
X028149Y016902D01*
X027969Y016782D01*
X027699Y016677D01*
X027579Y016632D01*
X027399Y016617D01*
X027354Y016572D01*
X027339Y016467D01*
X027324Y016347D01*
X027444Y017142D02*
X027519Y017157D01*
X027639Y017232D01*
X027714Y017322D01*
X027729Y017472D01*
X027714Y017562D01*
X027654Y017637D01*
X027549Y017637D01*
X027504Y017592D01*
X027444Y017142D01*
X027549Y018087D02*
X027099Y018072D01*
X027024Y018087D01*
X027249Y018177D01*
X027519Y018192D01*
X027759Y018132D01*
X027849Y018057D01*
X027954Y017982D01*
X028029Y017907D01*
X027849Y018057D02*
X027549Y018087D01*
M02*
