G75*
G70*
%OFA0B0*%
%FSLAX24Y24*%
%IPPOS*%
%LPD*%
%AMOC8*
5,1,8,0,0,1.08239X$1,22.5*
%
%ADD10C,0.0740*%
%ADD11C,0.0600*%
%ADD12R,0.0250X0.0500*%
%ADD13C,0.0060*%
%ADD14C,0.0310*%
%ADD15C,0.0100*%
%ADD16C,0.0500*%
%ADD17C,0.0360*%
%ADD18C,0.0240*%
%ADD19C,0.0760*%
%ADD20C,0.0400*%
%ADD21C,0.0300*%
%ADD22C,0.0350*%
%ADD23C,0.0120*%
%ADD24C,0.1700*%
D10*
X004004Y006507D03*
X005004Y006507D03*
X006004Y006507D03*
X007004Y006507D03*
X008004Y006507D03*
X009004Y006507D03*
X010004Y006507D03*
X011004Y006507D03*
X012004Y006507D03*
X013004Y006507D03*
X014004Y006507D03*
X015004Y006507D03*
X016004Y006507D03*
X017004Y006507D03*
X018004Y006507D03*
X019004Y006507D03*
X019004Y007507D03*
X018004Y007507D03*
X017004Y007507D03*
X016004Y007507D03*
X015004Y007507D03*
X014004Y007507D03*
X013004Y007507D03*
X012004Y007507D03*
X011004Y007507D03*
X010004Y007507D03*
X009004Y007507D03*
X008004Y007507D03*
X007004Y007507D03*
X006004Y007507D03*
X005004Y007507D03*
X004004Y007507D03*
X004004Y008507D03*
X005004Y008507D03*
X006004Y008507D03*
X007004Y008507D03*
X008004Y008507D03*
X009004Y008507D03*
X010004Y008507D03*
X011004Y008507D03*
X012004Y008507D03*
X013004Y008507D03*
X014004Y008507D03*
X015004Y008507D03*
X016004Y008507D03*
X017004Y008507D03*
X018004Y008507D03*
X019004Y008507D03*
X021004Y008507D03*
X022004Y008507D03*
X023004Y008507D03*
X024004Y008507D03*
X025004Y008507D03*
X026004Y008507D03*
X027004Y008507D03*
X028004Y008507D03*
X029004Y008507D03*
X030004Y008507D03*
X031004Y008507D03*
X032004Y008507D03*
X033004Y008507D03*
X034004Y008507D03*
X035004Y008507D03*
X036004Y008507D03*
X036004Y007507D03*
X035004Y007507D03*
X035004Y006507D03*
X036004Y006507D03*
X034004Y006507D03*
X033004Y006507D03*
X032004Y006507D03*
X031004Y006507D03*
X030004Y006507D03*
X029004Y006507D03*
X028004Y006507D03*
X027004Y006507D03*
X026004Y006507D03*
X025004Y006507D03*
X024004Y006507D03*
X023004Y006507D03*
X022004Y006507D03*
X021004Y006507D03*
X021004Y007507D03*
X022004Y007507D03*
X023004Y007507D03*
X024004Y007507D03*
X025004Y007507D03*
X026004Y007507D03*
X027004Y007507D03*
X028004Y007507D03*
X029004Y007507D03*
X030004Y007507D03*
X031004Y007507D03*
X032004Y007507D03*
X033004Y007507D03*
X034004Y007507D03*
X034004Y024507D03*
X033004Y024507D03*
X032004Y024507D03*
X031004Y024507D03*
X030004Y024507D03*
X029004Y024507D03*
X028004Y024507D03*
X027004Y024507D03*
X026004Y024507D03*
X025004Y024507D03*
X024004Y024507D03*
X023004Y024507D03*
X022004Y024507D03*
X021004Y024507D03*
X021004Y025507D03*
X022004Y025507D03*
X023004Y025507D03*
X024004Y025507D03*
X025004Y025507D03*
X026004Y025507D03*
X027004Y025507D03*
X028004Y025507D03*
X029004Y025507D03*
X030004Y025507D03*
X031004Y025507D03*
X032004Y025507D03*
X033004Y025507D03*
X034004Y025507D03*
X035004Y025507D03*
X036004Y025507D03*
X036004Y024507D03*
X035004Y024507D03*
X037004Y024507D03*
X037004Y025507D03*
X037004Y026507D03*
X036004Y026507D03*
X035004Y026507D03*
X034004Y026507D03*
X033004Y026507D03*
X032004Y026507D03*
X031004Y026507D03*
X030004Y026507D03*
X029004Y026507D03*
X028004Y026507D03*
X027004Y026507D03*
X026004Y026507D03*
X025004Y026507D03*
X024004Y026507D03*
X023004Y026507D03*
X022004Y026507D03*
X021004Y026507D03*
X019004Y026507D03*
X019004Y025507D03*
X019004Y024507D03*
X018004Y024507D03*
X017004Y024507D03*
X016004Y024507D03*
X015004Y024507D03*
X014004Y024507D03*
X013004Y024507D03*
X012004Y024507D03*
X011004Y024507D03*
X010004Y024507D03*
X009004Y024507D03*
X008004Y024507D03*
X007004Y024507D03*
X006004Y024507D03*
X005004Y024507D03*
X004004Y024507D03*
X003004Y024507D03*
X003004Y025507D03*
X004004Y025507D03*
X005004Y025507D03*
X006004Y025507D03*
X007004Y025507D03*
X008004Y025507D03*
X009004Y025507D03*
X010004Y025507D03*
X011004Y025507D03*
X012004Y025507D03*
X013004Y025507D03*
X014004Y025507D03*
X015004Y025507D03*
X016004Y025507D03*
X017004Y025507D03*
X018004Y025507D03*
X018004Y026507D03*
X017004Y026507D03*
X016004Y026507D03*
X015004Y026507D03*
X014004Y026507D03*
X013004Y026507D03*
X012004Y026507D03*
X011004Y026507D03*
X010004Y026507D03*
X009004Y026507D03*
X008004Y026507D03*
X007004Y026507D03*
X006004Y026507D03*
X005004Y026507D03*
X004004Y026507D03*
X003004Y026507D03*
D11*
X036704Y017507D02*
X037304Y017507D01*
X037304Y016507D02*
X036704Y016507D01*
X036704Y015507D02*
X037304Y015507D01*
D12*
X020181Y025507D03*
X019827Y025507D03*
D13*
X018004Y024507D02*
X018004Y023367D01*
X022744Y018627D01*
X022756Y018239D02*
X022732Y018239D01*
X017004Y023967D01*
X017004Y024507D01*
X016824Y023587D02*
X016824Y023187D01*
X015544Y021907D01*
X013144Y021907D01*
X012984Y022067D01*
X012664Y022067D01*
X012904Y021747D02*
X015624Y021747D01*
X017144Y023267D01*
X017464Y022867D02*
X018344Y021987D01*
X018344Y020747D01*
X017304Y021347D02*
X010824Y021347D01*
X010184Y021987D01*
X009624Y021427D02*
X009824Y021227D01*
X017024Y021227D01*
X019944Y018307D01*
X019544Y018227D02*
X019544Y018507D01*
X016984Y021067D01*
X009730Y021067D01*
X009624Y020961D01*
X009304Y021107D02*
X009624Y021427D01*
X009304Y021107D02*
X009304Y020787D01*
X009544Y020547D01*
X009704Y020547D01*
X009144Y019907D02*
X008264Y019027D01*
X009144Y019907D02*
X010344Y019907D01*
X011464Y018787D01*
X013064Y018787D01*
X014744Y020467D01*
X016344Y020467D01*
X016464Y020587D01*
X016744Y020307D02*
X014824Y020307D01*
X013144Y018627D01*
X011144Y018627D01*
X010904Y018147D02*
X009064Y016307D01*
X009064Y013987D01*
X009704Y013987D02*
X010944Y015227D01*
X010424Y015747D01*
X010504Y016387D02*
X012424Y016387D01*
X012424Y015907D02*
X011624Y015907D01*
X010944Y015227D01*
X012264Y014467D02*
X012504Y014227D01*
X014264Y014227D01*
X014544Y013947D02*
X013944Y013347D01*
X013784Y013347D01*
X013864Y013027D02*
X013624Y013027D01*
X013464Y013187D01*
X009864Y013187D01*
X009544Y012867D01*
X009544Y010467D01*
X009324Y009827D02*
X012824Y009827D01*
X018264Y015267D01*
X018264Y016467D01*
X018744Y016947D01*
X019704Y016947D01*
X020024Y017267D01*
X020264Y017267D01*
X020424Y017587D02*
X020584Y017427D01*
X020584Y016947D01*
X020424Y016787D01*
X020344Y016787D01*
X020024Y016547D02*
X012984Y009507D01*
X011004Y009507D01*
X010004Y008507D01*
X009004Y008507D02*
X010164Y009667D01*
X012904Y009667D01*
X018744Y015507D01*
X018744Y016547D01*
X018664Y017107D02*
X018104Y016547D01*
X018104Y015907D01*
X016664Y014467D01*
X016664Y014147D01*
X012664Y010147D01*
X006644Y010147D01*
X005804Y009307D01*
X004804Y009307D01*
X004004Y008507D01*
X006004Y008507D02*
X006484Y008027D01*
X008304Y008027D01*
X008504Y008227D01*
X008504Y008707D01*
X009304Y009507D01*
X009544Y009507D01*
X009324Y009827D02*
X008004Y008507D01*
X007004Y008507D02*
X008484Y009987D01*
X012744Y009987D01*
X017224Y014467D01*
X017224Y014627D01*
X016904Y014987D02*
X016904Y015107D01*
X016904Y014987D02*
X016504Y014587D01*
X016504Y014227D01*
X015544Y013267D01*
X015384Y013267D01*
X015464Y013267D01*
X014904Y013187D02*
X016224Y014507D01*
X015624Y014947D02*
X015624Y016707D01*
X015664Y017547D02*
X017664Y017547D01*
X017944Y017667D02*
X017624Y017987D01*
X014184Y017987D01*
X013144Y016947D01*
X013144Y016627D01*
X012424Y015907D01*
X011784Y017107D02*
X010664Y017107D01*
X010344Y016787D01*
X010904Y018147D02*
X018024Y018147D01*
X018184Y017987D01*
X018344Y017667D02*
X018344Y017267D01*
X013864Y012787D01*
X010104Y012787D01*
X010744Y012467D02*
X013784Y012467D01*
X018504Y017187D01*
X018504Y017347D01*
X018704Y017547D01*
X018344Y017667D02*
X018584Y017907D01*
X018824Y018227D02*
X018744Y018307D01*
X010664Y018307D01*
X009624Y019347D01*
X009624Y019587D01*
X013584Y016907D02*
X013784Y016707D01*
X013784Y016107D01*
X014544Y014547D02*
X014544Y013947D01*
X015224Y014387D02*
X013864Y013027D01*
X015224Y014387D02*
X015224Y014547D01*
X017424Y013267D02*
X017984Y013267D01*
X018224Y013507D01*
X018224Y013707D01*
X018664Y014147D01*
X018824Y014147D01*
X021784Y017107D01*
X021784Y017907D01*
X021504Y017627D02*
X021504Y017307D01*
X020104Y015907D01*
X019864Y015907D01*
X013144Y009187D01*
X012684Y009187D01*
X012004Y008507D01*
X011844Y009347D02*
X013064Y009347D01*
X019784Y016067D01*
X020024Y016067D01*
X021224Y017267D01*
X021224Y018067D01*
X021944Y018307D02*
X022424Y017827D01*
X022424Y017107D01*
X018824Y013507D01*
X018584Y013507D01*
X018664Y013147D02*
X018424Y013147D01*
X018664Y013147D02*
X019344Y013827D01*
X021304Y013827D01*
X021704Y014227D01*
X021704Y014787D01*
X023784Y016867D01*
X023784Y020227D01*
X023944Y020387D01*
X022744Y021267D02*
X022744Y021507D01*
X022024Y022227D01*
X022604Y022267D02*
X023004Y021867D01*
X023004Y017307D01*
X020284Y014587D01*
X020284Y014427D01*
X020564Y014627D02*
X020564Y014147D01*
X020844Y014427D02*
X020844Y014667D01*
X023324Y017147D01*
X023324Y022187D01*
X023244Y022267D01*
X023484Y022107D02*
X023564Y022187D01*
X023564Y022507D01*
X023884Y022267D02*
X023644Y022027D01*
X023644Y016987D01*
X021404Y014747D01*
X021404Y014427D01*
X021124Y014147D02*
X021124Y014707D01*
X023484Y017067D01*
X023484Y022107D01*
X023164Y021947D02*
X022924Y022187D01*
X022924Y022507D01*
X023164Y021947D02*
X023164Y017227D01*
X020564Y014627D01*
X019944Y015627D02*
X019904Y015627D01*
X017944Y013667D01*
X017944Y013587D01*
X018024Y013147D02*
X017504Y013147D01*
X013504Y009147D01*
X013504Y008267D01*
X013744Y008027D01*
X014524Y008027D01*
X015004Y008507D01*
X015144Y009107D02*
X015784Y009107D01*
X015864Y009027D01*
X015944Y009107D01*
X015864Y009187D01*
X015944Y009267D01*
X015944Y010307D01*
X016904Y011267D01*
X017004Y010967D02*
X017304Y011267D01*
X017004Y010967D02*
X017004Y008507D01*
X016584Y008747D02*
X016504Y008667D01*
X016504Y008267D01*
X016744Y008027D01*
X018524Y008027D01*
X019004Y008507D01*
X021004Y008507D02*
X022744Y010247D01*
X022744Y014067D01*
X023064Y014307D02*
X023064Y009567D01*
X022004Y008507D01*
X023004Y008507D02*
X023384Y008887D01*
X023384Y014067D01*
X023704Y014307D02*
X023704Y008807D01*
X024004Y008507D01*
X027864Y010867D02*
X024104Y014627D01*
X022744Y014627D01*
X022424Y014307D01*
X022104Y013907D02*
X020584Y012387D01*
X019224Y012387D01*
X018504Y011667D01*
X016824Y011667D01*
X015544Y010387D01*
X015544Y009787D01*
X015384Y009427D02*
X015144Y009667D01*
X015144Y010387D01*
X017664Y012907D01*
X017864Y012907D01*
X018144Y012627D01*
X019784Y012627D01*
X020104Y012947D01*
X020104Y013267D01*
X019704Y013667D01*
X019464Y013667D01*
X019144Y013347D01*
X019144Y013147D01*
X019264Y012867D02*
X019584Y013187D01*
X019584Y013387D01*
X019824Y013067D02*
X019504Y012747D01*
X018224Y012747D01*
X017944Y013027D01*
X017584Y013027D01*
X014184Y009627D01*
X014184Y009187D01*
X014664Y009587D02*
X015144Y009107D01*
X015784Y009107D02*
X015864Y009187D01*
X015864Y009107D02*
X015944Y009187D01*
X015944Y009267D01*
X015944Y009187D02*
X015944Y009107D01*
X015864Y009107D01*
X015944Y009027D01*
X015944Y008947D01*
X015864Y009027D01*
X015944Y009027D02*
X015944Y009107D01*
X015864Y009107D02*
X015784Y009107D01*
X015944Y008947D02*
X015944Y008567D01*
X016004Y008507D01*
X016584Y008747D02*
X016584Y009747D01*
X016504Y009827D01*
X016264Y009827D01*
X013004Y008847D02*
X013004Y008507D01*
X013004Y008847D02*
X017424Y013267D01*
X018024Y013147D02*
X018304Y012867D01*
X019264Y012867D01*
X020224Y012507D02*
X017864Y012507D01*
X017744Y012627D01*
X018784Y013867D02*
X022104Y017187D01*
X022104Y017667D01*
X024024Y016627D02*
X024024Y015907D01*
X024424Y015907D02*
X023304Y014787D01*
X022504Y014787D01*
X020224Y012507D01*
X024424Y015907D02*
X024424Y016627D01*
X024104Y017267D02*
X024104Y019107D01*
X024744Y018067D02*
X025224Y018067D01*
X032664Y010627D01*
X032744Y010627D01*
X032984Y010387D01*
X032984Y010307D01*
X032830Y010461D01*
X032664Y010627D01*
X032744Y010627D02*
X032824Y010627D01*
X032984Y010467D01*
X032984Y010387D01*
X032984Y010307D02*
X034004Y009287D01*
X034004Y008507D01*
X033824Y008027D02*
X033504Y008347D01*
X033504Y008827D01*
X032744Y009587D01*
X032664Y009587D01*
X032424Y009827D01*
X032424Y009747D01*
X032584Y009587D01*
X032664Y009587D01*
X032744Y009587D02*
X032584Y009747D01*
X032424Y009587D01*
X032424Y009667D01*
X032504Y009587D01*
X032584Y009587D01*
X032504Y009587D02*
X032424Y009587D01*
X032264Y009427D01*
X032424Y009667D02*
X032424Y009747D01*
X032424Y009827D02*
X032424Y009907D01*
X032584Y009747D01*
X032424Y009907D02*
X032264Y010067D01*
X032264Y010787D01*
X025304Y017747D01*
X024904Y017747D01*
X024744Y018067D02*
X024504Y017827D01*
X026364Y016267D02*
X026524Y016267D01*
X032004Y010787D01*
X032004Y008507D01*
X031004Y008507D02*
X031004Y011227D01*
X026364Y015867D01*
X026684Y015067D02*
X030004Y011747D01*
X030004Y008507D01*
X032830Y010461D02*
X032830Y010473D01*
X032984Y010627D01*
X032904Y010627D01*
X032984Y010547D01*
X032984Y010467D01*
X032984Y010547D02*
X032984Y010627D01*
X033144Y010787D01*
X032904Y010627D02*
X032824Y010627D01*
X032424Y011107D02*
X028024Y015507D01*
X028104Y015587D01*
X027624Y013667D02*
X026984Y013667D01*
X032424Y011107D02*
X033404Y011107D01*
X036004Y008507D01*
X035004Y008507D02*
X034524Y008027D01*
X033824Y008027D01*
X020424Y017587D02*
X020104Y017587D01*
X019624Y017107D01*
X018664Y017107D01*
X017944Y017267D02*
X017944Y017667D01*
X018184Y018467D02*
X013864Y018467D01*
X013704Y018627D01*
X014744Y018787D02*
X015824Y019867D01*
X016784Y019867D01*
X017064Y019587D02*
X016424Y019587D01*
X015624Y018787D01*
X015664Y017547D02*
X012664Y014547D01*
X018184Y018467D02*
X018584Y018867D01*
X019544Y018227D02*
X019944Y017827D01*
X019944Y018707D02*
X017304Y021347D01*
X016864Y020427D02*
X016744Y020307D01*
X023964Y024507D02*
X024004Y024507D01*
X011844Y009347D02*
X011004Y008507D01*
D14*
X009544Y009507D03*
X009544Y010467D03*
X009107Y011377D03*
X009207Y012477D03*
X010104Y012787D03*
X010744Y012467D03*
X009704Y013987D03*
X009064Y013987D03*
X008367Y014537D03*
X008367Y014937D03*
X008307Y015777D03*
X009647Y014657D03*
X009967Y014817D03*
X010424Y015747D03*
X010504Y016387D03*
X010344Y016787D03*
X011784Y017107D03*
X012424Y016387D03*
X013144Y016947D03*
X013584Y016907D03*
X013784Y016107D03*
X014264Y015427D03*
X015224Y015667D03*
X015224Y016067D03*
X015224Y016707D03*
X015624Y016707D03*
X016024Y016707D03*
X017664Y017547D03*
X017944Y017267D03*
X018184Y017987D03*
X018584Y017907D03*
X018704Y017547D03*
X018824Y018227D03*
X018584Y018867D03*
X018104Y019027D03*
X017864Y019267D03*
X017624Y019507D03*
X017064Y019587D03*
X016784Y019867D03*
X017144Y020147D03*
X017344Y020347D03*
X016864Y020427D03*
X016464Y020587D03*
X016144Y020787D03*
X015824Y020787D03*
X014024Y020227D03*
X013704Y019907D03*
X013384Y019587D03*
X013064Y019267D03*
X013704Y018627D03*
X014744Y018787D03*
X015624Y018787D03*
X018344Y020747D03*
X018584Y020427D03*
X019744Y019867D03*
X019864Y019147D03*
X020264Y019107D03*
X019944Y018707D03*
X019944Y018307D03*
X019944Y017827D03*
X020264Y017267D03*
X020344Y016787D03*
X020024Y016547D03*
X019944Y015627D03*
X018744Y016547D03*
X016904Y015107D03*
X017224Y014627D03*
X016224Y014507D03*
X015624Y014947D03*
X015224Y014547D03*
X014544Y014547D03*
X014264Y014227D03*
X013784Y013347D03*
X014904Y013187D03*
X015384Y013267D03*
X017744Y012627D03*
X018424Y013147D03*
X018584Y013507D03*
X018784Y013867D03*
X019144Y013147D03*
X019584Y013387D03*
X019824Y013067D03*
X019824Y012107D03*
X019664Y011867D03*
X019224Y011187D03*
X019224Y010867D03*
X019464Y010547D03*
X019784Y010547D03*
X021424Y011227D03*
X021824Y011227D03*
X022424Y010987D03*
X022424Y010667D03*
X021504Y012347D03*
X022104Y013907D03*
X022424Y014307D03*
X022744Y014067D03*
X023064Y014307D03*
X023384Y014067D03*
X023704Y014307D03*
X024344Y013907D03*
X025064Y014147D03*
X025384Y013827D03*
X026424Y013827D03*
X026984Y013667D03*
X027624Y013667D03*
X028184Y013107D03*
X028424Y012627D03*
X028424Y012227D03*
X028424Y011827D03*
X028424Y011427D03*
X028424Y011027D03*
X027864Y010867D03*
X027704Y010067D03*
X028664Y009107D03*
X028984Y010707D03*
X029624Y011267D03*
X029624Y011667D03*
X030744Y011027D03*
X030744Y010627D03*
X031384Y010947D03*
X033144Y010787D03*
X033224Y011507D03*
X033624Y011507D03*
X033624Y011907D03*
X033224Y011907D03*
X032264Y009427D03*
X036504Y010067D03*
X034704Y016587D03*
X034304Y016587D03*
X033824Y016947D03*
X033824Y017347D03*
X034104Y017707D03*
X034504Y017707D03*
X030984Y017547D03*
X030984Y017147D03*
X030424Y017947D03*
X030064Y017947D03*
X028344Y017667D03*
X026364Y016267D03*
X026364Y015867D03*
X026684Y015067D03*
X028104Y015587D03*
X024904Y017747D03*
X024504Y017827D03*
X024104Y017267D03*
X024024Y016627D03*
X024424Y016627D03*
X024824Y016867D03*
X024024Y015907D03*
X024504Y014867D03*
X025384Y012947D03*
X025664Y012667D03*
X025944Y012387D03*
X024984Y011907D03*
X024744Y012147D03*
X024144Y012027D03*
X024144Y012387D03*
X021404Y014427D03*
X021124Y014147D03*
X020844Y014427D03*
X020564Y014147D03*
X020284Y014427D03*
X017944Y013587D03*
X017304Y011267D03*
X016904Y011267D03*
X016264Y009827D03*
X015544Y009787D03*
X015384Y009427D03*
X014664Y009587D03*
X014184Y009187D03*
X008327Y013297D03*
X007607Y012577D03*
X007207Y012577D03*
X006807Y012577D03*
X006407Y012577D03*
X005407Y011877D03*
X005407Y011477D03*
X005807Y011477D03*
X006207Y011477D03*
X006507Y011277D03*
X006207Y011077D03*
X005807Y011077D03*
X005407Y011077D03*
X005407Y010677D03*
X005407Y010277D03*
X005407Y009877D03*
X005107Y009677D03*
X004707Y009677D03*
X004307Y009677D03*
X003907Y009677D03*
X003507Y009677D03*
X003107Y009677D03*
X002707Y009677D03*
X002307Y009677D03*
X001907Y009677D03*
X001907Y009277D03*
X001907Y008877D03*
X001907Y008477D03*
X001907Y008077D03*
X001907Y007677D03*
X001907Y007277D03*
X001907Y006877D03*
X001907Y006477D03*
X002307Y009277D03*
X005407Y014577D03*
X005407Y014977D03*
X005407Y015377D03*
X005807Y014977D03*
X005807Y014577D03*
X006207Y014577D03*
X005407Y015777D03*
X005407Y016177D03*
X005407Y016577D03*
X005107Y016777D03*
X004707Y016777D03*
X004307Y016777D03*
X003907Y016777D03*
X003507Y016777D03*
X003107Y016777D03*
X002707Y016777D03*
X002307Y016777D03*
X001907Y016777D03*
X001907Y017177D03*
X002307Y017177D03*
X001907Y017577D03*
X001907Y017977D03*
X001907Y018377D03*
X001907Y018777D03*
X001907Y019177D03*
X001907Y019577D03*
X001907Y019977D03*
X001907Y020377D03*
X001907Y020777D03*
X001907Y021177D03*
X001907Y021577D03*
X001907Y021977D03*
X001907Y022377D03*
X001907Y022777D03*
X001907Y023177D03*
X001907Y023577D03*
X001907Y023977D03*
X001907Y024377D03*
X001907Y024777D03*
X001907Y025177D03*
X001907Y025577D03*
X001907Y025977D03*
X001907Y026377D03*
X001907Y026777D03*
X007864Y022387D03*
X008264Y022387D03*
X009624Y021427D03*
X009624Y020961D03*
X009704Y020547D03*
X009624Y019587D03*
X008264Y019027D03*
X011144Y018627D03*
X010184Y021987D03*
X012664Y022067D03*
X012904Y021747D03*
X016824Y023587D03*
X017144Y023267D03*
X017464Y022867D03*
X018744Y023347D03*
X018744Y023747D03*
X019704Y024227D03*
X019704Y024627D03*
X021944Y022947D03*
X022184Y022627D03*
X022024Y022227D03*
X021544Y022307D03*
X021304Y022547D03*
X022604Y022267D03*
X022924Y022507D03*
X023244Y022267D03*
X023564Y022507D03*
X023884Y022267D03*
X022744Y021267D03*
X023944Y020387D03*
X024104Y019107D03*
X022744Y018627D03*
X022756Y018239D03*
X022744Y017827D03*
X022104Y017667D03*
X021784Y017907D03*
X021504Y017627D03*
X021224Y018067D03*
X021944Y018307D03*
X019944Y020587D03*
X025884Y019260D03*
X031864Y020627D03*
X031864Y021067D03*
X033144Y021307D03*
X033144Y021747D03*
X034304Y020787D03*
X034304Y020427D03*
X034664Y021187D03*
X035224Y021187D03*
X035664Y020867D03*
X012664Y014547D03*
X012264Y014467D03*
X004907Y018377D03*
X003907Y018377D03*
X003507Y018377D03*
X003107Y018377D03*
D15*
X002176Y004850D02*
X002398Y004771D01*
X002398Y004771D01*
X002513Y004757D01*
X002992Y004757D01*
X007224Y005165D01*
X015741Y005574D01*
X020399Y005574D01*
X019761Y006212D01*
X019714Y006326D01*
X019714Y006449D01*
X019714Y006579D01*
X019225Y007068D01*
X019103Y007018D01*
X019126Y007015D01*
X019204Y006989D01*
X019276Y006952D01*
X019343Y006904D01*
X019401Y006846D01*
X019449Y006780D01*
X019486Y006707D01*
X019511Y006629D01*
X019522Y006557D01*
X019054Y006557D01*
X019054Y006457D01*
X019054Y005989D01*
X019126Y006000D01*
X019204Y006026D01*
X019276Y006063D01*
X019343Y006111D01*
X019401Y006169D01*
X019449Y006235D01*
X019486Y006308D01*
X019511Y006386D01*
X019522Y006457D01*
X019054Y006457D01*
X018954Y006457D01*
X018954Y005989D01*
X018882Y006000D01*
X018804Y006026D01*
X018731Y006063D01*
X018665Y006111D01*
X018607Y006169D01*
X018559Y006235D01*
X018522Y006308D01*
X018504Y006364D01*
X018486Y006308D01*
X018449Y006235D01*
X018401Y006169D01*
X018343Y006111D01*
X018276Y006063D01*
X018204Y006026D01*
X018126Y006000D01*
X018054Y005989D01*
X018054Y006457D01*
X017954Y006457D01*
X017954Y005989D01*
X017882Y006000D01*
X017804Y006026D01*
X017731Y006063D01*
X017665Y006111D01*
X017607Y006169D01*
X017559Y006235D01*
X017522Y006308D01*
X017504Y006364D01*
X017486Y006308D01*
X017449Y006235D01*
X017401Y006169D01*
X017343Y006111D01*
X017276Y006063D01*
X017204Y006026D01*
X017126Y006000D01*
X017054Y005989D01*
X017054Y006457D01*
X016954Y006457D01*
X016954Y005989D01*
X016882Y006000D01*
X016804Y006026D01*
X016731Y006063D01*
X016665Y006111D01*
X016607Y006169D01*
X016559Y006235D01*
X016522Y006308D01*
X016504Y006364D01*
X016486Y006308D01*
X016449Y006235D01*
X016401Y006169D01*
X016343Y006111D01*
X016276Y006063D01*
X016204Y006026D01*
X016126Y006000D01*
X016054Y005989D01*
X016054Y006457D01*
X015954Y006457D01*
X015954Y005989D01*
X015882Y006000D01*
X015804Y006026D01*
X015731Y006063D01*
X015665Y006111D01*
X015607Y006169D01*
X015559Y006235D01*
X015522Y006308D01*
X015504Y006364D01*
X015486Y006308D01*
X015449Y006235D01*
X015401Y006169D01*
X015343Y006111D01*
X015276Y006063D01*
X015204Y006026D01*
X015126Y006000D01*
X015054Y005989D01*
X015054Y006457D01*
X014954Y006457D01*
X014954Y005989D01*
X014882Y006000D01*
X014804Y006026D01*
X014731Y006063D01*
X014665Y006111D01*
X014607Y006169D01*
X014559Y006235D01*
X014522Y006308D01*
X014504Y006364D01*
X014486Y006308D01*
X014449Y006235D01*
X014401Y006169D01*
X014343Y006111D01*
X014276Y006063D01*
X014204Y006026D01*
X014126Y006000D01*
X014054Y005989D01*
X014054Y006457D01*
X013954Y006457D01*
X013954Y005989D01*
X013882Y006000D01*
X013804Y006026D01*
X013731Y006063D01*
X013665Y006111D01*
X013607Y006169D01*
X013559Y006235D01*
X013522Y006308D01*
X013504Y006364D01*
X013486Y006308D01*
X013449Y006235D01*
X013401Y006169D01*
X013343Y006111D01*
X013276Y006063D01*
X013204Y006026D01*
X013126Y006000D01*
X013054Y005989D01*
X013054Y006457D01*
X012954Y006457D01*
X012954Y005989D01*
X012882Y006000D01*
X012804Y006026D01*
X012731Y006063D01*
X012665Y006111D01*
X012607Y006169D01*
X012559Y006235D01*
X012522Y006308D01*
X012504Y006364D01*
X012486Y006308D01*
X012449Y006235D01*
X012401Y006169D01*
X012343Y006111D01*
X012276Y006063D01*
X012204Y006026D01*
X012126Y006000D01*
X012054Y005989D01*
X012054Y006457D01*
X011954Y006457D01*
X011954Y005989D01*
X011882Y006000D01*
X011804Y006026D01*
X011731Y006063D01*
X011665Y006111D01*
X011607Y006169D01*
X011559Y006235D01*
X011522Y006308D01*
X011504Y006364D01*
X011486Y006308D01*
X011449Y006235D01*
X011401Y006169D01*
X011343Y006111D01*
X011276Y006063D01*
X011204Y006026D01*
X011126Y006000D01*
X011054Y005989D01*
X011054Y006457D01*
X010954Y006457D01*
X010954Y005989D01*
X010882Y006000D01*
X010804Y006026D01*
X010731Y006063D01*
X010665Y006111D01*
X010607Y006169D01*
X010559Y006235D01*
X010522Y006308D01*
X010504Y006364D01*
X010486Y006308D01*
X010449Y006235D01*
X010401Y006169D01*
X010343Y006111D01*
X010276Y006063D01*
X010204Y006026D01*
X010126Y006000D01*
X010054Y005989D01*
X010054Y006457D01*
X009954Y006457D01*
X009954Y005989D01*
X009882Y006000D01*
X009804Y006026D01*
X009731Y006063D01*
X009665Y006111D01*
X009607Y006169D01*
X009559Y006235D01*
X009522Y006308D01*
X009504Y006364D01*
X009486Y006308D01*
X009449Y006235D01*
X009401Y006169D01*
X009343Y006111D01*
X009276Y006063D01*
X009204Y006026D01*
X009126Y006000D01*
X009054Y005989D01*
X009054Y006457D01*
X008954Y006457D01*
X008954Y005989D01*
X008882Y006000D01*
X008804Y006026D01*
X008731Y006063D01*
X008665Y006111D01*
X008607Y006169D01*
X008559Y006235D01*
X008522Y006308D01*
X008504Y006364D01*
X008486Y006308D01*
X008449Y006235D01*
X008401Y006169D01*
X008343Y006111D01*
X008276Y006063D01*
X008204Y006026D01*
X008126Y006000D01*
X008054Y005989D01*
X008054Y006457D01*
X007954Y006457D01*
X007954Y005989D01*
X007882Y006000D01*
X007804Y006026D01*
X007731Y006063D01*
X007665Y006111D01*
X007607Y006169D01*
X007559Y006235D01*
X007522Y006308D01*
X007504Y006364D01*
X007486Y006308D01*
X007449Y006235D01*
X007401Y006169D01*
X007343Y006111D01*
X007276Y006063D01*
X007204Y006026D01*
X007126Y006000D01*
X007054Y005989D01*
X007054Y006457D01*
X006954Y006457D01*
X006954Y005989D01*
X006882Y006000D01*
X006804Y006026D01*
X006731Y006063D01*
X006665Y006111D01*
X006607Y006169D01*
X006559Y006235D01*
X006522Y006308D01*
X006504Y006364D01*
X006486Y006308D01*
X006449Y006235D01*
X006401Y006169D01*
X006343Y006111D01*
X006276Y006063D01*
X006204Y006026D01*
X006126Y006000D01*
X006054Y005989D01*
X006054Y006457D01*
X005954Y006457D01*
X005954Y005989D01*
X005882Y006000D01*
X005804Y006026D01*
X005731Y006063D01*
X005665Y006111D01*
X005607Y006169D01*
X005559Y006235D01*
X005522Y006308D01*
X005504Y006364D01*
X005486Y006308D01*
X005449Y006235D01*
X005401Y006169D01*
X005343Y006111D01*
X005276Y006063D01*
X005204Y006026D01*
X005126Y006000D01*
X005054Y005989D01*
X005054Y006457D01*
X004954Y006457D01*
X004954Y005989D01*
X004882Y006000D01*
X004804Y006026D01*
X004731Y006063D01*
X004665Y006111D01*
X004607Y006169D01*
X004559Y006235D01*
X004522Y006308D01*
X004504Y006364D01*
X004486Y006308D01*
X004449Y006235D01*
X004401Y006169D01*
X004343Y006111D01*
X004276Y006063D01*
X004204Y006026D01*
X004126Y006000D01*
X004054Y005989D01*
X004054Y006457D01*
X003954Y006457D01*
X003954Y005989D01*
X003882Y006000D01*
X003804Y006026D01*
X003731Y006063D01*
X003665Y006111D01*
X003607Y006169D01*
X003559Y006235D01*
X003522Y006308D01*
X003497Y006386D01*
X003485Y006457D01*
X003954Y006457D01*
X003954Y006557D01*
X003485Y006557D01*
X003497Y006629D01*
X003522Y006707D01*
X003559Y006780D01*
X003607Y006846D01*
X003665Y006904D01*
X003731Y006952D01*
X003804Y006989D01*
X003882Y007015D01*
X003905Y007018D01*
X003726Y007092D01*
X003589Y007230D01*
X003514Y007410D01*
X003514Y007605D01*
X003589Y007785D01*
X003726Y007923D01*
X003906Y007997D01*
X006316Y007997D01*
X006231Y008082D01*
X006099Y008027D01*
X005908Y008027D01*
X005732Y008100D01*
X005597Y008235D01*
X005524Y008412D01*
X005524Y008603D01*
X005597Y008779D01*
X005732Y008914D01*
X005908Y008987D01*
X006099Y008987D01*
X006276Y008914D01*
X006411Y008779D01*
X006484Y008603D01*
X006484Y008412D01*
X006429Y008280D01*
X006542Y008167D01*
X006665Y008167D01*
X006597Y008235D01*
X006524Y008412D01*
X006524Y008603D01*
X006597Y008779D01*
X006732Y008914D01*
X006908Y008987D01*
X007099Y008987D01*
X007231Y008933D01*
X008306Y010007D01*
X006702Y010007D01*
X005944Y009249D01*
X005862Y009167D01*
X004862Y009167D01*
X004429Y008735D01*
X004484Y008603D01*
X004484Y008412D01*
X004411Y008235D01*
X004276Y008100D01*
X004099Y008027D01*
X003908Y008027D01*
X003732Y008100D01*
X003597Y008235D01*
X003524Y008412D01*
X003524Y008603D01*
X003597Y008779D01*
X003732Y008914D01*
X003908Y008987D01*
X004099Y008987D01*
X004231Y008933D01*
X004746Y009447D01*
X004862Y009447D01*
X005746Y009447D01*
X006504Y010205D01*
X006504Y010205D01*
X006586Y010287D01*
X009349Y010287D01*
X009319Y010317D01*
X009279Y010415D01*
X009279Y010520D01*
X009319Y010617D01*
X009394Y010692D01*
X009404Y010696D01*
X009404Y012925D01*
X009486Y013007D01*
X009806Y013327D01*
X009922Y013327D01*
X013519Y013327D01*
X013519Y013400D01*
X013559Y013497D01*
X013634Y013572D01*
X013731Y013612D01*
X013837Y013612D01*
X013934Y013572D01*
X013952Y013554D01*
X014392Y013994D01*
X014317Y013962D01*
X014211Y013962D01*
X014114Y014003D01*
X014039Y014077D01*
X014035Y014087D01*
X012562Y014087D01*
X012446Y014087D01*
X012327Y014207D01*
X012317Y014202D01*
X012211Y014202D01*
X012114Y014243D01*
X012039Y014317D01*
X011999Y014415D01*
X011999Y014520D01*
X012039Y014617D01*
X012114Y014692D01*
X012211Y014732D01*
X012317Y014732D01*
X012414Y014692D01*
X012430Y014676D01*
X012439Y014697D01*
X012514Y014772D01*
X012611Y014812D01*
X012717Y014812D01*
X012727Y014808D01*
X013761Y015842D01*
X013731Y015842D01*
X013634Y015883D01*
X013559Y015957D01*
X013519Y016055D01*
X013519Y016160D01*
X013559Y016257D01*
X013634Y016332D01*
X013644Y016336D01*
X013644Y016645D01*
X013637Y016642D01*
X013531Y016642D01*
X013434Y016683D01*
X013359Y016757D01*
X013350Y016779D01*
X013294Y016723D01*
X013284Y016719D01*
X013284Y016569D01*
X013202Y016487D01*
X012482Y015767D01*
X012366Y015767D01*
X011682Y015767D01*
X011084Y015169D01*
X011084Y015169D01*
X011002Y015087D01*
X011002Y015087D01*
X009965Y014050D01*
X009969Y014040D01*
X009969Y013935D01*
X009929Y013837D01*
X009854Y013763D01*
X009757Y013722D01*
X009651Y013722D01*
X009554Y013763D01*
X009479Y013837D01*
X009439Y013935D01*
X009439Y014040D01*
X009479Y014137D01*
X009554Y014212D01*
X009651Y014252D01*
X009757Y014252D01*
X009767Y014248D01*
X010746Y015227D01*
X010487Y015487D01*
X010477Y015482D01*
X010371Y015482D01*
X010274Y015523D01*
X010199Y015597D01*
X010159Y015695D01*
X010159Y015800D01*
X010199Y015897D01*
X010274Y015972D01*
X010371Y016012D01*
X010477Y016012D01*
X010574Y015972D01*
X010649Y015897D01*
X010689Y015800D01*
X010689Y015695D01*
X010685Y015685D01*
X010944Y015425D01*
X011484Y015965D01*
X011566Y016047D01*
X012366Y016047D01*
X012441Y016122D01*
X012371Y016122D01*
X012274Y016163D01*
X012199Y016237D01*
X012195Y016247D01*
X010733Y016247D01*
X010729Y016237D01*
X010654Y016163D01*
X010557Y016122D01*
X010451Y016122D01*
X010354Y016163D01*
X010279Y016237D01*
X010239Y016335D01*
X010239Y016440D01*
X010276Y016529D01*
X010194Y016563D01*
X010119Y016637D01*
X010079Y016735D01*
X010079Y016840D01*
X010119Y016937D01*
X010194Y017012D01*
X010291Y017052D01*
X010397Y017052D01*
X010407Y017048D01*
X010606Y017247D01*
X010722Y017247D01*
X011555Y017247D01*
X011559Y017257D01*
X011634Y017332D01*
X011731Y017372D01*
X011837Y017372D01*
X011934Y017332D01*
X012009Y017257D01*
X012049Y017160D01*
X012049Y017055D01*
X012009Y016957D01*
X011934Y016883D01*
X011837Y016842D01*
X011731Y016842D01*
X011634Y016883D01*
X011559Y016957D01*
X011555Y016967D01*
X010722Y016967D01*
X010605Y016850D01*
X010609Y016840D01*
X010609Y016735D01*
X010572Y016646D01*
X010654Y016612D01*
X010729Y016537D01*
X010733Y016527D01*
X012195Y016527D01*
X012199Y016537D01*
X012274Y016612D01*
X012371Y016652D01*
X012477Y016652D01*
X012574Y016612D01*
X012649Y016537D01*
X012689Y016440D01*
X012689Y016370D01*
X013004Y016685D01*
X013004Y016719D01*
X012994Y016723D01*
X012919Y016797D01*
X012879Y016895D01*
X012879Y017000D01*
X012919Y017097D01*
X012994Y017172D01*
X013091Y017212D01*
X013197Y017212D01*
X013207Y017208D01*
X014006Y018007D01*
X010962Y018007D01*
X009204Y016249D01*
X009204Y014216D01*
X009214Y014212D01*
X009289Y014137D01*
X009329Y014040D01*
X009329Y013935D01*
X009289Y013837D01*
X009214Y013763D01*
X009117Y013722D01*
X009011Y013722D01*
X008914Y013763D01*
X008839Y013837D01*
X008799Y013935D01*
X008799Y014040D01*
X008839Y014137D01*
X008914Y014212D01*
X008924Y014216D01*
X008924Y016365D01*
X009006Y016447D01*
X010726Y018167D01*
X010606Y018167D01*
X010524Y018249D01*
X009566Y019207D01*
X009484Y019289D01*
X009484Y019359D01*
X009474Y019363D01*
X009399Y019437D01*
X009359Y019535D01*
X009359Y019640D01*
X009399Y019737D01*
X009429Y019767D01*
X009202Y019767D01*
X009429Y019767D01*
X009371Y019669D02*
X009103Y019669D01*
X009202Y019767D02*
X008525Y019090D01*
X008529Y019080D01*
X008529Y018975D01*
X008489Y018877D01*
X008414Y018803D01*
X008317Y018762D01*
X008211Y018762D01*
X008114Y018803D01*
X008039Y018877D01*
X007999Y018975D01*
X007999Y019080D01*
X008039Y019177D01*
X008114Y019252D01*
X008211Y019292D01*
X008317Y019292D01*
X008327Y019288D01*
X009086Y020047D01*
X009202Y020047D01*
X010402Y020047D01*
X010484Y019965D01*
X011522Y018927D01*
X013006Y018927D01*
X014686Y020607D01*
X014802Y020607D01*
X016199Y020607D01*
X016199Y020640D01*
X016239Y020737D01*
X016314Y020812D01*
X016411Y020852D01*
X016517Y020852D01*
X016614Y020812D01*
X016689Y020737D01*
X016722Y020656D01*
X016811Y020692D01*
X016917Y020692D01*
X017014Y020652D01*
X017089Y020577D01*
X017129Y020480D01*
X017129Y020375D01*
X017089Y020277D01*
X017014Y020203D01*
X016917Y020162D01*
X016811Y020162D01*
X016799Y020167D01*
X014882Y020167D01*
X013575Y018861D01*
X013651Y018892D01*
X013757Y018892D01*
X013854Y018852D01*
X013929Y018777D01*
X013969Y018680D01*
X013969Y018607D01*
X014549Y018607D01*
X014519Y018637D01*
X014479Y018735D01*
X014479Y018840D01*
X014519Y018937D01*
X014594Y019012D01*
X014691Y019052D01*
X014797Y019052D01*
X014807Y019048D01*
X015766Y020007D01*
X015882Y020007D01*
X016555Y020007D01*
X016559Y020017D01*
X016634Y020092D01*
X016731Y020132D01*
X016837Y020132D01*
X016934Y020092D01*
X017009Y020017D01*
X017049Y019920D01*
X017049Y019852D01*
X017117Y019852D01*
X017214Y019812D01*
X017289Y019737D01*
X017329Y019640D01*
X017329Y019535D01*
X017289Y019437D01*
X017214Y019363D01*
X017117Y019322D01*
X017011Y019322D01*
X016914Y019363D01*
X016839Y019437D01*
X016835Y019447D01*
X016482Y019447D01*
X015885Y018850D01*
X015889Y018840D01*
X015889Y018735D01*
X015849Y018637D01*
X015819Y018607D01*
X018126Y018607D01*
X018323Y018805D01*
X018319Y018815D01*
X018319Y018920D01*
X018359Y019017D01*
X018434Y019092D01*
X018531Y019132D01*
X018637Y019132D01*
X018734Y019092D01*
X018809Y019017D01*
X018849Y018920D01*
X018849Y018815D01*
X018809Y018717D01*
X018734Y018643D01*
X018637Y018602D01*
X018531Y018602D01*
X018521Y018607D01*
X018362Y018447D01*
X018669Y018447D01*
X018674Y018452D01*
X018771Y018492D01*
X018877Y018492D01*
X018974Y018452D01*
X019049Y018377D01*
X019089Y018280D01*
X019089Y018175D01*
X019049Y018077D01*
X018974Y018003D01*
X018877Y017962D01*
X018848Y017962D01*
X018849Y017960D01*
X018849Y017855D01*
X018820Y017786D01*
X018854Y017772D01*
X018929Y017697D01*
X018969Y017600D01*
X018969Y017495D01*
X018929Y017397D01*
X018854Y017323D01*
X018757Y017282D01*
X018651Y017282D01*
X018644Y017285D01*
X018644Y017247D01*
X019566Y017247D01*
X019884Y017565D01*
X019794Y017603D01*
X019719Y017677D01*
X019679Y017775D01*
X019679Y017880D01*
X019683Y017890D01*
X019486Y018087D01*
X019404Y018169D01*
X019404Y018449D01*
X016926Y020927D01*
X009889Y020927D01*
X009889Y020909D01*
X009849Y020811D01*
X009822Y020785D01*
X009854Y020772D01*
X009929Y020697D01*
X009969Y020600D01*
X009969Y020495D01*
X009929Y020397D01*
X009854Y020323D01*
X009757Y020282D01*
X009651Y020282D01*
X009554Y020323D01*
X009479Y020397D01*
X009467Y020426D01*
X009246Y020647D01*
X009164Y020729D01*
X009164Y021049D01*
X009164Y021165D01*
X009363Y021365D01*
X009359Y021375D01*
X009359Y021480D01*
X009399Y021577D01*
X009474Y021652D01*
X009571Y021692D01*
X009677Y021692D01*
X009774Y021652D01*
X009849Y021577D01*
X009889Y021480D01*
X009889Y021375D01*
X009886Y021367D01*
X010606Y021367D01*
X010247Y021727D01*
X010237Y021722D01*
X010131Y021722D01*
X010034Y021763D01*
X009959Y021837D01*
X009919Y021935D01*
X001754Y021935D01*
X001754Y021836D02*
X009960Y021836D01*
X009919Y021935D02*
X009919Y022040D01*
X009959Y022137D01*
X010034Y022212D01*
X010131Y022252D01*
X010237Y022252D01*
X010334Y022212D01*
X010409Y022137D01*
X010449Y022040D01*
X010449Y021935D01*
X012432Y021935D01*
X012439Y021917D02*
X012514Y021843D01*
X012611Y021802D01*
X012640Y021802D01*
X012639Y021800D01*
X012639Y021695D01*
X012679Y021597D01*
X012754Y021523D01*
X012839Y021487D01*
X010882Y021487D01*
X010445Y021925D01*
X010449Y021935D01*
X010449Y022034D02*
X012399Y022034D01*
X012399Y022015D02*
X012399Y022120D01*
X012439Y022217D01*
X012514Y022292D01*
X012611Y022332D01*
X012717Y022332D01*
X012814Y022292D01*
X012889Y022217D01*
X012893Y022207D01*
X012926Y022207D01*
X013042Y022207D01*
X013202Y022047D01*
X015486Y022047D01*
X016684Y023245D01*
X016684Y023359D01*
X016674Y023363D01*
X016599Y023437D01*
X016559Y023535D01*
X016559Y023640D01*
X016599Y023737D01*
X016674Y023812D01*
X016771Y023852D01*
X016877Y023852D01*
X016952Y023821D01*
X016864Y023909D01*
X016864Y024025D01*
X016864Y024046D01*
X016732Y024100D01*
X016597Y024235D01*
X016524Y024412D01*
X016524Y024603D01*
X016597Y024779D01*
X016732Y024914D01*
X016908Y024987D01*
X017099Y024987D01*
X017276Y024914D01*
X017411Y024779D01*
X017484Y024603D01*
X017484Y024412D01*
X017411Y024235D01*
X017276Y024100D01*
X017144Y024046D01*
X017144Y024025D01*
X022482Y018687D01*
X022483Y018690D01*
X017864Y023309D01*
X017864Y023425D01*
X017864Y024046D01*
X017732Y024100D01*
X017597Y024235D01*
X017524Y024412D01*
X017524Y024603D01*
X017597Y024779D01*
X017732Y024914D01*
X017908Y024987D01*
X018099Y024987D01*
X018276Y024914D01*
X018411Y024779D01*
X018484Y024603D01*
X018484Y024412D01*
X018411Y024235D01*
X018276Y024100D01*
X018144Y024046D01*
X018144Y023425D01*
X022681Y018888D01*
X022691Y018892D01*
X022797Y018892D01*
X022864Y018864D01*
X022864Y021030D01*
X022797Y021002D01*
X022691Y021002D01*
X022594Y021043D01*
X022519Y021117D01*
X022479Y021215D01*
X022479Y021320D01*
X022519Y021417D01*
X022578Y021476D01*
X022087Y021967D01*
X022077Y021962D01*
X021971Y021962D01*
X021874Y022003D01*
X021799Y022077D01*
X021759Y022175D01*
X021759Y022280D01*
X021799Y022377D01*
X021874Y022452D01*
X021971Y022492D01*
X022077Y022492D01*
X022174Y022452D01*
X022249Y022377D01*
X022289Y022280D01*
X022289Y022175D01*
X022285Y022165D01*
X022864Y021585D01*
X022864Y021809D01*
X022667Y022007D01*
X022657Y022002D01*
X022551Y022002D01*
X022454Y022043D01*
X022379Y022117D01*
X022339Y022215D01*
X022339Y022320D01*
X022379Y022417D01*
X022454Y022492D01*
X022551Y022532D01*
X022657Y022532D01*
X022659Y022531D01*
X022659Y022560D01*
X022699Y022657D01*
X022774Y022732D01*
X022871Y022772D01*
X022977Y022772D01*
X023074Y022732D01*
X023149Y022657D01*
X023189Y022560D01*
X023189Y022531D01*
X023191Y022532D01*
X023297Y022532D01*
X023299Y022531D01*
X023299Y022560D01*
X023339Y022657D01*
X023414Y022732D01*
X023511Y022772D01*
X023617Y022772D01*
X023708Y022735D01*
X023255Y023187D01*
X020692Y023187D01*
X020560Y023242D01*
X020459Y023343D01*
X019899Y023903D01*
X019844Y024036D01*
X019844Y024179D01*
X019844Y024899D01*
X019899Y025031D01*
X019997Y025129D01*
X019979Y025147D01*
X019656Y025147D01*
X019592Y025212D01*
X019592Y025803D01*
X019656Y025867D01*
X019997Y025867D01*
X020004Y025861D01*
X020011Y025867D01*
X020352Y025867D01*
X020416Y025803D01*
X020416Y025549D01*
X020562Y025694D01*
X020597Y025779D01*
X020732Y025914D01*
X020908Y025987D01*
X021099Y025987D01*
X021276Y025914D01*
X021411Y025779D01*
X021484Y025603D01*
X021484Y025412D01*
X021411Y025235D01*
X021276Y025100D01*
X021099Y025027D01*
X020913Y025027D01*
X020848Y024962D01*
X020908Y024987D01*
X021099Y024987D01*
X021276Y024914D01*
X021411Y024779D01*
X021484Y024603D01*
X021484Y024412D01*
X021411Y024235D01*
X021276Y024100D01*
X021099Y024027D01*
X020908Y024027D01*
X020732Y024100D01*
X020597Y024235D01*
X020564Y024316D01*
X020564Y024256D01*
X020913Y023907D01*
X023332Y023907D01*
X023476Y023907D01*
X023608Y023853D01*
X031869Y015591D01*
X031924Y015459D01*
X031924Y015316D01*
X031869Y015183D01*
X031768Y015082D01*
X031636Y015027D01*
X031492Y015027D01*
X031360Y015082D01*
X024149Y022293D01*
X024149Y022215D01*
X024109Y022117D01*
X024034Y022043D01*
X023937Y022002D01*
X023831Y022002D01*
X023821Y022007D01*
X023784Y021969D01*
X023784Y020602D01*
X023794Y020612D01*
X023891Y020652D01*
X023997Y020652D01*
X024094Y020612D01*
X024169Y020537D01*
X024209Y020440D01*
X024209Y020335D01*
X024169Y020237D01*
X024094Y020163D01*
X023997Y020122D01*
X023924Y020122D01*
X023924Y019302D01*
X023954Y019332D01*
X024051Y019372D01*
X024157Y019372D01*
X024254Y019332D01*
X024329Y019257D01*
X024369Y019160D01*
X024369Y019055D01*
X024329Y018957D01*
X024254Y018883D01*
X024244Y018879D01*
X024244Y017892D01*
X024279Y017977D01*
X024354Y018052D01*
X024451Y018092D01*
X024557Y018092D01*
X024567Y018088D01*
X024686Y018207D01*
X024802Y018207D01*
X025166Y018207D01*
X025282Y018207D01*
X027842Y015647D01*
X027879Y015737D01*
X027954Y015812D01*
X028051Y015852D01*
X028157Y015852D01*
X028254Y015812D01*
X028329Y015737D01*
X028369Y015640D01*
X028369Y015535D01*
X028329Y015437D01*
X028310Y015419D01*
X032482Y011247D01*
X033462Y011247D01*
X033544Y011165D01*
X035777Y008933D01*
X035908Y008987D01*
X036099Y008987D01*
X036276Y008914D01*
X036411Y008779D01*
X036484Y008603D01*
X036484Y008412D01*
X036411Y008235D01*
X036276Y008100D01*
X036099Y008027D01*
X035908Y008027D01*
X035732Y008100D01*
X035597Y008235D01*
X035524Y008412D01*
X035524Y008603D01*
X035579Y008735D01*
X033346Y010967D01*
X033339Y010967D01*
X033369Y010937D01*
X033409Y010840D01*
X033409Y010735D01*
X033369Y010637D01*
X033294Y010563D01*
X033197Y010522D01*
X033124Y010522D01*
X033124Y010489D01*
X033124Y010409D01*
X033124Y010365D01*
X034062Y009427D01*
X034062Y009427D01*
X034144Y009345D01*
X034144Y008969D01*
X034276Y008914D01*
X034411Y008779D01*
X034484Y008603D01*
X034484Y008412D01*
X034411Y008235D01*
X034343Y008167D01*
X034466Y008167D01*
X034579Y008280D01*
X034524Y008412D01*
X034524Y008603D01*
X034597Y008779D01*
X034732Y008914D01*
X034908Y008987D01*
X035099Y008987D01*
X035276Y008914D01*
X035411Y008779D01*
X035484Y008603D01*
X035484Y008412D01*
X035411Y008235D01*
X035276Y008100D01*
X035099Y008027D01*
X034908Y008027D01*
X034777Y008082D01*
X034692Y007997D01*
X036101Y007997D01*
X036281Y007923D01*
X036419Y007785D01*
X036494Y007605D01*
X036494Y007410D01*
X036419Y007230D01*
X036281Y007092D01*
X036103Y007018D01*
X036126Y007015D01*
X036204Y006989D01*
X036276Y006952D01*
X036343Y006904D01*
X036401Y006846D01*
X036449Y006780D01*
X036486Y006707D01*
X036511Y006629D01*
X036519Y006576D01*
X036692Y006749D01*
X036778Y006784D01*
X036834Y006840D01*
X036834Y007009D01*
X036834Y008639D01*
X036261Y009212D01*
X036214Y009326D01*
X036214Y009372D01*
X036169Y009417D01*
X036146Y009417D01*
X036040Y009462D01*
X035958Y009543D01*
X035914Y009650D01*
X035914Y009672D01*
X034534Y011052D01*
X034534Y011243D01*
X034534Y016203D01*
X034669Y016337D01*
X035069Y016737D01*
X035259Y016737D01*
X036355Y016737D01*
X036356Y016740D01*
X036472Y016855D01*
X036622Y016917D01*
X037385Y016917D01*
X037536Y016855D01*
X037651Y016740D01*
X037714Y016589D01*
X037714Y016426D01*
X037651Y016275D01*
X037536Y016160D01*
X037385Y016097D01*
X036622Y016097D01*
X036472Y016160D01*
X036356Y016275D01*
X036355Y016277D01*
X035663Y016277D01*
X035709Y016231D01*
X035764Y016099D01*
X035764Y015776D01*
X038189Y013351D01*
X038244Y013219D01*
X038244Y013076D01*
X038244Y008396D01*
X038189Y008263D01*
X038088Y008162D01*
X037956Y008107D01*
X037812Y008107D01*
X037680Y008162D01*
X037579Y008263D01*
X037524Y008396D01*
X037524Y012998D01*
X035200Y015322D01*
X035099Y015423D01*
X035044Y015556D01*
X035044Y016062D01*
X034994Y016012D01*
X034994Y011243D01*
X036239Y009997D01*
X036262Y009997D01*
X036368Y009953D01*
X036450Y009872D01*
X036494Y009765D01*
X036494Y009743D01*
X036539Y009697D01*
X036586Y009697D01*
X036700Y009650D01*
X037407Y008943D01*
X037454Y008829D01*
X037454Y008706D01*
X037454Y007009D01*
X037454Y006686D01*
X037407Y006572D01*
X037320Y006485D01*
X037259Y006460D01*
X037146Y006346D01*
X037065Y006266D01*
X036980Y006230D01*
X036781Y006031D01*
X036746Y005946D01*
X036432Y005632D01*
X036407Y005572D01*
X036320Y005485D01*
X036206Y005437D01*
X027109Y005437D01*
X032784Y005165D01*
X037016Y004757D01*
X037495Y004757D01*
X037610Y004771D01*
X037832Y004850D01*
X038022Y004990D01*
X038162Y005179D01*
X038240Y005401D01*
X038254Y005516D01*
X038254Y027998D01*
X038240Y028114D01*
X038162Y028336D01*
X038022Y028525D01*
X037832Y028665D01*
X037610Y028744D01*
X037495Y028757D01*
X037016Y028757D01*
X032784Y028350D01*
X024267Y027941D01*
X015741Y027941D01*
X007224Y028350D01*
X002992Y028757D01*
X002513Y028757D01*
X002398Y028744D01*
X002176Y028665D01*
X001986Y028525D01*
X001846Y028336D01*
X001768Y028114D01*
X001754Y027998D01*
X001754Y016602D01*
X005181Y016602D01*
X005227Y016602D01*
X005259Y016570D01*
X005259Y009930D01*
X005259Y009885D01*
X005227Y009852D01*
X001754Y009852D01*
X001754Y005516D01*
X001768Y005401D01*
X001846Y005179D01*
X001986Y004990D01*
X002176Y004850D01*
X002125Y004887D02*
X004338Y004887D01*
X003315Y004788D02*
X002348Y004788D01*
X001992Y004986D02*
X005362Y004986D01*
X006385Y005084D02*
X001916Y005084D01*
X001845Y005183D02*
X007594Y005183D01*
X007722Y006070D02*
X007286Y006070D01*
X007400Y006168D02*
X007608Y006168D01*
X007543Y006267D02*
X007465Y006267D01*
X007485Y006457D02*
X007054Y006457D01*
X007054Y006557D01*
X007485Y006557D01*
X007954Y006557D01*
X007954Y006457D01*
X007485Y006457D01*
X007054Y006464D02*
X007954Y006464D01*
X007954Y006365D02*
X008054Y006365D01*
X008054Y006457D02*
X008054Y006557D01*
X008522Y006557D01*
X008954Y006557D01*
X008954Y006457D01*
X008522Y006457D01*
X008054Y006457D01*
X008054Y006464D02*
X008954Y006464D01*
X008954Y006365D02*
X009054Y006365D01*
X009054Y006457D02*
X009054Y006557D01*
X009522Y006557D01*
X009954Y006557D01*
X009954Y006457D01*
X009522Y006457D01*
X009054Y006457D01*
X009054Y006464D02*
X009954Y006464D01*
X009954Y006365D02*
X010054Y006365D01*
X010054Y006457D02*
X010054Y006557D01*
X010522Y006557D01*
X010954Y006557D01*
X010954Y006457D01*
X010522Y006457D01*
X010054Y006457D01*
X010054Y006464D02*
X010954Y006464D01*
X010954Y006365D02*
X011054Y006365D01*
X011054Y006457D02*
X011054Y006557D01*
X011522Y006557D01*
X011954Y006557D01*
X011954Y006457D01*
X011522Y006457D01*
X011054Y006457D01*
X011054Y006464D02*
X011954Y006464D01*
X011954Y006365D02*
X012054Y006365D01*
X012054Y006457D02*
X012054Y006557D01*
X012522Y006557D01*
X012954Y006557D01*
X012954Y006457D01*
X012522Y006457D01*
X012054Y006457D01*
X012054Y006464D02*
X012954Y006464D01*
X012954Y006365D02*
X013054Y006365D01*
X013054Y006457D02*
X013054Y006557D01*
X013522Y006557D01*
X013954Y006557D01*
X013954Y006457D01*
X013522Y006457D01*
X013054Y006457D01*
X013054Y006464D02*
X013954Y006464D01*
X013954Y006365D02*
X014054Y006365D01*
X014054Y006457D02*
X014054Y006557D01*
X014485Y006557D01*
X014954Y006557D01*
X014954Y006457D01*
X014485Y006457D01*
X014054Y006457D01*
X014054Y006464D02*
X014954Y006464D01*
X014954Y006365D02*
X015054Y006365D01*
X015054Y006457D02*
X015054Y006557D01*
X015522Y006557D01*
X015954Y006557D01*
X015954Y006457D01*
X015522Y006457D01*
X015054Y006457D01*
X015054Y006464D02*
X015954Y006464D01*
X015954Y006365D02*
X016054Y006365D01*
X016054Y006457D02*
X016054Y006557D01*
X016522Y006557D01*
X016954Y006557D01*
X016954Y006457D01*
X016522Y006457D01*
X016054Y006457D01*
X016054Y006464D02*
X016954Y006464D01*
X016954Y006365D02*
X017054Y006365D01*
X017054Y006457D02*
X017054Y006557D01*
X017522Y006557D01*
X017954Y006557D01*
X017954Y006457D01*
X017522Y006457D01*
X017054Y006457D01*
X017054Y006464D02*
X017954Y006464D01*
X017954Y006365D02*
X018054Y006365D01*
X018054Y006457D02*
X018054Y006557D01*
X018522Y006557D01*
X018954Y006557D01*
X018954Y006457D01*
X018522Y006457D01*
X018054Y006457D01*
X018054Y006464D02*
X018954Y006464D01*
X018954Y006365D02*
X019054Y006365D01*
X019054Y006267D02*
X018954Y006267D01*
X018954Y006168D02*
X019054Y006168D01*
X019054Y006070D02*
X018954Y006070D01*
X018722Y006070D02*
X018286Y006070D01*
X018400Y006168D02*
X018608Y006168D01*
X018543Y006267D02*
X018465Y006267D01*
X018054Y006267D02*
X017954Y006267D01*
X017954Y006168D02*
X018054Y006168D01*
X018054Y006070D02*
X017954Y006070D01*
X017722Y006070D02*
X017286Y006070D01*
X017400Y006168D02*
X017608Y006168D01*
X017543Y006267D02*
X017465Y006267D01*
X017054Y006267D02*
X016954Y006267D01*
X016954Y006168D02*
X017054Y006168D01*
X017054Y006070D02*
X016954Y006070D01*
X016722Y006070D02*
X016286Y006070D01*
X016400Y006168D02*
X016608Y006168D01*
X016543Y006267D02*
X016465Y006267D01*
X016054Y006267D02*
X015954Y006267D01*
X015954Y006168D02*
X016054Y006168D01*
X016054Y006070D02*
X015954Y006070D01*
X015722Y006070D02*
X015286Y006070D01*
X015400Y006168D02*
X015608Y006168D01*
X015543Y006267D02*
X015465Y006267D01*
X015054Y006267D02*
X014954Y006267D01*
X014954Y006168D02*
X015054Y006168D01*
X015054Y006070D02*
X014954Y006070D01*
X014722Y006070D02*
X014286Y006070D01*
X014400Y006168D02*
X014608Y006168D01*
X014543Y006267D02*
X014465Y006267D01*
X014054Y006267D02*
X013954Y006267D01*
X013954Y006168D02*
X014054Y006168D01*
X014054Y006070D02*
X013954Y006070D01*
X013722Y006070D02*
X013286Y006070D01*
X013400Y006168D02*
X013608Y006168D01*
X013543Y006267D02*
X013465Y006267D01*
X013054Y006267D02*
X012954Y006267D01*
X012954Y006168D02*
X013054Y006168D01*
X013054Y006070D02*
X012954Y006070D01*
X012722Y006070D02*
X012286Y006070D01*
X012400Y006168D02*
X012608Y006168D01*
X012543Y006267D02*
X012465Y006267D01*
X012054Y006267D02*
X011954Y006267D01*
X011954Y006168D02*
X012054Y006168D01*
X012054Y006070D02*
X011954Y006070D01*
X011722Y006070D02*
X011286Y006070D01*
X011400Y006168D02*
X011608Y006168D01*
X011543Y006267D02*
X011465Y006267D01*
X011054Y006267D02*
X010954Y006267D01*
X010954Y006168D02*
X011054Y006168D01*
X011054Y006070D02*
X010954Y006070D01*
X010722Y006070D02*
X010286Y006070D01*
X010400Y006168D02*
X010608Y006168D01*
X010543Y006267D02*
X010465Y006267D01*
X010054Y006267D02*
X009954Y006267D01*
X009954Y006168D02*
X010054Y006168D01*
X010054Y006070D02*
X009954Y006070D01*
X009722Y006070D02*
X009286Y006070D01*
X009400Y006168D02*
X009608Y006168D01*
X009543Y006267D02*
X009465Y006267D01*
X009054Y006267D02*
X008954Y006267D01*
X008954Y006168D02*
X009054Y006168D01*
X009054Y006070D02*
X008954Y006070D01*
X008722Y006070D02*
X008286Y006070D01*
X008400Y006168D02*
X008608Y006168D01*
X008543Y006267D02*
X008465Y006267D01*
X008054Y006267D02*
X007954Y006267D01*
X007954Y006168D02*
X008054Y006168D01*
X008054Y006070D02*
X007954Y006070D01*
X007054Y006070D02*
X006954Y006070D01*
X006954Y006168D02*
X007054Y006168D01*
X007054Y006267D02*
X006954Y006267D01*
X006954Y006365D02*
X007054Y006365D01*
X006954Y006457D02*
X006522Y006457D01*
X006054Y006457D01*
X006054Y006557D01*
X006522Y006557D01*
X006954Y006557D01*
X006954Y006457D01*
X006954Y006464D02*
X006054Y006464D01*
X006054Y006365D02*
X005954Y006365D01*
X005954Y006457D02*
X005522Y006457D01*
X005054Y006457D01*
X005054Y006557D01*
X005522Y006557D01*
X005954Y006557D01*
X005954Y006457D01*
X005954Y006464D02*
X005054Y006464D01*
X005054Y006365D02*
X004954Y006365D01*
X004954Y006457D02*
X004522Y006457D01*
X004054Y006457D01*
X004054Y006557D01*
X004522Y006557D01*
X004954Y006557D01*
X004954Y006457D01*
X004954Y006464D02*
X004054Y006464D01*
X004054Y006365D02*
X003954Y006365D01*
X003954Y006267D02*
X004054Y006267D01*
X004054Y006168D02*
X003954Y006168D01*
X003954Y006070D02*
X004054Y006070D01*
X004286Y006070D02*
X004722Y006070D01*
X004608Y006168D02*
X004400Y006168D01*
X004465Y006267D02*
X004543Y006267D01*
X004954Y006267D02*
X005054Y006267D01*
X005054Y006168D02*
X004954Y006168D01*
X004954Y006070D02*
X005054Y006070D01*
X005286Y006070D02*
X005722Y006070D01*
X005608Y006168D02*
X005400Y006168D01*
X005465Y006267D02*
X005543Y006267D01*
X005954Y006267D02*
X006054Y006267D01*
X006054Y006168D02*
X005954Y006168D01*
X005954Y006070D02*
X006054Y006070D01*
X006286Y006070D02*
X006722Y006070D01*
X006608Y006168D02*
X006400Y006168D01*
X006465Y006267D02*
X006543Y006267D01*
X006273Y008040D02*
X006131Y008040D01*
X005877Y008040D02*
X005131Y008040D01*
X005099Y008027D02*
X005276Y008100D01*
X005411Y008235D01*
X005484Y008412D01*
X005484Y008603D01*
X005411Y008779D01*
X005276Y008914D01*
X005099Y008987D01*
X004908Y008987D01*
X004732Y008914D01*
X004597Y008779D01*
X004524Y008603D01*
X004524Y008412D01*
X004597Y008235D01*
X004732Y008100D01*
X004908Y008027D01*
X005099Y008027D01*
X004877Y008040D02*
X004131Y008040D01*
X004314Y008139D02*
X004694Y008139D01*
X004596Y008237D02*
X004412Y008237D01*
X004452Y008336D02*
X004555Y008336D01*
X004524Y008435D02*
X004484Y008435D01*
X004484Y008533D02*
X004524Y008533D01*
X004536Y008632D02*
X004472Y008632D01*
X004431Y008730D02*
X004577Y008730D01*
X004523Y008829D02*
X004646Y008829D01*
X004622Y008927D02*
X004763Y008927D01*
X004720Y009026D02*
X007324Y009026D01*
X007423Y009124D02*
X004819Y009124D01*
X004620Y009321D02*
X001754Y009321D01*
X001754Y009223D02*
X004521Y009223D01*
X004423Y009124D02*
X001754Y009124D01*
X001754Y009026D02*
X004324Y009026D01*
X003763Y008927D02*
X001754Y008927D01*
X001754Y008829D02*
X003646Y008829D01*
X003577Y008730D02*
X001754Y008730D01*
X001754Y008632D02*
X003536Y008632D01*
X003524Y008533D02*
X001754Y008533D01*
X001754Y008435D02*
X003524Y008435D01*
X003555Y008336D02*
X001754Y008336D01*
X001754Y008237D02*
X003596Y008237D01*
X003694Y008139D02*
X001754Y008139D01*
X001754Y008040D02*
X003877Y008040D01*
X003772Y007942D02*
X001754Y007942D01*
X001754Y007843D02*
X003647Y007843D01*
X003572Y007745D02*
X001754Y007745D01*
X001754Y007646D02*
X003531Y007646D01*
X003514Y007548D02*
X001754Y007548D01*
X001754Y007449D02*
X003514Y007449D01*
X003539Y007351D02*
X001754Y007351D01*
X001754Y007252D02*
X003579Y007252D01*
X003665Y007154D02*
X001754Y007154D01*
X001754Y007055D02*
X003816Y007055D01*
X003740Y006956D02*
X001754Y006956D01*
X001754Y006858D02*
X003619Y006858D01*
X003549Y006759D02*
X001754Y006759D01*
X001754Y006661D02*
X003507Y006661D01*
X003486Y006562D02*
X001754Y006562D01*
X001754Y006464D02*
X003954Y006464D01*
X003608Y006168D02*
X001754Y006168D01*
X001754Y006070D02*
X003722Y006070D01*
X003543Y006267D02*
X001754Y006267D01*
X001754Y006365D02*
X003503Y006365D01*
X001754Y005971D02*
X020002Y005971D01*
X020100Y005872D02*
X001754Y005872D01*
X001754Y005774D02*
X020199Y005774D01*
X020298Y005675D02*
X001754Y005675D01*
X001754Y005577D02*
X020396Y005577D01*
X019903Y006070D02*
X019286Y006070D01*
X019400Y006168D02*
X019805Y006168D01*
X019738Y006267D02*
X019465Y006267D01*
X019504Y006365D02*
X019714Y006365D01*
X019714Y006464D02*
X019054Y006464D01*
X019522Y006562D02*
X019714Y006562D01*
X019632Y006661D02*
X019501Y006661D01*
X019534Y006759D02*
X019459Y006759D01*
X019435Y006858D02*
X019389Y006858D01*
X019337Y006956D02*
X019268Y006956D01*
X019238Y007055D02*
X019192Y007055D01*
X019622Y007548D02*
X020514Y007548D01*
X020514Y007605D02*
X020514Y007410D01*
X020589Y007230D01*
X020726Y007092D01*
X020905Y007018D01*
X020882Y007015D01*
X020804Y006989D01*
X020731Y006952D01*
X020665Y006904D01*
X020607Y006846D01*
X020559Y006780D01*
X020522Y006707D01*
X020497Y006629D01*
X020485Y006557D01*
X020954Y006557D01*
X020954Y006457D01*
X020485Y006457D01*
X020497Y006386D01*
X020512Y006337D01*
X020334Y006516D01*
X020334Y006769D01*
X020287Y006883D01*
X020200Y006970D01*
X020199Y006970D01*
X019444Y007726D01*
X019419Y007785D01*
X019281Y007923D01*
X019101Y007997D01*
X018692Y007997D01*
X018777Y008082D01*
X018908Y008027D01*
X019099Y008027D01*
X019276Y008100D01*
X019411Y008235D01*
X019484Y008412D01*
X019484Y008603D01*
X019411Y008779D01*
X019276Y008914D01*
X019099Y008987D01*
X018908Y008987D01*
X018732Y008914D01*
X018597Y008779D01*
X018524Y008603D01*
X018524Y008412D01*
X018579Y008280D01*
X018466Y008167D01*
X018343Y008167D01*
X018411Y008235D01*
X018484Y008412D01*
X018484Y008603D01*
X018411Y008779D01*
X018276Y008914D01*
X018099Y008987D01*
X017908Y008987D01*
X017732Y008914D01*
X017597Y008779D01*
X017524Y008603D01*
X017524Y008412D01*
X017597Y008235D01*
X017665Y008167D01*
X017343Y008167D01*
X017411Y008235D01*
X017484Y008412D01*
X017484Y008603D01*
X017411Y008779D01*
X017276Y008914D01*
X017144Y008969D01*
X017144Y010909D01*
X017241Y011007D01*
X017251Y011002D01*
X017357Y011002D01*
X017454Y011043D01*
X017529Y011117D01*
X017569Y011215D01*
X017569Y011320D01*
X017529Y011417D01*
X017454Y011492D01*
X017369Y011527D01*
X018446Y011527D01*
X018562Y011527D01*
X019282Y012247D01*
X020642Y012247D01*
X020724Y012329D01*
X022041Y013647D01*
X022051Y013642D01*
X022157Y013642D01*
X022254Y013683D01*
X022329Y013757D01*
X022369Y013855D01*
X022369Y013960D01*
X022329Y014057D01*
X022324Y014062D01*
X022371Y014042D01*
X022477Y014042D01*
X022479Y014043D01*
X022479Y014015D01*
X022519Y013917D01*
X022594Y013843D01*
X022604Y013839D01*
X022604Y010305D01*
X021231Y008933D01*
X021099Y008987D01*
X020908Y008987D01*
X020732Y008914D01*
X020597Y008779D01*
X020524Y008603D01*
X020524Y008412D01*
X020597Y008235D01*
X020732Y008100D01*
X020908Y008027D01*
X021099Y008027D01*
X021276Y008100D01*
X021411Y008235D01*
X021484Y008412D01*
X021484Y008603D01*
X021429Y008735D01*
X022884Y010189D01*
X022884Y010305D01*
X022884Y013839D01*
X022894Y013843D01*
X022924Y013873D01*
X022924Y009625D01*
X022231Y008933D01*
X022099Y008987D01*
X021908Y008987D01*
X021732Y008914D01*
X021597Y008779D01*
X021524Y008603D01*
X021524Y008412D01*
X021597Y008235D01*
X021732Y008100D01*
X021908Y008027D01*
X022099Y008027D01*
X022276Y008100D01*
X022411Y008235D01*
X022484Y008412D01*
X022484Y008603D01*
X022429Y008735D01*
X023204Y009509D01*
X023204Y009625D01*
X023204Y013873D01*
X023234Y013843D01*
X023244Y013839D01*
X023244Y008945D01*
X023231Y008933D01*
X023099Y008987D01*
X022908Y008987D01*
X022732Y008914D01*
X022597Y008779D01*
X022524Y008603D01*
X022524Y008412D01*
X022597Y008235D01*
X022732Y008100D01*
X022908Y008027D01*
X023099Y008027D01*
X023276Y008100D01*
X023411Y008235D01*
X023484Y008412D01*
X023484Y008603D01*
X023429Y008735D01*
X023524Y008829D01*
X023524Y008945D01*
X023524Y013839D01*
X023534Y013843D01*
X023564Y013873D01*
X023564Y008865D01*
X023564Y008749D01*
X023579Y008735D01*
X023524Y008603D01*
X023524Y008412D01*
X023597Y008235D01*
X023732Y008100D01*
X023908Y008027D01*
X024099Y008027D01*
X024276Y008100D01*
X024411Y008235D01*
X024484Y008412D01*
X024484Y008603D01*
X024411Y008779D01*
X024276Y008914D01*
X024099Y008987D01*
X023908Y008987D01*
X023844Y008961D01*
X023844Y014079D01*
X023854Y014083D01*
X023929Y014157D01*
X023969Y014255D01*
X023969Y014360D01*
X023929Y014457D01*
X023899Y014487D01*
X024046Y014487D01*
X027603Y010930D01*
X027599Y010920D01*
X027599Y010815D01*
X027639Y010717D01*
X027714Y010643D01*
X027811Y010602D01*
X027917Y010602D01*
X027917Y010603D02*
X029864Y010603D01*
X029864Y010701D02*
X028072Y010701D01*
X028089Y010717D02*
X028129Y010815D01*
X028129Y010920D01*
X028089Y011017D01*
X028014Y011092D01*
X027917Y011132D01*
X027811Y011132D01*
X027801Y011128D01*
X024244Y014685D01*
X024162Y014767D01*
X023482Y014767D01*
X024564Y015849D01*
X024564Y015965D01*
X024564Y016399D01*
X024574Y016403D01*
X024649Y016477D01*
X024689Y016575D01*
X024689Y016680D01*
X024649Y016777D01*
X024574Y016852D01*
X024477Y016892D01*
X024371Y016892D01*
X024274Y016852D01*
X024224Y016802D01*
X024174Y016852D01*
X024077Y016892D01*
X023971Y016892D01*
X023924Y016873D01*
X023924Y017073D01*
X023954Y017043D01*
X024051Y017002D01*
X024157Y017002D01*
X024254Y017043D01*
X024329Y017117D01*
X024369Y017215D01*
X024369Y017320D01*
X024329Y017417D01*
X024254Y017492D01*
X024244Y017496D01*
X024244Y017763D01*
X024279Y017677D01*
X024354Y017603D01*
X024451Y017562D01*
X024557Y017562D01*
X024654Y017603D01*
X024670Y017619D01*
X024679Y017597D01*
X024754Y017523D01*
X024851Y017482D01*
X024957Y017482D01*
X025054Y017523D01*
X025129Y017597D01*
X025133Y017607D01*
X025246Y017607D01*
X026321Y016532D01*
X026311Y016532D01*
X026214Y016492D01*
X026139Y016417D01*
X024588Y016417D01*
X024564Y016318D02*
X026099Y016318D01*
X026099Y016320D02*
X026099Y016215D01*
X026139Y016117D01*
X026189Y016067D01*
X026139Y016017D01*
X026099Y015920D01*
X026099Y015815D01*
X026139Y015717D01*
X026214Y015643D01*
X026311Y015602D01*
X026417Y015602D01*
X026427Y015607D01*
X026701Y015332D01*
X026631Y015332D01*
X026534Y015292D01*
X026459Y015217D01*
X026419Y015120D01*
X026419Y015015D01*
X026459Y014917D01*
X026534Y014843D01*
X026631Y014802D01*
X026737Y014802D01*
X026747Y014807D01*
X027621Y013932D01*
X027571Y013932D01*
X027474Y013892D01*
X027399Y013817D01*
X027395Y013807D01*
X027213Y013807D01*
X027209Y013817D01*
X027134Y013892D01*
X027037Y013932D01*
X026931Y013932D01*
X026834Y013892D01*
X026759Y013817D01*
X026719Y013720D01*
X026719Y013615D01*
X026759Y013517D01*
X026834Y013443D01*
X026931Y013402D01*
X027037Y013402D01*
X027134Y013443D01*
X027209Y013517D01*
X027213Y013527D01*
X027395Y013527D01*
X027399Y013517D01*
X027474Y013443D01*
X027571Y013402D01*
X027677Y013402D01*
X027774Y013443D01*
X027849Y013517D01*
X027889Y013615D01*
X027889Y013664D01*
X028181Y013372D01*
X028131Y013372D01*
X028034Y013332D01*
X027959Y013257D01*
X027919Y013160D01*
X027919Y013083D01*
X027874Y013037D01*
X027214Y013037D01*
X026611Y013640D01*
X026649Y013677D01*
X026689Y013775D01*
X026689Y013880D01*
X026649Y013977D01*
X026574Y014052D01*
X026477Y014092D01*
X026371Y014092D01*
X026274Y014052D01*
X026199Y013977D01*
X026159Y013880D01*
X026159Y013775D01*
X026199Y013677D01*
X026254Y013623D01*
X026254Y013517D01*
X026974Y012797D01*
X027074Y012697D01*
X027874Y012697D01*
X028014Y012697D01*
X028159Y012842D01*
X028237Y012842D01*
X028334Y012883D01*
X028409Y012957D01*
X028449Y013055D01*
X028449Y013104D01*
X029864Y011689D01*
X029864Y008969D01*
X029732Y008914D01*
X029597Y008779D01*
X029524Y008603D01*
X029524Y008412D01*
X029597Y008235D01*
X029732Y008100D01*
X029908Y008027D01*
X030099Y008027D01*
X030276Y008100D01*
X030411Y008235D01*
X030484Y008412D01*
X030484Y008603D01*
X030411Y008779D01*
X030276Y008914D01*
X030144Y008969D01*
X030144Y011689D01*
X030144Y011805D01*
X026945Y015005D01*
X026949Y015015D01*
X026949Y015084D01*
X030864Y011169D01*
X030864Y008969D01*
X030732Y008914D01*
X030597Y008779D01*
X030524Y008603D01*
X030524Y008412D01*
X030597Y008235D01*
X030732Y008100D01*
X030908Y008027D01*
X031099Y008027D01*
X031276Y008100D01*
X031411Y008235D01*
X031484Y008412D01*
X031484Y008603D01*
X031411Y008779D01*
X031276Y008914D01*
X031144Y008969D01*
X031144Y011169D01*
X031144Y011285D01*
X026625Y015805D01*
X026629Y015815D01*
X026629Y015920D01*
X026597Y015996D01*
X031864Y010729D01*
X031864Y008969D01*
X031732Y008914D01*
X031597Y008779D01*
X031524Y008603D01*
X031524Y008412D01*
X031597Y008235D01*
X031732Y008100D01*
X031908Y008027D01*
X032099Y008027D01*
X032276Y008100D01*
X032411Y008235D01*
X032484Y008412D01*
X032484Y008603D01*
X032411Y008779D01*
X032276Y008914D01*
X032144Y008969D01*
X032144Y009190D01*
X032211Y009162D01*
X032317Y009162D01*
X032414Y009203D01*
X032489Y009277D01*
X032529Y009375D01*
X032529Y009447D01*
X032562Y009447D01*
X032642Y009447D01*
X032686Y009447D01*
X033179Y008954D01*
X033099Y008987D01*
X032908Y008987D01*
X032732Y008914D01*
X032597Y008779D01*
X032524Y008603D01*
X032524Y008412D01*
X032597Y008235D01*
X032732Y008100D01*
X032908Y008027D01*
X033099Y008027D01*
X033276Y008100D01*
X033411Y008235D01*
X033413Y008240D01*
X033446Y008207D01*
X033656Y007997D01*
X020906Y007997D01*
X020726Y007923D01*
X020589Y007785D01*
X020514Y007605D01*
X020531Y007646D02*
X019523Y007646D01*
X019436Y007745D02*
X020572Y007745D01*
X020647Y007843D02*
X019361Y007843D01*
X019235Y007942D02*
X020772Y007942D01*
X020877Y008040D02*
X019131Y008040D01*
X019314Y008139D02*
X020694Y008139D01*
X020596Y008237D02*
X019412Y008237D01*
X019452Y008336D02*
X020555Y008336D01*
X020524Y008435D02*
X019484Y008435D01*
X019484Y008533D02*
X020524Y008533D01*
X020536Y008632D02*
X019472Y008632D01*
X019431Y008730D02*
X020577Y008730D01*
X020646Y008829D02*
X019361Y008829D01*
X019244Y008927D02*
X020763Y008927D01*
X021324Y009026D02*
X017144Y009026D01*
X017144Y009124D02*
X021423Y009124D01*
X021521Y009223D02*
X017144Y009223D01*
X017144Y009321D02*
X021620Y009321D01*
X021719Y009420D02*
X017144Y009420D01*
X017144Y009519D02*
X021817Y009519D01*
X021916Y009617D02*
X017144Y009617D01*
X017144Y009716D02*
X022014Y009716D01*
X022113Y009814D02*
X017144Y009814D01*
X017144Y009913D02*
X022211Y009913D01*
X022310Y010011D02*
X017144Y010011D01*
X017144Y010110D02*
X022408Y010110D01*
X022507Y010208D02*
X017144Y010208D01*
X017144Y010307D02*
X022604Y010307D01*
X022604Y010405D02*
X017144Y010405D01*
X017144Y010504D02*
X022604Y010504D01*
X022604Y010603D02*
X017144Y010603D01*
X017144Y010701D02*
X022604Y010701D01*
X022604Y010800D02*
X017144Y010800D01*
X017144Y010898D02*
X022604Y010898D01*
X022604Y010997D02*
X017231Y010997D01*
X017506Y011095D02*
X022604Y011095D01*
X022604Y011194D02*
X017560Y011194D01*
X017569Y011292D02*
X022604Y011292D01*
X022604Y011391D02*
X017540Y011391D01*
X017457Y011489D02*
X022604Y011489D01*
X022604Y011588D02*
X018622Y011588D01*
X018721Y011686D02*
X022604Y011686D01*
X022604Y011785D02*
X018820Y011785D01*
X018918Y011884D02*
X022604Y011884D01*
X022604Y011982D02*
X019017Y011982D01*
X019115Y012081D02*
X022604Y012081D01*
X022604Y012179D02*
X019214Y012179D01*
X020672Y012278D02*
X022604Y012278D01*
X022604Y012376D02*
X020771Y012376D01*
X020869Y012475D02*
X022604Y012475D01*
X022604Y012573D02*
X020968Y012573D01*
X021066Y012672D02*
X022604Y012672D01*
X022604Y012770D02*
X021165Y012770D01*
X021264Y012869D02*
X022604Y012869D01*
X022604Y012968D02*
X021362Y012968D01*
X021461Y013066D02*
X022604Y013066D01*
X022604Y013165D02*
X021559Y013165D01*
X021658Y013263D02*
X022604Y013263D01*
X022604Y013362D02*
X021756Y013362D01*
X021855Y013460D02*
X022604Y013460D01*
X022604Y013559D02*
X021953Y013559D01*
X022193Y013657D02*
X022604Y013657D01*
X022604Y013756D02*
X022327Y013756D01*
X022369Y013854D02*
X022582Y013854D01*
X022504Y013953D02*
X022369Y013953D01*
X022349Y014052D02*
X022331Y014052D01*
X022884Y013756D02*
X022924Y013756D01*
X022924Y013854D02*
X022906Y013854D01*
X022924Y013657D02*
X022884Y013657D01*
X022884Y013559D02*
X022924Y013559D01*
X022924Y013460D02*
X022884Y013460D01*
X022884Y013362D02*
X022924Y013362D01*
X022924Y013263D02*
X022884Y013263D01*
X022884Y013165D02*
X022924Y013165D01*
X022924Y013066D02*
X022884Y013066D01*
X022884Y012968D02*
X022924Y012968D01*
X022924Y012869D02*
X022884Y012869D01*
X022884Y012770D02*
X022924Y012770D01*
X022924Y012672D02*
X022884Y012672D01*
X022884Y012573D02*
X022924Y012573D01*
X022924Y012475D02*
X022884Y012475D01*
X022884Y012376D02*
X022924Y012376D01*
X022924Y012278D02*
X022884Y012278D01*
X022884Y012179D02*
X022924Y012179D01*
X022924Y012081D02*
X022884Y012081D01*
X022884Y011982D02*
X022924Y011982D01*
X022924Y011884D02*
X022884Y011884D01*
X022884Y011785D02*
X022924Y011785D01*
X022924Y011686D02*
X022884Y011686D01*
X022884Y011588D02*
X022924Y011588D01*
X022924Y011489D02*
X022884Y011489D01*
X022884Y011391D02*
X022924Y011391D01*
X022924Y011292D02*
X022884Y011292D01*
X022884Y011194D02*
X022924Y011194D01*
X022924Y011095D02*
X022884Y011095D01*
X022884Y010997D02*
X022924Y010997D01*
X022924Y010898D02*
X022884Y010898D01*
X022884Y010800D02*
X022924Y010800D01*
X022924Y010701D02*
X022884Y010701D01*
X022884Y010603D02*
X022924Y010603D01*
X022924Y010504D02*
X022884Y010504D01*
X022884Y010405D02*
X022924Y010405D01*
X022924Y010307D02*
X022884Y010307D01*
X022884Y010208D02*
X022924Y010208D01*
X022924Y010110D02*
X022804Y010110D01*
X022706Y010011D02*
X022924Y010011D01*
X022924Y009913D02*
X022607Y009913D01*
X022509Y009814D02*
X022924Y009814D01*
X022924Y009716D02*
X022410Y009716D01*
X022312Y009617D02*
X022916Y009617D01*
X022817Y009519D02*
X022213Y009519D01*
X022114Y009420D02*
X022719Y009420D01*
X022620Y009321D02*
X022016Y009321D01*
X021917Y009223D02*
X022521Y009223D01*
X022423Y009124D02*
X021819Y009124D01*
X021720Y009026D02*
X022324Y009026D01*
X022523Y008829D02*
X022646Y008829D01*
X022622Y008927D02*
X022763Y008927D01*
X022720Y009026D02*
X023244Y009026D01*
X023244Y009124D02*
X022819Y009124D01*
X022917Y009223D02*
X023244Y009223D01*
X023244Y009321D02*
X023016Y009321D01*
X023114Y009420D02*
X023244Y009420D01*
X023244Y009519D02*
X023204Y009519D01*
X023204Y009617D02*
X023244Y009617D01*
X023244Y009716D02*
X023204Y009716D01*
X023204Y009814D02*
X023244Y009814D01*
X023244Y009913D02*
X023204Y009913D01*
X023204Y010011D02*
X023244Y010011D01*
X023244Y010110D02*
X023204Y010110D01*
X023204Y010208D02*
X023244Y010208D01*
X023244Y010307D02*
X023204Y010307D01*
X023204Y010405D02*
X023244Y010405D01*
X023244Y010504D02*
X023204Y010504D01*
X023204Y010603D02*
X023244Y010603D01*
X023244Y010701D02*
X023204Y010701D01*
X023204Y010800D02*
X023244Y010800D01*
X023244Y010898D02*
X023204Y010898D01*
X023204Y010997D02*
X023244Y010997D01*
X023244Y011095D02*
X023204Y011095D01*
X023204Y011194D02*
X023244Y011194D01*
X023244Y011292D02*
X023204Y011292D01*
X023204Y011391D02*
X023244Y011391D01*
X023244Y011489D02*
X023204Y011489D01*
X023204Y011588D02*
X023244Y011588D01*
X023244Y011686D02*
X023204Y011686D01*
X023204Y011785D02*
X023244Y011785D01*
X023244Y011884D02*
X023204Y011884D01*
X023204Y011982D02*
X023244Y011982D01*
X023244Y012081D02*
X023204Y012081D01*
X023204Y012179D02*
X023244Y012179D01*
X023244Y012278D02*
X023204Y012278D01*
X023204Y012376D02*
X023244Y012376D01*
X023244Y012475D02*
X023204Y012475D01*
X023204Y012573D02*
X023244Y012573D01*
X023244Y012672D02*
X023204Y012672D01*
X023204Y012770D02*
X023244Y012770D01*
X023244Y012869D02*
X023204Y012869D01*
X023204Y012968D02*
X023244Y012968D01*
X023244Y013066D02*
X023204Y013066D01*
X023204Y013165D02*
X023244Y013165D01*
X023244Y013263D02*
X023204Y013263D01*
X023204Y013362D02*
X023244Y013362D01*
X023244Y013460D02*
X023204Y013460D01*
X023204Y013559D02*
X023244Y013559D01*
X023244Y013657D02*
X023204Y013657D01*
X023204Y013756D02*
X023244Y013756D01*
X023222Y013854D02*
X023204Y013854D01*
X023524Y013756D02*
X023564Y013756D01*
X023564Y013854D02*
X023546Y013854D01*
X023564Y013657D02*
X023524Y013657D01*
X023524Y013559D02*
X023564Y013559D01*
X023564Y013460D02*
X023524Y013460D01*
X023524Y013362D02*
X023564Y013362D01*
X023564Y013263D02*
X023524Y013263D01*
X023524Y013165D02*
X023564Y013165D01*
X023564Y013066D02*
X023524Y013066D01*
X023524Y012968D02*
X023564Y012968D01*
X023564Y012869D02*
X023524Y012869D01*
X023524Y012770D02*
X023564Y012770D01*
X023564Y012672D02*
X023524Y012672D01*
X023524Y012573D02*
X023564Y012573D01*
X023564Y012475D02*
X023524Y012475D01*
X023524Y012376D02*
X023564Y012376D01*
X023564Y012278D02*
X023524Y012278D01*
X023524Y012179D02*
X023564Y012179D01*
X023564Y012081D02*
X023524Y012081D01*
X023524Y011982D02*
X023564Y011982D01*
X023564Y011884D02*
X023524Y011884D01*
X023524Y011785D02*
X023564Y011785D01*
X023564Y011686D02*
X023524Y011686D01*
X023524Y011588D02*
X023564Y011588D01*
X023564Y011489D02*
X023524Y011489D01*
X023524Y011391D02*
X023564Y011391D01*
X023564Y011292D02*
X023524Y011292D01*
X023524Y011194D02*
X023564Y011194D01*
X023564Y011095D02*
X023524Y011095D01*
X023524Y010997D02*
X023564Y010997D01*
X023564Y010898D02*
X023524Y010898D01*
X023524Y010800D02*
X023564Y010800D01*
X023564Y010701D02*
X023524Y010701D01*
X023524Y010603D02*
X023564Y010603D01*
X023564Y010504D02*
X023524Y010504D01*
X023524Y010405D02*
X023564Y010405D01*
X023564Y010307D02*
X023524Y010307D01*
X023524Y010208D02*
X023564Y010208D01*
X023564Y010110D02*
X023524Y010110D01*
X023524Y010011D02*
X023564Y010011D01*
X023564Y009913D02*
X023524Y009913D01*
X023524Y009814D02*
X023564Y009814D01*
X023564Y009716D02*
X023524Y009716D01*
X023524Y009617D02*
X023564Y009617D01*
X023564Y009519D02*
X023524Y009519D01*
X023524Y009420D02*
X023564Y009420D01*
X023564Y009321D02*
X023524Y009321D01*
X023524Y009223D02*
X023564Y009223D01*
X023564Y009124D02*
X023524Y009124D01*
X023524Y009026D02*
X023564Y009026D01*
X023564Y008927D02*
X023524Y008927D01*
X023523Y008829D02*
X023564Y008829D01*
X023577Y008730D02*
X023431Y008730D01*
X023472Y008632D02*
X023536Y008632D01*
X023524Y008533D02*
X023484Y008533D01*
X023484Y008435D02*
X023524Y008435D01*
X023555Y008336D02*
X023452Y008336D01*
X023412Y008237D02*
X023596Y008237D01*
X023694Y008139D02*
X023314Y008139D01*
X023131Y008040D02*
X023877Y008040D01*
X024131Y008040D02*
X024877Y008040D01*
X024908Y008027D02*
X024732Y008100D01*
X024597Y008235D01*
X024524Y008412D01*
X024524Y008603D01*
X024597Y008779D01*
X024732Y008914D01*
X024908Y008987D01*
X025099Y008987D01*
X025276Y008914D01*
X025411Y008779D01*
X025484Y008603D01*
X025484Y008412D01*
X025411Y008235D01*
X025276Y008100D01*
X025099Y008027D01*
X024908Y008027D01*
X025131Y008040D02*
X025877Y008040D01*
X025908Y008027D02*
X026099Y008027D01*
X026276Y008100D01*
X026411Y008235D01*
X026484Y008412D01*
X026484Y008603D01*
X026411Y008779D01*
X026276Y008914D01*
X026099Y008987D01*
X025908Y008987D01*
X025732Y008914D01*
X025597Y008779D01*
X025524Y008603D01*
X025524Y008412D01*
X025597Y008235D01*
X025732Y008100D01*
X025908Y008027D01*
X026131Y008040D02*
X026877Y008040D01*
X026908Y008027D02*
X026732Y008100D01*
X026597Y008235D01*
X026524Y008412D01*
X026524Y008603D01*
X026597Y008779D01*
X026732Y008914D01*
X026908Y008987D01*
X027099Y008987D01*
X027276Y008914D01*
X027411Y008779D01*
X027484Y008603D01*
X027484Y008412D01*
X027411Y008235D01*
X027276Y008100D01*
X027099Y008027D01*
X026908Y008027D01*
X027131Y008040D02*
X027877Y008040D01*
X027908Y008027D02*
X028099Y008027D01*
X028276Y008100D01*
X028411Y008235D01*
X028484Y008412D01*
X028484Y008603D01*
X028411Y008779D01*
X028276Y008914D01*
X028099Y008987D01*
X027908Y008987D01*
X027732Y008914D01*
X027597Y008779D01*
X027524Y008603D01*
X027524Y008412D01*
X027597Y008235D01*
X027732Y008100D01*
X027908Y008027D01*
X028131Y008040D02*
X028877Y008040D01*
X028908Y008027D02*
X029099Y008027D01*
X029276Y008100D01*
X029411Y008235D01*
X029484Y008412D01*
X029484Y008603D01*
X029411Y008779D01*
X029276Y008914D01*
X029099Y008987D01*
X028908Y008987D01*
X028732Y008914D01*
X028597Y008779D01*
X028524Y008603D01*
X028524Y008412D01*
X028597Y008235D01*
X028732Y008100D01*
X028908Y008027D01*
X029131Y008040D02*
X029877Y008040D01*
X029694Y008139D02*
X029314Y008139D01*
X029412Y008237D02*
X029596Y008237D01*
X029555Y008336D02*
X029452Y008336D01*
X029484Y008435D02*
X029524Y008435D01*
X029524Y008533D02*
X029484Y008533D01*
X029472Y008632D02*
X029536Y008632D01*
X029577Y008730D02*
X029431Y008730D01*
X029361Y008829D02*
X029646Y008829D01*
X029763Y008927D02*
X029244Y008927D01*
X028763Y008927D02*
X028244Y008927D01*
X028361Y008829D02*
X028646Y008829D01*
X028577Y008730D02*
X028431Y008730D01*
X028472Y008632D02*
X028536Y008632D01*
X028524Y008533D02*
X028484Y008533D01*
X028484Y008435D02*
X028524Y008435D01*
X028555Y008336D02*
X028452Y008336D01*
X028412Y008237D02*
X028596Y008237D01*
X028694Y008139D02*
X028314Y008139D01*
X027694Y008139D02*
X027314Y008139D01*
X027412Y008237D02*
X027596Y008237D01*
X027555Y008336D02*
X027452Y008336D01*
X027484Y008435D02*
X027524Y008435D01*
X027524Y008533D02*
X027484Y008533D01*
X027472Y008632D02*
X027536Y008632D01*
X027577Y008730D02*
X027431Y008730D01*
X027361Y008829D02*
X027646Y008829D01*
X027763Y008927D02*
X027244Y008927D01*
X026763Y008927D02*
X026244Y008927D01*
X026361Y008829D02*
X026646Y008829D01*
X026577Y008730D02*
X026431Y008730D01*
X026472Y008632D02*
X026536Y008632D01*
X026524Y008533D02*
X026484Y008533D01*
X026484Y008435D02*
X026524Y008435D01*
X026555Y008336D02*
X026452Y008336D01*
X026412Y008237D02*
X026596Y008237D01*
X026694Y008139D02*
X026314Y008139D01*
X025694Y008139D02*
X025314Y008139D01*
X025412Y008237D02*
X025596Y008237D01*
X025555Y008336D02*
X025452Y008336D01*
X025484Y008435D02*
X025524Y008435D01*
X025524Y008533D02*
X025484Y008533D01*
X025472Y008632D02*
X025536Y008632D01*
X025577Y008730D02*
X025431Y008730D01*
X025361Y008829D02*
X025646Y008829D01*
X025763Y008927D02*
X025244Y008927D01*
X024763Y008927D02*
X024244Y008927D01*
X024361Y008829D02*
X024646Y008829D01*
X024577Y008730D02*
X024431Y008730D01*
X024472Y008632D02*
X024536Y008632D01*
X024524Y008533D02*
X024484Y008533D01*
X024484Y008435D02*
X024524Y008435D01*
X024555Y008336D02*
X024452Y008336D01*
X024412Y008237D02*
X024596Y008237D01*
X024694Y008139D02*
X024314Y008139D01*
X023844Y009026D02*
X029864Y009026D01*
X029864Y009124D02*
X023844Y009124D01*
X023844Y009223D02*
X029864Y009223D01*
X029864Y009321D02*
X023844Y009321D01*
X023844Y009420D02*
X029864Y009420D01*
X029864Y009519D02*
X023844Y009519D01*
X023844Y009617D02*
X029864Y009617D01*
X029864Y009716D02*
X023844Y009716D01*
X023844Y009814D02*
X029864Y009814D01*
X029864Y009913D02*
X023844Y009913D01*
X023844Y010011D02*
X029864Y010011D01*
X029864Y010110D02*
X023844Y010110D01*
X023844Y010208D02*
X029864Y010208D01*
X029864Y010307D02*
X023844Y010307D01*
X023844Y010405D02*
X029864Y010405D01*
X029864Y010504D02*
X023844Y010504D01*
X023844Y010603D02*
X027811Y010603D01*
X027917Y010602D02*
X028014Y010643D01*
X028089Y010717D01*
X028123Y010800D02*
X029864Y010800D01*
X029864Y010898D02*
X028129Y010898D01*
X028097Y010997D02*
X029864Y010997D01*
X029864Y011095D02*
X028006Y011095D01*
X027736Y011194D02*
X029864Y011194D01*
X029864Y011292D02*
X027637Y011292D01*
X027538Y011391D02*
X029864Y011391D01*
X029864Y011489D02*
X027440Y011489D01*
X027341Y011588D02*
X029864Y011588D01*
X029864Y011686D02*
X027243Y011686D01*
X027144Y011785D02*
X029768Y011785D01*
X029670Y011884D02*
X027046Y011884D01*
X026947Y011982D02*
X029571Y011982D01*
X029473Y012081D02*
X026849Y012081D01*
X026750Y012179D02*
X029374Y012179D01*
X029276Y012278D02*
X026652Y012278D01*
X026553Y012376D02*
X029177Y012376D01*
X029078Y012475D02*
X026454Y012475D01*
X026356Y012573D02*
X028980Y012573D01*
X028881Y012672D02*
X026257Y012672D01*
X026159Y012770D02*
X027000Y012770D01*
X026902Y012869D02*
X026060Y012869D01*
X025962Y012968D02*
X026803Y012968D01*
X026705Y013066D02*
X025863Y013066D01*
X025765Y013165D02*
X026606Y013165D01*
X026508Y013263D02*
X025666Y013263D01*
X025568Y013362D02*
X026409Y013362D01*
X026311Y013460D02*
X025469Y013460D01*
X025370Y013559D02*
X026254Y013559D01*
X026219Y013657D02*
X025272Y013657D01*
X025173Y013756D02*
X026167Y013756D01*
X026159Y013854D02*
X025075Y013854D01*
X024976Y013953D02*
X026189Y013953D01*
X026273Y014052D02*
X024878Y014052D01*
X024779Y014150D02*
X027403Y014150D01*
X027305Y014249D02*
X024681Y014249D01*
X024582Y014347D02*
X027206Y014347D01*
X027108Y014446D02*
X024484Y014446D01*
X024385Y014544D02*
X027009Y014544D01*
X026911Y014643D02*
X024286Y014643D01*
X024188Y014741D02*
X026812Y014741D01*
X027011Y014938D02*
X027095Y014938D01*
X027109Y014840D02*
X027193Y014840D01*
X027208Y014741D02*
X027292Y014741D01*
X027306Y014643D02*
X027391Y014643D01*
X027405Y014544D02*
X027489Y014544D01*
X027504Y014446D02*
X027588Y014446D01*
X027602Y014347D02*
X027686Y014347D01*
X027701Y014249D02*
X027785Y014249D01*
X027799Y014150D02*
X027883Y014150D01*
X027898Y014052D02*
X027982Y014052D01*
X027996Y013953D02*
X028080Y013953D01*
X028095Y013854D02*
X028179Y013854D01*
X028193Y013756D02*
X028277Y013756D01*
X028292Y013657D02*
X028376Y013657D01*
X028390Y013559D02*
X028474Y013559D01*
X028489Y013460D02*
X028573Y013460D01*
X028588Y013362D02*
X028672Y013362D01*
X028686Y013263D02*
X028770Y013263D01*
X028785Y013165D02*
X028869Y013165D01*
X028883Y013066D02*
X028967Y013066D01*
X028982Y012968D02*
X029066Y012968D01*
X029080Y012869D02*
X029164Y012869D01*
X029179Y012770D02*
X029263Y012770D01*
X029277Y012672D02*
X029361Y012672D01*
X029376Y012573D02*
X029460Y012573D01*
X029474Y012475D02*
X029558Y012475D01*
X029573Y012376D02*
X029657Y012376D01*
X029672Y012278D02*
X029756Y012278D01*
X029770Y012179D02*
X029854Y012179D01*
X029869Y012081D02*
X029953Y012081D01*
X029967Y011982D02*
X030051Y011982D01*
X030066Y011884D02*
X030150Y011884D01*
X030144Y011785D02*
X030248Y011785D01*
X030347Y011686D02*
X030144Y011686D01*
X030144Y011588D02*
X030445Y011588D01*
X030544Y011489D02*
X030144Y011489D01*
X030144Y011391D02*
X030642Y011391D01*
X030741Y011292D02*
X030144Y011292D01*
X030144Y011194D02*
X030840Y011194D01*
X030864Y011095D02*
X030144Y011095D01*
X030144Y010997D02*
X030864Y010997D01*
X030864Y010898D02*
X030144Y010898D01*
X030144Y010800D02*
X030864Y010800D01*
X030864Y010701D02*
X030144Y010701D01*
X030144Y010603D02*
X030864Y010603D01*
X030864Y010504D02*
X030144Y010504D01*
X030144Y010405D02*
X030864Y010405D01*
X030864Y010307D02*
X030144Y010307D01*
X030144Y010208D02*
X030864Y010208D01*
X030864Y010110D02*
X030144Y010110D01*
X030144Y010011D02*
X030864Y010011D01*
X030864Y009913D02*
X030144Y009913D01*
X030144Y009814D02*
X030864Y009814D01*
X030864Y009716D02*
X030144Y009716D01*
X030144Y009617D02*
X030864Y009617D01*
X030864Y009519D02*
X030144Y009519D01*
X030144Y009420D02*
X030864Y009420D01*
X030864Y009321D02*
X030144Y009321D01*
X030144Y009223D02*
X030864Y009223D01*
X030864Y009124D02*
X030144Y009124D01*
X030144Y009026D02*
X030864Y009026D01*
X030763Y008927D02*
X030244Y008927D01*
X030361Y008829D02*
X030646Y008829D01*
X030577Y008730D02*
X030431Y008730D01*
X030472Y008632D02*
X030536Y008632D01*
X030524Y008533D02*
X030484Y008533D01*
X030484Y008435D02*
X030524Y008435D01*
X030555Y008336D02*
X030452Y008336D01*
X030412Y008237D02*
X030596Y008237D01*
X030694Y008139D02*
X030314Y008139D01*
X030131Y008040D02*
X030877Y008040D01*
X031131Y008040D02*
X031877Y008040D01*
X031694Y008139D02*
X031314Y008139D01*
X031412Y008237D02*
X031596Y008237D01*
X031555Y008336D02*
X031452Y008336D01*
X031484Y008435D02*
X031524Y008435D01*
X031524Y008533D02*
X031484Y008533D01*
X031472Y008632D02*
X031536Y008632D01*
X031577Y008730D02*
X031431Y008730D01*
X031361Y008829D02*
X031646Y008829D01*
X031763Y008927D02*
X031244Y008927D01*
X031144Y009026D02*
X031864Y009026D01*
X031864Y009124D02*
X031144Y009124D01*
X031144Y009223D02*
X031864Y009223D01*
X031864Y009321D02*
X031144Y009321D01*
X031144Y009420D02*
X031864Y009420D01*
X031864Y009519D02*
X031144Y009519D01*
X031144Y009617D02*
X031864Y009617D01*
X031864Y009716D02*
X031144Y009716D01*
X031144Y009814D02*
X031864Y009814D01*
X031864Y009913D02*
X031144Y009913D01*
X031144Y010011D02*
X031864Y010011D01*
X031864Y010110D02*
X031144Y010110D01*
X031144Y010208D02*
X031864Y010208D01*
X031864Y010307D02*
X031144Y010307D01*
X031144Y010405D02*
X031864Y010405D01*
X031864Y010504D02*
X031144Y010504D01*
X031144Y010603D02*
X031864Y010603D01*
X031864Y010701D02*
X031144Y010701D01*
X031144Y010800D02*
X031794Y010800D01*
X031695Y010898D02*
X031144Y010898D01*
X031144Y010997D02*
X031597Y010997D01*
X031498Y011095D02*
X031144Y011095D01*
X031144Y011194D02*
X031400Y011194D01*
X031301Y011292D02*
X031137Y011292D01*
X031202Y011391D02*
X031038Y011391D01*
X031104Y011489D02*
X030940Y011489D01*
X031005Y011588D02*
X030841Y011588D01*
X030907Y011686D02*
X030743Y011686D01*
X030808Y011785D02*
X030644Y011785D01*
X030710Y011884D02*
X030546Y011884D01*
X030611Y011982D02*
X030447Y011982D01*
X030513Y012081D02*
X030349Y012081D01*
X030414Y012179D02*
X030250Y012179D01*
X030316Y012278D02*
X030152Y012278D01*
X030217Y012376D02*
X030053Y012376D01*
X030118Y012475D02*
X029954Y012475D01*
X030020Y012573D02*
X029856Y012573D01*
X029921Y012672D02*
X029757Y012672D01*
X029823Y012770D02*
X029659Y012770D01*
X029724Y012869D02*
X029560Y012869D01*
X029626Y012968D02*
X029462Y012968D01*
X029527Y013066D02*
X029363Y013066D01*
X029429Y013165D02*
X029265Y013165D01*
X029330Y013263D02*
X029166Y013263D01*
X029232Y013362D02*
X029068Y013362D01*
X029133Y013460D02*
X028969Y013460D01*
X029034Y013559D02*
X028870Y013559D01*
X028936Y013657D02*
X028772Y013657D01*
X028837Y013756D02*
X028673Y013756D01*
X028739Y013854D02*
X028575Y013854D01*
X028640Y013953D02*
X028476Y013953D01*
X028542Y014052D02*
X028378Y014052D01*
X028443Y014150D02*
X028279Y014150D01*
X028345Y014249D02*
X028181Y014249D01*
X028246Y014347D02*
X028082Y014347D01*
X028148Y014446D02*
X027984Y014446D01*
X028049Y014544D02*
X027885Y014544D01*
X027951Y014643D02*
X027786Y014643D01*
X027852Y014741D02*
X027688Y014741D01*
X027753Y014840D02*
X027589Y014840D01*
X027655Y014938D02*
X027491Y014938D01*
X027556Y015037D02*
X027392Y015037D01*
X027458Y015136D02*
X027294Y015136D01*
X027359Y015234D02*
X027195Y015234D01*
X027261Y015333D02*
X027097Y015333D01*
X027162Y015431D02*
X026998Y015431D01*
X027064Y015530D02*
X026900Y015530D01*
X026965Y015628D02*
X026801Y015628D01*
X026867Y015727D02*
X026703Y015727D01*
X026768Y015825D02*
X026629Y015825D01*
X026627Y015924D02*
X026669Y015924D01*
X026504Y015530D02*
X024244Y015530D01*
X024343Y015628D02*
X026249Y015628D01*
X026135Y015727D02*
X024441Y015727D01*
X024540Y015825D02*
X026099Y015825D01*
X026101Y015924D02*
X024564Y015924D01*
X024564Y016022D02*
X026144Y016022D01*
X026138Y016121D02*
X024564Y016121D01*
X024564Y016219D02*
X026099Y016219D01*
X026099Y016320D02*
X026139Y016417D01*
X026270Y016515D02*
X024664Y016515D01*
X024689Y016614D02*
X026240Y016614D01*
X026141Y016712D02*
X024676Y016712D01*
X024615Y016811D02*
X026043Y016811D01*
X025944Y016909D02*
X023924Y016909D01*
X023924Y017008D02*
X024038Y017008D01*
X024170Y017008D02*
X025845Y017008D01*
X025747Y017106D02*
X024318Y017106D01*
X024365Y017205D02*
X025648Y017205D01*
X025550Y017303D02*
X024369Y017303D01*
X024335Y017402D02*
X025451Y017402D01*
X025353Y017501D02*
X025000Y017501D01*
X025129Y017599D02*
X025254Y017599D01*
X025595Y017895D02*
X027876Y017895D01*
X027778Y017993D02*
X025496Y017993D01*
X025397Y018092D02*
X027679Y018092D01*
X027581Y018190D02*
X025299Y018190D01*
X025693Y017796D02*
X027975Y017796D01*
X028073Y017698D02*
X025792Y017698D01*
X025890Y017599D02*
X028085Y017599D01*
X028079Y017615D02*
X028119Y017517D01*
X028194Y017443D01*
X028291Y017402D01*
X028397Y017402D01*
X028494Y017443D01*
X028569Y017517D01*
X028609Y017615D01*
X028609Y017720D01*
X028569Y017817D01*
X028494Y017892D01*
X028397Y017932D01*
X028319Y017932D01*
X026921Y019330D01*
X026822Y019430D01*
X026089Y019430D01*
X026034Y019485D01*
X025937Y019525D01*
X025831Y019525D01*
X025734Y019485D01*
X025659Y019410D01*
X025619Y019313D01*
X025619Y019207D01*
X025659Y019110D01*
X025734Y019035D01*
X025831Y018995D01*
X025937Y018995D01*
X026034Y019035D01*
X026089Y019090D01*
X026681Y019090D01*
X028079Y017692D01*
X028079Y017615D01*
X028136Y017501D02*
X025989Y017501D01*
X026087Y017402D02*
X029040Y017402D01*
X028942Y017501D02*
X028552Y017501D01*
X028602Y017599D02*
X028843Y017599D01*
X028745Y017698D02*
X028609Y017698D01*
X028577Y017796D02*
X028646Y017796D01*
X028547Y017895D02*
X028487Y017895D01*
X028449Y017993D02*
X028258Y017993D01*
X028350Y018092D02*
X028160Y018092D01*
X028252Y018190D02*
X028061Y018190D01*
X028153Y018289D02*
X027963Y018289D01*
X028055Y018387D02*
X027864Y018387D01*
X027956Y018486D02*
X027766Y018486D01*
X027858Y018585D02*
X027667Y018585D01*
X027759Y018683D02*
X027569Y018683D01*
X027661Y018782D02*
X027470Y018782D01*
X027562Y018880D02*
X027372Y018880D01*
X027464Y018979D02*
X027273Y018979D01*
X027365Y019077D02*
X027174Y019077D01*
X027266Y019176D02*
X027076Y019176D01*
X027168Y019274D02*
X026977Y019274D01*
X027069Y019373D02*
X026879Y019373D01*
X026971Y019471D02*
X026047Y019471D01*
X025721Y019471D02*
X023924Y019471D01*
X023924Y019373D02*
X025644Y019373D01*
X025619Y019274D02*
X024312Y019274D01*
X024362Y019176D02*
X025632Y019176D01*
X025692Y019077D02*
X024369Y019077D01*
X024337Y018979D02*
X026792Y018979D01*
X026694Y019077D02*
X026076Y019077D01*
X026891Y018880D02*
X024248Y018880D01*
X024244Y018782D02*
X026989Y018782D01*
X027088Y018683D02*
X024244Y018683D01*
X024244Y018585D02*
X027186Y018585D01*
X027285Y018486D02*
X024244Y018486D01*
X024244Y018387D02*
X027383Y018387D01*
X027482Y018289D02*
X024244Y018289D01*
X024244Y018190D02*
X024669Y018190D01*
X024570Y018092D02*
X024558Y018092D01*
X024450Y018092D02*
X024244Y018092D01*
X024244Y017993D02*
X024295Y017993D01*
X024244Y017895D02*
X024245Y017895D01*
X024244Y017698D02*
X024271Y017698D01*
X024244Y017599D02*
X024363Y017599D01*
X024244Y017501D02*
X024807Y017501D01*
X024679Y017599D02*
X024645Y017599D01*
X024233Y016811D02*
X024215Y016811D01*
X024146Y015431D02*
X026602Y015431D01*
X026701Y015333D02*
X024047Y015333D01*
X023949Y015234D02*
X026476Y015234D01*
X026425Y015136D02*
X023850Y015136D01*
X023751Y015037D02*
X026419Y015037D01*
X026451Y014938D02*
X023653Y014938D01*
X023554Y014840D02*
X026541Y014840D01*
X026949Y015037D02*
X026996Y015037D01*
X027763Y015727D02*
X027875Y015727D01*
X027986Y015825D02*
X027664Y015825D01*
X027565Y015924D02*
X030518Y015924D01*
X030420Y016022D02*
X027467Y016022D01*
X027368Y016121D02*
X030321Y016121D01*
X030223Y016219D02*
X027270Y016219D01*
X027171Y016318D02*
X030124Y016318D01*
X030026Y016417D02*
X027073Y016417D01*
X026974Y016515D02*
X029927Y016515D01*
X029829Y016614D02*
X026876Y016614D01*
X026777Y016712D02*
X029730Y016712D01*
X029631Y016811D02*
X026679Y016811D01*
X026580Y016909D02*
X029533Y016909D01*
X029434Y017008D02*
X026481Y017008D01*
X026383Y017106D02*
X029336Y017106D01*
X029237Y017205D02*
X026284Y017205D01*
X026186Y017303D02*
X029139Y017303D01*
X029664Y017796D02*
X036358Y017796D01*
X036361Y017801D02*
X036319Y017743D01*
X036287Y017680D01*
X036265Y017613D01*
X036256Y017557D01*
X036954Y017557D01*
X036954Y017457D01*
X037054Y017457D01*
X037054Y017057D01*
X037339Y017057D01*
X037409Y017068D01*
X037477Y017090D01*
X037540Y017123D01*
X037597Y017164D01*
X037647Y017214D01*
X037689Y017272D01*
X037721Y017335D01*
X037743Y017402D01*
X038254Y017402D01*
X038254Y017303D02*
X037705Y017303D01*
X037743Y017402D02*
X037752Y017457D01*
X037054Y017457D01*
X037054Y017557D01*
X037752Y017557D01*
X037743Y017613D01*
X037721Y017680D01*
X037689Y017743D01*
X037647Y017801D01*
X037597Y017851D01*
X037540Y017892D01*
X037477Y017924D01*
X037409Y017946D01*
X037339Y017957D01*
X037054Y017957D01*
X037054Y017558D01*
X036954Y017558D01*
X036954Y017957D01*
X036669Y017957D01*
X036599Y017946D01*
X036531Y017924D01*
X036468Y017892D01*
X036411Y017851D01*
X036361Y017801D01*
X036296Y017698D02*
X029763Y017698D01*
X029861Y017599D02*
X036263Y017599D01*
X036256Y017457D02*
X036265Y017402D01*
X030058Y017402D01*
X029960Y017501D02*
X036954Y017501D01*
X036954Y017457D02*
X036256Y017457D01*
X036265Y017402D02*
X036287Y017335D01*
X036319Y017272D01*
X036361Y017214D01*
X036411Y017164D01*
X036468Y017123D01*
X036531Y017090D01*
X036599Y017068D01*
X036669Y017057D01*
X036954Y017057D01*
X036954Y017457D01*
X036954Y017402D02*
X037054Y017402D01*
X037054Y017303D02*
X036954Y017303D01*
X036954Y017205D02*
X037054Y017205D01*
X037054Y017106D02*
X036954Y017106D01*
X036603Y016909D02*
X030551Y016909D01*
X030650Y016811D02*
X036427Y016811D01*
X036500Y017106D02*
X030354Y017106D01*
X030453Y017008D02*
X038254Y017008D01*
X038254Y017106D02*
X037508Y017106D01*
X037638Y017205D02*
X038254Y017205D01*
X038254Y017501D02*
X037054Y017501D01*
X037054Y017599D02*
X036954Y017599D01*
X036954Y017698D02*
X037054Y017698D01*
X037054Y017796D02*
X036954Y017796D01*
X036954Y017895D02*
X037054Y017895D01*
X037535Y017895D02*
X038254Y017895D01*
X038254Y017993D02*
X029467Y017993D01*
X029566Y017895D02*
X036473Y017895D01*
X036303Y017303D02*
X030157Y017303D01*
X030255Y017205D02*
X036370Y017205D01*
X037405Y016909D02*
X038254Y016909D01*
X038254Y016811D02*
X037580Y016811D01*
X037663Y016712D02*
X038254Y016712D01*
X038254Y016614D02*
X037704Y016614D01*
X037714Y016515D02*
X038254Y016515D01*
X038254Y016417D02*
X037710Y016417D01*
X037669Y016318D02*
X038254Y016318D01*
X038254Y016219D02*
X037596Y016219D01*
X037442Y016121D02*
X038254Y016121D01*
X038254Y016022D02*
X035764Y016022D01*
X035764Y015924D02*
X038254Y015924D01*
X038254Y015825D02*
X037566Y015825D01*
X037536Y015855D02*
X037385Y015917D01*
X036622Y015917D01*
X036472Y015855D01*
X036356Y015740D01*
X036294Y015589D01*
X036294Y015426D01*
X036356Y015275D01*
X036472Y015160D01*
X036622Y015097D01*
X037385Y015097D01*
X037536Y015160D01*
X037651Y015275D01*
X037714Y015426D01*
X037714Y015589D01*
X037651Y015740D01*
X037536Y015855D01*
X037657Y015727D02*
X038254Y015727D01*
X038254Y015628D02*
X037698Y015628D01*
X037714Y015530D02*
X038254Y015530D01*
X038254Y015431D02*
X037714Y015431D01*
X037675Y015333D02*
X038254Y015333D01*
X038254Y015234D02*
X037610Y015234D01*
X037477Y015136D02*
X038254Y015136D01*
X038254Y015037D02*
X036503Y015037D01*
X036530Y015136D02*
X036405Y015136D01*
X036397Y015234D02*
X036306Y015234D01*
X036333Y015333D02*
X036208Y015333D01*
X036294Y015431D02*
X036109Y015431D01*
X036011Y015530D02*
X036294Y015530D01*
X036310Y015628D02*
X035912Y015628D01*
X035814Y015727D02*
X036351Y015727D01*
X036442Y015825D02*
X035764Y015825D01*
X035755Y016121D02*
X036566Y016121D01*
X036412Y016219D02*
X035714Y016219D01*
X035044Y016022D02*
X035004Y016022D01*
X034994Y015924D02*
X035044Y015924D01*
X035044Y015825D02*
X034994Y015825D01*
X034994Y015727D02*
X035044Y015727D01*
X035044Y015628D02*
X034994Y015628D01*
X034994Y015530D02*
X035055Y015530D01*
X035096Y015431D02*
X034994Y015431D01*
X034994Y015333D02*
X035190Y015333D01*
X035288Y015234D02*
X034994Y015234D01*
X034994Y015136D02*
X035387Y015136D01*
X035485Y015037D02*
X034994Y015037D01*
X034994Y014938D02*
X035584Y014938D01*
X035682Y014840D02*
X034994Y014840D01*
X034994Y014741D02*
X035781Y014741D01*
X035879Y014643D02*
X034994Y014643D01*
X034994Y014544D02*
X035978Y014544D01*
X036076Y014446D02*
X034994Y014446D01*
X034994Y014347D02*
X036175Y014347D01*
X036274Y014249D02*
X034994Y014249D01*
X034994Y014150D02*
X036372Y014150D01*
X036471Y014052D02*
X034994Y014052D01*
X034994Y013953D02*
X036569Y013953D01*
X036668Y013854D02*
X034994Y013854D01*
X034994Y013756D02*
X036766Y013756D01*
X036865Y013657D02*
X034994Y013657D01*
X034994Y013559D02*
X036963Y013559D01*
X037062Y013460D02*
X034994Y013460D01*
X034994Y013362D02*
X037160Y013362D01*
X037259Y013263D02*
X034994Y013263D01*
X034994Y013165D02*
X037358Y013165D01*
X037456Y013066D02*
X034994Y013066D01*
X034994Y012968D02*
X035915Y012968D01*
X035929Y012974D02*
X035790Y012916D01*
X035684Y012810D01*
X035627Y012671D01*
X035627Y012521D01*
X035684Y012383D01*
X035790Y012277D01*
X035929Y012219D01*
X036079Y012219D01*
X036218Y012277D01*
X036324Y012383D01*
X036381Y012521D01*
X036381Y012671D01*
X036324Y012810D01*
X036218Y012916D01*
X036079Y012974D01*
X035929Y012974D01*
X036093Y012968D02*
X037524Y012968D01*
X037524Y012869D02*
X036265Y012869D01*
X036340Y012770D02*
X037524Y012770D01*
X037524Y012672D02*
X036381Y012672D01*
X036381Y012573D02*
X037524Y012573D01*
X037524Y012475D02*
X036362Y012475D01*
X036317Y012376D02*
X037524Y012376D01*
X037524Y012278D02*
X036219Y012278D01*
X035789Y012278D02*
X034994Y012278D01*
X034994Y012376D02*
X035691Y012376D01*
X035646Y012475D02*
X034994Y012475D01*
X034994Y012573D02*
X035627Y012573D01*
X035627Y012672D02*
X034994Y012672D01*
X034994Y012770D02*
X035668Y012770D01*
X035743Y012869D02*
X034994Y012869D01*
X034534Y012869D02*
X030860Y012869D01*
X030762Y012968D02*
X034534Y012968D01*
X034534Y013066D02*
X030663Y013066D01*
X030565Y013165D02*
X034534Y013165D01*
X034534Y013263D02*
X030466Y013263D01*
X030368Y013362D02*
X034534Y013362D01*
X034534Y013460D02*
X030269Y013460D01*
X030170Y013559D02*
X034534Y013559D01*
X034534Y013657D02*
X030072Y013657D01*
X029973Y013756D02*
X034534Y013756D01*
X034534Y013854D02*
X029875Y013854D01*
X029776Y013953D02*
X034534Y013953D01*
X034534Y014052D02*
X029678Y014052D01*
X029579Y014150D02*
X034534Y014150D01*
X034534Y014249D02*
X029481Y014249D01*
X029382Y014347D02*
X034534Y014347D01*
X034534Y014446D02*
X029284Y014446D01*
X029185Y014544D02*
X034534Y014544D01*
X034534Y014643D02*
X029086Y014643D01*
X028988Y014741D02*
X034534Y014741D01*
X034534Y014840D02*
X028889Y014840D01*
X028791Y014938D02*
X034534Y014938D01*
X034534Y015037D02*
X031659Y015037D01*
X031821Y015136D02*
X034534Y015136D01*
X034534Y015234D02*
X031890Y015234D01*
X031924Y015333D02*
X034534Y015333D01*
X034534Y015431D02*
X031924Y015431D01*
X031895Y015530D02*
X034534Y015530D01*
X034534Y015628D02*
X031832Y015628D01*
X031734Y015727D02*
X034534Y015727D01*
X034534Y015825D02*
X031635Y015825D01*
X031537Y015924D02*
X034534Y015924D01*
X034534Y016022D02*
X031438Y016022D01*
X031339Y016121D02*
X034534Y016121D01*
X034551Y016219D02*
X031241Y016219D01*
X031142Y016318D02*
X034649Y016318D01*
X034748Y016417D02*
X031044Y016417D01*
X030945Y016515D02*
X034846Y016515D01*
X034945Y016614D02*
X030847Y016614D01*
X030748Y016712D02*
X035044Y016712D01*
X036602Y014938D02*
X038254Y014938D01*
X038254Y014840D02*
X036701Y014840D01*
X036799Y014741D02*
X038254Y014741D01*
X038254Y014643D02*
X036898Y014643D01*
X036996Y014544D02*
X038254Y014544D01*
X038254Y014446D02*
X037095Y014446D01*
X037193Y014347D02*
X038254Y014347D01*
X038254Y014249D02*
X037292Y014249D01*
X037390Y014150D02*
X038254Y014150D01*
X038254Y014052D02*
X037489Y014052D01*
X037587Y013953D02*
X038254Y013953D01*
X038254Y013854D02*
X037686Y013854D01*
X037784Y013756D02*
X038254Y013756D01*
X038254Y013657D02*
X037883Y013657D01*
X037982Y013559D02*
X038254Y013559D01*
X038254Y013460D02*
X038080Y013460D01*
X038179Y013362D02*
X038254Y013362D01*
X038254Y013263D02*
X038226Y013263D01*
X038244Y013165D02*
X038254Y013165D01*
X038244Y013066D02*
X038254Y013066D01*
X038244Y012968D02*
X038254Y012968D01*
X038244Y012869D02*
X038254Y012869D01*
X038244Y012770D02*
X038254Y012770D01*
X038244Y012672D02*
X038254Y012672D01*
X038244Y012573D02*
X038254Y012573D01*
X038244Y012475D02*
X038254Y012475D01*
X038244Y012376D02*
X038254Y012376D01*
X038244Y012278D02*
X038254Y012278D01*
X038244Y012179D02*
X038254Y012179D01*
X038244Y012081D02*
X038254Y012081D01*
X038244Y011982D02*
X038254Y011982D01*
X038244Y011884D02*
X038254Y011884D01*
X038244Y011785D02*
X038254Y011785D01*
X038244Y011686D02*
X038254Y011686D01*
X038244Y011588D02*
X038254Y011588D01*
X038244Y011489D02*
X038254Y011489D01*
X038244Y011391D02*
X038254Y011391D01*
X038244Y011292D02*
X038254Y011292D01*
X038244Y011194D02*
X038254Y011194D01*
X038244Y011095D02*
X038254Y011095D01*
X038244Y010997D02*
X038254Y010997D01*
X038244Y010898D02*
X038254Y010898D01*
X038244Y010800D02*
X038254Y010800D01*
X038244Y010701D02*
X038254Y010701D01*
X038244Y010603D02*
X038254Y010603D01*
X038244Y010504D02*
X038254Y010504D01*
X038244Y010405D02*
X038254Y010405D01*
X038244Y010307D02*
X038254Y010307D01*
X038244Y010208D02*
X038254Y010208D01*
X038244Y010110D02*
X038254Y010110D01*
X038244Y010011D02*
X038254Y010011D01*
X038244Y009913D02*
X038254Y009913D01*
X038244Y009814D02*
X038254Y009814D01*
X038244Y009716D02*
X038254Y009716D01*
X038244Y009617D02*
X038254Y009617D01*
X038244Y009519D02*
X038254Y009519D01*
X038244Y009420D02*
X038254Y009420D01*
X038244Y009321D02*
X038254Y009321D01*
X038244Y009223D02*
X038254Y009223D01*
X038244Y009124D02*
X038254Y009124D01*
X038244Y009026D02*
X038254Y009026D01*
X038244Y008927D02*
X038254Y008927D01*
X038244Y008829D02*
X038254Y008829D01*
X038244Y008730D02*
X038254Y008730D01*
X038244Y008632D02*
X038254Y008632D01*
X038244Y008533D02*
X038254Y008533D01*
X038244Y008435D02*
X038254Y008435D01*
X038254Y008336D02*
X038219Y008336D01*
X038254Y008237D02*
X038163Y008237D01*
X038254Y008139D02*
X038032Y008139D01*
X038254Y008040D02*
X037454Y008040D01*
X037454Y007942D02*
X038254Y007942D01*
X038254Y007843D02*
X037454Y007843D01*
X037454Y007745D02*
X038254Y007745D01*
X038254Y007646D02*
X037454Y007646D01*
X037454Y007548D02*
X038254Y007548D01*
X038254Y007449D02*
X037454Y007449D01*
X037454Y007351D02*
X038254Y007351D01*
X038254Y007252D02*
X037454Y007252D01*
X037454Y007154D02*
X038254Y007154D01*
X038254Y007055D02*
X037454Y007055D01*
X037454Y006956D02*
X038254Y006956D01*
X038254Y006858D02*
X037454Y006858D01*
X037454Y006759D02*
X038254Y006759D01*
X038254Y006661D02*
X037444Y006661D01*
X037397Y006562D02*
X038254Y006562D01*
X038254Y006464D02*
X037269Y006464D01*
X037165Y006365D02*
X038254Y006365D01*
X038254Y006267D02*
X037066Y006267D01*
X036918Y006168D02*
X038254Y006168D01*
X038254Y006070D02*
X036819Y006070D01*
X036756Y005971D02*
X038254Y005971D01*
X038254Y005872D02*
X036672Y005872D01*
X036573Y005774D02*
X038254Y005774D01*
X038254Y005675D02*
X036475Y005675D01*
X036409Y005577D02*
X038254Y005577D01*
X038249Y005478D02*
X036304Y005478D01*
X035670Y004887D02*
X037883Y004887D01*
X038016Y004986D02*
X034646Y004986D01*
X033623Y005084D02*
X038091Y005084D01*
X038163Y005183D02*
X032414Y005183D01*
X032522Y006457D02*
X032054Y006457D01*
X032054Y006557D01*
X032522Y006557D01*
X032954Y006557D01*
X032954Y006457D01*
X032522Y006457D01*
X032954Y006464D02*
X032054Y006464D01*
X031954Y006464D02*
X031054Y006464D01*
X031054Y006457D02*
X031054Y006557D01*
X031522Y006557D01*
X031954Y006557D01*
X031954Y006457D01*
X031522Y006457D01*
X031054Y006457D01*
X030954Y006457D02*
X030522Y006457D01*
X030054Y006457D01*
X030054Y006557D01*
X030522Y006557D01*
X030954Y006557D01*
X030954Y006457D01*
X030954Y006464D02*
X030054Y006464D01*
X029954Y006464D02*
X029054Y006464D01*
X029054Y006457D02*
X029054Y006557D01*
X029522Y006557D01*
X029954Y006557D01*
X029954Y006457D01*
X029522Y006457D01*
X029054Y006457D01*
X028954Y006457D02*
X028522Y006457D01*
X028054Y006457D01*
X028054Y006557D01*
X028522Y006557D01*
X028954Y006557D01*
X028954Y006457D01*
X028954Y006464D02*
X028054Y006464D01*
X027954Y006464D02*
X027054Y006464D01*
X027054Y006457D02*
X027054Y006557D01*
X027485Y006557D01*
X027954Y006557D01*
X027954Y006457D01*
X027485Y006457D01*
X027054Y006457D01*
X026954Y006457D02*
X026522Y006457D01*
X026054Y006457D01*
X026054Y006557D01*
X026522Y006557D01*
X026954Y006557D01*
X026954Y006457D01*
X026954Y006464D02*
X026054Y006464D01*
X025954Y006464D02*
X025054Y006464D01*
X025054Y006457D02*
X025054Y006557D01*
X025522Y006557D01*
X025954Y006557D01*
X025954Y006457D01*
X025522Y006457D01*
X025054Y006457D01*
X024954Y006457D02*
X024522Y006457D01*
X024054Y006457D01*
X024054Y006557D01*
X024522Y006557D01*
X024954Y006557D01*
X024954Y006457D01*
X024954Y006464D02*
X024054Y006464D01*
X023954Y006464D02*
X023054Y006464D01*
X023054Y006457D02*
X023054Y006557D01*
X023522Y006557D01*
X023954Y006557D01*
X023954Y006457D01*
X023522Y006457D01*
X023054Y006457D01*
X022954Y006457D02*
X022522Y006457D01*
X022054Y006457D01*
X022054Y006557D01*
X022522Y006557D01*
X022954Y006557D01*
X022954Y006457D01*
X022954Y006464D02*
X022054Y006464D01*
X021954Y006464D02*
X021054Y006464D01*
X021054Y006457D02*
X021054Y006557D01*
X021522Y006557D01*
X021954Y006557D01*
X021954Y006457D01*
X021522Y006457D01*
X021054Y006457D01*
X020954Y006464D02*
X020386Y006464D01*
X020334Y006562D02*
X020486Y006562D01*
X020507Y006661D02*
X020334Y006661D01*
X020334Y006759D02*
X020549Y006759D01*
X020619Y006858D02*
X020297Y006858D01*
X020213Y006956D02*
X020740Y006956D01*
X020816Y007055D02*
X020115Y007055D01*
X020016Y007154D02*
X020665Y007154D01*
X020579Y007252D02*
X019918Y007252D01*
X019819Y007351D02*
X020539Y007351D01*
X020514Y007449D02*
X019721Y007449D01*
X018877Y008040D02*
X018735Y008040D01*
X018536Y008237D02*
X018412Y008237D01*
X018452Y008336D02*
X018555Y008336D01*
X018524Y008435D02*
X018484Y008435D01*
X018484Y008533D02*
X018524Y008533D01*
X018536Y008632D02*
X018472Y008632D01*
X018431Y008730D02*
X018577Y008730D01*
X018646Y008829D02*
X018361Y008829D01*
X018244Y008927D02*
X018763Y008927D01*
X017763Y008927D02*
X017244Y008927D01*
X017361Y008829D02*
X017646Y008829D01*
X017577Y008730D02*
X017431Y008730D01*
X017472Y008632D02*
X017536Y008632D01*
X017524Y008533D02*
X017484Y008533D01*
X017484Y008435D02*
X017524Y008435D01*
X017555Y008336D02*
X017452Y008336D01*
X017412Y008237D02*
X017596Y008237D01*
X020485Y006365D02*
X020503Y006365D01*
X021131Y008040D02*
X021877Y008040D01*
X021694Y008139D02*
X021314Y008139D01*
X021412Y008237D02*
X021596Y008237D01*
X021555Y008336D02*
X021452Y008336D01*
X021484Y008435D02*
X021524Y008435D01*
X021524Y008533D02*
X021484Y008533D01*
X021472Y008632D02*
X021536Y008632D01*
X021577Y008730D02*
X021431Y008730D01*
X021523Y008829D02*
X021646Y008829D01*
X021622Y008927D02*
X021763Y008927D01*
X022431Y008730D02*
X022577Y008730D01*
X022536Y008632D02*
X022472Y008632D01*
X022484Y008533D02*
X022524Y008533D01*
X022524Y008435D02*
X022484Y008435D01*
X022452Y008336D02*
X022555Y008336D01*
X022596Y008237D02*
X022412Y008237D01*
X022314Y008139D02*
X022694Y008139D01*
X022877Y008040D02*
X022131Y008040D01*
X023844Y010701D02*
X027656Y010701D01*
X027605Y010800D02*
X023844Y010800D01*
X023844Y010898D02*
X027599Y010898D01*
X027537Y010997D02*
X023844Y010997D01*
X023844Y011095D02*
X027438Y011095D01*
X027340Y011194D02*
X023844Y011194D01*
X023844Y011292D02*
X027241Y011292D01*
X027142Y011391D02*
X023844Y011391D01*
X023844Y011489D02*
X027044Y011489D01*
X026945Y011588D02*
X023844Y011588D01*
X023844Y011686D02*
X026847Y011686D01*
X026748Y011785D02*
X023844Y011785D01*
X023844Y011884D02*
X026650Y011884D01*
X026551Y011982D02*
X023844Y011982D01*
X023844Y012081D02*
X026453Y012081D01*
X026354Y012179D02*
X023844Y012179D01*
X023844Y012278D02*
X026256Y012278D01*
X026157Y012376D02*
X023844Y012376D01*
X023844Y012475D02*
X026058Y012475D01*
X025960Y012573D02*
X023844Y012573D01*
X023844Y012672D02*
X025861Y012672D01*
X025763Y012770D02*
X023844Y012770D01*
X023844Y012869D02*
X025664Y012869D01*
X025566Y012968D02*
X023844Y012968D01*
X023844Y013066D02*
X025467Y013066D01*
X025369Y013165D02*
X023844Y013165D01*
X023844Y013263D02*
X025270Y013263D01*
X025172Y013362D02*
X023844Y013362D01*
X023844Y013460D02*
X025073Y013460D01*
X024974Y013559D02*
X023844Y013559D01*
X023844Y013657D02*
X024876Y013657D01*
X024777Y013756D02*
X023844Y013756D01*
X023844Y013854D02*
X024679Y013854D01*
X024580Y013953D02*
X023844Y013953D01*
X023844Y014052D02*
X024482Y014052D01*
X024383Y014150D02*
X023921Y014150D01*
X023966Y014249D02*
X024285Y014249D01*
X024186Y014347D02*
X023969Y014347D01*
X023933Y014446D02*
X024088Y014446D01*
X026574Y014052D02*
X027502Y014052D01*
X027600Y013953D02*
X026659Y013953D01*
X026689Y013854D02*
X026796Y013854D01*
X026734Y013756D02*
X026681Y013756D01*
X026719Y013657D02*
X026629Y013657D01*
X026693Y013559D02*
X026742Y013559D01*
X026791Y013460D02*
X026816Y013460D01*
X026890Y013362D02*
X028106Y013362D01*
X028093Y013460D02*
X027792Y013460D01*
X027866Y013559D02*
X027995Y013559D01*
X027896Y013657D02*
X027889Y013657D01*
X027456Y013460D02*
X027152Y013460D01*
X026989Y013263D02*
X027965Y013263D01*
X027921Y013165D02*
X027087Y013165D01*
X027186Y013066D02*
X027902Y013066D01*
X028087Y012770D02*
X028783Y012770D01*
X028684Y012869D02*
X028301Y012869D01*
X028413Y012968D02*
X028586Y012968D01*
X028487Y013066D02*
X028449Y013066D01*
X027436Y013854D02*
X027172Y013854D01*
X028692Y015037D02*
X031469Y015037D01*
X031307Y015136D02*
X028594Y015136D01*
X028495Y015234D02*
X031208Y015234D01*
X031110Y015333D02*
X028397Y015333D01*
X028322Y015431D02*
X031011Y015431D01*
X030913Y015530D02*
X028367Y015530D01*
X028369Y015628D02*
X030814Y015628D01*
X030715Y015727D02*
X028333Y015727D01*
X028222Y015825D02*
X030617Y015825D01*
X029369Y018092D02*
X038254Y018092D01*
X038254Y018190D02*
X029270Y018190D01*
X029171Y018289D02*
X038254Y018289D01*
X038254Y018387D02*
X029073Y018387D01*
X028974Y018486D02*
X038254Y018486D01*
X038254Y018585D02*
X028876Y018585D01*
X028777Y018683D02*
X038254Y018683D01*
X038254Y018782D02*
X028679Y018782D01*
X028580Y018880D02*
X038254Y018880D01*
X038254Y018979D02*
X028482Y018979D01*
X028383Y019077D02*
X038254Y019077D01*
X038254Y019176D02*
X028285Y019176D01*
X028186Y019274D02*
X038254Y019274D01*
X038254Y019373D02*
X028088Y019373D01*
X027989Y019471D02*
X038254Y019471D01*
X038254Y019570D02*
X027890Y019570D01*
X027792Y019669D02*
X038254Y019669D01*
X038254Y019767D02*
X027693Y019767D01*
X027595Y019866D02*
X038254Y019866D01*
X038254Y019964D02*
X027496Y019964D01*
X027398Y020063D02*
X038254Y020063D01*
X038254Y020161D02*
X027299Y020161D01*
X027201Y020260D02*
X038254Y020260D01*
X038254Y020358D02*
X027102Y020358D01*
X027004Y020457D02*
X038254Y020457D01*
X038254Y020555D02*
X026905Y020555D01*
X026806Y020654D02*
X038254Y020654D01*
X038254Y020752D02*
X026708Y020752D01*
X026609Y020851D02*
X038254Y020851D01*
X038254Y020950D02*
X026511Y020950D01*
X026412Y021048D02*
X038254Y021048D01*
X038254Y021147D02*
X026314Y021147D01*
X026215Y021245D02*
X038254Y021245D01*
X038254Y021344D02*
X026117Y021344D01*
X026018Y021442D02*
X038254Y021442D01*
X038254Y021541D02*
X025920Y021541D01*
X025821Y021639D02*
X038254Y021639D01*
X038254Y021738D02*
X025722Y021738D01*
X025624Y021836D02*
X038254Y021836D01*
X038254Y021935D02*
X025525Y021935D01*
X025427Y022034D02*
X038254Y022034D01*
X038254Y022132D02*
X025328Y022132D01*
X025230Y022231D02*
X038254Y022231D01*
X038254Y022329D02*
X025131Y022329D01*
X025033Y022428D02*
X038254Y022428D01*
X038254Y022526D02*
X024934Y022526D01*
X024836Y022625D02*
X038254Y022625D01*
X038254Y022723D02*
X024737Y022723D01*
X024639Y022822D02*
X038254Y022822D01*
X038254Y022920D02*
X024540Y022920D01*
X024441Y023019D02*
X038254Y023019D01*
X038254Y023118D02*
X024343Y023118D01*
X024244Y023216D02*
X038254Y023216D01*
X038254Y023315D02*
X024146Y023315D01*
X024047Y023413D02*
X038254Y023413D01*
X038254Y023512D02*
X023949Y023512D01*
X023850Y023610D02*
X038254Y023610D01*
X038254Y023709D02*
X023752Y023709D01*
X023653Y023807D02*
X038254Y023807D01*
X038254Y023906D02*
X023479Y023906D01*
X023278Y024103D02*
X023730Y024103D01*
X023732Y024100D02*
X023908Y024027D01*
X024099Y024027D01*
X024276Y024100D01*
X024411Y024235D01*
X024484Y024412D01*
X024484Y024603D01*
X024411Y024779D01*
X024276Y024914D01*
X024099Y024987D01*
X023908Y024987D01*
X023732Y024914D01*
X023597Y024779D01*
X023524Y024603D01*
X023524Y024412D01*
X023597Y024235D01*
X023732Y024100D01*
X023631Y024201D02*
X023377Y024201D01*
X023411Y024235D02*
X023484Y024412D01*
X023484Y024603D01*
X023411Y024779D01*
X023276Y024914D01*
X023099Y024987D01*
X022908Y024987D01*
X022732Y024914D01*
X022597Y024779D01*
X022524Y024603D01*
X022524Y024412D01*
X022597Y024235D01*
X022732Y024100D01*
X022908Y024027D01*
X023099Y024027D01*
X023276Y024100D01*
X023411Y024235D01*
X023438Y024300D02*
X023570Y024300D01*
X023529Y024399D02*
X023478Y024399D01*
X023484Y024497D02*
X023524Y024497D01*
X023524Y024596D02*
X023484Y024596D01*
X023446Y024694D02*
X023562Y024694D01*
X023610Y024793D02*
X023397Y024793D01*
X023299Y024891D02*
X023709Y024891D01*
X024299Y024891D02*
X024709Y024891D01*
X024732Y024914D02*
X024597Y024779D01*
X024524Y024603D01*
X024524Y024412D01*
X024597Y024235D01*
X024732Y024100D01*
X024908Y024027D01*
X025099Y024027D01*
X025276Y024100D01*
X025411Y024235D01*
X025484Y024412D01*
X025484Y024603D01*
X025411Y024779D01*
X025276Y024914D01*
X025099Y024987D01*
X024908Y024987D01*
X024732Y024914D01*
X024610Y024793D02*
X024397Y024793D01*
X024446Y024694D02*
X024562Y024694D01*
X024524Y024596D02*
X024484Y024596D01*
X024484Y024497D02*
X024524Y024497D01*
X024529Y024399D02*
X024478Y024399D01*
X024438Y024300D02*
X024570Y024300D01*
X024631Y024201D02*
X024377Y024201D01*
X024278Y024103D02*
X024730Y024103D01*
X025278Y024103D02*
X025730Y024103D01*
X025732Y024100D02*
X025908Y024027D01*
X026099Y024027D01*
X026276Y024100D01*
X026411Y024235D01*
X026484Y024412D01*
X026484Y024603D01*
X026411Y024779D01*
X026276Y024914D01*
X026099Y024987D01*
X025908Y024987D01*
X025732Y024914D01*
X025597Y024779D01*
X025524Y024603D01*
X025524Y024412D01*
X025597Y024235D01*
X025732Y024100D01*
X025631Y024201D02*
X025377Y024201D01*
X025438Y024300D02*
X025570Y024300D01*
X025529Y024399D02*
X025478Y024399D01*
X025484Y024497D02*
X025524Y024497D01*
X025524Y024596D02*
X025484Y024596D01*
X025446Y024694D02*
X025562Y024694D01*
X025610Y024793D02*
X025397Y024793D01*
X025299Y024891D02*
X025709Y024891D01*
X026299Y024891D02*
X026709Y024891D01*
X026732Y024914D02*
X026597Y024779D01*
X026524Y024603D01*
X026524Y024412D01*
X026597Y024235D01*
X026732Y024100D01*
X026908Y024027D01*
X027099Y024027D01*
X027276Y024100D01*
X027411Y024235D01*
X027484Y024412D01*
X027484Y024603D01*
X027411Y024779D01*
X027276Y024914D01*
X027099Y024987D01*
X026908Y024987D01*
X026732Y024914D01*
X026610Y024793D02*
X026397Y024793D01*
X026446Y024694D02*
X026562Y024694D01*
X026524Y024596D02*
X026484Y024596D01*
X026484Y024497D02*
X026524Y024497D01*
X026529Y024399D02*
X026478Y024399D01*
X026438Y024300D02*
X026570Y024300D01*
X026631Y024201D02*
X026377Y024201D01*
X026278Y024103D02*
X026730Y024103D01*
X027278Y024103D02*
X027730Y024103D01*
X027732Y024100D02*
X027908Y024027D01*
X028099Y024027D01*
X028276Y024100D01*
X028411Y024235D01*
X028484Y024412D01*
X028484Y024603D01*
X028411Y024779D01*
X028276Y024914D01*
X028099Y024987D01*
X027908Y024987D01*
X027732Y024914D01*
X027597Y024779D01*
X027524Y024603D01*
X027524Y024412D01*
X027597Y024235D01*
X027732Y024100D01*
X027631Y024201D02*
X027377Y024201D01*
X027438Y024300D02*
X027570Y024300D01*
X027529Y024399D02*
X027478Y024399D01*
X027484Y024497D02*
X027524Y024497D01*
X027524Y024596D02*
X027484Y024596D01*
X027446Y024694D02*
X027562Y024694D01*
X027610Y024793D02*
X027397Y024793D01*
X027299Y024891D02*
X027709Y024891D01*
X028299Y024891D02*
X028709Y024891D01*
X028732Y024914D02*
X028597Y024779D01*
X028524Y024603D01*
X028524Y024412D01*
X028597Y024235D01*
X028732Y024100D01*
X028908Y024027D01*
X029099Y024027D01*
X029276Y024100D01*
X029411Y024235D01*
X029484Y024412D01*
X029484Y024603D01*
X029411Y024779D01*
X029276Y024914D01*
X029099Y024987D01*
X028908Y024987D01*
X028732Y024914D01*
X028610Y024793D02*
X028397Y024793D01*
X028446Y024694D02*
X028562Y024694D01*
X028524Y024596D02*
X028484Y024596D01*
X028484Y024497D02*
X028524Y024497D01*
X028529Y024399D02*
X028478Y024399D01*
X028438Y024300D02*
X028570Y024300D01*
X028631Y024201D02*
X028377Y024201D01*
X028278Y024103D02*
X028730Y024103D01*
X029278Y024103D02*
X029730Y024103D01*
X029732Y024100D02*
X029908Y024027D01*
X030099Y024027D01*
X030276Y024100D01*
X030411Y024235D01*
X030484Y024412D01*
X030484Y024603D01*
X030411Y024779D01*
X030276Y024914D01*
X030099Y024987D01*
X029908Y024987D01*
X029732Y024914D01*
X029597Y024779D01*
X029524Y024603D01*
X029524Y024412D01*
X029597Y024235D01*
X029732Y024100D01*
X029631Y024201D02*
X029377Y024201D01*
X029438Y024300D02*
X029570Y024300D01*
X029529Y024399D02*
X029478Y024399D01*
X029484Y024497D02*
X029524Y024497D01*
X029524Y024596D02*
X029484Y024596D01*
X029446Y024694D02*
X029562Y024694D01*
X029610Y024793D02*
X029397Y024793D01*
X029299Y024891D02*
X029709Y024891D01*
X030299Y024891D02*
X030709Y024891D01*
X030732Y024914D02*
X030597Y024779D01*
X030524Y024603D01*
X030524Y024412D01*
X030597Y024235D01*
X030732Y024100D01*
X030908Y024027D01*
X031099Y024027D01*
X031276Y024100D01*
X031411Y024235D01*
X031484Y024412D01*
X031484Y024603D01*
X031411Y024779D01*
X031276Y024914D01*
X031099Y024987D01*
X030908Y024987D01*
X030732Y024914D01*
X030610Y024793D02*
X030397Y024793D01*
X030446Y024694D02*
X030562Y024694D01*
X030524Y024596D02*
X030484Y024596D01*
X030484Y024497D02*
X030524Y024497D01*
X030529Y024399D02*
X030478Y024399D01*
X030438Y024300D02*
X030570Y024300D01*
X030631Y024201D02*
X030377Y024201D01*
X030278Y024103D02*
X030730Y024103D01*
X031278Y024103D02*
X031730Y024103D01*
X031732Y024100D02*
X031908Y024027D01*
X032099Y024027D01*
X032276Y024100D01*
X032411Y024235D01*
X032484Y024412D01*
X032484Y024603D01*
X032411Y024779D01*
X032276Y024914D01*
X032099Y024987D01*
X031908Y024987D01*
X031732Y024914D01*
X031597Y024779D01*
X031524Y024603D01*
X031524Y024412D01*
X031597Y024235D01*
X031732Y024100D01*
X031631Y024201D02*
X031377Y024201D01*
X031438Y024300D02*
X031570Y024300D01*
X031529Y024399D02*
X031478Y024399D01*
X031484Y024497D02*
X031524Y024497D01*
X031524Y024596D02*
X031484Y024596D01*
X031446Y024694D02*
X031562Y024694D01*
X031610Y024793D02*
X031397Y024793D01*
X031299Y024891D02*
X031709Y024891D01*
X032299Y024891D02*
X032709Y024891D01*
X032732Y024914D02*
X032597Y024779D01*
X032524Y024603D01*
X032524Y024412D01*
X032597Y024235D01*
X032732Y024100D01*
X032908Y024027D01*
X033099Y024027D01*
X033276Y024100D01*
X033411Y024235D01*
X033484Y024412D01*
X033484Y024603D01*
X033411Y024779D01*
X033276Y024914D01*
X033099Y024987D01*
X032908Y024987D01*
X032732Y024914D01*
X032610Y024793D02*
X032397Y024793D01*
X032446Y024694D02*
X032562Y024694D01*
X032524Y024596D02*
X032484Y024596D01*
X032484Y024497D02*
X032524Y024497D01*
X032529Y024399D02*
X032478Y024399D01*
X032438Y024300D02*
X032570Y024300D01*
X032631Y024201D02*
X032377Y024201D01*
X032278Y024103D02*
X032730Y024103D01*
X033278Y024103D02*
X033730Y024103D01*
X033732Y024100D02*
X033908Y024027D01*
X034099Y024027D01*
X034276Y024100D01*
X034411Y024235D01*
X034484Y024412D01*
X034484Y024603D01*
X034411Y024779D01*
X034276Y024914D01*
X034099Y024987D01*
X033908Y024987D01*
X033732Y024914D01*
X033597Y024779D01*
X033524Y024603D01*
X033524Y024412D01*
X033597Y024235D01*
X033732Y024100D01*
X033631Y024201D02*
X033377Y024201D01*
X033438Y024300D02*
X033570Y024300D01*
X033529Y024399D02*
X033478Y024399D01*
X033484Y024497D02*
X033524Y024497D01*
X033524Y024596D02*
X033484Y024596D01*
X033446Y024694D02*
X033562Y024694D01*
X033610Y024793D02*
X033397Y024793D01*
X033299Y024891D02*
X033709Y024891D01*
X034299Y024891D02*
X034709Y024891D01*
X034732Y024914D02*
X034597Y024779D01*
X034524Y024603D01*
X034524Y024412D01*
X034597Y024235D01*
X034732Y024100D01*
X034908Y024027D01*
X035099Y024027D01*
X035276Y024100D01*
X035411Y024235D01*
X035484Y024412D01*
X035484Y024603D01*
X035411Y024779D01*
X035276Y024914D01*
X035099Y024987D01*
X034908Y024987D01*
X034732Y024914D01*
X034610Y024793D02*
X034397Y024793D01*
X034446Y024694D02*
X034562Y024694D01*
X034524Y024596D02*
X034484Y024596D01*
X034484Y024497D02*
X034524Y024497D01*
X034529Y024399D02*
X034478Y024399D01*
X034438Y024300D02*
X034570Y024300D01*
X034631Y024201D02*
X034377Y024201D01*
X034278Y024103D02*
X034730Y024103D01*
X035278Y024103D02*
X035730Y024103D01*
X035732Y024100D02*
X035908Y024027D01*
X036099Y024027D01*
X036276Y024100D01*
X036411Y024235D01*
X036484Y024412D01*
X036484Y024603D01*
X036411Y024779D01*
X036276Y024914D01*
X036099Y024987D01*
X035908Y024987D01*
X035732Y024914D01*
X035597Y024779D01*
X035524Y024603D01*
X035524Y024412D01*
X035597Y024235D01*
X035732Y024100D01*
X035631Y024201D02*
X035377Y024201D01*
X035438Y024300D02*
X035570Y024300D01*
X035529Y024399D02*
X035478Y024399D01*
X035484Y024497D02*
X035524Y024497D01*
X035524Y024596D02*
X035484Y024596D01*
X035446Y024694D02*
X035562Y024694D01*
X035610Y024793D02*
X035397Y024793D01*
X035299Y024891D02*
X035709Y024891D01*
X036299Y024891D02*
X036709Y024891D01*
X036732Y024914D02*
X036597Y024779D01*
X036524Y024603D01*
X036524Y024412D01*
X036597Y024235D01*
X036732Y024100D01*
X036908Y024027D01*
X037099Y024027D01*
X037276Y024100D01*
X037411Y024235D01*
X037484Y024412D01*
X037484Y024603D01*
X037411Y024779D01*
X037276Y024914D01*
X037099Y024987D01*
X036908Y024987D01*
X036732Y024914D01*
X036610Y024793D02*
X036397Y024793D01*
X036446Y024694D02*
X036562Y024694D01*
X036524Y024596D02*
X036484Y024596D01*
X036484Y024497D02*
X036524Y024497D01*
X036529Y024399D02*
X036478Y024399D01*
X036438Y024300D02*
X036570Y024300D01*
X036631Y024201D02*
X036377Y024201D01*
X036278Y024103D02*
X036730Y024103D01*
X037278Y024103D02*
X038254Y024103D01*
X038254Y024201D02*
X037377Y024201D01*
X037438Y024300D02*
X038254Y024300D01*
X038254Y024399D02*
X037478Y024399D01*
X037484Y024497D02*
X038254Y024497D01*
X038254Y024596D02*
X037484Y024596D01*
X037446Y024694D02*
X038254Y024694D01*
X038254Y024793D02*
X037397Y024793D01*
X037299Y024891D02*
X038254Y024891D01*
X038254Y024990D02*
X020875Y024990D01*
X021247Y025088D02*
X021735Y025088D01*
X021726Y025092D02*
X021906Y025017D01*
X037101Y025017D01*
X037281Y025092D01*
X037419Y025230D01*
X037494Y025410D01*
X037494Y025605D01*
X037419Y025785D01*
X037281Y025923D01*
X037103Y025997D01*
X037126Y026000D01*
X037204Y026026D01*
X037276Y026063D01*
X037343Y026111D01*
X037401Y026169D01*
X037449Y026235D01*
X037486Y026308D01*
X037511Y026386D01*
X037522Y026457D01*
X037054Y026457D01*
X037054Y026557D01*
X037522Y026557D01*
X037511Y026629D01*
X037486Y026707D01*
X037449Y026780D01*
X037401Y026846D01*
X037343Y026904D01*
X037276Y026952D01*
X037204Y026989D01*
X037126Y027015D01*
X037054Y027026D01*
X037054Y026558D01*
X036954Y026558D01*
X036954Y027026D01*
X036882Y027015D01*
X036804Y026989D01*
X036731Y026952D01*
X036665Y026904D01*
X036607Y026846D01*
X036559Y026780D01*
X036522Y026707D01*
X036504Y026651D01*
X036486Y026707D01*
X036449Y026780D01*
X036401Y026846D01*
X036343Y026904D01*
X036276Y026952D01*
X036204Y026989D01*
X036126Y027015D01*
X036054Y027026D01*
X036054Y026558D01*
X035954Y026558D01*
X035954Y027026D01*
X035882Y027015D01*
X035804Y026989D01*
X035731Y026952D01*
X035665Y026904D01*
X035607Y026846D01*
X035559Y026780D01*
X035522Y026707D01*
X035504Y026651D01*
X035486Y026707D01*
X035449Y026780D01*
X035401Y026846D01*
X035343Y026904D01*
X035276Y026952D01*
X035204Y026989D01*
X035126Y027015D01*
X035054Y027026D01*
X035054Y026558D01*
X034954Y026558D01*
X034954Y027026D01*
X034882Y027015D01*
X034804Y026989D01*
X034731Y026952D01*
X034665Y026904D01*
X034607Y026846D01*
X034559Y026780D01*
X034522Y026707D01*
X034504Y026651D01*
X034486Y026707D01*
X034449Y026780D01*
X034401Y026846D01*
X034343Y026904D01*
X034276Y026952D01*
X034204Y026989D01*
X034126Y027015D01*
X034054Y027026D01*
X034054Y026558D01*
X033954Y026558D01*
X033954Y027026D01*
X033882Y027015D01*
X033804Y026989D01*
X033731Y026952D01*
X033665Y026904D01*
X033607Y026846D01*
X033559Y026780D01*
X033522Y026707D01*
X033504Y026651D01*
X033486Y026707D01*
X033449Y026780D01*
X033401Y026846D01*
X033343Y026904D01*
X033276Y026952D01*
X033204Y026989D01*
X033126Y027015D01*
X033054Y027026D01*
X033054Y026558D01*
X032954Y026558D01*
X032954Y027026D01*
X032882Y027015D01*
X032804Y026989D01*
X032731Y026952D01*
X032665Y026904D01*
X032607Y026846D01*
X032559Y026780D01*
X032522Y026707D01*
X032504Y026651D01*
X032486Y026707D01*
X032449Y026780D01*
X032401Y026846D01*
X032343Y026904D01*
X032276Y026952D01*
X032204Y026989D01*
X032126Y027015D01*
X032054Y027026D01*
X032054Y026558D01*
X031954Y026558D01*
X031954Y027026D01*
X031882Y027015D01*
X031804Y026989D01*
X031731Y026952D01*
X031665Y026904D01*
X031607Y026846D01*
X031559Y026780D01*
X031522Y026707D01*
X031504Y026651D01*
X031486Y026707D01*
X031449Y026780D01*
X031401Y026846D01*
X031343Y026904D01*
X031276Y026952D01*
X031204Y026989D01*
X031126Y027015D01*
X031054Y027026D01*
X031054Y026558D01*
X030954Y026558D01*
X030954Y027026D01*
X030882Y027015D01*
X030804Y026989D01*
X030731Y026952D01*
X030665Y026904D01*
X030607Y026846D01*
X030559Y026780D01*
X030522Y026707D01*
X030504Y026651D01*
X030486Y026707D01*
X030449Y026780D01*
X030401Y026846D01*
X030343Y026904D01*
X030276Y026952D01*
X030204Y026989D01*
X030126Y027015D01*
X030054Y027026D01*
X030054Y026558D01*
X029954Y026558D01*
X029954Y027026D01*
X029882Y027015D01*
X029804Y026989D01*
X029731Y026952D01*
X029665Y026904D01*
X029607Y026846D01*
X029559Y026780D01*
X029522Y026707D01*
X029504Y026651D01*
X029486Y026707D01*
X029449Y026780D01*
X029401Y026846D01*
X029343Y026904D01*
X029276Y026952D01*
X029204Y026989D01*
X029126Y027015D01*
X029054Y027026D01*
X029054Y026558D01*
X028954Y026558D01*
X028954Y027026D01*
X028882Y027015D01*
X028804Y026989D01*
X028731Y026952D01*
X028665Y026904D01*
X028607Y026846D01*
X028559Y026780D01*
X028522Y026707D01*
X028504Y026651D01*
X028486Y026707D01*
X028449Y026780D01*
X028401Y026846D01*
X028343Y026904D01*
X028276Y026952D01*
X028204Y026989D01*
X028126Y027015D01*
X028054Y027026D01*
X028054Y026558D01*
X027954Y026558D01*
X027954Y027026D01*
X027882Y027015D01*
X027804Y026989D01*
X027731Y026952D01*
X027665Y026904D01*
X027607Y026846D01*
X027559Y026780D01*
X027522Y026707D01*
X027504Y026651D01*
X027486Y026707D01*
X027449Y026780D01*
X027401Y026846D01*
X027343Y026904D01*
X027276Y026952D01*
X027204Y026989D01*
X027126Y027015D01*
X027054Y027026D01*
X027054Y026558D01*
X026954Y026558D01*
X026954Y027026D01*
X026882Y027015D01*
X026804Y026989D01*
X026731Y026952D01*
X026665Y026904D01*
X026607Y026846D01*
X026559Y026780D01*
X026522Y026707D01*
X026504Y026651D01*
X026486Y026707D01*
X026449Y026780D01*
X026401Y026846D01*
X026343Y026904D01*
X026276Y026952D01*
X026204Y026989D01*
X026126Y027015D01*
X026054Y027026D01*
X026054Y026558D01*
X025954Y026558D01*
X025954Y027026D01*
X025882Y027015D01*
X025804Y026989D01*
X025731Y026952D01*
X025665Y026904D01*
X025607Y026846D01*
X025559Y026780D01*
X025522Y026707D01*
X025504Y026651D01*
X025486Y026707D01*
X025449Y026780D01*
X025401Y026846D01*
X025343Y026904D01*
X025276Y026952D01*
X025204Y026989D01*
X025126Y027015D01*
X025054Y027026D01*
X025054Y026558D01*
X024954Y026558D01*
X024954Y027026D01*
X024882Y027015D01*
X024804Y026989D01*
X024731Y026952D01*
X024665Y026904D01*
X024607Y026846D01*
X024559Y026780D01*
X024522Y026707D01*
X024504Y026651D01*
X024486Y026707D01*
X024449Y026780D01*
X024401Y026846D01*
X024343Y026904D01*
X024276Y026952D01*
X024204Y026989D01*
X024126Y027015D01*
X024054Y027026D01*
X024054Y026558D01*
X023954Y026558D01*
X023954Y027026D01*
X023882Y027015D01*
X023804Y026989D01*
X023731Y026952D01*
X023665Y026904D01*
X023607Y026846D01*
X023559Y026780D01*
X023522Y026707D01*
X023504Y026651D01*
X023486Y026707D01*
X023449Y026780D01*
X023401Y026846D01*
X023343Y026904D01*
X023276Y026952D01*
X023204Y026989D01*
X023126Y027015D01*
X023054Y027026D01*
X023054Y026558D01*
X022954Y026558D01*
X022954Y027026D01*
X022882Y027015D01*
X022804Y026989D01*
X022731Y026952D01*
X022665Y026904D01*
X022607Y026846D01*
X022559Y026780D01*
X022522Y026707D01*
X022504Y026651D01*
X022486Y026707D01*
X022449Y026780D01*
X022401Y026846D01*
X022343Y026904D01*
X022276Y026952D01*
X022204Y026989D01*
X022126Y027015D01*
X022054Y027026D01*
X022054Y026558D01*
X021954Y026558D01*
X021954Y027026D01*
X021882Y027015D01*
X021804Y026989D01*
X021731Y026952D01*
X021665Y026904D01*
X021607Y026846D01*
X021559Y026780D01*
X021522Y026707D01*
X021504Y026651D01*
X021486Y026707D01*
X021449Y026780D01*
X021401Y026846D01*
X021343Y026904D01*
X021276Y026952D01*
X021204Y026989D01*
X021126Y027015D01*
X021054Y027026D01*
X021054Y026558D01*
X020954Y026558D01*
X020954Y027026D01*
X020882Y027015D01*
X020804Y026989D01*
X020731Y026952D01*
X020665Y026904D01*
X020607Y026846D01*
X020559Y026780D01*
X020522Y026707D01*
X020497Y026629D01*
X020485Y026557D01*
X020954Y026557D01*
X020954Y026457D01*
X021054Y026457D01*
X021054Y025989D01*
X021126Y026000D01*
X021204Y026026D01*
X021276Y026063D01*
X021343Y026111D01*
X021401Y026169D01*
X021449Y026235D01*
X021486Y026308D01*
X021504Y026364D01*
X021522Y026308D01*
X021559Y026235D01*
X021607Y026169D01*
X021665Y026111D01*
X021731Y026063D01*
X021804Y026026D01*
X021882Y026000D01*
X021905Y025997D01*
X021726Y025923D01*
X021589Y025785D01*
X021514Y025605D01*
X021514Y025410D01*
X021589Y025230D01*
X021726Y025092D01*
X021631Y025187D02*
X021362Y025187D01*
X021344Y025187D02*
X020144Y025187D01*
X020144Y025167D02*
X020144Y025887D01*
X021344Y025887D01*
X021344Y025167D01*
X020144Y025167D01*
X020144Y025285D02*
X021344Y025285D01*
X021432Y025285D02*
X021565Y025285D01*
X021525Y025384D02*
X021472Y025384D01*
X021484Y025483D02*
X021514Y025483D01*
X021514Y025581D02*
X021484Y025581D01*
X021452Y025680D02*
X021545Y025680D01*
X021586Y025778D02*
X021411Y025778D01*
X021344Y025778D02*
X020144Y025778D01*
X020144Y025680D02*
X021344Y025680D01*
X021344Y025581D02*
X020144Y025581D01*
X020144Y025483D02*
X021344Y025483D01*
X021344Y025384D02*
X020144Y025384D01*
X019824Y025384D02*
X018624Y025384D01*
X018624Y025483D02*
X019824Y025483D01*
X019824Y025581D02*
X018624Y025581D01*
X018624Y025680D02*
X019824Y025680D01*
X019824Y025778D02*
X018624Y025778D01*
X018624Y025877D02*
X019824Y025877D01*
X019824Y025887D02*
X019824Y025167D01*
X018624Y025167D01*
X018624Y025887D01*
X019824Y025887D01*
X019592Y025778D02*
X019422Y025778D01*
X019419Y025785D02*
X019281Y025923D01*
X019103Y025997D01*
X019126Y026000D01*
X019204Y026026D01*
X019276Y026063D01*
X019343Y026111D01*
X019401Y026169D01*
X019449Y026235D01*
X019486Y026308D01*
X019511Y026386D01*
X019522Y026457D01*
X019054Y026457D01*
X019054Y026557D01*
X019522Y026557D01*
X019511Y026629D01*
X019486Y026707D01*
X019449Y026780D01*
X019401Y026846D01*
X019343Y026904D01*
X019276Y026952D01*
X019204Y026989D01*
X019126Y027015D01*
X019054Y027026D01*
X019054Y026558D01*
X018954Y026558D01*
X018954Y027026D01*
X018882Y027015D01*
X018804Y026989D01*
X018731Y026952D01*
X018665Y026904D01*
X018607Y026846D01*
X018559Y026780D01*
X018522Y026707D01*
X018504Y026651D01*
X018486Y026707D01*
X018449Y026780D01*
X018401Y026846D01*
X018343Y026904D01*
X018276Y026952D01*
X018204Y026989D01*
X018126Y027015D01*
X018054Y027026D01*
X018054Y026558D01*
X017954Y026558D01*
X017954Y027026D01*
X017882Y027015D01*
X017804Y026989D01*
X017731Y026952D01*
X017665Y026904D01*
X017607Y026846D01*
X017559Y026780D01*
X017522Y026707D01*
X017504Y026651D01*
X017486Y026707D01*
X017449Y026780D01*
X017401Y026846D01*
X017343Y026904D01*
X017276Y026952D01*
X017204Y026989D01*
X017126Y027015D01*
X017054Y027026D01*
X017054Y026558D01*
X016954Y026558D01*
X016954Y027026D01*
X016882Y027015D01*
X016804Y026989D01*
X016731Y026952D01*
X016665Y026904D01*
X016607Y026846D01*
X016559Y026780D01*
X016522Y026707D01*
X016504Y026651D01*
X016486Y026707D01*
X016449Y026780D01*
X016401Y026846D01*
X016343Y026904D01*
X016276Y026952D01*
X016204Y026989D01*
X016126Y027015D01*
X016054Y027026D01*
X016054Y026558D01*
X015954Y026558D01*
X015954Y027026D01*
X015882Y027015D01*
X015804Y026989D01*
X015731Y026952D01*
X015665Y026904D01*
X015607Y026846D01*
X015559Y026780D01*
X015522Y026707D01*
X015504Y026651D01*
X015486Y026707D01*
X015449Y026780D01*
X015401Y026846D01*
X015343Y026904D01*
X015276Y026952D01*
X015204Y026989D01*
X015126Y027015D01*
X015054Y027026D01*
X015054Y026558D01*
X014954Y026558D01*
X014954Y027026D01*
X014882Y027015D01*
X014804Y026989D01*
X014731Y026952D01*
X014665Y026904D01*
X014607Y026846D01*
X014559Y026780D01*
X014522Y026707D01*
X014504Y026651D01*
X014486Y026707D01*
X014449Y026780D01*
X014401Y026846D01*
X014343Y026904D01*
X014276Y026952D01*
X014204Y026989D01*
X014126Y027015D01*
X014054Y027026D01*
X014054Y026558D01*
X013954Y026558D01*
X013954Y027026D01*
X013882Y027015D01*
X013804Y026989D01*
X013731Y026952D01*
X013665Y026904D01*
X013607Y026846D01*
X013559Y026780D01*
X013522Y026707D01*
X013504Y026651D01*
X013486Y026707D01*
X013449Y026780D01*
X013401Y026846D01*
X013343Y026904D01*
X013276Y026952D01*
X013204Y026989D01*
X013126Y027015D01*
X013054Y027026D01*
X013054Y026558D01*
X012954Y026558D01*
X012954Y027026D01*
X012882Y027015D01*
X012804Y026989D01*
X012731Y026952D01*
X012665Y026904D01*
X012607Y026846D01*
X012559Y026780D01*
X012522Y026707D01*
X012504Y026651D01*
X012486Y026707D01*
X012449Y026780D01*
X012401Y026846D01*
X012343Y026904D01*
X012276Y026952D01*
X012204Y026989D01*
X012126Y027015D01*
X012054Y027026D01*
X012054Y026558D01*
X011954Y026558D01*
X011954Y027026D01*
X011882Y027015D01*
X011804Y026989D01*
X011731Y026952D01*
X011665Y026904D01*
X011607Y026846D01*
X011559Y026780D01*
X011522Y026707D01*
X011504Y026651D01*
X011486Y026707D01*
X011449Y026780D01*
X011401Y026846D01*
X011343Y026904D01*
X011276Y026952D01*
X011204Y026989D01*
X011126Y027015D01*
X011054Y027026D01*
X011054Y026558D01*
X010954Y026558D01*
X010954Y027026D01*
X010882Y027015D01*
X010804Y026989D01*
X010731Y026952D01*
X010665Y026904D01*
X010607Y026846D01*
X010559Y026780D01*
X010522Y026707D01*
X010504Y026651D01*
X010486Y026707D01*
X010449Y026780D01*
X010401Y026846D01*
X010343Y026904D01*
X010276Y026952D01*
X010204Y026989D01*
X010126Y027015D01*
X010054Y027026D01*
X010054Y026558D01*
X009954Y026558D01*
X009954Y027026D01*
X009882Y027015D01*
X009804Y026989D01*
X009731Y026952D01*
X009665Y026904D01*
X009607Y026846D01*
X009559Y026780D01*
X009522Y026707D01*
X009504Y026651D01*
X009486Y026707D01*
X009449Y026780D01*
X009401Y026846D01*
X009343Y026904D01*
X009276Y026952D01*
X009204Y026989D01*
X009126Y027015D01*
X009054Y027026D01*
X009054Y026558D01*
X008954Y026558D01*
X008954Y027026D01*
X008882Y027015D01*
X008804Y026989D01*
X008731Y026952D01*
X008665Y026904D01*
X008607Y026846D01*
X008559Y026780D01*
X008522Y026707D01*
X008504Y026651D01*
X008486Y026707D01*
X008449Y026780D01*
X008401Y026846D01*
X008343Y026904D01*
X008276Y026952D01*
X008204Y026989D01*
X008126Y027015D01*
X008054Y027026D01*
X008054Y026558D01*
X007954Y026558D01*
X007954Y027026D01*
X007882Y027015D01*
X007804Y026989D01*
X007731Y026952D01*
X007665Y026904D01*
X007607Y026846D01*
X007559Y026780D01*
X007522Y026707D01*
X007504Y026651D01*
X007486Y026707D01*
X007449Y026780D01*
X007401Y026846D01*
X007343Y026904D01*
X007276Y026952D01*
X007204Y026989D01*
X007126Y027015D01*
X007054Y027026D01*
X007054Y026558D01*
X006954Y026558D01*
X006954Y027026D01*
X006882Y027015D01*
X006804Y026989D01*
X006731Y026952D01*
X006665Y026904D01*
X006607Y026846D01*
X006559Y026780D01*
X006522Y026707D01*
X006504Y026651D01*
X006486Y026707D01*
X006449Y026780D01*
X006401Y026846D01*
X006343Y026904D01*
X006276Y026952D01*
X006204Y026989D01*
X006126Y027015D01*
X006054Y027026D01*
X006054Y026558D01*
X005954Y026558D01*
X005954Y027026D01*
X005882Y027015D01*
X005804Y026989D01*
X005731Y026952D01*
X005665Y026904D01*
X005607Y026846D01*
X005559Y026780D01*
X005522Y026707D01*
X005504Y026651D01*
X005486Y026707D01*
X005449Y026780D01*
X005401Y026846D01*
X005343Y026904D01*
X005276Y026952D01*
X005204Y026989D01*
X005126Y027015D01*
X005054Y027026D01*
X005054Y026558D01*
X004954Y026558D01*
X004954Y027026D01*
X004882Y027015D01*
X004804Y026989D01*
X004731Y026952D01*
X004665Y026904D01*
X004607Y026846D01*
X004559Y026780D01*
X004522Y026707D01*
X004504Y026651D01*
X004486Y026707D01*
X004449Y026780D01*
X004401Y026846D01*
X004343Y026904D01*
X004276Y026952D01*
X004204Y026989D01*
X004126Y027015D01*
X004054Y027026D01*
X004054Y026558D01*
X003954Y026558D01*
X003954Y027026D01*
X003882Y027015D01*
X003804Y026989D01*
X003731Y026952D01*
X003665Y026904D01*
X003607Y026846D01*
X003559Y026780D01*
X003522Y026707D01*
X003504Y026651D01*
X003486Y026707D01*
X003449Y026780D01*
X003401Y026846D01*
X003343Y026904D01*
X003276Y026952D01*
X003204Y026989D01*
X003126Y027015D01*
X003054Y027026D01*
X003054Y026558D01*
X002954Y026558D01*
X002954Y027026D01*
X002882Y027015D01*
X002804Y026989D01*
X002731Y026952D01*
X002665Y026904D01*
X002607Y026846D01*
X002559Y026780D01*
X002522Y026707D01*
X002497Y026629D01*
X002485Y026557D01*
X002954Y026557D01*
X002954Y026457D01*
X002485Y026457D01*
X002497Y026386D01*
X002522Y026308D01*
X002559Y026235D01*
X002607Y026169D01*
X002665Y026111D01*
X002731Y026063D01*
X002804Y026026D01*
X002882Y026000D01*
X002905Y025997D01*
X002726Y025923D01*
X002589Y025785D01*
X002514Y025605D01*
X002514Y025410D01*
X002589Y025230D01*
X002726Y025092D01*
X002906Y025017D01*
X019101Y025017D01*
X019281Y025092D01*
X019419Y025230D01*
X019494Y025410D01*
X019494Y025605D01*
X019419Y025785D01*
X019463Y025680D02*
X019592Y025680D01*
X019592Y025581D02*
X019494Y025581D01*
X019494Y025483D02*
X019592Y025483D01*
X019592Y025384D02*
X019483Y025384D01*
X019442Y025285D02*
X019592Y025285D01*
X019617Y025187D02*
X019376Y025187D01*
X019273Y025088D02*
X019956Y025088D01*
X019882Y024990D02*
X001754Y024990D01*
X001754Y025088D02*
X002735Y025088D01*
X002631Y025187D02*
X001754Y025187D01*
X001754Y025285D02*
X002565Y025285D01*
X002525Y025384D02*
X001754Y025384D01*
X001754Y025483D02*
X002514Y025483D01*
X002514Y025581D02*
X001754Y025581D01*
X001754Y025680D02*
X002545Y025680D01*
X002586Y025778D02*
X001754Y025778D01*
X001754Y025877D02*
X002680Y025877D01*
X002853Y025975D02*
X001754Y025975D01*
X001754Y026074D02*
X002716Y026074D01*
X002605Y026172D02*
X001754Y026172D01*
X001754Y026271D02*
X002541Y026271D01*
X002502Y026369D02*
X001754Y026369D01*
X001754Y026468D02*
X002954Y026468D01*
X002954Y026567D02*
X003054Y026567D01*
X003054Y026557D02*
X003485Y026557D01*
X003954Y026557D01*
X003954Y026457D01*
X003485Y026457D01*
X003054Y026457D01*
X003054Y026557D01*
X003054Y026468D02*
X003954Y026468D01*
X003954Y026567D02*
X004054Y026567D01*
X004054Y026557D02*
X004485Y026557D01*
X004954Y026557D01*
X004954Y026457D01*
X004485Y026457D01*
X004054Y026457D01*
X004054Y026557D01*
X004054Y026468D02*
X004954Y026468D01*
X004954Y026567D02*
X005054Y026567D01*
X005054Y026557D02*
X005485Y026557D01*
X005954Y026557D01*
X005954Y026457D01*
X005485Y026457D01*
X005054Y026457D01*
X005054Y026557D01*
X005054Y026468D02*
X005954Y026468D01*
X005954Y026567D02*
X006054Y026567D01*
X006054Y026557D02*
X006485Y026557D01*
X006954Y026557D01*
X006954Y026457D01*
X006522Y026457D01*
X006054Y026457D01*
X006054Y026557D01*
X006054Y026468D02*
X006954Y026468D01*
X006954Y026567D02*
X007054Y026567D01*
X007054Y026557D02*
X007485Y026557D01*
X007954Y026557D01*
X007954Y026457D01*
X007485Y026457D01*
X007054Y026457D01*
X007054Y026557D01*
X007054Y026468D02*
X007954Y026468D01*
X007954Y026567D02*
X008054Y026567D01*
X008054Y026557D02*
X008485Y026557D01*
X008954Y026557D01*
X008954Y026457D01*
X008485Y026457D01*
X008054Y026457D01*
X008054Y026557D01*
X008054Y026468D02*
X008954Y026468D01*
X008954Y026567D02*
X009054Y026567D01*
X009054Y026557D02*
X009485Y026557D01*
X009954Y026557D01*
X009954Y026457D01*
X009485Y026457D01*
X009054Y026457D01*
X009054Y026557D01*
X009054Y026468D02*
X009954Y026468D01*
X009954Y026567D02*
X010054Y026567D01*
X010054Y026557D02*
X010485Y026557D01*
X010954Y026557D01*
X010954Y026457D01*
X010485Y026457D01*
X010054Y026457D01*
X010054Y026557D01*
X010054Y026468D02*
X010954Y026468D01*
X010954Y026567D02*
X011054Y026567D01*
X011054Y026557D02*
X011485Y026557D01*
X011954Y026557D01*
X011954Y026457D01*
X011485Y026457D01*
X011054Y026457D01*
X011054Y026557D01*
X011054Y026468D02*
X011954Y026468D01*
X011954Y026567D02*
X012054Y026567D01*
X012054Y026557D02*
X012485Y026557D01*
X012954Y026557D01*
X012954Y026457D01*
X012485Y026457D01*
X012054Y026457D01*
X012054Y026557D01*
X012054Y026468D02*
X012954Y026468D01*
X012954Y026567D02*
X013054Y026567D01*
X013054Y026557D02*
X013485Y026557D01*
X013954Y026557D01*
X013954Y026457D01*
X013522Y026457D01*
X013054Y026457D01*
X013054Y026557D01*
X013054Y026468D02*
X013954Y026468D01*
X013954Y026567D02*
X014054Y026567D01*
X014054Y026557D02*
X014522Y026557D01*
X014954Y026557D01*
X014954Y026457D01*
X014485Y026457D01*
X014054Y026457D01*
X014054Y026557D01*
X014054Y026468D02*
X014954Y026468D01*
X014954Y026567D02*
X015054Y026567D01*
X015054Y026557D02*
X015485Y026557D01*
X015954Y026557D01*
X015954Y026457D01*
X015485Y026457D01*
X015054Y026457D01*
X015054Y026557D01*
X015054Y026468D02*
X015954Y026468D01*
X015954Y026567D02*
X016054Y026567D01*
X016054Y026557D02*
X016485Y026557D01*
X016954Y026557D01*
X016954Y026457D01*
X016485Y026457D01*
X016054Y026457D01*
X016054Y026557D01*
X016054Y026468D02*
X016954Y026468D01*
X016954Y026567D02*
X017054Y026567D01*
X017054Y026557D02*
X017485Y026557D01*
X017954Y026557D01*
X017954Y026457D01*
X017485Y026457D01*
X017054Y026457D01*
X017054Y026557D01*
X017054Y026468D02*
X017954Y026468D01*
X017954Y026567D02*
X018054Y026567D01*
X018054Y026557D02*
X018485Y026557D01*
X018954Y026557D01*
X018954Y026457D01*
X018485Y026457D01*
X018054Y026457D01*
X018054Y026557D01*
X018054Y026468D02*
X018954Y026468D01*
X018954Y026567D02*
X019054Y026567D01*
X019054Y026665D02*
X018954Y026665D01*
X018954Y026764D02*
X019054Y026764D01*
X019054Y026862D02*
X018954Y026862D01*
X018954Y026961D02*
X019054Y026961D01*
X019260Y026961D02*
X020748Y026961D01*
X020623Y026862D02*
X019385Y026862D01*
X019457Y026764D02*
X020551Y026764D01*
X020508Y026665D02*
X019499Y026665D01*
X019521Y026567D02*
X020487Y026567D01*
X020485Y026457D02*
X020497Y026386D01*
X020522Y026308D01*
X020559Y026235D01*
X020607Y026169D01*
X020665Y026111D01*
X020731Y026063D01*
X020804Y026026D01*
X020882Y026000D01*
X020954Y025989D01*
X020954Y026457D01*
X020485Y026457D01*
X020502Y026369D02*
X019506Y026369D01*
X019467Y026271D02*
X020541Y026271D01*
X020605Y026172D02*
X019403Y026172D01*
X019292Y026074D02*
X020716Y026074D01*
X020879Y025975D02*
X019155Y025975D01*
X019328Y025877D02*
X020694Y025877D01*
X020597Y025778D02*
X020416Y025778D01*
X020416Y025680D02*
X020547Y025680D01*
X020449Y025581D02*
X020416Y025581D01*
X020144Y025877D02*
X021344Y025877D01*
X021313Y025877D02*
X021680Y025877D01*
X021853Y025975D02*
X021129Y025975D01*
X021054Y026074D02*
X020954Y026074D01*
X020954Y026172D02*
X021054Y026172D01*
X021054Y026271D02*
X020954Y026271D01*
X020954Y026369D02*
X021054Y026369D01*
X021054Y026457D02*
X021054Y026557D01*
X021485Y026557D01*
X021954Y026557D01*
X021954Y026457D01*
X021485Y026457D01*
X021054Y026457D01*
X021054Y026468D02*
X021954Y026468D01*
X021954Y026567D02*
X022054Y026567D01*
X022054Y026557D02*
X022485Y026557D01*
X022954Y026557D01*
X022954Y026457D01*
X022485Y026457D01*
X022054Y026457D01*
X022054Y026557D01*
X022054Y026468D02*
X022954Y026468D01*
X022954Y026567D02*
X023054Y026567D01*
X023054Y026557D02*
X023485Y026557D01*
X023954Y026557D01*
X023954Y026457D01*
X023485Y026457D01*
X023054Y026457D01*
X023054Y026557D01*
X023054Y026468D02*
X023954Y026468D01*
X023954Y026567D02*
X024054Y026567D01*
X024054Y026557D02*
X024485Y026557D01*
X024954Y026557D01*
X024954Y026457D01*
X024522Y026457D01*
X024054Y026457D01*
X024054Y026557D01*
X024054Y026468D02*
X024954Y026468D01*
X024954Y026567D02*
X025054Y026567D01*
X025054Y026557D02*
X025485Y026557D01*
X025954Y026557D01*
X025954Y026457D01*
X025485Y026457D01*
X025054Y026457D01*
X025054Y026557D01*
X025054Y026468D02*
X025954Y026468D01*
X025954Y026567D02*
X026054Y026567D01*
X026054Y026557D02*
X026485Y026557D01*
X026954Y026557D01*
X026954Y026457D01*
X026485Y026457D01*
X026054Y026457D01*
X026054Y026557D01*
X026054Y026468D02*
X026954Y026468D01*
X026954Y026567D02*
X027054Y026567D01*
X027054Y026557D02*
X027485Y026557D01*
X027954Y026557D01*
X027954Y026457D01*
X027485Y026457D01*
X027054Y026457D01*
X027054Y026557D01*
X027054Y026468D02*
X027954Y026468D01*
X027954Y026567D02*
X028054Y026567D01*
X028054Y026557D02*
X028485Y026557D01*
X028954Y026557D01*
X028954Y026457D01*
X028485Y026457D01*
X028054Y026457D01*
X028054Y026557D01*
X028054Y026468D02*
X028954Y026468D01*
X028954Y026567D02*
X029054Y026567D01*
X029054Y026557D02*
X029485Y026557D01*
X029954Y026557D01*
X029954Y026457D01*
X029485Y026457D01*
X029054Y026457D01*
X029054Y026557D01*
X029054Y026468D02*
X029954Y026468D01*
X029954Y026567D02*
X030054Y026567D01*
X030054Y026557D02*
X030485Y026557D01*
X030954Y026557D01*
X030954Y026457D01*
X030485Y026457D01*
X030054Y026457D01*
X030054Y026557D01*
X030054Y026468D02*
X030954Y026468D01*
X030954Y026567D02*
X031054Y026567D01*
X031054Y026557D02*
X031485Y026557D01*
X031954Y026557D01*
X031954Y026457D01*
X031522Y026457D01*
X031054Y026457D01*
X031054Y026557D01*
X031054Y026468D02*
X031954Y026468D01*
X031954Y026567D02*
X032054Y026567D01*
X032054Y026557D02*
X032522Y026557D01*
X032954Y026557D01*
X032954Y026457D01*
X032485Y026457D01*
X032054Y026457D01*
X032054Y026557D01*
X032054Y026468D02*
X032954Y026468D01*
X032954Y026567D02*
X033054Y026567D01*
X033054Y026557D02*
X033485Y026557D01*
X033954Y026557D01*
X033954Y026457D01*
X033485Y026457D01*
X033054Y026457D01*
X033054Y026557D01*
X033054Y026468D02*
X033954Y026468D01*
X033954Y026567D02*
X034054Y026567D01*
X034054Y026557D02*
X034485Y026557D01*
X034954Y026557D01*
X034954Y026457D01*
X034485Y026457D01*
X034054Y026457D01*
X034054Y026557D01*
X034054Y026468D02*
X034954Y026468D01*
X034954Y026567D02*
X035054Y026567D01*
X035054Y026557D02*
X035485Y026557D01*
X035954Y026557D01*
X035954Y026457D01*
X035485Y026457D01*
X035054Y026457D01*
X035054Y026557D01*
X035054Y026468D02*
X035954Y026468D01*
X035954Y026567D02*
X036054Y026567D01*
X036054Y026557D02*
X036485Y026557D01*
X036954Y026557D01*
X036954Y026457D01*
X036485Y026457D01*
X036054Y026457D01*
X036054Y026557D01*
X036054Y026468D02*
X036954Y026468D01*
X036954Y026567D02*
X037054Y026567D01*
X037054Y026665D02*
X036954Y026665D01*
X036954Y026764D02*
X037054Y026764D01*
X037054Y026862D02*
X036954Y026862D01*
X036954Y026961D02*
X037054Y026961D01*
X037260Y026961D02*
X038254Y026961D01*
X038254Y027059D02*
X001754Y027059D01*
X001754Y026961D02*
X002748Y026961D01*
X002623Y026862D02*
X001754Y026862D01*
X001754Y026764D02*
X002551Y026764D01*
X002508Y026665D02*
X001754Y026665D01*
X001754Y026567D02*
X002487Y026567D01*
X002954Y026665D02*
X003054Y026665D01*
X003054Y026764D02*
X002954Y026764D01*
X002954Y026862D02*
X003054Y026862D01*
X003054Y026961D02*
X002954Y026961D01*
X003260Y026961D02*
X003748Y026961D01*
X003623Y026862D02*
X003385Y026862D01*
X003457Y026764D02*
X003551Y026764D01*
X003508Y026665D02*
X003499Y026665D01*
X003954Y026665D02*
X004054Y026665D01*
X004054Y026764D02*
X003954Y026764D01*
X003954Y026862D02*
X004054Y026862D01*
X004054Y026961D02*
X003954Y026961D01*
X004260Y026961D02*
X004748Y026961D01*
X004623Y026862D02*
X004385Y026862D01*
X004457Y026764D02*
X004551Y026764D01*
X004508Y026665D02*
X004499Y026665D01*
X004954Y026665D02*
X005054Y026665D01*
X005054Y026764D02*
X004954Y026764D01*
X004954Y026862D02*
X005054Y026862D01*
X005054Y026961D02*
X004954Y026961D01*
X005260Y026961D02*
X005748Y026961D01*
X005623Y026862D02*
X005385Y026862D01*
X005457Y026764D02*
X005551Y026764D01*
X005508Y026665D02*
X005499Y026665D01*
X005954Y026665D02*
X006054Y026665D01*
X006054Y026764D02*
X005954Y026764D01*
X005954Y026862D02*
X006054Y026862D01*
X006054Y026961D02*
X005954Y026961D01*
X006260Y026961D02*
X006748Y026961D01*
X006623Y026862D02*
X006385Y026862D01*
X006457Y026764D02*
X006551Y026764D01*
X006508Y026665D02*
X006499Y026665D01*
X006954Y026665D02*
X007054Y026665D01*
X007054Y026764D02*
X006954Y026764D01*
X006954Y026862D02*
X007054Y026862D01*
X007054Y026961D02*
X006954Y026961D01*
X007260Y026961D02*
X007748Y026961D01*
X007623Y026862D02*
X007385Y026862D01*
X007457Y026764D02*
X007551Y026764D01*
X007508Y026665D02*
X007499Y026665D01*
X007954Y026665D02*
X008054Y026665D01*
X008054Y026764D02*
X007954Y026764D01*
X007954Y026862D02*
X008054Y026862D01*
X008054Y026961D02*
X007954Y026961D01*
X008260Y026961D02*
X008748Y026961D01*
X008623Y026862D02*
X008385Y026862D01*
X008457Y026764D02*
X008551Y026764D01*
X008508Y026665D02*
X008499Y026665D01*
X008954Y026665D02*
X009054Y026665D01*
X009054Y026764D02*
X008954Y026764D01*
X008954Y026862D02*
X009054Y026862D01*
X009054Y026961D02*
X008954Y026961D01*
X009260Y026961D02*
X009748Y026961D01*
X009623Y026862D02*
X009385Y026862D01*
X009457Y026764D02*
X009551Y026764D01*
X009508Y026665D02*
X009499Y026665D01*
X009954Y026665D02*
X010054Y026665D01*
X010054Y026764D02*
X009954Y026764D01*
X009954Y026862D02*
X010054Y026862D01*
X010054Y026961D02*
X009954Y026961D01*
X010260Y026961D02*
X010748Y026961D01*
X010623Y026862D02*
X010385Y026862D01*
X010457Y026764D02*
X010551Y026764D01*
X010508Y026665D02*
X010499Y026665D01*
X010954Y026665D02*
X011054Y026665D01*
X011054Y026764D02*
X010954Y026764D01*
X010954Y026862D02*
X011054Y026862D01*
X011054Y026961D02*
X010954Y026961D01*
X011260Y026961D02*
X011748Y026961D01*
X011623Y026862D02*
X011385Y026862D01*
X011457Y026764D02*
X011551Y026764D01*
X011508Y026665D02*
X011499Y026665D01*
X011954Y026665D02*
X012054Y026665D01*
X012054Y026764D02*
X011954Y026764D01*
X011954Y026862D02*
X012054Y026862D01*
X012054Y026961D02*
X011954Y026961D01*
X012260Y026961D02*
X012748Y026961D01*
X012623Y026862D02*
X012385Y026862D01*
X012457Y026764D02*
X012551Y026764D01*
X012508Y026665D02*
X012499Y026665D01*
X012954Y026665D02*
X013054Y026665D01*
X013054Y026764D02*
X012954Y026764D01*
X012954Y026862D02*
X013054Y026862D01*
X013054Y026961D02*
X012954Y026961D01*
X013260Y026961D02*
X013748Y026961D01*
X013623Y026862D02*
X013385Y026862D01*
X013457Y026764D02*
X013551Y026764D01*
X013508Y026665D02*
X013499Y026665D01*
X013954Y026665D02*
X014054Y026665D01*
X014054Y026764D02*
X013954Y026764D01*
X013954Y026862D02*
X014054Y026862D01*
X014054Y026961D02*
X013954Y026961D01*
X014260Y026961D02*
X014748Y026961D01*
X014623Y026862D02*
X014385Y026862D01*
X014457Y026764D02*
X014551Y026764D01*
X014508Y026665D02*
X014499Y026665D01*
X014954Y026665D02*
X015054Y026665D01*
X015054Y026764D02*
X014954Y026764D01*
X014954Y026862D02*
X015054Y026862D01*
X015054Y026961D02*
X014954Y026961D01*
X015260Y026961D02*
X015748Y026961D01*
X015623Y026862D02*
X015385Y026862D01*
X015457Y026764D02*
X015551Y026764D01*
X015508Y026665D02*
X015499Y026665D01*
X015954Y026665D02*
X016054Y026665D01*
X016054Y026764D02*
X015954Y026764D01*
X015954Y026862D02*
X016054Y026862D01*
X016054Y026961D02*
X015954Y026961D01*
X016260Y026961D02*
X016748Y026961D01*
X016623Y026862D02*
X016385Y026862D01*
X016457Y026764D02*
X016551Y026764D01*
X016508Y026665D02*
X016499Y026665D01*
X016954Y026665D02*
X017054Y026665D01*
X017054Y026764D02*
X016954Y026764D01*
X016954Y026862D02*
X017054Y026862D01*
X017054Y026961D02*
X016954Y026961D01*
X017260Y026961D02*
X017748Y026961D01*
X017623Y026862D02*
X017385Y026862D01*
X017457Y026764D02*
X017551Y026764D01*
X017508Y026665D02*
X017499Y026665D01*
X017954Y026665D02*
X018054Y026665D01*
X018054Y026764D02*
X017954Y026764D01*
X017954Y026862D02*
X018054Y026862D01*
X018054Y026961D02*
X017954Y026961D01*
X018260Y026961D02*
X018748Y026961D01*
X018623Y026862D02*
X018385Y026862D01*
X018457Y026764D02*
X018551Y026764D01*
X018508Y026665D02*
X018499Y026665D01*
X019054Y026468D02*
X020954Y026468D01*
X020954Y026567D02*
X021054Y026567D01*
X021054Y026665D02*
X020954Y026665D01*
X020954Y026764D02*
X021054Y026764D01*
X021054Y026862D02*
X020954Y026862D01*
X020954Y026961D02*
X021054Y026961D01*
X021260Y026961D02*
X021748Y026961D01*
X021623Y026862D02*
X021385Y026862D01*
X021457Y026764D02*
X021551Y026764D01*
X021508Y026665D02*
X021499Y026665D01*
X021467Y026271D02*
X021541Y026271D01*
X021605Y026172D02*
X021403Y026172D01*
X021292Y026074D02*
X021716Y026074D01*
X021954Y026665D02*
X022054Y026665D01*
X022054Y026764D02*
X021954Y026764D01*
X021954Y026862D02*
X022054Y026862D01*
X022054Y026961D02*
X021954Y026961D01*
X022260Y026961D02*
X022748Y026961D01*
X022623Y026862D02*
X022385Y026862D01*
X022457Y026764D02*
X022551Y026764D01*
X022508Y026665D02*
X022499Y026665D01*
X022954Y026665D02*
X023054Y026665D01*
X023054Y026764D02*
X022954Y026764D01*
X022954Y026862D02*
X023054Y026862D01*
X023054Y026961D02*
X022954Y026961D01*
X023260Y026961D02*
X023748Y026961D01*
X023623Y026862D02*
X023385Y026862D01*
X023457Y026764D02*
X023551Y026764D01*
X023508Y026665D02*
X023499Y026665D01*
X023954Y026665D02*
X024054Y026665D01*
X024054Y026764D02*
X023954Y026764D01*
X023954Y026862D02*
X024054Y026862D01*
X024054Y026961D02*
X023954Y026961D01*
X024260Y026961D02*
X024748Y026961D01*
X024623Y026862D02*
X024385Y026862D01*
X024457Y026764D02*
X024551Y026764D01*
X024508Y026665D02*
X024499Y026665D01*
X024954Y026665D02*
X025054Y026665D01*
X025054Y026764D02*
X024954Y026764D01*
X024954Y026862D02*
X025054Y026862D01*
X025054Y026961D02*
X024954Y026961D01*
X025260Y026961D02*
X025748Y026961D01*
X025623Y026862D02*
X025385Y026862D01*
X025457Y026764D02*
X025551Y026764D01*
X025508Y026665D02*
X025499Y026665D01*
X025954Y026665D02*
X026054Y026665D01*
X026054Y026764D02*
X025954Y026764D01*
X025954Y026862D02*
X026054Y026862D01*
X026054Y026961D02*
X025954Y026961D01*
X026260Y026961D02*
X026748Y026961D01*
X026623Y026862D02*
X026385Y026862D01*
X026457Y026764D02*
X026551Y026764D01*
X026508Y026665D02*
X026499Y026665D01*
X026954Y026665D02*
X027054Y026665D01*
X027054Y026764D02*
X026954Y026764D01*
X026954Y026862D02*
X027054Y026862D01*
X027054Y026961D02*
X026954Y026961D01*
X027260Y026961D02*
X027748Y026961D01*
X027623Y026862D02*
X027385Y026862D01*
X027457Y026764D02*
X027551Y026764D01*
X027508Y026665D02*
X027499Y026665D01*
X027954Y026665D02*
X028054Y026665D01*
X028054Y026764D02*
X027954Y026764D01*
X027954Y026862D02*
X028054Y026862D01*
X028054Y026961D02*
X027954Y026961D01*
X028260Y026961D02*
X028748Y026961D01*
X028623Y026862D02*
X028385Y026862D01*
X028457Y026764D02*
X028551Y026764D01*
X028508Y026665D02*
X028499Y026665D01*
X028954Y026665D02*
X029054Y026665D01*
X029054Y026764D02*
X028954Y026764D01*
X028954Y026862D02*
X029054Y026862D01*
X029054Y026961D02*
X028954Y026961D01*
X029260Y026961D02*
X029748Y026961D01*
X029623Y026862D02*
X029385Y026862D01*
X029457Y026764D02*
X029551Y026764D01*
X029508Y026665D02*
X029499Y026665D01*
X029954Y026665D02*
X030054Y026665D01*
X030054Y026764D02*
X029954Y026764D01*
X029954Y026862D02*
X030054Y026862D01*
X030054Y026961D02*
X029954Y026961D01*
X030260Y026961D02*
X030748Y026961D01*
X030623Y026862D02*
X030385Y026862D01*
X030457Y026764D02*
X030551Y026764D01*
X030508Y026665D02*
X030499Y026665D01*
X030954Y026665D02*
X031054Y026665D01*
X031054Y026764D02*
X030954Y026764D01*
X030954Y026862D02*
X031054Y026862D01*
X031054Y026961D02*
X030954Y026961D01*
X031260Y026961D02*
X031748Y026961D01*
X031623Y026862D02*
X031385Y026862D01*
X031457Y026764D02*
X031551Y026764D01*
X031508Y026665D02*
X031499Y026665D01*
X031954Y026665D02*
X032054Y026665D01*
X032054Y026764D02*
X031954Y026764D01*
X031954Y026862D02*
X032054Y026862D01*
X032054Y026961D02*
X031954Y026961D01*
X032260Y026961D02*
X032748Y026961D01*
X032623Y026862D02*
X032385Y026862D01*
X032457Y026764D02*
X032551Y026764D01*
X032508Y026665D02*
X032499Y026665D01*
X032954Y026665D02*
X033054Y026665D01*
X033054Y026764D02*
X032954Y026764D01*
X032954Y026862D02*
X033054Y026862D01*
X033054Y026961D02*
X032954Y026961D01*
X033260Y026961D02*
X033748Y026961D01*
X033623Y026862D02*
X033385Y026862D01*
X033457Y026764D02*
X033551Y026764D01*
X033508Y026665D02*
X033499Y026665D01*
X033954Y026665D02*
X034054Y026665D01*
X034054Y026764D02*
X033954Y026764D01*
X033954Y026862D02*
X034054Y026862D01*
X034054Y026961D02*
X033954Y026961D01*
X034260Y026961D02*
X034748Y026961D01*
X034623Y026862D02*
X034385Y026862D01*
X034457Y026764D02*
X034551Y026764D01*
X034508Y026665D02*
X034499Y026665D01*
X034954Y026665D02*
X035054Y026665D01*
X035054Y026764D02*
X034954Y026764D01*
X034954Y026862D02*
X035054Y026862D01*
X035054Y026961D02*
X034954Y026961D01*
X035260Y026961D02*
X035748Y026961D01*
X035623Y026862D02*
X035385Y026862D01*
X035457Y026764D02*
X035551Y026764D01*
X035508Y026665D02*
X035499Y026665D01*
X035954Y026665D02*
X036054Y026665D01*
X036054Y026764D02*
X035954Y026764D01*
X035954Y026862D02*
X036054Y026862D01*
X036054Y026961D02*
X035954Y026961D01*
X036260Y026961D02*
X036748Y026961D01*
X036623Y026862D02*
X036385Y026862D01*
X036457Y026764D02*
X036551Y026764D01*
X036508Y026665D02*
X036499Y026665D01*
X037054Y026468D02*
X038254Y026468D01*
X038254Y026369D02*
X037506Y026369D01*
X037467Y026271D02*
X038254Y026271D01*
X038254Y026172D02*
X037403Y026172D01*
X037292Y026074D02*
X038254Y026074D01*
X038254Y025975D02*
X037155Y025975D01*
X037328Y025877D02*
X038254Y025877D01*
X038254Y025778D02*
X037422Y025778D01*
X037463Y025680D02*
X038254Y025680D01*
X038254Y025581D02*
X037494Y025581D01*
X037494Y025483D02*
X038254Y025483D01*
X038254Y025384D02*
X037483Y025384D01*
X037442Y025285D02*
X038254Y025285D01*
X038254Y025187D02*
X037376Y025187D01*
X037273Y025088D02*
X038254Y025088D01*
X038254Y024004D02*
X020816Y024004D01*
X020730Y024103D02*
X020717Y024103D01*
X020631Y024201D02*
X020619Y024201D01*
X020570Y024300D02*
X020564Y024300D01*
X021278Y024103D02*
X021730Y024103D01*
X021732Y024100D02*
X021908Y024027D01*
X022099Y024027D01*
X022276Y024100D01*
X022411Y024235D01*
X022484Y024412D01*
X022484Y024603D01*
X022411Y024779D01*
X022276Y024914D01*
X022099Y024987D01*
X021908Y024987D01*
X021732Y024914D01*
X021597Y024779D01*
X021524Y024603D01*
X021524Y024412D01*
X021597Y024235D01*
X021732Y024100D01*
X021631Y024201D02*
X021377Y024201D01*
X021438Y024300D02*
X021570Y024300D01*
X021529Y024399D02*
X021478Y024399D01*
X021484Y024497D02*
X021524Y024497D01*
X021524Y024596D02*
X021484Y024596D01*
X021446Y024694D02*
X021562Y024694D01*
X021610Y024793D02*
X021397Y024793D01*
X021299Y024891D02*
X021709Y024891D01*
X022299Y024891D02*
X022709Y024891D01*
X022610Y024793D02*
X022397Y024793D01*
X022446Y024694D02*
X022562Y024694D01*
X022524Y024596D02*
X022484Y024596D01*
X022484Y024497D02*
X022524Y024497D01*
X022529Y024399D02*
X022478Y024399D01*
X022438Y024300D02*
X022570Y024300D01*
X022631Y024201D02*
X022377Y024201D01*
X022278Y024103D02*
X022730Y024103D01*
X023325Y023118D02*
X018452Y023118D01*
X018353Y023216D02*
X020623Y023216D01*
X020488Y023315D02*
X018255Y023315D01*
X018156Y023413D02*
X020389Y023413D01*
X020291Y023512D02*
X018144Y023512D01*
X018144Y023610D02*
X020192Y023610D01*
X020093Y023709D02*
X018144Y023709D01*
X018144Y023807D02*
X019995Y023807D01*
X019898Y023906D02*
X018144Y023906D01*
X018144Y024004D02*
X019857Y024004D01*
X019844Y024103D02*
X019278Y024103D01*
X019276Y024100D02*
X019411Y024235D01*
X019484Y024412D01*
X019484Y024603D01*
X019411Y024779D01*
X019276Y024914D01*
X019099Y024987D01*
X018908Y024987D01*
X018732Y024914D01*
X018597Y024779D01*
X018524Y024603D01*
X018524Y024412D01*
X018597Y024235D01*
X018732Y024100D01*
X018908Y024027D01*
X019099Y024027D01*
X019276Y024100D01*
X019377Y024201D02*
X019844Y024201D01*
X019844Y024300D02*
X019438Y024300D01*
X019478Y024399D02*
X019844Y024399D01*
X019844Y024497D02*
X019484Y024497D01*
X019484Y024596D02*
X019844Y024596D01*
X019844Y024694D02*
X019446Y024694D01*
X019397Y024793D02*
X019844Y024793D01*
X019844Y024891D02*
X019299Y024891D01*
X019824Y025187D02*
X018624Y025187D01*
X018624Y025285D02*
X019824Y025285D01*
X018709Y024891D02*
X018299Y024891D01*
X018397Y024793D02*
X018610Y024793D01*
X018562Y024694D02*
X018446Y024694D01*
X018484Y024596D02*
X018524Y024596D01*
X018524Y024497D02*
X018484Y024497D01*
X018478Y024399D02*
X018529Y024399D01*
X018570Y024300D02*
X018438Y024300D01*
X018377Y024201D02*
X018631Y024201D01*
X018730Y024103D02*
X018278Y024103D01*
X017864Y024004D02*
X017165Y024004D01*
X017263Y023906D02*
X017864Y023906D01*
X017864Y023807D02*
X017362Y023807D01*
X017461Y023709D02*
X017864Y023709D01*
X017864Y023610D02*
X017559Y023610D01*
X017658Y023512D02*
X017864Y023512D01*
X017864Y023413D02*
X017756Y023413D01*
X017855Y023315D02*
X017864Y023315D01*
X017953Y023216D02*
X017957Y023216D01*
X018052Y023118D02*
X018056Y023118D01*
X018150Y023019D02*
X018154Y023019D01*
X018249Y022920D02*
X018253Y022920D01*
X018347Y022822D02*
X018351Y022822D01*
X018446Y022723D02*
X018450Y022723D01*
X018544Y022625D02*
X018549Y022625D01*
X018643Y022526D02*
X018647Y022526D01*
X018742Y022428D02*
X018746Y022428D01*
X018840Y022329D02*
X018844Y022329D01*
X018939Y022231D02*
X018943Y022231D01*
X019037Y022132D02*
X019041Y022132D01*
X019136Y022034D02*
X019140Y022034D01*
X019234Y021935D02*
X019238Y021935D01*
X019333Y021836D02*
X019337Y021836D01*
X019431Y021738D02*
X019435Y021738D01*
X019530Y021639D02*
X019534Y021639D01*
X019628Y021541D02*
X019632Y021541D01*
X019727Y021442D02*
X019731Y021442D01*
X019826Y021344D02*
X019830Y021344D01*
X019924Y021245D02*
X019928Y021245D01*
X020023Y021147D02*
X020027Y021147D01*
X020121Y021048D02*
X020125Y021048D01*
X020220Y020950D02*
X020224Y020950D01*
X020318Y020851D02*
X020322Y020851D01*
X020417Y020752D02*
X020421Y020752D01*
X020515Y020654D02*
X020519Y020654D01*
X020614Y020555D02*
X020618Y020555D01*
X020712Y020457D02*
X020716Y020457D01*
X020811Y020358D02*
X020815Y020358D01*
X020910Y020260D02*
X020914Y020260D01*
X021008Y020161D02*
X021012Y020161D01*
X021107Y020063D02*
X021111Y020063D01*
X021205Y019964D02*
X021209Y019964D01*
X021304Y019866D02*
X021308Y019866D01*
X021402Y019767D02*
X021406Y019767D01*
X021501Y019669D02*
X021505Y019669D01*
X021599Y019570D02*
X021603Y019570D01*
X021698Y019471D02*
X021702Y019471D01*
X021796Y019373D02*
X021800Y019373D01*
X021895Y019274D02*
X021899Y019274D01*
X021994Y019176D02*
X021998Y019176D01*
X022092Y019077D02*
X022096Y019077D01*
X022191Y018979D02*
X022195Y018979D01*
X022289Y018880D02*
X022293Y018880D01*
X022388Y018782D02*
X022392Y018782D01*
X022591Y018979D02*
X022864Y018979D01*
X022864Y019077D02*
X022492Y019077D01*
X022394Y019176D02*
X022864Y019176D01*
X022864Y019274D02*
X022295Y019274D01*
X022196Y019373D02*
X022864Y019373D01*
X022864Y019471D02*
X022098Y019471D01*
X021999Y019570D02*
X022864Y019570D01*
X022864Y019669D02*
X021901Y019669D01*
X021802Y019767D02*
X022864Y019767D01*
X022864Y019866D02*
X021704Y019866D01*
X021605Y019964D02*
X022864Y019964D01*
X022864Y020063D02*
X021507Y020063D01*
X021408Y020161D02*
X022864Y020161D01*
X022864Y020260D02*
X021310Y020260D01*
X021211Y020358D02*
X022864Y020358D01*
X022864Y020457D02*
X021112Y020457D01*
X021014Y020555D02*
X022864Y020555D01*
X022864Y020654D02*
X020915Y020654D01*
X020817Y020752D02*
X022864Y020752D01*
X022864Y020851D02*
X020718Y020851D01*
X020620Y020950D02*
X022864Y020950D01*
X022588Y021048D02*
X020521Y021048D01*
X020423Y021147D02*
X022507Y021147D01*
X022479Y021245D02*
X020324Y021245D01*
X020226Y021344D02*
X022489Y021344D01*
X022544Y021442D02*
X020127Y021442D01*
X020028Y021541D02*
X022513Y021541D01*
X022414Y021639D02*
X019930Y021639D01*
X019831Y021738D02*
X022315Y021738D01*
X022217Y021836D02*
X019733Y021836D01*
X019634Y021935D02*
X022118Y021935D01*
X022317Y022132D02*
X022373Y022132D01*
X022339Y022231D02*
X022289Y022231D01*
X022269Y022329D02*
X022343Y022329D01*
X022390Y022428D02*
X022198Y022428D01*
X021850Y022428D02*
X019142Y022428D01*
X019240Y022329D02*
X021779Y022329D01*
X021759Y022231D02*
X019339Y022231D01*
X019437Y022132D02*
X021777Y022132D01*
X021843Y022034D02*
X019536Y022034D01*
X019035Y021738D02*
X018484Y021738D01*
X018484Y021836D02*
X018937Y021836D01*
X018838Y021935D02*
X018484Y021935D01*
X018484Y021929D02*
X018484Y022045D01*
X017725Y022805D01*
X017729Y022815D01*
X017729Y022920D01*
X017689Y023017D01*
X017614Y023092D01*
X017517Y023132D01*
X017411Y023132D01*
X017364Y023113D01*
X017369Y023117D01*
X017409Y023215D01*
X017409Y023320D01*
X017378Y023396D01*
X021496Y019277D01*
X020469Y019277D01*
X020414Y019332D01*
X020317Y019372D01*
X020211Y019372D01*
X020114Y019332D01*
X020039Y019257D01*
X019999Y019160D01*
X019999Y019055D01*
X020039Y018957D01*
X020044Y018953D01*
X019997Y018972D01*
X019891Y018972D01*
X019881Y018968D01*
X018367Y020482D01*
X018397Y020482D01*
X018494Y020523D01*
X018569Y020597D01*
X018609Y020695D01*
X018609Y020800D01*
X018569Y020897D01*
X018494Y020972D01*
X018484Y020976D01*
X018484Y021929D01*
X018484Y022034D02*
X018740Y022034D01*
X018641Y022132D02*
X018397Y022132D01*
X018299Y022231D02*
X018543Y022231D01*
X018444Y022329D02*
X018200Y022329D01*
X018102Y022428D02*
X018346Y022428D01*
X018247Y022526D02*
X018003Y022526D01*
X017904Y022625D02*
X018149Y022625D01*
X018050Y022723D02*
X017806Y022723D01*
X017729Y022822D02*
X017951Y022822D01*
X017853Y022920D02*
X017729Y022920D01*
X017754Y023019D02*
X017687Y023019D01*
X017656Y023118D02*
X017552Y023118D01*
X017557Y023216D02*
X017409Y023216D01*
X017409Y023315D02*
X017459Y023315D01*
X017375Y023118D02*
X017369Y023118D01*
X016684Y023315D02*
X001754Y023315D01*
X001754Y023413D02*
X016623Y023413D01*
X016568Y023512D02*
X001754Y023512D01*
X001754Y023610D02*
X016559Y023610D01*
X016587Y023709D02*
X001754Y023709D01*
X001754Y023807D02*
X016669Y023807D01*
X016867Y023906D02*
X001754Y023906D01*
X001754Y024004D02*
X016864Y024004D01*
X016730Y024103D02*
X016278Y024103D01*
X016276Y024100D02*
X016411Y024235D01*
X016484Y024412D01*
X016484Y024603D01*
X016411Y024779D01*
X016276Y024914D01*
X016099Y024987D01*
X015908Y024987D01*
X015732Y024914D01*
X015597Y024779D01*
X015524Y024603D01*
X015524Y024412D01*
X015597Y024235D01*
X015732Y024100D01*
X015908Y024027D01*
X016099Y024027D01*
X016276Y024100D01*
X016377Y024201D02*
X016631Y024201D01*
X016570Y024300D02*
X016438Y024300D01*
X016478Y024399D02*
X016529Y024399D01*
X016524Y024497D02*
X016484Y024497D01*
X016484Y024596D02*
X016524Y024596D01*
X016562Y024694D02*
X016446Y024694D01*
X016397Y024793D02*
X016610Y024793D01*
X016709Y024891D02*
X016299Y024891D01*
X015709Y024891D02*
X015299Y024891D01*
X015276Y024914D02*
X015099Y024987D01*
X014908Y024987D01*
X014732Y024914D01*
X014597Y024779D01*
X014524Y024603D01*
X014524Y024412D01*
X014597Y024235D01*
X014732Y024100D01*
X014908Y024027D01*
X015099Y024027D01*
X015276Y024100D01*
X015411Y024235D01*
X015484Y024412D01*
X015484Y024603D01*
X015411Y024779D01*
X015276Y024914D01*
X015397Y024793D02*
X015610Y024793D01*
X015562Y024694D02*
X015446Y024694D01*
X015484Y024596D02*
X015524Y024596D01*
X015524Y024497D02*
X015484Y024497D01*
X015478Y024399D02*
X015529Y024399D01*
X015570Y024300D02*
X015438Y024300D01*
X015377Y024201D02*
X015631Y024201D01*
X015730Y024103D02*
X015278Y024103D01*
X014730Y024103D02*
X014278Y024103D01*
X014276Y024100D02*
X014411Y024235D01*
X014484Y024412D01*
X014484Y024603D01*
X014411Y024779D01*
X014276Y024914D01*
X014099Y024987D01*
X013908Y024987D01*
X013732Y024914D01*
X013597Y024779D01*
X013524Y024603D01*
X013524Y024412D01*
X013597Y024235D01*
X013732Y024100D01*
X013908Y024027D01*
X014099Y024027D01*
X014276Y024100D01*
X014377Y024201D02*
X014631Y024201D01*
X014570Y024300D02*
X014438Y024300D01*
X014478Y024399D02*
X014529Y024399D01*
X014524Y024497D02*
X014484Y024497D01*
X014484Y024596D02*
X014524Y024596D01*
X014562Y024694D02*
X014446Y024694D01*
X014397Y024793D02*
X014610Y024793D01*
X014709Y024891D02*
X014299Y024891D01*
X013709Y024891D02*
X013299Y024891D01*
X013276Y024914D02*
X013099Y024987D01*
X012908Y024987D01*
X012732Y024914D01*
X012597Y024779D01*
X012524Y024603D01*
X012524Y024412D01*
X012597Y024235D01*
X012732Y024100D01*
X012908Y024027D01*
X013099Y024027D01*
X013276Y024100D01*
X013411Y024235D01*
X013484Y024412D01*
X013484Y024603D01*
X013411Y024779D01*
X013276Y024914D01*
X013397Y024793D02*
X013610Y024793D01*
X013562Y024694D02*
X013446Y024694D01*
X013484Y024596D02*
X013524Y024596D01*
X013524Y024497D02*
X013484Y024497D01*
X013478Y024399D02*
X013529Y024399D01*
X013570Y024300D02*
X013438Y024300D01*
X013377Y024201D02*
X013631Y024201D01*
X013730Y024103D02*
X013278Y024103D01*
X012730Y024103D02*
X012278Y024103D01*
X012276Y024100D02*
X012411Y024235D01*
X012484Y024412D01*
X012484Y024603D01*
X012411Y024779D01*
X012276Y024914D01*
X012099Y024987D01*
X011908Y024987D01*
X011732Y024914D01*
X011597Y024779D01*
X011524Y024603D01*
X011524Y024412D01*
X011597Y024235D01*
X011732Y024100D01*
X011908Y024027D01*
X012099Y024027D01*
X012276Y024100D01*
X012377Y024201D02*
X012631Y024201D01*
X012570Y024300D02*
X012438Y024300D01*
X012478Y024399D02*
X012529Y024399D01*
X012524Y024497D02*
X012484Y024497D01*
X012484Y024596D02*
X012524Y024596D01*
X012562Y024694D02*
X012446Y024694D01*
X012397Y024793D02*
X012610Y024793D01*
X012709Y024891D02*
X012299Y024891D01*
X011709Y024891D02*
X011299Y024891D01*
X011276Y024914D02*
X011099Y024987D01*
X010908Y024987D01*
X010732Y024914D01*
X010597Y024779D01*
X010524Y024603D01*
X010524Y024412D01*
X010597Y024235D01*
X010732Y024100D01*
X010908Y024027D01*
X011099Y024027D01*
X011276Y024100D01*
X011411Y024235D01*
X011484Y024412D01*
X011484Y024603D01*
X011411Y024779D01*
X011276Y024914D01*
X011397Y024793D02*
X011610Y024793D01*
X011562Y024694D02*
X011446Y024694D01*
X011484Y024596D02*
X011524Y024596D01*
X011524Y024497D02*
X011484Y024497D01*
X011478Y024399D02*
X011529Y024399D01*
X011570Y024300D02*
X011438Y024300D01*
X011377Y024201D02*
X011631Y024201D01*
X011730Y024103D02*
X011278Y024103D01*
X010730Y024103D02*
X010278Y024103D01*
X010276Y024100D02*
X010411Y024235D01*
X010484Y024412D01*
X010484Y024603D01*
X010411Y024779D01*
X010276Y024914D01*
X010099Y024987D01*
X009908Y024987D01*
X009732Y024914D01*
X009597Y024779D01*
X009524Y024603D01*
X009524Y024412D01*
X009597Y024235D01*
X009732Y024100D01*
X009908Y024027D01*
X010099Y024027D01*
X010276Y024100D01*
X010377Y024201D02*
X010631Y024201D01*
X010570Y024300D02*
X010438Y024300D01*
X010478Y024399D02*
X010529Y024399D01*
X010524Y024497D02*
X010484Y024497D01*
X010484Y024596D02*
X010524Y024596D01*
X010562Y024694D02*
X010446Y024694D01*
X010397Y024793D02*
X010610Y024793D01*
X010709Y024891D02*
X010299Y024891D01*
X009709Y024891D02*
X009299Y024891D01*
X009276Y024914D02*
X009099Y024987D01*
X008908Y024987D01*
X008732Y024914D01*
X008597Y024779D01*
X008524Y024603D01*
X008524Y024412D01*
X008597Y024235D01*
X008732Y024100D01*
X008908Y024027D01*
X009099Y024027D01*
X009276Y024100D01*
X009411Y024235D01*
X009484Y024412D01*
X009484Y024603D01*
X009411Y024779D01*
X009276Y024914D01*
X009397Y024793D02*
X009610Y024793D01*
X009562Y024694D02*
X009446Y024694D01*
X009484Y024596D02*
X009524Y024596D01*
X009524Y024497D02*
X009484Y024497D01*
X009478Y024399D02*
X009529Y024399D01*
X009570Y024300D02*
X009438Y024300D01*
X009377Y024201D02*
X009631Y024201D01*
X009730Y024103D02*
X009278Y024103D01*
X008730Y024103D02*
X008278Y024103D01*
X008276Y024100D02*
X008411Y024235D01*
X008484Y024412D01*
X008484Y024603D01*
X008411Y024779D01*
X008276Y024914D01*
X008099Y024987D01*
X007908Y024987D01*
X007732Y024914D01*
X007597Y024779D01*
X007524Y024603D01*
X007524Y024412D01*
X007597Y024235D01*
X007732Y024100D01*
X007908Y024027D01*
X008099Y024027D01*
X008276Y024100D01*
X008377Y024201D02*
X008631Y024201D01*
X008570Y024300D02*
X008438Y024300D01*
X008478Y024399D02*
X008529Y024399D01*
X008524Y024497D02*
X008484Y024497D01*
X008484Y024596D02*
X008524Y024596D01*
X008562Y024694D02*
X008446Y024694D01*
X008397Y024793D02*
X008610Y024793D01*
X008709Y024891D02*
X008299Y024891D01*
X007709Y024891D02*
X007299Y024891D01*
X007276Y024914D02*
X007099Y024987D01*
X006908Y024987D01*
X006732Y024914D01*
X006597Y024779D01*
X006524Y024603D01*
X006524Y024412D01*
X006597Y024235D01*
X006732Y024100D01*
X006908Y024027D01*
X007099Y024027D01*
X007276Y024100D01*
X007411Y024235D01*
X007484Y024412D01*
X007484Y024603D01*
X007411Y024779D01*
X007276Y024914D01*
X007397Y024793D02*
X007610Y024793D01*
X007562Y024694D02*
X007446Y024694D01*
X007484Y024596D02*
X007524Y024596D01*
X007524Y024497D02*
X007484Y024497D01*
X007478Y024399D02*
X007529Y024399D01*
X007570Y024300D02*
X007438Y024300D01*
X007377Y024201D02*
X007631Y024201D01*
X007730Y024103D02*
X007278Y024103D01*
X006730Y024103D02*
X006278Y024103D01*
X006276Y024100D02*
X006411Y024235D01*
X006484Y024412D01*
X006484Y024603D01*
X006411Y024779D01*
X006276Y024914D01*
X006099Y024987D01*
X005908Y024987D01*
X005732Y024914D01*
X005597Y024779D01*
X005524Y024603D01*
X005524Y024412D01*
X005597Y024235D01*
X005732Y024100D01*
X005908Y024027D01*
X006099Y024027D01*
X006276Y024100D01*
X006377Y024201D02*
X006631Y024201D01*
X006570Y024300D02*
X006438Y024300D01*
X006478Y024399D02*
X006529Y024399D01*
X006524Y024497D02*
X006484Y024497D01*
X006484Y024596D02*
X006524Y024596D01*
X006562Y024694D02*
X006446Y024694D01*
X006397Y024793D02*
X006610Y024793D01*
X006709Y024891D02*
X006299Y024891D01*
X005709Y024891D02*
X005299Y024891D01*
X005276Y024914D02*
X005099Y024987D01*
X004908Y024987D01*
X004732Y024914D01*
X004597Y024779D01*
X004524Y024603D01*
X004524Y024412D01*
X004597Y024235D01*
X004732Y024100D01*
X004908Y024027D01*
X005099Y024027D01*
X005276Y024100D01*
X005411Y024235D01*
X005484Y024412D01*
X005484Y024603D01*
X005411Y024779D01*
X005276Y024914D01*
X005397Y024793D02*
X005610Y024793D01*
X005562Y024694D02*
X005446Y024694D01*
X005484Y024596D02*
X005524Y024596D01*
X005524Y024497D02*
X005484Y024497D01*
X005478Y024399D02*
X005529Y024399D01*
X005570Y024300D02*
X005438Y024300D01*
X005377Y024201D02*
X005631Y024201D01*
X005730Y024103D02*
X005278Y024103D01*
X004730Y024103D02*
X004278Y024103D01*
X004276Y024100D02*
X004411Y024235D01*
X004484Y024412D01*
X004484Y024603D01*
X004411Y024779D01*
X004276Y024914D01*
X004099Y024987D01*
X003908Y024987D01*
X003732Y024914D01*
X003597Y024779D01*
X003524Y024603D01*
X003524Y024412D01*
X003597Y024235D01*
X003732Y024100D01*
X003908Y024027D01*
X004099Y024027D01*
X004276Y024100D01*
X004377Y024201D02*
X004631Y024201D01*
X004570Y024300D02*
X004438Y024300D01*
X004478Y024399D02*
X004529Y024399D01*
X004524Y024497D02*
X004484Y024497D01*
X004484Y024596D02*
X004524Y024596D01*
X004562Y024694D02*
X004446Y024694D01*
X004397Y024793D02*
X004610Y024793D01*
X004709Y024891D02*
X004299Y024891D01*
X003709Y024891D02*
X003299Y024891D01*
X003276Y024914D02*
X003099Y024987D01*
X002908Y024987D01*
X002732Y024914D01*
X002597Y024779D01*
X002524Y024603D01*
X002524Y024412D01*
X002597Y024235D01*
X002732Y024100D01*
X002908Y024027D01*
X003099Y024027D01*
X003276Y024100D01*
X003411Y024235D01*
X003484Y024412D01*
X003484Y024603D01*
X003411Y024779D01*
X003276Y024914D01*
X003397Y024793D02*
X003610Y024793D01*
X003562Y024694D02*
X003446Y024694D01*
X003484Y024596D02*
X003524Y024596D01*
X003524Y024497D02*
X003484Y024497D01*
X003478Y024399D02*
X003529Y024399D01*
X003570Y024300D02*
X003438Y024300D01*
X003377Y024201D02*
X003631Y024201D01*
X003730Y024103D02*
X003278Y024103D01*
X002730Y024103D02*
X001754Y024103D01*
X001754Y024201D02*
X002631Y024201D01*
X002570Y024300D02*
X001754Y024300D01*
X001754Y024399D02*
X002529Y024399D01*
X002524Y024497D02*
X001754Y024497D01*
X001754Y024596D02*
X002524Y024596D01*
X002562Y024694D02*
X001754Y024694D01*
X001754Y024793D02*
X002610Y024793D01*
X002709Y024891D02*
X001754Y024891D01*
X001754Y023216D02*
X016655Y023216D01*
X016556Y023118D02*
X001754Y023118D01*
X001754Y023019D02*
X016458Y023019D01*
X016359Y022920D02*
X001754Y022920D01*
X001754Y022822D02*
X016260Y022822D01*
X016162Y022723D02*
X001754Y022723D01*
X001754Y022625D02*
X016063Y022625D01*
X015965Y022526D02*
X001754Y022526D01*
X001754Y022428D02*
X015866Y022428D01*
X015768Y022329D02*
X012724Y022329D01*
X012604Y022329D02*
X001754Y022329D01*
X001754Y022231D02*
X010079Y022231D01*
X009957Y022132D02*
X001754Y022132D01*
X001754Y022034D02*
X009919Y022034D01*
X010094Y021738D02*
X001754Y021738D01*
X001754Y021639D02*
X009461Y021639D01*
X009384Y021541D02*
X001754Y021541D01*
X001754Y021442D02*
X009359Y021442D01*
X009342Y021344D02*
X001754Y021344D01*
X001754Y021245D02*
X009244Y021245D01*
X009164Y021147D02*
X001754Y021147D01*
X001754Y021048D02*
X009164Y021048D01*
X009164Y020950D02*
X001754Y020950D01*
X001754Y020851D02*
X009164Y020851D01*
X009164Y020752D02*
X001754Y020752D01*
X001754Y020654D02*
X009239Y020654D01*
X009338Y020555D02*
X001754Y020555D01*
X001754Y020457D02*
X009436Y020457D01*
X009518Y020358D02*
X001754Y020358D01*
X001754Y020260D02*
X014338Y020260D01*
X014240Y020161D02*
X001754Y020161D01*
X001754Y020063D02*
X014141Y020063D01*
X014043Y019964D02*
X010485Y019964D01*
X010584Y019866D02*
X013944Y019866D01*
X013846Y019767D02*
X010682Y019767D01*
X010781Y019669D02*
X013747Y019669D01*
X013649Y019570D02*
X010879Y019570D01*
X010978Y019471D02*
X013550Y019471D01*
X013451Y019373D02*
X011076Y019373D01*
X011175Y019274D02*
X013353Y019274D01*
X013254Y019176D02*
X011274Y019176D01*
X011372Y019077D02*
X013156Y019077D01*
X013057Y018979D02*
X011471Y018979D01*
X010583Y018190D02*
X001754Y018190D01*
X001754Y018092D02*
X010650Y018092D01*
X010552Y017993D02*
X001754Y017993D01*
X001754Y017895D02*
X010453Y017895D01*
X010355Y017796D02*
X001754Y017796D01*
X001754Y017698D02*
X010256Y017698D01*
X010158Y017599D02*
X001754Y017599D01*
X001754Y017501D02*
X010059Y017501D01*
X009961Y017402D02*
X001754Y017402D01*
X001754Y017303D02*
X009862Y017303D01*
X009764Y017205D02*
X001754Y017205D01*
X001754Y017106D02*
X009665Y017106D01*
X009566Y017008D02*
X001754Y017008D01*
X001754Y016909D02*
X009468Y016909D01*
X009369Y016811D02*
X001754Y016811D01*
X001754Y016712D02*
X009271Y016712D01*
X009172Y016614D02*
X001754Y016614D01*
X001754Y018289D02*
X010484Y018289D01*
X010386Y018387D02*
X001754Y018387D01*
X001754Y018486D02*
X010287Y018486D01*
X010189Y018585D02*
X001754Y018585D01*
X001754Y018683D02*
X010090Y018683D01*
X009992Y018782D02*
X008363Y018782D01*
X008490Y018880D02*
X009893Y018880D01*
X009795Y018979D02*
X008529Y018979D01*
X008529Y019077D02*
X009696Y019077D01*
X009598Y019176D02*
X008610Y019176D01*
X008709Y019274D02*
X009499Y019274D01*
X009464Y019373D02*
X008807Y019373D01*
X008906Y019471D02*
X009385Y019471D01*
X009359Y019570D02*
X009004Y019570D01*
X008806Y019767D02*
X001754Y019767D01*
X001754Y019669D02*
X008707Y019669D01*
X008609Y019570D02*
X001754Y019570D01*
X001754Y019471D02*
X008510Y019471D01*
X008411Y019373D02*
X001754Y019373D01*
X001754Y019274D02*
X008168Y019274D01*
X008039Y019176D02*
X001754Y019176D01*
X001754Y019077D02*
X007999Y019077D01*
X007999Y018979D02*
X001754Y018979D01*
X001754Y018880D02*
X008038Y018880D01*
X008165Y018782D02*
X001754Y018782D01*
X001754Y019866D02*
X008904Y019866D01*
X009003Y019964D02*
X001754Y019964D01*
X005259Y016515D02*
X009074Y016515D01*
X008975Y016417D02*
X005259Y016417D01*
X005259Y016318D02*
X008924Y016318D01*
X008924Y016219D02*
X005259Y016219D01*
X005259Y016121D02*
X008924Y016121D01*
X008924Y016022D02*
X005259Y016022D01*
X005259Y015924D02*
X008924Y015924D01*
X008924Y015825D02*
X005259Y015825D01*
X005259Y015727D02*
X008924Y015727D01*
X008924Y015628D02*
X005259Y015628D01*
X005259Y015530D02*
X008924Y015530D01*
X008924Y015431D02*
X005259Y015431D01*
X005259Y015333D02*
X008924Y015333D01*
X008924Y015234D02*
X005259Y015234D01*
X005259Y015136D02*
X008924Y015136D01*
X008924Y015037D02*
X005259Y015037D01*
X005259Y014938D02*
X008924Y014938D01*
X008924Y014840D02*
X005259Y014840D01*
X005259Y014741D02*
X008924Y014741D01*
X008924Y014643D02*
X005259Y014643D01*
X005259Y014544D02*
X008924Y014544D01*
X008924Y014446D02*
X005259Y014446D01*
X005259Y014347D02*
X008924Y014347D01*
X008924Y014249D02*
X005259Y014249D01*
X005259Y014150D02*
X008852Y014150D01*
X008804Y014052D02*
X005259Y014052D01*
X005259Y013953D02*
X008799Y013953D01*
X008832Y013854D02*
X005259Y013854D01*
X005259Y013756D02*
X008930Y013756D01*
X009197Y013756D02*
X009570Y013756D01*
X009472Y013854D02*
X009296Y013854D01*
X009329Y013953D02*
X009439Y013953D01*
X009444Y014052D02*
X009324Y014052D01*
X009276Y014150D02*
X009492Y014150D01*
X009642Y014249D02*
X009204Y014249D01*
X009204Y014347D02*
X009866Y014347D01*
X009964Y014446D02*
X009204Y014446D01*
X009204Y014544D02*
X010063Y014544D01*
X010161Y014643D02*
X009204Y014643D01*
X009204Y014741D02*
X010260Y014741D01*
X010358Y014840D02*
X009204Y014840D01*
X009204Y014938D02*
X010457Y014938D01*
X010556Y015037D02*
X009204Y015037D01*
X009204Y015136D02*
X010654Y015136D01*
X010739Y015234D02*
X009204Y015234D01*
X009204Y015333D02*
X010641Y015333D01*
X010542Y015431D02*
X009204Y015431D01*
X009204Y015530D02*
X010267Y015530D01*
X010186Y015628D02*
X009204Y015628D01*
X009204Y015727D02*
X010159Y015727D01*
X010169Y015825D02*
X009204Y015825D01*
X009204Y015924D02*
X010226Y015924D01*
X010297Y016219D02*
X009204Y016219D01*
X009204Y016121D02*
X012440Y016121D01*
X012217Y016219D02*
X010711Y016219D01*
X010622Y015924D02*
X011442Y015924D01*
X011344Y015825D02*
X010678Y015825D01*
X010689Y015727D02*
X011245Y015727D01*
X011147Y015628D02*
X010741Y015628D01*
X010840Y015530D02*
X011048Y015530D01*
X010950Y015431D02*
X010938Y015431D01*
X011149Y015234D02*
X013153Y015234D01*
X013251Y015333D02*
X011247Y015333D01*
X011346Y015431D02*
X013350Y015431D01*
X013448Y015530D02*
X011444Y015530D01*
X011543Y015628D02*
X013547Y015628D01*
X013645Y015727D02*
X011641Y015727D01*
X011541Y016022D02*
X009204Y016022D01*
X009273Y016318D02*
X010246Y016318D01*
X010239Y016417D02*
X009371Y016417D01*
X009470Y016515D02*
X010270Y016515D01*
X010143Y016614D02*
X009568Y016614D01*
X009667Y016712D02*
X010088Y016712D01*
X010079Y016811D02*
X009765Y016811D01*
X009864Y016909D02*
X010108Y016909D01*
X010190Y017008D02*
X009962Y017008D01*
X010061Y017106D02*
X010465Y017106D01*
X010563Y017205D02*
X010159Y017205D01*
X010258Y017303D02*
X011605Y017303D01*
X011963Y017303D02*
X013302Y017303D01*
X013401Y017402D02*
X010357Y017402D01*
X010455Y017501D02*
X013499Y017501D01*
X013598Y017599D02*
X010554Y017599D01*
X010652Y017698D02*
X013696Y017698D01*
X013795Y017796D02*
X010751Y017796D01*
X010849Y017895D02*
X013893Y017895D01*
X013992Y017993D02*
X010948Y017993D01*
X012030Y017205D02*
X013073Y017205D01*
X012928Y017106D02*
X012049Y017106D01*
X012029Y017008D02*
X012882Y017008D01*
X012879Y016909D02*
X011961Y016909D01*
X011607Y016909D02*
X010664Y016909D01*
X010609Y016811D02*
X012914Y016811D01*
X013004Y016712D02*
X010600Y016712D01*
X010650Y016614D02*
X012278Y016614D01*
X012570Y016614D02*
X012932Y016614D01*
X012834Y016515D02*
X012658Y016515D01*
X012689Y016417D02*
X012735Y016417D01*
X012934Y016219D02*
X013544Y016219D01*
X013519Y016121D02*
X012835Y016121D01*
X012737Y016022D02*
X013532Y016022D01*
X013593Y015924D02*
X012638Y015924D01*
X012540Y015825D02*
X013744Y015825D01*
X013943Y015628D02*
X015484Y015628D01*
X015484Y015530D02*
X013844Y015530D01*
X013746Y015431D02*
X015484Y015431D01*
X015484Y015333D02*
X013647Y015333D01*
X013549Y015234D02*
X015484Y015234D01*
X015484Y015176D02*
X015474Y015172D01*
X015399Y015097D01*
X015359Y015000D01*
X015359Y014895D01*
X015399Y014797D01*
X015474Y014723D01*
X015564Y014685D01*
X015486Y014607D01*
X015449Y014697D01*
X015374Y014772D01*
X015277Y014812D01*
X015171Y014812D01*
X015074Y014772D01*
X014999Y014697D01*
X014959Y014600D01*
X014959Y014495D01*
X014999Y014397D01*
X015018Y014379D01*
X014684Y014045D01*
X014684Y014319D01*
X014694Y014323D01*
X014769Y014397D01*
X014809Y014495D01*
X014809Y014600D01*
X014769Y014697D01*
X014694Y014772D01*
X014597Y014812D01*
X014491Y014812D01*
X014394Y014772D01*
X014319Y014697D01*
X014279Y014600D01*
X014279Y014495D01*
X014280Y014492D01*
X014211Y014492D01*
X014114Y014452D01*
X014039Y014377D01*
X014035Y014367D01*
X012859Y014367D01*
X012889Y014397D01*
X012929Y014495D01*
X012929Y014600D01*
X012925Y014610D01*
X015722Y017407D01*
X017435Y017407D01*
X017439Y017397D01*
X017514Y017323D01*
X017611Y017282D01*
X017679Y017282D01*
X017679Y017215D01*
X017719Y017117D01*
X017794Y017043D01*
X017884Y017005D01*
X015886Y015007D01*
X015849Y015097D01*
X015774Y015172D01*
X015764Y015176D01*
X015764Y016479D01*
X015774Y016483D01*
X015849Y016557D01*
X015889Y016655D01*
X015889Y016760D01*
X015849Y016857D01*
X015774Y016932D01*
X015677Y016972D01*
X015571Y016972D01*
X015474Y016932D01*
X015399Y016857D01*
X015359Y016760D01*
X015359Y016655D01*
X015399Y016557D01*
X015474Y016483D01*
X015484Y016479D01*
X015484Y015176D01*
X015437Y015136D02*
X013450Y015136D01*
X013351Y015037D02*
X015374Y015037D01*
X015359Y014938D02*
X013253Y014938D01*
X013154Y014840D02*
X015382Y014840D01*
X015405Y014741D02*
X015455Y014741D01*
X015471Y014643D02*
X015521Y014643D01*
X015043Y014741D02*
X014725Y014741D01*
X014791Y014643D02*
X014977Y014643D01*
X014959Y014544D02*
X014809Y014544D01*
X014789Y014446D02*
X014979Y014446D01*
X014986Y014347D02*
X014718Y014347D01*
X014684Y014249D02*
X014887Y014249D01*
X014789Y014150D02*
X014684Y014150D01*
X014684Y014052D02*
X014690Y014052D01*
X014352Y013953D02*
X009969Y013953D01*
X009966Y014052D02*
X014065Y014052D01*
X014253Y013854D02*
X009936Y013854D01*
X009837Y013756D02*
X014154Y013756D01*
X014056Y013657D02*
X005259Y013657D01*
X005259Y013559D02*
X013621Y013559D01*
X013544Y013460D02*
X005259Y013460D01*
X005259Y013362D02*
X013519Y013362D01*
X013947Y013559D02*
X013957Y013559D01*
X014108Y014446D02*
X012909Y014446D01*
X012929Y014544D02*
X014279Y014544D01*
X014297Y014643D02*
X012957Y014643D01*
X013056Y014741D02*
X014363Y014741D01*
X013054Y015136D02*
X011050Y015136D01*
X010951Y015037D02*
X012956Y015037D01*
X012857Y014938D02*
X010853Y014938D01*
X010754Y014840D02*
X012758Y014840D01*
X012483Y014741D02*
X010656Y014741D01*
X010557Y014643D02*
X012065Y014643D01*
X012009Y014544D02*
X010459Y014544D01*
X010360Y014446D02*
X011999Y014446D01*
X012027Y014347D02*
X010262Y014347D01*
X010163Y014249D02*
X012108Y014249D01*
X012383Y014150D02*
X010065Y014150D01*
X009766Y014249D02*
X009767Y014249D01*
X009742Y013263D02*
X005259Y013263D01*
X005259Y013165D02*
X009643Y013165D01*
X009545Y013066D02*
X005259Y013066D01*
X005259Y012968D02*
X009446Y012968D01*
X009404Y012869D02*
X005259Y012869D01*
X005259Y012770D02*
X009404Y012770D01*
X009404Y012672D02*
X005259Y012672D01*
X005259Y012573D02*
X009404Y012573D01*
X009404Y012475D02*
X005259Y012475D01*
X005259Y012376D02*
X009404Y012376D01*
X009404Y012278D02*
X005259Y012278D01*
X005259Y012179D02*
X009404Y012179D01*
X009404Y012081D02*
X005259Y012081D01*
X005259Y011982D02*
X009404Y011982D01*
X009404Y011884D02*
X005259Y011884D01*
X005259Y011785D02*
X009404Y011785D01*
X009404Y011686D02*
X005259Y011686D01*
X005259Y011588D02*
X009404Y011588D01*
X009404Y011489D02*
X005259Y011489D01*
X005259Y011391D02*
X009404Y011391D01*
X009404Y011292D02*
X005259Y011292D01*
X005259Y011194D02*
X009404Y011194D01*
X009404Y011095D02*
X005259Y011095D01*
X005259Y010997D02*
X009404Y010997D01*
X009404Y010898D02*
X005259Y010898D01*
X005259Y010800D02*
X009404Y010800D01*
X009404Y010701D02*
X005259Y010701D01*
X005259Y010603D02*
X009313Y010603D01*
X009279Y010504D02*
X005259Y010504D01*
X005259Y010405D02*
X009283Y010405D01*
X009330Y010307D02*
X005259Y010307D01*
X005259Y010208D02*
X006507Y010208D01*
X006408Y010110D02*
X005259Y010110D01*
X005259Y010011D02*
X006310Y010011D01*
X006211Y009913D02*
X005259Y009913D01*
X005817Y009519D02*
X001754Y009519D01*
X001754Y009617D02*
X005916Y009617D01*
X006014Y009716D02*
X001754Y009716D01*
X001754Y009814D02*
X006113Y009814D01*
X006312Y009617D02*
X007916Y009617D01*
X008014Y009716D02*
X006410Y009716D01*
X006509Y009814D02*
X008113Y009814D01*
X008211Y009913D02*
X006607Y009913D01*
X006213Y009519D02*
X007817Y009519D01*
X007719Y009420D02*
X006114Y009420D01*
X006016Y009321D02*
X007620Y009321D01*
X007521Y009223D02*
X005917Y009223D01*
X005763Y008927D02*
X005244Y008927D01*
X005361Y008829D02*
X005646Y008829D01*
X005577Y008730D02*
X005431Y008730D01*
X005472Y008632D02*
X005536Y008632D01*
X005524Y008533D02*
X005484Y008533D01*
X005484Y008435D02*
X005524Y008435D01*
X005555Y008336D02*
X005452Y008336D01*
X005412Y008237D02*
X005596Y008237D01*
X005694Y008139D02*
X005314Y008139D01*
X006452Y008336D02*
X006555Y008336D01*
X006524Y008435D02*
X006484Y008435D01*
X006484Y008533D02*
X006524Y008533D01*
X006536Y008632D02*
X006472Y008632D01*
X006431Y008730D02*
X006577Y008730D01*
X006646Y008829D02*
X006361Y008829D01*
X006244Y008927D02*
X006763Y008927D01*
X006596Y008237D02*
X006472Y008237D01*
X004719Y009420D02*
X001754Y009420D01*
X001758Y005478D02*
X013749Y005478D01*
X011697Y005380D02*
X001775Y005380D01*
X001810Y005281D02*
X009646Y005281D01*
X015874Y015037D02*
X015916Y015037D01*
X016014Y015136D02*
X015811Y015136D01*
X015764Y015234D02*
X016113Y015234D01*
X016211Y015333D02*
X015764Y015333D01*
X015764Y015431D02*
X016310Y015431D01*
X016408Y015530D02*
X015764Y015530D01*
X015764Y015628D02*
X016507Y015628D01*
X016605Y015727D02*
X015764Y015727D01*
X015764Y015825D02*
X016704Y015825D01*
X016802Y015924D02*
X015764Y015924D01*
X015764Y016022D02*
X016901Y016022D01*
X017000Y016121D02*
X015764Y016121D01*
X015764Y016219D02*
X017098Y016219D01*
X017197Y016318D02*
X015764Y016318D01*
X015764Y016417D02*
X017295Y016417D01*
X017394Y016515D02*
X015806Y016515D01*
X015872Y016614D02*
X017492Y016614D01*
X017591Y016712D02*
X015889Y016712D01*
X015868Y016811D02*
X017689Y016811D01*
X017788Y016909D02*
X015797Y016909D01*
X015451Y016909D02*
X015224Y016909D01*
X015125Y016811D02*
X015380Y016811D01*
X015359Y016712D02*
X015027Y016712D01*
X014928Y016614D02*
X015376Y016614D01*
X015441Y016515D02*
X014830Y016515D01*
X014731Y016417D02*
X015484Y016417D01*
X015484Y016318D02*
X014633Y016318D01*
X014534Y016219D02*
X015484Y016219D01*
X015484Y016121D02*
X014435Y016121D01*
X014337Y016022D02*
X015484Y016022D01*
X015484Y015924D02*
X014238Y015924D01*
X014140Y015825D02*
X015484Y015825D01*
X015484Y015727D02*
X014041Y015727D01*
X013620Y016318D02*
X013033Y016318D01*
X013131Y016417D02*
X013644Y016417D01*
X013644Y016515D02*
X013230Y016515D01*
X013284Y016614D02*
X013644Y016614D01*
X013404Y016712D02*
X013284Y016712D01*
X015322Y017008D02*
X017878Y017008D01*
X017730Y017106D02*
X015421Y017106D01*
X015519Y017205D02*
X017683Y017205D01*
X017560Y017303D02*
X015618Y017303D01*
X015717Y017402D02*
X017437Y017402D01*
X018807Y017303D02*
X019622Y017303D01*
X019721Y017402D02*
X018930Y017402D01*
X018969Y017501D02*
X019819Y017501D01*
X019803Y017599D02*
X018969Y017599D01*
X018928Y017698D02*
X019711Y017698D01*
X019679Y017796D02*
X018825Y017796D01*
X018849Y017895D02*
X019679Y017895D01*
X019580Y017993D02*
X018951Y017993D01*
X019055Y018092D02*
X019481Y018092D01*
X019404Y018190D02*
X019089Y018190D01*
X019085Y018289D02*
X019404Y018289D01*
X019404Y018387D02*
X019039Y018387D01*
X018892Y018486D02*
X019367Y018486D01*
X019269Y018585D02*
X018499Y018585D01*
X018400Y018486D02*
X018756Y018486D01*
X018774Y018683D02*
X019170Y018683D01*
X019072Y018782D02*
X018835Y018782D01*
X018849Y018880D02*
X018973Y018880D01*
X018875Y018979D02*
X018825Y018979D01*
X018776Y019077D02*
X018749Y019077D01*
X018678Y019176D02*
X016210Y019176D01*
X016112Y019077D02*
X018419Y019077D01*
X018343Y018979D02*
X016013Y018979D01*
X015915Y018880D02*
X018319Y018880D01*
X018300Y018782D02*
X015889Y018782D01*
X015868Y018683D02*
X018202Y018683D01*
X018579Y019274D02*
X016309Y019274D01*
X016407Y019373D02*
X016904Y019373D01*
X017224Y019373D02*
X018480Y019373D01*
X018382Y019471D02*
X017303Y019471D01*
X017329Y019570D02*
X018283Y019570D01*
X018185Y019669D02*
X017317Y019669D01*
X017259Y019767D02*
X018086Y019767D01*
X017988Y019866D02*
X017049Y019866D01*
X017031Y019964D02*
X017889Y019964D01*
X017791Y020063D02*
X016963Y020063D01*
X017071Y020260D02*
X017594Y020260D01*
X017692Y020161D02*
X014876Y020161D01*
X014777Y020063D02*
X016604Y020063D01*
X017122Y020358D02*
X017495Y020358D01*
X017396Y020457D02*
X017129Y020457D01*
X017098Y020555D02*
X017298Y020555D01*
X017199Y020654D02*
X017009Y020654D01*
X017101Y020752D02*
X016674Y020752D01*
X016520Y020851D02*
X017002Y020851D01*
X016408Y020851D02*
X009865Y020851D01*
X009874Y020752D02*
X016254Y020752D01*
X016205Y020654D02*
X009947Y020654D01*
X009969Y020555D02*
X014634Y020555D01*
X014535Y020457D02*
X009953Y020457D01*
X009890Y020358D02*
X014437Y020358D01*
X014679Y019964D02*
X015723Y019964D01*
X015624Y019866D02*
X014580Y019866D01*
X014482Y019767D02*
X015526Y019767D01*
X015427Y019669D02*
X014383Y019669D01*
X014284Y019570D02*
X015329Y019570D01*
X015230Y019471D02*
X014186Y019471D01*
X014087Y019373D02*
X015131Y019373D01*
X015033Y019274D02*
X013989Y019274D01*
X013890Y019176D02*
X014934Y019176D01*
X014836Y019077D02*
X013792Y019077D01*
X013693Y018979D02*
X014561Y018979D01*
X014496Y018880D02*
X013786Y018880D01*
X013622Y018880D02*
X013595Y018880D01*
X013924Y018782D02*
X014479Y018782D01*
X014500Y018683D02*
X013968Y018683D01*
X012736Y021541D02*
X010828Y021541D01*
X010730Y021639D02*
X012662Y021639D01*
X012639Y021738D02*
X010631Y021738D01*
X010533Y021836D02*
X012529Y021836D01*
X012439Y021917D02*
X012399Y022015D01*
X012404Y022132D02*
X010411Y022132D01*
X010289Y022231D02*
X012452Y022231D01*
X012875Y022231D02*
X015669Y022231D01*
X015571Y022132D02*
X013117Y022132D01*
X010531Y021442D02*
X009889Y021442D01*
X009864Y021541D02*
X010433Y021541D01*
X010334Y021639D02*
X009787Y021639D01*
X017278Y024103D02*
X017730Y024103D01*
X017631Y024201D02*
X017377Y024201D01*
X017438Y024300D02*
X017570Y024300D01*
X017529Y024399D02*
X017478Y024399D01*
X017484Y024497D02*
X017524Y024497D01*
X017524Y024596D02*
X017484Y024596D01*
X017446Y024694D02*
X017562Y024694D01*
X017610Y024793D02*
X017397Y024793D01*
X017299Y024891D02*
X017709Y024891D01*
X018550Y023019D02*
X023423Y023019D01*
X023522Y022920D02*
X018649Y022920D01*
X018747Y022822D02*
X023620Y022822D01*
X023405Y022723D02*
X023083Y022723D01*
X023162Y022625D02*
X023326Y022625D01*
X022765Y022723D02*
X018846Y022723D01*
X018944Y022625D02*
X022686Y022625D01*
X022536Y022526D02*
X019043Y022526D01*
X019134Y021639D02*
X018484Y021639D01*
X018484Y021541D02*
X019233Y021541D01*
X019331Y021442D02*
X018484Y021442D01*
X018484Y021344D02*
X019430Y021344D01*
X019528Y021245D02*
X018484Y021245D01*
X018484Y021147D02*
X019627Y021147D01*
X019725Y021048D02*
X018484Y021048D01*
X018516Y020950D02*
X019824Y020950D01*
X019922Y020851D02*
X018588Y020851D01*
X018609Y020752D02*
X020021Y020752D01*
X020119Y020654D02*
X018592Y020654D01*
X018527Y020555D02*
X020218Y020555D01*
X020316Y020457D02*
X018392Y020457D01*
X018491Y020358D02*
X020415Y020358D01*
X020514Y020260D02*
X018589Y020260D01*
X018688Y020161D02*
X020612Y020161D01*
X020711Y020063D02*
X018787Y020063D01*
X018885Y019964D02*
X020809Y019964D01*
X020908Y019866D02*
X018984Y019866D01*
X019082Y019767D02*
X021006Y019767D01*
X021105Y019669D02*
X019181Y019669D01*
X019279Y019570D02*
X021203Y019570D01*
X021302Y019471D02*
X019378Y019471D01*
X019476Y019373D02*
X021400Y019373D01*
X022826Y018880D02*
X022864Y018880D01*
X023924Y019570D02*
X026872Y019570D01*
X026774Y019669D02*
X023924Y019669D01*
X023924Y019767D02*
X026675Y019767D01*
X026577Y019866D02*
X023924Y019866D01*
X023924Y019964D02*
X026478Y019964D01*
X026380Y020063D02*
X023924Y020063D01*
X024090Y020161D02*
X026281Y020161D01*
X026182Y020260D02*
X024178Y020260D01*
X024209Y020358D02*
X026084Y020358D01*
X025985Y020457D02*
X024202Y020457D01*
X024151Y020555D02*
X025887Y020555D01*
X025788Y020654D02*
X023784Y020654D01*
X023784Y020752D02*
X025690Y020752D01*
X025591Y020851D02*
X023784Y020851D01*
X023784Y020950D02*
X025493Y020950D01*
X025394Y021048D02*
X023784Y021048D01*
X023784Y021147D02*
X025296Y021147D01*
X025197Y021245D02*
X023784Y021245D01*
X023784Y021344D02*
X025098Y021344D01*
X025000Y021442D02*
X023784Y021442D01*
X023784Y021541D02*
X024901Y021541D01*
X024803Y021639D02*
X023784Y021639D01*
X023784Y021738D02*
X024704Y021738D01*
X024606Y021836D02*
X023784Y021836D01*
X023784Y021935D02*
X024507Y021935D01*
X024409Y022034D02*
X024012Y022034D01*
X024115Y022132D02*
X024310Y022132D01*
X024212Y022231D02*
X024149Y022231D01*
X022837Y021836D02*
X022613Y021836D01*
X022711Y021738D02*
X022864Y021738D01*
X022864Y021639D02*
X022810Y021639D01*
X022738Y021935D02*
X022514Y021935D01*
X022476Y022034D02*
X022416Y022034D01*
X020056Y019274D02*
X019575Y019274D01*
X019673Y019176D02*
X020005Y019176D01*
X019999Y019077D02*
X019772Y019077D01*
X019871Y018979D02*
X020030Y018979D01*
X030959Y012770D02*
X034534Y012770D01*
X034534Y012672D02*
X031057Y012672D01*
X031156Y012573D02*
X034534Y012573D01*
X034534Y012475D02*
X031254Y012475D01*
X031353Y012376D02*
X034534Y012376D01*
X034534Y012278D02*
X031452Y012278D01*
X031550Y012179D02*
X034534Y012179D01*
X034534Y012081D02*
X031649Y012081D01*
X031747Y011982D02*
X034534Y011982D01*
X034534Y011884D02*
X031846Y011884D01*
X031944Y011785D02*
X034534Y011785D01*
X034534Y011686D02*
X032043Y011686D01*
X032141Y011588D02*
X034534Y011588D01*
X034534Y011489D02*
X032240Y011489D01*
X032338Y011391D02*
X034534Y011391D01*
X034534Y011292D02*
X032437Y011292D01*
X033385Y010898D02*
X033415Y010898D01*
X033409Y010800D02*
X033514Y010800D01*
X033612Y010701D02*
X033395Y010701D01*
X033334Y010603D02*
X033711Y010603D01*
X033809Y010504D02*
X033124Y010504D01*
X033124Y010405D02*
X033908Y010405D01*
X034006Y010307D02*
X033182Y010307D01*
X033281Y010208D02*
X034105Y010208D01*
X034204Y010110D02*
X033379Y010110D01*
X033478Y010011D02*
X034302Y010011D01*
X034401Y009913D02*
X033577Y009913D01*
X033675Y009814D02*
X034499Y009814D01*
X034598Y009716D02*
X033774Y009716D01*
X033872Y009617D02*
X034696Y009617D01*
X034795Y009519D02*
X033971Y009519D01*
X034069Y009420D02*
X034893Y009420D01*
X034992Y009321D02*
X034144Y009321D01*
X034144Y009223D02*
X035090Y009223D01*
X035189Y009124D02*
X034144Y009124D01*
X034144Y009026D02*
X035287Y009026D01*
X035244Y008927D02*
X035386Y008927D01*
X035361Y008829D02*
X035485Y008829D01*
X035431Y008730D02*
X035577Y008730D01*
X035536Y008632D02*
X035472Y008632D01*
X035484Y008533D02*
X035524Y008533D01*
X035524Y008435D02*
X035484Y008435D01*
X035452Y008336D02*
X035555Y008336D01*
X035596Y008237D02*
X035412Y008237D01*
X035314Y008139D02*
X035694Y008139D01*
X035877Y008040D02*
X035131Y008040D01*
X034877Y008040D02*
X034735Y008040D01*
X034536Y008237D02*
X034412Y008237D01*
X034452Y008336D02*
X034555Y008336D01*
X034524Y008435D02*
X034484Y008435D01*
X034484Y008533D02*
X034524Y008533D01*
X034536Y008632D02*
X034472Y008632D01*
X034431Y008730D02*
X034577Y008730D01*
X034646Y008829D02*
X034361Y008829D01*
X034244Y008927D02*
X034763Y008927D01*
X035289Y009420D02*
X036140Y009420D01*
X036216Y009321D02*
X035388Y009321D01*
X035486Y009223D02*
X036256Y009223D01*
X036349Y009124D02*
X035585Y009124D01*
X035683Y009026D02*
X036447Y009026D01*
X036546Y008927D02*
X036244Y008927D01*
X036361Y008829D02*
X036644Y008829D01*
X036743Y008730D02*
X036431Y008730D01*
X036472Y008632D02*
X036834Y008632D01*
X036834Y008533D02*
X036484Y008533D01*
X036484Y008435D02*
X036834Y008435D01*
X036834Y008336D02*
X036452Y008336D01*
X036412Y008237D02*
X036834Y008237D01*
X036834Y008139D02*
X036314Y008139D01*
X036131Y008040D02*
X036834Y008040D01*
X036834Y007942D02*
X036235Y007942D01*
X036361Y007843D02*
X036834Y007843D01*
X036834Y007745D02*
X036436Y007745D01*
X036477Y007646D02*
X036834Y007646D01*
X036834Y007548D02*
X036494Y007548D01*
X036494Y007449D02*
X036834Y007449D01*
X036834Y007351D02*
X036469Y007351D01*
X036429Y007252D02*
X036834Y007252D01*
X036834Y007154D02*
X036343Y007154D01*
X036192Y007055D02*
X036834Y007055D01*
X036834Y006956D02*
X036268Y006956D01*
X036389Y006858D02*
X036834Y006858D01*
X036718Y006759D02*
X036459Y006759D01*
X036501Y006661D02*
X036604Y006661D01*
X035954Y006557D02*
X035954Y006457D01*
X035522Y006457D01*
X035054Y006457D01*
X035054Y006557D01*
X035522Y006557D01*
X035954Y006557D01*
X035954Y006464D02*
X035054Y006464D01*
X034954Y006464D02*
X034054Y006464D01*
X034054Y006457D02*
X034054Y006557D01*
X034485Y006557D01*
X034954Y006557D01*
X034954Y006457D01*
X034522Y006457D01*
X034054Y006457D01*
X033954Y006457D02*
X033522Y006457D01*
X033054Y006457D01*
X033054Y006557D01*
X033522Y006557D01*
X033954Y006557D01*
X033954Y006457D01*
X033954Y006464D02*
X033054Y006464D01*
X033131Y008040D02*
X033613Y008040D01*
X033514Y008139D02*
X033314Y008139D01*
X033412Y008237D02*
X033416Y008237D01*
X032877Y008040D02*
X032131Y008040D01*
X032314Y008139D02*
X032694Y008139D01*
X032596Y008237D02*
X032412Y008237D01*
X032452Y008336D02*
X032555Y008336D01*
X032524Y008435D02*
X032484Y008435D01*
X032484Y008533D02*
X032524Y008533D01*
X032536Y008632D02*
X032472Y008632D01*
X032431Y008730D02*
X032577Y008730D01*
X032646Y008829D02*
X032361Y008829D01*
X032244Y008927D02*
X032763Y008927D01*
X033009Y009124D02*
X032144Y009124D01*
X032144Y009026D02*
X033108Y009026D01*
X032910Y009223D02*
X032434Y009223D01*
X032507Y009321D02*
X032812Y009321D01*
X032713Y009420D02*
X032529Y009420D01*
X033910Y010800D02*
X034786Y010800D01*
X034688Y010898D02*
X033811Y010898D01*
X033713Y010997D02*
X034589Y010997D01*
X034534Y011095D02*
X033614Y011095D01*
X033516Y011194D02*
X034534Y011194D01*
X034994Y011292D02*
X035627Y011292D01*
X035627Y011293D02*
X035627Y011143D01*
X035684Y011005D01*
X035790Y010899D01*
X035929Y010841D01*
X036079Y010841D01*
X036218Y010899D01*
X036324Y011005D01*
X036381Y011143D01*
X036381Y011293D01*
X036324Y011432D01*
X036218Y011538D01*
X036079Y011596D01*
X035929Y011596D01*
X035790Y011538D01*
X035684Y011432D01*
X035627Y011293D01*
X035627Y011194D02*
X035043Y011194D01*
X035141Y011095D02*
X035647Y011095D01*
X035692Y010997D02*
X035240Y010997D01*
X035338Y010898D02*
X035791Y010898D01*
X035535Y010701D02*
X037524Y010701D01*
X037524Y010603D02*
X035634Y010603D01*
X035733Y010504D02*
X037524Y010504D01*
X037524Y010405D02*
X035831Y010405D01*
X035930Y010307D02*
X037524Y010307D01*
X037524Y010208D02*
X036028Y010208D01*
X036127Y010110D02*
X037524Y010110D01*
X037524Y010011D02*
X036225Y010011D01*
X036409Y009913D02*
X037524Y009913D01*
X037524Y009814D02*
X036474Y009814D01*
X036521Y009716D02*
X037524Y009716D01*
X037524Y009617D02*
X036733Y009617D01*
X036831Y009519D02*
X037524Y009519D01*
X037524Y009420D02*
X036930Y009420D01*
X037028Y009321D02*
X037524Y009321D01*
X037524Y009223D02*
X037127Y009223D01*
X037225Y009124D02*
X037524Y009124D01*
X037524Y009026D02*
X037324Y009026D01*
X037413Y008927D02*
X037524Y008927D01*
X037524Y008829D02*
X037454Y008829D01*
X037454Y008730D02*
X037524Y008730D01*
X037524Y008632D02*
X037454Y008632D01*
X037454Y008533D02*
X037524Y008533D01*
X037524Y008435D02*
X037454Y008435D01*
X037454Y008336D02*
X037549Y008336D01*
X037605Y008237D02*
X037454Y008237D01*
X037454Y008139D02*
X037736Y008139D01*
X035983Y009519D02*
X035191Y009519D01*
X035092Y009617D02*
X035927Y009617D01*
X035870Y009716D02*
X034994Y009716D01*
X034895Y009814D02*
X035772Y009814D01*
X035673Y009913D02*
X034797Y009913D01*
X034698Y010011D02*
X035575Y010011D01*
X035476Y010110D02*
X034599Y010110D01*
X034501Y010208D02*
X035378Y010208D01*
X035279Y010307D02*
X034402Y010307D01*
X034304Y010405D02*
X035181Y010405D01*
X035082Y010504D02*
X034205Y010504D01*
X034107Y010603D02*
X034984Y010603D01*
X034885Y010701D02*
X034008Y010701D01*
X034994Y011391D02*
X035667Y011391D01*
X035742Y011489D02*
X034994Y011489D01*
X034994Y011588D02*
X035911Y011588D01*
X036097Y011588D02*
X037524Y011588D01*
X037524Y011686D02*
X034994Y011686D01*
X034994Y011785D02*
X037524Y011785D01*
X037524Y011884D02*
X034994Y011884D01*
X034994Y011982D02*
X037524Y011982D01*
X037524Y012081D02*
X034994Y012081D01*
X034994Y012179D02*
X037524Y012179D01*
X037524Y011489D02*
X036266Y011489D01*
X036341Y011391D02*
X037524Y011391D01*
X037524Y011292D02*
X036381Y011292D01*
X036381Y011194D02*
X037524Y011194D01*
X037524Y011095D02*
X036361Y011095D01*
X036316Y010997D02*
X037524Y010997D01*
X037524Y010898D02*
X036216Y010898D01*
X035437Y010800D02*
X037524Y010800D01*
X038233Y005380D02*
X028310Y005380D01*
X030362Y005281D02*
X038198Y005281D01*
X037659Y004788D02*
X036693Y004788D01*
X037745Y017599D02*
X038254Y017599D01*
X038254Y017698D02*
X037712Y017698D01*
X037650Y017796D02*
X038254Y017796D01*
X038254Y026567D02*
X037521Y026567D01*
X037499Y026665D02*
X038254Y026665D01*
X038254Y026764D02*
X037457Y026764D01*
X037385Y026862D02*
X038254Y026862D01*
X038254Y027158D02*
X001754Y027158D01*
X001754Y027256D02*
X038254Y027256D01*
X038254Y027355D02*
X001754Y027355D01*
X001754Y027453D02*
X038254Y027453D01*
X038254Y027552D02*
X001754Y027552D01*
X001754Y027651D02*
X038254Y027651D01*
X038254Y027749D02*
X001754Y027749D01*
X001754Y027848D02*
X038254Y027848D01*
X038254Y027946D02*
X024378Y027946D01*
X026429Y028045D02*
X038248Y028045D01*
X038230Y028143D02*
X028481Y028143D01*
X030533Y028242D02*
X038195Y028242D01*
X038158Y028340D02*
X032584Y028340D01*
X033708Y028439D02*
X038085Y028439D01*
X038005Y028537D02*
X034731Y028537D01*
X035755Y028636D02*
X037872Y028636D01*
X037636Y028734D02*
X036778Y028734D01*
X015630Y027946D02*
X001754Y027946D01*
X001759Y028045D02*
X013578Y028045D01*
X011527Y028143D02*
X001778Y028143D01*
X001813Y028242D02*
X009475Y028242D01*
X007424Y028340D02*
X001850Y028340D01*
X001922Y028439D02*
X006300Y028439D01*
X005277Y028537D02*
X002003Y028537D01*
X002136Y028636D02*
X004253Y028636D01*
X003230Y028734D02*
X002371Y028734D01*
D16*
X020204Y024827D02*
X020204Y024107D01*
X020764Y023547D01*
X023404Y023547D01*
X031564Y015387D01*
X035404Y015627D02*
X035404Y016027D01*
X035404Y015627D02*
X037884Y013147D01*
X037884Y008467D01*
X020884Y025507D02*
X020394Y025017D01*
X020204Y024827D01*
X020884Y025507D02*
X021004Y025507D01*
D17*
X031564Y015387D03*
X035404Y016027D03*
X036204Y009707D03*
X036524Y009387D03*
X037884Y009507D03*
X037884Y008467D03*
D18*
X036524Y009387D02*
X034764Y011147D01*
X034764Y016107D01*
X035164Y016507D01*
X037004Y016507D01*
X020394Y025017D02*
X020264Y025147D01*
X020264Y025187D01*
X020181Y025270D01*
X020181Y025507D01*
D19*
X019004Y025507D02*
X003004Y025507D01*
X022004Y025507D02*
X037004Y025507D01*
X036004Y007507D02*
X021004Y007507D01*
X019004Y007507D02*
X004004Y007507D01*
D20*
X019004Y007507D02*
X019224Y007507D01*
X020024Y006707D01*
X020024Y006387D01*
X020664Y005747D01*
X036144Y005747D01*
X037144Y006747D02*
X037144Y006947D01*
X037144Y006987D02*
X037144Y008767D01*
X036524Y009387D01*
D21*
X037144Y006987D02*
X037144Y006947D01*
D22*
X037144Y006747D02*
X036904Y006507D01*
X036854Y006507D01*
X036504Y006157D01*
X036504Y006107D01*
X036144Y005747D01*
D23*
X028184Y013107D02*
X027944Y012867D01*
X027144Y012867D01*
X026424Y013587D01*
X026424Y013827D01*
X028344Y017667D02*
X026751Y019260D01*
X025884Y019260D01*
X022744Y017827D02*
X022344Y018227D01*
X022344Y018387D01*
X021624Y019107D01*
X020264Y019107D01*
D24*
X037444Y027947D03*
X037444Y005557D03*
X002564Y005557D03*
X002564Y027947D03*
M02*
