%
M48
M72
T01C0.0150
T02C0.0295
T03C0.0315
T04C0.0394
T05C0.0400
T06C0.0413
T07C0.0787
%
T01
X9247Y8207
X10147Y9507
X11397Y9057
X11847Y10207
X11847Y10607
X12147Y11507
X13147Y10507
X14147Y11507
X15147Y10507
X16147Y9507
X17097Y8407
X19147Y8507
X19147Y9507
X17147Y10507
X17647Y11407
X17247Y11807
X16847Y12207
X15147Y12507
X14147Y13507
X13147Y12507
X12147Y13507
X11147Y12507
X9947Y13907
X11147Y14507
X12147Y15507
X12347Y17307
X13147Y18507
X11147Y18507
X9147Y18507
X7147Y18507
X5547Y17307
X4147Y15507
X6247Y13507
X7647Y13507
X7647Y13007
X7647Y14057
X8147Y14507
X9147Y15507
X9147Y11507
X9147Y10507
X6847Y11207
X7147Y8507
X2947Y12007
X11847Y5807
X14097Y7157
X13147Y8507
X15147Y4507
X17647Y4507
X19147Y4507
X19147Y5507
X18147Y6507
X19047Y11170
X16847Y14507
X17147Y16507
X16147Y16507
X15147Y17507
X15147Y18507
X17147Y18507
X19147Y18507
X19147Y19507
X19147Y20507
X19147Y21507
X19147Y22507
X18147Y22507
X17147Y22507
X16147Y22507
X15147Y22507
X19147Y17507
T02
X5532Y12760
T03
X7640Y6265
X8347Y5558
X9054Y4851
X10054Y4851
X11054Y4851
X12054Y4851
X13054Y4851
X14054Y4851
X6932Y6972
X6225Y7679
X5518Y8386
X4811Y9093
X4104Y9800
X3397Y10507
X3397Y11507
X3397Y12507
X3397Y13507
X3397Y14507
X3397Y15507
X3397Y16507
X4104Y17214
X4811Y17922
X5518Y18629
X6225Y19336
X6932Y20043
X7640Y20750
X8347Y21457
X9054Y22164
X10054Y22164
X11054Y22164
X12054Y22164
X13054Y22164
X14054Y22164
T04
X7511Y19576
X7511Y7469
X23550Y7469
X23550Y19576
T05
X13047Y5807
X11047Y5807
X10047Y5807
T06
X5538Y14254
T07
X17113Y6207
X19869Y6207
M30
