G75*
G70*
%OFA0B0*%
%FSLAX24Y24*%
%IPPOS*%
%LPD*%
%AMOC8*
5,1,8,0,0,1.08239X$1,22.5*
%
%ADD10C,0.0050*%
%ADD11C,0.0040*%
%ADD12C,0.0000*%
D10*
X012147Y003507D02*
X020447Y003507D01*
X020614Y003511D01*
X020780Y003523D01*
X020945Y003543D01*
X021109Y003570D01*
X021272Y003606D01*
X021433Y003649D01*
X021592Y003699D01*
X021748Y003758D01*
X021901Y003823D01*
X022051Y003896D01*
X022197Y003976D01*
X022339Y004063D01*
X022477Y004156D01*
X022611Y004256D01*
X022739Y004362D01*
X022862Y004474D01*
X022980Y004592D01*
X023092Y004715D01*
X023198Y004843D01*
X023298Y004977D01*
X023391Y005115D01*
X023478Y005257D01*
X023558Y005403D01*
X023631Y005553D01*
X023696Y005706D01*
X023755Y005862D01*
X023805Y006021D01*
X023848Y006182D01*
X023884Y006345D01*
X023911Y006509D01*
X023931Y006674D01*
X023943Y006840D01*
X023947Y007007D01*
X023947Y020007D01*
X023943Y020174D01*
X023931Y020340D01*
X023911Y020505D01*
X023884Y020669D01*
X023848Y020832D01*
X023805Y020993D01*
X023755Y021152D01*
X023696Y021308D01*
X023631Y021461D01*
X023558Y021611D01*
X023478Y021757D01*
X023391Y021899D01*
X023298Y022037D01*
X023198Y022171D01*
X023092Y022299D01*
X022980Y022422D01*
X022862Y022540D01*
X022739Y022652D01*
X022611Y022758D01*
X022477Y022858D01*
X022339Y022951D01*
X022197Y023038D01*
X022051Y023118D01*
X021901Y023191D01*
X021748Y023256D01*
X021592Y023315D01*
X021433Y023365D01*
X021272Y023408D01*
X021109Y023444D01*
X020945Y023471D01*
X020780Y023491D01*
X020614Y023503D01*
X020447Y023507D01*
X012147Y023507D01*
X011664Y023495D01*
X011182Y023460D01*
X010702Y023402D01*
X010226Y023321D01*
X009754Y023216D01*
X009288Y023089D01*
X008828Y022940D01*
X008376Y022769D01*
X007933Y022576D01*
X007500Y022362D01*
X007077Y022127D01*
X006667Y021872D01*
X006269Y021597D01*
X005885Y021304D01*
X005516Y020992D01*
X005162Y020663D01*
X004824Y020317D01*
X004504Y019955D01*
X004201Y019579D01*
X003917Y019188D01*
X003652Y018783D01*
X003407Y018367D01*
X003183Y017939D01*
X002979Y017501D01*
X002797Y017053D01*
X002636Y016597D01*
X002498Y016134D01*
X002383Y015665D01*
X002290Y015191D01*
X002220Y014712D01*
X002173Y014231D01*
X002150Y013749D01*
X002150Y013265D01*
X002173Y012783D01*
X002220Y012302D01*
X002290Y011823D01*
X002383Y011349D01*
X002498Y010880D01*
X002636Y010417D01*
X002797Y009961D01*
X002979Y009513D01*
X003183Y009075D01*
X003407Y008647D01*
X003652Y008231D01*
X003917Y007826D01*
X004201Y007435D01*
X004504Y007059D01*
X004824Y006697D01*
X005162Y006351D01*
X005516Y006022D01*
X005885Y005710D01*
X006269Y005417D01*
X006667Y005142D01*
X007077Y004887D01*
X007500Y004652D01*
X007933Y004438D01*
X008376Y004245D01*
X008828Y004074D01*
X009288Y003925D01*
X009754Y003798D01*
X010226Y003693D01*
X010702Y003612D01*
X011182Y003554D01*
X011664Y003519D01*
X012147Y003507D01*
D11*
X008454Y006427D02*
X008367Y006514D01*
X008454Y006427D02*
X008627Y006427D01*
X008714Y006514D01*
X008714Y006601D01*
X008627Y006688D01*
X008454Y006688D01*
X008367Y006774D01*
X008367Y006861D01*
X008454Y006948D01*
X008627Y006948D01*
X008714Y006861D01*
X008882Y006948D02*
X008882Y006427D01*
X008882Y006601D02*
X009143Y006601D01*
X009229Y006688D01*
X009229Y006861D01*
X009143Y006948D01*
X008882Y006948D01*
X009398Y006948D02*
X009398Y006427D01*
X009398Y006601D02*
X009745Y006948D01*
X009914Y006688D02*
X010261Y006688D01*
X010087Y006861D02*
X010087Y006514D01*
X009745Y006427D02*
X009485Y006688D01*
X010667Y006774D02*
X010754Y006688D01*
X010927Y006688D01*
X011014Y006601D01*
X011014Y006514D01*
X010927Y006427D01*
X010754Y006427D01*
X010667Y006514D01*
X010667Y006774D02*
X010667Y006861D01*
X010754Y006948D01*
X010927Y006948D01*
X011014Y006861D01*
X011182Y006948D02*
X011182Y006427D01*
X011182Y006601D02*
X011443Y006601D01*
X011529Y006688D01*
X011529Y006861D01*
X011443Y006948D01*
X011182Y006948D01*
X011698Y006948D02*
X011698Y006427D01*
X011698Y006601D02*
X012045Y006948D01*
X012214Y006688D02*
X012561Y006688D01*
X012045Y006427D02*
X011785Y006688D01*
X013667Y005961D02*
X013667Y005874D01*
X013754Y005788D01*
X013927Y005788D01*
X014014Y005701D01*
X014014Y005614D01*
X013927Y005527D01*
X013754Y005527D01*
X013667Y005614D01*
X013667Y005961D02*
X013754Y006048D01*
X013927Y006048D01*
X014014Y005961D01*
X014182Y006048D02*
X014443Y006048D01*
X014529Y005961D01*
X014529Y005788D01*
X014443Y005701D01*
X014182Y005701D01*
X014182Y005527D02*
X014182Y006048D01*
X014698Y006048D02*
X014698Y005527D01*
X014871Y005701D01*
X015045Y005527D01*
X015045Y006048D01*
X015214Y006048D02*
X015474Y006048D01*
X015561Y005961D01*
X015561Y005788D01*
X015474Y005701D01*
X015214Y005701D01*
X015387Y005701D02*
X015561Y005527D01*
X015214Y005527D02*
X015214Y006048D01*
D12*
X016719Y006207D02*
X016721Y006246D01*
X016727Y006285D01*
X016737Y006323D01*
X016750Y006360D01*
X016767Y006395D01*
X016787Y006429D01*
X016811Y006460D01*
X016838Y006489D01*
X016867Y006515D01*
X016899Y006538D01*
X016933Y006558D01*
X016969Y006574D01*
X017006Y006586D01*
X017045Y006595D01*
X017084Y006600D01*
X017123Y006601D01*
X017162Y006598D01*
X017201Y006591D01*
X017238Y006580D01*
X017275Y006566D01*
X017310Y006548D01*
X017343Y006527D01*
X017374Y006502D01*
X017402Y006475D01*
X017427Y006445D01*
X017449Y006412D01*
X017468Y006378D01*
X017483Y006342D01*
X017495Y006304D01*
X017503Y006266D01*
X017507Y006227D01*
X017507Y006187D01*
X017503Y006148D01*
X017495Y006110D01*
X017483Y006072D01*
X017468Y006036D01*
X017449Y006002D01*
X017427Y005969D01*
X017402Y005939D01*
X017374Y005912D01*
X017343Y005887D01*
X017310Y005866D01*
X017275Y005848D01*
X017238Y005834D01*
X017201Y005823D01*
X017162Y005816D01*
X017123Y005813D01*
X017084Y005814D01*
X017045Y005819D01*
X017006Y005828D01*
X016969Y005840D01*
X016933Y005856D01*
X016899Y005876D01*
X016867Y005899D01*
X016838Y005925D01*
X016811Y005954D01*
X016787Y005985D01*
X016767Y006019D01*
X016750Y006054D01*
X016737Y006091D01*
X016727Y006129D01*
X016721Y006168D01*
X016719Y006207D01*
X019475Y006207D02*
X019477Y006246D01*
X019483Y006285D01*
X019493Y006323D01*
X019506Y006360D01*
X019523Y006395D01*
X019543Y006429D01*
X019567Y006460D01*
X019594Y006489D01*
X019623Y006515D01*
X019655Y006538D01*
X019689Y006558D01*
X019725Y006574D01*
X019762Y006586D01*
X019801Y006595D01*
X019840Y006600D01*
X019879Y006601D01*
X019918Y006598D01*
X019957Y006591D01*
X019994Y006580D01*
X020031Y006566D01*
X020066Y006548D01*
X020099Y006527D01*
X020130Y006502D01*
X020158Y006475D01*
X020183Y006445D01*
X020205Y006412D01*
X020224Y006378D01*
X020239Y006342D01*
X020251Y006304D01*
X020259Y006266D01*
X020263Y006227D01*
X020263Y006187D01*
X020259Y006148D01*
X020251Y006110D01*
X020239Y006072D01*
X020224Y006036D01*
X020205Y006002D01*
X020183Y005969D01*
X020158Y005939D01*
X020130Y005912D01*
X020099Y005887D01*
X020066Y005866D01*
X020031Y005848D01*
X019994Y005834D01*
X019957Y005823D01*
X019918Y005816D01*
X019879Y005813D01*
X019840Y005814D01*
X019801Y005819D01*
X019762Y005828D01*
X019725Y005840D01*
X019689Y005856D01*
X019655Y005876D01*
X019623Y005899D01*
X019594Y005925D01*
X019567Y005954D01*
X019543Y005985D01*
X019523Y006019D01*
X019506Y006054D01*
X019493Y006091D01*
X019483Y006129D01*
X019477Y006168D01*
X019475Y006207D01*
X023353Y007469D02*
X023355Y007496D01*
X023361Y007523D01*
X023370Y007549D01*
X023383Y007573D01*
X023399Y007596D01*
X023418Y007615D01*
X023440Y007632D01*
X023464Y007646D01*
X023489Y007656D01*
X023516Y007663D01*
X023543Y007666D01*
X023571Y007665D01*
X023598Y007660D01*
X023624Y007652D01*
X023648Y007640D01*
X023671Y007624D01*
X023692Y007606D01*
X023709Y007585D01*
X023724Y007561D01*
X023735Y007536D01*
X023743Y007510D01*
X023747Y007483D01*
X023747Y007455D01*
X023743Y007428D01*
X023735Y007402D01*
X023724Y007377D01*
X023709Y007353D01*
X023692Y007332D01*
X023671Y007314D01*
X023649Y007298D01*
X023624Y007286D01*
X023598Y007278D01*
X023571Y007273D01*
X023543Y007272D01*
X023516Y007275D01*
X023489Y007282D01*
X023464Y007292D01*
X023440Y007306D01*
X023418Y007323D01*
X023399Y007342D01*
X023383Y007365D01*
X023370Y007389D01*
X023361Y007415D01*
X023355Y007442D01*
X023353Y007469D01*
X023353Y019576D02*
X023355Y019603D01*
X023361Y019630D01*
X023370Y019656D01*
X023383Y019680D01*
X023399Y019703D01*
X023418Y019722D01*
X023440Y019739D01*
X023464Y019753D01*
X023489Y019763D01*
X023516Y019770D01*
X023543Y019773D01*
X023571Y019772D01*
X023598Y019767D01*
X023624Y019759D01*
X023648Y019747D01*
X023671Y019731D01*
X023692Y019713D01*
X023709Y019692D01*
X023724Y019668D01*
X023735Y019643D01*
X023743Y019617D01*
X023747Y019590D01*
X023747Y019562D01*
X023743Y019535D01*
X023735Y019509D01*
X023724Y019484D01*
X023709Y019460D01*
X023692Y019439D01*
X023671Y019421D01*
X023649Y019405D01*
X023624Y019393D01*
X023598Y019385D01*
X023571Y019380D01*
X023543Y019379D01*
X023516Y019382D01*
X023489Y019389D01*
X023464Y019399D01*
X023440Y019413D01*
X023418Y019430D01*
X023399Y019449D01*
X023383Y019472D01*
X023370Y019496D01*
X023361Y019522D01*
X023355Y019549D01*
X023353Y019576D01*
X007314Y019576D02*
X007316Y019603D01*
X007322Y019630D01*
X007331Y019656D01*
X007344Y019680D01*
X007360Y019703D01*
X007379Y019722D01*
X007401Y019739D01*
X007425Y019753D01*
X007450Y019763D01*
X007477Y019770D01*
X007504Y019773D01*
X007532Y019772D01*
X007559Y019767D01*
X007585Y019759D01*
X007609Y019747D01*
X007632Y019731D01*
X007653Y019713D01*
X007670Y019692D01*
X007685Y019668D01*
X007696Y019643D01*
X007704Y019617D01*
X007708Y019590D01*
X007708Y019562D01*
X007704Y019535D01*
X007696Y019509D01*
X007685Y019484D01*
X007670Y019460D01*
X007653Y019439D01*
X007632Y019421D01*
X007610Y019405D01*
X007585Y019393D01*
X007559Y019385D01*
X007532Y019380D01*
X007504Y019379D01*
X007477Y019382D01*
X007450Y019389D01*
X007425Y019399D01*
X007401Y019413D01*
X007379Y019430D01*
X007360Y019449D01*
X007344Y019472D01*
X007331Y019496D01*
X007322Y019522D01*
X007316Y019549D01*
X007314Y019576D01*
X005331Y014254D02*
X005333Y014282D01*
X005339Y014310D01*
X005348Y014336D01*
X005361Y014362D01*
X005377Y014385D01*
X005397Y014405D01*
X005419Y014423D01*
X005443Y014438D01*
X005469Y014449D01*
X005496Y014457D01*
X005524Y014461D01*
X005552Y014461D01*
X005580Y014457D01*
X005607Y014449D01*
X005633Y014438D01*
X005657Y014423D01*
X005679Y014405D01*
X005699Y014385D01*
X005715Y014362D01*
X005728Y014336D01*
X005737Y014310D01*
X005743Y014282D01*
X005745Y014254D01*
X005743Y014226D01*
X005737Y014198D01*
X005728Y014172D01*
X005715Y014146D01*
X005699Y014123D01*
X005679Y014103D01*
X005657Y014085D01*
X005633Y014070D01*
X005607Y014059D01*
X005580Y014051D01*
X005552Y014047D01*
X005524Y014047D01*
X005496Y014051D01*
X005469Y014059D01*
X005443Y014070D01*
X005419Y014085D01*
X005397Y014103D01*
X005377Y014123D01*
X005361Y014146D01*
X005348Y014172D01*
X005339Y014198D01*
X005333Y014226D01*
X005331Y014254D01*
X005384Y012760D02*
X005386Y012784D01*
X005392Y012807D01*
X005401Y012829D01*
X005414Y012849D01*
X005429Y012867D01*
X005448Y012882D01*
X005469Y012894D01*
X005491Y012902D01*
X005514Y012907D01*
X005538Y012908D01*
X005562Y012905D01*
X005584Y012898D01*
X005606Y012888D01*
X005626Y012875D01*
X005643Y012858D01*
X005657Y012839D01*
X005668Y012818D01*
X005676Y012795D01*
X005680Y012772D01*
X005680Y012748D01*
X005676Y012725D01*
X005668Y012702D01*
X005657Y012681D01*
X005643Y012662D01*
X005626Y012645D01*
X005606Y012632D01*
X005584Y012622D01*
X005562Y012615D01*
X005538Y012612D01*
X005514Y012613D01*
X005491Y012618D01*
X005469Y012626D01*
X005448Y012638D01*
X005429Y012653D01*
X005414Y012671D01*
X005401Y012691D01*
X005392Y012713D01*
X005386Y012736D01*
X005384Y012760D01*
X007314Y007469D02*
X007316Y007496D01*
X007322Y007523D01*
X007331Y007549D01*
X007344Y007573D01*
X007360Y007596D01*
X007379Y007615D01*
X007401Y007632D01*
X007425Y007646D01*
X007450Y007656D01*
X007477Y007663D01*
X007504Y007666D01*
X007532Y007665D01*
X007559Y007660D01*
X007585Y007652D01*
X007609Y007640D01*
X007632Y007624D01*
X007653Y007606D01*
X007670Y007585D01*
X007685Y007561D01*
X007696Y007536D01*
X007704Y007510D01*
X007708Y007483D01*
X007708Y007455D01*
X007704Y007428D01*
X007696Y007402D01*
X007685Y007377D01*
X007670Y007353D01*
X007653Y007332D01*
X007632Y007314D01*
X007610Y007298D01*
X007585Y007286D01*
X007559Y007278D01*
X007532Y007273D01*
X007504Y007272D01*
X007477Y007275D01*
X007450Y007282D01*
X007425Y007292D01*
X007401Y007306D01*
X007379Y007323D01*
X007360Y007342D01*
X007344Y007365D01*
X007331Y007389D01*
X007322Y007415D01*
X007316Y007442D01*
X007314Y007469D01*
M02*
