G75*
G70*
%OFA0B0*%
%FSLAX24Y24*%
%IPPOS*%
%LPD*%
%AMOC8*
5,1,8,0,0,1.08239X$1,22.5*
%
%ADD10C,0.0515*%
%ADD11R,0.0728X0.0433*%
%ADD12R,0.0748X0.0787*%
%ADD13C,0.0760*%
%ADD14R,0.0600X0.0300*%
%ADD15C,0.0080*%
%ADD16C,0.0310*%
%ADD17C,0.0160*%
%ADD18C,0.0240*%
D10*
X007640Y006265D03*
X008347Y005558D03*
X009054Y004851D03*
X010054Y004851D03*
X011054Y004851D03*
X012054Y004851D03*
X013054Y004851D03*
X014054Y004851D03*
X006932Y006972D03*
X006225Y007679D03*
X005518Y008386D03*
X004811Y009093D03*
X004104Y009800D03*
X003397Y010507D03*
X003397Y011507D03*
X003397Y012507D03*
X003397Y013507D03*
X003397Y014507D03*
X003397Y015507D03*
X003397Y016507D03*
X004104Y017214D03*
X004811Y017922D03*
X005518Y018629D03*
X006225Y019336D03*
X006932Y020043D03*
X007640Y020750D03*
X008347Y021457D03*
X009054Y022164D03*
X010054Y022164D03*
X011054Y022164D03*
X012054Y022164D03*
X013054Y022164D03*
X014054Y022164D03*
D11*
X006847Y014057D03*
X006847Y013506D03*
X006847Y012955D03*
X004229Y012955D03*
X004229Y013506D03*
X004229Y014057D03*
D12*
X005536Y015128D03*
X005538Y011880D03*
D13*
X010047Y005807D03*
X011047Y005807D03*
X013047Y005807D03*
D14*
X006897Y015807D03*
X006897Y017307D03*
X004897Y017307D03*
X004897Y015807D03*
D15*
X006596Y005471D02*
X007959Y005471D01*
X007964Y005442D02*
X007994Y005369D01*
X008038Y005304D01*
X008093Y005249D01*
X008158Y005205D01*
X008231Y005176D01*
X008307Y005160D01*
X008308Y005160D01*
X008308Y005519D01*
X008385Y005519D01*
X008385Y005160D01*
X008386Y005160D01*
X008463Y005176D01*
X008535Y005205D01*
X008600Y005249D01*
X008655Y005304D01*
X008699Y005369D01*
X008729Y005442D01*
X008744Y005519D01*
X008386Y005519D01*
X008386Y005596D01*
X008744Y005596D01*
X008744Y005597D01*
X008729Y005674D01*
X008699Y005746D01*
X008655Y005811D01*
X008600Y005866D01*
X008535Y005910D01*
X008463Y005940D01*
X008386Y005955D01*
X008385Y005955D01*
X008385Y005597D01*
X008308Y005597D01*
X008308Y005955D01*
X008307Y005955D01*
X008231Y005940D01*
X008158Y005910D01*
X008093Y005866D01*
X008038Y005811D01*
X007994Y005746D01*
X007964Y005674D01*
X007949Y005597D01*
X007949Y005596D01*
X008308Y005596D01*
X008308Y005519D01*
X007949Y005519D01*
X007949Y005519D01*
X007964Y005442D01*
X007985Y005392D02*
X006710Y005392D01*
X006823Y005314D02*
X008031Y005314D01*
X008114Y005235D02*
X006937Y005235D01*
X007051Y005157D02*
X008802Y005157D01*
X008800Y005159D02*
X008800Y005159D01*
X009054Y004906D01*
X009307Y005159D01*
X009242Y005203D01*
X009170Y005233D01*
X009093Y005248D01*
X009015Y005248D01*
X008938Y005233D01*
X008865Y005203D01*
X008800Y005159D01*
X008745Y005104D02*
X008745Y005104D01*
X008701Y005039D01*
X008672Y004966D01*
X008656Y004890D01*
X008656Y004811D01*
X008672Y004735D01*
X008701Y004662D01*
X008745Y004597D01*
X008745Y004597D01*
X008999Y004850D01*
X009054Y004796D01*
X009109Y004850D01*
X009362Y004597D01*
X009362Y004597D01*
X009406Y004662D01*
X009436Y004735D01*
X009451Y004811D01*
X009451Y004890D01*
X009436Y004966D01*
X009406Y005039D01*
X009362Y005104D01*
X009109Y004851D01*
X009054Y004906D01*
X008999Y004851D01*
X008745Y005104D01*
X008728Y005078D02*
X007190Y005078D01*
X007085Y005134D02*
X006112Y005805D01*
X005228Y006588D01*
X004444Y007473D01*
X003773Y008445D01*
X003224Y009491D01*
X003077Y009880D01*
X004607Y008349D01*
X004689Y008267D01*
X005180Y008267D01*
X005215Y008184D01*
X005316Y008083D01*
X005447Y008029D01*
X005589Y008029D01*
X005721Y008083D01*
X005821Y008184D01*
X005876Y008315D01*
X005876Y008457D01*
X005821Y008589D01*
X005721Y008689D01*
X005589Y008744D01*
X005447Y008744D01*
X005316Y008689D01*
X005215Y008589D01*
X005198Y008547D01*
X004805Y008547D01*
X003087Y010265D01*
X003087Y010322D01*
X003094Y010305D01*
X003194Y010204D01*
X003326Y010150D01*
X003468Y010150D01*
X003599Y010204D01*
X003700Y010305D01*
X003726Y010367D01*
X006889Y010367D01*
X008994Y008263D01*
X008992Y008258D01*
X008992Y008160D01*
X007212Y009940D01*
X007096Y009940D01*
X004433Y009940D01*
X004407Y010003D01*
X004306Y010103D01*
X004175Y010158D01*
X004033Y010158D01*
X003901Y010103D01*
X003801Y010003D01*
X003746Y009871D01*
X003746Y009729D01*
X003801Y009598D01*
X003901Y009497D01*
X004033Y009443D01*
X004175Y009443D01*
X004306Y009497D01*
X004407Y009598D01*
X004433Y009660D01*
X007096Y009660D01*
X009007Y007749D01*
X009089Y007667D01*
X010089Y007667D01*
X010205Y007667D01*
X011342Y008804D01*
X011346Y008802D01*
X011447Y008802D01*
X011541Y008841D01*
X011613Y008913D01*
X011627Y008946D01*
X011627Y006699D01*
X011194Y006266D01*
X011142Y006287D01*
X010951Y006287D01*
X010775Y006214D01*
X010640Y006079D01*
X010567Y005903D01*
X010567Y005712D01*
X010640Y005535D01*
X010775Y005400D01*
X010951Y005327D01*
X011142Y005327D01*
X011319Y005400D01*
X011454Y005535D01*
X011527Y005712D01*
X011527Y005903D01*
X011505Y005955D01*
X012067Y006516D01*
X012067Y006699D01*
X012067Y010072D01*
X012102Y010157D01*
X012102Y010258D01*
X012067Y010343D01*
X012067Y010472D01*
X012102Y010557D01*
X012102Y010658D01*
X012063Y010752D01*
X011991Y010824D01*
X011897Y010862D01*
X011796Y010862D01*
X011702Y010824D01*
X011631Y010752D01*
X011592Y010658D01*
X011592Y010557D01*
X011627Y010472D01*
X011627Y010343D01*
X011592Y010258D01*
X011592Y010157D01*
X011627Y010072D01*
X011627Y009168D01*
X011613Y009202D01*
X011541Y009274D01*
X011447Y009312D01*
X011346Y009312D01*
X011252Y009274D01*
X011181Y009202D01*
X011142Y009108D01*
X011142Y009007D01*
X011144Y009002D01*
X010089Y007947D01*
X009205Y007947D01*
X009200Y007952D01*
X009297Y007952D01*
X009391Y007991D01*
X009463Y008063D01*
X009502Y008157D01*
X009502Y008258D01*
X009463Y008352D01*
X009391Y008424D01*
X009297Y008462D01*
X009196Y008462D01*
X009192Y008461D01*
X007005Y010647D01*
X006889Y010647D01*
X003726Y010647D01*
X003700Y010710D01*
X003599Y010810D01*
X003468Y010865D01*
X003326Y010865D01*
X003251Y010834D01*
X003285Y010867D01*
X003705Y010867D01*
X003787Y010949D01*
X004387Y011549D01*
X004387Y011665D01*
X004387Y012639D01*
X004634Y012639D01*
X004693Y012697D01*
X004693Y013192D01*
X004705Y013204D01*
X004723Y013236D01*
X004733Y013271D01*
X004733Y013466D01*
X004269Y013466D01*
X004269Y013546D01*
X004733Y013546D01*
X004733Y013741D01*
X004723Y013777D01*
X004705Y013809D01*
X004693Y013821D01*
X004693Y014315D01*
X004634Y014374D01*
X003823Y014374D01*
X003764Y014315D01*
X003764Y014147D01*
X003087Y014147D01*
X003087Y014322D01*
X003094Y014305D01*
X003194Y014204D01*
X003326Y014150D01*
X003468Y014150D01*
X003599Y014204D01*
X003700Y014305D01*
X003754Y014436D01*
X003754Y014579D01*
X003700Y014710D01*
X003599Y014810D01*
X003468Y014865D01*
X003326Y014865D01*
X003194Y014810D01*
X003094Y014710D01*
X003087Y014693D01*
X003087Y015322D01*
X003094Y015305D01*
X003194Y015204D01*
X003326Y015150D01*
X003468Y015150D01*
X003599Y015204D01*
X003700Y015305D01*
X003754Y015436D01*
X003754Y015579D01*
X003700Y015710D01*
X003599Y015810D01*
X003468Y015865D01*
X003326Y015865D01*
X003194Y015810D01*
X003094Y015710D01*
X003087Y015693D01*
X003087Y016322D01*
X003094Y016305D01*
X003194Y016204D01*
X003326Y016150D01*
X003468Y016150D01*
X003599Y016204D01*
X003700Y016305D01*
X003754Y016436D01*
X003754Y016578D01*
X003700Y016710D01*
X003599Y016810D01*
X003468Y016865D01*
X003326Y016865D01*
X003194Y016810D01*
X003094Y016710D01*
X003087Y016693D01*
X003087Y016749D01*
X006240Y019903D01*
X006603Y019903D01*
X006629Y019840D01*
X006730Y019740D01*
X006861Y019685D01*
X007004Y019685D01*
X007135Y019740D01*
X007178Y019783D01*
X007124Y019652D01*
X007124Y019499D01*
X007183Y019356D01*
X007291Y019248D01*
X007434Y019189D01*
X007587Y019189D01*
X007730Y019248D01*
X007838Y019356D01*
X007897Y019499D01*
X007897Y019652D01*
X007838Y019795D01*
X007730Y019903D01*
X007587Y019962D01*
X007434Y019962D01*
X007291Y019903D01*
X007240Y019852D01*
X007290Y019972D01*
X007290Y020114D01*
X007235Y020245D01*
X007135Y020346D01*
X007004Y020400D01*
X006861Y020400D01*
X006730Y020346D01*
X006629Y020245D01*
X006603Y020183D01*
X006240Y020183D01*
X006124Y020183D01*
X003077Y017135D01*
X003224Y017523D01*
X003773Y018570D01*
X004444Y019542D01*
X005228Y020426D01*
X006112Y021210D01*
X007085Y021881D01*
X008131Y022430D01*
X009236Y022849D01*
X010383Y023132D01*
X011556Y023275D01*
X012146Y023292D01*
X019447Y023292D01*
X019447Y006611D01*
X019374Y006538D01*
X019285Y006324D01*
X019285Y006091D01*
X019374Y005877D01*
X019447Y005804D01*
X019447Y003722D01*
X012147Y003722D01*
X011556Y003740D01*
X010383Y003883D01*
X009236Y004165D01*
X008131Y004584D01*
X007085Y005134D01*
X007340Y005000D02*
X008685Y005000D01*
X008663Y004921D02*
X007489Y004921D01*
X007639Y004843D02*
X008656Y004843D01*
X008666Y004764D02*
X007789Y004764D01*
X007938Y004686D02*
X008692Y004686D01*
X008738Y004607D02*
X008088Y004607D01*
X008278Y004528D02*
X008820Y004528D01*
X008800Y004542D02*
X008865Y004498D01*
X008938Y004468D01*
X009015Y004453D01*
X009093Y004453D01*
X009170Y004468D01*
X009242Y004498D01*
X009307Y004542D01*
X009307Y004542D01*
X009054Y004796D01*
X008800Y004542D01*
X008800Y004542D01*
X008755Y004607D02*
X008865Y004607D01*
X008834Y004686D02*
X008944Y004686D01*
X008912Y004764D02*
X009022Y004764D01*
X009085Y004764D02*
X009195Y004764D01*
X009164Y004686D02*
X009274Y004686D01*
X009242Y004607D02*
X009352Y004607D01*
X009369Y004607D02*
X009792Y004607D01*
X009751Y004648D02*
X009851Y004548D01*
X009983Y004493D01*
X010125Y004493D01*
X010256Y004548D01*
X010357Y004648D01*
X010411Y004779D01*
X010411Y004922D01*
X010357Y005053D01*
X010256Y005154D01*
X010125Y005208D01*
X009983Y005208D01*
X009851Y005154D01*
X009751Y005053D01*
X009696Y004922D01*
X009696Y004779D01*
X009751Y004648D01*
X009735Y004686D02*
X009416Y004686D01*
X009442Y004764D02*
X009703Y004764D01*
X009696Y004843D02*
X009451Y004843D01*
X009445Y004921D02*
X009696Y004921D01*
X009729Y005000D02*
X009422Y005000D01*
X009380Y005078D02*
X009776Y005078D01*
X009859Y005157D02*
X009305Y005157D01*
X009307Y005159D02*
X009307Y005159D01*
X009362Y005104D02*
X009362Y005104D01*
X009336Y005078D02*
X009227Y005078D01*
X009258Y005000D02*
X009148Y005000D01*
X009179Y004921D02*
X009069Y004921D01*
X009038Y004921D02*
X008928Y004921D01*
X008959Y005000D02*
X008850Y005000D01*
X008881Y005078D02*
X008771Y005078D01*
X008951Y005235D02*
X008580Y005235D01*
X008662Y005314D02*
X015099Y005314D01*
X015177Y005392D02*
X013299Y005392D01*
X013319Y005400D02*
X013454Y005535D01*
X013527Y005712D01*
X013527Y005903D01*
X013454Y006079D01*
X013319Y006214D01*
X013142Y006287D01*
X012951Y006287D01*
X012775Y006214D01*
X012640Y006079D01*
X012567Y005903D01*
X012567Y005712D01*
X012640Y005535D01*
X012775Y005400D01*
X012951Y005327D01*
X013142Y005327D01*
X013319Y005400D01*
X013389Y005471D02*
X015256Y005471D01*
X015334Y005550D02*
X013459Y005550D01*
X013492Y005628D02*
X015413Y005628D01*
X015491Y005707D02*
X013525Y005707D01*
X013527Y005785D02*
X015570Y005785D01*
X015649Y005864D02*
X013527Y005864D01*
X013510Y005942D02*
X015727Y005942D01*
X015767Y005982D02*
X014272Y004487D01*
X013215Y004487D01*
X013242Y004498D01*
X013307Y004542D01*
X013362Y004597D01*
X013406Y004662D01*
X013436Y004735D01*
X013451Y004811D01*
X013451Y004812D01*
X013093Y004812D01*
X013093Y004889D01*
X013451Y004889D01*
X013451Y004890D01*
X013436Y004967D01*
X013406Y005039D01*
X013362Y005104D01*
X013307Y005159D01*
X013242Y005203D01*
X013170Y005233D01*
X013093Y005248D01*
X013092Y005248D01*
X013092Y004890D01*
X013015Y004890D01*
X013015Y005248D01*
X013014Y005248D01*
X012938Y005233D01*
X012865Y005203D01*
X012800Y005159D01*
X012745Y005104D01*
X012701Y005039D01*
X012671Y004967D01*
X012656Y004890D01*
X012656Y004889D01*
X013015Y004889D01*
X013015Y004812D01*
X012656Y004812D01*
X012656Y004811D01*
X012671Y004735D01*
X012701Y004662D01*
X012745Y004597D01*
X012800Y004542D01*
X012865Y004498D01*
X012892Y004487D01*
X012621Y004487D01*
X012387Y004722D01*
X012411Y004779D01*
X012411Y004922D01*
X012357Y005053D01*
X012256Y005154D01*
X012125Y005208D01*
X011982Y005208D01*
X011851Y005154D01*
X011751Y005053D01*
X011696Y004922D01*
X011696Y004779D01*
X011751Y004648D01*
X011851Y004548D01*
X011982Y004493D01*
X012106Y004493D01*
X012367Y004233D01*
X012472Y004127D01*
X014272Y004127D01*
X014421Y004127D01*
X016127Y005833D01*
X016127Y005982D01*
X016127Y007995D01*
X019046Y010915D01*
X019097Y010915D01*
X019191Y010954D01*
X019263Y011026D01*
X019302Y011119D01*
X019302Y011221D01*
X019263Y011314D01*
X019191Y011386D01*
X019097Y011425D01*
X019046Y011425D01*
X017027Y013445D01*
X017027Y014327D01*
X017063Y014363D01*
X017102Y014457D01*
X017102Y014558D01*
X017063Y014652D01*
X016991Y014724D01*
X016897Y014762D01*
X016796Y014762D01*
X016792Y014761D01*
X014105Y017447D01*
X013989Y017447D01*
X012565Y017447D01*
X012563Y017452D01*
X012491Y017524D01*
X012397Y017562D01*
X012296Y017562D01*
X012202Y017524D01*
X012131Y017452D01*
X012092Y017358D01*
X012092Y017257D01*
X012131Y017163D01*
X012202Y017091D01*
X012296Y017052D01*
X012397Y017052D01*
X012491Y017091D01*
X012563Y017163D01*
X012565Y017167D01*
X013989Y017167D01*
X016594Y014563D01*
X016592Y014558D01*
X016592Y014457D01*
X016631Y014363D01*
X016667Y014327D01*
X016667Y013445D01*
X016667Y013295D01*
X018792Y011170D01*
X018792Y011169D01*
X015767Y008145D01*
X015767Y007995D01*
X015767Y005982D01*
X015767Y006021D02*
X013478Y006021D01*
X013434Y006099D02*
X015767Y006099D01*
X015767Y006178D02*
X013355Y006178D01*
X013217Y006256D02*
X015767Y006256D01*
X015767Y006335D02*
X012572Y006335D01*
X012494Y006256D02*
X012877Y006256D01*
X012738Y006178D02*
X012415Y006178D01*
X012337Y006099D02*
X012660Y006099D01*
X012616Y006021D02*
X012258Y006021D01*
X012180Y005942D02*
X012583Y005942D01*
X012567Y005864D02*
X012101Y005864D01*
X012100Y005863D02*
X013255Y007017D01*
X013879Y007017D01*
X013881Y007013D01*
X013952Y006941D01*
X014046Y006902D01*
X014147Y006902D01*
X014241Y006941D01*
X014313Y007013D01*
X014352Y007107D01*
X014352Y007208D01*
X014313Y007302D01*
X014241Y007374D01*
X014147Y007412D01*
X014046Y007412D01*
X013952Y007374D01*
X013881Y007302D01*
X013879Y007297D01*
X013139Y007297D01*
X013057Y007215D01*
X011902Y006061D01*
X011897Y006062D01*
X011796Y006062D01*
X011702Y006024D01*
X011631Y005952D01*
X011592Y005858D01*
X011592Y005757D01*
X011631Y005663D01*
X011702Y005591D01*
X011796Y005552D01*
X011897Y005552D01*
X011991Y005591D01*
X012063Y005663D01*
X012102Y005757D01*
X012102Y005858D01*
X012100Y005863D01*
X012102Y005785D02*
X012567Y005785D01*
X012569Y005707D02*
X012081Y005707D01*
X012028Y005628D02*
X012601Y005628D01*
X012634Y005550D02*
X011459Y005550D01*
X011492Y005628D02*
X011665Y005628D01*
X011612Y005707D02*
X011525Y005707D01*
X011527Y005785D02*
X011592Y005785D01*
X011594Y005864D02*
X011527Y005864D01*
X011510Y005942D02*
X011627Y005942D01*
X011571Y006021D02*
X011700Y006021D01*
X011650Y006099D02*
X011941Y006099D01*
X012019Y006178D02*
X011728Y006178D01*
X011807Y006256D02*
X012098Y006256D01*
X012176Y006335D02*
X011885Y006335D01*
X011964Y006414D02*
X012255Y006414D01*
X012333Y006492D02*
X012042Y006492D01*
X012067Y006571D02*
X012412Y006571D01*
X012491Y006649D02*
X012067Y006649D01*
X012067Y006728D02*
X012569Y006728D01*
X012648Y006806D02*
X012067Y006806D01*
X012067Y006885D02*
X012726Y006885D01*
X012805Y006963D02*
X012067Y006963D01*
X012067Y007042D02*
X012883Y007042D01*
X012962Y007120D02*
X012067Y007120D01*
X012067Y007199D02*
X013040Y007199D01*
X013119Y007277D02*
X012067Y007277D01*
X012067Y007356D02*
X013935Y007356D01*
X014097Y007157D02*
X013197Y007157D01*
X011847Y005807D01*
X011389Y005471D02*
X012704Y005471D01*
X012794Y005392D02*
X011299Y005392D01*
X011242Y005203D02*
X011170Y005233D01*
X011093Y005248D01*
X011092Y005248D01*
X011092Y004890D01*
X011015Y004890D01*
X011015Y005248D01*
X011014Y005248D01*
X010938Y005233D01*
X010865Y005203D01*
X010800Y005159D01*
X010745Y005104D01*
X010701Y005039D01*
X010671Y004967D01*
X010656Y004890D01*
X010656Y004889D01*
X011015Y004889D01*
X011015Y004812D01*
X010656Y004812D01*
X010656Y004811D01*
X010671Y004735D01*
X010701Y004662D01*
X010745Y004597D01*
X010800Y004542D01*
X010865Y004498D01*
X010938Y004468D01*
X011014Y004453D01*
X011015Y004453D01*
X011015Y004812D01*
X011092Y004812D01*
X011092Y004453D01*
X011093Y004453D01*
X011170Y004468D01*
X011242Y004498D01*
X011307Y004542D01*
X011362Y004597D01*
X011406Y004662D01*
X011436Y004735D01*
X011451Y004811D01*
X011451Y004812D01*
X011093Y004812D01*
X011093Y004889D01*
X011451Y004889D01*
X011451Y004890D01*
X011436Y004967D01*
X011406Y005039D01*
X011362Y005104D01*
X011307Y005159D01*
X011242Y005203D01*
X011309Y005157D02*
X011859Y005157D01*
X011776Y005078D02*
X011380Y005078D01*
X011422Y005000D02*
X011728Y005000D01*
X011696Y004921D02*
X011445Y004921D01*
X011442Y004764D02*
X011702Y004764D01*
X011696Y004843D02*
X011093Y004843D01*
X011092Y004921D02*
X011015Y004921D01*
X011015Y004843D02*
X010411Y004843D01*
X010411Y004921D02*
X010662Y004921D01*
X010685Y005000D02*
X010379Y005000D01*
X010331Y005078D02*
X010728Y005078D01*
X010798Y005157D02*
X010248Y005157D01*
X010142Y005327D02*
X009951Y005327D01*
X009775Y005400D01*
X009640Y005535D01*
X009567Y005712D01*
X009567Y005903D01*
X009640Y006079D01*
X009775Y006214D01*
X009951Y006287D01*
X010142Y006287D01*
X010319Y006214D01*
X010454Y006079D01*
X010527Y005903D01*
X010527Y005712D01*
X010454Y005535D01*
X010319Y005400D01*
X010142Y005327D01*
X010299Y005392D02*
X010794Y005392D01*
X010704Y005471D02*
X010389Y005471D01*
X010459Y005550D02*
X010634Y005550D01*
X010601Y005628D02*
X010492Y005628D01*
X010525Y005707D02*
X010569Y005707D01*
X010567Y005785D02*
X010527Y005785D01*
X010527Y005864D02*
X010567Y005864D01*
X010583Y005942D02*
X010510Y005942D01*
X010478Y006021D02*
X010616Y006021D01*
X010660Y006099D02*
X010434Y006099D01*
X010355Y006178D02*
X010738Y006178D01*
X010877Y006256D02*
X010217Y006256D01*
X009877Y006256D02*
X007679Y006256D01*
X007679Y006226D02*
X007679Y006304D01*
X008037Y006304D01*
X008022Y006381D01*
X007992Y006453D01*
X007948Y006518D01*
X007893Y006573D01*
X007828Y006617D01*
X007755Y006647D01*
X007679Y006662D01*
X007678Y006662D01*
X007678Y006304D01*
X007601Y006304D01*
X007601Y006662D01*
X007600Y006662D01*
X007524Y006647D01*
X007451Y006617D01*
X007386Y006573D01*
X007331Y006518D01*
X007287Y006453D01*
X007257Y006381D01*
X007242Y006304D01*
X007242Y006304D01*
X007601Y006304D01*
X007601Y006226D01*
X007678Y006226D01*
X007678Y005867D01*
X007679Y005867D01*
X007755Y005883D01*
X007828Y005913D01*
X007893Y005956D01*
X007948Y006011D01*
X007992Y006076D01*
X008022Y006149D01*
X008037Y006226D01*
X007679Y006226D01*
X007678Y006178D02*
X007601Y006178D01*
X007601Y006226D02*
X007601Y005867D01*
X007600Y005867D01*
X007524Y005883D01*
X007451Y005913D01*
X007386Y005956D01*
X007331Y006011D01*
X007287Y006076D01*
X007257Y006149D01*
X007242Y006226D01*
X007242Y006226D01*
X007601Y006226D01*
X007601Y006256D02*
X005602Y006256D01*
X005514Y006335D02*
X007248Y006335D01*
X007271Y006414D02*
X005425Y006414D01*
X005336Y006492D02*
X007313Y006492D01*
X007383Y006571D02*
X005248Y006571D01*
X005174Y006649D02*
X006777Y006649D01*
X006730Y006669D02*
X006861Y006614D01*
X007004Y006614D01*
X007135Y006669D01*
X007235Y006769D01*
X007290Y006901D01*
X007290Y007043D01*
X007235Y007174D01*
X007135Y007275D01*
X007004Y007329D01*
X006861Y007329D01*
X006730Y007275D01*
X006629Y007174D01*
X006575Y007043D01*
X006575Y006901D01*
X006629Y006769D01*
X006730Y006669D01*
X006671Y006728D02*
X005104Y006728D01*
X005035Y006806D02*
X006614Y006806D01*
X006581Y006885D02*
X004965Y006885D01*
X004896Y006963D02*
X006575Y006963D01*
X006575Y007042D02*
X004826Y007042D01*
X004756Y007120D02*
X006607Y007120D01*
X006654Y007199D02*
X004687Y007199D01*
X004617Y007277D02*
X006736Y007277D01*
X006528Y007476D02*
X006583Y007608D01*
X006583Y007750D01*
X006528Y007881D01*
X006428Y007982D01*
X006296Y008036D01*
X006154Y008036D01*
X006023Y007982D01*
X005922Y007881D01*
X005868Y007750D01*
X005868Y007608D01*
X005922Y007476D01*
X006023Y007376D01*
X006154Y007321D01*
X006296Y007321D01*
X006428Y007376D01*
X006528Y007476D01*
X006544Y007513D02*
X007124Y007513D01*
X007124Y007546D02*
X007124Y007392D01*
X007183Y007250D01*
X007291Y007141D01*
X007434Y007082D01*
X007587Y007082D01*
X007730Y007141D01*
X007838Y007250D01*
X007897Y007392D01*
X007897Y007546D01*
X007838Y007688D01*
X007730Y007797D01*
X007587Y007856D01*
X007434Y007856D01*
X007291Y007797D01*
X007183Y007688D01*
X007124Y007546D01*
X007143Y007592D02*
X006576Y007592D01*
X006583Y007670D02*
X007175Y007670D01*
X007243Y007749D02*
X006583Y007749D01*
X006551Y007827D02*
X007364Y007827D01*
X007657Y007827D02*
X008929Y007827D01*
X009007Y007749D02*
X007778Y007749D01*
X007846Y007670D02*
X009086Y007670D01*
X009147Y007807D02*
X010147Y007807D01*
X011397Y009057D01*
X011574Y009241D02*
X011627Y009241D01*
X011627Y009320D02*
X008333Y009320D01*
X008411Y009241D02*
X011220Y009241D01*
X011164Y009163D02*
X008490Y009163D01*
X008568Y009084D02*
X011142Y009084D01*
X011142Y009005D02*
X008647Y009005D01*
X008725Y008927D02*
X011068Y008927D01*
X010990Y008848D02*
X008804Y008848D01*
X008882Y008770D02*
X010911Y008770D01*
X010833Y008691D02*
X008961Y008691D01*
X009039Y008613D02*
X010754Y008613D01*
X010676Y008534D02*
X009118Y008534D01*
X009314Y008456D02*
X010597Y008456D01*
X010519Y008377D02*
X009438Y008377D01*
X009485Y008299D02*
X010440Y008299D01*
X010361Y008220D02*
X009502Y008220D01*
X009495Y008141D02*
X010283Y008141D01*
X010204Y008063D02*
X009463Y008063D01*
X009375Y007984D02*
X010126Y007984D01*
X010286Y007749D02*
X011627Y007749D01*
X011627Y007827D02*
X010365Y007827D01*
X010443Y007906D02*
X011627Y007906D01*
X011627Y007984D02*
X010522Y007984D01*
X010600Y008063D02*
X011627Y008063D01*
X011627Y008141D02*
X010679Y008141D01*
X010757Y008220D02*
X011627Y008220D01*
X011627Y008299D02*
X010836Y008299D01*
X010914Y008377D02*
X011627Y008377D01*
X011627Y008456D02*
X010993Y008456D01*
X011071Y008534D02*
X011627Y008534D01*
X011627Y008613D02*
X011150Y008613D01*
X011229Y008691D02*
X011627Y008691D01*
X011627Y008770D02*
X011307Y008770D01*
X011548Y008848D02*
X011627Y008848D01*
X011619Y008927D02*
X011627Y008927D01*
X012067Y008927D02*
X016549Y008927D01*
X016471Y008848D02*
X012067Y008848D01*
X012067Y008770D02*
X016392Y008770D01*
X016314Y008691D02*
X012067Y008691D01*
X012067Y008613D02*
X016235Y008613D01*
X016156Y008534D02*
X012067Y008534D01*
X012067Y008456D02*
X016078Y008456D01*
X015999Y008377D02*
X012067Y008377D01*
X012067Y008299D02*
X015921Y008299D01*
X015842Y008220D02*
X012067Y008220D01*
X012067Y008141D02*
X015767Y008141D01*
X015767Y008063D02*
X012067Y008063D01*
X012067Y007984D02*
X015767Y007984D01*
X015767Y007906D02*
X012067Y007906D01*
X012067Y007827D02*
X015767Y007827D01*
X015767Y007749D02*
X012067Y007749D01*
X012067Y007670D02*
X015767Y007670D01*
X015767Y007592D02*
X012067Y007592D01*
X012067Y007513D02*
X015767Y007513D01*
X015767Y007435D02*
X012067Y007435D01*
X011627Y007435D02*
X007897Y007435D01*
X007897Y007513D02*
X011627Y007513D01*
X011627Y007592D02*
X007879Y007592D01*
X007882Y007356D02*
X011627Y007356D01*
X011627Y007277D02*
X007850Y007277D01*
X007787Y007199D02*
X011627Y007199D01*
X011627Y007120D02*
X007679Y007120D01*
X007342Y007120D02*
X007258Y007120D01*
X007234Y007199D02*
X007211Y007199D01*
X007171Y007277D02*
X007129Y007277D01*
X007139Y007356D02*
X006380Y007356D01*
X006487Y007435D02*
X007124Y007435D01*
X007290Y007042D02*
X011627Y007042D01*
X011627Y006963D02*
X007290Y006963D01*
X007283Y006885D02*
X011627Y006885D01*
X011627Y006806D02*
X007251Y006806D01*
X007194Y006728D02*
X011627Y006728D01*
X011577Y006649D02*
X007744Y006649D01*
X007678Y006649D02*
X007601Y006649D01*
X007535Y006649D02*
X007087Y006649D01*
X007252Y006178D02*
X005691Y006178D01*
X005780Y006099D02*
X007278Y006099D01*
X007324Y006021D02*
X005868Y006021D01*
X005957Y005942D02*
X007407Y005942D01*
X007601Y005942D02*
X007678Y005942D01*
X007678Y006021D02*
X007601Y006021D01*
X007601Y006099D02*
X007678Y006099D01*
X007678Y006335D02*
X007601Y006335D01*
X007601Y006414D02*
X007678Y006414D01*
X007678Y006492D02*
X007601Y006492D01*
X007601Y006571D02*
X007678Y006571D01*
X007896Y006571D02*
X011499Y006571D01*
X011420Y006492D02*
X007966Y006492D01*
X008008Y006414D02*
X011342Y006414D01*
X011263Y006335D02*
X008031Y006335D01*
X008037Y006304D02*
X008037Y006304D01*
X008037Y006226D02*
X008037Y006226D01*
X008027Y006178D02*
X009738Y006178D01*
X009660Y006099D02*
X008001Y006099D01*
X007954Y006021D02*
X009616Y006021D01*
X009583Y005942D02*
X008451Y005942D01*
X008385Y005942D02*
X008308Y005942D01*
X008243Y005942D02*
X007872Y005942D01*
X008021Y005785D02*
X006141Y005785D01*
X006046Y005864D02*
X008091Y005864D01*
X007978Y005707D02*
X006254Y005707D01*
X006368Y005628D02*
X007955Y005628D01*
X008308Y005628D02*
X008385Y005628D01*
X008386Y005550D02*
X009634Y005550D01*
X009601Y005628D02*
X008738Y005628D01*
X008715Y005707D02*
X009569Y005707D01*
X009567Y005785D02*
X008673Y005785D01*
X008603Y005864D02*
X009567Y005864D01*
X009704Y005471D02*
X008735Y005471D01*
X008744Y005519D02*
X008744Y005519D01*
X008708Y005392D02*
X009794Y005392D01*
X009156Y005235D02*
X010951Y005235D01*
X011015Y005235D02*
X011092Y005235D01*
X011157Y005235D02*
X012951Y005235D01*
X013015Y005235D02*
X013092Y005235D01*
X013157Y005235D02*
X015020Y005235D01*
X014942Y005157D02*
X014248Y005157D01*
X014256Y005154D02*
X014125Y005208D01*
X013982Y005208D01*
X013851Y005154D01*
X013751Y005053D01*
X013696Y004922D01*
X013696Y004779D01*
X013751Y004648D01*
X013851Y004548D01*
X013982Y004493D01*
X014125Y004493D01*
X014256Y004548D01*
X014357Y004648D01*
X014411Y004779D01*
X014411Y004922D01*
X014357Y005053D01*
X014256Y005154D01*
X014331Y005078D02*
X014863Y005078D01*
X014785Y005000D02*
X014379Y005000D01*
X014411Y004921D02*
X014706Y004921D01*
X014627Y004843D02*
X014411Y004843D01*
X014405Y004764D02*
X014549Y004764D01*
X014470Y004686D02*
X014372Y004686D01*
X014392Y004607D02*
X014316Y004607D01*
X014313Y004528D02*
X014210Y004528D01*
X013897Y004528D02*
X013287Y004528D01*
X013369Y004607D02*
X013792Y004607D01*
X013735Y004686D02*
X013415Y004686D01*
X013442Y004764D02*
X013702Y004764D01*
X013696Y004843D02*
X013093Y004843D01*
X013092Y004921D02*
X013015Y004921D01*
X013015Y004843D02*
X012411Y004843D01*
X012411Y004921D02*
X012662Y004921D01*
X012685Y005000D02*
X012379Y005000D01*
X012331Y005078D02*
X012728Y005078D01*
X012798Y005157D02*
X012248Y005157D01*
X012405Y004764D02*
X012666Y004764D01*
X012692Y004686D02*
X012423Y004686D01*
X012502Y004607D02*
X012738Y004607D01*
X012820Y004528D02*
X012580Y004528D01*
X012307Y004293D02*
X008900Y004293D01*
X009107Y004214D02*
X012385Y004214D01*
X012464Y004136D02*
X009356Y004136D01*
X009675Y004057D02*
X019447Y004057D01*
X019447Y003979D02*
X009993Y003979D01*
X010312Y003900D02*
X019447Y003900D01*
X019447Y003822D02*
X010886Y003822D01*
X011533Y003743D02*
X019447Y003743D01*
X019447Y004136D02*
X014430Y004136D01*
X014508Y004214D02*
X019447Y004214D01*
X019447Y004293D02*
X014587Y004293D01*
X014665Y004371D02*
X019447Y004371D01*
X019447Y004450D02*
X014744Y004450D01*
X014822Y004528D02*
X019447Y004528D01*
X019447Y004607D02*
X014901Y004607D01*
X014979Y004686D02*
X019447Y004686D01*
X019447Y004764D02*
X015058Y004764D01*
X015137Y004843D02*
X019447Y004843D01*
X019447Y004921D02*
X015215Y004921D01*
X015294Y005000D02*
X019447Y005000D01*
X019447Y005078D02*
X015372Y005078D01*
X015451Y005157D02*
X019447Y005157D01*
X019447Y005235D02*
X015529Y005235D01*
X015608Y005314D02*
X019447Y005314D01*
X019447Y005392D02*
X015686Y005392D01*
X015765Y005471D02*
X019447Y005471D01*
X019447Y005550D02*
X015843Y005550D01*
X015922Y005628D02*
X016986Y005628D01*
X016997Y005624D02*
X017229Y005624D01*
X017444Y005713D01*
X017608Y005877D01*
X017697Y006091D01*
X017697Y006324D01*
X017608Y006538D01*
X017444Y006702D01*
X017229Y006791D01*
X016997Y006791D01*
X016782Y006702D01*
X016618Y006538D01*
X016529Y006324D01*
X016529Y006091D01*
X016618Y005877D01*
X016782Y005713D01*
X016997Y005624D01*
X016797Y005707D02*
X016001Y005707D01*
X016079Y005785D02*
X016710Y005785D01*
X016631Y005864D02*
X016127Y005864D01*
X016127Y005942D02*
X016591Y005942D01*
X016558Y006021D02*
X016127Y006021D01*
X016127Y006099D02*
X016529Y006099D01*
X016529Y006178D02*
X016127Y006178D01*
X016127Y006256D02*
X016529Y006256D01*
X016534Y006335D02*
X016127Y006335D01*
X016127Y006414D02*
X016566Y006414D01*
X016599Y006492D02*
X016127Y006492D01*
X016127Y006571D02*
X016651Y006571D01*
X016729Y006649D02*
X016127Y006649D01*
X016127Y006728D02*
X016844Y006728D01*
X017382Y006728D02*
X019447Y006728D01*
X019447Y006806D02*
X016127Y006806D01*
X016127Y006885D02*
X019447Y006885D01*
X019447Y006963D02*
X016127Y006963D01*
X016127Y007042D02*
X019447Y007042D01*
X019447Y007120D02*
X016127Y007120D01*
X016127Y007199D02*
X019447Y007199D01*
X019447Y007277D02*
X016127Y007277D01*
X016127Y007356D02*
X019447Y007356D01*
X019447Y007435D02*
X016127Y007435D01*
X016127Y007513D02*
X019447Y007513D01*
X019447Y007592D02*
X016127Y007592D01*
X016127Y007670D02*
X019447Y007670D01*
X019447Y007749D02*
X016127Y007749D01*
X016127Y007827D02*
X019447Y007827D01*
X019447Y007906D02*
X016127Y007906D01*
X016127Y007984D02*
X019447Y007984D01*
X019447Y008063D02*
X016194Y008063D01*
X016273Y008141D02*
X019447Y008141D01*
X019447Y008220D02*
X016351Y008220D01*
X016430Y008299D02*
X019447Y008299D01*
X019447Y008377D02*
X016508Y008377D01*
X016587Y008456D02*
X019447Y008456D01*
X019447Y008534D02*
X016665Y008534D01*
X016744Y008613D02*
X019447Y008613D01*
X019447Y008691D02*
X016823Y008691D01*
X016901Y008770D02*
X019447Y008770D01*
X019447Y008848D02*
X016980Y008848D01*
X017058Y008927D02*
X019447Y008927D01*
X019447Y009005D02*
X017137Y009005D01*
X017215Y009084D02*
X019447Y009084D01*
X019447Y009163D02*
X017294Y009163D01*
X017372Y009241D02*
X019447Y009241D01*
X019447Y009320D02*
X017451Y009320D01*
X017529Y009398D02*
X019447Y009398D01*
X019447Y009477D02*
X017608Y009477D01*
X017686Y009555D02*
X019447Y009555D01*
X019447Y009634D02*
X017765Y009634D01*
X017844Y009712D02*
X019447Y009712D01*
X019447Y009791D02*
X017922Y009791D01*
X018001Y009869D02*
X019447Y009869D01*
X019447Y009948D02*
X018079Y009948D01*
X018158Y010026D02*
X019447Y010026D01*
X019447Y010105D02*
X018236Y010105D01*
X018315Y010184D02*
X019447Y010184D01*
X019447Y010262D02*
X018393Y010262D01*
X018472Y010341D02*
X019447Y010341D01*
X019447Y010419D02*
X018550Y010419D01*
X018629Y010498D02*
X019447Y010498D01*
X019447Y010576D02*
X018708Y010576D01*
X018786Y010655D02*
X019447Y010655D01*
X019447Y010733D02*
X018865Y010733D01*
X018943Y010812D02*
X019447Y010812D01*
X019447Y010890D02*
X019022Y010890D01*
X019206Y010969D02*
X019447Y010969D01*
X019447Y011048D02*
X019272Y011048D01*
X019302Y011126D02*
X019447Y011126D01*
X019447Y011205D02*
X019302Y011205D01*
X019276Y011283D02*
X019447Y011283D01*
X019447Y011362D02*
X019216Y011362D01*
X019031Y011440D02*
X019447Y011440D01*
X019447Y011519D02*
X018952Y011519D01*
X018874Y011597D02*
X019447Y011597D01*
X019447Y011676D02*
X018795Y011676D01*
X018717Y011754D02*
X019447Y011754D01*
X019447Y011833D02*
X018638Y011833D01*
X018560Y011912D02*
X019447Y011912D01*
X019447Y011990D02*
X018481Y011990D01*
X018403Y012069D02*
X019447Y012069D01*
X019447Y012147D02*
X018324Y012147D01*
X018246Y012226D02*
X019447Y012226D01*
X019447Y012304D02*
X018167Y012304D01*
X018088Y012383D02*
X019447Y012383D01*
X019447Y012461D02*
X018010Y012461D01*
X017931Y012540D02*
X019447Y012540D01*
X019447Y012618D02*
X017853Y012618D01*
X017774Y012697D02*
X019447Y012697D01*
X019447Y012776D02*
X017696Y012776D01*
X017617Y012854D02*
X019447Y012854D01*
X019447Y012933D02*
X017539Y012933D01*
X017460Y013011D02*
X019447Y013011D01*
X019447Y013090D02*
X017382Y013090D01*
X017303Y013168D02*
X019447Y013168D01*
X019447Y013247D02*
X017224Y013247D01*
X017146Y013325D02*
X019447Y013325D01*
X019447Y013404D02*
X017067Y013404D01*
X017027Y013482D02*
X019447Y013482D01*
X019447Y013561D02*
X017027Y013561D01*
X017027Y013639D02*
X019447Y013639D01*
X019447Y013718D02*
X017027Y013718D01*
X017027Y013797D02*
X019447Y013797D01*
X019447Y013875D02*
X017027Y013875D01*
X017027Y013954D02*
X019447Y013954D01*
X019447Y014032D02*
X017027Y014032D01*
X017027Y014111D02*
X019447Y014111D01*
X019447Y014189D02*
X017027Y014189D01*
X017027Y014268D02*
X019447Y014268D01*
X019447Y014346D02*
X017046Y014346D01*
X017089Y014425D02*
X019447Y014425D01*
X019447Y014503D02*
X017102Y014503D01*
X017092Y014582D02*
X019447Y014582D01*
X019447Y014661D02*
X017054Y014661D01*
X016954Y014739D02*
X019447Y014739D01*
X019447Y014818D02*
X016734Y014818D01*
X016656Y014896D02*
X019447Y014896D01*
X019447Y014975D02*
X016577Y014975D01*
X016499Y015053D02*
X019447Y015053D01*
X019447Y015132D02*
X016420Y015132D01*
X016342Y015210D02*
X019447Y015210D01*
X019447Y015289D02*
X016263Y015289D01*
X016185Y015367D02*
X019447Y015367D01*
X019447Y015446D02*
X016106Y015446D01*
X016028Y015525D02*
X019447Y015525D01*
X019447Y015603D02*
X015949Y015603D01*
X015871Y015682D02*
X019447Y015682D01*
X019447Y015760D02*
X015792Y015760D01*
X015713Y015839D02*
X019447Y015839D01*
X019447Y015917D02*
X015635Y015917D01*
X015556Y015996D02*
X019447Y015996D01*
X019447Y016074D02*
X015478Y016074D01*
X015399Y016153D02*
X019447Y016153D01*
X019447Y016231D02*
X015321Y016231D01*
X015242Y016310D02*
X019447Y016310D01*
X019447Y016389D02*
X015164Y016389D01*
X015085Y016467D02*
X019447Y016467D01*
X019447Y016546D02*
X015007Y016546D01*
X014928Y016624D02*
X019447Y016624D01*
X019447Y016703D02*
X014849Y016703D01*
X014771Y016781D02*
X019447Y016781D01*
X019447Y016860D02*
X014692Y016860D01*
X014614Y016938D02*
X019447Y016938D01*
X019447Y017017D02*
X014535Y017017D01*
X014457Y017095D02*
X019447Y017095D01*
X019447Y017174D02*
X014378Y017174D01*
X014300Y017252D02*
X019447Y017252D01*
X019447Y017331D02*
X014221Y017331D01*
X014143Y017410D02*
X019447Y017410D01*
X019447Y017488D02*
X012527Y017488D01*
X012347Y017307D02*
X014047Y017307D01*
X016847Y014507D01*
X016592Y014503D02*
X010087Y014503D01*
X010087Y014425D02*
X016605Y014425D01*
X016647Y014346D02*
X010087Y014346D01*
X010087Y014268D02*
X016667Y014268D01*
X016667Y014189D02*
X010087Y014189D01*
X010087Y014125D02*
X010087Y018585D01*
X010005Y018667D01*
X008505Y020167D01*
X008485Y020167D01*
X007990Y020662D01*
X007997Y020679D01*
X007997Y020821D01*
X007943Y020952D01*
X007842Y021053D01*
X007711Y021107D01*
X007568Y021107D01*
X007437Y021053D01*
X007336Y020952D01*
X007282Y020821D01*
X007282Y020679D01*
X007336Y020547D01*
X007437Y020447D01*
X007568Y020392D01*
X007711Y020392D01*
X007819Y020437D01*
X008307Y019949D01*
X008389Y019867D01*
X008409Y019867D01*
X009807Y018469D01*
X009807Y014125D01*
X009802Y014124D01*
X009731Y014052D01*
X009729Y014047D01*
X008605Y014047D01*
X008489Y014047D01*
X007902Y013460D01*
X007902Y013558D01*
X007863Y013652D01*
X007791Y013724D01*
X007697Y013762D01*
X007596Y013762D01*
X007502Y013724D01*
X007431Y013652D01*
X007428Y013646D01*
X007311Y013646D01*
X007311Y013764D01*
X007293Y013782D01*
X007311Y013799D01*
X007311Y013917D01*
X007429Y013917D01*
X007431Y013913D01*
X007502Y013841D01*
X007596Y013802D01*
X007697Y013802D01*
X007791Y013841D01*
X007863Y013913D01*
X007902Y014007D01*
X007902Y014108D01*
X007863Y014202D01*
X007791Y014274D01*
X007697Y014312D01*
X007596Y014312D01*
X007502Y014274D01*
X007431Y014202D01*
X007429Y014197D01*
X007311Y014197D01*
X007311Y014315D01*
X007252Y014374D01*
X006441Y014374D01*
X006383Y014315D01*
X006383Y013799D01*
X006400Y013782D01*
X006383Y013764D01*
X006383Y013727D01*
X006297Y013762D01*
X006196Y013762D01*
X006102Y013724D01*
X006031Y013652D01*
X005992Y013558D01*
X005992Y013457D01*
X006031Y013363D01*
X006102Y013291D01*
X006196Y013252D01*
X006297Y013252D01*
X006383Y013288D01*
X006383Y013248D01*
X006400Y013231D01*
X006383Y013213D01*
X006383Y012697D01*
X005869Y012697D01*
X005869Y012693D02*
X005818Y012569D01*
X005723Y012474D01*
X005599Y012423D01*
X005465Y012423D01*
X005341Y012474D01*
X005246Y012569D01*
X005194Y012693D01*
X005194Y012827D01*
X005246Y012951D01*
X005341Y013046D01*
X005465Y013098D01*
X005599Y013098D01*
X005723Y013046D01*
X005818Y012951D01*
X005869Y012827D01*
X005869Y012693D01*
X005839Y012618D02*
X017344Y012618D01*
X017422Y012540D02*
X005789Y012540D01*
X005693Y012461D02*
X017501Y012461D01*
X017579Y012383D02*
X004387Y012383D01*
X004387Y012461D02*
X005371Y012461D01*
X005275Y012540D02*
X004387Y012540D01*
X004387Y012618D02*
X005225Y012618D01*
X005194Y012697D02*
X004693Y012697D01*
X004693Y012776D02*
X005194Y012776D01*
X005205Y012854D02*
X004693Y012854D01*
X004693Y012933D02*
X005238Y012933D01*
X005305Y013011D02*
X004693Y013011D01*
X004693Y013090D02*
X005445Y013090D01*
X005618Y013090D02*
X006383Y013090D01*
X006383Y013168D02*
X004693Y013168D01*
X004726Y013247D02*
X006384Y013247D01*
X006383Y013011D02*
X005758Y013011D01*
X005826Y012933D02*
X006383Y012933D01*
X006383Y012854D02*
X005858Y012854D01*
X005869Y012776D02*
X006383Y012776D01*
X006383Y012697D02*
X006441Y012639D01*
X007252Y012639D01*
X007311Y012697D01*
X007311Y012815D01*
X007479Y012815D01*
X007502Y012791D01*
X007596Y012752D01*
X007697Y012752D01*
X007791Y012791D01*
X007863Y012863D01*
X007902Y012957D01*
X007902Y013058D01*
X007900Y013063D01*
X008605Y013767D01*
X009729Y013767D01*
X009731Y013763D01*
X009802Y013691D01*
X009896Y013652D01*
X009997Y013652D01*
X010091Y013691D01*
X010163Y013763D01*
X010202Y013857D01*
X010202Y013958D01*
X010163Y014052D01*
X010091Y014124D01*
X010087Y014125D01*
X010104Y014111D02*
X016667Y014111D01*
X016667Y014032D02*
X010171Y014032D01*
X010202Y013954D02*
X016667Y013954D01*
X016667Y013875D02*
X010202Y013875D01*
X010177Y013797D02*
X016667Y013797D01*
X016667Y013718D02*
X010118Y013718D01*
X009947Y013907D02*
X009947Y018527D01*
X008447Y020027D01*
X008447Y020007D01*
X007704Y020750D01*
X007640Y020750D01*
X007979Y020865D02*
X019447Y020865D01*
X019447Y020787D02*
X007997Y020787D01*
X007997Y020708D02*
X019447Y020708D01*
X019447Y020630D02*
X008022Y020630D01*
X008101Y020551D02*
X019447Y020551D01*
X019447Y020473D02*
X008179Y020473D01*
X008258Y020394D02*
X019447Y020394D01*
X019447Y020316D02*
X008336Y020316D01*
X008415Y020237D02*
X019447Y020237D01*
X019447Y020159D02*
X008514Y020159D01*
X008592Y020080D02*
X019447Y020080D01*
X019447Y020001D02*
X008671Y020001D01*
X008749Y019923D02*
X019447Y019923D01*
X019447Y019844D02*
X008828Y019844D01*
X008906Y019766D02*
X019447Y019766D01*
X019447Y019687D02*
X008985Y019687D01*
X009063Y019609D02*
X019447Y019609D01*
X019447Y019530D02*
X009142Y019530D01*
X009220Y019452D02*
X019447Y019452D01*
X019447Y019373D02*
X009299Y019373D01*
X009378Y019295D02*
X019447Y019295D01*
X019447Y019216D02*
X009456Y019216D01*
X009535Y019138D02*
X019447Y019138D01*
X019447Y019059D02*
X009613Y019059D01*
X009692Y018980D02*
X019447Y018980D01*
X019447Y018902D02*
X009770Y018902D01*
X009849Y018823D02*
X019447Y018823D01*
X019447Y018745D02*
X009927Y018745D01*
X010006Y018666D02*
X019447Y018666D01*
X019447Y018588D02*
X010084Y018588D01*
X010087Y018509D02*
X019447Y018509D01*
X019447Y018431D02*
X010087Y018431D01*
X010087Y018352D02*
X019447Y018352D01*
X019447Y018274D02*
X010087Y018274D01*
X010087Y018195D02*
X019447Y018195D01*
X019447Y018116D02*
X010087Y018116D01*
X010087Y018038D02*
X019447Y018038D01*
X019447Y017959D02*
X010087Y017959D01*
X010087Y017881D02*
X019447Y017881D01*
X019447Y017802D02*
X010087Y017802D01*
X010087Y017724D02*
X019447Y017724D01*
X019447Y017645D02*
X010087Y017645D01*
X010087Y017567D02*
X019447Y017567D01*
X016417Y014739D02*
X010087Y014739D01*
X010087Y014661D02*
X016496Y014661D01*
X016574Y014582D02*
X010087Y014582D01*
X010087Y014818D02*
X016339Y014818D01*
X016260Y014896D02*
X010087Y014896D01*
X010087Y014975D02*
X016181Y014975D01*
X016103Y015053D02*
X010087Y015053D01*
X010087Y015132D02*
X016024Y015132D01*
X015946Y015210D02*
X010087Y015210D01*
X010087Y015289D02*
X015867Y015289D01*
X015789Y015367D02*
X010087Y015367D01*
X010087Y015446D02*
X015710Y015446D01*
X015632Y015525D02*
X010087Y015525D01*
X010087Y015603D02*
X015553Y015603D01*
X015475Y015682D02*
X010087Y015682D01*
X010087Y015760D02*
X015396Y015760D01*
X015317Y015839D02*
X010087Y015839D01*
X010087Y015917D02*
X015239Y015917D01*
X015160Y015996D02*
X010087Y015996D01*
X010087Y016074D02*
X015082Y016074D01*
X015003Y016153D02*
X010087Y016153D01*
X010087Y016231D02*
X014925Y016231D01*
X014846Y016310D02*
X010087Y016310D01*
X010087Y016389D02*
X014768Y016389D01*
X014689Y016467D02*
X010087Y016467D01*
X010087Y016546D02*
X014611Y016546D01*
X014532Y016624D02*
X010087Y016624D01*
X010087Y016703D02*
X014453Y016703D01*
X014375Y016781D02*
X010087Y016781D01*
X010087Y016860D02*
X014296Y016860D01*
X014218Y016938D02*
X010087Y016938D01*
X010087Y017017D02*
X014139Y017017D01*
X014061Y017095D02*
X012495Y017095D01*
X012198Y017095D02*
X010087Y017095D01*
X010087Y017174D02*
X012126Y017174D01*
X012093Y017252D02*
X010087Y017252D01*
X010087Y017331D02*
X012092Y017331D01*
X012113Y017410D02*
X010087Y017410D01*
X010087Y017488D02*
X012167Y017488D01*
X009807Y017488D02*
X007297Y017488D01*
X007297Y017499D02*
X007238Y017557D01*
X006555Y017557D01*
X006497Y017499D01*
X006497Y017116D01*
X006555Y017057D01*
X007238Y017057D01*
X007297Y017116D01*
X007297Y017499D01*
X007297Y017410D02*
X009807Y017410D01*
X009807Y017331D02*
X007297Y017331D01*
X007297Y017252D02*
X009807Y017252D01*
X009807Y017174D02*
X007297Y017174D01*
X007276Y017095D02*
X009807Y017095D01*
X009807Y017017D02*
X004409Y017017D01*
X004407Y017012D02*
X004461Y017143D01*
X004461Y017286D01*
X004407Y017417D01*
X004306Y017517D01*
X004175Y017572D01*
X004033Y017572D01*
X003901Y017517D01*
X003801Y017417D01*
X003746Y017286D01*
X003746Y017143D01*
X003801Y017012D01*
X003901Y016911D01*
X004033Y016857D01*
X004175Y016857D01*
X004306Y016911D01*
X004407Y017012D01*
X004442Y017095D02*
X004517Y017095D01*
X004497Y017116D02*
X004555Y017057D01*
X005238Y017057D01*
X005297Y017116D01*
X005297Y017167D01*
X005329Y017167D01*
X005331Y017163D01*
X005402Y017091D01*
X005496Y017052D01*
X005597Y017052D01*
X005691Y017091D01*
X005763Y017163D01*
X005802Y017257D01*
X005802Y017358D01*
X005763Y017452D01*
X005691Y017524D01*
X005597Y017562D01*
X005496Y017562D01*
X005402Y017524D01*
X005331Y017452D01*
X005329Y017447D01*
X005297Y017447D01*
X005297Y017499D01*
X005238Y017557D01*
X004555Y017557D01*
X004497Y017499D01*
X004497Y017116D01*
X004497Y017174D02*
X004461Y017174D01*
X004461Y017252D02*
X004497Y017252D01*
X004497Y017331D02*
X004443Y017331D01*
X004410Y017410D02*
X004497Y017410D01*
X004497Y017488D02*
X004336Y017488D01*
X004188Y017567D02*
X004734Y017567D01*
X004740Y017564D02*
X004882Y017564D01*
X005014Y017619D01*
X005114Y017719D01*
X005169Y017850D01*
X005169Y017993D01*
X005114Y018124D01*
X005014Y018225D01*
X004882Y018279D01*
X004740Y018279D01*
X004609Y018225D01*
X004508Y018124D01*
X004454Y017993D01*
X004454Y017850D01*
X004508Y017719D01*
X004609Y017619D01*
X004740Y017564D01*
X004888Y017567D02*
X009807Y017567D01*
X009807Y017645D02*
X005040Y017645D01*
X005116Y017724D02*
X009807Y017724D01*
X009807Y017802D02*
X005149Y017802D01*
X005169Y017881D02*
X009807Y017881D01*
X009807Y017959D02*
X005169Y017959D01*
X005150Y018038D02*
X009807Y018038D01*
X009807Y018116D02*
X005117Y018116D01*
X005043Y018195D02*
X009807Y018195D01*
X009807Y018274D02*
X005595Y018274D01*
X005589Y018271D02*
X005721Y018326D01*
X005821Y018426D01*
X005876Y018558D01*
X005876Y018700D01*
X005821Y018831D01*
X005721Y018932D01*
X005589Y018986D01*
X005447Y018986D01*
X005316Y018932D01*
X005215Y018831D01*
X005161Y018700D01*
X005161Y018558D01*
X005215Y018426D01*
X005316Y018326D01*
X005447Y018271D01*
X005589Y018271D01*
X005441Y018274D02*
X004895Y018274D01*
X004727Y018274D02*
X004611Y018274D01*
X004579Y018195D02*
X004532Y018195D01*
X004505Y018116D02*
X004454Y018116D01*
X004472Y018038D02*
X004375Y018038D01*
X004297Y017959D02*
X004454Y017959D01*
X004454Y017881D02*
X004218Y017881D01*
X004140Y017802D02*
X004474Y017802D01*
X004506Y017724D02*
X004061Y017724D01*
X003983Y017645D02*
X004582Y017645D01*
X004897Y017307D02*
X005547Y017307D01*
X005780Y017410D02*
X006497Y017410D01*
X006497Y017488D02*
X005727Y017488D01*
X005802Y017331D02*
X006497Y017331D01*
X006497Y017252D02*
X005800Y017252D01*
X005767Y017174D02*
X006497Y017174D01*
X006517Y017095D02*
X005695Y017095D01*
X005398Y017095D02*
X005276Y017095D01*
X005297Y017488D02*
X005367Y017488D01*
X005289Y018352D02*
X004689Y018352D01*
X004768Y018431D02*
X005213Y018431D01*
X005181Y018509D02*
X004847Y018509D01*
X004925Y018588D02*
X005161Y018588D01*
X005161Y018666D02*
X005004Y018666D01*
X005082Y018745D02*
X005179Y018745D01*
X005161Y018823D02*
X005212Y018823D01*
X005239Y018902D02*
X005286Y018902D01*
X005318Y018980D02*
X005433Y018980D01*
X005396Y019059D02*
X005997Y019059D01*
X006023Y019033D02*
X005922Y019133D01*
X005868Y019265D01*
X005868Y019407D01*
X005922Y019538D01*
X006023Y019639D01*
X006154Y019693D01*
X006296Y019693D01*
X006428Y019639D01*
X006528Y019538D01*
X006583Y019407D01*
X006583Y019265D01*
X006528Y019133D01*
X006428Y019033D01*
X006296Y018978D01*
X006154Y018978D01*
X006023Y019033D01*
X006149Y018980D02*
X005603Y018980D01*
X005750Y018902D02*
X009374Y018902D01*
X009296Y018980D02*
X006302Y018980D01*
X006454Y019059D02*
X009217Y019059D01*
X009139Y019138D02*
X006530Y019138D01*
X006563Y019216D02*
X007367Y019216D01*
X007244Y019295D02*
X006583Y019295D01*
X006583Y019373D02*
X007176Y019373D01*
X007143Y019452D02*
X006564Y019452D01*
X006532Y019530D02*
X007124Y019530D01*
X007124Y019609D02*
X006458Y019609D01*
X006311Y019687D02*
X006856Y019687D01*
X007008Y019687D02*
X007138Y019687D01*
X007161Y019766D02*
X007171Y019766D01*
X007270Y019923D02*
X007339Y019923D01*
X007290Y020001D02*
X008255Y020001D01*
X008333Y019923D02*
X007683Y019923D01*
X007789Y019844D02*
X008432Y019844D01*
X008510Y019766D02*
X007850Y019766D01*
X007883Y019687D02*
X008589Y019687D01*
X008667Y019609D02*
X007897Y019609D01*
X007897Y019530D02*
X008746Y019530D01*
X008824Y019452D02*
X007878Y019452D01*
X007845Y019373D02*
X008903Y019373D01*
X008982Y019295D02*
X007777Y019295D01*
X007654Y019216D02*
X009060Y019216D01*
X009453Y018823D02*
X005824Y018823D01*
X005857Y018745D02*
X009531Y018745D01*
X009610Y018666D02*
X005876Y018666D01*
X005876Y018588D02*
X009688Y018588D01*
X009767Y018509D02*
X005856Y018509D01*
X005823Y018431D02*
X009807Y018431D01*
X009807Y018352D02*
X005747Y018352D01*
X005921Y019138D02*
X005475Y019138D01*
X005553Y019216D02*
X005888Y019216D01*
X005868Y019295D02*
X005632Y019295D01*
X005711Y019373D02*
X005868Y019373D01*
X005886Y019452D02*
X005789Y019452D01*
X005868Y019530D02*
X005919Y019530D01*
X005946Y019609D02*
X005993Y019609D01*
X006025Y019687D02*
X006140Y019687D01*
X006103Y019766D02*
X006704Y019766D01*
X006628Y019844D02*
X006182Y019844D01*
X006182Y020043D02*
X002947Y016807D01*
X002947Y014007D01*
X004147Y014007D01*
X004197Y014057D01*
X004229Y014057D01*
X003764Y014189D02*
X003563Y014189D01*
X003663Y014268D02*
X003764Y014268D01*
X003796Y014346D02*
X003717Y014346D01*
X003749Y014425D02*
X005179Y014425D01*
X005201Y014479D02*
X005141Y014333D01*
X005141Y014175D01*
X005201Y014030D01*
X005313Y013918D01*
X005459Y013858D01*
X005617Y013858D01*
X005762Y013918D01*
X005874Y014030D01*
X005934Y014175D01*
X005934Y014333D01*
X005874Y014479D01*
X005762Y014591D01*
X005656Y014635D01*
X005951Y014635D01*
X006010Y014693D01*
X006010Y015563D01*
X005951Y015622D01*
X005332Y015622D01*
X005337Y015639D01*
X005337Y015772D01*
X004932Y015772D01*
X004932Y015517D01*
X005062Y015517D01*
X005062Y014693D01*
X005120Y014635D01*
X005419Y014635D01*
X005313Y014591D01*
X005201Y014479D01*
X005226Y014503D02*
X003754Y014503D01*
X003753Y014582D02*
X005304Y014582D01*
X005094Y014661D02*
X003720Y014661D01*
X003671Y014739D02*
X005062Y014739D01*
X005062Y014818D02*
X003582Y014818D01*
X003212Y014818D02*
X003087Y014818D01*
X003087Y014896D02*
X005062Y014896D01*
X005062Y014975D02*
X003087Y014975D01*
X003087Y015053D02*
X005062Y015053D01*
X005062Y015132D02*
X003087Y015132D01*
X003087Y015210D02*
X003188Y015210D01*
X003110Y015289D02*
X003087Y015289D01*
X003087Y015760D02*
X003144Y015760D01*
X003087Y015839D02*
X003263Y015839D01*
X003087Y015917D02*
X004457Y015917D01*
X004457Y015976D02*
X004457Y015842D01*
X004861Y015842D01*
X004861Y015772D01*
X004457Y015772D01*
X004457Y015639D01*
X004466Y015603D01*
X003744Y015603D01*
X003754Y015525D02*
X004552Y015525D01*
X004543Y015527D02*
X004578Y015517D01*
X004862Y015517D01*
X004862Y015772D01*
X004932Y015772D01*
X004932Y015842D01*
X005337Y015842D01*
X005337Y015976D01*
X005327Y016011D01*
X005309Y016043D01*
X005283Y016069D01*
X005251Y016088D01*
X005215Y016097D01*
X004932Y016097D01*
X004932Y015843D01*
X004862Y015843D01*
X004862Y016097D01*
X004578Y016097D01*
X004543Y016088D01*
X004511Y016069D01*
X004485Y016043D01*
X004466Y016011D01*
X004457Y015976D01*
X004462Y015996D02*
X003087Y015996D01*
X003087Y016074D02*
X004519Y016074D01*
X004457Y015760D02*
X003650Y015760D01*
X003712Y015682D02*
X004457Y015682D01*
X004466Y015603D02*
X004485Y015571D01*
X004511Y015545D01*
X004543Y015527D01*
X004862Y015525D02*
X004932Y015525D01*
X004932Y015603D02*
X004862Y015603D01*
X004862Y015682D02*
X004932Y015682D01*
X004932Y015760D02*
X004862Y015760D01*
X004861Y015839D02*
X003531Y015839D01*
X003754Y015446D02*
X005062Y015446D01*
X005062Y015367D02*
X003726Y015367D01*
X003684Y015289D02*
X005062Y015289D01*
X005062Y015210D02*
X003605Y015210D01*
X003123Y014739D02*
X003087Y014739D01*
X003087Y014268D02*
X003131Y014268D01*
X003087Y014189D02*
X003231Y014189D01*
X002947Y014007D02*
X002947Y012007D01*
X003227Y011007D02*
X002947Y010727D01*
X002947Y010207D01*
X004747Y008407D01*
X005497Y008407D01*
X005518Y008386D01*
X005257Y008141D02*
X003983Y008141D01*
X004037Y008063D02*
X005364Y008063D01*
X005200Y008220D02*
X003928Y008220D01*
X003874Y008299D02*
X004658Y008299D01*
X004579Y008377D02*
X003820Y008377D01*
X003767Y008456D02*
X004501Y008456D01*
X004422Y008534D02*
X003726Y008534D01*
X003685Y008613D02*
X004343Y008613D01*
X004265Y008691D02*
X003644Y008691D01*
X003603Y008770D02*
X004186Y008770D01*
X004108Y008848D02*
X003561Y008848D01*
X003520Y008927D02*
X004029Y008927D01*
X003951Y009005D02*
X003479Y009005D01*
X003438Y009084D02*
X003872Y009084D01*
X003794Y009163D02*
X003396Y009163D01*
X003355Y009241D02*
X003715Y009241D01*
X003637Y009320D02*
X003314Y009320D01*
X003273Y009398D02*
X003558Y009398D01*
X003479Y009477D02*
X003232Y009477D01*
X003200Y009555D02*
X003401Y009555D01*
X003322Y009634D02*
X003170Y009634D01*
X003140Y009712D02*
X003244Y009712D01*
X003165Y009791D02*
X003110Y009791D01*
X003087Y009869D02*
X003080Y009869D01*
X003247Y010105D02*
X003906Y010105D01*
X003825Y010026D02*
X003326Y010026D01*
X003404Y009948D02*
X003778Y009948D01*
X003746Y009869D02*
X003483Y009869D01*
X003561Y009791D02*
X003746Y009791D01*
X003753Y009712D02*
X003640Y009712D01*
X003718Y009634D02*
X003786Y009634D01*
X003797Y009555D02*
X003843Y009555D01*
X003875Y009477D02*
X003951Y009477D01*
X003954Y009398D02*
X004614Y009398D01*
X004609Y009396D02*
X004508Y009296D01*
X004454Y009164D01*
X004454Y009022D01*
X004508Y008891D01*
X004609Y008790D01*
X004740Y008736D01*
X004882Y008736D01*
X005014Y008790D01*
X005114Y008891D01*
X005169Y009022D01*
X005169Y009164D01*
X005114Y009296D01*
X005014Y009396D01*
X004882Y009451D01*
X004740Y009451D01*
X004609Y009396D01*
X004532Y009320D02*
X004033Y009320D01*
X004111Y009241D02*
X004486Y009241D01*
X004454Y009163D02*
X004190Y009163D01*
X004268Y009084D02*
X004454Y009084D01*
X004460Y009005D02*
X004347Y009005D01*
X004425Y008927D02*
X004493Y008927D01*
X004504Y008848D02*
X004550Y008848D01*
X004582Y008770D02*
X004657Y008770D01*
X004661Y008691D02*
X005321Y008691D01*
X005239Y008613D02*
X004739Y008613D01*
X004965Y008770D02*
X007986Y008770D01*
X007908Y008848D02*
X005072Y008848D01*
X005129Y008927D02*
X007829Y008927D01*
X007751Y009005D02*
X005162Y009005D01*
X005169Y009084D02*
X007672Y009084D01*
X007594Y009163D02*
X005169Y009163D01*
X005137Y009241D02*
X007515Y009241D01*
X007437Y009320D02*
X005090Y009320D01*
X005009Y009398D02*
X007358Y009398D01*
X007279Y009477D02*
X004257Y009477D01*
X004364Y009555D02*
X007201Y009555D01*
X007122Y009634D02*
X004422Y009634D01*
X004430Y009948D02*
X007308Y009948D01*
X007283Y009869D02*
X007387Y009869D01*
X007361Y009791D02*
X007465Y009791D01*
X007440Y009712D02*
X007544Y009712D01*
X007518Y009634D02*
X007622Y009634D01*
X007597Y009555D02*
X007701Y009555D01*
X007675Y009477D02*
X007779Y009477D01*
X007754Y009398D02*
X007858Y009398D01*
X007833Y009320D02*
X007937Y009320D01*
X007911Y009241D02*
X008015Y009241D01*
X007990Y009163D02*
X008094Y009163D01*
X008068Y009084D02*
X008172Y009084D01*
X008147Y009005D02*
X008251Y009005D01*
X008225Y008927D02*
X008329Y008927D01*
X008304Y008848D02*
X008408Y008848D01*
X008382Y008770D02*
X008486Y008770D01*
X008461Y008691D02*
X008565Y008691D01*
X008539Y008613D02*
X008643Y008613D01*
X008618Y008534D02*
X008722Y008534D01*
X008696Y008456D02*
X008801Y008456D01*
X008775Y008377D02*
X008879Y008377D01*
X008854Y008299D02*
X008958Y008299D01*
X008932Y008220D02*
X008992Y008220D01*
X009247Y008207D02*
X006947Y010507D01*
X003397Y010507D01*
X003657Y010262D02*
X006994Y010262D01*
X007073Y010184D02*
X003549Y010184D01*
X003715Y010341D02*
X006915Y010341D01*
X007076Y010576D02*
X011592Y010576D01*
X011592Y010655D02*
X003723Y010655D01*
X003676Y010733D02*
X011623Y010733D01*
X011691Y010812D02*
X003596Y010812D01*
X003728Y010890D02*
X018513Y010890D01*
X018434Y010812D02*
X012003Y010812D01*
X012071Y010733D02*
X018356Y010733D01*
X018277Y010655D02*
X012102Y010655D01*
X012102Y010576D02*
X018199Y010576D01*
X018120Y010498D02*
X012077Y010498D01*
X012067Y010419D02*
X018041Y010419D01*
X017963Y010341D02*
X012068Y010341D01*
X012100Y010262D02*
X017884Y010262D01*
X017806Y010184D02*
X012102Y010184D01*
X012080Y010105D02*
X017727Y010105D01*
X017649Y010026D02*
X012067Y010026D01*
X012067Y009948D02*
X017570Y009948D01*
X017492Y009869D02*
X012067Y009869D01*
X012067Y009791D02*
X017413Y009791D01*
X017335Y009712D02*
X012067Y009712D01*
X012067Y009634D02*
X017256Y009634D01*
X017178Y009555D02*
X012067Y009555D01*
X012067Y009477D02*
X017099Y009477D01*
X017020Y009398D02*
X012067Y009398D01*
X012067Y009320D02*
X016942Y009320D01*
X016863Y009241D02*
X012067Y009241D01*
X012067Y009163D02*
X016785Y009163D01*
X016706Y009084D02*
X012067Y009084D01*
X012067Y009005D02*
X016628Y009005D01*
X015767Y007356D02*
X014259Y007356D01*
X014323Y007277D02*
X015767Y007277D01*
X015767Y007199D02*
X014352Y007199D01*
X014352Y007120D02*
X015767Y007120D01*
X015767Y007042D02*
X014325Y007042D01*
X014263Y006963D02*
X015767Y006963D01*
X015767Y006885D02*
X013122Y006885D01*
X013201Y006963D02*
X013930Y006963D01*
X013044Y006806D02*
X015767Y006806D01*
X015767Y006728D02*
X012965Y006728D01*
X012886Y006649D02*
X015767Y006649D01*
X015767Y006571D02*
X012808Y006571D01*
X012729Y006492D02*
X015767Y006492D01*
X015767Y006414D02*
X012651Y006414D01*
X011627Y007670D02*
X010208Y007670D01*
X009147Y007807D02*
X007154Y009800D01*
X004104Y009800D01*
X004383Y010026D02*
X007230Y010026D01*
X007151Y010105D02*
X004302Y010105D01*
X003806Y010969D02*
X018591Y010969D01*
X018670Y011048D02*
X003885Y011048D01*
X003963Y011126D02*
X018748Y011126D01*
X018758Y011205D02*
X004042Y011205D01*
X004121Y011283D02*
X018679Y011283D01*
X018600Y011362D02*
X004199Y011362D01*
X004278Y011440D02*
X005069Y011440D01*
X005064Y011445D02*
X005122Y011387D01*
X005953Y011387D01*
X006012Y011445D01*
X006012Y012315D01*
X005953Y012374D01*
X005122Y012374D01*
X005064Y012315D01*
X005064Y011445D01*
X005064Y011519D02*
X004356Y011519D01*
X004387Y011597D02*
X005064Y011597D01*
X005064Y011676D02*
X004387Y011676D01*
X004387Y011754D02*
X005064Y011754D01*
X005064Y011833D02*
X004387Y011833D01*
X004387Y011912D02*
X005064Y011912D01*
X005064Y011990D02*
X004387Y011990D01*
X004387Y012069D02*
X005064Y012069D01*
X005064Y012147D02*
X004387Y012147D01*
X004387Y012226D02*
X005064Y012226D01*
X005064Y012304D02*
X004387Y012304D01*
X004247Y012937D02*
X004247Y011607D01*
X003647Y011007D01*
X003227Y011007D01*
X003137Y010262D02*
X003090Y010262D01*
X003169Y010184D02*
X003244Y010184D01*
X005715Y008691D02*
X008065Y008691D01*
X008143Y008613D02*
X005797Y008613D01*
X005844Y008534D02*
X008222Y008534D01*
X008301Y008456D02*
X005876Y008456D01*
X005876Y008377D02*
X008379Y008377D01*
X008458Y008299D02*
X005869Y008299D01*
X005836Y008220D02*
X008536Y008220D01*
X008615Y008141D02*
X005779Y008141D01*
X005672Y008063D02*
X008693Y008063D01*
X008772Y007984D02*
X006422Y007984D01*
X006504Y007906D02*
X008850Y007906D01*
X008254Y009398D02*
X011627Y009398D01*
X011627Y009477D02*
X008175Y009477D01*
X008097Y009555D02*
X011627Y009555D01*
X011627Y009634D02*
X008018Y009634D01*
X007940Y009712D02*
X011627Y009712D01*
X011627Y009791D02*
X007861Y009791D01*
X007783Y009869D02*
X011627Y009869D01*
X011627Y009948D02*
X007704Y009948D01*
X007626Y010026D02*
X011627Y010026D01*
X011613Y010105D02*
X007547Y010105D01*
X007469Y010184D02*
X011592Y010184D01*
X011593Y010262D02*
X007390Y010262D01*
X007311Y010341D02*
X011626Y010341D01*
X011627Y010419D02*
X007233Y010419D01*
X007154Y010498D02*
X011616Y010498D01*
X007854Y012854D02*
X017108Y012854D01*
X017030Y012933D02*
X007892Y012933D01*
X007902Y013011D02*
X016951Y013011D01*
X016873Y013090D02*
X007927Y013090D01*
X008006Y013168D02*
X016794Y013168D01*
X016715Y013247D02*
X008084Y013247D01*
X008163Y013325D02*
X016667Y013325D01*
X016667Y013404D02*
X008241Y013404D01*
X008320Y013482D02*
X016667Y013482D01*
X016667Y013561D02*
X008398Y013561D01*
X008477Y013639D02*
X016667Y013639D01*
X017187Y012776D02*
X007753Y012776D01*
X007540Y012776D02*
X007311Y012776D01*
X007311Y012697D02*
X017265Y012697D01*
X017658Y012304D02*
X006012Y012304D01*
X006012Y012226D02*
X017736Y012226D01*
X017815Y012147D02*
X006012Y012147D01*
X006012Y012069D02*
X017894Y012069D01*
X017972Y011990D02*
X006012Y011990D01*
X006012Y011912D02*
X018051Y011912D01*
X018129Y011833D02*
X006012Y011833D01*
X006012Y011754D02*
X018208Y011754D01*
X018286Y011676D02*
X006012Y011676D01*
X006012Y011597D02*
X018365Y011597D01*
X018443Y011519D02*
X006012Y011519D01*
X006007Y011440D02*
X018522Y011440D01*
X019447Y006649D02*
X017497Y006649D01*
X017575Y006571D02*
X019407Y006571D01*
X019355Y006492D02*
X017627Y006492D01*
X017659Y006414D02*
X019322Y006414D01*
X019290Y006335D02*
X017692Y006335D01*
X017697Y006256D02*
X019285Y006256D01*
X019285Y006178D02*
X017697Y006178D01*
X017697Y006099D02*
X019285Y006099D01*
X019314Y006021D02*
X017667Y006021D01*
X017635Y005942D02*
X019347Y005942D01*
X019387Y005864D02*
X017595Y005864D01*
X017516Y005785D02*
X019447Y005785D01*
X019447Y005707D02*
X017429Y005707D01*
X017240Y005628D02*
X019447Y005628D01*
X013859Y005157D02*
X013309Y005157D01*
X013379Y005078D02*
X013776Y005078D01*
X013728Y005000D02*
X013422Y005000D01*
X013445Y004921D02*
X013696Y004921D01*
X013092Y005000D02*
X013015Y005000D01*
X013015Y005078D02*
X013092Y005078D01*
X013092Y005157D02*
X013015Y005157D01*
X012228Y004371D02*
X008693Y004371D01*
X008486Y004450D02*
X012150Y004450D01*
X011897Y004528D02*
X011287Y004528D01*
X011369Y004607D02*
X011792Y004607D01*
X011735Y004686D02*
X011415Y004686D01*
X011092Y004686D02*
X011015Y004686D01*
X011015Y004764D02*
X011092Y004764D01*
X011092Y004607D02*
X011015Y004607D01*
X011015Y004528D02*
X011092Y004528D01*
X010820Y004528D02*
X010210Y004528D01*
X010316Y004607D02*
X010738Y004607D01*
X010692Y004686D02*
X010372Y004686D01*
X010405Y004764D02*
X010666Y004764D01*
X011015Y005000D02*
X011092Y005000D01*
X011092Y005078D02*
X011015Y005078D01*
X011015Y005157D02*
X011092Y005157D01*
X009897Y004528D02*
X009287Y004528D01*
X009116Y004843D02*
X009101Y004843D01*
X009006Y004843D02*
X008991Y004843D01*
X008385Y005235D02*
X008308Y005235D01*
X008308Y005314D02*
X008385Y005314D01*
X008385Y005392D02*
X008308Y005392D01*
X008308Y005471D02*
X008385Y005471D01*
X008308Y005550D02*
X006482Y005550D01*
X008308Y005707D02*
X008385Y005707D01*
X008385Y005785D02*
X008308Y005785D01*
X008308Y005864D02*
X008385Y005864D01*
X006071Y007356D02*
X004548Y007356D01*
X004478Y007435D02*
X005964Y007435D01*
X005907Y007513D02*
X004416Y007513D01*
X004362Y007592D02*
X005875Y007592D01*
X005868Y007670D02*
X004308Y007670D01*
X004254Y007749D02*
X005868Y007749D01*
X005900Y007827D02*
X004199Y007827D01*
X004145Y007906D02*
X005947Y007906D01*
X006029Y007984D02*
X004091Y007984D01*
X004247Y012937D02*
X004229Y012955D01*
X004269Y013482D02*
X005992Y013482D01*
X005993Y013561D02*
X004733Y013561D01*
X004733Y013639D02*
X006026Y013639D01*
X006097Y013718D02*
X004733Y013718D01*
X004712Y013797D02*
X006385Y013797D01*
X006383Y013875D02*
X005659Y013875D01*
X005798Y013954D02*
X006383Y013954D01*
X006383Y014032D02*
X005875Y014032D01*
X005908Y014111D02*
X006383Y014111D01*
X006383Y014189D02*
X005934Y014189D01*
X005934Y014268D02*
X006383Y014268D01*
X006414Y014346D02*
X005929Y014346D01*
X005896Y014425D02*
X009807Y014425D01*
X009807Y014503D02*
X005849Y014503D01*
X005771Y014582D02*
X009807Y014582D01*
X009807Y014661D02*
X005977Y014661D01*
X006010Y014739D02*
X009807Y014739D01*
X009807Y014818D02*
X006010Y014818D01*
X006010Y014896D02*
X009807Y014896D01*
X009807Y014975D02*
X006010Y014975D01*
X006010Y015053D02*
X009807Y015053D01*
X009807Y015132D02*
X006010Y015132D01*
X006010Y015210D02*
X009807Y015210D01*
X009807Y015289D02*
X006010Y015289D01*
X006010Y015367D02*
X009807Y015367D01*
X009807Y015446D02*
X006010Y015446D01*
X006010Y015525D02*
X009807Y015525D01*
X009807Y015603D02*
X007284Y015603D01*
X007297Y015616D02*
X007297Y015999D01*
X007238Y016057D01*
X006555Y016057D01*
X006497Y015999D01*
X006497Y015616D01*
X006555Y015557D01*
X007238Y015557D01*
X007297Y015616D01*
X007297Y015682D02*
X009807Y015682D01*
X009807Y015760D02*
X007297Y015760D01*
X007297Y015839D02*
X009807Y015839D01*
X009807Y015917D02*
X007297Y015917D01*
X007297Y015996D02*
X009807Y015996D01*
X009807Y016074D02*
X005274Y016074D01*
X005331Y015996D02*
X006497Y015996D01*
X006497Y015917D02*
X005337Y015917D01*
X005337Y015760D02*
X006497Y015760D01*
X006497Y015682D02*
X005337Y015682D01*
X004932Y015839D02*
X006497Y015839D01*
X006510Y015603D02*
X005970Y015603D01*
X004932Y015917D02*
X004862Y015917D01*
X004862Y015996D02*
X004932Y015996D01*
X004932Y016074D02*
X004862Y016074D01*
X004333Y016938D02*
X009807Y016938D01*
X009807Y016860D02*
X004182Y016860D01*
X004026Y016860D02*
X003480Y016860D01*
X003314Y016860D02*
X003197Y016860D01*
X003165Y016781D02*
X003119Y016781D01*
X003091Y016703D02*
X003087Y016703D01*
X003276Y016938D02*
X003875Y016938D01*
X003799Y017017D02*
X003354Y017017D01*
X003433Y017095D02*
X003766Y017095D01*
X003746Y017174D02*
X003511Y017174D01*
X003590Y017252D02*
X003746Y017252D01*
X003765Y017331D02*
X003668Y017331D01*
X003747Y017410D02*
X003798Y017410D01*
X003825Y017488D02*
X003872Y017488D01*
X003904Y017567D02*
X004020Y017567D01*
X003744Y017802D02*
X003370Y017802D01*
X003329Y017724D02*
X003665Y017724D01*
X003587Y017645D02*
X003288Y017645D01*
X003246Y017567D02*
X003508Y017567D01*
X003429Y017488D02*
X003210Y017488D01*
X003181Y017410D02*
X003351Y017410D01*
X003272Y017331D02*
X003151Y017331D01*
X003121Y017252D02*
X003194Y017252D01*
X003115Y017174D02*
X003091Y017174D01*
X003629Y016781D02*
X009807Y016781D01*
X009807Y016703D02*
X003703Y016703D01*
X003735Y016624D02*
X009807Y016624D01*
X009807Y016546D02*
X003754Y016546D01*
X003754Y016467D02*
X009807Y016467D01*
X009807Y016389D02*
X003735Y016389D01*
X003702Y016310D02*
X009807Y016310D01*
X009807Y016231D02*
X003626Y016231D01*
X003475Y016153D02*
X009807Y016153D01*
X009807Y014346D02*
X007280Y014346D01*
X007311Y014268D02*
X007497Y014268D01*
X007647Y014057D02*
X006847Y014057D01*
X007311Y013875D02*
X007468Y013875D01*
X007497Y013718D02*
X007311Y013718D01*
X007308Y013797D02*
X008238Y013797D01*
X008317Y013875D02*
X007825Y013875D01*
X007880Y013954D02*
X008395Y013954D01*
X008474Y014032D02*
X007902Y014032D01*
X007901Y014111D02*
X009790Y014111D01*
X009807Y014189D02*
X007868Y014189D01*
X007797Y014268D02*
X009807Y014268D01*
X009947Y013907D02*
X008547Y013907D01*
X007647Y013007D01*
X007594Y012955D01*
X006847Y012955D01*
X006847Y013506D02*
X006846Y013507D01*
X006247Y013507D01*
X006068Y013325D02*
X004733Y013325D01*
X004733Y013404D02*
X006014Y013404D01*
X005416Y013875D02*
X004693Y013875D01*
X004693Y013954D02*
X005277Y013954D01*
X005200Y014032D02*
X004693Y014032D01*
X004693Y014111D02*
X005168Y014111D01*
X005141Y014189D02*
X004693Y014189D01*
X004693Y014268D02*
X005141Y014268D01*
X005147Y014346D02*
X004662Y014346D01*
X006847Y013506D02*
X007646Y013506D01*
X007647Y013507D01*
X007902Y013482D02*
X007924Y013482D01*
X007901Y013561D02*
X008002Y013561D01*
X008081Y013639D02*
X007868Y013639D01*
X007797Y013718D02*
X008159Y013718D01*
X008555Y013718D02*
X009776Y013718D01*
X004372Y018431D02*
X003700Y018431D01*
X003741Y018509D02*
X004451Y018509D01*
X004529Y018588D02*
X003785Y018588D01*
X003840Y018666D02*
X004608Y018666D01*
X004686Y018745D02*
X003894Y018745D01*
X003948Y018823D02*
X004765Y018823D01*
X004843Y018902D02*
X004002Y018902D01*
X004056Y018980D02*
X004922Y018980D01*
X005000Y019059D02*
X004111Y019059D01*
X004165Y019138D02*
X005079Y019138D01*
X005157Y019216D02*
X004219Y019216D01*
X004273Y019295D02*
X005236Y019295D01*
X005315Y019373D02*
X004328Y019373D01*
X004382Y019452D02*
X005393Y019452D01*
X005472Y019530D02*
X004436Y019530D01*
X004503Y019609D02*
X005550Y019609D01*
X005629Y019687D02*
X004573Y019687D01*
X004642Y019766D02*
X005707Y019766D01*
X005786Y019844D02*
X004712Y019844D01*
X004782Y019923D02*
X005864Y019923D01*
X005943Y020001D02*
X004851Y020001D01*
X004921Y020080D02*
X006021Y020080D01*
X006100Y020159D02*
X004990Y020159D01*
X005060Y020237D02*
X006626Y020237D01*
X006700Y020316D02*
X005130Y020316D01*
X005199Y020394D02*
X006847Y020394D01*
X007018Y020394D02*
X007564Y020394D01*
X007715Y020394D02*
X007862Y020394D01*
X007940Y020316D02*
X007165Y020316D01*
X007239Y020237D02*
X008019Y020237D01*
X008098Y020159D02*
X007271Y020159D01*
X007290Y020080D02*
X008176Y020080D01*
X007411Y020473D02*
X005280Y020473D01*
X005369Y020551D02*
X007335Y020551D01*
X007302Y020630D02*
X005457Y020630D01*
X005546Y020708D02*
X007282Y020708D01*
X007282Y020787D02*
X005635Y020787D01*
X005723Y020865D02*
X007300Y020865D01*
X007333Y020944D02*
X005812Y020944D01*
X005901Y021023D02*
X007407Y021023D01*
X007553Y021101D02*
X005989Y021101D01*
X006078Y021180D02*
X008118Y021180D01*
X008144Y021154D02*
X008275Y021100D01*
X008418Y021100D01*
X008549Y021154D01*
X008650Y021255D01*
X008704Y021386D01*
X008704Y021528D01*
X008650Y021660D01*
X008549Y021760D01*
X008418Y021814D01*
X008275Y021814D01*
X008144Y021760D01*
X008044Y021660D01*
X007989Y021528D01*
X007989Y021386D01*
X008044Y021255D01*
X008144Y021154D01*
X008272Y021101D02*
X007726Y021101D01*
X007872Y021023D02*
X019447Y021023D01*
X019447Y021101D02*
X008421Y021101D01*
X008575Y021180D02*
X019447Y021180D01*
X019447Y021258D02*
X008651Y021258D01*
X008684Y021337D02*
X019447Y021337D01*
X019447Y021415D02*
X008704Y021415D01*
X008704Y021494D02*
X019447Y021494D01*
X019447Y021572D02*
X008686Y021572D01*
X008653Y021651D02*
X019447Y021651D01*
X019447Y021729D02*
X008580Y021729D01*
X008433Y021808D02*
X008979Y021808D01*
X008983Y021807D02*
X009125Y021807D01*
X009256Y021861D01*
X009357Y021962D01*
X009411Y022093D01*
X009411Y022235D01*
X009357Y022367D01*
X009256Y022467D01*
X009125Y022522D01*
X008983Y022522D01*
X008851Y022467D01*
X008751Y022367D01*
X008696Y022235D01*
X008696Y022093D01*
X008751Y021962D01*
X008851Y021861D01*
X008983Y021807D01*
X009128Y021808D02*
X009979Y021808D01*
X009983Y021807D02*
X010125Y021807D01*
X010256Y021861D01*
X010357Y021962D01*
X010411Y022093D01*
X010411Y022235D01*
X010357Y022367D01*
X010256Y022467D01*
X010125Y022522D01*
X009983Y022522D01*
X009851Y022467D01*
X009751Y022367D01*
X009696Y022235D01*
X009696Y022093D01*
X009751Y021962D01*
X009851Y021861D01*
X009983Y021807D01*
X010128Y021808D02*
X010979Y021808D01*
X010983Y021807D02*
X011125Y021807D01*
X011256Y021861D01*
X011357Y021962D01*
X011411Y022093D01*
X011411Y022235D01*
X011357Y022367D01*
X011256Y022467D01*
X011125Y022522D01*
X010983Y022522D01*
X010851Y022467D01*
X010751Y022367D01*
X010696Y022235D01*
X010696Y022093D01*
X010751Y021962D01*
X010851Y021861D01*
X010983Y021807D01*
X011128Y021808D02*
X011979Y021808D01*
X011983Y021807D02*
X012125Y021807D01*
X012256Y021861D01*
X012357Y021962D01*
X012411Y022093D01*
X012411Y022235D01*
X012357Y022367D01*
X012256Y022467D01*
X012125Y022522D01*
X011983Y022522D01*
X011851Y022467D01*
X011751Y022367D01*
X011696Y022235D01*
X011696Y022093D01*
X011751Y021962D01*
X011851Y021861D01*
X011983Y021807D01*
X012128Y021808D02*
X012979Y021808D01*
X012983Y021807D02*
X013125Y021807D01*
X013256Y021861D01*
X013357Y021962D01*
X013411Y022093D01*
X013411Y022235D01*
X013357Y022367D01*
X013256Y022467D01*
X013125Y022522D01*
X012983Y022522D01*
X012851Y022467D01*
X012751Y022367D01*
X012696Y022235D01*
X012696Y022093D01*
X012751Y021962D01*
X012851Y021861D01*
X012983Y021807D01*
X013128Y021808D02*
X013979Y021808D01*
X013983Y021807D02*
X014125Y021807D01*
X014256Y021861D01*
X014357Y021962D01*
X014411Y022093D01*
X014411Y022235D01*
X014357Y022367D01*
X014256Y022467D01*
X014125Y022522D01*
X013983Y022522D01*
X013851Y022467D01*
X013751Y022367D01*
X013696Y022235D01*
X013696Y022093D01*
X013751Y021962D01*
X013851Y021861D01*
X013983Y021807D01*
X014128Y021808D02*
X019447Y021808D01*
X019447Y021887D02*
X014282Y021887D01*
X014358Y021965D02*
X019447Y021965D01*
X019447Y022044D02*
X014391Y022044D01*
X014411Y022122D02*
X019447Y022122D01*
X019447Y022201D02*
X014411Y022201D01*
X014393Y022279D02*
X019447Y022279D01*
X019447Y022358D02*
X014360Y022358D01*
X014287Y022436D02*
X019447Y022436D01*
X019447Y022515D02*
X014141Y022515D01*
X013966Y022515D02*
X013141Y022515D01*
X013287Y022436D02*
X013820Y022436D01*
X013747Y022358D02*
X013360Y022358D01*
X013393Y022279D02*
X013714Y022279D01*
X013696Y022201D02*
X013411Y022201D01*
X013411Y022122D02*
X013696Y022122D01*
X013717Y022044D02*
X013391Y022044D01*
X013358Y021965D02*
X013749Y021965D01*
X013826Y021887D02*
X013282Y021887D01*
X012826Y021887D02*
X012282Y021887D01*
X012358Y021965D02*
X012749Y021965D01*
X012717Y022044D02*
X012391Y022044D01*
X012411Y022122D02*
X012696Y022122D01*
X012696Y022201D02*
X012411Y022201D01*
X012393Y022279D02*
X012714Y022279D01*
X012747Y022358D02*
X012360Y022358D01*
X012287Y022436D02*
X012820Y022436D01*
X012966Y022515D02*
X012141Y022515D01*
X011966Y022515D02*
X011141Y022515D01*
X011287Y022436D02*
X011820Y022436D01*
X011747Y022358D02*
X011360Y022358D01*
X011393Y022279D02*
X011714Y022279D01*
X011696Y022201D02*
X011411Y022201D01*
X011411Y022122D02*
X011696Y022122D01*
X011717Y022044D02*
X011391Y022044D01*
X011358Y021965D02*
X011749Y021965D01*
X011826Y021887D02*
X011282Y021887D01*
X010826Y021887D02*
X010282Y021887D01*
X010358Y021965D02*
X010749Y021965D01*
X010717Y022044D02*
X010391Y022044D01*
X010411Y022122D02*
X010696Y022122D01*
X010696Y022201D02*
X010411Y022201D01*
X010393Y022279D02*
X010714Y022279D01*
X010747Y022358D02*
X010360Y022358D01*
X010287Y022436D02*
X010820Y022436D01*
X010966Y022515D02*
X010141Y022515D01*
X009966Y022515D02*
X009141Y022515D01*
X009287Y022436D02*
X009820Y022436D01*
X009747Y022358D02*
X009360Y022358D01*
X009393Y022279D02*
X009714Y022279D01*
X009696Y022201D02*
X009411Y022201D01*
X009411Y022122D02*
X009696Y022122D01*
X009717Y022044D02*
X009391Y022044D01*
X009358Y021965D02*
X009749Y021965D01*
X009826Y021887D02*
X009282Y021887D01*
X008826Y021887D02*
X007095Y021887D01*
X006979Y021808D02*
X008260Y021808D01*
X008113Y021729D02*
X006865Y021729D01*
X006751Y021651D02*
X008040Y021651D01*
X008007Y021572D02*
X006637Y021572D01*
X006523Y021494D02*
X007989Y021494D01*
X007989Y021415D02*
X006410Y021415D01*
X006296Y021337D02*
X008009Y021337D01*
X008042Y021258D02*
X006182Y021258D01*
X007244Y021965D02*
X008749Y021965D01*
X008717Y022044D02*
X007394Y022044D01*
X007544Y022122D02*
X008696Y022122D01*
X008696Y022201D02*
X007693Y022201D01*
X007843Y022279D02*
X008714Y022279D01*
X008747Y022358D02*
X007993Y022358D01*
X008147Y022436D02*
X008820Y022436D01*
X008966Y022515D02*
X008354Y022515D01*
X008561Y022593D02*
X019447Y022593D01*
X019447Y022672D02*
X008768Y022672D01*
X008975Y022751D02*
X019447Y022751D01*
X019447Y022829D02*
X009182Y022829D01*
X009472Y022908D02*
X019447Y022908D01*
X019447Y022986D02*
X009791Y022986D01*
X010109Y023065D02*
X019447Y023065D01*
X019447Y023143D02*
X010474Y023143D01*
X011121Y023222D02*
X019447Y023222D01*
X019447Y020944D02*
X007946Y020944D01*
X006932Y020043D02*
X006182Y020043D01*
X004293Y018352D02*
X003659Y018352D01*
X003618Y018274D02*
X004215Y018274D01*
X004136Y018195D02*
X003576Y018195D01*
X003535Y018116D02*
X004058Y018116D01*
X003979Y018038D02*
X003494Y018038D01*
X003453Y017959D02*
X003901Y017959D01*
X003822Y017881D02*
X003411Y017881D01*
X003092Y016310D02*
X003087Y016310D01*
X003087Y016231D02*
X003167Y016231D01*
X003087Y016153D02*
X003319Y016153D01*
D16*
X004147Y015507D03*
X005547Y017307D03*
X007147Y018507D03*
X009147Y018507D03*
X011147Y018507D03*
X012347Y017307D03*
X013147Y018507D03*
X015147Y018507D03*
X015147Y017507D03*
X016147Y016507D03*
X017147Y016507D03*
X019147Y017507D03*
X019147Y018507D03*
X019147Y019507D03*
X019147Y020507D03*
X019147Y021507D03*
X019147Y022507D03*
X018147Y022507D03*
X017147Y022507D03*
X016147Y022507D03*
X015147Y022507D03*
X017147Y018507D03*
X016847Y014507D03*
X015147Y012507D03*
X014147Y013507D03*
X013147Y012507D03*
X012147Y013507D03*
X011147Y012507D03*
X012147Y011507D03*
X011847Y010607D03*
X011847Y010207D03*
X013147Y010507D03*
X014147Y011507D03*
X015147Y010507D03*
X016147Y009507D03*
X017097Y008407D03*
X019147Y008507D03*
X019147Y009507D03*
X017147Y010507D03*
X017647Y011407D03*
X017247Y011807D03*
X016847Y012207D03*
X019047Y011170D03*
X014097Y007157D03*
X013147Y008507D03*
X011397Y009057D03*
X010147Y009507D03*
X009147Y010507D03*
X009147Y011507D03*
X007647Y013007D03*
X007647Y013507D03*
X007647Y014057D03*
X008147Y014507D03*
X009147Y015507D03*
X009947Y013907D03*
X011147Y014507D03*
X012147Y015507D03*
X006847Y011207D03*
X006247Y013507D03*
X002947Y012007D03*
X007147Y008507D03*
X009247Y008207D03*
X011847Y005807D03*
X015147Y004507D03*
X017647Y004507D03*
X019147Y004507D03*
X019147Y005507D03*
X018147Y006507D03*
D17*
X015947Y005907D02*
X015947Y008070D01*
X019047Y011170D01*
X016847Y013370D01*
X016847Y014507D01*
X015947Y005907D02*
X014347Y004307D01*
X012547Y004307D01*
X012054Y004801D01*
D18*
X011047Y005807D02*
X011847Y006607D01*
X011847Y010607D01*
M02*
