G75*
G70*
%OFA0B0*%
%FSLAX24Y24*%
%IPPOS*%
%LPD*%
%AMOC8*
5,1,8,0,0,1.08239X$1,22.5*
%
%ADD10C,0.0001*%
%ADD11C,0.0040*%
D10*
X001454Y014507D02*
X001466Y015000D01*
X001502Y015492D01*
X001563Y015982D01*
X001647Y016468D01*
X001755Y016949D01*
X001887Y017424D01*
X002041Y017893D01*
X002219Y018353D01*
X002419Y018804D01*
X002641Y019245D01*
X002884Y019674D01*
X003148Y020090D01*
X003432Y020494D01*
X003735Y020883D01*
X004057Y021256D01*
X004398Y021613D01*
X004755Y021954D01*
X005128Y022276D01*
X005517Y022579D01*
X005921Y022863D01*
X006337Y023127D01*
X006766Y023370D01*
X007207Y023592D01*
X007658Y023792D01*
X008118Y023970D01*
X008587Y024124D01*
X009062Y024256D01*
X009543Y024364D01*
X010029Y024448D01*
X010519Y024509D01*
X011011Y024545D01*
X011504Y024557D01*
X011997Y024545D01*
X012489Y024509D01*
X012979Y024448D01*
X013465Y024364D01*
X013946Y024256D01*
X014421Y024124D01*
X014890Y023970D01*
X015350Y023792D01*
X015801Y023592D01*
X016242Y023370D01*
X016671Y023127D01*
X017087Y022863D01*
X017491Y022579D01*
X017880Y022276D01*
X018253Y021954D01*
X018610Y021613D01*
X018951Y021256D01*
X019273Y020883D01*
X019576Y020494D01*
X019860Y020090D01*
X020124Y019674D01*
X020367Y019245D01*
X020589Y018804D01*
X020789Y018353D01*
X020967Y017893D01*
X021121Y017424D01*
X021253Y016949D01*
X021361Y016468D01*
X021445Y015982D01*
X021506Y015492D01*
X021542Y015000D01*
X021554Y014507D01*
X021542Y014014D01*
X021506Y013522D01*
X021445Y013032D01*
X021361Y012546D01*
X021253Y012065D01*
X021121Y011590D01*
X020967Y011121D01*
X020789Y010661D01*
X020589Y010210D01*
X020367Y009769D01*
X020124Y009340D01*
X019860Y008924D01*
X019576Y008520D01*
X019273Y008131D01*
X018951Y007758D01*
X018610Y007401D01*
X018253Y007060D01*
X017880Y006738D01*
X017491Y006435D01*
X017087Y006151D01*
X016671Y005887D01*
X016242Y005644D01*
X015801Y005422D01*
X015350Y005222D01*
X014890Y005044D01*
X014421Y004890D01*
X013946Y004758D01*
X013465Y004650D01*
X012979Y004566D01*
X012489Y004505D01*
X011997Y004469D01*
X011504Y004457D01*
X011011Y004469D01*
X010519Y004505D01*
X010029Y004566D01*
X009543Y004650D01*
X009062Y004758D01*
X008587Y004890D01*
X008118Y005044D01*
X007658Y005222D01*
X007207Y005422D01*
X006766Y005644D01*
X006337Y005887D01*
X005921Y006151D01*
X005517Y006435D01*
X005128Y006738D01*
X004755Y007060D01*
X004398Y007401D01*
X004057Y007758D01*
X003735Y008131D01*
X003432Y008520D01*
X003148Y008924D01*
X002884Y009340D01*
X002641Y009769D01*
X002419Y010210D01*
X002219Y010661D01*
X002041Y011121D01*
X001887Y011590D01*
X001755Y012065D01*
X001647Y012546D01*
X001563Y013032D01*
X001502Y013522D01*
X001466Y014014D01*
X001454Y014507D01*
D11*
X008030Y007632D02*
X008306Y007498D01*
X008408Y007533D01*
X008476Y007671D01*
X008440Y007774D01*
X008302Y007841D01*
X008235Y007703D01*
X008164Y007908D02*
X008062Y007873D01*
X007995Y007735D01*
X008030Y007632D01*
X007699Y007930D02*
X007781Y008059D01*
X007757Y008165D01*
X007628Y008247D01*
X007546Y008118D01*
X007498Y008330D02*
X007392Y008306D01*
X007310Y008176D01*
X007334Y008071D01*
X007593Y007906D01*
X007699Y007930D01*
X007904Y008254D02*
X007516Y008500D01*
X008069Y008513D01*
X007680Y008759D01*
X007762Y008889D02*
X007886Y009083D01*
X007992Y009107D01*
X008251Y008943D01*
X008274Y008837D01*
X008151Y008642D01*
X007762Y008889D01*
X007219Y008714D02*
X007159Y008762D01*
X007113Y009194D01*
X007053Y009242D01*
X006861Y009003D01*
X006884Y008787D02*
X006668Y008764D01*
X006692Y008548D01*
X006931Y008356D01*
X006751Y008500D02*
X006944Y008739D01*
X006884Y008787D02*
X007123Y008595D01*
X006412Y009202D02*
X006196Y009420D01*
X005978Y009420D01*
X005978Y009203D01*
X006194Y008986D01*
X006032Y009149D02*
X006250Y009365D01*
X006358Y009473D02*
X006467Y009364D01*
X006575Y009364D01*
X006684Y009472D01*
X006684Y009581D01*
X006630Y009635D01*
X006522Y009636D01*
X006358Y009473D01*
X006359Y009690D01*
X006414Y009853D01*
X006188Y010092D02*
X005998Y010333D01*
X005782Y010357D01*
X005757Y010142D01*
X005948Y009901D01*
X005805Y010082D02*
X006045Y010272D01*
X006118Y010428D02*
X006143Y010643D01*
X006429Y010283D01*
X006309Y010187D02*
X006549Y010378D01*
X005986Y010925D02*
X006011Y011030D01*
X005848Y011291D01*
X005750Y010868D01*
X005856Y010843D01*
X005986Y010925D01*
X005750Y010868D02*
X005588Y011128D01*
X005612Y011234D01*
X005742Y011315D01*
X005848Y011291D01*
X005591Y011541D02*
X005627Y011644D01*
X005591Y011541D02*
X005453Y011475D01*
X005350Y011511D01*
X005218Y011788D01*
X005254Y011890D01*
X005392Y011956D01*
X005495Y011920D01*
X005633Y011987D02*
X005669Y012089D01*
X005807Y012155D01*
X005910Y012119D01*
X005943Y012050D01*
X005799Y011641D01*
X006076Y011773D01*
X005750Y012328D02*
X005460Y012227D01*
X005605Y012277D02*
X005454Y012712D01*
X005359Y012517D01*
X005189Y012539D02*
X005092Y012586D01*
X004947Y012536D01*
X004899Y012438D01*
X005000Y012148D01*
X005098Y012101D01*
X005243Y012151D01*
X005290Y012249D01*
X004881Y012025D02*
X004780Y012315D01*
X004584Y012409D01*
X004490Y012214D01*
X004591Y011924D01*
X004421Y011946D02*
X004320Y012236D01*
X004222Y012283D01*
X004005Y012208D01*
X004156Y011773D01*
X004374Y011849D01*
X004421Y011946D01*
X004515Y012142D02*
X004805Y012242D01*
X004908Y011724D02*
X005113Y011652D01*
X005245Y011376D01*
X005146Y011583D02*
X004869Y011451D01*
X004836Y011520D02*
X004908Y011724D01*
X004836Y011520D02*
X004968Y011243D01*
X004797Y011246D02*
X004664Y011523D01*
X004562Y011559D01*
X004354Y011459D01*
X004553Y011044D01*
X004761Y011143D01*
X004797Y011246D01*
X005027Y010868D02*
X004766Y010705D01*
X004896Y010787D02*
X005140Y010396D01*
X005401Y010559D02*
X005238Y010819D01*
X005287Y011031D01*
X005498Y010982D01*
X005661Y010721D01*
X005539Y010917D02*
X005279Y010754D01*
X005542Y010167D02*
X005301Y009976D01*
X005421Y010072D02*
X005707Y009711D01*
X008163Y008080D02*
X008711Y008154D01*
X008297Y008355D01*
X008364Y008493D02*
X008465Y008700D01*
X008568Y008736D01*
X008844Y008601D01*
X008879Y008498D01*
X008778Y008292D01*
X008364Y008493D01*
X008163Y008080D02*
X008576Y007878D01*
X008852Y007711D02*
X009389Y007846D01*
X008955Y008000D01*
X009007Y008145D02*
X009084Y008361D01*
X009182Y008408D01*
X009471Y008305D01*
X009518Y008207D01*
X009441Y007990D01*
X009007Y008145D01*
X008852Y007711D02*
X009286Y007557D01*
X009162Y007438D02*
X009018Y007489D01*
X008966Y007345D01*
X008873Y007541D02*
X008775Y007494D01*
X008724Y007350D01*
X008770Y007252D01*
X009059Y007149D01*
X009157Y007195D01*
X009209Y007340D01*
X009162Y007438D01*
X009511Y007245D02*
X009441Y006947D01*
X009665Y006894D01*
X009625Y007061D01*
X009643Y007136D01*
X009735Y007193D01*
X009884Y007158D01*
X009942Y007065D01*
X009906Y006916D01*
X009814Y006859D01*
X009845Y007325D02*
X010029Y007439D01*
X009915Y007623D01*
X009616Y007694D01*
X009546Y007395D02*
X009845Y007325D01*
X010384Y007131D02*
X010877Y007381D01*
X010420Y007436D01*
X010438Y007588D02*
X010466Y007817D01*
X010551Y007884D01*
X010856Y007848D01*
X010923Y007762D01*
X010895Y007534D01*
X010438Y007588D01*
X010384Y007131D02*
X010841Y007077D01*
X010747Y006933D02*
X010594Y006952D01*
X010576Y006799D01*
X010710Y006629D02*
X010405Y006665D01*
X010338Y006750D01*
X010357Y006903D01*
X010442Y006970D01*
X010747Y006933D02*
X010814Y006848D01*
X010795Y006696D01*
X010710Y006629D01*
X011224Y006564D02*
X011224Y006718D01*
X011300Y006794D01*
X011377Y006794D01*
X011454Y006718D01*
X011531Y006794D01*
X011607Y006794D01*
X011684Y006718D01*
X011684Y006564D01*
X011607Y006487D01*
X011454Y006641D02*
X011454Y006718D01*
X011607Y006948D02*
X011607Y007024D01*
X011684Y007024D01*
X011684Y006948D01*
X011607Y006948D01*
X011607Y007178D02*
X011684Y007255D01*
X011684Y007408D01*
X011607Y007485D01*
X011531Y007485D01*
X011454Y007408D01*
X011454Y007331D01*
X011454Y007408D02*
X011377Y007485D01*
X011300Y007485D01*
X011224Y007408D01*
X011224Y007255D01*
X011300Y007178D01*
X011224Y007638D02*
X011531Y007638D01*
X011684Y007792D01*
X011531Y007945D01*
X011224Y007945D01*
X012174Y007608D02*
X012174Y007378D01*
X012634Y007378D01*
X012634Y007608D01*
X012557Y007685D01*
X012250Y007685D01*
X012174Y007608D01*
X012174Y007225D02*
X012634Y007225D01*
X012174Y006918D01*
X012634Y006918D01*
X012557Y006764D02*
X012404Y006764D01*
X012404Y006611D01*
X012557Y006764D02*
X012634Y006688D01*
X012634Y006534D01*
X012557Y006457D01*
X012250Y006457D01*
X012174Y006534D01*
X012174Y006688D01*
X012250Y006764D01*
X011300Y006487D02*
X011224Y006564D01*
X013124Y006507D02*
X013124Y006738D01*
X013200Y006814D01*
X013277Y006814D01*
X013354Y006738D01*
X013354Y006507D01*
X013584Y006507D02*
X013584Y006738D01*
X013507Y006814D01*
X013431Y006814D01*
X013354Y006738D01*
X013354Y006968D02*
X013354Y007275D01*
X013277Y007275D02*
X013584Y007275D01*
X013584Y007582D02*
X013124Y007582D01*
X013124Y007735D02*
X013124Y007428D01*
X013277Y007275D02*
X013124Y007121D01*
X013277Y006968D01*
X013584Y006968D01*
X013584Y006507D02*
X013124Y006507D01*
X014494Y009277D02*
X014801Y009277D01*
X014954Y009277D02*
X015261Y009584D01*
X015415Y009584D02*
X015568Y009584D01*
X015491Y009661D02*
X015491Y009354D01*
X015568Y009277D01*
X015261Y009277D02*
X014954Y009584D01*
X014801Y009738D02*
X014494Y009738D01*
X014494Y009277D01*
X014494Y009508D02*
X014647Y009508D01*
X015774Y010431D02*
X015927Y010277D01*
X016081Y010431D01*
X016081Y010738D01*
X016234Y010584D02*
X016311Y010584D01*
X016311Y010277D01*
X016234Y010277D02*
X016388Y010277D01*
X016541Y010277D02*
X016541Y010584D01*
X016771Y010584D01*
X016848Y010508D01*
X016848Y010277D01*
X017256Y009738D02*
X017179Y009661D01*
X017179Y009277D01*
X017103Y009508D02*
X017256Y009508D01*
X016949Y009508D02*
X016949Y009431D01*
X016642Y009431D01*
X016642Y009508D02*
X016719Y009584D01*
X016872Y009584D01*
X016949Y009508D01*
X016872Y009277D02*
X016719Y009277D01*
X016642Y009354D01*
X016642Y009508D01*
X016489Y009508D02*
X016412Y009431D01*
X016182Y009431D01*
X016335Y009431D02*
X016489Y009277D01*
X016489Y009508D02*
X016489Y009661D01*
X016412Y009738D01*
X016182Y009738D01*
X016182Y009277D01*
X015774Y010431D02*
X015774Y010738D01*
X016311Y010738D02*
X016311Y010814D01*
X016351Y012277D02*
X016274Y012354D01*
X016274Y012431D01*
X016351Y012508D01*
X016504Y012508D01*
X016581Y012431D01*
X016581Y012354D01*
X016504Y012277D01*
X016351Y012277D01*
X016351Y012508D02*
X016274Y012584D01*
X016274Y012661D01*
X016351Y012738D01*
X016504Y012738D01*
X016581Y012661D01*
X016581Y012584D01*
X016504Y012508D01*
X016274Y013277D02*
X016274Y013354D01*
X016581Y013661D01*
X016581Y013738D01*
X016274Y013738D01*
X016351Y014277D02*
X016274Y014354D01*
X016274Y014508D01*
X016504Y014508D01*
X016581Y014431D01*
X016581Y014354D01*
X016504Y014277D01*
X016351Y014277D01*
X016274Y014508D02*
X016427Y014661D01*
X016581Y014738D01*
X016504Y015277D02*
X016351Y015277D01*
X016274Y015354D01*
X016274Y015508D02*
X016427Y015584D01*
X016504Y015584D01*
X016581Y015508D01*
X016581Y015354D01*
X016504Y015277D01*
X016274Y015508D02*
X016274Y015738D01*
X016581Y015738D01*
X016504Y016277D02*
X016504Y016738D01*
X016274Y016508D01*
X016581Y016508D01*
X016504Y017277D02*
X016351Y017277D01*
X016274Y017354D01*
X016427Y017508D02*
X016504Y017508D01*
X016581Y017431D01*
X016581Y017354D01*
X016504Y017277D01*
X016504Y017508D02*
X016581Y017584D01*
X016581Y017661D01*
X016504Y017738D01*
X016351Y017738D01*
X016274Y017661D01*
X016274Y018277D02*
X016581Y018584D01*
X016581Y018661D01*
X016504Y018738D01*
X016351Y018738D01*
X016274Y018661D01*
X016274Y018277D02*
X016581Y018277D01*
X016581Y019277D02*
X016274Y019277D01*
X016427Y019277D02*
X016427Y019738D01*
X016274Y019584D01*
X013564Y021407D02*
X013488Y021330D01*
X013181Y021330D01*
X013104Y021407D01*
X013104Y021560D01*
X013181Y021637D01*
X013488Y021637D01*
X013564Y021560D01*
X013564Y021407D01*
X013488Y021790D02*
X013564Y021867D01*
X013564Y022020D01*
X013488Y022097D01*
X013181Y022097D01*
X013104Y022020D01*
X013104Y021867D01*
X013181Y021790D01*
X013104Y022251D02*
X013564Y022251D01*
X013411Y022404D01*
X013564Y022557D01*
X013104Y022557D01*
X012634Y022557D02*
X012634Y022251D01*
X012634Y022404D02*
X012174Y022404D01*
X012174Y022097D02*
X012634Y021790D01*
X012481Y021637D02*
X012634Y021483D01*
X012174Y021483D01*
X012174Y021330D02*
X012174Y021637D01*
X012174Y021790D02*
X012634Y022097D01*
X011684Y022007D02*
X011224Y021700D01*
X011224Y021547D02*
X011224Y021240D01*
X011224Y021393D02*
X011684Y021393D01*
X011531Y021547D01*
X011684Y021700D02*
X011224Y022007D01*
X011224Y022161D02*
X011377Y022314D01*
X011377Y022237D02*
X011377Y022467D01*
X011224Y022467D02*
X011684Y022467D01*
X011684Y022237D01*
X011608Y022161D01*
X011454Y022161D01*
X011377Y022237D01*
X010887Y021821D02*
X010905Y021669D01*
X010838Y021583D01*
X010497Y021852D01*
X010430Y021767D01*
X010448Y021614D01*
X010533Y021547D01*
X010838Y021583D01*
X010887Y021821D02*
X010802Y021888D01*
X010497Y021852D01*
X010384Y022148D02*
X010841Y022202D01*
X010823Y022354D02*
X010860Y022050D01*
X010026Y021849D02*
X009956Y022148D01*
X009991Y021998D02*
X009543Y021893D01*
X009613Y021594D02*
X009683Y021295D01*
X009648Y021445D02*
X010096Y021550D01*
X009912Y021664D01*
X009363Y021394D02*
X009415Y021249D01*
X009368Y021151D01*
X009296Y021125D01*
X008904Y021312D01*
X009007Y021022D01*
X008727Y020949D02*
X008660Y021087D01*
X008557Y021123D01*
X008559Y021294D02*
X008424Y021570D01*
X008492Y021432D02*
X008078Y021230D01*
X008281Y020988D02*
X008246Y020885D01*
X008313Y020748D01*
X008416Y020712D01*
X008485Y020746D01*
X008520Y020848D01*
X008487Y020917D01*
X008520Y020848D02*
X008623Y020813D01*
X008692Y020847D01*
X008727Y020949D01*
X008801Y021601D02*
X009235Y021755D01*
X009286Y021611D02*
X009183Y021900D01*
X009265Y021440D02*
X009363Y021394D01*
X008070Y020595D02*
X008046Y020489D01*
X007623Y020584D01*
X007599Y020478D01*
X007681Y020348D01*
X007787Y020324D01*
X008046Y020489D01*
X008070Y020595D02*
X007988Y020724D01*
X007882Y020748D01*
X007623Y020584D01*
X007476Y020672D02*
X007735Y020837D01*
X007782Y021048D01*
X007571Y021096D01*
X007312Y020931D01*
X007506Y021055D02*
X007670Y020795D01*
X007057Y020573D02*
X007034Y020357D01*
X006794Y020165D01*
X006890Y020046D02*
X007083Y019806D01*
X006987Y019926D02*
X007345Y020214D01*
X007130Y020238D01*
X006974Y020309D02*
X006781Y020549D01*
X006841Y020597D02*
X006602Y020404D01*
X006841Y020597D02*
X007057Y020573D01*
X006335Y019976D02*
X006336Y019759D01*
X006120Y019541D01*
X006229Y019433D02*
X006663Y019435D01*
X006717Y019489D01*
X006717Y019598D01*
X006608Y019706D01*
X006499Y019705D01*
X006282Y019705D02*
X006064Y019921D01*
X006118Y019975D02*
X006335Y019976D01*
X006118Y019975D02*
X005902Y019757D01*
X005718Y019336D02*
X005743Y019121D01*
X005552Y018880D01*
X005720Y018845D02*
X005733Y018737D01*
X005853Y018642D01*
X005961Y018654D01*
X006009Y018714D01*
X005996Y018822D01*
X005936Y018870D01*
X005996Y018822D02*
X006104Y018835D01*
X006152Y018895D01*
X006139Y019002D01*
X006019Y019098D01*
X005911Y019085D01*
X005695Y019060D02*
X005455Y019251D01*
X005503Y019311D02*
X005718Y019336D01*
X005503Y019311D02*
X005312Y019071D01*
X004995Y018704D02*
X005191Y018582D01*
X005215Y018476D01*
X005052Y018216D01*
X004947Y018192D01*
X004751Y018314D01*
X004995Y018704D01*
X005345Y018395D02*
X005451Y018419D01*
X005581Y018338D01*
X005605Y018232D01*
X005565Y018167D01*
X005459Y018143D01*
X005483Y018037D01*
X005443Y017972D01*
X005337Y017948D01*
X005207Y018029D01*
X005183Y018135D01*
X005394Y018184D02*
X005459Y018143D01*
X005132Y017684D02*
X004994Y017750D01*
X004891Y017714D01*
X004753Y017780D02*
X004620Y017503D01*
X004518Y017467D01*
X004311Y017567D01*
X004509Y017982D01*
X004717Y017882D01*
X004753Y017780D01*
X004726Y017368D02*
X005135Y017512D01*
X005168Y017581D01*
X005132Y017684D01*
X005002Y017235D02*
X004726Y017368D01*
X004700Y017073D02*
X004549Y016638D01*
X004404Y016688D02*
X004694Y016587D01*
X004513Y016308D02*
X004571Y016216D01*
X004204Y015985D01*
X004261Y015893D01*
X004411Y015859D01*
X004503Y015917D01*
X004571Y016216D01*
X004513Y016308D02*
X004364Y016342D01*
X004272Y016284D01*
X004204Y015985D01*
X004054Y016019D02*
X004122Y016319D01*
X004064Y016410D01*
X003840Y016461D01*
X003738Y016012D01*
X003962Y015961D01*
X004054Y016019D01*
X003800Y015565D02*
X003630Y015430D01*
X003596Y015125D01*
X003622Y015354D02*
X003927Y015320D01*
X003935Y015396D02*
X003901Y015091D01*
X004079Y015302D02*
X004384Y015268D01*
X004282Y015048D02*
X004334Y015506D01*
X004079Y015302D01*
X003935Y015396D02*
X003800Y015565D01*
X003737Y014738D02*
X003891Y014584D01*
X003891Y014277D01*
X004044Y014354D02*
X004121Y014277D01*
X004274Y014277D01*
X004351Y014354D01*
X004351Y014508D01*
X004274Y014584D01*
X004198Y014584D01*
X004044Y014508D01*
X004044Y014738D01*
X004351Y014738D01*
X003891Y014508D02*
X003584Y014508D01*
X003584Y014584D02*
X003737Y014738D01*
X003584Y014584D02*
X003584Y014277D01*
X003620Y013847D02*
X003925Y013881D01*
X003773Y013864D02*
X003824Y013407D01*
X004129Y013441D02*
X004383Y013932D01*
X004544Y013873D02*
X004611Y013958D01*
X004764Y013975D01*
X004849Y013908D01*
X004857Y013831D01*
X004587Y013492D01*
X004891Y013526D01*
X004869Y013275D02*
X004720Y013241D01*
X004662Y013149D01*
X004495Y013190D02*
X004298Y012673D01*
X004148Y012639D02*
X003965Y012755D01*
X004039Y012772D02*
X003815Y012721D01*
X003849Y012571D02*
X003747Y013020D01*
X003971Y013071D01*
X004063Y013013D01*
X004097Y012864D01*
X004039Y012772D01*
X004196Y013122D02*
X004597Y012741D01*
X004747Y012775D02*
X004978Y013142D01*
X004961Y013217D01*
X004869Y013275D01*
X004434Y013475D02*
X004078Y013898D01*
X004747Y012775D02*
X005046Y012843D01*
X004187Y016764D02*
X003969Y016840D01*
X004121Y017274D01*
X004338Y017199D01*
X004385Y017101D01*
X004284Y016811D01*
X004187Y016764D01*
X004505Y016978D02*
X004700Y017073D01*
X006447Y019217D02*
X006229Y019433D01*
X011294Y010698D02*
X011524Y010698D01*
X011601Y010621D01*
X011601Y010468D01*
X011524Y010391D01*
X011294Y010391D01*
X011447Y010391D02*
X011601Y010237D01*
X011754Y010314D02*
X011754Y010468D01*
X011831Y010544D01*
X011984Y010544D01*
X012061Y010468D01*
X012061Y010391D01*
X011754Y010391D01*
X011754Y010314D02*
X011831Y010237D01*
X011984Y010237D01*
X012101Y009988D02*
X012254Y009988D01*
X012331Y009911D01*
X012024Y009604D01*
X012101Y009527D01*
X012254Y009527D01*
X012331Y009604D01*
X012331Y009911D01*
X012484Y009988D02*
X012484Y009681D01*
X012638Y009527D01*
X012791Y009681D01*
X012791Y009988D01*
X012291Y010237D02*
X012291Y010621D01*
X012368Y010698D01*
X012368Y010468D02*
X012215Y010468D01*
X012101Y009988D02*
X012024Y009911D01*
X012024Y009604D01*
X011541Y009681D02*
X011541Y009988D01*
X011234Y009988D02*
X011234Y009681D01*
X011388Y009527D01*
X011541Y009681D01*
X011081Y009758D02*
X011081Y009604D01*
X011004Y009527D01*
X010851Y009527D01*
X010774Y009604D01*
X010774Y009758D02*
X010927Y009834D01*
X011004Y009834D01*
X011081Y009758D01*
X011081Y009988D02*
X010774Y009988D01*
X010774Y009758D01*
X011294Y010237D02*
X011294Y010698D01*
M02*
