G75*
G70*
%OFA0B0*%
%FSLAX24Y24*%
%IPPOS*%
%LPD*%
%AMOC8*
5,1,8,0,0,1.08239X$1,22.5*
%
%ADD10C,0.0515*%
%ADD11R,0.0740X0.0740*%
%ADD12C,0.0740*%
%ADD13C,0.0360*%
%ADD14C,0.0240*%
%ADD15C,0.0100*%
D10*
X007704Y006558D03*
X008411Y005851D03*
X009411Y005851D03*
X010411Y005851D03*
X011411Y005851D03*
X012411Y005851D03*
X013411Y005851D03*
X006997Y007265D03*
X006290Y007972D03*
X005583Y008679D03*
X004875Y009386D03*
X004168Y010093D03*
X003461Y010800D03*
X002754Y011507D03*
X002754Y012507D03*
X002754Y013507D03*
X002754Y014507D03*
X002754Y015507D03*
X002754Y016507D03*
X002754Y017507D03*
X003461Y018214D03*
X004168Y018922D03*
X004875Y019629D03*
X005583Y020336D03*
X006290Y021043D03*
X006997Y021750D03*
X007704Y022457D03*
X008411Y023164D03*
X009411Y023164D03*
X010411Y023164D03*
X011411Y023164D03*
X012411Y023164D03*
X013411Y023164D03*
D11*
X017504Y019507D03*
D12*
X017504Y018507D03*
X017504Y017507D03*
X017504Y016507D03*
X017504Y015507D03*
X017504Y014507D03*
X017504Y013507D03*
X017504Y012507D03*
X017504Y010507D03*
X017504Y009507D03*
D13*
X013864Y010787D03*
X012984Y010947D03*
X012984Y010547D03*
X012584Y011987D03*
X012904Y013107D03*
X013864Y013267D03*
X012744Y014227D03*
X012744Y014627D03*
X013064Y015987D03*
X013064Y016387D03*
X013784Y016387D03*
X014398Y015114D03*
X010898Y015114D03*
X010024Y016547D03*
X009624Y017107D03*
X009144Y017107D03*
X009544Y019427D03*
X012824Y018947D03*
X014104Y018947D03*
X009544Y014067D03*
X009064Y014067D03*
X010344Y013347D03*
X009864Y011027D03*
X009384Y011027D03*
X010344Y010867D03*
X009144Y010067D03*
X009144Y009587D03*
X013304Y008467D03*
X013784Y008467D03*
D14*
X013864Y010787D02*
X015784Y010787D01*
X017504Y012507D01*
X017504Y013507D02*
X015504Y011507D01*
X010984Y011507D01*
X010344Y010867D01*
X010344Y013347D02*
X010744Y013747D01*
X015744Y013747D01*
X017504Y015507D01*
X017384Y016387D02*
X017504Y016507D01*
X017384Y016387D02*
X013784Y016387D01*
X014398Y015114D02*
X014398Y015107D01*
X010898Y015107D01*
X010898Y015114D01*
X010024Y016547D02*
X010344Y016867D01*
X016864Y016867D01*
X017504Y017507D01*
X017504Y018507D02*
X017064Y018947D01*
X014104Y018947D01*
X017424Y019427D02*
X017504Y019507D01*
X017424Y019427D02*
X009544Y019427D01*
X013864Y013267D02*
X016264Y013267D01*
X017504Y014507D01*
D15*
X006579Y005977D02*
X005568Y006647D01*
X004647Y007436D01*
X003830Y008332D01*
X003130Y009322D01*
X002556Y010391D01*
X002118Y011521D01*
X001822Y012698D01*
X001673Y013901D01*
X001673Y015114D01*
X001822Y016317D01*
X002118Y017493D01*
X002556Y018624D01*
X003130Y019692D01*
X003830Y020682D01*
X004647Y021578D01*
X005568Y022367D01*
X006579Y023037D01*
X007665Y023578D01*
X008808Y023981D01*
X009993Y024240D01*
X009993Y024240D01*
X011201Y024352D01*
X012413Y024315D01*
X013611Y024129D01*
X014777Y023797D01*
X015894Y023324D01*
X016944Y022718D01*
X017912Y021987D01*
X018504Y021413D01*
X018504Y007601D01*
X017912Y007028D01*
X016944Y006297D01*
X015894Y005690D01*
X014777Y005218D01*
X013611Y004886D01*
X012413Y004700D01*
X011201Y004663D01*
X009993Y004774D01*
X008808Y005034D01*
X007665Y005437D01*
X006579Y005977D01*
X006592Y005971D02*
X008041Y005971D01*
X008023Y005928D02*
X008082Y006070D01*
X008191Y006179D01*
X008334Y006238D01*
X008364Y006238D01*
X008838Y007498D01*
X008433Y007675D01*
X008015Y006794D01*
X008032Y006777D01*
X008091Y006635D01*
X008091Y006481D01*
X008032Y006338D01*
X007923Y006229D01*
X007781Y006170D01*
X007627Y006170D01*
X007484Y006229D01*
X007375Y006338D01*
X007316Y006481D01*
X007316Y006635D01*
X007375Y006777D01*
X007484Y006886D01*
X007627Y006945D01*
X007688Y006945D01*
X008103Y007820D01*
X008079Y007831D01*
X008079Y007831D01*
X007653Y008082D01*
X007179Y007608D01*
X007216Y007593D01*
X007325Y007484D01*
X007384Y007342D01*
X007384Y007188D01*
X007325Y007045D01*
X007216Y006936D01*
X007074Y006877D01*
X006920Y006877D01*
X006777Y006936D01*
X006668Y007045D01*
X006609Y007188D01*
X006609Y007342D01*
X006668Y007484D01*
X006777Y007593D01*
X006817Y007610D01*
X006817Y007755D01*
X007480Y008418D01*
X007507Y008463D01*
X007531Y008469D01*
X007549Y008487D01*
X007601Y008487D01*
X007651Y008500D01*
X007673Y008487D01*
X007698Y008487D01*
X007733Y008453D01*
X008251Y008168D01*
X009371Y007676D01*
X010541Y007319D01*
X011745Y007102D01*
X012325Y007050D01*
X012362Y007061D01*
X012394Y007045D01*
X012429Y007043D01*
X012457Y007011D01*
X012494Y006992D01*
X012504Y006958D01*
X012528Y006931D01*
X012526Y006889D01*
X012598Y006654D01*
X012598Y006654D01*
X012630Y006179D01*
X012630Y006179D01*
X012739Y006070D01*
X012798Y005928D01*
X012798Y005774D01*
X013023Y005774D01*
X013082Y005631D01*
X013191Y005522D01*
X013334Y005463D01*
X013488Y005463D01*
X013630Y005522D01*
X013739Y005631D01*
X013798Y005774D01*
X016039Y005774D01*
X016210Y005872D02*
X013798Y005872D01*
X013798Y005928D02*
X013739Y006070D01*
X013630Y006179D01*
X013488Y006238D01*
X013334Y006238D01*
X013191Y006179D01*
X013082Y006070D01*
X013023Y005928D01*
X013023Y005774D01*
X013023Y005872D02*
X012798Y005872D01*
X012798Y005774D02*
X012739Y005631D01*
X012630Y005522D01*
X012488Y005463D01*
X012334Y005463D01*
X012191Y005522D01*
X012082Y005631D01*
X012023Y005774D01*
X011798Y005774D01*
X011739Y005631D01*
X011630Y005522D01*
X011488Y005463D01*
X011334Y005463D01*
X011191Y005522D01*
X011082Y005631D01*
X011023Y005774D01*
X010798Y005774D01*
X010739Y005631D01*
X010630Y005522D01*
X010488Y005463D01*
X010334Y005463D01*
X010191Y005522D01*
X010082Y005631D01*
X010023Y005774D01*
X009798Y005774D01*
X009739Y005631D01*
X009630Y005522D01*
X009488Y005463D01*
X009334Y005463D01*
X009191Y005522D01*
X009082Y005631D01*
X009023Y005774D01*
X008798Y005774D01*
X008798Y005773D02*
X008798Y005928D01*
X008739Y006070D01*
X008700Y006109D01*
X009168Y007353D01*
X009240Y007321D01*
X010384Y006972D01*
X010279Y006216D01*
X010191Y006179D01*
X010082Y006070D01*
X010023Y005928D01*
X010023Y005774D01*
X010023Y005872D02*
X009798Y005872D01*
X009798Y005928D02*
X009739Y006070D01*
X009630Y006179D01*
X009488Y006238D01*
X009334Y006238D01*
X009191Y006179D01*
X009082Y006070D01*
X009023Y005928D01*
X009023Y005774D01*
X009023Y005872D02*
X008798Y005872D01*
X008798Y005773D02*
X008739Y005631D01*
X008630Y005522D01*
X008488Y005463D01*
X008334Y005463D01*
X008191Y005522D01*
X008082Y005631D01*
X008023Y005773D01*
X008023Y005928D01*
X008023Y005872D02*
X006790Y005872D01*
X006988Y005774D02*
X008023Y005774D01*
X008064Y005675D02*
X007186Y005675D01*
X007384Y005577D02*
X008137Y005577D01*
X008297Y005478D02*
X007582Y005478D01*
X007827Y005380D02*
X015160Y005380D01*
X014927Y005281D02*
X008107Y005281D01*
X008386Y005183D02*
X014654Y005183D01*
X014308Y005084D02*
X008666Y005084D01*
X009029Y004986D02*
X013961Y004986D01*
X013615Y004887D02*
X009479Y004887D01*
X009929Y004788D02*
X012984Y004788D01*
X013297Y005478D02*
X012524Y005478D01*
X012685Y005577D02*
X013137Y005577D01*
X013064Y005675D02*
X012758Y005675D01*
X012780Y005971D02*
X013041Y005971D01*
X013082Y006070D02*
X012739Y006070D01*
X012641Y006168D02*
X013180Y006168D01*
X012624Y006267D02*
X016892Y006267D01*
X017035Y006365D02*
X012617Y006365D01*
X012611Y006464D02*
X017166Y006464D01*
X017296Y006562D02*
X012604Y006562D01*
X012596Y006661D02*
X017427Y006661D01*
X017557Y006759D02*
X012566Y006759D01*
X012535Y006858D02*
X017688Y006858D01*
X017818Y006956D02*
X012506Y006956D01*
X012374Y007055D02*
X017940Y007055D01*
X018042Y007154D02*
X011460Y007154D01*
X011516Y006759D02*
X010718Y006759D01*
X010704Y006661D02*
X012210Y006661D01*
X012201Y006696D02*
X012228Y006585D01*
X012253Y006205D01*
X012191Y006179D01*
X012082Y006070D01*
X012023Y005928D01*
X012023Y005774D01*
X012023Y005872D02*
X011798Y005872D01*
X011798Y005928D02*
X011739Y006070D01*
X011630Y006179D01*
X011488Y006238D01*
X011334Y006238D01*
X011191Y006179D01*
X011082Y006070D01*
X011023Y005928D01*
X011023Y005774D01*
X011023Y005872D02*
X010798Y005872D01*
X010798Y005928D02*
X010739Y006070D01*
X010637Y006172D01*
X010737Y006900D01*
X011700Y006726D01*
X011700Y006726D01*
X012201Y006696D01*
X012230Y006562D02*
X010690Y006562D01*
X010677Y006464D02*
X012236Y006464D01*
X012243Y006365D02*
X010663Y006365D01*
X010650Y006267D02*
X012249Y006267D01*
X012180Y006168D02*
X011641Y006168D01*
X011739Y006070D02*
X012082Y006070D01*
X012041Y005971D02*
X011780Y005971D01*
X011798Y005928D02*
X011798Y005774D01*
X011758Y005675D02*
X012064Y005675D01*
X012137Y005577D02*
X011685Y005577D01*
X011524Y005478D02*
X012297Y005478D01*
X012091Y004690D02*
X010905Y004690D01*
X010524Y005478D02*
X011297Y005478D01*
X011137Y005577D02*
X010685Y005577D01*
X010758Y005675D02*
X011064Y005675D01*
X010798Y005774D02*
X010798Y005928D01*
X010780Y005971D02*
X011041Y005971D01*
X011082Y006070D02*
X010740Y006070D01*
X010641Y006168D02*
X011180Y006168D01*
X010969Y006858D02*
X010731Y006858D01*
X010584Y007107D02*
X010411Y005851D01*
X010137Y005577D02*
X009685Y005577D01*
X009758Y005675D02*
X010064Y005675D01*
X009798Y005774D02*
X009798Y005928D01*
X009780Y005971D02*
X010041Y005971D01*
X010082Y006070D02*
X009740Y006070D01*
X009641Y006168D02*
X010180Y006168D01*
X012411Y005851D02*
X012426Y005952D01*
X012436Y006055D01*
X012441Y006157D01*
X012442Y006260D01*
X012437Y006363D01*
X012428Y006465D01*
X012414Y006567D01*
X012396Y006668D01*
X012372Y006768D01*
X012344Y006867D01*
X012341Y007055D02*
X012267Y007055D01*
X010913Y007252D02*
X018144Y007252D01*
X018245Y007351D02*
X010438Y007351D01*
X010115Y007449D02*
X018347Y007449D01*
X018449Y007548D02*
X009792Y007548D01*
X009469Y007646D02*
X018504Y007646D01*
X018504Y007745D02*
X009215Y007745D01*
X009064Y007587D02*
X008411Y005851D01*
X008685Y005577D02*
X009137Y005577D01*
X009064Y005675D02*
X008758Y005675D01*
X008780Y005971D02*
X009041Y005971D01*
X009082Y006070D02*
X008740Y006070D01*
X008723Y006168D02*
X009180Y006168D01*
X008797Y006365D02*
X010300Y006365D01*
X010286Y006267D02*
X008760Y006267D01*
X008834Y006464D02*
X010314Y006464D01*
X010327Y006562D02*
X008871Y006562D01*
X008908Y006661D02*
X010341Y006661D01*
X010354Y006759D02*
X008945Y006759D01*
X008982Y006858D02*
X010368Y006858D01*
X010381Y006956D02*
X009019Y006956D01*
X009056Y007055D02*
X010112Y007055D01*
X009789Y007154D02*
X009093Y007154D01*
X009130Y007252D02*
X009466Y007252D01*
X009240Y007321D02*
X009240Y007321D01*
X009172Y007351D02*
X009167Y007351D01*
X008820Y007449D02*
X008326Y007449D01*
X008279Y007351D02*
X008783Y007351D01*
X008746Y007252D02*
X008232Y007252D01*
X008186Y007154D02*
X008709Y007154D01*
X008671Y007055D02*
X008139Y007055D01*
X008092Y006956D02*
X008634Y006956D01*
X008597Y006858D02*
X008045Y006858D01*
X008040Y006759D02*
X008560Y006759D01*
X008523Y006661D02*
X008080Y006661D01*
X008091Y006562D02*
X008486Y006562D01*
X008449Y006464D02*
X008084Y006464D01*
X008043Y006365D02*
X008412Y006365D01*
X008375Y006267D02*
X007961Y006267D01*
X008082Y006070D02*
X006440Y006070D01*
X006291Y006168D02*
X008180Y006168D01*
X007704Y006558D02*
X008344Y007907D01*
X008317Y008139D02*
X018504Y008139D01*
X018504Y008237D02*
X008125Y008237D01*
X007945Y008336D02*
X018504Y008336D01*
X018504Y008435D02*
X007766Y008435D01*
X007624Y008307D02*
X006997Y007680D01*
X006997Y007265D01*
X007262Y007548D02*
X007974Y007548D01*
X008021Y007646D02*
X007217Y007646D01*
X007316Y007745D02*
X008068Y007745D01*
X008058Y007843D02*
X007414Y007843D01*
X007513Y007942D02*
X007890Y007942D01*
X007723Y008040D02*
X007611Y008040D01*
X007398Y008336D02*
X006423Y008336D01*
X006367Y008359D02*
X006212Y008359D01*
X006070Y008300D01*
X005961Y008191D01*
X005902Y008049D01*
X005902Y007895D01*
X005961Y007752D01*
X006070Y007643D01*
X006212Y007584D01*
X006367Y007584D01*
X006509Y007643D01*
X006618Y007752D01*
X006677Y007895D01*
X006677Y008049D01*
X006618Y008191D01*
X006509Y008300D01*
X006367Y008359D01*
X006156Y008336D02*
X005767Y008336D01*
X005802Y008350D02*
X005660Y008291D01*
X005505Y008291D01*
X005363Y008350D01*
X005254Y008459D01*
X005195Y008602D01*
X005195Y008756D01*
X005254Y008898D01*
X005363Y009007D01*
X005505Y009066D01*
X005660Y009066D01*
X005802Y009007D01*
X005911Y008898D01*
X005970Y008756D01*
X005970Y008602D01*
X005911Y008459D01*
X005802Y008350D01*
X005886Y008435D02*
X007490Y008435D01*
X007300Y008237D02*
X006572Y008237D01*
X006640Y008139D02*
X007201Y008139D01*
X007102Y008040D02*
X006677Y008040D01*
X006677Y007942D02*
X007004Y007942D01*
X006905Y007843D02*
X006656Y007843D01*
X006610Y007745D02*
X006817Y007745D01*
X006817Y007646D02*
X006512Y007646D01*
X006732Y007548D02*
X004546Y007548D01*
X004456Y007646D02*
X006067Y007646D01*
X005969Y007745D02*
X004366Y007745D01*
X004276Y007843D02*
X005923Y007843D01*
X005902Y007942D02*
X004186Y007942D01*
X004097Y008040D02*
X005902Y008040D01*
X005939Y008139D02*
X004007Y008139D01*
X003917Y008237D02*
X006007Y008237D01*
X005941Y008533D02*
X018504Y008533D01*
X018504Y008632D02*
X005970Y008632D01*
X005970Y008730D02*
X018504Y008730D01*
X018504Y008829D02*
X005940Y008829D01*
X005882Y008927D02*
X018504Y008927D01*
X018504Y009026D02*
X017704Y009026D01*
X017776Y009063D01*
X017843Y009111D01*
X017901Y009169D01*
X017949Y009235D01*
X017986Y009308D01*
X018011Y009386D01*
X018022Y009457D01*
X017554Y009457D01*
X017554Y008989D01*
X017626Y009000D01*
X017704Y009026D01*
X017554Y009026D02*
X017454Y009026D01*
X017454Y008989D02*
X017454Y009457D01*
X017554Y009457D01*
X017554Y009557D01*
X018022Y009557D01*
X018011Y009629D01*
X017986Y009707D01*
X017949Y009780D01*
X017901Y009846D01*
X017843Y009904D01*
X017776Y009952D01*
X017704Y009989D01*
X017626Y010015D01*
X017622Y010015D01*
X017787Y010084D01*
X017928Y010224D01*
X018004Y010408D01*
X018004Y010607D01*
X017928Y010791D01*
X017787Y010931D01*
X017603Y011007D01*
X017404Y011007D01*
X017221Y010931D01*
X017080Y010791D01*
X017004Y010607D01*
X017004Y010408D01*
X017080Y010224D01*
X017221Y010084D01*
X017386Y010015D01*
X017382Y010015D01*
X017304Y009989D01*
X017231Y009952D01*
X017165Y009904D01*
X017107Y009846D01*
X017059Y009780D01*
X017022Y009707D01*
X016997Y009629D01*
X016985Y009557D01*
X017454Y009557D01*
X017454Y009457D01*
X016985Y009457D01*
X016997Y009386D01*
X017022Y009308D01*
X017059Y009235D01*
X017107Y009169D01*
X017165Y009111D01*
X017231Y009063D01*
X017304Y009026D01*
X005757Y009026D01*
X005408Y009026D02*
X005018Y009026D01*
X004952Y008999D02*
X005095Y009058D01*
X005204Y009167D01*
X005263Y009309D01*
X005263Y009463D01*
X005204Y009606D01*
X005095Y009715D01*
X004952Y009774D01*
X004798Y009774D01*
X004656Y009715D01*
X004547Y009606D01*
X004488Y009463D01*
X004488Y009309D01*
X004547Y009167D01*
X004656Y009058D01*
X004798Y008999D01*
X004952Y008999D01*
X004732Y009026D02*
X003340Y009026D01*
X003409Y008927D02*
X005283Y008927D01*
X005225Y008829D02*
X003479Y008829D01*
X003549Y008730D02*
X005195Y008730D01*
X005195Y008632D02*
X003619Y008632D01*
X003688Y008533D02*
X005223Y008533D01*
X005279Y008435D02*
X003758Y008435D01*
X003828Y008336D02*
X005398Y008336D01*
X005162Y009124D02*
X017152Y009124D01*
X017068Y009223D02*
X005227Y009223D01*
X005263Y009321D02*
X017018Y009321D01*
X016991Y009420D02*
X005263Y009420D01*
X005240Y009519D02*
X017454Y009519D01*
X017454Y009420D02*
X017554Y009420D01*
X017554Y009321D02*
X017454Y009321D01*
X017454Y009223D02*
X017554Y009223D01*
X017554Y009124D02*
X017454Y009124D01*
X017454Y008989D02*
X017382Y009000D01*
X017304Y009026D01*
X017554Y009519D02*
X018504Y009519D01*
X018504Y009617D02*
X018013Y009617D01*
X017981Y009716D02*
X018504Y009716D01*
X018504Y009814D02*
X017924Y009814D01*
X017831Y009913D02*
X018504Y009913D01*
X018504Y010011D02*
X017636Y010011D01*
X017813Y010110D02*
X018504Y010110D01*
X018504Y010208D02*
X017912Y010208D01*
X017962Y010307D02*
X018504Y010307D01*
X018504Y010405D02*
X018003Y010405D01*
X018004Y010504D02*
X018504Y010504D01*
X018504Y010603D02*
X018004Y010603D01*
X017965Y010701D02*
X018504Y010701D01*
X018504Y010800D02*
X017919Y010800D01*
X017820Y010898D02*
X018504Y010898D01*
X018504Y010997D02*
X017629Y010997D01*
X017379Y010997D02*
X016347Y010997D01*
X016445Y011095D02*
X018504Y011095D01*
X018504Y011194D02*
X016544Y011194D01*
X016642Y011292D02*
X018504Y011292D01*
X018504Y011391D02*
X016741Y011391D01*
X016839Y011489D02*
X018504Y011489D01*
X018504Y011588D02*
X016938Y011588D01*
X017036Y011686D02*
X018504Y011686D01*
X018504Y011785D02*
X017135Y011785D01*
X017234Y011884D02*
X018504Y011884D01*
X018504Y011982D02*
X017332Y011982D01*
X017371Y012021D02*
X017404Y012007D01*
X017603Y012007D01*
X017787Y012084D01*
X017928Y012224D01*
X018004Y012408D01*
X018004Y012607D01*
X017928Y012791D01*
X017787Y012931D01*
X017603Y013007D01*
X017404Y013007D01*
X017603Y013007D01*
X017787Y013084D01*
X017928Y013224D01*
X018004Y013408D01*
X018004Y013607D01*
X017928Y013791D01*
X017787Y013931D01*
X017603Y014007D01*
X017404Y014007D01*
X017603Y014007D01*
X017787Y014084D01*
X017928Y014224D01*
X018004Y014408D01*
X018004Y014607D01*
X017928Y014791D01*
X017787Y014931D01*
X017603Y015007D01*
X017404Y015007D01*
X017603Y015007D01*
X017787Y015084D01*
X017928Y015224D01*
X018004Y015408D01*
X018004Y015607D01*
X017928Y015791D01*
X017787Y015931D01*
X017603Y016007D01*
X017404Y016007D01*
X017221Y015931D01*
X017080Y015791D01*
X017004Y015607D01*
X017004Y015408D01*
X017018Y015375D01*
X015640Y013997D01*
X010694Y013997D01*
X010602Y013959D01*
X010532Y013889D01*
X010300Y013657D01*
X003111Y013657D01*
X003083Y013727D02*
X002974Y013836D01*
X002831Y013895D01*
X002677Y013895D01*
X002535Y013836D01*
X002426Y013727D01*
X002367Y013584D01*
X002367Y013430D01*
X002426Y013288D01*
X002535Y013179D01*
X002677Y013120D01*
X002831Y013120D01*
X002974Y013179D01*
X003083Y013288D01*
X003141Y013430D01*
X003141Y013584D01*
X003083Y013727D01*
X003053Y013756D02*
X010399Y013756D01*
X010497Y013854D02*
X002929Y013854D01*
X002831Y014120D02*
X002973Y014179D01*
X003082Y014288D01*
X003141Y014430D01*
X003141Y014584D01*
X003082Y014727D01*
X002973Y014836D01*
X002831Y014895D01*
X002677Y014895D01*
X002535Y014836D01*
X002426Y014727D01*
X002367Y014584D01*
X002367Y014430D01*
X002426Y014288D01*
X002535Y014179D01*
X002677Y014120D01*
X002831Y014120D01*
X002904Y014150D02*
X015793Y014150D01*
X015695Y014052D02*
X001673Y014052D01*
X001673Y014150D02*
X002604Y014150D01*
X002465Y014249D02*
X001673Y014249D01*
X001673Y014347D02*
X002401Y014347D01*
X002367Y014446D02*
X001673Y014446D01*
X001673Y014544D02*
X002367Y014544D01*
X002391Y014643D02*
X001673Y014643D01*
X001673Y014741D02*
X002440Y014741D01*
X002544Y014840D02*
X001673Y014840D01*
X001673Y014938D02*
X010635Y014938D01*
X010722Y014851D01*
X010836Y014804D01*
X010959Y014804D01*
X011073Y014851D01*
X011080Y014857D01*
X014216Y014857D01*
X014222Y014851D01*
X014336Y014804D01*
X014459Y014804D01*
X014573Y014851D01*
X014660Y014938D01*
X014708Y015052D01*
X014708Y015175D01*
X014660Y015289D01*
X014573Y015376D01*
X014459Y015424D01*
X014336Y015424D01*
X014222Y015376D01*
X014203Y015357D01*
X011092Y015357D01*
X011073Y015376D01*
X010959Y015424D01*
X010836Y015424D01*
X010722Y015376D01*
X010635Y015289D01*
X010588Y015175D01*
X010588Y015052D01*
X010635Y014938D01*
X010594Y015037D02*
X001673Y015037D01*
X001676Y015136D02*
X002639Y015136D01*
X002677Y015120D02*
X002831Y015120D01*
X002973Y015179D01*
X003082Y015288D01*
X003141Y015430D01*
X003141Y015584D01*
X003082Y015727D01*
X002973Y015836D01*
X002831Y015895D01*
X002677Y015895D01*
X002534Y015836D01*
X002425Y015727D01*
X002366Y015584D01*
X002366Y015430D01*
X002425Y015288D01*
X002534Y015179D01*
X002677Y015120D01*
X002869Y015136D02*
X010588Y015136D01*
X010612Y015234D02*
X003029Y015234D01*
X003101Y015333D02*
X010678Y015333D01*
X010749Y014840D02*
X002964Y014840D01*
X003068Y014741D02*
X016384Y014741D01*
X016286Y014643D02*
X003117Y014643D01*
X003141Y014544D02*
X016187Y014544D01*
X016089Y014446D02*
X003141Y014446D01*
X003107Y014347D02*
X015990Y014347D01*
X015892Y014249D02*
X003043Y014249D01*
X002579Y013854D02*
X001679Y013854D01*
X001691Y013756D02*
X002455Y013756D01*
X002397Y013657D02*
X001703Y013657D01*
X001715Y013559D02*
X002367Y013559D01*
X002367Y013460D02*
X001728Y013460D01*
X001740Y013362D02*
X002395Y013362D01*
X002450Y013263D02*
X001752Y013263D01*
X001764Y013165D02*
X002569Y013165D01*
X002677Y012895D02*
X002535Y012836D01*
X002426Y012727D01*
X002367Y012584D01*
X002367Y012430D01*
X002426Y012288D01*
X002535Y012179D01*
X002677Y012120D01*
X002831Y012120D01*
X002973Y012179D01*
X003082Y012288D01*
X003141Y012430D01*
X003141Y012584D01*
X003082Y012727D01*
X002973Y012836D01*
X002831Y012895D01*
X002677Y012895D01*
X002615Y012869D02*
X001801Y012869D01*
X001813Y012770D02*
X002469Y012770D01*
X002403Y012672D02*
X001829Y012672D01*
X001853Y012573D02*
X002367Y012573D01*
X002367Y012475D02*
X001878Y012475D01*
X001903Y012376D02*
X002389Y012376D01*
X002436Y012278D02*
X001928Y012278D01*
X001952Y012179D02*
X002534Y012179D01*
X002650Y011884D02*
X002027Y011884D01*
X002002Y011982D02*
X015625Y011982D01*
X015527Y011884D02*
X002858Y011884D01*
X002831Y011895D02*
X002677Y011895D01*
X002535Y011836D01*
X002426Y011727D01*
X002367Y011584D01*
X002367Y011430D01*
X002426Y011288D01*
X002535Y011179D01*
X002677Y011120D01*
X002831Y011120D01*
X002974Y011179D01*
X003083Y011288D01*
X003141Y011430D01*
X003141Y011584D01*
X003083Y011727D01*
X002974Y011836D01*
X002831Y011895D01*
X003024Y011785D02*
X015428Y011785D01*
X015400Y011757D02*
X010934Y011757D01*
X010842Y011719D01*
X010772Y011649D01*
X010300Y011177D01*
X010282Y011177D01*
X010168Y011130D01*
X010081Y011043D01*
X010034Y010929D01*
X010034Y010806D01*
X010081Y010692D01*
X010168Y010605D01*
X010282Y010557D01*
X010406Y010557D01*
X010520Y010605D01*
X010607Y010692D01*
X010654Y010806D01*
X010654Y010824D01*
X011087Y011257D01*
X015454Y011257D01*
X015554Y011257D01*
X015646Y011295D01*
X017037Y012687D01*
X017004Y012607D01*
X017004Y012408D01*
X017018Y012375D01*
X015680Y011037D01*
X014052Y011037D01*
X014040Y011050D01*
X013926Y011097D01*
X013802Y011097D01*
X013688Y011050D01*
X013601Y010963D01*
X013554Y010849D01*
X013554Y010726D01*
X013601Y010612D01*
X013688Y010525D01*
X013802Y010477D01*
X013926Y010477D01*
X014040Y010525D01*
X014052Y010537D01*
X015734Y010537D01*
X015834Y010537D01*
X015926Y010575D01*
X017371Y012021D01*
X017780Y012081D02*
X018504Y012081D01*
X018504Y012179D02*
X017883Y012179D01*
X017950Y012278D02*
X018504Y012278D01*
X018504Y012376D02*
X017991Y012376D01*
X018004Y012475D02*
X018504Y012475D01*
X018504Y012573D02*
X018004Y012573D01*
X017977Y012672D02*
X018504Y012672D01*
X018504Y012770D02*
X017936Y012770D01*
X017849Y012869D02*
X018504Y012869D01*
X018504Y012968D02*
X017699Y012968D01*
X017745Y013066D02*
X018504Y013066D01*
X018504Y013165D02*
X017868Y013165D01*
X017944Y013263D02*
X018504Y013263D01*
X018504Y013362D02*
X017985Y013362D01*
X018004Y013460D02*
X018504Y013460D01*
X018504Y013559D02*
X018004Y013559D01*
X017983Y013657D02*
X018504Y013657D01*
X018504Y013756D02*
X017942Y013756D01*
X017864Y013854D02*
X018504Y013854D01*
X018504Y013953D02*
X017735Y013953D01*
X017710Y014052D02*
X018504Y014052D01*
X018504Y014150D02*
X017854Y014150D01*
X017938Y014249D02*
X018504Y014249D01*
X018504Y014347D02*
X017979Y014347D01*
X018004Y014446D02*
X018504Y014446D01*
X018504Y014544D02*
X018004Y014544D01*
X017989Y014643D02*
X018504Y014643D01*
X018504Y014741D02*
X017948Y014741D01*
X017879Y014840D02*
X018504Y014840D01*
X018504Y014938D02*
X017770Y014938D01*
X017675Y015037D02*
X018504Y015037D01*
X018504Y015136D02*
X017839Y015136D01*
X017932Y015234D02*
X018504Y015234D01*
X018504Y015333D02*
X017973Y015333D01*
X018004Y015431D02*
X018504Y015431D01*
X018504Y015530D02*
X018004Y015530D01*
X017995Y015628D02*
X018504Y015628D01*
X018504Y015727D02*
X017954Y015727D01*
X017893Y015825D02*
X018504Y015825D01*
X018504Y015924D02*
X017795Y015924D01*
X017787Y016084D02*
X017928Y016224D01*
X018004Y016408D01*
X018004Y016607D01*
X017928Y016791D01*
X017787Y016931D01*
X017603Y017007D01*
X017404Y017007D01*
X017603Y017007D01*
X017787Y017084D01*
X017928Y017224D01*
X018004Y017408D01*
X018004Y017607D01*
X017928Y017791D01*
X017787Y017931D01*
X017603Y018007D01*
X017404Y018007D01*
X017221Y017931D01*
X017080Y017791D01*
X017004Y017607D01*
X017004Y017408D01*
X017018Y017375D01*
X016760Y017117D01*
X010294Y017117D01*
X010202Y017079D01*
X010132Y017009D01*
X009980Y016857D01*
X009962Y016857D01*
X009848Y016810D01*
X009761Y016723D01*
X009714Y016609D01*
X009714Y016486D01*
X009761Y016372D01*
X009848Y016285D01*
X009962Y016237D01*
X010086Y016237D01*
X010200Y016285D01*
X010287Y016372D01*
X010334Y016486D01*
X010334Y016504D01*
X010447Y016617D01*
X013576Y016617D01*
X013521Y016563D01*
X013474Y016449D01*
X013474Y016326D01*
X013521Y016212D01*
X013608Y016125D01*
X013722Y016077D01*
X013846Y016077D01*
X013960Y016125D01*
X013972Y016137D01*
X017167Y016137D01*
X017221Y016084D01*
X017404Y016007D01*
X017603Y016007D01*
X017787Y016084D01*
X017825Y016121D02*
X018504Y016121D01*
X018504Y016219D02*
X017923Y016219D01*
X017967Y016318D02*
X018504Y016318D01*
X018504Y016417D02*
X018004Y016417D01*
X018004Y016515D02*
X018504Y016515D01*
X018504Y016614D02*
X018001Y016614D01*
X017960Y016712D02*
X018504Y016712D01*
X018504Y016811D02*
X017908Y016811D01*
X017809Y016909D02*
X018504Y016909D01*
X018504Y017008D02*
X017604Y017008D01*
X017404Y017007D02*
X017371Y017021D01*
X017324Y016974D01*
X017404Y017007D01*
X017403Y017008D02*
X017358Y017008D01*
X016946Y017303D02*
X003089Y017303D01*
X003083Y017288D02*
X003141Y017430D01*
X003141Y017584D01*
X003083Y017727D01*
X002974Y017836D01*
X002831Y017895D01*
X002677Y017895D01*
X002535Y017836D01*
X002426Y017727D01*
X002367Y017584D01*
X002367Y017430D01*
X002426Y017288D01*
X002535Y017179D01*
X002677Y017120D01*
X002831Y017120D01*
X002974Y017179D01*
X003083Y017288D01*
X003000Y017205D02*
X016848Y017205D01*
X017006Y017402D02*
X003130Y017402D01*
X003141Y017501D02*
X017004Y017501D01*
X017004Y017599D02*
X003135Y017599D01*
X003095Y017698D02*
X017042Y017698D01*
X017086Y017796D02*
X003013Y017796D01*
X002831Y017895D02*
X003233Y017895D01*
X003242Y017886D02*
X003384Y017827D01*
X003538Y017827D01*
X003681Y017886D01*
X003790Y017995D01*
X003849Y018137D01*
X003849Y018291D01*
X003790Y018434D01*
X003681Y018543D01*
X003538Y018602D01*
X003384Y018602D01*
X003242Y018543D01*
X003133Y018434D01*
X003074Y018291D01*
X003074Y018137D01*
X003133Y017995D01*
X003242Y017886D01*
X003134Y017993D02*
X002312Y017993D01*
X002273Y017895D02*
X002677Y017895D01*
X002495Y017796D02*
X002235Y017796D01*
X002197Y017698D02*
X002414Y017698D01*
X002373Y017599D02*
X002159Y017599D01*
X002121Y017501D02*
X002367Y017501D01*
X002378Y017402D02*
X002095Y017402D01*
X002070Y017303D02*
X002419Y017303D01*
X002509Y017205D02*
X002045Y017205D01*
X002021Y017106D02*
X010268Y017106D01*
X010131Y017008D02*
X001996Y017008D01*
X001971Y016909D02*
X010032Y016909D01*
X009850Y016811D02*
X002999Y016811D01*
X002973Y016836D02*
X002831Y016895D01*
X002677Y016895D01*
X002534Y016836D01*
X002425Y016727D01*
X002366Y016584D01*
X002366Y016430D01*
X002425Y016288D01*
X002534Y016179D01*
X002677Y016120D01*
X002831Y016120D01*
X002973Y016179D01*
X003082Y016288D01*
X003141Y016430D01*
X003141Y016584D01*
X003082Y016727D01*
X002973Y016836D01*
X003089Y016712D02*
X009757Y016712D01*
X009716Y016614D02*
X003129Y016614D01*
X003141Y016515D02*
X009714Y016515D01*
X009743Y016417D02*
X003136Y016417D01*
X003095Y016318D02*
X009815Y016318D01*
X010233Y016318D02*
X013477Y016318D01*
X013474Y016417D02*
X010305Y016417D01*
X010345Y016515D02*
X013501Y016515D01*
X013572Y016614D02*
X010444Y016614D01*
X011047Y014840D02*
X014249Y014840D01*
X014547Y014840D02*
X016483Y014840D01*
X016581Y014938D02*
X014661Y014938D01*
X014701Y015037D02*
X016680Y015037D01*
X016779Y015136D02*
X014708Y015136D01*
X014683Y015234D02*
X016877Y015234D01*
X016976Y015333D02*
X014617Y015333D01*
X013951Y016121D02*
X017183Y016121D01*
X017213Y015924D02*
X001773Y015924D01*
X001786Y016022D02*
X017368Y016022D01*
X017640Y016022D02*
X018504Y016022D01*
X018504Y017106D02*
X017810Y017106D01*
X017909Y017205D02*
X018504Y017205D01*
X018504Y017303D02*
X017961Y017303D01*
X018001Y017402D02*
X018504Y017402D01*
X018504Y017501D02*
X018004Y017501D01*
X018004Y017599D02*
X018504Y017599D01*
X018504Y017698D02*
X017966Y017698D01*
X017922Y017796D02*
X018504Y017796D01*
X018504Y017895D02*
X017824Y017895D01*
X017787Y018084D02*
X017603Y018007D01*
X017404Y018007D01*
X017221Y018084D01*
X017080Y018224D01*
X017004Y018408D01*
X017004Y018607D01*
X017018Y018640D01*
X016960Y018697D01*
X014292Y018697D01*
X014280Y018685D01*
X014166Y018637D01*
X014042Y018637D01*
X013928Y018685D01*
X013841Y018772D01*
X013794Y018886D01*
X013794Y019009D01*
X013841Y019123D01*
X013896Y019177D01*
X009732Y019177D01*
X009720Y019165D01*
X009606Y019117D01*
X009482Y019117D01*
X009368Y019165D01*
X009281Y019252D01*
X009234Y019366D01*
X009234Y019489D01*
X009281Y019603D01*
X009368Y019690D01*
X009482Y019737D01*
X009606Y019737D01*
X009720Y019690D01*
X009732Y019677D01*
X017004Y019677D01*
X017004Y019931D01*
X017080Y020007D01*
X017928Y020007D01*
X018004Y019931D01*
X018004Y019084D01*
X017928Y019007D01*
X017357Y019007D01*
X017371Y018994D01*
X017404Y019007D01*
X017603Y019007D01*
X017787Y018931D01*
X017928Y018791D01*
X018004Y018607D01*
X018004Y018408D01*
X017928Y018224D01*
X017787Y018084D01*
X017795Y018092D02*
X018504Y018092D01*
X018504Y018190D02*
X017894Y018190D01*
X017955Y018289D02*
X018504Y018289D01*
X018504Y018387D02*
X017995Y018387D01*
X018004Y018486D02*
X018504Y018486D01*
X018504Y018585D02*
X018004Y018585D01*
X017972Y018683D02*
X018504Y018683D01*
X018504Y018782D02*
X017932Y018782D01*
X017838Y018880D02*
X018504Y018880D01*
X018504Y018979D02*
X017673Y018979D01*
X017998Y019077D02*
X018504Y019077D01*
X018504Y019176D02*
X018004Y019176D01*
X018004Y019274D02*
X018504Y019274D01*
X018504Y019373D02*
X018004Y019373D01*
X018004Y019471D02*
X018504Y019471D01*
X018504Y019570D02*
X018004Y019570D01*
X018004Y019669D02*
X018504Y019669D01*
X018504Y019767D02*
X018004Y019767D01*
X018004Y019866D02*
X018504Y019866D01*
X018504Y019964D02*
X017971Y019964D01*
X018504Y020063D02*
X005857Y020063D01*
X005911Y020116D02*
X005802Y020007D01*
X005660Y019948D01*
X005505Y019948D01*
X005363Y020007D01*
X005254Y020116D01*
X005195Y020259D01*
X005195Y020413D01*
X005254Y020555D01*
X005363Y020664D01*
X005505Y020723D01*
X005660Y020723D01*
X005802Y020664D01*
X005911Y020555D01*
X005970Y020413D01*
X005970Y020259D01*
X005911Y020116D01*
X005930Y020161D02*
X018504Y020161D01*
X018504Y020260D02*
X005970Y020260D01*
X005970Y020358D02*
X018504Y020358D01*
X018504Y020457D02*
X005952Y020457D01*
X005911Y020555D02*
X018504Y020555D01*
X018504Y020654D02*
X005812Y020654D01*
X005961Y020823D02*
X006070Y020714D01*
X006212Y020655D01*
X006367Y020655D01*
X006509Y020714D01*
X006618Y020823D01*
X006677Y020966D01*
X006677Y021120D01*
X006618Y021262D01*
X006509Y021371D01*
X006367Y021430D01*
X006212Y021430D01*
X006070Y021371D01*
X005961Y021262D01*
X005902Y021120D01*
X005902Y020966D01*
X005961Y020823D01*
X005950Y020851D02*
X003984Y020851D01*
X003894Y020752D02*
X006032Y020752D01*
X005909Y020950D02*
X004074Y020950D01*
X004164Y021048D02*
X005902Y021048D01*
X005913Y021147D02*
X004254Y021147D01*
X004343Y021245D02*
X005954Y021245D01*
X006043Y021344D02*
X004433Y021344D01*
X004523Y021442D02*
X006756Y021442D01*
X006777Y021421D02*
X006920Y021362D01*
X007074Y021362D01*
X007216Y021421D01*
X007325Y021530D01*
X007384Y021673D01*
X007384Y021827D01*
X007325Y021969D01*
X007216Y022078D01*
X007074Y022137D01*
X006920Y022137D01*
X006777Y022078D01*
X006668Y021969D01*
X006609Y021827D01*
X006609Y021673D01*
X006668Y021530D01*
X006777Y021421D01*
X006664Y021541D02*
X004613Y021541D01*
X004718Y021639D02*
X006623Y021639D01*
X006609Y021738D02*
X004833Y021738D01*
X004948Y021836D02*
X006613Y021836D01*
X006654Y021935D02*
X005063Y021935D01*
X005178Y022034D02*
X006732Y022034D01*
X006907Y022132D02*
X005293Y022132D01*
X005408Y022231D02*
X007382Y022231D01*
X007375Y022238D02*
X007484Y022129D01*
X007627Y022070D01*
X007781Y022070D01*
X007923Y022129D01*
X008032Y022238D01*
X008091Y022380D01*
X008091Y022534D01*
X008032Y022676D01*
X007923Y022786D01*
X007781Y022844D01*
X007627Y022844D01*
X007484Y022786D01*
X007375Y022676D01*
X007316Y022534D01*
X007316Y022380D01*
X007375Y022238D01*
X007337Y022329D02*
X005524Y022329D01*
X005659Y022428D02*
X007316Y022428D01*
X007316Y022526D02*
X005808Y022526D01*
X005957Y022625D02*
X007354Y022625D01*
X007422Y022723D02*
X006105Y022723D01*
X006254Y022822D02*
X007572Y022822D01*
X007835Y022822D02*
X008225Y022822D01*
X008191Y022836D02*
X008334Y022777D01*
X008488Y022777D01*
X008630Y022836D01*
X008739Y022945D01*
X008798Y023087D01*
X008798Y023241D01*
X008739Y023384D01*
X008630Y023493D01*
X008488Y023552D01*
X008334Y023552D01*
X008191Y023493D01*
X008082Y023384D01*
X008023Y023241D01*
X008023Y023087D01*
X008082Y022945D01*
X008191Y022836D01*
X008107Y022920D02*
X006403Y022920D01*
X006551Y023019D02*
X008052Y023019D01*
X008023Y023118D02*
X006740Y023118D01*
X006938Y023216D02*
X008023Y023216D01*
X008054Y023315D02*
X007136Y023315D01*
X007334Y023413D02*
X008112Y023413D01*
X008237Y023512D02*
X007532Y023512D01*
X007757Y023610D02*
X015219Y023610D01*
X015452Y023512D02*
X013584Y023512D01*
X013630Y023493D02*
X013488Y023552D01*
X013334Y023552D01*
X013191Y023493D01*
X013082Y023384D01*
X013023Y023241D01*
X013023Y023087D01*
X013082Y022945D01*
X013191Y022836D01*
X013334Y022777D01*
X013488Y022777D01*
X013630Y022836D01*
X013739Y022945D01*
X013798Y023087D01*
X013798Y023241D01*
X013739Y023384D01*
X013630Y023493D01*
X013710Y023413D02*
X015684Y023413D01*
X015911Y023315D02*
X013768Y023315D01*
X013798Y023216D02*
X016082Y023216D01*
X016252Y023118D02*
X013798Y023118D01*
X013770Y023019D02*
X016423Y023019D01*
X016594Y022920D02*
X013715Y022920D01*
X013597Y022822D02*
X016764Y022822D01*
X016935Y022723D02*
X007985Y022723D01*
X008054Y022625D02*
X017068Y022625D01*
X017198Y022526D02*
X008091Y022526D01*
X008091Y022428D02*
X017329Y022428D01*
X017459Y022329D02*
X008070Y022329D01*
X008025Y022231D02*
X017590Y022231D01*
X017720Y022132D02*
X007927Y022132D01*
X007481Y022132D02*
X007087Y022132D01*
X007261Y022034D02*
X017851Y022034D01*
X017966Y021935D02*
X007339Y021935D01*
X007380Y021836D02*
X018068Y021836D01*
X018169Y021738D02*
X007384Y021738D01*
X007370Y021639D02*
X018271Y021639D01*
X018373Y021541D02*
X007329Y021541D01*
X007237Y021442D02*
X018474Y021442D01*
X018504Y021344D02*
X006537Y021344D01*
X006625Y021245D02*
X018504Y021245D01*
X018504Y021147D02*
X006666Y021147D01*
X006677Y021048D02*
X018504Y021048D01*
X018504Y020950D02*
X006670Y020950D01*
X006629Y020851D02*
X018504Y020851D01*
X018504Y020752D02*
X006547Y020752D01*
X005698Y019964D02*
X017037Y019964D01*
X017004Y019866D02*
X005186Y019866D01*
X005204Y019848D02*
X005095Y019957D01*
X004952Y020016D01*
X004798Y020016D01*
X004656Y019957D01*
X004547Y019848D01*
X004488Y019706D01*
X004488Y019552D01*
X004547Y019409D01*
X004656Y019300D01*
X004798Y019241D01*
X004952Y019241D01*
X005095Y019300D01*
X005204Y019409D01*
X005263Y019552D01*
X005263Y019706D01*
X005204Y019848D01*
X005237Y019767D02*
X017004Y019767D01*
X016975Y018683D02*
X014276Y018683D01*
X013932Y018683D02*
X004478Y018683D01*
X004497Y018702D02*
X004556Y018844D01*
X004556Y018999D01*
X004497Y019141D01*
X004388Y019250D01*
X004245Y019309D01*
X004091Y019309D01*
X003949Y019250D01*
X003840Y019141D01*
X003781Y018999D01*
X003781Y018844D01*
X003840Y018702D01*
X003949Y018593D01*
X004091Y018534D01*
X004245Y018534D01*
X004388Y018593D01*
X004497Y018702D01*
X004530Y018782D02*
X013837Y018782D01*
X013796Y018880D02*
X004556Y018880D01*
X004556Y018979D02*
X013794Y018979D01*
X013822Y019077D02*
X004523Y019077D01*
X004462Y019176D02*
X009357Y019176D01*
X009272Y019274D02*
X005032Y019274D01*
X005168Y019373D02*
X009234Y019373D01*
X009234Y019471D02*
X005230Y019471D01*
X005263Y019570D02*
X009267Y019570D01*
X009347Y019669D02*
X005263Y019669D01*
X005078Y019964D02*
X005467Y019964D01*
X005308Y020063D02*
X003392Y020063D01*
X003461Y020161D02*
X005235Y020161D01*
X005195Y020260D02*
X003531Y020260D01*
X003601Y020358D02*
X005195Y020358D01*
X005213Y020457D02*
X003671Y020457D01*
X003740Y020555D02*
X005254Y020555D01*
X005353Y020654D02*
X003810Y020654D01*
X003322Y019964D02*
X004673Y019964D01*
X004564Y019866D02*
X003252Y019866D01*
X003182Y019767D02*
X004513Y019767D01*
X004488Y019669D02*
X003117Y019669D01*
X003064Y019570D02*
X004488Y019570D01*
X004521Y019471D02*
X003011Y019471D01*
X002958Y019373D02*
X004583Y019373D01*
X004718Y019274D02*
X004329Y019274D01*
X004007Y019274D02*
X002905Y019274D01*
X002852Y019176D02*
X003875Y019176D01*
X003813Y019077D02*
X002799Y019077D01*
X002746Y018979D02*
X003781Y018979D01*
X003781Y018880D02*
X002693Y018880D01*
X002641Y018782D02*
X003807Y018782D01*
X003859Y018683D02*
X002588Y018683D01*
X002541Y018585D02*
X003342Y018585D01*
X003185Y018486D02*
X002502Y018486D01*
X002464Y018387D02*
X003113Y018387D01*
X003074Y018289D02*
X002426Y018289D01*
X002388Y018190D02*
X003074Y018190D01*
X003093Y018092D02*
X002350Y018092D01*
X002509Y016811D02*
X001946Y016811D01*
X001921Y016712D02*
X002419Y016712D01*
X002379Y016614D02*
X001897Y016614D01*
X001872Y016515D02*
X002366Y016515D01*
X002372Y016417D02*
X001847Y016417D01*
X001822Y016318D02*
X002413Y016318D01*
X002494Y016219D02*
X001810Y016219D01*
X001798Y016121D02*
X002674Y016121D01*
X002833Y016121D02*
X013617Y016121D01*
X013518Y016219D02*
X003014Y016219D01*
X002984Y015825D02*
X017115Y015825D01*
X017054Y015727D02*
X003082Y015727D01*
X003123Y015628D02*
X017013Y015628D01*
X017004Y015530D02*
X003141Y015530D01*
X003141Y015431D02*
X017004Y015431D01*
X017371Y015021D02*
X017324Y014974D01*
X017404Y015007D01*
X017371Y015021D01*
X017371Y014021D02*
X017324Y013974D01*
X017404Y014007D01*
X017371Y014021D01*
X017037Y013687D02*
X017004Y013607D01*
X017004Y013408D01*
X017018Y013375D01*
X015400Y011757D01*
X015724Y012081D02*
X001977Y012081D01*
X002052Y011785D02*
X002484Y011785D01*
X002409Y011686D02*
X002076Y011686D01*
X002101Y011588D02*
X002368Y011588D01*
X002367Y011489D02*
X002130Y011489D01*
X002169Y011391D02*
X002383Y011391D01*
X002424Y011292D02*
X002207Y011292D01*
X002245Y011194D02*
X002520Y011194D01*
X002283Y011095D02*
X003208Y011095D01*
X003242Y011129D02*
X003133Y011020D01*
X003074Y010877D01*
X003074Y010723D01*
X003133Y010581D01*
X003242Y010472D01*
X003384Y010413D01*
X003538Y010413D01*
X003681Y010472D01*
X003790Y010581D01*
X003849Y010723D01*
X003849Y010877D01*
X003790Y011020D01*
X003681Y011129D01*
X003538Y011188D01*
X003384Y011188D01*
X003242Y011129D01*
X003123Y010997D02*
X002321Y010997D01*
X002359Y010898D02*
X003082Y010898D01*
X003074Y010800D02*
X002398Y010800D01*
X002436Y010701D02*
X003083Y010701D01*
X003124Y010603D02*
X002474Y010603D01*
X002512Y010504D02*
X003209Y010504D01*
X003713Y010504D02*
X013738Y010504D01*
X013610Y010603D02*
X010514Y010603D01*
X010611Y010701D02*
X013564Y010701D01*
X013554Y010800D02*
X010651Y010800D01*
X010728Y010898D02*
X013574Y010898D01*
X013635Y010997D02*
X010827Y010997D01*
X010925Y011095D02*
X013797Y011095D01*
X013931Y011095D02*
X015738Y011095D01*
X015837Y011194D02*
X011024Y011194D01*
X010711Y011588D02*
X003140Y011588D01*
X003141Y011489D02*
X010612Y011489D01*
X010514Y011391D02*
X003125Y011391D01*
X003084Y011292D02*
X010415Y011292D01*
X010317Y011194D02*
X002988Y011194D01*
X003099Y011686D02*
X010810Y011686D01*
X010133Y011095D02*
X003714Y011095D01*
X003799Y010997D02*
X010062Y010997D01*
X010034Y010898D02*
X003840Y010898D01*
X003849Y010800D02*
X010036Y010800D01*
X010077Y010701D02*
X003839Y010701D01*
X003799Y010603D02*
X010173Y010603D01*
X010282Y013037D02*
X010168Y013085D01*
X010081Y013172D01*
X010034Y013286D01*
X010034Y013409D01*
X010081Y013523D01*
X010168Y013610D01*
X010282Y013657D01*
X010300Y013657D01*
X010117Y013559D02*
X003141Y013559D01*
X003141Y013460D02*
X010055Y013460D01*
X010034Y013362D02*
X003113Y013362D01*
X003058Y013263D02*
X010043Y013263D01*
X010088Y013165D02*
X002939Y013165D01*
X002893Y012869D02*
X016512Y012869D01*
X016414Y012770D02*
X003039Y012770D01*
X003105Y012672D02*
X016315Y012672D01*
X016216Y012573D02*
X003141Y012573D01*
X003141Y012475D02*
X016118Y012475D01*
X016019Y012376D02*
X003119Y012376D01*
X003072Y012278D02*
X015921Y012278D01*
X015822Y012179D02*
X002974Y012179D01*
X001789Y012968D02*
X013778Y012968D01*
X013802Y012957D02*
X013926Y012957D01*
X014040Y013005D01*
X014052Y013017D01*
X016214Y013017D01*
X016314Y013017D01*
X016406Y013055D01*
X017037Y013687D01*
X017025Y013657D02*
X017007Y013657D01*
X017004Y013559D02*
X016909Y013559D01*
X017004Y013460D02*
X016810Y013460D01*
X016712Y013362D02*
X017005Y013362D01*
X016906Y013263D02*
X016613Y013263D01*
X016515Y013165D02*
X016808Y013165D01*
X016709Y013066D02*
X016416Y013066D01*
X016611Y012968D02*
X013950Y012968D01*
X013802Y012957D02*
X013688Y013005D01*
X013601Y013092D01*
X013554Y013206D01*
X013554Y013329D01*
X013601Y013443D01*
X013656Y013497D01*
X010847Y013497D01*
X010654Y013304D01*
X010654Y013286D01*
X010607Y013172D01*
X010520Y013085D01*
X010406Y013037D01*
X010282Y013037D01*
X010213Y013066D02*
X001776Y013066D01*
X001673Y013953D02*
X010596Y013953D01*
X010810Y013460D02*
X013618Y013460D01*
X013567Y013362D02*
X010712Y013362D01*
X010645Y013263D02*
X013554Y013263D01*
X013571Y013165D02*
X010600Y013165D01*
X010475Y013066D02*
X013627Y013066D01*
X015638Y011292D02*
X015935Y011292D01*
X016034Y011391D02*
X015741Y011391D01*
X015839Y011489D02*
X016132Y011489D01*
X016231Y011588D02*
X015938Y011588D01*
X016036Y011686D02*
X016330Y011686D01*
X016428Y011785D02*
X016135Y011785D01*
X016234Y011884D02*
X016527Y011884D01*
X016625Y011982D02*
X016332Y011982D01*
X016431Y012081D02*
X016724Y012081D01*
X016822Y012179D02*
X016529Y012179D01*
X016628Y012278D02*
X016921Y012278D01*
X017017Y012376D02*
X016726Y012376D01*
X016825Y012475D02*
X017004Y012475D01*
X017004Y012573D02*
X016923Y012573D01*
X017022Y012672D02*
X017031Y012672D01*
X017324Y012974D02*
X017371Y013021D01*
X017404Y013007D01*
X017324Y012974D01*
X017188Y010898D02*
X016248Y010898D01*
X016150Y010800D02*
X017089Y010800D01*
X017043Y010701D02*
X016051Y010701D01*
X015953Y010603D02*
X017004Y010603D01*
X017004Y010504D02*
X013990Y010504D01*
X017005Y010405D02*
X004404Y010405D01*
X004388Y010422D02*
X004245Y010481D01*
X004091Y010481D01*
X003949Y010422D01*
X003840Y010313D01*
X003781Y010170D01*
X003781Y010016D01*
X003840Y009874D01*
X003949Y009765D01*
X004091Y009706D01*
X004245Y009706D01*
X004388Y009765D01*
X004497Y009874D01*
X004556Y010016D01*
X004556Y010170D01*
X004497Y010313D01*
X004388Y010422D01*
X004499Y010307D02*
X017046Y010307D01*
X017096Y010208D02*
X004540Y010208D01*
X004556Y010110D02*
X017194Y010110D01*
X017177Y009913D02*
X004513Y009913D01*
X004554Y010011D02*
X017372Y010011D01*
X017084Y009814D02*
X004437Y009814D01*
X004269Y009716D02*
X004659Y009716D01*
X004558Y009617D02*
X002971Y009617D01*
X002918Y009716D02*
X004067Y009716D01*
X003899Y009814D02*
X002866Y009814D01*
X002813Y009913D02*
X003824Y009913D01*
X003783Y010011D02*
X002760Y010011D01*
X002707Y010110D02*
X003781Y010110D01*
X003797Y010208D02*
X002654Y010208D01*
X002601Y010307D02*
X003837Y010307D01*
X003933Y010405D02*
X002550Y010405D01*
X003024Y009519D02*
X004511Y009519D01*
X004488Y009420D02*
X003077Y009420D01*
X003130Y009321D02*
X004488Y009321D01*
X004524Y009223D02*
X003200Y009223D01*
X003270Y009124D02*
X004589Y009124D01*
X005092Y009716D02*
X017026Y009716D01*
X016995Y009617D02*
X005192Y009617D01*
X004636Y007449D02*
X006654Y007449D01*
X006613Y007351D02*
X004747Y007351D01*
X004862Y007252D02*
X006609Y007252D01*
X006623Y007154D02*
X004977Y007154D01*
X005092Y007055D02*
X006664Y007055D01*
X006757Y006956D02*
X005207Y006956D01*
X005322Y006858D02*
X007456Y006858D01*
X007368Y006759D02*
X005437Y006759D01*
X005552Y006661D02*
X007327Y006661D01*
X007316Y006562D02*
X005697Y006562D01*
X005845Y006464D02*
X007323Y006464D01*
X007364Y006365D02*
X005994Y006365D01*
X006143Y006267D02*
X007447Y006267D01*
X007236Y006956D02*
X007694Y006956D01*
X007740Y007055D02*
X007329Y007055D01*
X007370Y007154D02*
X007787Y007154D01*
X007834Y007252D02*
X007384Y007252D01*
X007381Y007351D02*
X007881Y007351D01*
X007927Y007449D02*
X007340Y007449D01*
X008372Y007548D02*
X008724Y007548D01*
X008499Y007646D02*
X008419Y007646D01*
X008542Y008040D02*
X018504Y008040D01*
X018504Y007942D02*
X008766Y007942D01*
X008990Y007843D02*
X018504Y007843D01*
X018504Y009124D02*
X017856Y009124D01*
X017940Y009223D02*
X018504Y009223D01*
X018504Y009321D02*
X017990Y009321D01*
X018017Y009420D02*
X018504Y009420D01*
X016722Y006168D02*
X013641Y006168D01*
X013739Y006070D02*
X016551Y006070D01*
X016380Y005971D02*
X013780Y005971D01*
X013798Y005928D02*
X013798Y005774D01*
X013758Y005675D02*
X015859Y005675D01*
X015626Y005577D02*
X013685Y005577D01*
X013524Y005478D02*
X015393Y005478D01*
X010297Y005478D02*
X009524Y005478D01*
X009297Y005478D02*
X008525Y005478D01*
X002479Y015234D02*
X001688Y015234D01*
X001700Y015333D02*
X002407Y015333D01*
X002366Y015431D02*
X001712Y015431D01*
X001725Y015530D02*
X002366Y015530D01*
X002385Y015628D02*
X001737Y015628D01*
X001749Y015727D02*
X002425Y015727D01*
X002524Y015825D02*
X001761Y015825D01*
X003689Y017895D02*
X017184Y017895D01*
X017212Y018092D02*
X003830Y018092D01*
X003849Y018190D02*
X017114Y018190D01*
X017053Y018289D02*
X003849Y018289D01*
X003809Y018387D02*
X017012Y018387D01*
X017004Y018486D02*
X003738Y018486D01*
X003580Y018585D02*
X003969Y018585D01*
X004367Y018585D02*
X017004Y018585D01*
X017370Y017993D02*
X003788Y017993D01*
X008597Y022822D02*
X009225Y022822D01*
X009191Y022836D02*
X009334Y022777D01*
X009488Y022777D01*
X009630Y022836D01*
X009739Y022945D01*
X009798Y023087D01*
X009798Y023241D01*
X009739Y023384D01*
X009630Y023493D01*
X009488Y023552D01*
X009334Y023552D01*
X009191Y023493D01*
X009082Y023384D01*
X009023Y023241D01*
X009023Y023087D01*
X009082Y022945D01*
X009191Y022836D01*
X009107Y022920D02*
X008715Y022920D01*
X008770Y023019D02*
X009052Y023019D01*
X009023Y023118D02*
X008798Y023118D01*
X008798Y023216D02*
X009023Y023216D01*
X009054Y023315D02*
X008768Y023315D01*
X008710Y023413D02*
X009112Y023413D01*
X009237Y023512D02*
X008584Y023512D01*
X008316Y023807D02*
X014741Y023807D01*
X014986Y023709D02*
X008036Y023709D01*
X008595Y023906D02*
X014395Y023906D01*
X014049Y024004D02*
X008916Y024004D01*
X009366Y024103D02*
X013702Y024103D01*
X013143Y024201D02*
X009816Y024201D01*
X010191Y023493D02*
X010334Y023552D01*
X010488Y023552D01*
X010630Y023493D01*
X010739Y023384D01*
X010798Y023241D01*
X010798Y023087D01*
X010739Y022945D01*
X010630Y022836D01*
X010488Y022777D01*
X010334Y022777D01*
X010191Y022836D01*
X010082Y022945D01*
X010023Y023087D01*
X010023Y023241D01*
X010082Y023384D01*
X010191Y023493D01*
X010237Y023512D02*
X009584Y023512D01*
X009710Y023413D02*
X010112Y023413D01*
X010054Y023315D02*
X009768Y023315D01*
X009798Y023216D02*
X010023Y023216D01*
X010023Y023118D02*
X009798Y023118D01*
X009770Y023019D02*
X010052Y023019D01*
X010107Y022920D02*
X009715Y022920D01*
X009597Y022822D02*
X010225Y022822D01*
X010597Y022822D02*
X011225Y022822D01*
X011191Y022836D02*
X011334Y022777D01*
X011488Y022777D01*
X011630Y022836D01*
X011739Y022945D01*
X011798Y023087D01*
X011798Y023241D01*
X011739Y023384D01*
X011630Y023493D01*
X011488Y023552D01*
X011334Y023552D01*
X011191Y023493D01*
X011082Y023384D01*
X011023Y023241D01*
X011023Y023087D01*
X011082Y022945D01*
X011191Y022836D01*
X011107Y022920D02*
X010715Y022920D01*
X010770Y023019D02*
X011052Y023019D01*
X011023Y023118D02*
X010798Y023118D01*
X010798Y023216D02*
X011023Y023216D01*
X011054Y023315D02*
X010768Y023315D01*
X010710Y023413D02*
X011112Y023413D01*
X011237Y023512D02*
X010584Y023512D01*
X010637Y024300D02*
X012509Y024300D01*
X012488Y023552D02*
X012334Y023552D01*
X012191Y023493D01*
X012082Y023384D01*
X012023Y023241D01*
X012023Y023087D01*
X012082Y022945D01*
X012191Y022836D01*
X012334Y022777D01*
X012488Y022777D01*
X012630Y022836D01*
X012739Y022945D01*
X012798Y023087D01*
X012798Y023241D01*
X012739Y023384D01*
X012630Y023493D01*
X012488Y023552D01*
X012584Y023512D02*
X013237Y023512D01*
X013112Y023413D02*
X012710Y023413D01*
X012768Y023315D02*
X013054Y023315D01*
X013023Y023216D02*
X012798Y023216D01*
X012798Y023118D02*
X013023Y023118D01*
X013052Y023019D02*
X012770Y023019D01*
X012715Y022920D02*
X013107Y022920D01*
X013225Y022822D02*
X012597Y022822D01*
X012225Y022822D02*
X011597Y022822D01*
X011715Y022920D02*
X012107Y022920D01*
X012052Y023019D02*
X011770Y023019D01*
X011798Y023118D02*
X012023Y023118D01*
X012023Y023216D02*
X011798Y023216D01*
X011768Y023315D02*
X012054Y023315D01*
X012112Y023413D02*
X011710Y023413D01*
X011584Y023512D02*
X012237Y023512D01*
X013894Y019176D02*
X009731Y019176D01*
X007624Y008308D02*
X008059Y008066D01*
X008505Y007844D01*
X008961Y007644D01*
X009426Y007465D01*
X009899Y007309D01*
X010379Y007175D01*
X010864Y007064D01*
X011354Y006975D01*
X011848Y006910D01*
X012344Y006868D01*
X017637Y017993D02*
X018504Y017993D01*
M02*
