%
M48
M72
T01C0.0200
T02C0.0315
T03C0.0400
%
T01
X9144Y9587
X9144Y10067
X9384Y11027
X9864Y11027
X10344Y10867
X12584Y11987
X12904Y13107
X13864Y13267
X12744Y14227
X12744Y14627
X13064Y15987
X13064Y16387
X13784Y16387
X14398Y15114
X10898Y15114
X10024Y16547
X9624Y17107
X9144Y17107
X9544Y19427
X12824Y18947
X14104Y18947
X9544Y14067
X9064Y14067
X10344Y13347
X12984Y10947
X12984Y10547
X13864Y10787
X13784Y8467
X13304Y8467
T02
X7704Y6558
X8411Y5851
X9411Y5851
X10411Y5851
X11411Y5851
X12411Y5851
X13411Y5851
X6997Y7265
X6290Y7972
X5583Y8679
X4875Y9386
X4168Y10093
X3461Y10800
X2754Y11507
X2754Y12507
X2754Y13507
X2754Y14507
X2754Y15507
X2754Y16507
X2754Y17507
X3461Y18214
X4168Y18922
X4875Y19629
X5583Y20336
X6290Y21043
X6997Y21750
X7704Y22457
X8411Y23164
X9411Y23164
X10411Y23164
X11411Y23164
X12411Y23164
X13411Y23164
T03
X17504Y19507
X17504Y18507
X17504Y17507
X17504Y16507
X17504Y15507
X17504Y14507
X17504Y13507
X17504Y12507
X17504Y10507
X17504Y9507
M30
