G75*
G70*
%OFA0B0*%
%FSLAX24Y24*%
%IPPOS*%
%LPD*%
%AMOC8*
5,1,8,0,0,1.08239X$1,22.5*
%
%ADD10C,0.0050*%
%ADD11C,0.0100*%
%ADD12C,0.0070*%
%ADD13C,0.0120*%
D10*
X011504Y004507D02*
X013504Y004507D01*
X013599Y004509D01*
X013694Y004516D01*
X013789Y004527D01*
X013883Y004543D01*
X013976Y004563D01*
X014067Y004588D01*
X014158Y004617D01*
X014247Y004650D01*
X014335Y004688D01*
X014420Y004729D01*
X014504Y004775D01*
X014585Y004824D01*
X014664Y004878D01*
X014740Y004935D01*
X014814Y004996D01*
X014884Y005060D01*
X014951Y005127D01*
X015015Y005197D01*
X015076Y005271D01*
X015133Y005347D01*
X015187Y005426D01*
X015236Y005507D01*
X015282Y005591D01*
X015323Y005676D01*
X015361Y005764D01*
X015394Y005853D01*
X015423Y005944D01*
X015448Y006035D01*
X015468Y006128D01*
X015484Y006222D01*
X015495Y006317D01*
X015502Y006412D01*
X015504Y006507D01*
X015504Y022507D01*
X015502Y022602D01*
X015495Y022697D01*
X015484Y022792D01*
X015468Y022886D01*
X015448Y022979D01*
X015423Y023070D01*
X015394Y023161D01*
X015361Y023250D01*
X015323Y023338D01*
X015282Y023423D01*
X015236Y023507D01*
X015187Y023588D01*
X015133Y023667D01*
X015076Y023743D01*
X015015Y023817D01*
X014951Y023887D01*
X014884Y023954D01*
X014814Y024018D01*
X014740Y024079D01*
X014664Y024136D01*
X014585Y024190D01*
X014504Y024239D01*
X014420Y024285D01*
X014335Y024326D01*
X014247Y024364D01*
X014158Y024397D01*
X014067Y024426D01*
X013976Y024451D01*
X013883Y024471D01*
X013789Y024487D01*
X013694Y024498D01*
X013599Y024505D01*
X013504Y024507D01*
X011504Y024507D01*
X011021Y024495D01*
X010539Y024460D01*
X010059Y024402D01*
X009583Y024321D01*
X009111Y024216D01*
X008645Y024089D01*
X008185Y023940D01*
X007733Y023769D01*
X007290Y023576D01*
X006857Y023362D01*
X006434Y023127D01*
X006024Y022872D01*
X005626Y022597D01*
X005242Y022304D01*
X004873Y021992D01*
X004519Y021663D01*
X004181Y021317D01*
X003861Y020955D01*
X003558Y020579D01*
X003274Y020188D01*
X003009Y019783D01*
X002764Y019367D01*
X002540Y018939D01*
X002336Y018501D01*
X002154Y018053D01*
X001993Y017597D01*
X001855Y017134D01*
X001740Y016665D01*
X001647Y016191D01*
X001577Y015712D01*
X001530Y015231D01*
X001507Y014749D01*
X001507Y014265D01*
X001530Y013783D01*
X001577Y013302D01*
X001647Y012823D01*
X001740Y012349D01*
X001855Y011880D01*
X001993Y011417D01*
X002154Y010961D01*
X002336Y010513D01*
X002540Y010075D01*
X002764Y009647D01*
X003009Y009231D01*
X003274Y008826D01*
X003558Y008435D01*
X003861Y008059D01*
X004181Y007697D01*
X004519Y007351D01*
X004873Y007022D01*
X005242Y006710D01*
X005626Y006417D01*
X006024Y006142D01*
X006434Y005887D01*
X006857Y005652D01*
X007290Y005438D01*
X007733Y005245D01*
X008185Y005074D01*
X008645Y004925D01*
X009111Y004798D01*
X009583Y004693D01*
X010059Y004612D01*
X010539Y004554D01*
X011021Y004519D01*
X011504Y004507D01*
X015504Y006407D02*
X015504Y006507D01*
D11*
X014504Y006807D02*
X014504Y010007D01*
X011404Y010007D01*
X011404Y006807D01*
X014504Y006807D01*
X013284Y007407D02*
X012884Y007407D01*
X013094Y007217D02*
X013094Y007617D01*
X013274Y008397D02*
X012874Y008397D01*
X013504Y010307D02*
X013504Y010507D01*
X013604Y010607D01*
X013904Y010307D01*
X013904Y010907D01*
X013604Y010607D01*
X013504Y010507D02*
X013504Y010907D01*
X013504Y011507D02*
X013504Y011707D01*
X013904Y012107D01*
X013904Y011507D01*
X013504Y011907D01*
X013504Y011707D01*
X013504Y011907D02*
X013504Y012107D01*
X014504Y012607D02*
X014504Y015787D01*
X011404Y015787D01*
X011404Y012607D01*
X014504Y012607D01*
X013284Y013227D02*
X012884Y013227D01*
X013094Y013427D02*
X013094Y013027D01*
X013274Y014227D02*
X012874Y014227D01*
X012204Y010607D02*
X011604Y010607D01*
X012404Y019207D02*
X010304Y019207D01*
X010204Y019307D01*
X010204Y019207D01*
X010104Y019207D01*
X010104Y019407D01*
X010204Y019307D01*
X010204Y019207D02*
X010304Y019207D01*
X010104Y019407D02*
X010104Y020807D01*
X012404Y020807D01*
X012404Y019207D01*
D12*
X012991Y015443D02*
X012909Y015361D01*
X012909Y015279D01*
X012991Y015198D01*
X013154Y015198D01*
X013236Y015116D01*
X013236Y015034D01*
X013154Y014952D01*
X012991Y014952D01*
X012909Y015034D01*
X012991Y015443D02*
X013154Y015443D01*
X013236Y015361D01*
X013164Y009663D02*
X013001Y009663D01*
X012919Y009581D01*
X012919Y009499D01*
X013001Y009418D01*
X013164Y009418D01*
X013246Y009336D01*
X013246Y009254D01*
X013164Y009172D01*
X013001Y009172D01*
X012919Y009254D01*
X013246Y009581D02*
X013164Y009663D01*
D13*
X007334Y013855D02*
X007289Y013795D01*
X006884Y013780D01*
X006794Y013645D01*
X006944Y013390D01*
X006944Y013180D01*
X006659Y012940D01*
X006554Y012940D01*
X006299Y013090D01*
X006254Y013105D01*
X006104Y013045D01*
X006044Y012760D01*
X005969Y012700D01*
X005609Y012670D01*
X005549Y012715D01*
X005444Y012910D01*
X005384Y012955D01*
X005174Y012985D01*
X005009Y012790D01*
X004919Y012745D01*
X004619Y012880D01*
X004589Y012970D01*
X004634Y013240D01*
X004469Y013420D01*
X004409Y013435D01*
X004154Y013360D01*
X004064Y013360D01*
X003869Y013630D01*
X003899Y013720D01*
X004079Y013915D01*
X004079Y013975D01*
X004019Y014185D01*
X003974Y014230D01*
X003719Y014290D01*
X003659Y014335D01*
X003614Y014695D01*
X003674Y014755D01*
X003974Y014830D01*
X004004Y014980D01*
X003989Y015055D01*
X003794Y015295D01*
X003794Y015385D01*
X003959Y015700D01*
X004034Y015730D01*
X004334Y015625D01*
X004424Y015640D01*
X004544Y015775D01*
X004559Y015865D01*
X004514Y016105D01*
X004544Y016180D01*
X004934Y016345D01*
X005054Y016285D01*
X005234Y015970D01*
X005489Y015940D01*
X005534Y015970D01*
X005774Y016315D01*
X005909Y016315D01*
X006344Y016135D01*
X006374Y016045D01*
X006314Y015760D01*
X006314Y015670D01*
X006494Y015490D01*
X006569Y015475D01*
X006884Y015595D01*
X006989Y015580D01*
X007259Y015160D01*
X007259Y015055D01*
X006989Y014800D01*
X006929Y014755D01*
X006929Y014575D01*
X006989Y014530D01*
X007319Y014440D01*
X007394Y014320D01*
X007334Y013855D01*
X006509Y013990D02*
X006434Y013900D01*
X006359Y013795D01*
X006284Y013720D01*
X006434Y013900D02*
X006464Y014200D01*
X006449Y014650D01*
X006464Y014725D01*
X006554Y014500D01*
X006569Y014230D01*
X006509Y013990D01*
X006014Y014095D02*
X005939Y014035D01*
X005849Y014020D01*
X005699Y014035D01*
X005609Y014110D01*
X005534Y014230D01*
X005519Y014305D01*
X005969Y014245D01*
X006014Y014200D01*
X006014Y014095D01*
X005654Y013435D02*
X005519Y013435D01*
X005354Y013450D01*
X005219Y013480D01*
X005084Y013540D01*
X004919Y013645D01*
X004769Y013765D01*
X004634Y013945D01*
X004529Y014110D01*
X004439Y014410D01*
X004439Y014560D01*
X004499Y014485D01*
X004589Y014455D01*
X004724Y014425D01*
X004844Y014410D01*
X004949Y014395D01*
X004994Y014350D01*
X005009Y014170D01*
X005054Y014050D01*
X005159Y013780D01*
X005279Y013600D01*
X005399Y013510D01*
X005519Y013435D01*
X005714Y014890D02*
X005474Y014920D01*
X005189Y014950D01*
X004979Y014980D01*
X004889Y015040D01*
X004814Y015115D01*
X004769Y015205D01*
X004739Y015310D01*
X004814Y015370D01*
X004904Y015430D01*
X005024Y015490D01*
X005204Y015535D01*
X005489Y015535D01*
X005579Y015520D01*
X005879Y015400D01*
X006014Y015310D01*
X006119Y015235D01*
X006194Y015160D01*
X005969Y015115D01*
X005879Y015085D01*
X005834Y015025D01*
X005834Y014980D01*
X005879Y014875D01*
X005714Y014890D01*
M02*
