G75*
G70*
%OFA0B0*%
%FSLAX24Y24*%
%IPPOS*%
%LPD*%
%AMOC8*
5,1,8,0,0,1.08239X$1,22.5*
%
%ADD10R,0.0276X0.0354*%
%ADD11R,0.0472X0.0138*%
%ADD12R,0.0354X0.0276*%
%ADD13R,0.1000X0.1000*%
%ADD14R,0.0700X0.0200*%
%ADD15R,0.0276X0.0394*%
%ADD16R,0.0551X0.0709*%
%ADD17R,0.0472X0.0217*%
D10*
X011948Y010307D03*
X012460Y010307D03*
X012460Y012107D03*
X011948Y012107D03*
X013148Y022007D03*
X013660Y022007D03*
D11*
X012456Y022008D03*
X012456Y021752D03*
X012456Y021497D03*
X012456Y021241D03*
X010152Y021241D03*
X010152Y021497D03*
X010152Y021752D03*
X010152Y022008D03*
D12*
X007504Y018763D03*
X007504Y018251D03*
X010004Y018363D03*
X010004Y017851D03*
X010004Y015163D03*
X010004Y014651D03*
X009104Y014651D03*
X008604Y014651D03*
X008604Y015163D03*
X009104Y015163D03*
D13*
X012904Y019307D03*
D14*
X008404Y019307D03*
X008404Y018807D03*
X008404Y019807D03*
D15*
X008528Y016901D03*
X009020Y016901D03*
X009512Y016901D03*
X010004Y016901D03*
X010004Y016114D03*
X009512Y016114D03*
X009020Y016114D03*
X008528Y016114D03*
D16*
X013035Y011807D03*
X013035Y010607D03*
X014373Y010607D03*
X014373Y011807D03*
D17*
X011392Y010833D03*
X011392Y011207D03*
X011392Y011581D03*
X012416Y011581D03*
X012416Y011207D03*
X012416Y010833D03*
M02*
