G75*
G70*
%OFA0B0*%
%FSLAX24Y24*%
%IPPOS*%
%LPD*%
%AMOC8*
5,1,8,0,0,1.08239X$1,22.5*
%
%ADD10C,0.0001*%
%ADD11C,0.0060*%
%ADD12C,0.0080*%
%ADD13C,0.0000*%
%ADD14C,0.0100*%
%ADD15C,0.0040*%
D10*
X001555Y014205D02*
X001567Y014698D01*
X001603Y015190D01*
X001664Y015680D01*
X001748Y016166D01*
X001856Y016647D01*
X001988Y017122D01*
X002142Y017591D01*
X002320Y018051D01*
X002520Y018502D01*
X002742Y018943D01*
X002985Y019372D01*
X003249Y019788D01*
X003533Y020192D01*
X003836Y020581D01*
X004158Y020954D01*
X004499Y021311D01*
X004856Y021652D01*
X005229Y021974D01*
X005618Y022277D01*
X006022Y022561D01*
X006438Y022825D01*
X006867Y023068D01*
X007308Y023290D01*
X007759Y023490D01*
X008219Y023668D01*
X008688Y023822D01*
X009163Y023954D01*
X009644Y024062D01*
X010130Y024146D01*
X010620Y024207D01*
X011112Y024243D01*
X011605Y024255D01*
X012098Y024243D01*
X012590Y024207D01*
X013080Y024146D01*
X013566Y024062D01*
X014047Y023954D01*
X014522Y023822D01*
X014991Y023668D01*
X015451Y023490D01*
X015902Y023290D01*
X016343Y023068D01*
X016772Y022825D01*
X017188Y022561D01*
X017592Y022277D01*
X017981Y021974D01*
X018354Y021652D01*
X018711Y021311D01*
X019052Y020954D01*
X019374Y020581D01*
X019677Y020192D01*
X019961Y019788D01*
X020225Y019372D01*
X020468Y018943D01*
X020690Y018502D01*
X020890Y018051D01*
X021068Y017591D01*
X021222Y017122D01*
X021354Y016647D01*
X021462Y016166D01*
X021546Y015680D01*
X021607Y015190D01*
X021643Y014698D01*
X021655Y014205D01*
X021643Y013712D01*
X021607Y013220D01*
X021546Y012730D01*
X021462Y012244D01*
X021354Y011763D01*
X021222Y011288D01*
X021068Y010819D01*
X020890Y010359D01*
X020690Y009908D01*
X020468Y009467D01*
X020225Y009038D01*
X019961Y008622D01*
X019677Y008218D01*
X019374Y007829D01*
X019052Y007456D01*
X018711Y007099D01*
X018354Y006758D01*
X017981Y006436D01*
X017592Y006133D01*
X017188Y005849D01*
X016772Y005585D01*
X016343Y005342D01*
X015902Y005120D01*
X015451Y004920D01*
X014991Y004742D01*
X014522Y004588D01*
X014047Y004456D01*
X013566Y004348D01*
X013080Y004264D01*
X012590Y004203D01*
X012098Y004167D01*
X011605Y004155D01*
X011112Y004167D01*
X010620Y004203D01*
X010130Y004264D01*
X009644Y004348D01*
X009163Y004456D01*
X008688Y004588D01*
X008219Y004742D01*
X007759Y004920D01*
X007308Y005120D01*
X006867Y005342D01*
X006438Y005585D01*
X006022Y005849D01*
X005618Y006133D01*
X005229Y006436D01*
X004856Y006758D01*
X004499Y007099D01*
X004158Y007456D01*
X003836Y007829D01*
X003533Y008218D01*
X003249Y008622D01*
X002985Y009038D01*
X002742Y009467D01*
X002520Y009908D01*
X002320Y010359D01*
X002142Y010819D01*
X001988Y011288D01*
X001856Y011763D01*
X001748Y012244D01*
X001664Y012730D01*
X001603Y013220D01*
X001567Y013712D01*
X001555Y014205D01*
D11*
X018435Y014182D02*
X018435Y014035D01*
X018508Y013962D01*
X018655Y013962D01*
X018728Y014035D01*
X018728Y014182D01*
X018655Y014256D01*
X018581Y014256D01*
X018581Y013962D01*
X018875Y013795D02*
X018875Y013502D01*
X018875Y013648D02*
X018435Y013648D01*
X019035Y013554D02*
X019035Y013774D01*
X019108Y013848D01*
X019402Y013848D01*
X019475Y013774D01*
X019475Y013554D01*
X019035Y013554D01*
X019635Y013341D02*
X019635Y013047D01*
X019928Y013341D01*
X020002Y013341D01*
X020075Y013267D01*
X020075Y013121D01*
X020002Y013047D01*
X019928Y012880D02*
X019635Y012734D01*
X019928Y012587D01*
X019855Y012420D02*
X019781Y012420D01*
X019781Y012126D01*
X019708Y012126D02*
X019855Y012126D01*
X019928Y012200D01*
X019928Y012347D01*
X019855Y012420D01*
X019635Y012347D02*
X019635Y012200D01*
X019708Y012126D01*
X019635Y011960D02*
X019781Y011813D01*
X019781Y011886D02*
X019781Y011666D01*
X019635Y011666D02*
X020075Y011666D01*
X020075Y011886D01*
X020002Y011960D01*
X019855Y011960D01*
X019781Y011886D01*
X019328Y011936D02*
X019181Y011789D01*
X019035Y011789D02*
X019328Y011789D01*
X019328Y011936D02*
X019328Y012010D01*
X019255Y012173D02*
X019328Y012246D01*
X019328Y012393D01*
X019255Y012467D01*
X019181Y012467D01*
X019181Y012173D01*
X019108Y012173D02*
X019255Y012173D01*
X019108Y012173D02*
X019035Y012246D01*
X019035Y012393D01*
X019035Y012633D02*
X019328Y012633D01*
X019328Y012854D01*
X019255Y012927D01*
X019035Y012927D01*
X018728Y012801D02*
X018728Y012581D01*
X018435Y012581D01*
X018435Y012414D02*
X018435Y012194D01*
X018508Y012121D01*
X018581Y012194D01*
X018581Y012414D01*
X018655Y012414D02*
X018435Y012414D01*
X018655Y012414D02*
X018728Y012341D01*
X018728Y012194D01*
X018728Y011954D02*
X018435Y011807D01*
X018728Y011660D01*
X018875Y011494D02*
X018875Y011200D01*
X018435Y011200D01*
X018435Y011494D01*
X018655Y011347D02*
X018655Y011200D01*
X019035Y011239D02*
X019035Y011019D01*
X019108Y010945D01*
X019181Y011019D01*
X019181Y011239D01*
X019255Y011239D02*
X019035Y011239D01*
X019035Y011406D02*
X019328Y011406D01*
X019181Y011406D02*
X019328Y011553D01*
X019328Y011626D01*
X019255Y011239D02*
X019328Y011166D01*
X019328Y011019D01*
X019475Y010779D02*
X019035Y010779D01*
X019181Y010632D01*
X019035Y010485D01*
X019475Y010485D01*
X019635Y010432D02*
X019781Y010579D01*
X020075Y010579D01*
X019928Y010745D02*
X020075Y010892D01*
X019635Y010892D01*
X019635Y010745D02*
X019635Y011039D01*
X019635Y010432D02*
X019781Y010285D01*
X020075Y010285D01*
X018728Y012801D02*
X018655Y012875D01*
X018435Y012875D01*
X019635Y014015D02*
X019635Y014235D01*
X019708Y014308D01*
X020002Y014308D01*
X020075Y014235D01*
X020075Y014015D01*
X019635Y014015D01*
X019708Y014475D02*
X019855Y014475D01*
X019928Y014549D01*
X019928Y014695D01*
X019855Y014769D01*
X019781Y014769D01*
X019781Y014475D01*
X019708Y014475D02*
X019635Y014549D01*
X019635Y014695D01*
X019475Y014695D02*
X019475Y014548D01*
X019402Y014475D01*
X019108Y014475D01*
X019035Y014548D01*
X019035Y014695D01*
X019108Y014768D01*
X019255Y014768D01*
X019255Y014622D01*
X019402Y014768D02*
X019475Y014695D01*
X019328Y014935D02*
X019035Y014935D01*
X019181Y014935D02*
X019328Y015082D01*
X019328Y015155D01*
X019255Y015319D02*
X019328Y015392D01*
X019328Y015539D01*
X019255Y015612D01*
X019181Y015612D01*
X019181Y015319D01*
X019108Y015319D02*
X019255Y015319D01*
X019108Y015319D02*
X019035Y015392D01*
X019035Y015539D01*
X018875Y015570D02*
X018435Y015570D01*
X018435Y015497D02*
X018435Y015643D01*
X018435Y015803D02*
X018728Y015803D01*
X018728Y015877D01*
X018655Y015950D01*
X018728Y016024D01*
X018655Y016097D01*
X018435Y016097D01*
X018435Y015950D02*
X018655Y015950D01*
X019035Y015999D02*
X019035Y015852D01*
X019108Y015779D01*
X019255Y015779D01*
X019328Y015852D01*
X019328Y015999D01*
X019255Y016073D01*
X019181Y016073D01*
X019181Y015779D01*
X019488Y015850D02*
X019488Y015923D01*
X019561Y015996D01*
X019928Y015996D01*
X019928Y015776D01*
X019855Y015703D01*
X019708Y015703D01*
X019635Y015776D01*
X019635Y015996D01*
X019635Y016163D02*
X019928Y016163D01*
X019928Y016383D01*
X019855Y016457D01*
X019635Y016457D01*
X019328Y016460D02*
X019328Y016239D01*
X019035Y016239D01*
X018728Y016337D02*
X018728Y016484D01*
X018655Y016557D01*
X018435Y016557D01*
X018435Y016337D01*
X018508Y016264D01*
X018581Y016337D01*
X018581Y016557D01*
X018435Y016724D02*
X018728Y016724D01*
X018728Y016944D01*
X018655Y017018D01*
X018435Y017018D01*
X019035Y016920D02*
X019108Y016993D01*
X019328Y016993D01*
X019328Y017234D02*
X019328Y017380D01*
X019255Y017454D01*
X019035Y017454D01*
X019035Y017234D01*
X019108Y017160D01*
X019181Y017234D01*
X019181Y017454D01*
X019108Y017621D02*
X019035Y017694D01*
X019035Y017914D01*
X018961Y017914D02*
X018888Y017841D01*
X018888Y017767D01*
X018961Y017914D02*
X019328Y017914D01*
X019488Y017764D02*
X019488Y017691D01*
X019488Y017764D02*
X019561Y017838D01*
X019928Y017838D01*
X019928Y018005D02*
X019855Y018005D01*
X019855Y018078D01*
X019928Y018078D01*
X019928Y018005D01*
X019708Y018005D02*
X019708Y018078D01*
X019635Y018078D01*
X019635Y018005D01*
X019708Y018005D01*
X019635Y017838D02*
X019635Y017618D01*
X019708Y017544D01*
X019928Y017544D01*
X019928Y017377D02*
X019855Y017304D01*
X019855Y017084D01*
X019855Y017304D02*
X019781Y017377D01*
X019708Y017377D01*
X019635Y017304D01*
X019635Y017084D01*
X020075Y017084D01*
X020075Y017304D01*
X020002Y017377D01*
X019928Y017377D01*
X019328Y017621D02*
X019108Y017621D01*
X019035Y016920D02*
X019108Y016847D01*
X019035Y016773D01*
X019108Y016700D01*
X019328Y016700D01*
X019255Y016533D02*
X019035Y016533D01*
X019255Y016533D02*
X019328Y016460D01*
X019635Y015543D02*
X019635Y015396D01*
X019635Y015469D02*
X019928Y015469D01*
X019928Y015396D01*
X020075Y015469D02*
X020148Y015469D01*
X019928Y015229D02*
X019928Y015009D01*
X019855Y014936D01*
X019781Y015009D01*
X019781Y015156D01*
X019708Y015229D01*
X019635Y015156D01*
X019635Y014936D01*
X018948Y014496D02*
X018875Y014496D01*
X018728Y014496D02*
X018728Y014422D01*
X018728Y014496D02*
X018435Y014496D01*
X018435Y014569D02*
X018435Y014422D01*
X018508Y014803D02*
X018435Y014876D01*
X018508Y014803D02*
X018802Y014803D01*
X018728Y014876D02*
X018728Y014729D01*
X018655Y015036D02*
X018728Y015110D01*
X018728Y015256D01*
X018655Y015330D01*
X018581Y015330D01*
X018581Y015036D01*
X018508Y015036D02*
X018655Y015036D01*
X018508Y015036D02*
X018435Y015110D01*
X018435Y015256D01*
X018875Y015497D02*
X018875Y015570D01*
D12*
X020385Y015549D02*
X020385Y015356D01*
X020481Y015259D01*
X020675Y015259D01*
X020772Y015356D01*
X020772Y015549D01*
X020675Y015646D01*
X020578Y015646D01*
X020578Y015259D01*
X020385Y015038D02*
X020965Y015038D01*
X020965Y014651D02*
X020385Y014651D01*
X020385Y015038D02*
X020965Y014651D01*
X020772Y013823D02*
X020288Y013823D01*
X020191Y013726D01*
X020191Y013629D01*
X020385Y013533D02*
X020385Y013823D01*
X020385Y013533D02*
X020481Y013436D01*
X020772Y013436D01*
X020675Y013215D02*
X020385Y013215D01*
X020385Y013022D02*
X020675Y013022D01*
X020772Y013118D01*
X020675Y013215D01*
X020675Y013022D02*
X020772Y012925D01*
X020772Y012828D01*
X020385Y012828D01*
X020385Y012607D02*
X020385Y012317D01*
X020481Y012220D01*
X020675Y012220D01*
X020772Y012317D01*
X020772Y012607D01*
X020288Y012607D01*
X020191Y012511D01*
X020191Y012414D01*
X020288Y012000D02*
X020191Y011903D01*
X020191Y011806D01*
X020385Y011709D02*
X020385Y012000D01*
X020288Y012000D02*
X020772Y012000D01*
X020481Y011613D02*
X020385Y011709D01*
X020481Y011613D02*
X020772Y011613D01*
X020868Y011392D02*
X020675Y011392D01*
X020578Y011295D01*
X020578Y011005D01*
X020385Y011005D02*
X020965Y011005D01*
X020965Y011295D01*
X020868Y011392D01*
X020965Y015867D02*
X020385Y015867D01*
X020385Y016157D01*
X020481Y016254D01*
X020675Y016254D01*
X020772Y016157D01*
X020772Y015867D01*
X020772Y016474D02*
X020481Y016474D01*
X020385Y016571D01*
X020385Y016861D01*
X020772Y016861D01*
X020965Y017082D02*
X020965Y017179D01*
X020385Y017179D01*
X020385Y017082D02*
X020385Y017276D01*
X020481Y017487D02*
X020385Y017584D01*
X020385Y017874D01*
X020675Y017874D01*
X020772Y017778D01*
X020772Y017584D01*
X020578Y017584D02*
X020578Y017874D01*
X020578Y017584D02*
X020481Y017487D01*
X012205Y017655D02*
X012040Y017265D01*
X011965Y017235D01*
X011725Y017280D01*
X011635Y017265D01*
X011500Y017145D01*
X011485Y017055D01*
X011590Y016755D01*
X011560Y016680D01*
X011245Y016515D01*
X011155Y016515D01*
X010915Y016710D01*
X010840Y016725D01*
X010690Y016695D01*
X010615Y016395D01*
X010555Y016335D01*
X010195Y016380D01*
X010150Y016440D01*
X010090Y016695D01*
X010045Y016740D01*
X009835Y016800D01*
X009775Y016800D01*
X009580Y016620D01*
X009490Y016590D01*
X009220Y016785D01*
X009220Y016875D01*
X009295Y017130D01*
X009280Y017190D01*
X009100Y017355D01*
X008830Y017310D01*
X008740Y017340D01*
X008605Y017640D01*
X008650Y017730D01*
X008845Y017895D01*
X008815Y018105D01*
X008770Y018165D01*
X008575Y018270D01*
X008530Y018330D01*
X008560Y018690D01*
X008620Y018765D01*
X008905Y018825D01*
X008965Y018975D01*
X008950Y019020D01*
X008800Y019275D01*
X008800Y019380D01*
X009040Y019665D01*
X009250Y019665D01*
X009505Y019515D01*
X009640Y019605D01*
X009655Y020010D01*
X009715Y020055D01*
X010180Y020115D01*
X010300Y020040D01*
X010390Y019710D01*
X010435Y019650D01*
X010615Y019650D01*
X010660Y019710D01*
X010915Y019980D01*
X011020Y019980D01*
X011440Y019710D01*
X011455Y019605D01*
X011335Y019290D01*
X011350Y019215D01*
X011530Y019035D01*
X011620Y019035D01*
X011905Y019095D01*
X011995Y019065D01*
X012175Y018630D01*
X012175Y018495D01*
X011830Y018255D01*
X011800Y018210D01*
X011830Y017955D01*
X012145Y017775D01*
X012205Y017655D01*
X011395Y017925D02*
X011395Y018210D01*
X011380Y018300D01*
X011260Y018600D01*
X011170Y018735D01*
X011095Y018840D01*
X011020Y018915D01*
X010975Y018690D01*
X010945Y018600D01*
X010885Y018555D01*
X010840Y018555D01*
X010735Y018600D01*
X010750Y018435D01*
X010780Y018195D01*
X010810Y017910D01*
X010840Y017700D01*
X010900Y017610D01*
X010975Y017535D01*
X011065Y017490D01*
X011170Y017460D01*
X011230Y017535D01*
X011290Y017625D01*
X011350Y017745D01*
X011395Y017925D01*
X010255Y017670D02*
X010270Y017565D01*
X010285Y017445D01*
X010315Y017310D01*
X010345Y017220D01*
X010420Y017160D01*
X010270Y017160D01*
X009970Y017250D01*
X009805Y017355D01*
X009625Y017490D01*
X009505Y017640D01*
X009400Y017805D01*
X009340Y017940D01*
X009310Y018075D01*
X009295Y018240D01*
X009295Y018375D01*
X009295Y018240D02*
X009370Y018120D01*
X009460Y018000D01*
X009640Y017880D01*
X009910Y017775D01*
X010030Y017730D01*
X010210Y017715D01*
X010255Y017670D01*
X010165Y018240D02*
X010090Y018255D01*
X009970Y018330D01*
X009895Y018420D01*
X009880Y018570D01*
X009895Y018660D01*
X009955Y018735D01*
X010060Y018735D01*
X010105Y018690D01*
X010165Y018240D01*
X009580Y019005D02*
X009655Y019080D01*
X009760Y019155D01*
X010060Y019185D01*
X010510Y019170D01*
X010585Y019185D01*
X010360Y019275D01*
X010090Y019290D01*
X009850Y019230D01*
X009760Y019155D01*
D13*
X006760Y018805D02*
X006762Y018847D01*
X006768Y018888D01*
X006777Y018929D01*
X006791Y018968D01*
X006808Y019006D01*
X006829Y019042D01*
X006852Y019077D01*
X006879Y019108D01*
X006909Y019138D01*
X006942Y019164D01*
X006977Y019187D01*
X007013Y019207D01*
X007052Y019223D01*
X007092Y019235D01*
X007132Y019244D01*
X007174Y019249D01*
X007215Y019250D01*
X007257Y019247D01*
X007298Y019240D01*
X007339Y019229D01*
X007378Y019215D01*
X007415Y019197D01*
X007451Y019176D01*
X007485Y019151D01*
X007516Y019123D01*
X007544Y019093D01*
X007570Y019060D01*
X007592Y019024D01*
X007611Y018987D01*
X007626Y018948D01*
X007638Y018908D01*
X007646Y018867D01*
X007650Y018826D01*
X007650Y018784D01*
X007646Y018743D01*
X007638Y018702D01*
X007626Y018662D01*
X007611Y018623D01*
X007592Y018586D01*
X007570Y018550D01*
X007544Y018517D01*
X007516Y018487D01*
X007485Y018459D01*
X007451Y018434D01*
X007415Y018413D01*
X007378Y018395D01*
X007339Y018381D01*
X007298Y018370D01*
X007257Y018363D01*
X007215Y018360D01*
X007174Y018361D01*
X007132Y018366D01*
X007092Y018375D01*
X007052Y018387D01*
X007013Y018403D01*
X006977Y018423D01*
X006942Y018446D01*
X006909Y018472D01*
X006879Y018502D01*
X006852Y018533D01*
X006829Y018568D01*
X006808Y018604D01*
X006791Y018642D01*
X006777Y018681D01*
X006768Y018722D01*
X006762Y018763D01*
X006760Y018805D01*
X006760Y009605D02*
X006762Y009647D01*
X006768Y009688D01*
X006777Y009729D01*
X006791Y009768D01*
X006808Y009806D01*
X006829Y009842D01*
X006852Y009877D01*
X006879Y009908D01*
X006909Y009938D01*
X006942Y009964D01*
X006977Y009987D01*
X007013Y010007D01*
X007052Y010023D01*
X007092Y010035D01*
X007132Y010044D01*
X007174Y010049D01*
X007215Y010050D01*
X007257Y010047D01*
X007298Y010040D01*
X007339Y010029D01*
X007378Y010015D01*
X007415Y009997D01*
X007451Y009976D01*
X007485Y009951D01*
X007516Y009923D01*
X007544Y009893D01*
X007570Y009860D01*
X007592Y009824D01*
X007611Y009787D01*
X007626Y009748D01*
X007638Y009708D01*
X007646Y009667D01*
X007650Y009626D01*
X007650Y009584D01*
X007646Y009543D01*
X007638Y009502D01*
X007626Y009462D01*
X007611Y009423D01*
X007592Y009386D01*
X007570Y009350D01*
X007544Y009317D01*
X007516Y009287D01*
X007485Y009259D01*
X007451Y009234D01*
X007415Y009213D01*
X007378Y009195D01*
X007339Y009181D01*
X007298Y009170D01*
X007257Y009163D01*
X007215Y009160D01*
X007174Y009161D01*
X007132Y009166D01*
X007092Y009175D01*
X007052Y009187D01*
X007013Y009203D01*
X006977Y009223D01*
X006942Y009246D01*
X006909Y009272D01*
X006879Y009302D01*
X006852Y009333D01*
X006829Y009368D01*
X006808Y009404D01*
X006791Y009442D01*
X006777Y009481D01*
X006768Y009522D01*
X006762Y009563D01*
X006760Y009605D01*
X019260Y009605D02*
X019262Y009647D01*
X019268Y009688D01*
X019277Y009729D01*
X019291Y009768D01*
X019308Y009806D01*
X019329Y009842D01*
X019352Y009877D01*
X019379Y009908D01*
X019409Y009938D01*
X019442Y009964D01*
X019477Y009987D01*
X019513Y010007D01*
X019552Y010023D01*
X019592Y010035D01*
X019632Y010044D01*
X019674Y010049D01*
X019715Y010050D01*
X019757Y010047D01*
X019798Y010040D01*
X019839Y010029D01*
X019878Y010015D01*
X019915Y009997D01*
X019951Y009976D01*
X019985Y009951D01*
X020016Y009923D01*
X020044Y009893D01*
X020070Y009860D01*
X020092Y009824D01*
X020111Y009787D01*
X020126Y009748D01*
X020138Y009708D01*
X020146Y009667D01*
X020150Y009626D01*
X020150Y009584D01*
X020146Y009543D01*
X020138Y009502D01*
X020126Y009462D01*
X020111Y009423D01*
X020092Y009386D01*
X020070Y009350D01*
X020044Y009317D01*
X020016Y009287D01*
X019985Y009259D01*
X019951Y009234D01*
X019915Y009213D01*
X019878Y009195D01*
X019839Y009181D01*
X019798Y009170D01*
X019757Y009163D01*
X019715Y009160D01*
X019674Y009161D01*
X019632Y009166D01*
X019592Y009175D01*
X019552Y009187D01*
X019513Y009203D01*
X019477Y009223D01*
X019442Y009246D01*
X019409Y009272D01*
X019379Y009302D01*
X019352Y009333D01*
X019329Y009368D01*
X019308Y009404D01*
X019291Y009442D01*
X019277Y009481D01*
X019268Y009522D01*
X019262Y009563D01*
X019260Y009605D01*
X019260Y018805D02*
X019262Y018847D01*
X019268Y018888D01*
X019277Y018929D01*
X019291Y018968D01*
X019308Y019006D01*
X019329Y019042D01*
X019352Y019077D01*
X019379Y019108D01*
X019409Y019138D01*
X019442Y019164D01*
X019477Y019187D01*
X019513Y019207D01*
X019552Y019223D01*
X019592Y019235D01*
X019632Y019244D01*
X019674Y019249D01*
X019715Y019250D01*
X019757Y019247D01*
X019798Y019240D01*
X019839Y019229D01*
X019878Y019215D01*
X019915Y019197D01*
X019951Y019176D01*
X019985Y019151D01*
X020016Y019123D01*
X020044Y019093D01*
X020070Y019060D01*
X020092Y019024D01*
X020111Y018987D01*
X020126Y018948D01*
X020138Y018908D01*
X020146Y018867D01*
X020150Y018826D01*
X020150Y018784D01*
X020146Y018743D01*
X020138Y018702D01*
X020126Y018662D01*
X020111Y018623D01*
X020092Y018586D01*
X020070Y018550D01*
X020044Y018517D01*
X020016Y018487D01*
X019985Y018459D01*
X019951Y018434D01*
X019915Y018413D01*
X019878Y018395D01*
X019839Y018381D01*
X019798Y018370D01*
X019757Y018363D01*
X019715Y018360D01*
X019674Y018361D01*
X019632Y018366D01*
X019592Y018375D01*
X019552Y018387D01*
X019513Y018403D01*
X019477Y018423D01*
X019442Y018446D01*
X019409Y018472D01*
X019379Y018502D01*
X019352Y018533D01*
X019329Y018568D01*
X019308Y018604D01*
X019291Y018642D01*
X019277Y018681D01*
X019268Y018722D01*
X019262Y018763D01*
X019260Y018805D01*
D14*
X017945Y008906D02*
X018209Y008529D01*
X018084Y008441D02*
X018335Y008617D01*
X018159Y008869D02*
X017945Y008906D01*
X017693Y008636D02*
X017586Y008655D01*
X017460Y008567D01*
X017441Y008460D01*
X017869Y008384D01*
X017850Y008277D01*
X017724Y008189D01*
X017617Y008208D01*
X017441Y008460D01*
X017270Y008340D02*
X017164Y008359D01*
X017038Y008271D01*
X017019Y008164D01*
X017446Y008089D01*
X017428Y007982D01*
X017302Y007894D01*
X017195Y007912D01*
X017019Y008164D01*
X016848Y008044D02*
X016741Y008063D01*
X016615Y007975D01*
X016597Y007868D01*
X017024Y007793D01*
X017005Y007686D01*
X016880Y007598D01*
X016773Y007617D01*
X016597Y007868D01*
X016470Y007686D02*
X016407Y007641D01*
X016388Y007535D01*
X016281Y007554D01*
X016262Y007447D01*
X016394Y007258D01*
X016520Y007346D02*
X016388Y007535D01*
X016470Y007686D02*
X016646Y007434D01*
X016664Y007179D02*
X016840Y006927D01*
X017054Y006890D01*
X017091Y007104D01*
X016915Y007355D01*
X017086Y007475D02*
X017130Y007412D01*
X017558Y007336D01*
X017602Y007274D01*
X017750Y007377D02*
X017706Y007440D01*
X017769Y007484D01*
X017813Y007421D01*
X017750Y007377D01*
X017940Y007604D02*
X018047Y007585D01*
X018172Y007673D01*
X018191Y007780D01*
X017977Y007818D02*
X017915Y007774D01*
X017896Y007667D01*
X017940Y007604D01*
X017915Y007774D02*
X017808Y007793D01*
X017764Y007855D01*
X017783Y007962D01*
X017908Y008050D01*
X018015Y008031D01*
X017446Y008089D02*
X017270Y008340D01*
X016848Y008044D02*
X017024Y007793D01*
X017086Y007475D02*
X017338Y007651D01*
X017869Y008384D02*
X017693Y008636D01*
X016047Y007390D02*
X015834Y007427D01*
X015796Y007214D01*
X015972Y006962D01*
X016071Y006763D02*
X016335Y006386D01*
X016083Y006210D01*
X015912Y006090D02*
X015786Y006002D01*
X015849Y006046D02*
X015673Y006298D01*
X015736Y006342D01*
X015585Y006424D02*
X015541Y006486D01*
X015379Y006547D02*
X015115Y006924D01*
X015077Y006710D01*
X014863Y006748D01*
X015127Y006371D01*
X014912Y006314D02*
X014805Y006333D01*
X014617Y006201D01*
X014573Y006263D02*
X014705Y006075D01*
X014893Y006207D01*
X014912Y006314D01*
X014717Y006458D02*
X014592Y006370D01*
X014573Y006263D01*
X014358Y006207D02*
X014282Y005779D01*
X014534Y005955D02*
X014106Y006031D01*
X014844Y005717D02*
X014969Y005805D01*
X015076Y005786D01*
X015164Y005660D01*
X015145Y005554D01*
X015020Y005465D01*
X014913Y005484D01*
X014825Y005610D01*
X014844Y005717D01*
X015247Y005906D02*
X015354Y005887D01*
X015543Y006019D01*
X015631Y005893D02*
X015367Y006270D01*
X015178Y006138D01*
X015159Y006031D01*
X015247Y005906D01*
X015840Y007151D02*
X016091Y007327D01*
X016047Y007390D02*
X016223Y007138D01*
D15*
X008960Y007048D02*
X008914Y007146D01*
X008991Y007363D01*
X009425Y007209D01*
X009348Y006992D01*
X009250Y006945D01*
X008960Y007048D01*
X008608Y007314D02*
X008506Y007278D01*
X008230Y007413D01*
X008195Y007515D01*
X008296Y007722D01*
X008709Y007520D01*
X008608Y007314D01*
X009043Y007508D02*
X009476Y007353D01*
X009146Y007797D01*
X009579Y007643D01*
X009558Y007813D02*
X009414Y007864D01*
X009465Y008009D01*
X009372Y008205D02*
X009661Y008102D01*
X009708Y008004D01*
X009656Y007859D01*
X009558Y007813D01*
X009269Y007916D02*
X009223Y008014D01*
X009274Y008158D01*
X009372Y008205D01*
X009079Y008279D02*
X009044Y008382D01*
X008768Y008516D01*
X008666Y008481D01*
X008598Y008343D01*
X008634Y008240D01*
X008771Y008173D02*
X008839Y008311D01*
X008771Y008173D02*
X008909Y008106D01*
X009012Y008141D01*
X009079Y008279D01*
X008911Y007934D02*
X008497Y008136D01*
X008777Y007658D01*
X008363Y007860D01*
X008108Y008019D02*
X007720Y008266D01*
X007637Y008136D02*
X007514Y007942D01*
X007538Y007836D01*
X007797Y007672D01*
X007903Y007695D01*
X008026Y007890D01*
X007637Y008136D01*
X007325Y008347D02*
X007265Y008395D01*
X006834Y008349D01*
X006774Y008397D01*
X006966Y008636D01*
X007182Y008659D02*
X007421Y008467D01*
X007242Y008611D02*
X007434Y008850D01*
X007374Y008899D02*
X007158Y008875D01*
X007182Y008659D01*
X007374Y008899D02*
X007613Y008706D01*
X007884Y008525D02*
X008108Y008019D01*
X008273Y008278D02*
X007884Y008525D01*
X008031Y008613D02*
X008007Y008719D01*
X008090Y008849D01*
X008195Y008873D01*
X008455Y008708D01*
X008478Y008602D01*
X008396Y008473D01*
X008290Y008449D01*
X008161Y008531D01*
X008243Y008661D01*
X006952Y009249D02*
X006736Y009467D01*
X006519Y009468D01*
X006518Y009251D01*
X006734Y009033D01*
X006571Y008979D02*
X006571Y008871D01*
X006462Y008762D01*
X006354Y008763D01*
X006300Y008817D01*
X006300Y008926D01*
X006463Y009088D01*
X006571Y008979D01*
X006463Y009088D02*
X006246Y009089D01*
X006083Y009035D01*
X005788Y009352D02*
X006028Y009542D01*
X005908Y009447D02*
X005622Y009808D01*
X005838Y009783D01*
X005958Y009878D02*
X006148Y009638D01*
X006005Y009818D02*
X006246Y010009D01*
X006198Y010069D02*
X005983Y010094D01*
X005958Y009878D01*
X006198Y010069D02*
X006389Y009828D01*
X006629Y010019D02*
X006343Y010380D01*
X006464Y010475D02*
X006223Y010284D01*
X006103Y010638D02*
X005859Y011028D01*
X005989Y011110D02*
X005729Y010947D01*
X005680Y010735D02*
X005469Y010784D01*
X005420Y010573D01*
X005583Y010313D01*
X005412Y010296D02*
X005249Y010557D01*
X005144Y010581D01*
X005014Y010500D01*
X004989Y010394D01*
X005412Y010296D01*
X005388Y010191D01*
X005257Y010109D01*
X005152Y010134D01*
X004989Y010394D01*
X004713Y010780D02*
X004989Y010912D01*
X004580Y011056D01*
X004547Y011126D01*
X004583Y011228D01*
X004721Y011294D01*
X004824Y011258D01*
X004962Y011325D02*
X004998Y011427D01*
X005136Y011493D01*
X005239Y011457D01*
X005371Y011180D01*
X005335Y011078D01*
X005197Y011012D01*
X005095Y011048D01*
X005444Y011385D02*
X005720Y011518D01*
X005687Y011587D02*
X005482Y011659D01*
X005410Y011454D01*
X005543Y011178D01*
X005820Y011310D02*
X005687Y011587D01*
X005792Y011723D02*
X005828Y011825D01*
X006036Y011924D01*
X006235Y011509D01*
X006027Y011410D01*
X005925Y011446D01*
X005792Y011723D01*
X005706Y011955D02*
X005608Y012002D01*
X005507Y012292D01*
X005554Y012390D01*
X005771Y012465D01*
X005923Y012031D01*
X005706Y011955D01*
X005488Y011879D02*
X005387Y012169D01*
X005192Y012264D01*
X005097Y012068D01*
X005198Y011778D01*
X005028Y011800D02*
X004927Y012090D01*
X004830Y012137D01*
X004685Y012087D01*
X004637Y011989D01*
X004518Y011866D02*
X004322Y011961D01*
X004474Y011526D01*
X004619Y011576D02*
X004329Y011476D01*
X004738Y011699D02*
X004836Y011652D01*
X004981Y011703D01*
X005028Y011800D01*
X005123Y011996D02*
X005412Y012097D01*
X005248Y012548D02*
X005146Y012997D01*
X004922Y012946D01*
X004864Y012855D01*
X004898Y012705D01*
X004990Y012647D01*
X005214Y012698D01*
X005065Y012664D02*
X004949Y012480D01*
X004800Y012446D02*
X004398Y012827D01*
X004266Y012719D02*
X004174Y012776D01*
X004024Y012742D01*
X003966Y012651D01*
X003983Y012576D01*
X004351Y012344D01*
X004051Y012276D01*
X004500Y012378D02*
X004698Y012895D01*
X004319Y013194D02*
X004572Y013686D01*
X004725Y013703D02*
X005030Y013737D01*
X004877Y013720D02*
X004929Y013263D01*
X004623Y013228D02*
X004267Y013652D01*
X004123Y013558D02*
X004038Y013626D01*
X003886Y013609D01*
X003818Y013524D01*
X003827Y013448D01*
X004166Y013177D01*
X003861Y013143D01*
X003875Y013975D02*
X004028Y013975D01*
X004105Y014052D01*
X004105Y014205D02*
X003952Y014282D01*
X003875Y014282D01*
X003798Y014205D01*
X003798Y014052D01*
X003875Y013975D01*
X004105Y014205D02*
X004105Y014435D01*
X003798Y014435D01*
X004259Y014282D02*
X004259Y013975D01*
X004259Y014205D02*
X004565Y014205D01*
X004565Y014282D02*
X004565Y013975D01*
X004565Y014282D02*
X004412Y014435D01*
X004259Y014282D01*
X004291Y014802D02*
X004326Y015107D01*
X004495Y015242D01*
X004631Y015073D01*
X004596Y014768D01*
X004622Y014996D02*
X004317Y015031D01*
X004165Y015048D02*
X003860Y015082D01*
X003910Y014845D02*
X003961Y015302D01*
X004165Y015048D01*
X004183Y015616D02*
X004034Y015650D01*
X003976Y015742D01*
X004044Y016041D01*
X004275Y015674D01*
X004183Y015616D01*
X004275Y015674D02*
X004343Y015973D01*
X004285Y016065D01*
X004135Y016099D01*
X004044Y016041D01*
X004213Y016468D02*
X004503Y016367D01*
X004358Y016417D02*
X004509Y016852D01*
X004604Y016657D01*
X004774Y016679D02*
X004673Y016389D01*
X004720Y016291D01*
X004938Y016215D01*
X005089Y016650D01*
X004872Y016726D01*
X004774Y016679D01*
X005042Y016972D02*
X005006Y017075D01*
X005139Y017351D01*
X005241Y017388D01*
X005449Y017288D01*
X005250Y016873D01*
X005042Y016972D01*
X004835Y017072D02*
X004558Y017204D01*
X004835Y017072D02*
X004690Y017481D01*
X004724Y017550D01*
X004826Y017586D01*
X004964Y017520D01*
X005000Y017418D01*
X005419Y017663D02*
X005395Y017768D01*
X005557Y018029D01*
X005663Y018053D01*
X005858Y017931D01*
X005614Y017541D01*
X005419Y017663D01*
X005265Y017850D02*
X005159Y017825D01*
X005029Y017906D01*
X005004Y018012D01*
X005045Y018077D01*
X005151Y018102D01*
X005216Y018061D01*
X005151Y018102D02*
X005126Y018207D01*
X005167Y018273D01*
X005273Y018297D01*
X005403Y018216D01*
X005427Y018110D01*
X005672Y018523D02*
X005779Y018535D01*
X005672Y018523D02*
X005551Y018618D01*
X005539Y018726D01*
X005587Y018786D01*
X005694Y018799D01*
X005755Y018751D01*
X005694Y018799D02*
X005682Y018906D01*
X005730Y018967D01*
X005837Y018979D01*
X005958Y018884D01*
X005970Y018776D01*
X006043Y018620D02*
X005852Y018380D01*
X005995Y018560D02*
X006236Y018370D01*
X006283Y018430D02*
X006258Y018645D01*
X006043Y018620D01*
X006283Y018430D02*
X006093Y018189D01*
X006596Y018780D02*
X006812Y018997D01*
X006811Y019214D01*
X006594Y019214D01*
X006378Y018996D01*
X006269Y019104D02*
X006268Y019538D01*
X006322Y019593D01*
X006430Y019593D01*
X006539Y019485D01*
X006539Y019376D01*
X006540Y019159D02*
X006758Y018943D01*
X006269Y019104D02*
X006051Y019320D01*
X006744Y019980D02*
X006937Y019741D01*
X007033Y019621D02*
X007272Y019814D01*
X007488Y019790D01*
X007464Y019575D01*
X007225Y019382D01*
X007404Y019526D02*
X007212Y019766D01*
X007176Y019933D02*
X007199Y020149D01*
X006841Y019861D01*
X007554Y020311D02*
X007472Y020440D01*
X007496Y020546D01*
X007755Y020711D01*
X007660Y020287D01*
X007554Y020311D01*
X007660Y020287D02*
X007919Y020451D01*
X007943Y020557D01*
X007861Y020687D01*
X007755Y020711D01*
X008146Y020876D02*
X008213Y020738D01*
X008315Y020702D01*
X008386Y020908D02*
X008352Y020976D01*
X008250Y021012D01*
X008181Y020978D01*
X008146Y020876D01*
X008352Y020976D02*
X008388Y021079D01*
X008457Y021113D01*
X008559Y021077D01*
X008627Y020939D01*
X008591Y020837D01*
X008727Y020733D02*
X008862Y020457D01*
X008795Y020595D02*
X008381Y020393D01*
X008149Y020233D02*
X007937Y020281D01*
X007678Y020116D01*
X007872Y020240D02*
X008036Y019981D01*
X008101Y020022D02*
X008149Y020233D01*
X008101Y020022D02*
X007842Y019857D01*
X009043Y020750D02*
X009477Y020904D01*
X009528Y020760D02*
X009426Y021049D01*
X009302Y021168D02*
X009348Y021266D01*
X009297Y021410D01*
X009199Y021457D01*
X009127Y021431D01*
X008940Y021039D01*
X008837Y021328D01*
X009603Y021506D02*
X010051Y021611D01*
X009937Y021427D01*
X010121Y021312D02*
X010191Y021014D01*
X010156Y021163D02*
X009708Y021058D01*
X009638Y021357D02*
X009568Y021655D01*
X010471Y021697D02*
X010556Y021630D01*
X010825Y021971D01*
X010520Y021935D01*
X010453Y021849D01*
X010471Y021697D01*
X010556Y021630D02*
X010861Y021666D01*
X010928Y021751D01*
X010910Y021904D01*
X010825Y021971D01*
X010956Y021523D02*
X010992Y021218D01*
X010974Y021371D02*
X010517Y021316D01*
X011325Y021344D02*
X011785Y021651D01*
X011632Y021805D02*
X011785Y021958D01*
X011325Y021958D01*
X011325Y021805D02*
X011325Y022111D01*
X011325Y021651D02*
X011785Y021344D01*
X011708Y021191D02*
X011555Y021191D01*
X011478Y021114D01*
X011478Y020884D01*
X011325Y020884D02*
X011785Y020884D01*
X011785Y021114D01*
X011708Y021191D01*
X011478Y021037D02*
X011325Y021191D01*
X012275Y021067D02*
X012735Y021067D01*
X012735Y020914D02*
X012735Y021221D01*
X012735Y021374D02*
X012275Y021681D01*
X012275Y021835D02*
X012275Y022141D01*
X012275Y021988D02*
X012735Y021988D01*
X012582Y021835D01*
X012735Y021681D02*
X012275Y021374D01*
X013225Y021401D02*
X013225Y021554D01*
X013301Y021631D01*
X013301Y021785D02*
X013225Y021861D01*
X013225Y022015D01*
X013301Y022091D01*
X013608Y022091D01*
X013685Y022015D01*
X013685Y021861D01*
X013608Y021785D01*
X013301Y021785D01*
X013608Y021631D02*
X013685Y021554D01*
X013685Y021401D01*
X013608Y021324D01*
X013301Y021324D01*
X013225Y021401D01*
X013225Y021171D02*
X013685Y021171D01*
X013532Y021017D01*
X013685Y020864D01*
X013225Y020864D01*
X004809Y015946D02*
X004584Y015997D01*
X004493Y015939D01*
X004425Y015640D01*
X004482Y015548D01*
X004707Y015497D01*
X004809Y015946D01*
X005680Y010735D02*
X005843Y010475D01*
X005721Y010670D02*
X005461Y010508D01*
X006572Y009196D02*
X006790Y009412D01*
X009810Y007527D02*
X009739Y007229D01*
X009704Y007079D02*
X010003Y007009D01*
X010118Y006825D01*
X009933Y006710D01*
X009634Y006780D01*
X009964Y007176D02*
X010113Y007141D01*
X010205Y007198D01*
X010240Y007348D01*
X010183Y007440D01*
X010034Y007475D02*
X009924Y007343D01*
X009906Y007268D01*
X009964Y007176D01*
X010034Y007475D02*
X009810Y007527D01*
X010535Y006982D02*
X010992Y006928D01*
X010571Y007287D01*
X011028Y007233D01*
X010970Y007394D02*
X010818Y007412D01*
X010836Y007565D01*
X010702Y007735D02*
X011006Y007699D01*
X011074Y007614D01*
X011055Y007461D01*
X010970Y007394D01*
X010665Y007430D02*
X010598Y007516D01*
X010616Y007668D01*
X010702Y007735D01*
X011325Y007549D02*
X011478Y007703D01*
X011785Y007703D01*
X011785Y007396D02*
X011478Y007396D01*
X011325Y007549D01*
X011401Y007242D02*
X011325Y007166D01*
X011325Y007012D01*
X011401Y006936D01*
X011401Y006782D02*
X011325Y006782D01*
X011325Y006705D01*
X011401Y006705D01*
X011401Y006782D01*
X011401Y006552D02*
X011325Y006475D01*
X011325Y006322D01*
X011401Y006245D01*
X011555Y006398D02*
X011555Y006475D01*
X011478Y006552D01*
X011401Y006552D01*
X011555Y006475D02*
X011632Y006552D01*
X011708Y006552D01*
X011785Y006475D01*
X011785Y006322D01*
X011708Y006245D01*
X012275Y006232D02*
X012275Y006385D01*
X012351Y006462D01*
X012505Y006462D01*
X012505Y006308D01*
X012658Y006155D02*
X012351Y006155D01*
X012275Y006232D01*
X012658Y006155D02*
X012735Y006232D01*
X012735Y006385D01*
X012658Y006462D01*
X012735Y006615D02*
X012275Y006615D01*
X012275Y006922D02*
X012735Y006922D01*
X012735Y007076D02*
X012735Y007306D01*
X012658Y007383D01*
X012351Y007383D01*
X012275Y007306D01*
X012275Y007076D01*
X012735Y007076D01*
X012735Y006615D02*
X012275Y006922D01*
X011785Y007012D02*
X011785Y007166D01*
X011708Y007242D01*
X011632Y007242D01*
X011555Y007166D01*
X011478Y007242D01*
X011401Y007242D01*
X011555Y007166D02*
X011555Y007089D01*
X011708Y006936D02*
X011785Y007012D01*
X010974Y006775D02*
X010946Y006547D01*
X010861Y006480D01*
X010556Y006516D01*
X010489Y006601D01*
X010516Y006830D01*
X010974Y006775D01*
X013205Y006922D02*
X013512Y006922D01*
X013665Y006769D01*
X013512Y006615D01*
X013205Y006615D01*
X013281Y006462D02*
X013205Y006385D01*
X013205Y006155D01*
X013665Y006155D01*
X013665Y006385D01*
X013588Y006462D01*
X013512Y006462D01*
X013435Y006385D01*
X013435Y006155D01*
X013435Y006385D02*
X013358Y006462D01*
X013281Y006462D01*
X013435Y006615D02*
X013435Y006922D01*
X013665Y007076D02*
X013665Y007383D01*
X013665Y007229D02*
X013205Y007229D01*
M02*
