G75*
G70*
%OFA0B0*%
%FSLAX24Y24*%
%IPPOS*%
%LPD*%
%AMOC8*
5,1,8,0,0,1.08239X$1,22.5*
%
%ADD10C,0.0001*%
%ADD11C,0.0000*%
%ADD12C,0.0080*%
%ADD13C,0.0120*%
%ADD14C,0.0100*%
D10*
X001555Y014205D02*
X001567Y014698D01*
X001603Y015190D01*
X001664Y015680D01*
X001748Y016166D01*
X001856Y016647D01*
X001988Y017122D01*
X002142Y017591D01*
X002320Y018051D01*
X002520Y018502D01*
X002742Y018943D01*
X002985Y019372D01*
X003249Y019788D01*
X003533Y020192D01*
X003836Y020581D01*
X004158Y020954D01*
X004499Y021311D01*
X004856Y021652D01*
X005229Y021974D01*
X005618Y022277D01*
X006022Y022561D01*
X006438Y022825D01*
X006867Y023068D01*
X007308Y023290D01*
X007759Y023490D01*
X008219Y023668D01*
X008688Y023822D01*
X009163Y023954D01*
X009644Y024062D01*
X010130Y024146D01*
X010620Y024207D01*
X011112Y024243D01*
X011605Y024255D01*
X012098Y024243D01*
X012590Y024207D01*
X013080Y024146D01*
X013566Y024062D01*
X014047Y023954D01*
X014522Y023822D01*
X014991Y023668D01*
X015451Y023490D01*
X015902Y023290D01*
X016343Y023068D01*
X016772Y022825D01*
X017188Y022561D01*
X017592Y022277D01*
X017981Y021974D01*
X018354Y021652D01*
X018711Y021311D01*
X019052Y020954D01*
X019374Y020581D01*
X019677Y020192D01*
X019961Y019788D01*
X020225Y019372D01*
X020468Y018943D01*
X020690Y018502D01*
X020890Y018051D01*
X021068Y017591D01*
X021222Y017122D01*
X021354Y016647D01*
X021462Y016166D01*
X021546Y015680D01*
X021607Y015190D01*
X021643Y014698D01*
X021655Y014205D01*
X021643Y013712D01*
X021607Y013220D01*
X021546Y012730D01*
X021462Y012244D01*
X021354Y011763D01*
X021222Y011288D01*
X021068Y010819D01*
X020890Y010359D01*
X020690Y009908D01*
X020468Y009467D01*
X020225Y009038D01*
X019961Y008622D01*
X019677Y008218D01*
X019374Y007829D01*
X019052Y007456D01*
X018711Y007099D01*
X018354Y006758D01*
X017981Y006436D01*
X017592Y006133D01*
X017188Y005849D01*
X016772Y005585D01*
X016343Y005342D01*
X015902Y005120D01*
X015451Y004920D01*
X014991Y004742D01*
X014522Y004588D01*
X014047Y004456D01*
X013566Y004348D01*
X013080Y004264D01*
X012590Y004203D01*
X012098Y004167D01*
X011605Y004155D01*
X011112Y004167D01*
X010620Y004203D01*
X010130Y004264D01*
X009644Y004348D01*
X009163Y004456D01*
X008688Y004588D01*
X008219Y004742D01*
X007759Y004920D01*
X007308Y005120D01*
X006867Y005342D01*
X006438Y005585D01*
X006022Y005849D01*
X005618Y006133D01*
X005229Y006436D01*
X004856Y006758D01*
X004499Y007099D01*
X004158Y007456D01*
X003836Y007829D01*
X003533Y008218D01*
X003249Y008622D01*
X002985Y009038D01*
X002742Y009467D01*
X002520Y009908D01*
X002320Y010359D01*
X002142Y010819D01*
X001988Y011288D01*
X001856Y011763D01*
X001748Y012244D01*
X001664Y012730D01*
X001603Y013220D01*
X001567Y013712D01*
X001555Y014205D01*
D11*
X006760Y009605D02*
X006762Y009647D01*
X006768Y009688D01*
X006777Y009729D01*
X006791Y009768D01*
X006808Y009806D01*
X006829Y009842D01*
X006852Y009877D01*
X006879Y009908D01*
X006909Y009938D01*
X006942Y009964D01*
X006977Y009987D01*
X007013Y010007D01*
X007052Y010023D01*
X007092Y010035D01*
X007132Y010044D01*
X007174Y010049D01*
X007215Y010050D01*
X007257Y010047D01*
X007298Y010040D01*
X007339Y010029D01*
X007378Y010015D01*
X007415Y009997D01*
X007451Y009976D01*
X007485Y009951D01*
X007516Y009923D01*
X007544Y009893D01*
X007570Y009860D01*
X007592Y009824D01*
X007611Y009787D01*
X007626Y009748D01*
X007638Y009708D01*
X007646Y009667D01*
X007650Y009626D01*
X007650Y009584D01*
X007646Y009543D01*
X007638Y009502D01*
X007626Y009462D01*
X007611Y009423D01*
X007592Y009386D01*
X007570Y009350D01*
X007544Y009317D01*
X007516Y009287D01*
X007485Y009259D01*
X007451Y009234D01*
X007415Y009213D01*
X007378Y009195D01*
X007339Y009181D01*
X007298Y009170D01*
X007257Y009163D01*
X007215Y009160D01*
X007174Y009161D01*
X007132Y009166D01*
X007092Y009175D01*
X007052Y009187D01*
X007013Y009203D01*
X006977Y009223D01*
X006942Y009246D01*
X006909Y009272D01*
X006879Y009302D01*
X006852Y009333D01*
X006829Y009368D01*
X006808Y009404D01*
X006791Y009442D01*
X006777Y009481D01*
X006768Y009522D01*
X006762Y009563D01*
X006760Y009605D01*
X006760Y018805D02*
X006762Y018847D01*
X006768Y018888D01*
X006777Y018929D01*
X006791Y018968D01*
X006808Y019006D01*
X006829Y019042D01*
X006852Y019077D01*
X006879Y019108D01*
X006909Y019138D01*
X006942Y019164D01*
X006977Y019187D01*
X007013Y019207D01*
X007052Y019223D01*
X007092Y019235D01*
X007132Y019244D01*
X007174Y019249D01*
X007215Y019250D01*
X007257Y019247D01*
X007298Y019240D01*
X007339Y019229D01*
X007378Y019215D01*
X007415Y019197D01*
X007451Y019176D01*
X007485Y019151D01*
X007516Y019123D01*
X007544Y019093D01*
X007570Y019060D01*
X007592Y019024D01*
X007611Y018987D01*
X007626Y018948D01*
X007638Y018908D01*
X007646Y018867D01*
X007650Y018826D01*
X007650Y018784D01*
X007646Y018743D01*
X007638Y018702D01*
X007626Y018662D01*
X007611Y018623D01*
X007592Y018586D01*
X007570Y018550D01*
X007544Y018517D01*
X007516Y018487D01*
X007485Y018459D01*
X007451Y018434D01*
X007415Y018413D01*
X007378Y018395D01*
X007339Y018381D01*
X007298Y018370D01*
X007257Y018363D01*
X007215Y018360D01*
X007174Y018361D01*
X007132Y018366D01*
X007092Y018375D01*
X007052Y018387D01*
X007013Y018403D01*
X006977Y018423D01*
X006942Y018446D01*
X006909Y018472D01*
X006879Y018502D01*
X006852Y018533D01*
X006829Y018568D01*
X006808Y018604D01*
X006791Y018642D01*
X006777Y018681D01*
X006768Y018722D01*
X006762Y018763D01*
X006760Y018805D01*
X019260Y018805D02*
X019262Y018847D01*
X019268Y018888D01*
X019277Y018929D01*
X019291Y018968D01*
X019308Y019006D01*
X019329Y019042D01*
X019352Y019077D01*
X019379Y019108D01*
X019409Y019138D01*
X019442Y019164D01*
X019477Y019187D01*
X019513Y019207D01*
X019552Y019223D01*
X019592Y019235D01*
X019632Y019244D01*
X019674Y019249D01*
X019715Y019250D01*
X019757Y019247D01*
X019798Y019240D01*
X019839Y019229D01*
X019878Y019215D01*
X019915Y019197D01*
X019951Y019176D01*
X019985Y019151D01*
X020016Y019123D01*
X020044Y019093D01*
X020070Y019060D01*
X020092Y019024D01*
X020111Y018987D01*
X020126Y018948D01*
X020138Y018908D01*
X020146Y018867D01*
X020150Y018826D01*
X020150Y018784D01*
X020146Y018743D01*
X020138Y018702D01*
X020126Y018662D01*
X020111Y018623D01*
X020092Y018586D01*
X020070Y018550D01*
X020044Y018517D01*
X020016Y018487D01*
X019985Y018459D01*
X019951Y018434D01*
X019915Y018413D01*
X019878Y018395D01*
X019839Y018381D01*
X019798Y018370D01*
X019757Y018363D01*
X019715Y018360D01*
X019674Y018361D01*
X019632Y018366D01*
X019592Y018375D01*
X019552Y018387D01*
X019513Y018403D01*
X019477Y018423D01*
X019442Y018446D01*
X019409Y018472D01*
X019379Y018502D01*
X019352Y018533D01*
X019329Y018568D01*
X019308Y018604D01*
X019291Y018642D01*
X019277Y018681D01*
X019268Y018722D01*
X019262Y018763D01*
X019260Y018805D01*
X019260Y009605D02*
X019262Y009647D01*
X019268Y009688D01*
X019277Y009729D01*
X019291Y009768D01*
X019308Y009806D01*
X019329Y009842D01*
X019352Y009877D01*
X019379Y009908D01*
X019409Y009938D01*
X019442Y009964D01*
X019477Y009987D01*
X019513Y010007D01*
X019552Y010023D01*
X019592Y010035D01*
X019632Y010044D01*
X019674Y010049D01*
X019715Y010050D01*
X019757Y010047D01*
X019798Y010040D01*
X019839Y010029D01*
X019878Y010015D01*
X019915Y009997D01*
X019951Y009976D01*
X019985Y009951D01*
X020016Y009923D01*
X020044Y009893D01*
X020070Y009860D01*
X020092Y009824D01*
X020111Y009787D01*
X020126Y009748D01*
X020138Y009708D01*
X020146Y009667D01*
X020150Y009626D01*
X020150Y009584D01*
X020146Y009543D01*
X020138Y009502D01*
X020126Y009462D01*
X020111Y009423D01*
X020092Y009386D01*
X020070Y009350D01*
X020044Y009317D01*
X020016Y009287D01*
X019985Y009259D01*
X019951Y009234D01*
X019915Y009213D01*
X019878Y009195D01*
X019839Y009181D01*
X019798Y009170D01*
X019757Y009163D01*
X019715Y009160D01*
X019674Y009161D01*
X019632Y009166D01*
X019592Y009175D01*
X019552Y009187D01*
X019513Y009203D01*
X019477Y009223D01*
X019442Y009246D01*
X019409Y009272D01*
X019379Y009302D01*
X019352Y009333D01*
X019329Y009368D01*
X019308Y009404D01*
X019291Y009442D01*
X019277Y009481D01*
X019268Y009522D01*
X019262Y009563D01*
X019260Y009605D01*
D12*
X007505Y008005D02*
X007507Y008025D01*
X007513Y008043D01*
X007522Y008061D01*
X007534Y008076D01*
X007549Y008088D01*
X007567Y008097D01*
X007585Y008103D01*
X007605Y008105D01*
X007625Y008103D01*
X007643Y008097D01*
X007661Y008088D01*
X007676Y008076D01*
X007688Y008061D01*
X007697Y008043D01*
X007703Y008025D01*
X007705Y008005D01*
X007703Y007985D01*
X007697Y007967D01*
X007688Y007949D01*
X007676Y007934D01*
X007661Y007922D01*
X007643Y007913D01*
X007625Y007907D01*
X007605Y007905D01*
X007585Y007907D01*
X007567Y007913D01*
X007549Y007922D01*
X007534Y007934D01*
X007522Y007949D01*
X007513Y007967D01*
X007507Y007985D01*
X007505Y008005D01*
X007805Y008405D02*
X007807Y008425D01*
X007813Y008443D01*
X007822Y008461D01*
X007834Y008476D01*
X007849Y008488D01*
X007867Y008497D01*
X007885Y008503D01*
X007905Y008505D01*
X007925Y008503D01*
X007943Y008497D01*
X007961Y008488D01*
X007976Y008476D01*
X007988Y008461D01*
X007997Y008443D01*
X008003Y008425D01*
X008005Y008405D01*
X008003Y008385D01*
X007997Y008367D01*
X007988Y008349D01*
X007976Y008334D01*
X007961Y008322D01*
X007943Y008313D01*
X007925Y008307D01*
X007905Y008305D01*
X007885Y008307D01*
X007867Y008313D01*
X007849Y008322D01*
X007834Y008334D01*
X007822Y008349D01*
X007813Y008367D01*
X007807Y008385D01*
X007805Y008405D01*
X010705Y007605D02*
X010705Y007505D01*
X011305Y007505D01*
X011305Y007605D01*
X010705Y007605D01*
X011505Y007605D02*
X011505Y007505D01*
X012105Y007505D01*
X012105Y007605D01*
X011505Y007605D01*
X012305Y007105D02*
X012305Y007005D01*
X012905Y007005D01*
X012905Y007105D01*
X012305Y007105D01*
X013105Y007105D02*
X013105Y007005D01*
X013705Y007005D01*
X013705Y007105D01*
X013105Y007105D01*
X014105Y007805D02*
X014705Y007805D01*
X014405Y008105D02*
X014405Y007505D01*
X016105Y008805D02*
X016705Y008805D01*
X012105Y008405D02*
X012107Y008425D01*
X012113Y008443D01*
X012122Y008461D01*
X012134Y008476D01*
X012149Y008488D01*
X012167Y008497D01*
X012185Y008503D01*
X012205Y008505D01*
X012225Y008503D01*
X012243Y008497D01*
X012261Y008488D01*
X012276Y008476D01*
X012288Y008461D01*
X012297Y008443D01*
X012303Y008425D01*
X012305Y008405D01*
X012303Y008385D01*
X012297Y008367D01*
X012288Y008349D01*
X012276Y008334D01*
X012261Y008322D01*
X012243Y008313D01*
X012225Y008307D01*
X012205Y008305D01*
X012185Y008307D01*
X012167Y008313D01*
X012149Y008322D01*
X012134Y008334D01*
X012122Y008349D01*
X012113Y008367D01*
X012107Y008385D01*
X012105Y008405D01*
X013355Y013965D02*
X013357Y013985D01*
X013363Y014003D01*
X013372Y014021D01*
X013384Y014036D01*
X013399Y014048D01*
X013417Y014057D01*
X013435Y014063D01*
X013455Y014065D01*
X013475Y014063D01*
X013493Y014057D01*
X013511Y014048D01*
X013526Y014036D01*
X013538Y014021D01*
X013547Y014003D01*
X013553Y013985D01*
X013555Y013965D01*
X013553Y013945D01*
X013547Y013927D01*
X013538Y013909D01*
X013526Y013894D01*
X013511Y013882D01*
X013493Y013873D01*
X013475Y013867D01*
X013455Y013865D01*
X013435Y013867D01*
X013417Y013873D01*
X013399Y013882D01*
X013384Y013894D01*
X013372Y013909D01*
X013363Y013927D01*
X013357Y013945D01*
X013355Y013965D01*
X012455Y014855D02*
X012457Y014875D01*
X012463Y014893D01*
X012472Y014911D01*
X012484Y014926D01*
X012499Y014938D01*
X012517Y014947D01*
X012535Y014953D01*
X012555Y014955D01*
X012575Y014953D01*
X012593Y014947D01*
X012611Y014938D01*
X012626Y014926D01*
X012638Y014911D01*
X012647Y014893D01*
X012653Y014875D01*
X012655Y014855D01*
X012653Y014835D01*
X012647Y014817D01*
X012638Y014799D01*
X012626Y014784D01*
X012611Y014772D01*
X012593Y014763D01*
X012575Y014757D01*
X012555Y014755D01*
X012535Y014757D01*
X012517Y014763D01*
X012499Y014772D01*
X012484Y014784D01*
X012472Y014799D01*
X012463Y014817D01*
X012457Y014835D01*
X012455Y014855D01*
X014041Y017825D02*
X014043Y017850D01*
X014049Y017874D01*
X014058Y017898D01*
X014071Y017919D01*
X014087Y017939D01*
X014106Y017955D01*
X014127Y017969D01*
X014150Y017979D01*
X014174Y017986D01*
X014199Y017989D01*
X014224Y017988D01*
X014248Y017983D01*
X014272Y017975D01*
X014294Y017963D01*
X014314Y017947D01*
X014332Y017929D01*
X014346Y017909D01*
X014357Y017886D01*
X014365Y017862D01*
X014369Y017838D01*
X014369Y017812D01*
X014365Y017788D01*
X014357Y017764D01*
X014346Y017741D01*
X014332Y017721D01*
X014314Y017703D01*
X014294Y017687D01*
X014272Y017675D01*
X014248Y017667D01*
X014224Y017662D01*
X014199Y017661D01*
X014174Y017664D01*
X014150Y017671D01*
X014127Y017681D01*
X014106Y017695D01*
X014087Y017711D01*
X014071Y017731D01*
X014058Y017752D01*
X014049Y017776D01*
X014043Y017800D01*
X014041Y017825D01*
X012625Y019745D02*
X012365Y019745D01*
X012625Y019745D02*
X012625Y020005D01*
X012625Y021535D02*
X012625Y021795D01*
X012365Y021795D01*
X010835Y021795D02*
X010575Y021795D01*
X010575Y021535D01*
X010575Y020015D02*
X010575Y019745D01*
X010835Y019745D01*
D13*
X009575Y018355D02*
X009575Y016865D01*
X009555Y016845D01*
D14*
X007801Y014965D02*
X007803Y014986D01*
X007809Y015006D01*
X007818Y015025D01*
X007831Y015042D01*
X007846Y015056D01*
X007864Y015067D01*
X007884Y015075D01*
X007904Y015079D01*
X007926Y015079D01*
X007946Y015075D01*
X007966Y015067D01*
X007984Y015056D01*
X007999Y015042D01*
X008012Y015025D01*
X008021Y015006D01*
X008027Y014986D01*
X008029Y014965D01*
X008027Y014944D01*
X008021Y014924D01*
X008012Y014905D01*
X007999Y014888D01*
X007984Y014874D01*
X007966Y014863D01*
X007946Y014855D01*
X007926Y014851D01*
X007904Y014851D01*
X007884Y014855D01*
X007864Y014863D01*
X007846Y014874D01*
X007831Y014888D01*
X007818Y014905D01*
X007809Y014924D01*
X007803Y014944D01*
X007801Y014965D01*
X010289Y019585D02*
X010291Y019608D01*
X010297Y019630D01*
X010306Y019651D01*
X010319Y019670D01*
X010335Y019687D01*
X010354Y019701D01*
X010374Y019711D01*
X010396Y019718D01*
X010419Y019721D01*
X010442Y019720D01*
X010465Y019715D01*
X010486Y019706D01*
X010506Y019694D01*
X010523Y019679D01*
X010538Y019661D01*
X010549Y019641D01*
X010557Y019619D01*
X010561Y019597D01*
X010561Y019573D01*
X010557Y019551D01*
X010549Y019529D01*
X010538Y019509D01*
X010523Y019491D01*
X010506Y019476D01*
X010486Y019464D01*
X010465Y019455D01*
X010442Y019450D01*
X010419Y019449D01*
X010396Y019452D01*
X010374Y019459D01*
X010354Y019469D01*
X010335Y019483D01*
X010319Y019500D01*
X010306Y019519D01*
X010297Y019540D01*
X010291Y019562D01*
X010289Y019585D01*
X014352Y015095D02*
X014354Y015115D01*
X014360Y015134D01*
X014369Y015152D01*
X014382Y015168D01*
X014398Y015181D01*
X014416Y015190D01*
X014435Y015196D01*
X014455Y015198D01*
X014475Y015196D01*
X014494Y015190D01*
X014512Y015181D01*
X014528Y015168D01*
X014541Y015152D01*
X014550Y015134D01*
X014556Y015115D01*
X014558Y015095D01*
X014556Y015075D01*
X014550Y015056D01*
X014541Y015038D01*
X014528Y015022D01*
X014512Y015009D01*
X014494Y015000D01*
X014475Y014994D01*
X014455Y014992D01*
X014435Y014994D01*
X014416Y015000D01*
X014398Y015009D01*
X014382Y015022D01*
X014369Y015038D01*
X014360Y015056D01*
X014354Y015075D01*
X014352Y015095D01*
M02*
