%
M48
M72
T01C0.0150
T02C0.0315
%
T01
X9564Y8407
X11484Y6967
X13164Y7207
X13164Y7607
X13894Y8257
X14764Y7767
X15404Y7207
X15724Y7527
X16044Y7847
X16604Y7047
X16284Y6727
X15964Y6407
X18254Y8257
X18254Y8757
X18254Y9257
X18254Y9757
X18254Y10257
X18254Y10757
X18254Y11257
X18254Y11757
X18254Y12257
X18254Y12757
X18244Y13297
X17954Y14957
X17164Y14967
X16374Y15267
X15884Y16327
X15404Y16247
X14764Y16887
X14764Y17367
X14414Y17977
X14004Y17987
X14080Y18687
X14494Y18687
X15104Y19087
X14684Y19287
X13564Y18727
X12444Y18727
X11384Y19437
X10644Y19437
X11084Y20647
X11484Y21047
X11884Y21527
X11084Y21527
X10204Y21447
X10184Y21827
X10204Y21047
X7804Y20487
X7854Y18307
X8764Y17607
X9164Y17767
X8104Y16507
X7104Y15707
X6204Y15447
X5244Y16247
X6514Y16697
X8284Y15367
X8684Y15367
X9164Y15367
X9164Y14887
X9504Y14307
X9904Y14307
X10304Y14307
X11104Y14607
X12364Y15127
X13884Y14567
X13884Y14167
X13884Y13767
X14364Y13767
X14364Y13287
X14844Y13287
X15164Y12967
X14444Y12567
X13884Y12647
X12804Y12107
X12754Y11757
X12804Y11407
X13924Y10527
X14434Y10977
X15244Y10487
X15804Y10487
X15804Y9607
X16684Y10407
X17084Y10407
X13894Y9837
X12644Y8937
X12324Y8937
X12324Y8507
X12644Y8507
X11644Y10167
X10604Y10907
X11204Y11307
X10484Y12077
X10064Y12067
X9084Y12087
X8604Y12087
X8604Y12727
X8204Y12727
X7704Y12107
X7204Y11807
X7644Y11447
X8364Y10887
X9004Y10887
X9004Y10487
X9404Y10487
X10404Y9807
X11104Y12507
X9964Y13287
X9644Y13527
X9644Y12887
X8444Y14327
X8044Y14327
X8044Y13927
X7724Y14647
X6364Y13287
X5864Y12887
X4724Y12087
X6704Y11807
X5884Y9527
X6684Y8887
X7024Y9467
X12804Y13607
X15254Y14507
X13644Y16407
X11504Y16507
X11004Y16507
X10404Y16407
X6204Y18007
X5244Y18007
X12784Y20497
X13084Y20167
X13564Y20167
X12784Y21407
X14144Y22407
X14284Y22967
X14444Y23687
X18254Y19757
X18254Y19257
X18254Y18757
X18254Y18257
X18254Y17757
X17084Y17287
X17084Y16887
X16604Y17287
T02
X8411Y5851
X7704Y6558
X6997Y7265
X6290Y7972
X5583Y8679
X4875Y9386
X4168Y10093
X3461Y10800
X2754Y11507
X2754Y12507
X2754Y13507
X2754Y14507
X2754Y15507
X2754Y16507
X2754Y17507
X3461Y18214
X4168Y18922
X4875Y19629
X5583Y20336
X6290Y21043
X6997Y21750
X7704Y22457
X8411Y23164
X9411Y23164
X10411Y23164
X11411Y23164
X12411Y23164
X13411Y23164
X13411Y5851
X12411Y5851
X11411Y5851
X10411Y5851
X9411Y5851
M30
