%
M48
M72
T01C0.0150
T02C0.0354
T03C0.0400
T04C0.0890
%
T01
X11005Y7305
X11805Y7105
X12605Y8405
X13455Y9205
X13845Y10205
X13455Y10305
X13055Y10205
X13075Y11185
X12675Y11185
X12705Y12405
X13105Y12405
X13205Y12805
X12305Y12405
X11205Y13405
X10805Y13405
X10405Y13405
X9505Y12905
X9205Y12605
X9205Y13205
X9005Y14005
X9205Y14705
X9205Y15105
X8805Y15105
X8405Y15105
X7905Y14305
X7905Y13605
X8305Y13605
X8305Y13205
X7905Y13205
X6265Y12985
X6015Y12635
X6785Y11925
X7545Y11295
X8555Y11805
X8955Y11805
X9805Y11705
X10415Y11715
X10835Y11725
X10505Y10505
X10155Y10155
X10705Y9455
X11105Y9205
X11605Y9205
X11355Y8605
X14125Y8325
X15705Y9505
X15105Y10205
X14705Y11205
X14105Y11205
X14705Y11905
X15305Y12655
X14905Y12805
X14205Y13405
X14205Y13805
X14205Y14205
X13655Y14205
X13425Y13735
X15355Y14205
X16605Y14705
X16305Y15105
X15383Y15627
X15135Y16325
X15125Y16955
X14215Y17325
X14205Y17735
X14805Y17785
X15275Y17825
X15005Y18405
X15205Y18785
X14785Y18985
X14605Y18405
X12705Y17605
X11505Y16205
X10905Y16205
X10505Y16255
X10105Y16185
X10405Y14905
X10405Y14505
X11155Y14505
X7205Y15205
X6305Y15145
X6715Y15995
X6705Y16705
X5495Y15995
X5805Y17605
X5805Y18405
X5005Y17605
X7105Y17605
X8855Y18455
X9365Y18155
X9365Y17765
X10755Y17535
X11005Y19105
X10705Y19545
X11535Y19235
X12705Y19905
X13105Y19905
X13505Y19905
X13205Y20705
X13405Y21005
X14455Y21655
X14305Y22505
X14605Y23205
X12035Y21125
X11635Y20695
X12045Y20385
X11235Y20345
X10305Y20805
X10305Y21205
X10305Y21605
X11235Y21125
X7705Y19705
X6705Y19705
X4805Y13905
X4805Y12305
X5705Y10305
X5355Y9905
X8355Y9455
X8805Y10605
X14605Y5405
X16005Y6405
X16905Y7105
X18355Y7955
X18355Y8455
X18355Y8955
X18355Y9455
X18355Y9955
X18355Y10455
X18355Y10955
X18355Y11455
X18355Y11955
X18355Y12455
X18345Y12995
X16105Y11305
X17205Y10405
X17205Y9405
X17205Y15105
X17205Y15905
X18345Y15865
X18345Y16395
X18345Y16925
X18355Y17455
X18355Y17955
X18355Y18455
X18355Y18955
X18355Y19455
X18355Y15325
T02
X15945Y8125
X15295Y7675
T03
X7805Y6255
X8512Y5548
X9512Y5548
X10512Y5548
X11512Y5548
X12512Y5548
X13512Y5548
X7097Y6962
X6390Y7669
X5683Y8377
X4976Y9084
X4269Y9791
X3562Y10498
X2855Y11205
X2855Y12205
X2855Y13205
X2855Y14205
X2855Y15205
X2855Y16205
X2855Y17205
X3562Y17912
X4269Y18619
X4976Y19326
X5683Y20033
X6390Y20740
X7097Y21448
X7805Y22155
X8512Y22862
X9512Y22862
X10512Y22862
X11512Y22862
X12512Y22862
X13512Y22862
T04
X19705Y18805
X7205Y18805
X7205Y9605
X19705Y9605
M30
