G75*
G70*
%OFA0B0*%
%FSLAX24Y24*%
%IPPOS*%
%LPD*%
%AMOC8*
5,1,8,0,0,1.08239X$1,22.5*
%
%ADD10C,0.0595*%
%ADD11C,0.0390*%
D10*
X008411Y005851D03*
X007704Y006558D03*
X006997Y007265D03*
X006290Y007972D03*
X005583Y008679D03*
X004875Y009386D03*
X004168Y010093D03*
X003461Y010800D03*
X002754Y011507D03*
X002754Y012507D03*
X002754Y013507D03*
X002754Y014507D03*
X002754Y015507D03*
X002754Y016507D03*
X002754Y017507D03*
X003461Y018214D03*
X004168Y018922D03*
X004875Y019629D03*
X005583Y020336D03*
X006290Y021043D03*
X006997Y021750D03*
X007704Y022457D03*
X008411Y023164D03*
X009411Y023164D03*
X010411Y023164D03*
X011411Y023164D03*
X012411Y023164D03*
X013411Y023164D03*
X013411Y005851D03*
X012411Y005851D03*
X011411Y005851D03*
X010411Y005851D03*
X009411Y005851D03*
D11*
X011484Y006967D03*
X013164Y007207D03*
X013164Y007607D03*
X013894Y008257D03*
X014764Y007767D03*
X015404Y007207D03*
X015724Y007527D03*
X016044Y007847D03*
X016604Y007047D03*
X016284Y006727D03*
X015964Y006407D03*
X018254Y008257D03*
X018254Y008757D03*
X018254Y009257D03*
X018254Y009757D03*
X018254Y010257D03*
X018254Y010757D03*
X018254Y011257D03*
X018254Y011757D03*
X018254Y012257D03*
X018254Y012757D03*
X018244Y013297D03*
X017954Y014957D03*
X017164Y014967D03*
X016374Y015267D03*
X015884Y016327D03*
X015404Y016247D03*
X014764Y016887D03*
X014764Y017367D03*
X014414Y017977D03*
X014004Y017987D03*
X014080Y018687D03*
X014494Y018687D03*
X015104Y019087D03*
X014684Y019287D03*
X013564Y018727D03*
X012444Y018727D03*
X011384Y019437D03*
X010644Y019437D03*
X011084Y020647D03*
X011484Y021047D03*
X011884Y021527D03*
X011084Y021527D03*
X010204Y021447D03*
X010184Y021827D03*
X010204Y021047D03*
X007804Y020487D03*
X007854Y018307D03*
X008764Y017607D03*
X009164Y017767D03*
X008104Y016507D03*
X007104Y015707D03*
X006204Y015447D03*
X005244Y016247D03*
X006514Y016697D03*
X008284Y015367D03*
X008684Y015367D03*
X009164Y015367D03*
X009164Y014887D03*
X009504Y014307D03*
X009904Y014307D03*
X010304Y014307D03*
X011104Y014607D03*
X012364Y015127D03*
X013884Y014567D03*
X013884Y014167D03*
X013884Y013767D03*
X014364Y013767D03*
X014364Y013287D03*
X014844Y013287D03*
X015164Y012967D03*
X014444Y012567D03*
X013884Y012647D03*
X012804Y012107D03*
X012754Y011757D03*
X012804Y011407D03*
X013924Y010527D03*
X014434Y010977D03*
X015244Y010487D03*
X015804Y010487D03*
X015804Y009607D03*
X016684Y010407D03*
X017084Y010407D03*
X013894Y009837D03*
X012644Y008937D03*
X012324Y008937D03*
X012324Y008507D03*
X012644Y008507D03*
X011644Y010167D03*
X010604Y010907D03*
X011204Y011307D03*
X010484Y012077D03*
X010064Y012067D03*
X009084Y012087D03*
X008604Y012087D03*
X008604Y012727D03*
X008204Y012727D03*
X007704Y012107D03*
X007204Y011807D03*
X007644Y011447D03*
X008364Y010887D03*
X009004Y010887D03*
X009004Y010487D03*
X009404Y010487D03*
X010404Y009807D03*
X009564Y008407D03*
X007024Y009467D03*
X006684Y008887D03*
X005884Y009527D03*
X006704Y011807D03*
X005864Y012887D03*
X006364Y013287D03*
X008044Y013927D03*
X008044Y014327D03*
X008444Y014327D03*
X007724Y014647D03*
X009644Y013527D03*
X009964Y013287D03*
X009644Y012887D03*
X011104Y012507D03*
X012804Y013607D03*
X015254Y014507D03*
X013644Y016407D03*
X011504Y016507D03*
X011004Y016507D03*
X010404Y016407D03*
X006204Y018007D03*
X005244Y018007D03*
X012784Y020497D03*
X013084Y020167D03*
X013564Y020167D03*
X012784Y021407D03*
X014144Y022407D03*
X014284Y022967D03*
X014444Y023687D03*
X018254Y019757D03*
X018254Y019257D03*
X018254Y018757D03*
X018254Y018257D03*
X018254Y017757D03*
X017084Y017287D03*
X017084Y016887D03*
X016604Y017287D03*
X004724Y012087D03*
M02*
