G75*
G70*
%OFA0B0*%
%FSLAX24Y24*%
%IPPOS*%
%LPD*%
%AMOC8*
5,1,8,0,0,1.08239X$1,22.5*
%
%ADD10C,0.0740*%
%ADD11C,0.0310*%
%ADD12C,0.0080*%
%ADD13C,0.0160*%
%ADD14C,0.0660*%
%ADD15C,0.0320*%
%ADD16C,0.0240*%
%ADD17C,0.0120*%
D10*
X007805Y006255D03*
X008512Y005548D03*
X009512Y005548D03*
X010512Y005548D03*
X011512Y005548D03*
X012512Y005548D03*
X013512Y005548D03*
X007097Y006962D03*
X006390Y007669D03*
X005683Y008377D03*
X004976Y009084D03*
X004269Y009791D03*
X003562Y010498D03*
X002855Y011205D03*
X002855Y012205D03*
X002855Y013205D03*
X002855Y014205D03*
X002855Y015205D03*
X002855Y016205D03*
X002855Y017205D03*
X003562Y017912D03*
X004269Y018619D03*
X004976Y019326D03*
X005683Y020033D03*
X006390Y020740D03*
X007097Y021448D03*
X007805Y022155D03*
X008512Y022862D03*
X009512Y022862D03*
X010512Y022862D03*
X011512Y022862D03*
X012512Y022862D03*
X013512Y022862D03*
D11*
X014305Y022505D03*
X014605Y023205D03*
X014455Y021655D03*
X013405Y021005D03*
X013205Y020705D03*
X013105Y019905D03*
X013505Y019905D03*
X012705Y019905D03*
X012045Y020385D03*
X011635Y020695D03*
X011235Y020345D03*
X010305Y020805D03*
X010305Y021205D03*
X010305Y021605D03*
X011235Y021125D03*
X012035Y021125D03*
X010705Y019545D03*
X011005Y019105D03*
X011535Y019235D03*
X010755Y017535D03*
X009365Y017765D03*
X009365Y018155D03*
X008855Y018455D03*
X007705Y019705D03*
X006705Y019705D03*
X005805Y018405D03*
X005805Y017605D03*
X005005Y017605D03*
X006705Y016705D03*
X006715Y015995D03*
X005495Y015995D03*
X006305Y015145D03*
X007205Y015205D03*
X007905Y014305D03*
X007905Y013605D03*
X008305Y013605D03*
X008305Y013205D03*
X007905Y013205D03*
X009005Y014005D03*
X009205Y014705D03*
X009205Y015105D03*
X008805Y015105D03*
X008405Y015105D03*
X010105Y016185D03*
X010505Y016255D03*
X010905Y016205D03*
X011505Y016205D03*
X010405Y014905D03*
X010405Y014505D03*
X011155Y014505D03*
X011205Y013405D03*
X010805Y013405D03*
X010405Y013405D03*
X009505Y012905D03*
X009205Y012605D03*
X009205Y013205D03*
X008955Y011805D03*
X008555Y011805D03*
X007545Y011295D03*
X006785Y011925D03*
X006015Y012635D03*
X006265Y012985D03*
X004805Y012305D03*
X004805Y013905D03*
X008805Y010605D03*
X008355Y009455D03*
X010155Y010155D03*
X010505Y010505D03*
X010705Y009455D03*
X011105Y009205D03*
X011605Y009205D03*
X011355Y008605D03*
X012605Y008405D03*
X013455Y009205D03*
X013845Y010205D03*
X013455Y010305D03*
X013055Y010205D03*
X013075Y011185D03*
X012675Y011185D03*
X012705Y012405D03*
X013105Y012405D03*
X013205Y012805D03*
X012305Y012405D03*
X010835Y011725D03*
X010415Y011715D03*
X009805Y011705D03*
X013425Y013735D03*
X013655Y014205D03*
X014205Y014205D03*
X014205Y013805D03*
X014205Y013405D03*
X014905Y012805D03*
X015305Y012655D03*
X014705Y011905D03*
X014705Y011205D03*
X014105Y011205D03*
X015105Y010205D03*
X015705Y009505D03*
X017205Y009405D03*
X017205Y010405D03*
X018355Y010455D03*
X018355Y009955D03*
X018355Y009455D03*
X018355Y008955D03*
X018355Y008455D03*
X018355Y007955D03*
X016905Y007105D03*
X016005Y006405D03*
X014605Y005405D03*
X011805Y007105D03*
X011005Y007305D03*
X014125Y008325D03*
X016105Y011305D03*
X018355Y011455D03*
X018355Y010955D03*
X018355Y011955D03*
X018355Y012455D03*
X018345Y012995D03*
X016605Y014705D03*
X016305Y015105D03*
X015383Y015627D03*
X015135Y016325D03*
X015125Y016955D03*
X014215Y017325D03*
X014205Y017735D03*
X014805Y017785D03*
X015275Y017825D03*
X015005Y018405D03*
X015205Y018785D03*
X014785Y018985D03*
X014605Y018405D03*
X012705Y017605D03*
X017205Y015905D03*
X017205Y015105D03*
X018355Y015325D03*
X018345Y015865D03*
X018345Y016395D03*
X018345Y016925D03*
X018355Y017455D03*
X018355Y017955D03*
X018355Y018455D03*
X018355Y018955D03*
X018355Y019455D03*
X015355Y014205D03*
X007105Y017605D03*
X005705Y010305D03*
X005355Y009905D03*
D12*
X005083Y010605D02*
X004269Y009791D01*
X003562Y010498D02*
X003862Y010798D01*
X008009Y010798D01*
X008916Y011705D01*
X008916Y011766D01*
X008955Y011805D01*
X009255Y011855D02*
X009255Y011955D01*
X010005Y012705D01*
X010005Y013105D01*
X009105Y014005D01*
X009005Y014005D01*
X009305Y014105D02*
X009305Y014605D01*
X009205Y014705D01*
X009655Y014555D02*
X010805Y013405D01*
X011205Y013405D02*
X010405Y014205D01*
X010305Y014205D01*
X009805Y014705D01*
X009805Y016405D01*
X010005Y016605D01*
X010805Y016605D01*
X011555Y017355D01*
X011555Y017985D01*
X009945Y019595D01*
X009945Y021685D01*
X010265Y022005D01*
X012655Y022005D01*
X013512Y022862D01*
X012512Y022862D02*
X011815Y022165D01*
X010185Y022165D01*
X009795Y021775D01*
X009795Y019515D01*
X011355Y017955D01*
X011355Y017405D01*
X010705Y016755D01*
X009905Y016755D01*
X009655Y016505D01*
X009655Y014555D01*
X009505Y014305D02*
X010405Y013405D01*
X010205Y013205D02*
X009305Y014105D01*
X009505Y014305D02*
X009505Y016605D01*
X009805Y016905D01*
X010605Y016905D01*
X011155Y017455D01*
X011155Y017905D01*
X009645Y019415D01*
X009645Y021845D01*
X010125Y022325D01*
X010975Y022325D01*
X011512Y022862D01*
X010512Y022862D02*
X010461Y022862D01*
X009455Y021855D01*
X009455Y019355D01*
X009655Y019155D01*
X009655Y018055D01*
X009365Y017765D01*
X009205Y017405D02*
X010625Y017405D01*
X010755Y017535D01*
X011705Y017305D02*
X011705Y018405D01*
X011005Y019105D01*
X012125Y019775D02*
X012555Y020205D01*
X013205Y020205D01*
X013505Y019905D01*
X013355Y019605D02*
X014355Y019605D01*
X015205Y020205D02*
X013605Y021805D01*
X010505Y021805D01*
X010305Y021605D01*
X010305Y021205D02*
X010735Y021635D01*
X013535Y021635D01*
X014785Y020385D01*
X014785Y018985D01*
X015205Y018785D02*
X015205Y020205D01*
X013355Y019605D02*
X013105Y019855D01*
X013105Y019905D01*
X012705Y019905D02*
X012305Y019505D01*
X012305Y013405D01*
X010855Y011955D01*
X010855Y011745D01*
X010835Y011725D01*
X010415Y011715D02*
X012125Y013425D01*
X012125Y019775D01*
X013535Y017735D02*
X014205Y017735D01*
X014215Y017325D02*
X013455Y017325D01*
X012705Y016575D01*
X012705Y012805D01*
X012305Y012405D01*
X012155Y012105D02*
X012805Y012105D01*
X013105Y012405D01*
X012905Y012605D02*
X012705Y012405D01*
X012905Y012605D02*
X012905Y016405D01*
X013455Y016955D01*
X015125Y016955D01*
X015135Y016325D02*
X013705Y016325D01*
X013105Y015725D01*
X013105Y014855D01*
X013105Y012905D01*
X013205Y012805D01*
X013705Y012605D02*
X013025Y011925D01*
X012225Y011925D01*
X011605Y011305D01*
X010305Y011305D01*
X010105Y011505D01*
X010105Y012305D01*
X010805Y013005D01*
X011105Y013005D01*
X011405Y013305D01*
X011405Y013805D01*
X010705Y014505D01*
X010705Y014605D01*
X010405Y014905D01*
X010405Y014505D02*
X010005Y014905D01*
X010005Y016105D01*
X010085Y016185D01*
X010105Y016185D01*
X010505Y016145D02*
X010505Y016255D01*
X010505Y016145D02*
X011165Y015485D01*
X011165Y014515D01*
X011155Y014505D01*
X010205Y013205D02*
X010205Y012655D01*
X009505Y011955D01*
X009505Y009755D01*
X009805Y009455D01*
X010705Y009455D01*
X010155Y010155D02*
X010155Y010655D01*
X010405Y010905D01*
X011805Y010905D01*
X012425Y011525D01*
X013225Y011525D01*
X014205Y012505D01*
X014205Y013405D01*
X013905Y013505D02*
X014205Y013805D01*
X014205Y014205D02*
X014105Y014205D01*
X013705Y013805D01*
X013705Y012605D01*
X013905Y012505D02*
X013905Y013505D01*
X013905Y012505D02*
X013125Y011725D01*
X012325Y011725D01*
X011705Y011105D01*
X010205Y011105D01*
X009805Y011505D01*
X009805Y011705D01*
X009255Y011855D02*
X009255Y009755D01*
X008955Y009455D01*
X008355Y009455D01*
X008805Y010605D02*
X005083Y010605D01*
X004455Y010975D02*
X004225Y011205D01*
X002855Y011205D01*
X002855Y012205D02*
X003555Y012205D01*
X004465Y011295D01*
X007545Y011295D01*
X007805Y010975D02*
X008555Y011725D01*
X008555Y011805D01*
X009405Y012305D02*
X009805Y012705D01*
X009805Y013055D01*
X009335Y013525D01*
X009065Y013525D01*
X008695Y013895D01*
X008695Y014595D01*
X009205Y015105D01*
X008805Y015105D02*
X008505Y015405D01*
X008505Y022855D01*
X007805Y022155D02*
X007805Y022105D01*
X008305Y021605D01*
X008305Y015205D01*
X008405Y015105D01*
X008045Y014605D02*
X008045Y020500D01*
X007097Y021448D01*
X006405Y020726D02*
X006390Y020740D01*
X006405Y020726D02*
X006405Y017505D01*
X007505Y016405D01*
X007505Y014205D01*
X007705Y014005D01*
X007905Y014005D01*
X008305Y013605D01*
X008605Y013505D02*
X008305Y013205D01*
X007905Y013205D02*
X007885Y013225D01*
X007505Y013225D01*
X004476Y016254D01*
X004476Y017876D01*
X005005Y018405D01*
X005005Y019298D01*
X004976Y019326D01*
X005683Y018784D02*
X005683Y020033D01*
X005683Y018784D02*
X004705Y017805D01*
X004705Y016265D01*
X007345Y013625D01*
X007885Y013625D01*
X007905Y013605D01*
X008205Y014105D02*
X008205Y014445D01*
X008045Y014605D01*
X007905Y014305D02*
X007705Y014505D01*
X007705Y016625D01*
X007105Y017225D01*
X007105Y017605D01*
X008855Y017755D02*
X009205Y017405D01*
X008855Y017755D02*
X008855Y018455D01*
X009305Y018215D02*
X009365Y018155D01*
X009305Y018215D02*
X009305Y021905D01*
X009512Y022112D01*
X009512Y022862D01*
X004269Y018619D02*
X004269Y016241D01*
X007605Y012905D01*
X008805Y012905D01*
X009105Y013205D01*
X009205Y013205D01*
X009105Y012905D02*
X009505Y012905D01*
X009105Y012905D02*
X008905Y012705D01*
X007605Y012705D01*
X003562Y016748D01*
X003562Y017912D01*
X002905Y017205D02*
X002855Y017205D01*
X002905Y017205D02*
X007605Y012505D01*
X009105Y012505D01*
X009205Y012605D01*
X009405Y012305D02*
X007605Y012305D01*
X003705Y016205D01*
X002855Y016205D01*
X002855Y015205D02*
X004505Y015205D01*
X006265Y013445D01*
X006265Y012985D01*
X006015Y012635D02*
X006015Y013395D01*
X004505Y014905D01*
X003555Y014905D01*
X002855Y014205D01*
X002855Y013205D02*
X003005Y013205D01*
X004685Y011525D01*
X006385Y011525D01*
X006785Y011925D01*
X007805Y010975D02*
X004455Y010975D01*
X008605Y013505D02*
X008605Y013705D01*
X008205Y014105D01*
X010905Y016205D02*
X010905Y016505D01*
X011705Y017305D01*
X012505Y016705D02*
X013535Y017735D01*
X012505Y016705D02*
X012505Y013055D01*
X012005Y012555D01*
X012005Y012255D01*
X012155Y012105D01*
D13*
X007962Y005583D02*
X006932Y005583D01*
X006695Y005701D02*
X005687Y006369D01*
X004769Y007155D01*
X003954Y008049D01*
X003256Y009036D01*
X002684Y010101D01*
X002247Y011228D01*
X001952Y012401D01*
X001804Y013601D01*
X001804Y014809D01*
X001952Y016009D01*
X002247Y017182D01*
X002684Y018309D01*
X003256Y019374D01*
X003954Y020361D01*
X004769Y021255D01*
X005687Y022041D01*
X006695Y022709D01*
X007777Y023248D01*
X008917Y023650D01*
X010099Y023908D01*
X010099Y023908D01*
X011302Y024020D01*
X012511Y023983D01*
X013705Y023797D01*
X014868Y023466D01*
X015982Y022995D01*
X017029Y022391D01*
X017993Y021662D01*
X018605Y021069D01*
X018605Y007341D01*
X017994Y006748D01*
X017029Y006019D01*
X015982Y005415D01*
X014868Y004944D01*
X013705Y004613D01*
X012511Y004427D01*
X011302Y004390D01*
X010099Y004502D01*
X008917Y004760D01*
X007777Y005162D01*
X006695Y005701D01*
X006634Y005742D02*
X007605Y005742D01*
X007593Y005746D02*
X007676Y005719D01*
X007761Y005705D01*
X007784Y005705D01*
X007784Y006235D01*
X007255Y006235D01*
X007255Y006212D01*
X007268Y006127D01*
X007295Y006044D01*
X007334Y005967D01*
X007385Y005897D01*
X007446Y005836D01*
X007516Y005785D01*
X007593Y005746D01*
X007784Y005742D02*
X007825Y005742D01*
X007825Y005705D02*
X007848Y005705D01*
X007933Y005719D01*
X007995Y005739D01*
X007975Y005677D01*
X007962Y005591D01*
X007962Y005505D01*
X007975Y005419D01*
X008002Y005337D01*
X008041Y005260D01*
X008092Y005190D01*
X008109Y005173D01*
X008483Y005548D01*
X008512Y005520D01*
X008540Y005548D01*
X008915Y005173D01*
X008931Y005190D01*
X008982Y005260D01*
X009021Y005337D01*
X009023Y005343D01*
X009062Y005248D01*
X009211Y005099D01*
X009406Y005018D01*
X009617Y005018D01*
X009812Y005099D01*
X009961Y005248D01*
X010000Y005343D01*
X010002Y005337D01*
X010041Y005260D01*
X010092Y005190D01*
X010153Y005129D01*
X010223Y005078D01*
X010300Y005039D01*
X010383Y005012D01*
X010468Y004998D01*
X010492Y004998D01*
X010492Y005528D01*
X010532Y005528D01*
X010532Y004998D01*
X010555Y004998D01*
X010640Y005012D01*
X010723Y005039D01*
X010800Y005078D01*
X010870Y005129D01*
X010931Y005190D01*
X010982Y005260D01*
X011021Y005337D01*
X011023Y005343D01*
X011062Y005248D01*
X011211Y005099D01*
X011406Y005018D01*
X011617Y005018D01*
X011812Y005099D01*
X011961Y005248D01*
X012000Y005343D01*
X012002Y005337D01*
X012041Y005260D01*
X012092Y005190D01*
X012153Y005129D01*
X012223Y005078D01*
X012300Y005039D01*
X012383Y005012D01*
X012468Y004998D01*
X012491Y004998D01*
X012491Y005528D01*
X012532Y005528D01*
X012532Y004998D01*
X012555Y004998D01*
X012640Y005012D01*
X012723Y005039D01*
X012800Y005078D01*
X012870Y005129D01*
X012931Y005190D01*
X012982Y005260D01*
X013021Y005337D01*
X013023Y005343D01*
X013062Y005248D01*
X013211Y005099D01*
X013406Y005018D01*
X013617Y005018D01*
X013812Y005099D01*
X013961Y005248D01*
X014042Y005443D01*
X014042Y005654D01*
X013961Y005848D01*
X013812Y005998D01*
X013617Y006078D01*
X013406Y006078D01*
X013211Y005998D01*
X013062Y005848D01*
X013023Y005754D01*
X013021Y005759D01*
X012982Y005836D01*
X012931Y005906D01*
X012870Y005968D01*
X012800Y006019D01*
X012723Y006058D01*
X012640Y006085D01*
X012555Y006098D01*
X012532Y006098D01*
X012532Y005568D01*
X012491Y005568D01*
X012491Y006098D01*
X012468Y006098D01*
X012383Y006085D01*
X012300Y006058D01*
X012223Y006019D01*
X012153Y005968D01*
X012092Y005906D01*
X012041Y005836D01*
X012002Y005759D01*
X012000Y005754D01*
X011961Y005848D01*
X011812Y005998D01*
X011617Y006078D01*
X011406Y006078D01*
X011211Y005998D01*
X011062Y005848D01*
X011023Y005754D01*
X011021Y005759D01*
X010982Y005836D01*
X010931Y005906D01*
X010870Y005968D01*
X010800Y006019D01*
X010723Y006058D01*
X010640Y006085D01*
X010555Y006098D01*
X010532Y006098D01*
X010532Y005568D01*
X010492Y005568D01*
X010492Y006098D01*
X010468Y006098D01*
X010383Y006085D01*
X010300Y006058D01*
X010223Y006019D01*
X010153Y005968D01*
X010092Y005906D01*
X010041Y005836D01*
X010002Y005759D01*
X010000Y005754D01*
X009961Y005848D01*
X009812Y005998D01*
X009617Y006078D01*
X009406Y006078D01*
X009211Y005998D01*
X009062Y005848D01*
X009023Y005754D01*
X009021Y005759D01*
X008982Y005836D01*
X008931Y005906D01*
X008915Y005923D01*
X008540Y005548D01*
X008512Y005577D01*
X008886Y005951D01*
X008870Y005968D01*
X008800Y006019D01*
X008723Y006058D01*
X008640Y006085D01*
X008555Y006098D01*
X008468Y006098D01*
X008383Y006085D01*
X008321Y006064D01*
X008341Y006127D01*
X008355Y006212D01*
X008355Y006235D01*
X007825Y006235D01*
X007825Y006275D01*
X008355Y006275D01*
X008355Y006299D01*
X008341Y006384D01*
X008314Y006466D01*
X008275Y006544D01*
X008224Y006614D01*
X008163Y006675D01*
X008093Y006726D01*
X008016Y006765D01*
X007933Y006792D01*
X007848Y006805D01*
X007825Y006805D01*
X007825Y006276D01*
X007784Y006276D01*
X007784Y006805D01*
X007761Y006805D01*
X007676Y006792D01*
X007614Y006772D01*
X007634Y006834D01*
X007647Y006919D01*
X007647Y006942D01*
X007118Y006942D01*
X007118Y006982D01*
X007647Y006982D01*
X007647Y007006D01*
X007634Y007091D01*
X007607Y007174D01*
X007568Y007251D01*
X007517Y007321D01*
X007456Y007382D01*
X007386Y007433D01*
X007309Y007472D01*
X007226Y007499D01*
X007141Y007512D01*
X007117Y007512D01*
X007117Y006983D01*
X007077Y006983D01*
X007077Y007512D01*
X007054Y007512D01*
X006969Y007499D01*
X006886Y007472D01*
X006881Y007469D01*
X006920Y007564D01*
X006920Y007775D01*
X006840Y007970D01*
X006691Y008119D01*
X006496Y008199D01*
X006285Y008199D01*
X006163Y008149D01*
X006213Y008271D01*
X006213Y008482D01*
X006133Y008677D01*
X005984Y008826D01*
X005789Y008906D01*
X005578Y008906D01*
X005455Y008856D01*
X005506Y008978D01*
X005506Y009189D01*
X005425Y009384D01*
X005276Y009533D01*
X005082Y009614D01*
X004871Y009614D01*
X004748Y009563D01*
X004799Y009685D01*
X004799Y009896D01*
X004758Y009996D01*
X005166Y010405D01*
X008559Y010405D01*
X008626Y010338D01*
X008742Y010290D01*
X008867Y010290D01*
X008983Y010338D01*
X009055Y010410D01*
X009055Y009838D01*
X008872Y009655D01*
X008600Y009655D01*
X008533Y009722D01*
X008417Y009770D01*
X008292Y009770D01*
X008176Y009722D01*
X008088Y009633D01*
X008040Y009518D01*
X008040Y009392D01*
X008088Y009277D01*
X008176Y009188D01*
X008292Y009140D01*
X008417Y009140D01*
X008533Y009188D01*
X008600Y009255D01*
X008872Y009255D01*
X009038Y009255D01*
X009338Y009555D01*
X009380Y009597D01*
X009422Y009555D01*
X009722Y009255D01*
X009888Y009255D01*
X010459Y009255D01*
X010526Y009188D01*
X010642Y009140D01*
X010767Y009140D01*
X010883Y009188D01*
X010972Y009277D01*
X011020Y009392D01*
X011020Y009518D01*
X010972Y009633D01*
X010883Y009722D01*
X010767Y009770D01*
X010642Y009770D01*
X010526Y009722D01*
X010459Y009655D01*
X009888Y009655D01*
X009705Y009838D01*
X009705Y011322D01*
X010005Y011022D01*
X010122Y010905D01*
X009955Y010738D01*
X009955Y010572D01*
X009955Y010400D01*
X009888Y010333D01*
X009840Y010218D01*
X009840Y010092D01*
X009888Y009977D01*
X009976Y009888D01*
X010092Y009840D01*
X010217Y009840D01*
X010333Y009888D01*
X010422Y009977D01*
X010470Y010092D01*
X010470Y010218D01*
X010422Y010333D01*
X010355Y010400D01*
X010355Y010572D01*
X010488Y010705D01*
X011722Y010705D01*
X011888Y010705D01*
X012285Y011102D01*
X012285Y011051D01*
X012285Y008341D01*
X012333Y008224D01*
X012423Y008134D01*
X012541Y008085D01*
X012668Y008085D01*
X012786Y008134D01*
X012876Y008224D01*
X012925Y008341D01*
X012925Y010865D01*
X013321Y010865D01*
X013448Y010865D01*
X013566Y010914D01*
X015086Y012434D01*
X015176Y012524D01*
X015225Y012641D01*
X015225Y012741D01*
X015225Y014325D01*
X016560Y014325D01*
X016663Y014368D01*
X016699Y014403D01*
X016783Y014438D01*
X016872Y014527D01*
X016920Y014642D01*
X016920Y014768D01*
X016872Y014883D01*
X016783Y014972D01*
X016667Y015020D01*
X016542Y015020D01*
X016426Y014972D01*
X016339Y014885D01*
X015225Y014885D01*
X015225Y015017D01*
X015564Y015356D01*
X015982Y015774D01*
X016072Y015864D01*
X016121Y015981D01*
X016121Y017235D01*
X016121Y017363D01*
X016072Y017480D01*
X015456Y018096D01*
X015387Y018125D01*
X017289Y018125D01*
X017425Y017989D01*
X017425Y009021D01*
X015739Y007335D01*
X015648Y007335D01*
X015710Y007397D01*
X015785Y007578D01*
X015785Y007772D01*
X015710Y007953D01*
X015572Y008090D01*
X015392Y008165D01*
X015197Y008165D01*
X015017Y008090D01*
X014879Y007953D01*
X014805Y007772D01*
X014805Y007578D01*
X014879Y007397D01*
X014942Y007335D01*
X012020Y007335D01*
X011983Y007372D01*
X011867Y007420D01*
X011742Y007420D01*
X011626Y007372D01*
X011538Y007283D01*
X011490Y007168D01*
X011490Y007042D01*
X011538Y006927D01*
X011626Y006838D01*
X011742Y006790D01*
X011763Y006790D01*
X011799Y006775D01*
X011910Y006775D01*
X015910Y006775D01*
X016013Y006818D01*
X016092Y006896D01*
X017942Y008746D01*
X017985Y008849D01*
X017985Y008961D01*
X017985Y018161D01*
X017942Y018264D01*
X017863Y018342D01*
X017642Y018564D01*
X017563Y018642D01*
X017460Y018685D01*
X015504Y018685D01*
X015520Y018722D01*
X015520Y018848D01*
X015472Y018963D01*
X015405Y019031D01*
X015405Y020122D01*
X015405Y020288D01*
X013688Y022005D01*
X013522Y022005D01*
X012938Y022005D01*
X013306Y022373D01*
X013406Y022332D01*
X013617Y022332D01*
X013812Y022412D01*
X013961Y022562D01*
X014042Y022756D01*
X014042Y022967D01*
X013961Y023162D01*
X013812Y023311D01*
X013617Y023392D01*
X013406Y023392D01*
X013211Y023311D01*
X013062Y023162D01*
X013012Y023040D01*
X012961Y023162D01*
X012812Y023311D01*
X012617Y023392D01*
X012406Y023392D01*
X012211Y023311D01*
X012062Y023162D01*
X012012Y023040D01*
X011961Y023162D01*
X011812Y023311D01*
X011617Y023392D01*
X011406Y023392D01*
X011211Y023311D01*
X011062Y023162D01*
X011012Y023040D01*
X010961Y023162D01*
X010812Y023311D01*
X010617Y023392D01*
X010406Y023392D01*
X010211Y023311D01*
X010062Y023162D01*
X010012Y023040D01*
X009961Y023162D01*
X009812Y023311D01*
X009617Y023392D01*
X009406Y023392D01*
X009211Y023311D01*
X009062Y023162D01*
X009012Y023040D01*
X008961Y023162D01*
X008812Y023311D01*
X008617Y023392D01*
X008406Y023392D01*
X008211Y023311D01*
X008062Y023162D01*
X007982Y022967D01*
X007982Y022756D01*
X008032Y022634D01*
X007910Y022685D01*
X007699Y022685D01*
X007504Y022604D01*
X007355Y022455D01*
X007275Y022260D01*
X007275Y022049D01*
X007325Y021927D01*
X007203Y021978D01*
X006992Y021978D01*
X006797Y021897D01*
X006648Y021748D01*
X006567Y021553D01*
X006567Y021342D01*
X006618Y021220D01*
X006496Y021270D01*
X006285Y021270D01*
X006090Y021190D01*
X005941Y021041D01*
X005860Y020846D01*
X005860Y020635D01*
X005911Y020513D01*
X005789Y020563D01*
X005578Y020563D01*
X005383Y020483D01*
X005234Y020334D01*
X005153Y020139D01*
X005153Y019928D01*
X005204Y019806D01*
X005082Y019856D01*
X004871Y019856D01*
X004676Y019776D01*
X004527Y019626D01*
X004446Y019432D01*
X004446Y019221D01*
X004497Y019099D01*
X004375Y019149D01*
X004164Y019149D01*
X003969Y019069D01*
X003820Y018919D01*
X003739Y018725D01*
X003739Y018514D01*
X003790Y018391D01*
X003667Y018442D01*
X003456Y018442D01*
X003262Y018361D01*
X003113Y018212D01*
X003032Y018018D01*
X003032Y017807D01*
X003083Y017684D01*
X002960Y017735D01*
X002749Y017735D01*
X002555Y017654D01*
X002406Y017505D01*
X002325Y017310D01*
X002325Y017100D01*
X002406Y016905D01*
X002555Y016756D01*
X002677Y016705D01*
X002554Y016654D01*
X002405Y016505D01*
X002325Y016310D01*
X002325Y016100D01*
X002405Y015905D01*
X002554Y015756D01*
X002677Y015705D01*
X002554Y015654D01*
X002405Y015505D01*
X002325Y015310D01*
X002325Y015100D01*
X002405Y014905D01*
X002554Y014756D01*
X002677Y014705D01*
X002555Y014654D01*
X002405Y014505D01*
X002325Y014310D01*
X002325Y014100D01*
X002405Y013905D01*
X002555Y013756D01*
X002677Y013705D01*
X002555Y013654D01*
X002406Y013505D01*
X002325Y013310D01*
X002325Y013100D01*
X002406Y012905D01*
X002555Y012756D01*
X002677Y012705D01*
X002555Y012654D01*
X002405Y012505D01*
X002325Y012310D01*
X002325Y012100D01*
X002405Y011905D01*
X002555Y011756D01*
X002677Y011705D01*
X002555Y011654D01*
X002406Y011505D01*
X002325Y011310D01*
X002325Y011100D01*
X002406Y010905D01*
X002555Y010756D01*
X002749Y010675D01*
X002960Y010675D01*
X003083Y010726D01*
X003032Y010603D01*
X003032Y010392D01*
X003113Y010198D01*
X003262Y010049D01*
X003456Y009968D01*
X003667Y009968D01*
X003790Y010019D01*
X003739Y009896D01*
X003739Y009685D01*
X003820Y009491D01*
X003969Y009341D01*
X004164Y009261D01*
X004375Y009261D01*
X004497Y009311D01*
X004446Y009189D01*
X004446Y008978D01*
X004527Y008783D01*
X004676Y008634D01*
X004871Y008554D01*
X005082Y008554D01*
X005204Y008604D01*
X005153Y008482D01*
X005153Y008271D01*
X005234Y008076D01*
X005383Y007927D01*
X005578Y007847D01*
X005789Y007847D01*
X005911Y007897D01*
X005860Y007775D01*
X005860Y007564D01*
X005941Y007369D01*
X006090Y007220D01*
X006285Y007139D01*
X006496Y007139D01*
X006590Y007179D01*
X006588Y007174D01*
X006561Y007091D01*
X006547Y007006D01*
X006547Y006982D01*
X007077Y006982D01*
X007077Y006942D01*
X006547Y006942D01*
X006547Y006919D01*
X006561Y006834D01*
X006588Y006751D01*
X006627Y006674D01*
X006678Y006604D01*
X006739Y006543D01*
X006809Y006492D01*
X006886Y006453D01*
X006969Y006426D01*
X007054Y006412D01*
X007077Y006412D01*
X007077Y006942D01*
X007117Y006942D01*
X007117Y006412D01*
X007141Y006412D01*
X007226Y006426D01*
X007288Y006446D01*
X007268Y006384D01*
X007255Y006299D01*
X007255Y006275D01*
X007784Y006275D01*
X007784Y006235D01*
X007825Y006235D01*
X007825Y005705D01*
X007825Y005900D02*
X007784Y005900D01*
X007784Y006059D02*
X007825Y006059D01*
X007825Y006217D02*
X007784Y006217D01*
X007784Y006376D02*
X007825Y006376D01*
X007825Y006534D02*
X007784Y006534D01*
X007784Y006693D02*
X007825Y006693D01*
X007637Y006852D02*
X011613Y006852D01*
X011503Y007010D02*
X007647Y007010D01*
X007609Y007169D02*
X011490Y007169D01*
X011581Y007327D02*
X007510Y007327D01*
X007267Y007486D02*
X014843Y007486D01*
X014805Y007644D02*
X006920Y007644D01*
X006928Y007486D02*
X006888Y007486D01*
X007077Y007486D02*
X007117Y007486D01*
X007117Y007327D02*
X007077Y007327D01*
X007077Y007169D02*
X007117Y007169D01*
X007117Y007010D02*
X007077Y007010D01*
X007077Y006852D02*
X007117Y006852D01*
X007117Y006693D02*
X007077Y006693D01*
X007077Y006534D02*
X007117Y006534D01*
X007267Y006376D02*
X005679Y006376D01*
X005494Y006534D02*
X006751Y006534D01*
X006617Y006693D02*
X005309Y006693D01*
X005124Y006852D02*
X006558Y006852D01*
X006548Y007010D02*
X004939Y007010D01*
X004757Y007169D02*
X006215Y007169D01*
X005983Y007327D02*
X004612Y007327D01*
X004468Y007486D02*
X005893Y007486D01*
X005860Y007644D02*
X004323Y007644D01*
X004179Y007803D02*
X005872Y007803D01*
X005349Y007961D02*
X004034Y007961D01*
X003904Y008120D02*
X005216Y008120D01*
X005153Y008278D02*
X003792Y008278D01*
X003680Y008437D02*
X005153Y008437D01*
X005182Y008596D02*
X005200Y008596D01*
X004770Y008596D02*
X003568Y008596D01*
X003455Y008754D02*
X004556Y008754D01*
X004473Y008913D02*
X003343Y008913D01*
X003237Y009071D02*
X004446Y009071D01*
X004463Y009230D02*
X003152Y009230D01*
X003067Y009388D02*
X003922Y009388D01*
X003796Y009547D02*
X002982Y009547D01*
X002896Y009705D02*
X003739Y009705D01*
X003739Y009864D02*
X002811Y009864D01*
X002726Y010022D02*
X003325Y010022D01*
X003129Y010181D02*
X002653Y010181D01*
X002592Y010339D02*
X003054Y010339D01*
X003032Y010498D02*
X002530Y010498D01*
X002469Y010657D02*
X003054Y010657D01*
X002495Y010815D02*
X002407Y010815D01*
X002377Y010974D02*
X002346Y010974D01*
X002325Y011132D02*
X002284Y011132D01*
X002325Y011291D02*
X002232Y011291D01*
X002192Y011449D02*
X002382Y011449D01*
X002508Y011608D02*
X002152Y011608D01*
X002112Y011766D02*
X002544Y011766D01*
X002397Y011925D02*
X002072Y011925D01*
X002032Y012083D02*
X002331Y012083D01*
X002325Y012242D02*
X001992Y012242D01*
X001952Y012401D02*
X002362Y012401D01*
X002459Y012559D02*
X001933Y012559D01*
X001913Y012718D02*
X002647Y012718D01*
X002434Y012876D02*
X001894Y012876D01*
X001874Y013035D02*
X002352Y013035D01*
X002325Y013193D02*
X001854Y013193D01*
X001835Y013352D02*
X002342Y013352D01*
X002411Y013510D02*
X001815Y013510D01*
X001804Y013669D02*
X002590Y013669D01*
X002483Y013827D02*
X001804Y013827D01*
X001804Y013986D02*
X002372Y013986D01*
X002325Y014145D02*
X001804Y014145D01*
X001804Y014303D02*
X002325Y014303D01*
X002387Y014462D02*
X001804Y014462D01*
X001804Y014620D02*
X002520Y014620D01*
X002531Y014779D02*
X001804Y014779D01*
X001820Y014937D02*
X002392Y014937D01*
X002326Y015096D02*
X001839Y015096D01*
X001859Y015254D02*
X002325Y015254D01*
X002367Y015413D02*
X001878Y015413D01*
X001898Y015571D02*
X002472Y015571D01*
X002617Y015730D02*
X001918Y015730D01*
X001937Y015889D02*
X002422Y015889D01*
X002346Y016047D02*
X001962Y016047D01*
X002002Y016206D02*
X002325Y016206D01*
X002347Y016364D02*
X002042Y016364D01*
X002081Y016523D02*
X002423Y016523D01*
X002619Y016681D02*
X002121Y016681D01*
X002161Y016840D02*
X002471Y016840D01*
X002367Y016998D02*
X002201Y016998D01*
X002241Y017157D02*
X002325Y017157D01*
X002327Y017315D02*
X002299Y017315D01*
X002360Y017474D02*
X002393Y017474D01*
X002422Y017632D02*
X002533Y017632D01*
X002483Y017791D02*
X003038Y017791D01*
X003032Y017950D02*
X002545Y017950D01*
X002606Y018108D02*
X003069Y018108D01*
X003167Y018267D02*
X002667Y018267D01*
X002746Y018425D02*
X003416Y018425D01*
X003708Y018425D02*
X003776Y018425D01*
X003739Y018584D02*
X002831Y018584D01*
X002917Y018742D02*
X003746Y018742D01*
X003812Y018901D02*
X003002Y018901D01*
X003087Y019059D02*
X003960Y019059D01*
X004447Y019218D02*
X003172Y019218D01*
X003257Y019376D02*
X004446Y019376D01*
X004489Y019535D02*
X003370Y019535D01*
X003482Y019694D02*
X004594Y019694D01*
X004861Y019852D02*
X003594Y019852D01*
X003706Y020011D02*
X005153Y020011D01*
X005166Y020169D02*
X003819Y020169D01*
X003931Y020328D02*
X005232Y020328D01*
X005392Y020486D02*
X004069Y020486D01*
X004213Y020645D02*
X005860Y020645D01*
X005860Y020803D02*
X004358Y020803D01*
X004502Y020962D02*
X005908Y020962D01*
X006021Y021120D02*
X004647Y021120D01*
X004797Y021279D02*
X006594Y021279D01*
X006567Y021438D02*
X004983Y021438D01*
X005168Y021596D02*
X006585Y021596D01*
X006655Y021755D02*
X005353Y021755D01*
X005538Y021913D02*
X006837Y021913D01*
X007275Y022072D02*
X005733Y022072D01*
X005972Y022230D02*
X007275Y022230D01*
X007328Y022389D02*
X006212Y022389D01*
X006451Y022547D02*
X007448Y022547D01*
X007325Y023023D02*
X008005Y023023D01*
X007982Y022864D02*
X007007Y022864D01*
X006690Y022706D02*
X008003Y022706D01*
X008082Y023181D02*
X007644Y023181D01*
X008039Y023340D02*
X008281Y023340D01*
X008489Y023499D02*
X014755Y023499D01*
X015167Y023340D02*
X013742Y023340D01*
X013941Y023181D02*
X015541Y023181D01*
X015916Y023023D02*
X014019Y023023D01*
X014042Y022864D02*
X016208Y022864D01*
X016483Y022706D02*
X014021Y022706D01*
X013947Y022547D02*
X016757Y022547D01*
X017031Y022389D02*
X013755Y022389D01*
X013779Y021913D02*
X017661Y021913D01*
X017871Y021755D02*
X013938Y021755D01*
X014096Y021596D02*
X018061Y021596D01*
X018225Y021438D02*
X014255Y021438D01*
X014414Y021279D02*
X018389Y021279D01*
X018552Y021120D02*
X014572Y021120D01*
X014731Y020962D02*
X018605Y020962D01*
X018605Y020803D02*
X014889Y020803D01*
X015048Y020645D02*
X018605Y020645D01*
X018605Y020486D02*
X015206Y020486D01*
X015365Y020328D02*
X018605Y020328D01*
X018605Y020169D02*
X015405Y020169D01*
X015405Y020011D02*
X018605Y020011D01*
X018605Y019852D02*
X015405Y019852D01*
X015405Y019694D02*
X018605Y019694D01*
X018605Y019535D02*
X015405Y019535D01*
X015405Y019376D02*
X018605Y019376D01*
X018605Y019218D02*
X015405Y019218D01*
X015405Y019059D02*
X018605Y019059D01*
X018605Y018901D02*
X015498Y018901D01*
X015520Y018742D02*
X018605Y018742D01*
X018605Y018584D02*
X017622Y018584D01*
X017780Y018425D02*
X018605Y018425D01*
X018605Y018267D02*
X017939Y018267D01*
X017985Y018108D02*
X018605Y018108D01*
X018605Y017950D02*
X017985Y017950D01*
X017985Y017791D02*
X018605Y017791D01*
X018605Y017632D02*
X017985Y017632D01*
X017985Y017474D02*
X018605Y017474D01*
X018605Y017315D02*
X017985Y017315D01*
X017985Y017157D02*
X018605Y017157D01*
X018605Y016998D02*
X017985Y016998D01*
X017985Y016840D02*
X018605Y016840D01*
X018605Y016681D02*
X017985Y016681D01*
X017985Y016523D02*
X018605Y016523D01*
X018605Y016364D02*
X017985Y016364D01*
X017985Y016206D02*
X018605Y016206D01*
X018605Y016047D02*
X017985Y016047D01*
X017985Y015889D02*
X018605Y015889D01*
X018605Y015730D02*
X017985Y015730D01*
X017985Y015571D02*
X018605Y015571D01*
X018605Y015413D02*
X017985Y015413D01*
X017985Y015254D02*
X018605Y015254D01*
X018605Y015096D02*
X017985Y015096D01*
X017985Y014937D02*
X018605Y014937D01*
X018605Y014779D02*
X017985Y014779D01*
X017985Y014620D02*
X018605Y014620D01*
X018605Y014462D02*
X017985Y014462D01*
X017985Y014303D02*
X018605Y014303D01*
X018605Y014145D02*
X017985Y014145D01*
X017985Y013986D02*
X018605Y013986D01*
X018605Y013827D02*
X017985Y013827D01*
X017985Y013669D02*
X018605Y013669D01*
X018605Y013510D02*
X017985Y013510D01*
X017985Y013352D02*
X018605Y013352D01*
X018605Y013193D02*
X017985Y013193D01*
X017985Y013035D02*
X018605Y013035D01*
X018605Y012876D02*
X017985Y012876D01*
X017985Y012718D02*
X018605Y012718D01*
X018605Y012559D02*
X017985Y012559D01*
X017985Y012401D02*
X018605Y012401D01*
X018605Y012242D02*
X017985Y012242D01*
X017985Y012083D02*
X018605Y012083D01*
X018605Y011925D02*
X017985Y011925D01*
X017985Y011766D02*
X018605Y011766D01*
X018605Y011608D02*
X017985Y011608D01*
X017985Y011449D02*
X018605Y011449D01*
X018605Y011291D02*
X017985Y011291D01*
X017985Y011132D02*
X018605Y011132D01*
X018605Y010974D02*
X017985Y010974D01*
X017985Y010815D02*
X018605Y010815D01*
X018605Y010657D02*
X017985Y010657D01*
X017985Y010498D02*
X018605Y010498D01*
X018605Y010339D02*
X017985Y010339D01*
X017985Y010181D02*
X018605Y010181D01*
X018605Y010022D02*
X017985Y010022D01*
X017985Y009864D02*
X018605Y009864D01*
X018605Y009705D02*
X017985Y009705D01*
X017985Y009547D02*
X018605Y009547D01*
X018605Y009388D02*
X017985Y009388D01*
X017985Y009230D02*
X018605Y009230D01*
X018605Y009071D02*
X017985Y009071D01*
X017985Y008913D02*
X018605Y008913D01*
X018605Y008754D02*
X017945Y008754D01*
X017791Y008596D02*
X018605Y008596D01*
X018605Y008437D02*
X017633Y008437D01*
X017474Y008278D02*
X018605Y008278D01*
X018605Y008120D02*
X017316Y008120D01*
X017157Y007961D02*
X018605Y007961D01*
X018605Y007803D02*
X016998Y007803D01*
X016840Y007644D02*
X018605Y007644D01*
X018605Y007486D02*
X016681Y007486D01*
X016523Y007327D02*
X018591Y007327D01*
X018427Y007169D02*
X016364Y007169D01*
X016206Y007010D02*
X018264Y007010D01*
X018100Y006852D02*
X016047Y006852D01*
X015889Y007486D02*
X015747Y007486D01*
X015785Y007644D02*
X016048Y007644D01*
X016207Y007803D02*
X015772Y007803D01*
X015701Y007961D02*
X016365Y007961D01*
X016524Y008120D02*
X015501Y008120D01*
X015088Y008120D02*
X012753Y008120D01*
X012899Y008278D02*
X016682Y008278D01*
X016841Y008437D02*
X012925Y008437D01*
X012925Y008596D02*
X016999Y008596D01*
X017158Y008754D02*
X012925Y008754D01*
X012925Y008913D02*
X017316Y008913D01*
X017425Y009071D02*
X012925Y009071D01*
X012925Y009230D02*
X017425Y009230D01*
X017425Y009388D02*
X012925Y009388D01*
X012925Y009547D02*
X017425Y009547D01*
X017425Y009705D02*
X012925Y009705D01*
X012925Y009864D02*
X017425Y009864D01*
X017425Y010022D02*
X012925Y010022D01*
X012925Y010181D02*
X017425Y010181D01*
X017425Y010339D02*
X012925Y010339D01*
X012925Y010498D02*
X017425Y010498D01*
X017425Y010657D02*
X012925Y010657D01*
X012925Y010815D02*
X017425Y010815D01*
X017425Y010974D02*
X013626Y010974D01*
X013784Y011132D02*
X017425Y011132D01*
X017425Y011291D02*
X013943Y011291D01*
X014102Y011449D02*
X017425Y011449D01*
X017425Y011608D02*
X014260Y011608D01*
X014419Y011766D02*
X017425Y011766D01*
X017425Y011925D02*
X014577Y011925D01*
X014736Y012083D02*
X017425Y012083D01*
X017425Y012242D02*
X014894Y012242D01*
X015053Y012401D02*
X017425Y012401D01*
X017425Y012559D02*
X015191Y012559D01*
X015225Y012718D02*
X017425Y012718D01*
X017425Y012876D02*
X015225Y012876D01*
X015225Y013035D02*
X017425Y013035D01*
X017425Y013193D02*
X015225Y013193D01*
X015225Y013352D02*
X017425Y013352D01*
X017425Y013510D02*
X015225Y013510D01*
X015225Y013669D02*
X017425Y013669D01*
X017425Y013827D02*
X015225Y013827D01*
X015225Y013986D02*
X017425Y013986D01*
X017425Y014145D02*
X015225Y014145D01*
X015225Y014303D02*
X017425Y014303D01*
X017425Y014462D02*
X016807Y014462D01*
X016910Y014620D02*
X017425Y014620D01*
X017425Y014779D02*
X016915Y014779D01*
X016818Y014937D02*
X017425Y014937D01*
X017425Y015096D02*
X015304Y015096D01*
X015225Y014937D02*
X016391Y014937D01*
X015780Y015571D02*
X017425Y015571D01*
X017425Y015413D02*
X015621Y015413D01*
X015462Y015254D02*
X017425Y015254D01*
X017425Y015730D02*
X015938Y015730D01*
X016082Y015889D02*
X017425Y015889D01*
X017425Y016047D02*
X016121Y016047D01*
X016121Y016206D02*
X017425Y016206D01*
X017425Y016364D02*
X016121Y016364D01*
X016121Y016523D02*
X017425Y016523D01*
X017425Y016681D02*
X016121Y016681D01*
X016121Y016840D02*
X017425Y016840D01*
X017425Y016998D02*
X016121Y016998D01*
X016121Y017157D02*
X017425Y017157D01*
X017425Y017315D02*
X016121Y017315D01*
X016075Y017474D02*
X017425Y017474D01*
X017425Y017632D02*
X015920Y017632D01*
X015761Y017791D02*
X017425Y017791D01*
X017425Y017950D02*
X015603Y017950D01*
X015427Y018108D02*
X017306Y018108D01*
X015481Y017167D02*
X015481Y016178D01*
X015111Y015808D01*
X014633Y015330D01*
X014585Y015213D01*
X014585Y015085D01*
X014585Y014669D01*
X014585Y012838D01*
X014405Y012658D01*
X014405Y013160D01*
X014472Y013227D01*
X014520Y013342D01*
X014520Y013468D01*
X014472Y013583D01*
X014450Y013605D01*
X014472Y013627D01*
X014520Y013742D01*
X014520Y013868D01*
X014472Y013983D01*
X014450Y014005D01*
X014472Y014027D01*
X014520Y014142D01*
X014520Y014268D01*
X014472Y014383D01*
X014383Y014472D01*
X014267Y014520D01*
X014142Y014520D01*
X014026Y014472D01*
X013938Y014383D01*
X013893Y014277D01*
X013505Y013888D01*
X013505Y013722D01*
X013505Y012904D01*
X013472Y012983D01*
X013383Y013072D01*
X013305Y013105D01*
X013305Y014772D01*
X013305Y015642D01*
X013788Y016125D01*
X014889Y016125D01*
X014956Y016058D01*
X015072Y016010D01*
X015197Y016010D01*
X015313Y016058D01*
X015402Y016147D01*
X015450Y016262D01*
X015450Y016388D01*
X015402Y016503D01*
X015313Y016592D01*
X015197Y016640D01*
X015072Y016640D01*
X014956Y016592D01*
X014889Y016525D01*
X013622Y016525D01*
X013505Y016408D01*
X013105Y016008D01*
X013105Y016322D01*
X013538Y016755D01*
X014879Y016755D01*
X014946Y016688D01*
X015062Y016640D01*
X015187Y016640D01*
X015303Y016688D01*
X015392Y016777D01*
X015440Y016892D01*
X015440Y017018D01*
X015392Y017133D01*
X015303Y017222D01*
X015187Y017270D01*
X015062Y017270D01*
X014946Y017222D01*
X014879Y017155D01*
X014485Y017155D01*
X014530Y017262D01*
X014530Y017388D01*
X014482Y017503D01*
X014450Y017535D01*
X014472Y017557D01*
X014520Y017672D01*
X014520Y017798D01*
X014472Y017913D01*
X014383Y018002D01*
X014267Y018050D01*
X014142Y018050D01*
X014026Y018002D01*
X013959Y017935D01*
X013452Y017935D01*
X013335Y017818D01*
X012505Y016988D01*
X012505Y019422D01*
X012673Y019590D01*
X012767Y019590D01*
X012883Y019638D01*
X012905Y019660D01*
X012926Y019638D01*
X013042Y019590D01*
X013087Y019590D01*
X013155Y019522D01*
X013272Y019405D01*
X014135Y019405D01*
X014135Y018746D01*
X014135Y018564D01*
X014290Y018409D01*
X014290Y018342D01*
X014338Y018227D01*
X014426Y018138D01*
X014542Y018090D01*
X014667Y018090D01*
X014752Y018125D01*
X014858Y018125D01*
X014942Y018090D01*
X015067Y018090D01*
X015152Y018125D01*
X015163Y018125D01*
X015093Y018096D01*
X015003Y018006D01*
X014955Y017889D01*
X014955Y017761D01*
X015003Y017644D01*
X015481Y017167D01*
X015481Y017157D02*
X015368Y017157D01*
X015332Y017315D02*
X014530Y017315D01*
X014494Y017474D02*
X015173Y017474D01*
X015015Y017632D02*
X014503Y017632D01*
X014520Y017791D02*
X014955Y017791D01*
X014980Y017950D02*
X014436Y017950D01*
X014498Y018108D02*
X012505Y018108D01*
X012505Y017950D02*
X013974Y017950D01*
X014321Y018267D02*
X012505Y018267D01*
X012505Y018425D02*
X014273Y018425D01*
X014135Y018584D02*
X012505Y018584D01*
X012505Y018742D02*
X014135Y018742D01*
X014135Y018901D02*
X012505Y018901D01*
X012505Y019059D02*
X014135Y019059D01*
X014135Y019218D02*
X012505Y019218D01*
X012505Y019376D02*
X014135Y019376D01*
X014135Y019805D02*
X013804Y019805D01*
X013820Y019842D01*
X013820Y019968D01*
X013772Y020083D01*
X013683Y020172D01*
X013567Y020220D01*
X013473Y020220D01*
X013288Y020405D01*
X013122Y020405D01*
X012472Y020405D01*
X012355Y020288D01*
X011925Y019858D01*
X011925Y019692D01*
X011925Y013508D01*
X010447Y012030D01*
X010352Y012030D01*
X010305Y012010D01*
X010305Y012222D01*
X010888Y012805D01*
X011022Y012805D01*
X011188Y012805D01*
X011488Y013105D01*
X011605Y013222D01*
X011605Y013722D01*
X011605Y013888D01*
X011278Y014215D01*
X011333Y014238D01*
X011422Y014327D01*
X011470Y014442D01*
X011470Y014568D01*
X011422Y014683D01*
X011365Y014740D01*
X011365Y015568D01*
X011248Y015685D01*
X011020Y015912D01*
X011083Y015938D01*
X011172Y016027D01*
X011220Y016142D01*
X011220Y016268D01*
X011172Y016383D01*
X011119Y016436D01*
X011788Y017105D01*
X011905Y017222D01*
X011905Y018322D01*
X011905Y018488D01*
X011320Y019073D01*
X011320Y019168D01*
X011272Y019283D01*
X011183Y019372D01*
X011067Y019420D01*
X010942Y019420D01*
X010826Y019372D01*
X010738Y019283D01*
X010690Y019168D01*
X010690Y019133D01*
X010145Y019678D01*
X010145Y020530D01*
X010242Y020490D01*
X010367Y020490D01*
X010483Y020538D01*
X010572Y020627D01*
X010620Y020742D01*
X010620Y020759D01*
X011096Y021235D01*
X013364Y021235D01*
X014135Y020464D01*
X014135Y019805D01*
X014135Y019852D02*
X013820Y019852D01*
X013802Y020011D02*
X014135Y020011D01*
X014135Y020169D02*
X013686Y020169D01*
X013365Y020328D02*
X014135Y020328D01*
X014112Y020486D02*
X010145Y020486D01*
X010145Y020328D02*
X012395Y020328D01*
X012236Y020169D02*
X010145Y020169D01*
X010145Y020011D02*
X012077Y020011D01*
X011925Y019852D02*
X010145Y019852D01*
X010145Y019694D02*
X011925Y019694D01*
X011925Y019535D02*
X010288Y019535D01*
X010446Y019376D02*
X010837Y019376D01*
X010711Y019218D02*
X010605Y019218D01*
X011173Y019376D02*
X011925Y019376D01*
X011925Y019218D02*
X011299Y019218D01*
X011333Y019059D02*
X011925Y019059D01*
X011925Y018901D02*
X011492Y018901D01*
X011650Y018742D02*
X011925Y018742D01*
X011925Y018584D02*
X011809Y018584D01*
X011905Y018425D02*
X011925Y018425D01*
X011925Y018267D02*
X011905Y018267D01*
X011905Y018108D02*
X011925Y018108D01*
X011925Y017950D02*
X011905Y017950D01*
X011905Y017791D02*
X011925Y017791D01*
X011925Y017632D02*
X011905Y017632D01*
X011905Y017474D02*
X011925Y017474D01*
X011925Y017315D02*
X011905Y017315D01*
X011925Y017157D02*
X011839Y017157D01*
X011925Y016998D02*
X011681Y016998D01*
X011522Y016840D02*
X011925Y016840D01*
X011925Y016681D02*
X011364Y016681D01*
X011205Y016523D02*
X011925Y016523D01*
X011925Y016364D02*
X011180Y016364D01*
X011220Y016206D02*
X011925Y016206D01*
X011925Y016047D02*
X011180Y016047D01*
X011044Y015889D02*
X011925Y015889D01*
X011925Y015730D02*
X011203Y015730D01*
X011361Y015571D02*
X011925Y015571D01*
X011925Y015413D02*
X011365Y015413D01*
X011365Y015254D02*
X011925Y015254D01*
X011925Y015096D02*
X011365Y015096D01*
X011365Y014937D02*
X011925Y014937D01*
X011925Y014779D02*
X011365Y014779D01*
X011448Y014620D02*
X011925Y014620D01*
X011925Y014462D02*
X011470Y014462D01*
X011398Y014303D02*
X011925Y014303D01*
X011925Y014145D02*
X011348Y014145D01*
X011507Y013986D02*
X011925Y013986D01*
X011925Y013827D02*
X011605Y013827D01*
X011605Y013669D02*
X011925Y013669D01*
X011925Y013510D02*
X011605Y013510D01*
X011605Y013352D02*
X011769Y013352D01*
X011610Y013193D02*
X011576Y013193D01*
X011452Y013035D02*
X011417Y013035D01*
X011293Y012876D02*
X011259Y012876D01*
X011134Y012718D02*
X010800Y012718D01*
X010642Y012559D02*
X010976Y012559D01*
X010817Y012401D02*
X010483Y012401D01*
X010324Y012242D02*
X010659Y012242D01*
X010500Y012083D02*
X010305Y012083D01*
X009736Y011291D02*
X009705Y011291D01*
X009705Y011132D02*
X009895Y011132D01*
X010053Y010974D02*
X009705Y010974D01*
X009705Y010815D02*
X010032Y010815D01*
X010122Y010905D02*
X010122Y010905D01*
X009955Y010657D02*
X009705Y010657D01*
X009705Y010498D02*
X009955Y010498D01*
X009894Y010339D02*
X009705Y010339D01*
X009705Y010181D02*
X009840Y010181D01*
X009869Y010022D02*
X009705Y010022D01*
X009705Y009864D02*
X010035Y009864D01*
X010275Y009864D02*
X012285Y009864D01*
X012285Y010022D02*
X010441Y010022D01*
X010470Y010181D02*
X012285Y010181D01*
X012285Y010339D02*
X010416Y010339D01*
X010355Y010498D02*
X012285Y010498D01*
X012285Y010657D02*
X010439Y010657D01*
X010510Y009705D02*
X009837Y009705D01*
X009430Y009547D02*
X009329Y009547D01*
X009171Y009388D02*
X009589Y009388D01*
X009055Y009864D02*
X007828Y009864D01*
X007777Y009987D02*
X007587Y010177D01*
X007339Y010280D01*
X007070Y010280D01*
X006822Y010177D01*
X006632Y009987D01*
X006530Y009739D01*
X006530Y009471D01*
X006632Y009223D01*
X006822Y009033D01*
X007070Y008930D01*
X007339Y008930D01*
X007587Y009033D01*
X007777Y009223D01*
X007880Y009471D01*
X007880Y009739D01*
X007777Y009987D01*
X007742Y010022D02*
X009055Y010022D01*
X009055Y010181D02*
X007578Y010181D01*
X007880Y009705D02*
X008160Y009705D01*
X008052Y009547D02*
X007880Y009547D01*
X007845Y009388D02*
X008041Y009388D01*
X008135Y009230D02*
X007780Y009230D01*
X007625Y009071D02*
X012285Y009071D01*
X012285Y008913D02*
X005479Y008913D01*
X005506Y009071D02*
X006784Y009071D01*
X006630Y009230D02*
X005489Y009230D01*
X005421Y009388D02*
X006564Y009388D01*
X006530Y009547D02*
X005243Y009547D01*
X004799Y009705D02*
X006530Y009705D01*
X006581Y009864D02*
X004799Y009864D01*
X004784Y010022D02*
X006668Y010022D01*
X006831Y010181D02*
X004942Y010181D01*
X005101Y010339D02*
X008625Y010339D01*
X008985Y010339D02*
X009055Y010339D01*
X008922Y009705D02*
X008550Y009705D01*
X008575Y009230D02*
X010485Y009230D01*
X010925Y009230D02*
X012285Y009230D01*
X012285Y009388D02*
X011018Y009388D01*
X011008Y009547D02*
X012285Y009547D01*
X012285Y009705D02*
X010900Y009705D01*
X011998Y010815D02*
X012285Y010815D01*
X012285Y010974D02*
X012156Y010974D01*
X014405Y012718D02*
X014465Y012718D01*
X014405Y012876D02*
X014585Y012876D01*
X014585Y013035D02*
X014405Y013035D01*
X014438Y013193D02*
X014585Y013193D01*
X014585Y013352D02*
X014520Y013352D01*
X014502Y013510D02*
X014585Y013510D01*
X014585Y013669D02*
X014489Y013669D01*
X014520Y013827D02*
X014585Y013827D01*
X014585Y013986D02*
X014469Y013986D01*
X014520Y014145D02*
X014585Y014145D01*
X014585Y014303D02*
X014505Y014303D01*
X014585Y014462D02*
X014394Y014462D01*
X014585Y014620D02*
X013305Y014620D01*
X013305Y014462D02*
X014016Y014462D01*
X013904Y014303D02*
X013305Y014303D01*
X013305Y014145D02*
X013761Y014145D01*
X013603Y013986D02*
X013305Y013986D01*
X013305Y013827D02*
X013505Y013827D01*
X013505Y013669D02*
X013305Y013669D01*
X013305Y013510D02*
X013505Y013510D01*
X013505Y013352D02*
X013305Y013352D01*
X013305Y013193D02*
X013505Y013193D01*
X013505Y013035D02*
X013420Y013035D01*
X013305Y014779D02*
X014585Y014779D01*
X014585Y014937D02*
X013305Y014937D01*
X013305Y015096D02*
X014585Y015096D01*
X014602Y015254D02*
X013305Y015254D01*
X013305Y015413D02*
X014716Y015413D01*
X014874Y015571D02*
X013305Y015571D01*
X013392Y015730D02*
X015033Y015730D01*
X015192Y015889D02*
X013551Y015889D01*
X013710Y016047D02*
X014983Y016047D01*
X015287Y016047D02*
X015350Y016047D01*
X015426Y016206D02*
X015481Y016206D01*
X015481Y016364D02*
X015450Y016364D01*
X015481Y016523D02*
X015383Y016523D01*
X015287Y016681D02*
X015481Y016681D01*
X015481Y016840D02*
X015418Y016840D01*
X015440Y016998D02*
X015481Y016998D01*
X014963Y016681D02*
X013464Y016681D01*
X013620Y016523D02*
X013305Y016523D01*
X013461Y016364D02*
X013147Y016364D01*
X013105Y016206D02*
X013302Y016206D01*
X013144Y016047D02*
X013105Y016047D01*
X012515Y016998D02*
X012505Y016998D01*
X012505Y017157D02*
X012674Y017157D01*
X012832Y017315D02*
X012505Y017315D01*
X012505Y017474D02*
X012991Y017474D01*
X013149Y017632D02*
X012505Y017632D01*
X012505Y017791D02*
X013308Y017791D01*
X014486Y017157D02*
X014881Y017157D01*
X014898Y018108D02*
X014711Y018108D01*
X015111Y018108D02*
X015122Y018108D01*
X013142Y019535D02*
X012618Y019535D01*
X013795Y020803D02*
X010664Y020803D01*
X010579Y020645D02*
X013954Y020645D01*
X013637Y020962D02*
X010823Y020962D01*
X010981Y021120D02*
X013478Y021120D01*
X013004Y022072D02*
X017451Y022072D01*
X017241Y022230D02*
X013163Y022230D01*
X013082Y023181D02*
X012941Y023181D01*
X012742Y023340D02*
X013281Y023340D01*
X013587Y023816D02*
X009675Y023816D01*
X009742Y023340D02*
X010281Y023340D01*
X010082Y023181D02*
X009941Y023181D01*
X009281Y023340D02*
X008742Y023340D01*
X008941Y023181D02*
X009082Y023181D01*
X008951Y023657D02*
X014198Y023657D01*
X012565Y023974D02*
X010809Y023974D01*
X010742Y023340D02*
X011281Y023340D01*
X011082Y023181D02*
X010941Y023181D01*
X011742Y023340D02*
X012281Y023340D01*
X012082Y023181D02*
X011941Y023181D01*
X007845Y020417D02*
X007845Y019024D01*
X007777Y019187D01*
X007587Y019377D01*
X007339Y019480D01*
X007070Y019480D01*
X006822Y019377D01*
X006632Y019187D01*
X006605Y019120D01*
X006605Y020256D01*
X006691Y020291D01*
X006840Y020440D01*
X006920Y020635D01*
X006920Y020846D01*
X006870Y020968D01*
X006992Y020918D01*
X007203Y020918D01*
X007303Y020959D01*
X007845Y020417D01*
X007845Y020328D02*
X006727Y020328D01*
X006605Y020169D02*
X007845Y020169D01*
X007845Y020011D02*
X006605Y020011D01*
X006605Y019852D02*
X007845Y019852D01*
X007845Y019694D02*
X006605Y019694D01*
X006605Y019535D02*
X007845Y019535D01*
X007845Y019376D02*
X007588Y019376D01*
X007746Y019218D02*
X007845Y019218D01*
X007830Y019059D02*
X007845Y019059D01*
X006822Y019376D02*
X006605Y019376D01*
X006605Y019218D02*
X006663Y019218D01*
X006205Y019218D02*
X005883Y019218D01*
X005883Y019376D02*
X006205Y019376D01*
X006205Y019535D02*
X005883Y019535D01*
X005883Y019543D02*
X005984Y019584D01*
X006133Y019733D01*
X006205Y019907D01*
X006205Y017422D01*
X006322Y017305D01*
X007305Y016322D01*
X007305Y014122D01*
X007422Y014005D01*
X007602Y013825D01*
X007428Y013825D01*
X004905Y016348D01*
X004905Y017722D01*
X005883Y018701D01*
X005883Y018866D01*
X005883Y019543D01*
X006093Y019694D02*
X006205Y019694D01*
X006205Y019852D02*
X006182Y019852D01*
X006859Y020486D02*
X007776Y020486D01*
X007617Y020645D02*
X006920Y020645D01*
X006920Y020803D02*
X007459Y020803D01*
X006885Y020962D02*
X006872Y020962D01*
X005185Y019852D02*
X005092Y019852D01*
X005883Y019059D02*
X006205Y019059D01*
X006205Y018901D02*
X005883Y018901D01*
X005883Y018742D02*
X006205Y018742D01*
X006205Y018584D02*
X005766Y018584D01*
X005608Y018425D02*
X006205Y018425D01*
X006205Y018267D02*
X005449Y018267D01*
X005291Y018108D02*
X006205Y018108D01*
X006205Y017950D02*
X005132Y017950D01*
X004974Y017791D02*
X006205Y017791D01*
X006205Y017632D02*
X004905Y017632D01*
X004905Y017474D02*
X006205Y017474D01*
X006311Y017315D02*
X004905Y017315D01*
X004905Y017157D02*
X006470Y017157D01*
X006629Y016998D02*
X004905Y016998D01*
X004905Y016840D02*
X006787Y016840D01*
X006946Y016681D02*
X004905Y016681D01*
X004905Y016523D02*
X007104Y016523D01*
X007263Y016364D02*
X004905Y016364D01*
X005047Y016206D02*
X007305Y016206D01*
X007305Y016047D02*
X005206Y016047D01*
X005364Y015889D02*
X007305Y015889D01*
X007305Y015730D02*
X005523Y015730D01*
X005681Y015571D02*
X007305Y015571D01*
X007305Y015413D02*
X005840Y015413D01*
X005998Y015254D02*
X007305Y015254D01*
X007305Y015096D02*
X006157Y015096D01*
X006315Y014937D02*
X007305Y014937D01*
X007305Y014779D02*
X006474Y014779D01*
X006632Y014620D02*
X007305Y014620D01*
X007305Y014462D02*
X006791Y014462D01*
X006949Y014303D02*
X007305Y014303D01*
X007305Y014145D02*
X007108Y014145D01*
X007267Y013986D02*
X007441Y013986D01*
X007425Y013827D02*
X007599Y013827D01*
X006592Y013035D02*
X006580Y013035D01*
X006580Y013047D02*
X007405Y012222D01*
X007522Y012105D01*
X008456Y012105D01*
X008376Y012072D01*
X008288Y011983D01*
X008240Y011868D01*
X008240Y011742D01*
X008254Y011707D01*
X007860Y011313D01*
X007860Y011358D01*
X007812Y011473D01*
X007723Y011562D01*
X007607Y011610D01*
X007482Y011610D01*
X007366Y011562D01*
X007299Y011495D01*
X006637Y011495D01*
X006753Y011610D01*
X006847Y011610D01*
X006963Y011658D01*
X007052Y011747D01*
X007100Y011862D01*
X007100Y011988D01*
X007052Y012103D01*
X006963Y012192D01*
X006847Y012240D01*
X006722Y012240D01*
X006606Y012192D01*
X006518Y012103D01*
X006470Y011988D01*
X006470Y011893D01*
X006302Y011725D01*
X004768Y011725D01*
X003385Y013108D01*
X003385Y013310D01*
X003304Y013505D01*
X003155Y013654D01*
X003033Y013705D01*
X003155Y013756D01*
X003304Y013905D01*
X003385Y014100D01*
X003385Y014310D01*
X003343Y014411D01*
X003638Y014705D01*
X004422Y014705D01*
X005815Y013312D01*
X005815Y012881D01*
X005748Y012813D01*
X005700Y012698D01*
X005700Y012572D01*
X005748Y012457D01*
X005836Y012368D01*
X005952Y012320D01*
X006077Y012320D01*
X006193Y012368D01*
X006282Y012457D01*
X006330Y012572D01*
X006330Y012671D01*
X006443Y012718D01*
X006532Y012807D01*
X006580Y012922D01*
X006580Y013047D01*
X006561Y012876D02*
X006751Y012876D01*
X006909Y012718D02*
X006442Y012718D01*
X006324Y012559D02*
X007068Y012559D01*
X007226Y012401D02*
X006226Y012401D01*
X005804Y012401D02*
X004092Y012401D01*
X003933Y012559D02*
X005705Y012559D01*
X005708Y012718D02*
X003775Y012718D01*
X003616Y012876D02*
X005810Y012876D01*
X005815Y013035D02*
X003458Y013035D01*
X003385Y013193D02*
X005815Y013193D01*
X005775Y013352D02*
X003368Y013352D01*
X003299Y013510D02*
X005617Y013510D01*
X005458Y013669D02*
X003120Y013669D01*
X003227Y013827D02*
X005299Y013827D01*
X005141Y013986D02*
X003338Y013986D01*
X003385Y014145D02*
X004982Y014145D01*
X004824Y014303D02*
X003385Y014303D01*
X003394Y014462D02*
X004665Y014462D01*
X004507Y014620D02*
X003553Y014620D01*
X004251Y012242D02*
X007385Y012242D01*
X007060Y012083D02*
X008404Y012083D01*
X008263Y011925D02*
X007100Y011925D01*
X007060Y011766D02*
X008240Y011766D01*
X008155Y011608D02*
X007613Y011608D01*
X007477Y011608D02*
X006750Y011608D01*
X006470Y011925D02*
X004568Y011925D01*
X004726Y011766D02*
X006343Y011766D01*
X006509Y012083D02*
X004409Y012083D01*
X007822Y011449D02*
X007996Y011449D01*
X006055Y008754D02*
X012285Y008754D01*
X012285Y008596D02*
X006166Y008596D01*
X006213Y008437D02*
X012285Y008437D01*
X012311Y008278D02*
X006213Y008278D01*
X006688Y008120D02*
X012457Y008120D01*
X014817Y007803D02*
X006909Y007803D01*
X006843Y007961D02*
X014888Y007961D01*
X017291Y006217D02*
X008355Y006217D01*
X008342Y006376D02*
X017501Y006376D01*
X017711Y006534D02*
X008280Y006534D01*
X008138Y006693D02*
X017921Y006693D01*
X017081Y006059D02*
X013664Y006059D01*
X013909Y005900D02*
X016822Y005900D01*
X016548Y005742D02*
X014005Y005742D01*
X014042Y005583D02*
X016273Y005583D01*
X015999Y005425D02*
X014034Y005425D01*
X013968Y005266D02*
X015630Y005266D01*
X015256Y005108D02*
X013820Y005108D01*
X013773Y004632D02*
X009504Y004632D01*
X009203Y005108D02*
X008841Y005108D01*
X008870Y005129D02*
X008800Y005078D01*
X008723Y005038D01*
X008640Y005012D01*
X008555Y004998D01*
X008468Y004998D01*
X008383Y005012D01*
X008301Y005038D01*
X008223Y005078D01*
X008153Y005129D01*
X008137Y005145D01*
X008512Y005520D01*
X008886Y005145D01*
X008870Y005129D01*
X008822Y005266D02*
X008765Y005266D01*
X008664Y005425D02*
X008607Y005425D01*
X008575Y005583D02*
X008518Y005583D01*
X008417Y005425D02*
X008360Y005425D01*
X008258Y005266D02*
X008201Y005266D01*
X008182Y005108D02*
X007932Y005108D01*
X008038Y005266D02*
X007569Y005266D01*
X007250Y005425D02*
X007974Y005425D01*
X008382Y004949D02*
X014881Y004949D01*
X014330Y004790D02*
X008832Y004790D01*
X008985Y005266D02*
X009055Y005266D01*
X008734Y005742D02*
X008677Y005742D01*
X008835Y005900D02*
X008892Y005900D01*
X008936Y005900D02*
X009114Y005900D01*
X009359Y006059D02*
X008720Y006059D01*
X009664Y006059D02*
X010303Y006059D01*
X010492Y006059D02*
X010532Y006059D01*
X010532Y005900D02*
X010492Y005900D01*
X010492Y005742D02*
X010532Y005742D01*
X010532Y005583D02*
X010492Y005583D01*
X010492Y005425D02*
X010532Y005425D01*
X010532Y005266D02*
X010492Y005266D01*
X010492Y005108D02*
X010532Y005108D01*
X010841Y005108D02*
X011203Y005108D01*
X011055Y005266D02*
X010985Y005266D01*
X011820Y005108D02*
X012182Y005108D01*
X012038Y005266D02*
X011968Y005266D01*
X012491Y005266D02*
X012532Y005266D01*
X012532Y005108D02*
X012491Y005108D01*
X012491Y005425D02*
X012532Y005425D01*
X012532Y005583D02*
X012491Y005583D01*
X012491Y005742D02*
X012532Y005742D01*
X012532Y005900D02*
X012491Y005900D01*
X012491Y006059D02*
X012532Y006059D01*
X012720Y006059D02*
X013359Y006059D01*
X013114Y005900D02*
X012936Y005900D01*
X012303Y006059D02*
X011664Y006059D01*
X011909Y005900D02*
X012088Y005900D01*
X011359Y006059D02*
X010720Y006059D01*
X010936Y005900D02*
X011114Y005900D01*
X010088Y005900D02*
X009909Y005900D01*
X009968Y005266D02*
X010038Y005266D01*
X010182Y005108D02*
X009820Y005108D01*
X010404Y004473D02*
X012807Y004473D01*
X012841Y005108D02*
X013203Y005108D01*
X013055Y005266D02*
X012985Y005266D01*
X007383Y005900D02*
X006394Y005900D01*
X006155Y006059D02*
X007290Y006059D01*
X007255Y006217D02*
X005916Y006217D01*
X006566Y007169D02*
X006586Y007169D01*
D14*
X015295Y007675D03*
X015945Y008125D03*
D15*
X012605Y008405D02*
X012605Y011115D01*
X012675Y011185D01*
X013385Y011185D01*
X014905Y012705D01*
X014905Y012805D01*
X014905Y014605D01*
X014905Y015149D01*
X015383Y015627D01*
X015801Y016045D01*
X015801Y017299D01*
X015275Y017825D01*
D16*
X015005Y018405D02*
X014605Y018405D01*
X015005Y018405D02*
X017405Y018405D01*
X017705Y018105D01*
X017705Y008905D01*
X015855Y007055D01*
X011855Y007055D01*
X011805Y007105D01*
X012675Y011185D02*
X013075Y011185D01*
X014905Y014605D02*
X016505Y014605D01*
X016605Y014705D01*
D17*
X014605Y018405D02*
X014355Y018655D01*
X014355Y019605D01*
X014355Y020555D01*
X013455Y021455D01*
X011005Y021455D01*
X010355Y020805D01*
X010305Y020805D01*
M02*
