G75*
G70*
%OFA0B0*%
%FSLAX24Y24*%
%IPPOS*%
%LPD*%
%AMOC8*
5,1,8,0,0,1.08239X$1,22.5*
%
%ADD10C,0.0001*%
%ADD11C,0.0000*%
D10*
X001555Y014205D02*
X001567Y014698D01*
X001603Y015190D01*
X001664Y015680D01*
X001748Y016166D01*
X001856Y016647D01*
X001988Y017122D01*
X002142Y017591D01*
X002320Y018051D01*
X002520Y018502D01*
X002742Y018943D01*
X002985Y019372D01*
X003249Y019788D01*
X003533Y020192D01*
X003836Y020581D01*
X004158Y020954D01*
X004499Y021311D01*
X004856Y021652D01*
X005229Y021974D01*
X005618Y022277D01*
X006022Y022561D01*
X006438Y022825D01*
X006867Y023068D01*
X007308Y023290D01*
X007759Y023490D01*
X008219Y023668D01*
X008688Y023822D01*
X009163Y023954D01*
X009644Y024062D01*
X010130Y024146D01*
X010620Y024207D01*
X011112Y024243D01*
X011605Y024255D01*
X012098Y024243D01*
X012590Y024207D01*
X013080Y024146D01*
X013566Y024062D01*
X014047Y023954D01*
X014522Y023822D01*
X014991Y023668D01*
X015451Y023490D01*
X015902Y023290D01*
X016343Y023068D01*
X016772Y022825D01*
X017188Y022561D01*
X017592Y022277D01*
X017981Y021974D01*
X018354Y021652D01*
X018711Y021311D01*
X019052Y020954D01*
X019374Y020581D01*
X019677Y020192D01*
X019961Y019788D01*
X020225Y019372D01*
X020468Y018943D01*
X020690Y018502D01*
X020890Y018051D01*
X021068Y017591D01*
X021222Y017122D01*
X021354Y016647D01*
X021462Y016166D01*
X021546Y015680D01*
X021607Y015190D01*
X021643Y014698D01*
X021655Y014205D01*
X021643Y013712D01*
X021607Y013220D01*
X021546Y012730D01*
X021462Y012244D01*
X021354Y011763D01*
X021222Y011288D01*
X021068Y010819D01*
X020890Y010359D01*
X020690Y009908D01*
X020468Y009467D01*
X020225Y009038D01*
X019961Y008622D01*
X019677Y008218D01*
X019374Y007829D01*
X019052Y007456D01*
X018711Y007099D01*
X018354Y006758D01*
X017981Y006436D01*
X017592Y006133D01*
X017188Y005849D01*
X016772Y005585D01*
X016343Y005342D01*
X015902Y005120D01*
X015451Y004920D01*
X014991Y004742D01*
X014522Y004588D01*
X014047Y004456D01*
X013566Y004348D01*
X013080Y004264D01*
X012590Y004203D01*
X012098Y004167D01*
X011605Y004155D01*
X011112Y004167D01*
X010620Y004203D01*
X010130Y004264D01*
X009644Y004348D01*
X009163Y004456D01*
X008688Y004588D01*
X008219Y004742D01*
X007759Y004920D01*
X007308Y005120D01*
X006867Y005342D01*
X006438Y005585D01*
X006022Y005849D01*
X005618Y006133D01*
X005229Y006436D01*
X004856Y006758D01*
X004499Y007099D01*
X004158Y007456D01*
X003836Y007829D01*
X003533Y008218D01*
X003249Y008622D01*
X002985Y009038D01*
X002742Y009467D01*
X002520Y009908D01*
X002320Y010359D01*
X002142Y010819D01*
X001988Y011288D01*
X001856Y011763D01*
X001748Y012244D01*
X001664Y012730D01*
X001603Y013220D01*
X001567Y013712D01*
X001555Y014205D01*
D11*
X006760Y009605D02*
X006762Y009647D01*
X006768Y009688D01*
X006777Y009729D01*
X006791Y009768D01*
X006808Y009806D01*
X006829Y009842D01*
X006852Y009877D01*
X006879Y009908D01*
X006909Y009938D01*
X006942Y009964D01*
X006977Y009987D01*
X007013Y010007D01*
X007052Y010023D01*
X007092Y010035D01*
X007132Y010044D01*
X007174Y010049D01*
X007215Y010050D01*
X007257Y010047D01*
X007298Y010040D01*
X007339Y010029D01*
X007378Y010015D01*
X007415Y009997D01*
X007451Y009976D01*
X007485Y009951D01*
X007516Y009923D01*
X007544Y009893D01*
X007570Y009860D01*
X007592Y009824D01*
X007611Y009787D01*
X007626Y009748D01*
X007638Y009708D01*
X007646Y009667D01*
X007650Y009626D01*
X007650Y009584D01*
X007646Y009543D01*
X007638Y009502D01*
X007626Y009462D01*
X007611Y009423D01*
X007592Y009386D01*
X007570Y009350D01*
X007544Y009317D01*
X007516Y009287D01*
X007485Y009259D01*
X007451Y009234D01*
X007415Y009213D01*
X007378Y009195D01*
X007339Y009181D01*
X007298Y009170D01*
X007257Y009163D01*
X007215Y009160D01*
X007174Y009161D01*
X007132Y009166D01*
X007092Y009175D01*
X007052Y009187D01*
X007013Y009203D01*
X006977Y009223D01*
X006942Y009246D01*
X006909Y009272D01*
X006879Y009302D01*
X006852Y009333D01*
X006829Y009368D01*
X006808Y009404D01*
X006791Y009442D01*
X006777Y009481D01*
X006768Y009522D01*
X006762Y009563D01*
X006760Y009605D01*
X006760Y018805D02*
X006762Y018847D01*
X006768Y018888D01*
X006777Y018929D01*
X006791Y018968D01*
X006808Y019006D01*
X006829Y019042D01*
X006852Y019077D01*
X006879Y019108D01*
X006909Y019138D01*
X006942Y019164D01*
X006977Y019187D01*
X007013Y019207D01*
X007052Y019223D01*
X007092Y019235D01*
X007132Y019244D01*
X007174Y019249D01*
X007215Y019250D01*
X007257Y019247D01*
X007298Y019240D01*
X007339Y019229D01*
X007378Y019215D01*
X007415Y019197D01*
X007451Y019176D01*
X007485Y019151D01*
X007516Y019123D01*
X007544Y019093D01*
X007570Y019060D01*
X007592Y019024D01*
X007611Y018987D01*
X007626Y018948D01*
X007638Y018908D01*
X007646Y018867D01*
X007650Y018826D01*
X007650Y018784D01*
X007646Y018743D01*
X007638Y018702D01*
X007626Y018662D01*
X007611Y018623D01*
X007592Y018586D01*
X007570Y018550D01*
X007544Y018517D01*
X007516Y018487D01*
X007485Y018459D01*
X007451Y018434D01*
X007415Y018413D01*
X007378Y018395D01*
X007339Y018381D01*
X007298Y018370D01*
X007257Y018363D01*
X007215Y018360D01*
X007174Y018361D01*
X007132Y018366D01*
X007092Y018375D01*
X007052Y018387D01*
X007013Y018403D01*
X006977Y018423D01*
X006942Y018446D01*
X006909Y018472D01*
X006879Y018502D01*
X006852Y018533D01*
X006829Y018568D01*
X006808Y018604D01*
X006791Y018642D01*
X006777Y018681D01*
X006768Y018722D01*
X006762Y018763D01*
X006760Y018805D01*
X019260Y018805D02*
X019262Y018847D01*
X019268Y018888D01*
X019277Y018929D01*
X019291Y018968D01*
X019308Y019006D01*
X019329Y019042D01*
X019352Y019077D01*
X019379Y019108D01*
X019409Y019138D01*
X019442Y019164D01*
X019477Y019187D01*
X019513Y019207D01*
X019552Y019223D01*
X019592Y019235D01*
X019632Y019244D01*
X019674Y019249D01*
X019715Y019250D01*
X019757Y019247D01*
X019798Y019240D01*
X019839Y019229D01*
X019878Y019215D01*
X019915Y019197D01*
X019951Y019176D01*
X019985Y019151D01*
X020016Y019123D01*
X020044Y019093D01*
X020070Y019060D01*
X020092Y019024D01*
X020111Y018987D01*
X020126Y018948D01*
X020138Y018908D01*
X020146Y018867D01*
X020150Y018826D01*
X020150Y018784D01*
X020146Y018743D01*
X020138Y018702D01*
X020126Y018662D01*
X020111Y018623D01*
X020092Y018586D01*
X020070Y018550D01*
X020044Y018517D01*
X020016Y018487D01*
X019985Y018459D01*
X019951Y018434D01*
X019915Y018413D01*
X019878Y018395D01*
X019839Y018381D01*
X019798Y018370D01*
X019757Y018363D01*
X019715Y018360D01*
X019674Y018361D01*
X019632Y018366D01*
X019592Y018375D01*
X019552Y018387D01*
X019513Y018403D01*
X019477Y018423D01*
X019442Y018446D01*
X019409Y018472D01*
X019379Y018502D01*
X019352Y018533D01*
X019329Y018568D01*
X019308Y018604D01*
X019291Y018642D01*
X019277Y018681D01*
X019268Y018722D01*
X019262Y018763D01*
X019260Y018805D01*
X019260Y009605D02*
X019262Y009647D01*
X019268Y009688D01*
X019277Y009729D01*
X019291Y009768D01*
X019308Y009806D01*
X019329Y009842D01*
X019352Y009877D01*
X019379Y009908D01*
X019409Y009938D01*
X019442Y009964D01*
X019477Y009987D01*
X019513Y010007D01*
X019552Y010023D01*
X019592Y010035D01*
X019632Y010044D01*
X019674Y010049D01*
X019715Y010050D01*
X019757Y010047D01*
X019798Y010040D01*
X019839Y010029D01*
X019878Y010015D01*
X019915Y009997D01*
X019951Y009976D01*
X019985Y009951D01*
X020016Y009923D01*
X020044Y009893D01*
X020070Y009860D01*
X020092Y009824D01*
X020111Y009787D01*
X020126Y009748D01*
X020138Y009708D01*
X020146Y009667D01*
X020150Y009626D01*
X020150Y009584D01*
X020146Y009543D01*
X020138Y009502D01*
X020126Y009462D01*
X020111Y009423D01*
X020092Y009386D01*
X020070Y009350D01*
X020044Y009317D01*
X020016Y009287D01*
X019985Y009259D01*
X019951Y009234D01*
X019915Y009213D01*
X019878Y009195D01*
X019839Y009181D01*
X019798Y009170D01*
X019757Y009163D01*
X019715Y009160D01*
X019674Y009161D01*
X019632Y009166D01*
X019592Y009175D01*
X019552Y009187D01*
X019513Y009203D01*
X019477Y009223D01*
X019442Y009246D01*
X019409Y009272D01*
X019379Y009302D01*
X019352Y009333D01*
X019329Y009368D01*
X019308Y009404D01*
X019291Y009442D01*
X019277Y009481D01*
X019268Y009522D01*
X019262Y009563D01*
X019260Y009605D01*
M02*
