G75*
G70*
%OFA0B0*%
%FSLAX24Y24*%
%IPPOS*%
%LPD*%
%AMOC8*
5,1,8,0,0,1.08239X$1,22.5*
%
%ADD10C,0.0515*%
%ADD11C,0.0310*%
%ADD12C,0.0080*%
%ADD13C,0.0060*%
%ADD14C,0.0240*%
%ADD15C,0.0160*%
%ADD16C,0.0120*%
D10*
X008411Y005851D03*
X007704Y006558D03*
X006997Y007265D03*
X006290Y007972D03*
X005583Y008679D03*
X004875Y009386D03*
X004168Y010093D03*
X003461Y010800D03*
X002754Y011507D03*
X002754Y012507D03*
X002754Y013507D03*
X002754Y014507D03*
X002754Y015507D03*
X002754Y016507D03*
X002754Y017507D03*
X003461Y018214D03*
X004168Y018922D03*
X004875Y019629D03*
X005583Y020336D03*
X006290Y021043D03*
X006997Y021750D03*
X007704Y022457D03*
X008411Y023164D03*
X009411Y023164D03*
X010411Y023164D03*
X011411Y023164D03*
X012411Y023164D03*
X013411Y023164D03*
X013411Y005851D03*
X012411Y005851D03*
X011411Y005851D03*
X010411Y005851D03*
X009411Y005851D03*
D11*
X011484Y006967D03*
X013164Y007207D03*
X013164Y007607D03*
X013894Y008257D03*
X014764Y007767D03*
X015404Y007207D03*
X015724Y007527D03*
X016044Y007847D03*
X016604Y007047D03*
X016284Y006727D03*
X015964Y006407D03*
X018254Y008257D03*
X018254Y008757D03*
X018254Y009257D03*
X018254Y009757D03*
X018254Y010257D03*
X018254Y010757D03*
X018254Y011257D03*
X018254Y011757D03*
X018254Y012257D03*
X018254Y012757D03*
X018244Y013297D03*
X017954Y014957D03*
X017164Y014967D03*
X016374Y015267D03*
X015884Y016327D03*
X015404Y016247D03*
X014764Y016887D03*
X014764Y017367D03*
X014414Y017977D03*
X014004Y017987D03*
X014080Y018687D03*
X014494Y018687D03*
X015104Y019087D03*
X014684Y019287D03*
X013564Y018727D03*
X012444Y018727D03*
X011384Y019437D03*
X010644Y019437D03*
X011084Y020647D03*
X011484Y021047D03*
X011884Y021527D03*
X011084Y021527D03*
X010204Y021447D03*
X010184Y021827D03*
X010204Y021047D03*
X007804Y020487D03*
X007854Y018307D03*
X008764Y017607D03*
X009164Y017767D03*
X008104Y016507D03*
X007104Y015707D03*
X006204Y015447D03*
X005244Y016247D03*
X006514Y016697D03*
X008284Y015367D03*
X008684Y015367D03*
X009164Y015367D03*
X009164Y014887D03*
X009504Y014307D03*
X009904Y014307D03*
X010304Y014307D03*
X011104Y014607D03*
X012364Y015127D03*
X013884Y014567D03*
X013884Y014167D03*
X013884Y013767D03*
X014364Y013767D03*
X014364Y013287D03*
X014844Y013287D03*
X015164Y012967D03*
X014444Y012567D03*
X013884Y012647D03*
X012804Y012107D03*
X012754Y011757D03*
X012804Y011407D03*
X013924Y010527D03*
X014434Y010977D03*
X015244Y010487D03*
X015804Y010487D03*
X015804Y009607D03*
X016684Y010407D03*
X017084Y010407D03*
X013894Y009837D03*
X012644Y008937D03*
X012324Y008937D03*
X012324Y008507D03*
X012644Y008507D03*
X011644Y010167D03*
X010604Y010907D03*
X011204Y011307D03*
X010484Y012077D03*
X010064Y012067D03*
X009084Y012087D03*
X008604Y012087D03*
X008604Y012727D03*
X008204Y012727D03*
X007704Y012107D03*
X007204Y011807D03*
X007644Y011447D03*
X008364Y010887D03*
X009004Y010887D03*
X009004Y010487D03*
X009404Y010487D03*
X010404Y009807D03*
X009564Y008407D03*
X007024Y009467D03*
X006684Y008887D03*
X005884Y009527D03*
X006704Y011807D03*
X005864Y012887D03*
X006364Y013287D03*
X008044Y013927D03*
X008044Y014327D03*
X008444Y014327D03*
X007724Y014647D03*
X009644Y013527D03*
X009964Y013287D03*
X009644Y012887D03*
X011104Y012507D03*
X012804Y013607D03*
X015254Y014507D03*
X013644Y016407D03*
X011504Y016507D03*
X011004Y016507D03*
X010404Y016407D03*
X006204Y018007D03*
X005244Y018007D03*
X012784Y020497D03*
X013084Y020167D03*
X013564Y020167D03*
X012784Y021407D03*
X014144Y022407D03*
X014284Y022967D03*
X014444Y023687D03*
X018254Y019757D03*
X018254Y019257D03*
X018254Y018757D03*
X018254Y018257D03*
X018254Y017757D03*
X017084Y017287D03*
X017084Y016887D03*
X016604Y017287D03*
X004724Y012087D03*
D12*
X004224Y011507D02*
X002754Y011507D01*
X003461Y010800D02*
X008277Y010800D01*
X008364Y010887D01*
X008444Y010567D02*
X004643Y010567D01*
X004168Y010093D01*
X004875Y009386D02*
X005897Y010407D01*
X008524Y010407D01*
X009004Y010887D01*
X008684Y010807D02*
X008684Y011047D01*
X009084Y011447D01*
X009084Y012087D01*
X009484Y012247D02*
X009484Y010887D01*
X009724Y010647D01*
X009724Y008567D01*
X009564Y008407D01*
X009264Y008107D02*
X010464Y008107D01*
X010784Y008427D01*
X010784Y009467D01*
X011104Y009787D01*
X011104Y010267D01*
X011504Y010667D01*
X013784Y010667D01*
X013924Y010527D01*
X014204Y010647D02*
X013964Y010887D01*
X012384Y010887D01*
X011564Y011707D01*
X009904Y011707D01*
X009704Y011907D01*
X009704Y012227D01*
X010444Y012967D01*
X010444Y013667D01*
X010104Y014007D01*
X009364Y014007D01*
X009224Y014147D01*
X009224Y014827D01*
X009164Y014887D01*
X008844Y015047D02*
X009164Y015367D01*
X008844Y015047D02*
X008844Y014247D01*
X009264Y013827D01*
X009984Y013827D01*
X010284Y013527D01*
X010284Y013047D01*
X009804Y012567D01*
X009404Y012567D01*
X008964Y013007D01*
X007104Y013007D01*
X003604Y016507D01*
X002754Y016507D01*
X003461Y017050D02*
X003461Y018214D01*
X002804Y017507D02*
X002754Y017507D01*
X002804Y017507D02*
X007104Y013207D01*
X009164Y013207D01*
X009484Y012887D01*
X009644Y012887D01*
X009484Y013207D02*
X009884Y013207D01*
X009964Y013287D01*
X009644Y013527D02*
X009564Y013607D01*
X007884Y013607D01*
X007724Y013767D01*
X006944Y013767D01*
X004168Y016543D01*
X004168Y018922D01*
X004875Y019629D02*
X004875Y016056D01*
X007004Y013927D01*
X008044Y013927D01*
X008044Y014327D02*
X006844Y014327D01*
X005583Y015589D01*
X005583Y020336D01*
X005639Y021043D02*
X006290Y021043D01*
X005639Y021043D02*
X002304Y017707D01*
X002304Y014387D01*
X002684Y014007D01*
X004104Y014007D01*
X006304Y011807D01*
X006704Y011807D01*
X006904Y011507D02*
X005904Y011507D01*
X003884Y013527D01*
X002774Y013527D01*
X002754Y013507D01*
X002754Y012507D02*
X003464Y012507D01*
X004684Y011287D01*
X007004Y011287D01*
X006904Y011507D02*
X007204Y011807D01*
X007704Y012107D02*
X007704Y012227D01*
X008204Y012727D01*
X008604Y012727D02*
X009004Y012727D01*
X009484Y012247D01*
X010064Y012067D02*
X011924Y013927D01*
X011924Y020547D01*
X012784Y021407D01*
X013484Y021847D02*
X014684Y020647D01*
X014684Y019287D01*
X015104Y019087D02*
X015104Y020507D01*
X013604Y022007D01*
X010364Y022007D01*
X010184Y021827D01*
X010204Y021447D02*
X010604Y021847D01*
X013484Y021847D01*
X013984Y022247D02*
X014144Y022407D01*
X013984Y022247D02*
X010044Y022247D01*
X009804Y022007D01*
X009804Y021447D01*
X010204Y021047D01*
X009644Y022087D02*
X009644Y018647D01*
X009904Y018387D01*
X009904Y014807D01*
X010304Y014407D01*
X010304Y014307D01*
X009904Y014307D02*
X009904Y014407D01*
X009704Y014607D01*
X009704Y018307D01*
X009444Y018567D01*
X009444Y022127D01*
X009884Y022567D01*
X011814Y022567D01*
X012411Y023164D01*
X012654Y022407D02*
X013411Y023164D01*
X012654Y022407D02*
X009964Y022407D01*
X009644Y022087D01*
X009244Y022147D02*
X009824Y022727D01*
X010974Y022727D01*
X011411Y023164D01*
X010411Y023164D02*
X009961Y023164D01*
X009084Y022287D01*
X009084Y017927D01*
X009164Y017847D01*
X009164Y017767D01*
X008824Y017707D02*
X008824Y022577D01*
X009411Y023164D01*
X008411Y023164D02*
X008404Y023157D01*
X008404Y022307D01*
X007484Y021387D01*
X007484Y016567D01*
X008684Y015367D01*
X008284Y015367D02*
X008284Y015527D01*
X007324Y016487D01*
X007324Y021427D01*
X007704Y021807D01*
X007704Y022457D01*
X007704Y022457D01*
X006997Y021750D02*
X007164Y021583D01*
X007164Y016407D01*
X007944Y015627D01*
X007944Y015007D01*
X008444Y014507D01*
X008444Y014327D01*
X007724Y014647D02*
X007724Y015607D01*
X007004Y016327D01*
X007004Y017207D01*
X006204Y018007D01*
X008764Y017647D02*
X008824Y017707D01*
X008764Y017647D02*
X008764Y017607D01*
X009504Y018207D02*
X009504Y014307D01*
X009284Y013407D02*
X009484Y013207D01*
X009284Y013407D02*
X007104Y013407D01*
X003461Y017050D01*
X004144Y015507D02*
X002754Y015507D01*
X002754Y014507D02*
X004244Y014507D01*
X005864Y012887D01*
X006364Y013287D02*
X004144Y015507D01*
X008604Y012087D02*
X008604Y011927D01*
X007804Y011127D01*
X004604Y011127D01*
X004224Y011507D01*
X007024Y009467D02*
X007904Y009467D01*
X009264Y008107D01*
X009724Y007447D02*
X008284Y008887D01*
X006684Y008887D01*
X006290Y009133D02*
X006290Y007972D01*
X005583Y008679D02*
X007151Y010247D01*
X008764Y010247D01*
X009004Y010487D01*
X009004Y010087D02*
X007244Y010087D01*
X006290Y009133D01*
X008444Y010567D02*
X008684Y010807D01*
X009004Y010087D02*
X009404Y010487D01*
X011324Y010247D02*
X011564Y010487D01*
X013244Y010487D01*
X013894Y009837D01*
X013894Y008257D01*
X014204Y008087D02*
X014204Y010647D01*
X014434Y010977D02*
X014434Y008077D01*
X013564Y007207D01*
X013164Y007207D01*
X013164Y007607D02*
X013724Y007607D01*
X014204Y008087D01*
X014764Y008167D02*
X014764Y012247D01*
X014444Y012567D01*
X014364Y013287D02*
X013124Y013287D01*
X012804Y013607D01*
X012104Y013907D02*
X012104Y019817D01*
X012784Y020497D01*
X011404Y019607D02*
X011404Y019457D01*
X011384Y019437D01*
X011404Y019607D02*
X011224Y019787D01*
X010544Y019787D01*
X010104Y019347D01*
X010104Y016207D01*
X010404Y016407D02*
X010764Y016047D01*
X011044Y016047D01*
X011504Y016507D01*
X011004Y016507D02*
X010644Y016867D01*
X010644Y019437D01*
X009504Y018207D02*
X009244Y018467D01*
X009244Y022147D01*
X013644Y018027D02*
X013904Y018287D01*
X016724Y018287D01*
X017404Y017607D01*
X017404Y017207D01*
X017084Y016887D01*
X017084Y017287D02*
X017084Y017637D01*
X016744Y017977D01*
X014414Y017977D01*
X014414Y015717D01*
X013404Y014707D01*
X013404Y014247D01*
X013884Y013767D01*
X013884Y014167D02*
X013604Y014447D01*
X013604Y014707D01*
X014764Y015867D01*
X014764Y016887D01*
X015084Y017087D02*
X014804Y017367D01*
X014764Y017367D01*
X015084Y017087D02*
X015084Y015927D01*
X013884Y014727D01*
X013884Y014567D01*
X014364Y014087D01*
X014364Y013767D01*
X013204Y014607D02*
X013204Y014807D01*
X014204Y015807D01*
X014204Y017787D01*
X014004Y017987D01*
X013644Y018027D02*
X013644Y016407D01*
X013204Y014607D02*
X011104Y012507D01*
X010504Y012307D02*
X010504Y012097D01*
X010484Y012077D01*
X010504Y012307D02*
X012104Y013907D01*
X011324Y010247D02*
X011324Y007687D01*
X011084Y007447D01*
X009724Y007447D01*
X011484Y006967D02*
X011564Y006887D01*
X013484Y006887D01*
X014764Y008167D01*
D13*
X007644Y011447D02*
X007484Y011287D01*
X007004Y011287D01*
X011104Y014607D02*
X010104Y015607D01*
X010104Y016207D01*
D14*
X014080Y018687D02*
X015404Y018687D01*
X014144Y022367D02*
X014144Y022407D01*
X011644Y010167D02*
X011644Y007687D01*
X011084Y007127D01*
X011084Y006167D01*
X011401Y005851D01*
X011411Y005851D01*
D15*
X008075Y005568D02*
X007468Y005568D01*
X007676Y005465D02*
X006594Y006003D01*
X005586Y006671D01*
X004668Y007458D01*
X003854Y008351D01*
X003155Y009338D01*
X002583Y010403D01*
X002146Y011531D01*
X001852Y012703D01*
X002383Y012703D01*
X002400Y012744D02*
X002337Y012590D01*
X002337Y012424D01*
X002400Y012271D01*
X002518Y012153D01*
X002671Y012090D01*
X002837Y012090D01*
X002990Y012153D01*
X003108Y012271D01*
X003123Y012307D01*
X003381Y012307D01*
X003981Y011707D01*
X003123Y011707D01*
X003108Y011744D01*
X002991Y011861D01*
X002837Y011925D01*
X002671Y011925D01*
X002518Y011861D01*
X002400Y011744D01*
X002337Y011590D01*
X002337Y011424D01*
X002400Y011271D01*
X002518Y011153D01*
X002671Y011090D01*
X002837Y011090D01*
X002991Y011153D01*
X003108Y011271D01*
X003123Y011307D01*
X004141Y011307D01*
X004448Y011000D01*
X003830Y011000D01*
X003815Y011037D01*
X003698Y011154D01*
X003544Y011218D01*
X003378Y011218D01*
X003225Y011154D01*
X003107Y011037D01*
X003044Y010883D01*
X003044Y010717D01*
X003107Y010564D01*
X003225Y010446D01*
X003378Y010383D01*
X003544Y010383D01*
X003698Y010446D01*
X003815Y010564D01*
X003830Y010600D01*
X004393Y010600D01*
X004288Y010495D01*
X004251Y010511D01*
X004085Y010511D01*
X003932Y010447D01*
X003814Y010330D01*
X003751Y010176D01*
X003751Y010010D01*
X003814Y009857D01*
X003932Y009739D01*
X004085Y009676D01*
X004251Y009676D01*
X004405Y009739D01*
X004522Y009857D01*
X004586Y010010D01*
X004586Y010176D01*
X004571Y010213D01*
X004725Y010367D01*
X005574Y010367D01*
X004995Y009788D01*
X004958Y009804D01*
X004792Y009804D01*
X004639Y009740D01*
X004521Y009623D01*
X004458Y009469D01*
X004458Y009303D01*
X004521Y009150D01*
X004639Y009032D01*
X004792Y008969D01*
X004958Y008969D01*
X005112Y009032D01*
X005229Y009150D01*
X005293Y009303D01*
X005293Y009469D01*
X005278Y009506D01*
X005980Y010207D01*
X006828Y010207D01*
X005702Y009081D01*
X005666Y009096D01*
X005499Y009096D01*
X005346Y009033D01*
X005229Y008915D01*
X005165Y008762D01*
X005165Y008596D01*
X005229Y008442D01*
X005346Y008325D01*
X005499Y008261D01*
X005666Y008261D01*
X005819Y008325D01*
X005936Y008442D01*
X006000Y008596D01*
X006000Y008762D01*
X005985Y008798D01*
X006090Y008903D01*
X006090Y008341D01*
X006053Y008326D01*
X005936Y008208D01*
X005872Y008055D01*
X005872Y007889D01*
X005936Y007735D01*
X006053Y007618D01*
X006206Y007554D01*
X006373Y007554D01*
X006526Y007618D01*
X006643Y007735D01*
X006707Y007889D01*
X006707Y008055D01*
X006643Y008208D01*
X006526Y008326D01*
X006490Y008341D01*
X006490Y008636D01*
X006505Y008620D01*
X006621Y008572D01*
X006747Y008572D01*
X006862Y008620D01*
X006929Y008687D01*
X008201Y008687D01*
X009524Y007365D01*
X009524Y007365D01*
X009641Y007247D01*
X010831Y007247D01*
X010804Y007183D01*
X010804Y007072D01*
X010804Y006223D01*
X010804Y006112D01*
X010847Y006009D01*
X010993Y005862D01*
X010993Y005768D01*
X011057Y005614D01*
X011174Y005497D01*
X011328Y005433D01*
X011494Y005433D01*
X011647Y005497D01*
X011765Y005614D01*
X011828Y005768D01*
X011828Y005929D01*
X012307Y006407D01*
X014172Y006407D01*
X014260Y006444D01*
X014327Y006511D01*
X016487Y008671D01*
X016524Y008760D01*
X016524Y008855D01*
X016524Y013240D01*
X016524Y014647D01*
X017132Y014647D01*
X017144Y014652D01*
X017227Y014652D01*
X017324Y014693D01*
X017324Y008747D01*
X013864Y005287D01*
X010303Y005287D01*
X009827Y005764D01*
X009828Y005768D01*
X009828Y005934D01*
X009765Y006087D01*
X009647Y006204D01*
X009494Y006268D01*
X009328Y006268D01*
X009174Y006204D01*
X009057Y006087D01*
X008993Y005934D01*
X008993Y005768D01*
X009057Y005614D01*
X009174Y005497D01*
X009328Y005433D01*
X009479Y005433D01*
X010000Y004911D01*
X010068Y004844D01*
X010156Y004807D01*
X012911Y004807D01*
X012410Y004730D01*
X011202Y004692D01*
X009998Y004804D01*
X008817Y005063D01*
X007676Y005465D01*
X007831Y005410D02*
X009502Y005410D01*
X009661Y005251D02*
X008281Y005251D01*
X008308Y005424D02*
X008376Y005413D01*
X008445Y005413D01*
X008513Y005424D01*
X008579Y005445D01*
X008640Y005476D01*
X008696Y005517D01*
X008720Y005541D01*
X008411Y005850D01*
X008411Y005850D01*
X008102Y005541D01*
X008126Y005517D01*
X008182Y005476D01*
X008243Y005445D01*
X008308Y005424D01*
X008129Y005568D02*
X008129Y005568D01*
X008101Y005541D02*
X008410Y005850D01*
X008411Y005850D01*
X008720Y005541D01*
X008745Y005566D01*
X008785Y005621D01*
X008816Y005683D01*
X008838Y005748D01*
X008848Y005816D01*
X008848Y005885D01*
X008838Y005953D01*
X008816Y006018D01*
X008785Y006080D01*
X008745Y006136D01*
X008720Y006160D01*
X008696Y006184D01*
X008640Y006225D01*
X008579Y006256D01*
X008513Y006277D01*
X008445Y006288D01*
X008376Y006288D01*
X008308Y006277D01*
X008243Y006256D01*
X008182Y006225D01*
X008126Y006184D01*
X008102Y006160D01*
X008411Y005851D01*
X008720Y006160D01*
X008411Y005851D01*
X008411Y005851D01*
X008410Y005851D01*
X008101Y006160D01*
X008077Y006136D01*
X008037Y006080D01*
X008005Y006018D01*
X007984Y005953D01*
X007973Y005885D01*
X007973Y005816D01*
X007984Y005748D01*
X008005Y005683D01*
X008037Y005621D01*
X008077Y005566D01*
X008101Y005541D01*
X007991Y005727D02*
X007149Y005727D01*
X006831Y005886D02*
X007974Y005886D01*
X008019Y006044D02*
X006533Y006044D01*
X006294Y006203D02*
X007448Y006203D01*
X007474Y006184D02*
X007536Y006152D01*
X007601Y006131D01*
X007669Y006120D01*
X007704Y006120D01*
X007738Y006120D01*
X007806Y006131D01*
X007872Y006152D01*
X007933Y006184D01*
X007989Y006224D01*
X008037Y006273D01*
X008078Y006328D01*
X008109Y006390D01*
X008130Y006455D01*
X008141Y006523D01*
X008141Y006557D01*
X007704Y006557D01*
X007704Y006120D01*
X007704Y006557D01*
X007704Y006557D01*
X007704Y006558D01*
X007704Y006558D01*
X007704Y006995D01*
X007738Y006995D01*
X007806Y006984D01*
X007872Y006963D01*
X007933Y006932D01*
X007989Y006891D01*
X008037Y006843D01*
X008078Y006787D01*
X008109Y006726D01*
X008130Y006660D01*
X008141Y006592D01*
X008141Y006558D01*
X007704Y006558D01*
X007704Y006995D01*
X007669Y006995D01*
X007601Y006984D01*
X007536Y006963D01*
X007474Y006932D01*
X007419Y006891D01*
X007370Y006843D01*
X007330Y006787D01*
X007298Y006726D01*
X007277Y006660D01*
X007266Y006592D01*
X007266Y006558D01*
X007703Y006558D01*
X007703Y006557D01*
X007266Y006557D01*
X007266Y006523D01*
X007277Y006455D01*
X007298Y006390D01*
X007330Y006328D01*
X007370Y006273D01*
X007419Y006224D01*
X007474Y006184D01*
X007704Y006203D02*
X007704Y006203D01*
X007704Y006361D02*
X007704Y006361D01*
X007704Y006520D02*
X007704Y006520D01*
X007704Y006678D02*
X007704Y006678D01*
X007704Y006837D02*
X007704Y006837D01*
X008042Y006837D02*
X010804Y006837D01*
X010804Y006995D02*
X007342Y006995D01*
X007330Y006980D02*
X007371Y007035D01*
X007402Y007097D01*
X007423Y007162D01*
X007434Y007230D01*
X007434Y007265D01*
X007434Y007299D01*
X007423Y007367D01*
X007402Y007433D01*
X007371Y007494D01*
X007330Y007550D01*
X007282Y007598D01*
X007226Y007639D01*
X007165Y007670D01*
X007099Y007691D01*
X007031Y007702D01*
X006997Y007702D01*
X006997Y007265D01*
X007434Y007265D01*
X006997Y007265D01*
X006997Y007265D01*
X006996Y007265D01*
X006996Y007265D01*
X006559Y007265D01*
X006559Y007299D01*
X006570Y007367D01*
X006591Y007433D01*
X006623Y007494D01*
X006663Y007550D01*
X006712Y007598D01*
X006767Y007639D01*
X006829Y007670D01*
X006894Y007691D01*
X006962Y007702D01*
X006996Y007702D01*
X006996Y007265D01*
X006559Y007265D01*
X006559Y007230D01*
X006570Y007162D01*
X006591Y007097D01*
X006623Y007035D01*
X006663Y006980D01*
X006712Y006931D01*
X006767Y006891D01*
X006829Y006859D01*
X006894Y006838D01*
X006962Y006827D01*
X006996Y006827D01*
X006996Y007264D01*
X006997Y007264D01*
X006997Y006827D01*
X007031Y006827D01*
X007099Y006838D01*
X007165Y006859D01*
X007226Y006891D01*
X007282Y006931D01*
X007330Y006980D01*
X007366Y006837D02*
X007091Y006837D01*
X006997Y006837D02*
X006996Y006837D01*
X006902Y006837D02*
X005393Y006837D01*
X005208Y006995D02*
X006652Y006995D01*
X006573Y007154D02*
X005023Y007154D01*
X004838Y007312D02*
X006561Y007312D01*
X006611Y007471D02*
X004656Y007471D01*
X004512Y007630D02*
X006041Y007630D01*
X005914Y007788D02*
X004367Y007788D01*
X004223Y007947D02*
X005872Y007947D01*
X005893Y008105D02*
X004078Y008105D01*
X003934Y008264D02*
X005494Y008264D01*
X005671Y008264D02*
X005991Y008264D01*
X005916Y008422D02*
X006090Y008422D01*
X006090Y008581D02*
X005994Y008581D01*
X006000Y008739D02*
X006090Y008739D01*
X006084Y008898D02*
X006090Y008898D01*
X005836Y009215D02*
X005256Y009215D01*
X005293Y009374D02*
X005994Y009374D01*
X006153Y009532D02*
X005304Y009532D01*
X005463Y009691D02*
X006311Y009691D01*
X006470Y009849D02*
X005621Y009849D01*
X005780Y010008D02*
X006629Y010008D01*
X006787Y010166D02*
X005938Y010166D01*
X005531Y010325D02*
X004683Y010325D01*
X004586Y010166D02*
X005373Y010166D01*
X005214Y010008D02*
X004585Y010008D01*
X004515Y009849D02*
X005056Y009849D01*
X004589Y009691D02*
X004287Y009691D01*
X004049Y009691D02*
X002966Y009691D01*
X002881Y009849D02*
X003822Y009849D01*
X003752Y010008D02*
X002796Y010008D01*
X002710Y010166D02*
X003751Y010166D01*
X003812Y010325D02*
X002625Y010325D01*
X002552Y010483D02*
X003188Y010483D01*
X003075Y010642D02*
X002491Y010642D01*
X002429Y010800D02*
X003044Y010800D01*
X003075Y010959D02*
X002368Y010959D01*
X002306Y011117D02*
X002604Y011117D01*
X002398Y011276D02*
X002245Y011276D01*
X002184Y011435D02*
X002337Y011435D01*
X002338Y011593D02*
X002131Y011593D01*
X002091Y011752D02*
X002408Y011752D01*
X002636Y011910D02*
X002051Y011910D01*
X002011Y012069D02*
X003620Y012069D01*
X003461Y012227D02*
X003064Y012227D01*
X002872Y011910D02*
X003778Y011910D01*
X003937Y011752D02*
X003100Y011752D01*
X003110Y011276D02*
X004172Y011276D01*
X004331Y011117D02*
X003734Y011117D01*
X003188Y011117D02*
X002904Y011117D01*
X003735Y010483D02*
X004019Y010483D01*
X004484Y009532D02*
X003051Y009532D01*
X003136Y009374D02*
X004458Y009374D01*
X004494Y009215D02*
X003242Y009215D01*
X003355Y009056D02*
X004615Y009056D01*
X005136Y009056D02*
X005403Y009056D01*
X005221Y008898D02*
X003467Y008898D01*
X003579Y008739D02*
X005165Y008739D01*
X005171Y008581D02*
X003691Y008581D01*
X003804Y008422D02*
X005249Y008422D01*
X006490Y008422D02*
X008466Y008422D01*
X008308Y008581D02*
X006767Y008581D01*
X006601Y008581D02*
X006490Y008581D01*
X006588Y008264D02*
X008625Y008264D01*
X008783Y008105D02*
X006686Y008105D01*
X006707Y007947D02*
X008942Y007947D01*
X009100Y007788D02*
X006665Y007788D01*
X006755Y007630D02*
X006538Y007630D01*
X006996Y007630D02*
X006997Y007630D01*
X006996Y007471D02*
X006997Y007471D01*
X006996Y007312D02*
X006997Y007312D01*
X006996Y007154D02*
X006997Y007154D01*
X006996Y006995D02*
X006997Y006995D01*
X007421Y007154D02*
X010804Y007154D01*
X010804Y006678D02*
X008125Y006678D01*
X008141Y006520D02*
X010804Y006520D01*
X010804Y006361D02*
X008095Y006361D01*
X008151Y006203D02*
X007959Y006203D01*
X008217Y006044D02*
X008218Y006044D01*
X008376Y005886D02*
X008376Y005886D01*
X008446Y005886D02*
X008446Y005886D01*
X008534Y005727D02*
X008535Y005727D01*
X008693Y005568D02*
X008693Y005568D01*
X008747Y005568D02*
X009103Y005568D01*
X009010Y005727D02*
X008831Y005727D01*
X008848Y005886D02*
X008993Y005886D01*
X009039Y006044D02*
X008803Y006044D01*
X008605Y006044D02*
X008604Y006044D01*
X008671Y006203D02*
X009172Y006203D01*
X009411Y005851D02*
X009411Y005841D01*
X010204Y005047D01*
X013964Y005047D01*
X017564Y008647D01*
X017564Y015207D01*
X017684Y015327D01*
X017684Y018287D01*
X017284Y018687D01*
X014080Y018687D01*
X013788Y018569D02*
X012304Y018569D01*
X012304Y018728D02*
X013765Y018728D01*
X013765Y018750D02*
X013765Y018625D01*
X013813Y018509D01*
X013834Y018487D01*
X013821Y018487D01*
X013704Y018370D01*
X013444Y018110D01*
X013444Y017945D01*
X013444Y016653D01*
X013377Y016586D01*
X013329Y016470D01*
X013329Y016345D01*
X013377Y016229D01*
X013465Y016140D01*
X013581Y016092D01*
X013707Y016092D01*
X013822Y016140D01*
X013911Y016229D01*
X013959Y016345D01*
X013959Y016470D01*
X013911Y016586D01*
X013844Y016653D01*
X013844Y017713D01*
X013941Y017672D01*
X014004Y017672D01*
X014004Y015890D01*
X013004Y014890D01*
X013004Y014725D01*
X013004Y014690D01*
X012304Y013990D01*
X012304Y019735D01*
X012752Y020182D01*
X012847Y020182D01*
X012962Y020230D01*
X013051Y020319D01*
X013099Y020435D01*
X013099Y020560D01*
X013051Y020676D01*
X012962Y020764D01*
X012847Y020812D01*
X012721Y020812D01*
X012605Y020764D01*
X012517Y020676D01*
X012469Y020560D01*
X012469Y020465D01*
X012124Y020120D01*
X012124Y020465D01*
X012752Y021092D01*
X012847Y021092D01*
X012962Y021140D01*
X013051Y021229D01*
X013099Y021345D01*
X013099Y021470D01*
X013051Y021586D01*
X012989Y021647D01*
X013401Y021647D01*
X014484Y020565D01*
X014484Y019533D01*
X014417Y019466D01*
X014369Y019350D01*
X014369Y019225D01*
X014417Y019109D01*
X014505Y019020D01*
X014549Y019002D01*
X014431Y019002D01*
X014347Y018967D01*
X014227Y018967D01*
X014142Y019002D01*
X014017Y019002D01*
X013901Y018954D01*
X013813Y018866D01*
X013765Y018750D01*
X013833Y018886D02*
X012304Y018886D01*
X012304Y019045D02*
X014481Y019045D01*
X014378Y019203D02*
X012304Y019203D01*
X012304Y019362D02*
X014374Y019362D01*
X014471Y019520D02*
X012304Y019520D01*
X012304Y019679D02*
X014484Y019679D01*
X014484Y019837D02*
X012407Y019837D01*
X012565Y019996D02*
X014484Y019996D01*
X014484Y020154D02*
X012724Y020154D01*
X013045Y020313D02*
X014484Y020313D01*
X014484Y020472D02*
X013099Y020472D01*
X013070Y020630D02*
X014418Y020630D01*
X014260Y020789D02*
X012904Y020789D01*
X012664Y020789D02*
X012448Y020789D01*
X012498Y020630D02*
X012289Y020630D01*
X012131Y020472D02*
X012469Y020472D01*
X012317Y020313D02*
X012124Y020313D01*
X012124Y020154D02*
X012158Y020154D01*
X011724Y020154D02*
X009844Y020154D01*
X009844Y019996D02*
X011724Y019996D01*
X011724Y019837D02*
X011457Y019837D01*
X011487Y019807D02*
X011307Y019987D01*
X011141Y019987D01*
X010461Y019987D01*
X010344Y019870D01*
X009904Y019430D01*
X009904Y019265D01*
X009904Y018670D01*
X009844Y018730D01*
X009844Y021125D01*
X009889Y021080D01*
X009889Y020985D01*
X009937Y020869D01*
X010025Y020780D01*
X010141Y020732D01*
X010267Y020732D01*
X010382Y020780D01*
X010471Y020869D01*
X010519Y020985D01*
X010519Y021110D01*
X010471Y021226D01*
X010449Y021247D01*
X010471Y021269D01*
X010519Y021385D01*
X010519Y021480D01*
X010687Y021647D01*
X012579Y021647D01*
X012517Y021586D01*
X012469Y021470D01*
X012469Y021375D01*
X011724Y020630D01*
X009844Y020630D01*
X009844Y020472D02*
X011724Y020472D01*
X011724Y020465D02*
X011724Y016733D01*
X011682Y016774D01*
X011567Y016822D01*
X011441Y016822D01*
X011325Y016774D01*
X011254Y016703D01*
X011182Y016774D01*
X011067Y016822D01*
X010972Y016822D01*
X010844Y016950D01*
X010844Y019192D01*
X010911Y019259D01*
X010959Y019375D01*
X010959Y019500D01*
X010923Y019587D01*
X011105Y019587D01*
X011069Y019500D01*
X011069Y019375D01*
X011117Y019259D01*
X011205Y019170D01*
X011321Y019122D01*
X011447Y019122D01*
X011562Y019170D01*
X011651Y019259D01*
X011699Y019375D01*
X011699Y019500D01*
X011651Y019616D01*
X011604Y019663D01*
X011604Y019690D01*
X011487Y019807D01*
X011604Y019679D02*
X011724Y019679D01*
X011724Y019520D02*
X011691Y019520D01*
X011694Y019362D02*
X011724Y019362D01*
X011724Y019203D02*
X011595Y019203D01*
X011724Y019045D02*
X010844Y019045D01*
X010855Y019203D02*
X011173Y019203D01*
X011074Y019362D02*
X010954Y019362D01*
X010951Y019520D02*
X011077Y019520D01*
X010844Y018886D02*
X011724Y018886D01*
X011724Y018728D02*
X010844Y018728D01*
X010844Y018569D02*
X011724Y018569D01*
X011724Y018410D02*
X010844Y018410D01*
X010844Y018252D02*
X011724Y018252D01*
X011724Y018093D02*
X010844Y018093D01*
X010844Y017935D02*
X011724Y017935D01*
X011724Y017776D02*
X010844Y017776D01*
X010844Y017618D02*
X011724Y017618D01*
X011724Y017459D02*
X010844Y017459D01*
X010844Y017301D02*
X011724Y017301D01*
X011724Y017142D02*
X010844Y017142D01*
X010844Y016984D02*
X011724Y016984D01*
X011724Y016825D02*
X010969Y016825D01*
X012304Y016825D02*
X013444Y016825D01*
X013444Y016666D02*
X012304Y016666D01*
X012304Y016508D02*
X013345Y016508D01*
X013329Y016349D02*
X012304Y016349D01*
X012304Y016191D02*
X013415Y016191D01*
X013873Y016191D02*
X014004Y016191D01*
X014004Y016349D02*
X013959Y016349D01*
X013943Y016508D02*
X014004Y016508D01*
X014004Y016666D02*
X013844Y016666D01*
X013844Y016825D02*
X014004Y016825D01*
X014004Y016984D02*
X013844Y016984D01*
X013844Y017142D02*
X014004Y017142D01*
X014004Y017301D02*
X013844Y017301D01*
X013844Y017459D02*
X014004Y017459D01*
X014004Y017618D02*
X013844Y017618D01*
X013444Y017618D02*
X012304Y017618D01*
X012304Y017776D02*
X013444Y017776D01*
X013444Y017935D02*
X012304Y017935D01*
X012304Y018093D02*
X013444Y018093D01*
X013586Y018252D02*
X012304Y018252D01*
X012304Y018410D02*
X013744Y018410D01*
X014614Y017732D02*
X014659Y017777D01*
X016661Y017777D01*
X016884Y017555D01*
X016884Y017533D01*
X016817Y017466D01*
X016769Y017350D01*
X016769Y017225D01*
X016817Y017109D01*
X016838Y017087D01*
X016817Y017066D01*
X016769Y016950D01*
X016769Y016825D01*
X015284Y016825D01*
X015284Y016666D02*
X016859Y016666D01*
X016817Y016709D02*
X016905Y016620D01*
X017021Y016572D01*
X017147Y016572D01*
X017262Y016620D01*
X017351Y016709D01*
X017399Y016825D01*
X017444Y016825D01*
X017399Y016825D02*
X017399Y016920D01*
X017444Y016965D01*
X017444Y015427D01*
X017360Y015343D01*
X017324Y015255D01*
X017324Y015242D01*
X017227Y015282D01*
X017101Y015282D01*
X016985Y015234D01*
X016897Y015146D01*
X016889Y015127D01*
X016236Y015127D01*
X016063Y015127D01*
X015644Y015547D01*
X015644Y016042D01*
X015671Y016069D01*
X015719Y016185D01*
X015719Y016310D01*
X015671Y016426D01*
X015582Y016514D01*
X015467Y016562D01*
X015341Y016562D01*
X015284Y016539D01*
X015284Y017005D01*
X015284Y017170D01*
X015079Y017375D01*
X015079Y017430D01*
X015031Y017546D01*
X014942Y017634D01*
X014827Y017682D01*
X014701Y017682D01*
X014614Y017646D01*
X014614Y017732D01*
X014658Y017776D02*
X016662Y017776D01*
X016821Y017618D02*
X014959Y017618D01*
X015067Y017459D02*
X016814Y017459D01*
X016769Y017301D02*
X015153Y017301D01*
X015284Y017142D02*
X016803Y017142D01*
X016783Y016984D02*
X015284Y016984D01*
X015589Y016508D02*
X017444Y016508D01*
X017444Y016666D02*
X017309Y016666D01*
X017444Y016349D02*
X015703Y016349D01*
X015719Y016191D02*
X017444Y016191D01*
X017444Y016032D02*
X015644Y016032D01*
X015644Y015874D02*
X017444Y015874D01*
X017444Y015715D02*
X015644Y015715D01*
X015644Y015557D02*
X017444Y015557D01*
X017415Y015398D02*
X015793Y015398D01*
X015951Y015240D02*
X016998Y015240D01*
X017164Y014967D02*
X017084Y014887D01*
X016284Y014887D01*
X015964Y014887D01*
X015404Y015447D01*
X015404Y016247D01*
X015164Y015725D02*
X015164Y015400D01*
X015200Y015311D01*
X015268Y015244D01*
X015828Y014684D01*
X015916Y014647D01*
X016012Y014647D01*
X016044Y014647D01*
X016044Y013507D01*
X015069Y013507D01*
X015022Y013554D01*
X014907Y013602D01*
X014781Y013602D01*
X014665Y013554D01*
X014604Y013493D01*
X014569Y013527D01*
X014631Y013589D01*
X014679Y013705D01*
X014679Y013830D01*
X014631Y013946D01*
X014564Y014013D01*
X014564Y014170D01*
X014447Y014287D01*
X014199Y014535D01*
X014199Y014630D01*
X014161Y014722D01*
X015164Y015725D01*
X015164Y015715D02*
X015155Y015715D01*
X015164Y015557D02*
X014996Y015557D01*
X014837Y015398D02*
X015165Y015398D01*
X015272Y015240D02*
X014679Y015240D01*
X014520Y015081D02*
X015431Y015081D01*
X015589Y014923D02*
X014362Y014923D01*
X014203Y014764D02*
X015748Y014764D01*
X016044Y014605D02*
X014199Y014605D01*
X014287Y014447D02*
X016044Y014447D01*
X016044Y014288D02*
X014446Y014288D01*
X014564Y014130D02*
X016044Y014130D01*
X016044Y013971D02*
X014606Y013971D01*
X014679Y013813D02*
X016044Y013813D01*
X016044Y013654D02*
X014658Y013654D01*
X014607Y013496D02*
X014601Y013496D01*
X014604Y013082D02*
X014665Y013020D01*
X014781Y012972D01*
X014907Y012972D01*
X015022Y013020D01*
X015069Y013067D01*
X016044Y013067D01*
X016044Y008907D01*
X014024Y006887D01*
X013767Y006887D01*
X014847Y007967D01*
X014964Y008085D01*
X014964Y012330D01*
X014847Y012447D01*
X014847Y012447D01*
X014759Y012535D01*
X014759Y012630D01*
X014711Y012746D01*
X014622Y012834D01*
X014507Y012882D01*
X014381Y012882D01*
X014265Y012834D01*
X014177Y012746D01*
X014129Y012630D01*
X014129Y012505D01*
X014177Y012389D01*
X014265Y012300D01*
X014381Y012252D01*
X014476Y012252D01*
X014564Y012165D01*
X014564Y011264D01*
X014497Y011292D01*
X014371Y011292D01*
X014255Y011244D01*
X014167Y011156D01*
X014119Y011040D01*
X014119Y011015D01*
X014047Y011087D01*
X012467Y011087D01*
X011647Y011907D01*
X011481Y011907D01*
X010754Y011907D01*
X010799Y012015D01*
X010799Y012140D01*
X010751Y012256D01*
X010743Y012264D01*
X010829Y012349D01*
X010837Y012329D01*
X010925Y012240D01*
X011041Y012192D01*
X011167Y012192D01*
X011282Y012240D01*
X011371Y012329D01*
X011419Y012445D01*
X011419Y012540D01*
X012489Y013610D01*
X012489Y013545D01*
X012537Y013429D01*
X012625Y013340D01*
X012741Y013292D01*
X012836Y013292D01*
X013041Y013087D01*
X013207Y013087D01*
X014118Y013087D01*
X014185Y013020D01*
X014301Y012972D01*
X014427Y012972D01*
X014542Y013020D01*
X014604Y013082D01*
X014666Y013020D02*
X014541Y013020D01*
X014557Y012861D02*
X016044Y012861D01*
X016044Y012703D02*
X014729Y012703D01*
X014759Y012544D02*
X016044Y012544D01*
X016044Y012386D02*
X014908Y012386D01*
X014964Y012227D02*
X016044Y012227D01*
X016044Y012069D02*
X014964Y012069D01*
X014964Y011910D02*
X016044Y011910D01*
X016044Y011752D02*
X014964Y011752D01*
X014964Y011593D02*
X016044Y011593D01*
X016044Y011435D02*
X014964Y011435D01*
X014964Y011276D02*
X016044Y011276D01*
X016044Y011117D02*
X014964Y011117D01*
X014964Y010959D02*
X016044Y010959D01*
X016044Y010800D02*
X014964Y010800D01*
X014964Y010642D02*
X016044Y010642D01*
X016044Y010483D02*
X014964Y010483D01*
X014964Y010325D02*
X016044Y010325D01*
X016044Y010166D02*
X014964Y010166D01*
X014964Y010008D02*
X016044Y010008D01*
X016044Y009849D02*
X014964Y009849D01*
X014964Y009691D02*
X016044Y009691D01*
X016044Y009532D02*
X014964Y009532D01*
X014964Y009374D02*
X016044Y009374D01*
X016044Y009215D02*
X014964Y009215D01*
X014964Y009056D02*
X016044Y009056D01*
X016035Y008898D02*
X014964Y008898D01*
X014964Y008739D02*
X015876Y008739D01*
X015718Y008581D02*
X014964Y008581D01*
X014964Y008422D02*
X015559Y008422D01*
X015401Y008264D02*
X014964Y008264D01*
X014964Y008105D02*
X015242Y008105D01*
X015084Y007947D02*
X014826Y007947D01*
X014925Y007788D02*
X014667Y007788D01*
X014767Y007630D02*
X014509Y007630D01*
X014608Y007471D02*
X014350Y007471D01*
X014450Y007312D02*
X014192Y007312D01*
X014291Y007154D02*
X014033Y007154D01*
X014132Y006995D02*
X013875Y006995D01*
X014124Y006647D02*
X012208Y006647D01*
X011411Y005851D01*
X011719Y005568D02*
X012075Y005568D01*
X012077Y005566D02*
X012126Y005517D01*
X012181Y005476D01*
X012243Y005445D01*
X012308Y005424D01*
X012376Y005413D01*
X012411Y005413D01*
X012445Y005413D01*
X012513Y005424D01*
X012579Y005445D01*
X012640Y005476D01*
X012696Y005517D01*
X012744Y005566D01*
X012785Y005621D01*
X012816Y005683D01*
X012837Y005748D01*
X012848Y005816D01*
X012848Y005850D01*
X012411Y005850D01*
X012411Y005413D01*
X012411Y005850D01*
X012411Y005850D01*
X012411Y005851D01*
X012411Y005851D01*
X012411Y006288D01*
X012445Y006288D01*
X012513Y006277D01*
X012579Y006256D01*
X012640Y006225D01*
X012696Y006184D01*
X012744Y006136D01*
X012785Y006080D01*
X012816Y006019D01*
X012837Y005953D01*
X012848Y005885D01*
X012848Y005851D01*
X012411Y005851D01*
X012411Y006288D01*
X012376Y006288D01*
X012308Y006277D01*
X012243Y006256D01*
X012181Y006225D01*
X012126Y006184D01*
X012077Y006136D01*
X012037Y006080D01*
X012005Y006019D01*
X011984Y005953D01*
X011973Y005885D01*
X011973Y005851D01*
X012410Y005851D01*
X012410Y005850D01*
X011973Y005850D01*
X011973Y005816D01*
X011984Y005748D01*
X012005Y005683D01*
X012037Y005621D01*
X012077Y005566D01*
X011991Y005727D02*
X011811Y005727D01*
X011828Y005886D02*
X011973Y005886D01*
X011944Y006044D02*
X012018Y006044D01*
X012102Y006203D02*
X012151Y006203D01*
X012261Y006361D02*
X014938Y006361D01*
X014780Y006203D02*
X013649Y006203D01*
X013647Y006204D02*
X013494Y006268D01*
X013328Y006268D01*
X013174Y006204D01*
X013057Y006087D01*
X012993Y005934D01*
X012993Y005768D01*
X013057Y005614D01*
X013174Y005497D01*
X013328Y005433D01*
X013494Y005433D01*
X013647Y005497D01*
X013765Y005614D01*
X013828Y005768D01*
X013828Y005934D01*
X013765Y006087D01*
X013647Y006204D01*
X013782Y006044D02*
X014621Y006044D01*
X014463Y005886D02*
X013828Y005886D01*
X013811Y005727D02*
X014304Y005727D01*
X014146Y005568D02*
X013719Y005568D01*
X013987Y005410D02*
X010181Y005410D01*
X010182Y005476D02*
X010243Y005445D01*
X010308Y005424D01*
X010376Y005413D01*
X010411Y005413D01*
X010445Y005413D01*
X010513Y005424D01*
X010579Y005445D01*
X010640Y005476D01*
X010696Y005517D01*
X010744Y005566D01*
X010785Y005621D01*
X010816Y005683D01*
X010837Y005748D01*
X010848Y005816D01*
X010848Y005850D01*
X010411Y005850D01*
X010411Y005413D01*
X010411Y005850D01*
X010411Y005850D01*
X010411Y005851D01*
X010411Y005851D01*
X010411Y006288D01*
X010445Y006288D01*
X010513Y006277D01*
X010579Y006256D01*
X010640Y006225D01*
X010696Y006184D01*
X010744Y006136D01*
X010785Y006080D01*
X010816Y006019D01*
X010837Y005953D01*
X010848Y005885D01*
X010848Y005851D01*
X010411Y005851D01*
X010411Y006288D01*
X010376Y006288D01*
X010308Y006277D01*
X010243Y006256D01*
X010182Y006225D01*
X010126Y006184D01*
X010077Y006136D01*
X010037Y006080D01*
X010005Y006019D01*
X009984Y005953D01*
X009973Y005885D01*
X009973Y005851D01*
X010410Y005851D01*
X010410Y005850D01*
X009973Y005850D01*
X009973Y005816D01*
X009984Y005748D01*
X010005Y005683D01*
X010037Y005621D01*
X010077Y005566D01*
X010126Y005517D01*
X010182Y005476D01*
X010075Y005568D02*
X010022Y005568D01*
X009991Y005727D02*
X009864Y005727D01*
X009828Y005886D02*
X009973Y005886D01*
X010018Y006044D02*
X009783Y006044D01*
X009649Y006203D02*
X010151Y006203D01*
X010411Y006203D02*
X010411Y006203D01*
X010411Y006044D02*
X010411Y006044D01*
X010411Y005886D02*
X010411Y005886D01*
X010411Y005727D02*
X010411Y005727D01*
X010411Y005568D02*
X010411Y005568D01*
X010747Y005568D02*
X011102Y005568D01*
X011010Y005727D02*
X010831Y005727D01*
X010848Y005886D02*
X010970Y005886D01*
X010832Y006044D02*
X010803Y006044D01*
X010804Y006203D02*
X010671Y006203D01*
X011775Y007087D02*
X011751Y007146D01*
X011662Y007234D01*
X011609Y007256D01*
X011802Y007450D01*
X011803Y007450D01*
X011881Y007529D01*
X011924Y007632D01*
X011924Y010020D01*
X011959Y010105D01*
X011959Y010230D01*
X011935Y010287D01*
X013161Y010287D01*
X013579Y009870D01*
X013579Y009775D01*
X013627Y009659D01*
X013694Y009592D01*
X013694Y008503D01*
X013627Y008436D01*
X013579Y008320D01*
X013579Y008195D01*
X013627Y008079D01*
X013715Y007990D01*
X013792Y007959D01*
X013641Y007807D01*
X013409Y007807D01*
X013342Y007874D01*
X013227Y007922D01*
X013101Y007922D01*
X012985Y007874D01*
X012897Y007786D01*
X012849Y007670D01*
X012849Y007545D01*
X012897Y007429D01*
X012918Y007407D01*
X012897Y007386D01*
X012849Y007270D01*
X012849Y007145D01*
X012873Y007087D01*
X011775Y007087D01*
X011743Y007154D02*
X012849Y007154D01*
X012867Y007312D02*
X011665Y007312D01*
X011823Y007471D02*
X012879Y007471D01*
X012849Y007630D02*
X011923Y007630D01*
X011924Y007788D02*
X012899Y007788D01*
X013616Y008105D02*
X011924Y008105D01*
X011924Y007947D02*
X013780Y007947D01*
X013579Y008264D02*
X011924Y008264D01*
X011924Y008422D02*
X013621Y008422D01*
X013694Y008581D02*
X011924Y008581D01*
X011924Y008739D02*
X013694Y008739D01*
X013694Y008898D02*
X011924Y008898D01*
X011924Y009056D02*
X013694Y009056D01*
X013694Y009215D02*
X011924Y009215D01*
X011924Y009374D02*
X013694Y009374D01*
X013694Y009532D02*
X011924Y009532D01*
X011924Y009691D02*
X013614Y009691D01*
X013579Y009849D02*
X011924Y009849D01*
X011924Y010008D02*
X013441Y010008D01*
X013282Y010166D02*
X011959Y010166D01*
X011304Y010750D02*
X010904Y010350D01*
X010904Y010185D01*
X010904Y009870D01*
X010584Y009550D01*
X010584Y009385D01*
X010584Y008510D01*
X010381Y008307D01*
X009863Y008307D01*
X009879Y008345D01*
X009879Y008440D01*
X009924Y008485D01*
X009924Y010730D01*
X009807Y010847D01*
X009684Y010970D01*
X009684Y011645D01*
X009821Y011507D01*
X009987Y011507D01*
X011481Y011507D01*
X012121Y010867D01*
X011421Y010867D01*
X011304Y010750D01*
X011354Y010800D02*
X009854Y010800D01*
X009924Y010642D02*
X011196Y010642D01*
X011037Y010483D02*
X009924Y010483D01*
X009924Y010325D02*
X010904Y010325D01*
X010904Y010166D02*
X009924Y010166D01*
X009924Y010008D02*
X010904Y010008D01*
X010883Y009849D02*
X009924Y009849D01*
X009924Y009691D02*
X010724Y009691D01*
X010584Y009532D02*
X009924Y009532D01*
X009924Y009374D02*
X010584Y009374D01*
X010584Y009215D02*
X009924Y009215D01*
X009924Y009056D02*
X010584Y009056D01*
X010584Y008898D02*
X009924Y008898D01*
X009924Y008739D02*
X010584Y008739D01*
X010584Y008581D02*
X009924Y008581D01*
X009879Y008422D02*
X010496Y008422D01*
X009417Y007471D02*
X007383Y007471D01*
X007432Y007312D02*
X009576Y007312D01*
X009259Y007630D02*
X007239Y007630D01*
X007283Y006678D02*
X005578Y006678D01*
X005815Y006520D02*
X007267Y006520D01*
X007313Y006361D02*
X006054Y006361D01*
X008287Y005727D02*
X008288Y005727D01*
X008731Y005093D02*
X009819Y005093D01*
X009978Y004934D02*
X009403Y004934D01*
X010303Y004776D02*
X012707Y004776D01*
X012747Y005568D02*
X013102Y005568D01*
X013010Y005727D02*
X012831Y005727D01*
X012848Y005886D02*
X012993Y005886D01*
X013039Y006044D02*
X012803Y006044D01*
X012670Y006203D02*
X013172Y006203D01*
X012411Y006203D02*
X012411Y006203D01*
X012411Y006044D02*
X012411Y006044D01*
X012411Y005886D02*
X012411Y005886D01*
X012411Y005727D02*
X012411Y005727D01*
X012411Y005568D02*
X012411Y005568D01*
X014124Y006647D02*
X016284Y008807D01*
X016284Y013287D01*
X016284Y014887D01*
X016524Y014605D02*
X017324Y014605D01*
X017324Y014447D02*
X016524Y014447D01*
X016524Y014288D02*
X017324Y014288D01*
X017324Y014130D02*
X016524Y014130D01*
X016524Y013971D02*
X017324Y013971D01*
X017324Y013813D02*
X016524Y013813D01*
X016524Y013654D02*
X017324Y013654D01*
X017324Y013496D02*
X016524Y013496D01*
X016524Y013337D02*
X017324Y013337D01*
X017324Y013179D02*
X016524Y013179D01*
X016524Y013020D02*
X017324Y013020D01*
X017324Y012861D02*
X016524Y012861D01*
X016524Y012703D02*
X017324Y012703D01*
X017324Y012544D02*
X016524Y012544D01*
X016524Y012386D02*
X017324Y012386D01*
X017324Y012227D02*
X016524Y012227D01*
X016524Y012069D02*
X017324Y012069D01*
X017324Y011910D02*
X016524Y011910D01*
X016524Y011752D02*
X017324Y011752D01*
X017324Y011593D02*
X016524Y011593D01*
X016524Y011435D02*
X017324Y011435D01*
X017324Y011276D02*
X016524Y011276D01*
X016524Y011117D02*
X017324Y011117D01*
X017324Y010959D02*
X016524Y010959D01*
X016524Y010800D02*
X017324Y010800D01*
X017324Y010642D02*
X016524Y010642D01*
X016524Y010483D02*
X017324Y010483D01*
X017324Y010325D02*
X016524Y010325D01*
X016524Y010166D02*
X017324Y010166D01*
X017324Y010008D02*
X016524Y010008D01*
X016524Y009849D02*
X017324Y009849D01*
X017324Y009691D02*
X016524Y009691D01*
X016524Y009532D02*
X017324Y009532D01*
X017324Y009374D02*
X016524Y009374D01*
X016524Y009215D02*
X017324Y009215D01*
X017324Y009056D02*
X016524Y009056D01*
X016524Y008898D02*
X017324Y008898D01*
X017316Y008739D02*
X016515Y008739D01*
X016397Y008581D02*
X017158Y008581D01*
X016999Y008422D02*
X016238Y008422D01*
X016080Y008264D02*
X016841Y008264D01*
X016682Y008105D02*
X015921Y008105D01*
X015763Y007947D02*
X016524Y007947D01*
X016365Y007788D02*
X015604Y007788D01*
X015445Y007630D02*
X016207Y007630D01*
X016048Y007471D02*
X015287Y007471D01*
X015128Y007312D02*
X015890Y007312D01*
X015731Y007154D02*
X014970Y007154D01*
X014811Y006995D02*
X015572Y006995D01*
X015414Y006837D02*
X014653Y006837D01*
X014494Y006678D02*
X015255Y006678D01*
X015097Y006520D02*
X014336Y006520D01*
X015300Y006044D02*
X016447Y006044D01*
X016172Y005886D02*
X015141Y005886D01*
X014983Y005727D02*
X015898Y005727D01*
X015881Y005717D02*
X014768Y005246D01*
X014396Y005140D01*
X017700Y008444D01*
X017767Y008511D01*
X017804Y008600D01*
X017804Y015108D01*
X017887Y015191D01*
X017924Y015280D01*
X017924Y015375D01*
X017924Y018240D01*
X017924Y018335D01*
X017887Y018423D01*
X017487Y018823D01*
X017420Y018891D01*
X017332Y018927D01*
X015744Y018927D01*
X015744Y021055D01*
X015707Y021143D01*
X015640Y021211D01*
X014459Y022392D01*
X014459Y022470D01*
X014411Y022586D01*
X014322Y022674D01*
X014207Y022722D01*
X014081Y022722D01*
X013965Y022674D01*
X013877Y022586D01*
X013829Y022470D01*
X013829Y022447D01*
X012977Y022447D01*
X013291Y022762D01*
X013328Y022747D01*
X013494Y022747D01*
X013647Y022810D01*
X013765Y022928D01*
X013828Y023081D01*
X013828Y023247D01*
X013765Y023401D01*
X013647Y023518D01*
X013494Y023582D01*
X013328Y023582D01*
X013174Y023518D01*
X013057Y023401D01*
X012993Y023247D01*
X012993Y023081D01*
X013009Y023045D01*
X012571Y022607D01*
X012137Y022607D01*
X012291Y022762D01*
X012328Y022747D01*
X012494Y022747D01*
X012647Y022810D01*
X012765Y022928D01*
X012828Y023081D01*
X012828Y023247D01*
X012765Y023401D01*
X012647Y023518D01*
X012494Y023582D01*
X012328Y023582D01*
X012174Y023518D01*
X012057Y023401D01*
X011993Y023247D01*
X011993Y023081D01*
X012008Y023045D01*
X011731Y022767D01*
X011544Y022767D01*
X011647Y022810D01*
X011765Y022928D01*
X011828Y023081D01*
X011828Y023247D01*
X011765Y023401D01*
X011647Y023518D01*
X011494Y023582D01*
X011328Y023582D01*
X011174Y023518D01*
X011057Y023401D01*
X010993Y023247D01*
X010993Y023081D01*
X011009Y023045D01*
X010891Y022927D01*
X010764Y022927D01*
X010765Y022928D01*
X010828Y023081D01*
X010828Y023247D01*
X010765Y023401D01*
X010647Y023518D01*
X010494Y023582D01*
X010328Y023582D01*
X010174Y023518D01*
X010057Y023401D01*
X010042Y023364D01*
X009878Y023364D01*
X009809Y023295D01*
X009765Y023401D01*
X009647Y023518D01*
X009494Y023582D01*
X009328Y023582D01*
X009174Y023518D01*
X009057Y023401D01*
X008993Y023247D01*
X008993Y023081D01*
X009009Y023045D01*
X008624Y022660D01*
X008624Y022494D01*
X008624Y017890D01*
X008585Y017874D01*
X008497Y017786D01*
X008449Y017670D01*
X008449Y017545D01*
X008497Y017429D01*
X008585Y017340D01*
X008701Y017292D01*
X008827Y017292D01*
X008942Y017340D01*
X009031Y017429D01*
X009050Y017474D01*
X009101Y017452D01*
X009227Y017452D01*
X009304Y017484D01*
X009304Y015650D01*
X009227Y015682D01*
X009101Y015682D01*
X008985Y015634D01*
X008924Y015573D01*
X008862Y015634D01*
X008747Y015682D01*
X008652Y015682D01*
X007684Y016650D01*
X007684Y021305D01*
X008487Y022107D01*
X008604Y022225D01*
X008604Y022792D01*
X008647Y022810D01*
X008765Y022928D01*
X008828Y023081D01*
X008828Y023247D01*
X008765Y023401D01*
X008647Y023518D01*
X008494Y023582D01*
X008328Y023582D01*
X008174Y023518D01*
X008057Y023401D01*
X007993Y023247D01*
X007993Y023081D01*
X008057Y022928D01*
X008174Y022810D01*
X008204Y022798D01*
X008204Y022390D01*
X008074Y022260D01*
X008121Y022374D01*
X008188Y022374D01*
X008121Y022374D02*
X008121Y022540D01*
X008058Y022694D01*
X007940Y022811D01*
X007787Y022874D01*
X007621Y022874D01*
X007467Y022811D01*
X007350Y022694D01*
X007286Y022540D01*
X007286Y022374D01*
X005632Y022374D01*
X005586Y022344D02*
X006594Y023011D01*
X007676Y023550D01*
X008817Y023952D01*
X009998Y024211D01*
X011201Y024322D01*
X012410Y024285D01*
X013605Y024100D01*
X014767Y023769D01*
X015881Y023297D01*
X016928Y022693D01*
X017893Y021964D01*
X018504Y021372D01*
X018504Y007643D01*
X017893Y007050D01*
X016928Y006322D01*
X015881Y005717D01*
X015529Y005568D02*
X014824Y005568D01*
X014666Y005410D02*
X015155Y005410D01*
X014780Y005251D02*
X014507Y005251D01*
X015459Y006203D02*
X016722Y006203D01*
X016980Y006361D02*
X015617Y006361D01*
X015776Y006520D02*
X017190Y006520D01*
X017400Y006678D02*
X015934Y006678D01*
X016093Y006837D02*
X017610Y006837D01*
X017820Y006995D02*
X016251Y006995D01*
X016410Y007154D02*
X017999Y007154D01*
X018163Y007312D02*
X016568Y007312D01*
X016727Y007471D02*
X018326Y007471D01*
X018490Y007630D02*
X016885Y007630D01*
X017044Y007788D02*
X018504Y007788D01*
X018504Y007947D02*
X017203Y007947D01*
X017361Y008105D02*
X018504Y008105D01*
X018504Y008264D02*
X017520Y008264D01*
X017678Y008422D02*
X018504Y008422D01*
X018504Y008581D02*
X017796Y008581D01*
X017804Y008739D02*
X018504Y008739D01*
X018504Y008898D02*
X017804Y008898D01*
X017804Y009056D02*
X018504Y009056D01*
X018504Y009215D02*
X017804Y009215D01*
X017804Y009374D02*
X018504Y009374D01*
X018504Y009532D02*
X017804Y009532D01*
X017804Y009691D02*
X018504Y009691D01*
X018504Y009849D02*
X017804Y009849D01*
X017804Y010008D02*
X018504Y010008D01*
X018504Y010166D02*
X017804Y010166D01*
X017804Y010325D02*
X018504Y010325D01*
X018504Y010483D02*
X017804Y010483D01*
X017804Y010642D02*
X018504Y010642D01*
X018504Y010800D02*
X017804Y010800D01*
X017804Y010959D02*
X018504Y010959D01*
X018504Y011117D02*
X017804Y011117D01*
X017804Y011276D02*
X018504Y011276D01*
X018504Y011435D02*
X017804Y011435D01*
X017804Y011593D02*
X018504Y011593D01*
X018504Y011752D02*
X017804Y011752D01*
X017804Y011910D02*
X018504Y011910D01*
X018504Y012069D02*
X017804Y012069D01*
X017804Y012227D02*
X018504Y012227D01*
X018504Y012386D02*
X017804Y012386D01*
X017804Y012544D02*
X018504Y012544D01*
X018504Y012703D02*
X017804Y012703D01*
X017804Y012861D02*
X018504Y012861D01*
X018504Y013020D02*
X017804Y013020D01*
X017804Y013179D02*
X018504Y013179D01*
X018504Y013337D02*
X017804Y013337D01*
X017804Y013496D02*
X018504Y013496D01*
X018504Y013654D02*
X017804Y013654D01*
X017804Y013813D02*
X018504Y013813D01*
X018504Y013971D02*
X017804Y013971D01*
X017804Y014130D02*
X018504Y014130D01*
X018504Y014288D02*
X017804Y014288D01*
X017804Y014447D02*
X018504Y014447D01*
X018504Y014605D02*
X017804Y014605D01*
X017804Y014764D02*
X018504Y014764D01*
X018504Y014923D02*
X017804Y014923D01*
X017804Y015081D02*
X018504Y015081D01*
X018504Y015240D02*
X017907Y015240D01*
X017924Y015398D02*
X018504Y015398D01*
X018504Y015557D02*
X017924Y015557D01*
X017924Y015715D02*
X018504Y015715D01*
X018504Y015874D02*
X017924Y015874D01*
X017924Y016032D02*
X018504Y016032D01*
X018504Y016191D02*
X017924Y016191D01*
X017924Y016349D02*
X018504Y016349D01*
X018504Y016508D02*
X017924Y016508D01*
X017924Y016666D02*
X018504Y016666D01*
X018504Y016825D02*
X017924Y016825D01*
X017924Y016984D02*
X018504Y016984D01*
X018504Y017142D02*
X017924Y017142D01*
X017924Y017301D02*
X018504Y017301D01*
X018504Y017459D02*
X017924Y017459D01*
X017924Y017618D02*
X018504Y017618D01*
X018504Y017776D02*
X017924Y017776D01*
X017924Y017935D02*
X018504Y017935D01*
X018504Y018093D02*
X017924Y018093D01*
X017924Y018252D02*
X018504Y018252D01*
X018504Y018410D02*
X017893Y018410D01*
X017742Y018569D02*
X018504Y018569D01*
X018504Y018728D02*
X017583Y018728D01*
X017425Y018886D02*
X018504Y018886D01*
X018504Y019045D02*
X015744Y019045D01*
X015744Y019203D02*
X018504Y019203D01*
X018504Y019362D02*
X015744Y019362D01*
X015744Y019520D02*
X018504Y019520D01*
X018504Y019679D02*
X015744Y019679D01*
X015744Y019837D02*
X018504Y019837D01*
X018504Y019996D02*
X015744Y019996D01*
X015744Y020154D02*
X018504Y020154D01*
X018504Y020313D02*
X015744Y020313D01*
X015744Y020472D02*
X018504Y020472D01*
X018504Y020630D02*
X015744Y020630D01*
X015744Y020789D02*
X018504Y020789D01*
X018504Y020947D02*
X015744Y020947D01*
X015723Y021106D02*
X018504Y021106D01*
X018504Y021264D02*
X015586Y021264D01*
X015428Y021423D02*
X018451Y021423D01*
X018288Y021581D02*
X015269Y021581D01*
X015111Y021740D02*
X018124Y021740D01*
X017961Y021898D02*
X014952Y021898D01*
X014794Y022057D02*
X017770Y022057D01*
X017560Y022216D02*
X014635Y022216D01*
X014477Y022374D02*
X017350Y022374D01*
X017140Y022533D02*
X014433Y022533D01*
X014282Y022691D02*
X016930Y022691D01*
X016656Y022850D02*
X013687Y022850D01*
X013798Y023008D02*
X016382Y023008D01*
X016107Y023167D02*
X013828Y023167D01*
X013796Y023325D02*
X015815Y023325D01*
X015441Y023484D02*
X013682Y023484D01*
X013140Y023484D02*
X012681Y023484D01*
X012796Y023325D02*
X013026Y023325D01*
X012993Y023167D02*
X012828Y023167D01*
X012798Y023008D02*
X012972Y023008D01*
X012814Y022850D02*
X012687Y022850D01*
X012655Y022691D02*
X012221Y022691D01*
X011972Y023008D02*
X011798Y023008D01*
X011814Y022850D02*
X011687Y022850D01*
X011828Y023167D02*
X011993Y023167D01*
X012026Y023325D02*
X011796Y023325D01*
X011682Y023484D02*
X012140Y023484D01*
X012464Y024277D02*
X010708Y024277D01*
X009998Y024211D02*
X009998Y024211D01*
X009574Y024118D02*
X013486Y024118D01*
X014097Y023959D02*
X008850Y023959D01*
X008388Y023801D02*
X014654Y023801D01*
X015066Y023642D02*
X007938Y023642D01*
X008140Y023484D02*
X007543Y023484D01*
X007225Y023325D02*
X008026Y023325D01*
X007993Y023167D02*
X006906Y023167D01*
X006589Y023008D02*
X008024Y023008D01*
X008135Y022850D02*
X007847Y022850D01*
X008059Y022691D02*
X008204Y022691D01*
X008204Y022533D02*
X008121Y022533D01*
X007561Y022850D02*
X006350Y022850D01*
X006111Y022691D02*
X007349Y022691D01*
X007286Y022533D02*
X005872Y022533D01*
X005586Y022344D02*
X004668Y021557D01*
X003854Y020663D01*
X003155Y019677D01*
X002583Y018612D01*
X002367Y018053D01*
X005439Y021126D01*
X005556Y021243D01*
X005921Y021243D01*
X005936Y021279D01*
X006053Y021397D01*
X006206Y021460D01*
X006373Y021460D01*
X006526Y021397D01*
X006643Y021279D01*
X006707Y021126D01*
X006707Y020960D01*
X006643Y020806D01*
X006526Y020689D01*
X006373Y020625D01*
X006206Y020625D01*
X006053Y020689D01*
X005936Y020806D01*
X005921Y020843D01*
X005722Y020843D01*
X005633Y020753D01*
X005666Y020753D01*
X005819Y020690D01*
X005936Y020572D01*
X006000Y020419D01*
X006000Y020253D01*
X005936Y020099D01*
X005819Y019982D01*
X005782Y019967D01*
X005782Y015672D01*
X006927Y014527D01*
X007433Y014527D01*
X007409Y014585D01*
X007409Y014710D01*
X007457Y014826D01*
X007524Y014893D01*
X007524Y015525D01*
X006921Y016127D01*
X006804Y016245D01*
X006804Y017125D01*
X006236Y017692D01*
X006141Y017692D01*
X006025Y017740D01*
X005937Y017829D01*
X005889Y017945D01*
X005889Y018070D01*
X005937Y018186D01*
X006025Y018274D01*
X006141Y018322D01*
X006267Y018322D01*
X006382Y018274D01*
X006471Y018186D01*
X006519Y018070D01*
X006519Y017975D01*
X006964Y017530D01*
X006964Y021332D01*
X006914Y021332D01*
X006760Y021396D01*
X006643Y021513D01*
X006579Y021667D01*
X006579Y021833D01*
X006643Y021986D01*
X006760Y022104D01*
X006914Y022167D01*
X007080Y022167D01*
X007233Y022104D01*
X007351Y021986D01*
X007414Y021833D01*
X007414Y021800D01*
X007504Y021890D01*
X007504Y022088D01*
X007467Y022103D01*
X007350Y022221D01*
X007286Y022374D01*
X007355Y022216D02*
X005437Y022216D01*
X005252Y022057D02*
X006713Y022057D01*
X006606Y021898D02*
X005067Y021898D01*
X004882Y021740D02*
X006579Y021740D01*
X006615Y021581D02*
X004697Y021581D01*
X004546Y021423D02*
X006116Y021423D01*
X005929Y021264D02*
X004401Y021264D01*
X004257Y021106D02*
X005419Y021106D01*
X005261Y020947D02*
X004112Y020947D01*
X003968Y020789D02*
X005102Y020789D01*
X004944Y020630D02*
X003830Y020630D01*
X003718Y020472D02*
X004785Y020472D01*
X004627Y020313D02*
X003606Y020313D01*
X003493Y020154D02*
X004468Y020154D01*
X004310Y019996D02*
X003381Y019996D01*
X003269Y019837D02*
X004151Y019837D01*
X003993Y019679D02*
X003157Y019679D01*
X003071Y019520D02*
X003834Y019520D01*
X003675Y019362D02*
X002986Y019362D01*
X002901Y019203D02*
X003517Y019203D01*
X003358Y019045D02*
X002816Y019045D01*
X002731Y018886D02*
X003200Y018886D01*
X003041Y018728D02*
X002645Y018728D01*
X002567Y018569D02*
X002883Y018569D01*
X002724Y018410D02*
X002505Y018410D01*
X002444Y018252D02*
X002566Y018252D01*
X002407Y018093D02*
X002382Y018093D01*
X002104Y017315D02*
X002104Y014305D01*
X002221Y014187D01*
X002484Y013925D01*
X002484Y013925D01*
X002539Y013870D01*
X002518Y013861D01*
X002400Y013744D01*
X002337Y013590D01*
X002337Y013424D01*
X002400Y013271D01*
X002518Y013153D01*
X002671Y013090D01*
X002837Y013090D01*
X002991Y013153D01*
X003108Y013271D01*
X003131Y013327D01*
X003801Y013327D01*
X005641Y011487D01*
X004767Y011487D01*
X003664Y012590D01*
X003547Y012707D01*
X003123Y012707D01*
X003108Y012744D01*
X002990Y012861D01*
X004267Y012861D01*
X004426Y012703D02*
X003551Y012703D01*
X003710Y012544D02*
X004584Y012544D01*
X004743Y012386D02*
X003868Y012386D01*
X004027Y012227D02*
X004901Y012227D01*
X005060Y012069D02*
X004185Y012069D01*
X004344Y011910D02*
X005218Y011910D01*
X005377Y011752D02*
X004502Y011752D01*
X004661Y011593D02*
X005535Y011593D01*
X004108Y013020D02*
X001812Y013020D01*
X001793Y013179D02*
X002492Y013179D01*
X002373Y013337D02*
X001773Y013337D01*
X001753Y013496D02*
X002337Y013496D01*
X002363Y013654D02*
X001734Y013654D01*
X001714Y013813D02*
X002469Y013813D01*
X002437Y013971D02*
X001703Y013971D01*
X001703Y013903D02*
X001703Y015112D01*
X001852Y016312D01*
X002104Y017315D01*
X002100Y017301D02*
X002104Y017301D01*
X002104Y017142D02*
X002060Y017142D01*
X002021Y016984D02*
X002104Y016984D01*
X002104Y016825D02*
X001981Y016825D01*
X001941Y016666D02*
X002104Y016666D01*
X002104Y016508D02*
X001901Y016508D01*
X001861Y016349D02*
X002104Y016349D01*
X002104Y016191D02*
X001837Y016191D01*
X001817Y016032D02*
X002104Y016032D01*
X002104Y015874D02*
X001797Y015874D01*
X001778Y015715D02*
X002104Y015715D01*
X002104Y015557D02*
X001758Y015557D01*
X001738Y015398D02*
X002104Y015398D01*
X002104Y015240D02*
X001719Y015240D01*
X001703Y015081D02*
X002104Y015081D01*
X002104Y014923D02*
X001703Y014923D01*
X001703Y014764D02*
X002104Y014764D01*
X002104Y014605D02*
X001703Y014605D01*
X001703Y014447D02*
X002104Y014447D01*
X002120Y014288D02*
X001703Y014288D01*
X001703Y014130D02*
X002279Y014130D01*
X001703Y013903D02*
X001852Y012703D01*
X001832Y012861D02*
X002518Y012861D01*
X002400Y012744D01*
X002518Y012861D02*
X002671Y012925D01*
X002837Y012925D01*
X002990Y012861D01*
X003016Y013179D02*
X003950Y013179D01*
X002444Y012227D02*
X001971Y012227D01*
X001931Y012386D02*
X002352Y012386D01*
X002337Y012544D02*
X001891Y012544D01*
X005897Y015557D02*
X007492Y015557D01*
X007524Y015398D02*
X006056Y015398D01*
X006215Y015240D02*
X007524Y015240D01*
X007524Y015081D02*
X006373Y015081D01*
X006532Y014923D02*
X007524Y014923D01*
X007431Y014764D02*
X006690Y014764D01*
X006849Y014605D02*
X007409Y014605D01*
X007333Y015715D02*
X005782Y015715D01*
X005782Y015874D02*
X007175Y015874D01*
X007016Y016032D02*
X005782Y016032D01*
X005782Y016191D02*
X006858Y016191D01*
X006804Y016349D02*
X005782Y016349D01*
X005782Y016508D02*
X006804Y016508D01*
X006804Y016666D02*
X005782Y016666D01*
X005782Y016825D02*
X006804Y016825D01*
X006804Y016984D02*
X005782Y016984D01*
X005782Y017142D02*
X006786Y017142D01*
X006628Y017301D02*
X005782Y017301D01*
X005782Y017459D02*
X006469Y017459D01*
X006311Y017618D02*
X005782Y017618D01*
X005782Y017776D02*
X005990Y017776D01*
X005893Y017935D02*
X005782Y017935D01*
X005782Y018093D02*
X005899Y018093D01*
X006003Y018252D02*
X005782Y018252D01*
X005782Y018410D02*
X006964Y018410D01*
X006964Y018252D02*
X006405Y018252D01*
X006509Y018093D02*
X006964Y018093D01*
X006964Y017935D02*
X006559Y017935D01*
X006718Y017776D02*
X006964Y017776D01*
X006964Y017618D02*
X006876Y017618D01*
X007684Y017618D02*
X008449Y017618D01*
X008484Y017459D02*
X007684Y017459D01*
X007684Y017301D02*
X008681Y017301D01*
X008847Y017301D02*
X009304Y017301D01*
X009304Y017459D02*
X009243Y017459D01*
X009085Y017459D02*
X009043Y017459D01*
X009304Y017142D02*
X007684Y017142D01*
X007684Y016984D02*
X009304Y016984D01*
X009304Y016825D02*
X007684Y016825D01*
X007684Y016666D02*
X009304Y016666D01*
X009304Y016508D02*
X007826Y016508D01*
X007985Y016349D02*
X009304Y016349D01*
X009304Y016191D02*
X008143Y016191D01*
X008302Y016032D02*
X009304Y016032D01*
X009304Y015874D02*
X008460Y015874D01*
X008619Y015715D02*
X009304Y015715D01*
X008493Y017776D02*
X007684Y017776D01*
X007684Y017935D02*
X008624Y017935D01*
X008624Y018093D02*
X007684Y018093D01*
X007684Y018252D02*
X008624Y018252D01*
X008624Y018410D02*
X007684Y018410D01*
X007684Y018569D02*
X008624Y018569D01*
X008624Y018728D02*
X007684Y018728D01*
X007684Y018886D02*
X008624Y018886D01*
X008624Y019045D02*
X007684Y019045D01*
X007684Y019203D02*
X008624Y019203D01*
X008624Y019362D02*
X007684Y019362D01*
X007684Y019520D02*
X008624Y019520D01*
X008624Y019679D02*
X007684Y019679D01*
X007684Y019837D02*
X008624Y019837D01*
X008624Y019996D02*
X007684Y019996D01*
X007684Y020154D02*
X008624Y020154D01*
X008624Y020313D02*
X007684Y020313D01*
X007684Y020472D02*
X008624Y020472D01*
X008624Y020630D02*
X007684Y020630D01*
X007684Y020789D02*
X008624Y020789D01*
X008624Y020947D02*
X007684Y020947D01*
X007684Y021106D02*
X008624Y021106D01*
X008624Y021264D02*
X007684Y021264D01*
X007802Y021423D02*
X008624Y021423D01*
X008624Y021581D02*
X007961Y021581D01*
X008119Y021740D02*
X008624Y021740D01*
X008624Y021898D02*
X008278Y021898D01*
X008436Y022057D02*
X008624Y022057D01*
X008624Y022216D02*
X008595Y022216D01*
X008604Y022374D02*
X008624Y022374D01*
X008624Y022533D02*
X008604Y022533D01*
X008604Y022691D02*
X008655Y022691D01*
X008687Y022850D02*
X008814Y022850D01*
X008798Y023008D02*
X008972Y023008D01*
X008993Y023167D02*
X008828Y023167D01*
X008796Y023325D02*
X009026Y023325D01*
X009140Y023484D02*
X008682Y023484D01*
X009682Y023484D02*
X010140Y023484D01*
X009839Y023325D02*
X009796Y023325D01*
X010682Y023484D02*
X011140Y023484D01*
X011026Y023325D02*
X010796Y023325D01*
X010828Y023167D02*
X010993Y023167D01*
X010972Y023008D02*
X010798Y023008D01*
X010621Y021581D02*
X012515Y021581D01*
X012469Y021423D02*
X010519Y021423D01*
X010466Y021264D02*
X012358Y021264D01*
X012199Y021106D02*
X010519Y021106D01*
X010503Y020947D02*
X012041Y020947D01*
X011882Y020789D02*
X010391Y020789D01*
X010017Y020789D02*
X009844Y020789D01*
X009844Y020947D02*
X009904Y020947D01*
X009863Y021106D02*
X009844Y021106D01*
X009844Y020313D02*
X011724Y020313D01*
X011724Y020465D02*
X011724Y020630D01*
X012607Y020947D02*
X014101Y020947D01*
X013943Y021106D02*
X012879Y021106D01*
X013066Y021264D02*
X013784Y021264D01*
X013626Y021423D02*
X013099Y021423D01*
X013053Y021581D02*
X013467Y021581D01*
X013855Y022533D02*
X013062Y022533D01*
X013221Y022691D02*
X014006Y022691D01*
X014144Y022367D02*
X015504Y021007D01*
X015504Y018787D01*
X015404Y018687D01*
X013444Y017459D02*
X012304Y017459D01*
X012304Y017301D02*
X013444Y017301D01*
X013444Y017142D02*
X012304Y017142D01*
X012304Y016984D02*
X013444Y016984D01*
X014004Y016032D02*
X012304Y016032D01*
X012304Y015874D02*
X013987Y015874D01*
X013829Y015715D02*
X012304Y015715D01*
X012304Y015557D02*
X013670Y015557D01*
X013512Y015398D02*
X012304Y015398D01*
X012304Y015240D02*
X013353Y015240D01*
X013195Y015081D02*
X012304Y015081D01*
X012304Y014923D02*
X013036Y014923D01*
X013004Y014764D02*
X012304Y014764D01*
X012304Y014605D02*
X012919Y014605D01*
X012761Y014447D02*
X012304Y014447D01*
X012304Y014288D02*
X012602Y014288D01*
X012444Y014130D02*
X012304Y014130D01*
X012375Y013496D02*
X012509Y013496D01*
X012633Y013337D02*
X012216Y013337D01*
X012058Y013179D02*
X012950Y013179D01*
X011899Y013020D02*
X014186Y013020D01*
X014331Y012861D02*
X011741Y012861D01*
X011582Y012703D02*
X014159Y012703D01*
X014129Y012544D02*
X011424Y012544D01*
X011394Y012386D02*
X014180Y012386D01*
X014501Y012227D02*
X011251Y012227D01*
X010957Y012227D02*
X010763Y012227D01*
X010799Y012069D02*
X014564Y012069D01*
X014564Y011910D02*
X010756Y011910D01*
X011554Y011435D02*
X009684Y011435D01*
X009684Y011593D02*
X009735Y011593D01*
X009684Y011276D02*
X011712Y011276D01*
X011871Y011117D02*
X009684Y011117D01*
X009695Y010959D02*
X012030Y010959D01*
X012278Y011276D02*
X014332Y011276D01*
X014536Y011276D02*
X014564Y011276D01*
X014564Y011435D02*
X012120Y011435D01*
X011961Y011593D02*
X014564Y011593D01*
X014564Y011752D02*
X011802Y011752D01*
X012437Y011117D02*
X014151Y011117D01*
X015021Y013020D02*
X016044Y013020D01*
X016817Y016709D02*
X016769Y016825D01*
X010311Y019837D02*
X009844Y019837D01*
X009844Y019679D02*
X010153Y019679D01*
X009994Y019520D02*
X009844Y019520D01*
X009844Y019362D02*
X009904Y019362D01*
X009904Y019203D02*
X009844Y019203D01*
X009844Y019045D02*
X009904Y019045D01*
X009904Y018886D02*
X009844Y018886D01*
X009847Y018728D02*
X009904Y018728D01*
X006964Y018728D02*
X005782Y018728D01*
X005782Y018886D02*
X006964Y018886D01*
X006964Y019045D02*
X005782Y019045D01*
X005782Y019203D02*
X006964Y019203D01*
X006964Y019362D02*
X005782Y019362D01*
X005782Y019520D02*
X006964Y019520D01*
X006964Y019679D02*
X005782Y019679D01*
X005782Y019837D02*
X006964Y019837D01*
X006964Y019996D02*
X005833Y019996D01*
X005959Y020154D02*
X006964Y020154D01*
X006964Y020313D02*
X006000Y020313D01*
X005978Y020472D02*
X006964Y020472D01*
X006964Y020630D02*
X006384Y020630D01*
X006195Y020630D02*
X005879Y020630D01*
X005953Y020789D02*
X005668Y020789D01*
X005165Y020286D02*
X004925Y020046D01*
X004958Y020046D01*
X005112Y019983D01*
X005229Y019865D01*
X005293Y019712D01*
X005293Y019546D01*
X005229Y019392D01*
X005112Y019275D01*
X005075Y019260D01*
X005075Y016139D01*
X005383Y015832D01*
X005383Y019967D01*
X005346Y019982D01*
X005229Y020099D01*
X005165Y020253D01*
X005165Y020286D01*
X005206Y020154D02*
X005034Y020154D01*
X005080Y019996D02*
X005332Y019996D01*
X005383Y019837D02*
X005241Y019837D01*
X005293Y019679D02*
X005383Y019679D01*
X005383Y019520D02*
X005282Y019520D01*
X005199Y019362D02*
X005383Y019362D01*
X005383Y019203D02*
X005075Y019203D01*
X005075Y019045D02*
X005383Y019045D01*
X005383Y018886D02*
X005075Y018886D01*
X005075Y018728D02*
X005383Y018728D01*
X005383Y018569D02*
X005075Y018569D01*
X005075Y018410D02*
X005383Y018410D01*
X005383Y018252D02*
X005075Y018252D01*
X005075Y018093D02*
X005383Y018093D01*
X005383Y017935D02*
X005075Y017935D01*
X005075Y017776D02*
X005383Y017776D01*
X005383Y017618D02*
X005075Y017618D01*
X005075Y017459D02*
X005383Y017459D01*
X005383Y017301D02*
X005075Y017301D01*
X005075Y017142D02*
X005383Y017142D01*
X005383Y016984D02*
X005075Y016984D01*
X005075Y016825D02*
X005383Y016825D01*
X005383Y016666D02*
X005075Y016666D01*
X005075Y016508D02*
X005383Y016508D01*
X005383Y016349D02*
X005075Y016349D01*
X005075Y016191D02*
X005383Y016191D01*
X005383Y016032D02*
X005182Y016032D01*
X005340Y015874D02*
X005383Y015874D01*
X005782Y018569D02*
X006964Y018569D01*
X006964Y020789D02*
X006626Y020789D01*
X006702Y020947D02*
X006964Y020947D01*
X006964Y021106D02*
X006707Y021106D01*
X006650Y021264D02*
X006964Y021264D01*
X006733Y021423D02*
X006463Y021423D01*
X007280Y022057D02*
X007504Y022057D01*
X007504Y021898D02*
X007387Y021898D01*
D16*
X014844Y013287D02*
X016284Y013287D01*
M02*
