G75*
G70*
%OFA0B0*%
%FSLAX24Y24*%
%IPPOS*%
%LPD*%
%AMOC8*
5,1,8,0,0,1.08239X$1,22.5*
%
%ADD10C,0.0001*%
%ADD11C,0.0040*%
%ADD12C,0.0060*%
D10*
X001454Y014507D02*
X001466Y015000D01*
X001502Y015492D01*
X001563Y015982D01*
X001647Y016468D01*
X001755Y016949D01*
X001887Y017424D01*
X002041Y017893D01*
X002219Y018353D01*
X002419Y018804D01*
X002641Y019245D01*
X002884Y019674D01*
X003148Y020090D01*
X003432Y020494D01*
X003735Y020883D01*
X004057Y021256D01*
X004398Y021613D01*
X004755Y021954D01*
X005128Y022276D01*
X005517Y022579D01*
X005921Y022863D01*
X006337Y023127D01*
X006766Y023370D01*
X007207Y023592D01*
X007658Y023792D01*
X008118Y023970D01*
X008587Y024124D01*
X009062Y024256D01*
X009543Y024364D01*
X010029Y024448D01*
X010519Y024509D01*
X011011Y024545D01*
X011504Y024557D01*
X011997Y024545D01*
X012489Y024509D01*
X012979Y024448D01*
X013465Y024364D01*
X013946Y024256D01*
X014421Y024124D01*
X014890Y023970D01*
X015350Y023792D01*
X015801Y023592D01*
X016242Y023370D01*
X016671Y023127D01*
X017087Y022863D01*
X017491Y022579D01*
X017880Y022276D01*
X018253Y021954D01*
X018610Y021613D01*
X018951Y021256D01*
X019273Y020883D01*
X019576Y020494D01*
X019860Y020090D01*
X020124Y019674D01*
X020367Y019245D01*
X020589Y018804D01*
X020789Y018353D01*
X020967Y017893D01*
X021121Y017424D01*
X021253Y016949D01*
X021361Y016468D01*
X021445Y015982D01*
X021506Y015492D01*
X021542Y015000D01*
X021554Y014507D01*
X021542Y014014D01*
X021506Y013522D01*
X021445Y013032D01*
X021361Y012546D01*
X021253Y012065D01*
X021121Y011590D01*
X020967Y011121D01*
X020789Y010661D01*
X020589Y010210D01*
X020367Y009769D01*
X020124Y009340D01*
X019860Y008924D01*
X019576Y008520D01*
X019273Y008131D01*
X018951Y007758D01*
X018610Y007401D01*
X018253Y007060D01*
X017880Y006738D01*
X017491Y006435D01*
X017087Y006151D01*
X016671Y005887D01*
X016242Y005644D01*
X015801Y005422D01*
X015350Y005222D01*
X014890Y005044D01*
X014421Y004890D01*
X013946Y004758D01*
X013465Y004650D01*
X012979Y004566D01*
X012489Y004505D01*
X011997Y004469D01*
X011504Y004457D01*
X011011Y004469D01*
X010519Y004505D01*
X010029Y004566D01*
X009543Y004650D01*
X009062Y004758D01*
X008587Y004890D01*
X008118Y005044D01*
X007658Y005222D01*
X007207Y005422D01*
X006766Y005644D01*
X006337Y005887D01*
X005921Y006151D01*
X005517Y006435D01*
X005128Y006738D01*
X004755Y007060D01*
X004398Y007401D01*
X004057Y007758D01*
X003735Y008131D01*
X003432Y008520D01*
X003148Y008924D01*
X002884Y009340D01*
X002641Y009769D01*
X002419Y010210D01*
X002219Y010661D01*
X002041Y011121D01*
X001887Y011590D01*
X001755Y012065D01*
X001647Y012546D01*
X001563Y013032D01*
X001502Y013522D01*
X001466Y014014D01*
X001454Y014507D01*
D11*
X008801Y007566D02*
X008698Y007277D01*
X008750Y007422D02*
X009183Y007267D01*
X009286Y007557D02*
X009100Y007949D01*
X009028Y007974D01*
X008930Y007928D01*
X008878Y007783D01*
X008925Y007685D01*
X009286Y007557D02*
X009389Y007846D01*
X009581Y007544D02*
X010029Y007439D01*
X009994Y007290D02*
X010064Y007588D01*
X010411Y007360D02*
X010496Y007427D01*
X010765Y007086D01*
X010850Y007153D01*
X010868Y007305D01*
X010801Y007390D01*
X010496Y007427D01*
X010411Y007360D02*
X010393Y007207D01*
X010460Y007122D01*
X010765Y007086D01*
X010805Y006772D02*
X010347Y006826D01*
X010329Y006674D02*
X010366Y006979D01*
X009924Y006991D02*
X009476Y007096D01*
X009441Y006947D02*
X009511Y007245D01*
X009695Y007360D02*
X009581Y007544D01*
X008610Y007947D02*
X008508Y007911D01*
X008610Y007947D02*
X008677Y008085D01*
X008642Y008187D01*
X008573Y008221D01*
X008471Y008186D01*
X008437Y008117D01*
X008471Y008186D02*
X008435Y008288D01*
X008366Y008322D01*
X008264Y008287D01*
X008196Y008149D01*
X008232Y008046D01*
X008095Y007942D02*
X007961Y007666D01*
X008028Y007804D02*
X008442Y007602D01*
X007822Y008124D02*
X007563Y008289D01*
X007351Y008241D01*
X007399Y008029D01*
X007658Y007865D01*
X007463Y007988D02*
X007628Y008247D01*
X007840Y008295D02*
X007580Y008459D01*
X007557Y008565D01*
X007639Y008695D01*
X007745Y008718D01*
X007840Y008295D01*
X007945Y008318D01*
X008028Y008448D01*
X008004Y008554D01*
X007745Y008718D01*
X007412Y008953D02*
X007219Y008714D01*
X007123Y008595D02*
X006884Y008787D01*
X006668Y008764D01*
X006692Y008548D01*
X006931Y008356D01*
X006751Y008500D02*
X006944Y008739D01*
X006980Y008907D02*
X006957Y009122D01*
X007315Y008834D01*
X006738Y009526D02*
X006521Y009310D01*
X006522Y009744D01*
X006468Y009798D01*
X006360Y009799D01*
X006251Y009691D01*
X006250Y009582D01*
X006196Y009420D02*
X005978Y009420D01*
X005978Y009203D01*
X006194Y008986D01*
X006032Y009149D02*
X006250Y009365D01*
X006196Y009420D02*
X006412Y009202D01*
X005828Y009806D02*
X005637Y010047D01*
X005421Y010072D01*
X005397Y009856D01*
X005587Y009615D01*
X005444Y009796D02*
X005685Y009986D01*
X005900Y009961D02*
X006008Y009949D01*
X006128Y010044D01*
X006141Y010152D01*
X006093Y010212D01*
X005985Y010225D01*
X005925Y010177D01*
X005985Y010225D02*
X005998Y010333D01*
X005950Y010393D01*
X005842Y010405D01*
X005722Y010310D01*
X005710Y010202D01*
X005205Y010437D02*
X005230Y010543D01*
X005067Y010803D01*
X004961Y010827D01*
X004766Y010705D01*
X005010Y010315D01*
X005205Y010437D01*
X005360Y010624D02*
X005466Y010600D01*
X005596Y010681D01*
X005620Y010787D01*
X005580Y010852D01*
X005474Y010876D01*
X005409Y010835D01*
X005474Y010876D02*
X005498Y010982D01*
X005458Y011047D01*
X005352Y011071D01*
X005222Y010990D01*
X005197Y010884D01*
X004968Y011243D02*
X005113Y011652D01*
X005079Y011721D01*
X004977Y011758D01*
X004839Y011691D01*
X004803Y011589D01*
X004664Y011523D02*
X004797Y011246D01*
X004761Y011143D01*
X004553Y011044D01*
X004354Y011459D01*
X004562Y011559D01*
X004664Y011523D01*
X004968Y011243D02*
X005245Y011376D01*
X004881Y012025D02*
X004591Y011924D01*
X004736Y011975D02*
X004584Y012409D01*
X004490Y012214D01*
X004320Y012236D02*
X004421Y011946D01*
X004374Y011849D01*
X004156Y011773D01*
X004005Y012208D01*
X004222Y012283D01*
X004320Y012236D01*
X004373Y012690D02*
X004281Y012748D01*
X004512Y013115D01*
X004580Y012816D01*
X004522Y012724D01*
X004373Y012690D01*
X004281Y012748D02*
X004213Y013047D01*
X004271Y013139D01*
X004420Y013173D01*
X004512Y013115D01*
X004358Y013466D02*
X004306Y013924D01*
X004103Y013669D01*
X004408Y013704D01*
X003951Y013652D02*
X003646Y013618D01*
X003637Y013694D02*
X003773Y013864D01*
X003942Y013729D01*
X003977Y013424D01*
X003672Y013389D02*
X003637Y013694D01*
X003584Y014277D02*
X003584Y014584D01*
X003737Y014738D01*
X003891Y014584D01*
X003891Y014277D01*
X004044Y014354D02*
X004121Y014277D01*
X004274Y014277D01*
X004351Y014354D01*
X004351Y014508D01*
X004274Y014584D01*
X004198Y014584D01*
X004044Y014508D01*
X004044Y014738D01*
X004351Y014738D01*
X004358Y015039D02*
X004105Y015531D01*
X003952Y015548D02*
X003647Y015583D01*
X003800Y015565D02*
X003748Y015108D01*
X004054Y015074D02*
X004410Y015497D01*
X004554Y015404D02*
X004639Y015471D01*
X004791Y015454D01*
X004859Y015369D01*
X004850Y015293D01*
X004511Y015022D01*
X004816Y014988D01*
X004935Y015740D02*
X004636Y015808D01*
X005003Y016040D01*
X005020Y016114D01*
X004962Y016206D01*
X004812Y016240D01*
X004721Y016182D01*
X004588Y016291D02*
X004187Y015910D01*
X004037Y015944D02*
X003921Y016128D01*
X003996Y016111D02*
X003772Y016162D01*
X003738Y016012D02*
X003840Y016461D01*
X004064Y016410D01*
X004122Y016319D01*
X004088Y016169D01*
X003996Y016111D01*
X004289Y016359D02*
X004486Y015842D01*
X004911Y016512D02*
X005056Y016461D01*
X005154Y016508D01*
X005274Y016385D02*
X005563Y016284D01*
X005418Y016335D02*
X005570Y016770D01*
X005374Y016675D01*
X005255Y016798D02*
X005208Y016896D01*
X005063Y016946D01*
X004965Y016899D01*
X004864Y016609D01*
X004911Y016512D01*
X004694Y016587D02*
X004795Y016877D01*
X004700Y017073D01*
X004505Y016978D01*
X004404Y016688D01*
X004284Y016811D02*
X004187Y016764D01*
X003969Y016840D01*
X004121Y017274D01*
X004338Y017199D01*
X004385Y017101D01*
X004284Y016811D01*
X004480Y016906D02*
X004770Y016805D01*
X005002Y017235D02*
X005135Y017512D01*
X005063Y017717D01*
X004858Y017645D01*
X004726Y017368D01*
X004620Y017503D02*
X004753Y017780D01*
X004717Y017882D01*
X004509Y017982D01*
X004311Y017567D01*
X004518Y017467D01*
X004620Y017503D01*
X004825Y017575D02*
X005102Y017443D01*
X005307Y017515D02*
X005174Y017238D01*
X005210Y017136D01*
X005348Y017069D01*
X005451Y017105D01*
X005556Y016970D02*
X005965Y017114D01*
X005999Y017183D01*
X005963Y017286D01*
X005824Y017352D01*
X005722Y017316D01*
X005583Y017382D02*
X005547Y017485D01*
X005409Y017551D01*
X005307Y017515D01*
X005597Y017785D02*
X005573Y017891D01*
X005996Y017988D01*
X005833Y017728D01*
X005727Y017704D01*
X005597Y017785D01*
X005573Y017891D02*
X005736Y018151D01*
X005841Y018176D01*
X005971Y018094D01*
X005996Y017988D01*
X006274Y018308D02*
X006034Y018499D01*
X006154Y018403D02*
X006440Y018764D01*
X006224Y018739D01*
X006104Y018835D02*
X005913Y018594D01*
X006056Y018774D02*
X005816Y018965D01*
X005863Y019025D02*
X006079Y019050D01*
X006104Y018835D01*
X005863Y019025D02*
X005673Y018785D01*
X005432Y018975D02*
X005718Y019336D01*
X005598Y019431D02*
X005838Y019241D01*
X006120Y019541D02*
X006336Y019759D01*
X006335Y019976D01*
X006118Y019975D01*
X005902Y019757D01*
X006064Y019921D02*
X006282Y019705D01*
X006391Y019596D02*
X006554Y019434D01*
X006555Y019326D01*
X006501Y019271D01*
X006392Y019271D01*
X006283Y019379D01*
X006283Y019487D01*
X006391Y019596D01*
X006608Y019597D01*
X006771Y019543D01*
X006890Y020046D02*
X006950Y020094D01*
X007382Y020047D01*
X007442Y020095D01*
X007249Y020334D01*
X007034Y020357D02*
X007057Y020573D01*
X006841Y020597D01*
X006602Y020404D01*
X006781Y020549D02*
X006974Y020309D01*
X007034Y020357D02*
X006794Y020165D01*
X007435Y020737D02*
X007541Y020713D01*
X007670Y020795D01*
X007588Y020925D01*
X007635Y021137D02*
X007376Y020972D01*
X007353Y020866D01*
X007435Y020737D01*
X007558Y020543D02*
X007947Y020789D01*
X007723Y020283D01*
X008111Y020530D01*
X008194Y020400D02*
X007805Y020154D01*
X007928Y019959D01*
X008034Y019936D01*
X008293Y020100D01*
X008317Y020206D01*
X008194Y020400D01*
X008414Y020541D02*
X008515Y020334D01*
X008618Y020298D01*
X008894Y020433D01*
X008929Y020536D01*
X008828Y020742D01*
X008414Y020541D01*
X008347Y020679D02*
X008761Y020880D01*
X009007Y021022D02*
X009440Y021177D01*
X009492Y021032D02*
X009058Y020878D01*
X009135Y020661D01*
X009233Y020614D01*
X009523Y020717D01*
X009569Y020815D01*
X009492Y021032D01*
X009648Y021445D02*
X009833Y021330D01*
X010131Y021401D01*
X010061Y021699D02*
X009762Y021629D01*
X009648Y021445D01*
X009338Y021466D02*
X009007Y021022D01*
X008904Y021312D02*
X009338Y021466D01*
X009214Y021585D02*
X009260Y021683D01*
X009209Y021827D01*
X009111Y021874D01*
X008822Y021771D01*
X008775Y021673D01*
X008827Y021528D01*
X008925Y021482D01*
X009069Y021533D01*
X009018Y021678D01*
X009560Y021818D02*
X009525Y021968D01*
X009583Y022060D01*
X009732Y022095D02*
X009842Y021963D01*
X009859Y021888D01*
X009802Y021796D01*
X009653Y021761D01*
X009560Y021818D01*
X009732Y022095D02*
X009956Y022148D01*
X010026Y021849D01*
X010421Y021843D02*
X010878Y021897D01*
X010457Y021538D01*
X010914Y021593D01*
X010932Y021440D02*
X010959Y021212D01*
X010892Y021126D01*
X010588Y021090D01*
X010502Y021157D01*
X010475Y021386D01*
X010932Y021440D01*
X011224Y021547D02*
X011224Y021700D01*
X011301Y021777D01*
X011301Y021930D02*
X011224Y021930D01*
X011224Y022007D01*
X011301Y022007D01*
X011301Y021930D01*
X011301Y022161D02*
X011224Y022237D01*
X011224Y022391D01*
X011301Y022467D01*
X011454Y022314D02*
X011454Y022237D01*
X011377Y022161D01*
X011301Y022161D01*
X011454Y022237D02*
X011531Y022161D01*
X011608Y022161D01*
X011684Y022237D01*
X011684Y022391D01*
X011608Y022467D01*
X012174Y022481D02*
X012174Y022327D01*
X012251Y022251D01*
X012404Y022251D01*
X012404Y022404D01*
X012251Y022557D02*
X012174Y022481D01*
X012251Y022557D02*
X012558Y022557D01*
X012634Y022481D01*
X012634Y022327D01*
X012558Y022251D01*
X012634Y022097D02*
X012174Y022097D01*
X012174Y021790D02*
X012634Y021790D01*
X012634Y021637D02*
X012634Y021407D01*
X012558Y021330D01*
X012251Y021330D01*
X012174Y021407D01*
X012174Y021637D01*
X012634Y021637D01*
X013104Y021790D02*
X013411Y021790D01*
X013564Y021944D01*
X013411Y022097D01*
X013104Y022097D01*
X013181Y022251D02*
X013104Y022327D01*
X013104Y022557D01*
X013564Y022557D01*
X013564Y022327D01*
X013488Y022251D01*
X013411Y022251D01*
X013334Y022327D01*
X013334Y022557D01*
X013334Y022327D02*
X013257Y022251D01*
X013181Y022251D01*
X013334Y022097D02*
X013334Y021790D01*
X013564Y021637D02*
X013564Y021330D01*
X013564Y021483D02*
X013104Y021483D01*
X012634Y022097D02*
X012174Y021790D01*
X011684Y021700D02*
X011684Y021547D01*
X011608Y021470D01*
X011531Y021470D01*
X011454Y021547D01*
X011377Y021470D01*
X011301Y021470D01*
X011224Y021547D01*
X011454Y021547D02*
X011454Y021623D01*
X011608Y021777D02*
X011684Y021700D01*
X011684Y021317D02*
X011377Y021317D01*
X011224Y021163D01*
X011377Y021010D01*
X011684Y021010D01*
X010783Y022041D02*
X010850Y022126D01*
X010832Y022278D01*
X010747Y022345D01*
X010442Y022309D01*
X010375Y022224D01*
X010393Y022071D01*
X010479Y022004D01*
X010631Y022022D01*
X010613Y022175D01*
X008626Y021156D02*
X008347Y020679D01*
X008212Y020954D02*
X008626Y021156D01*
X008490Y021261D02*
X008525Y021363D01*
X008458Y021501D01*
X008355Y021536D01*
X008080Y021402D01*
X008044Y021299D01*
X008112Y021161D01*
X008214Y021126D01*
X008352Y021193D01*
X008285Y021331D01*
X007824Y020984D02*
X007741Y021113D01*
X007635Y021137D01*
X007824Y020984D02*
X007800Y020878D01*
X005256Y018541D02*
X004995Y018704D01*
X005126Y018623D02*
X004882Y018232D01*
X005142Y018070D02*
X005304Y018330D01*
X005516Y018379D01*
X005565Y018167D01*
X005402Y017907D01*
X005524Y018102D02*
X005264Y018265D01*
X005556Y016970D02*
X005833Y016837D01*
X003891Y014508D02*
X003584Y014508D01*
X003971Y013071D02*
X003747Y013020D01*
X003849Y012571D01*
X004073Y012622D01*
X004131Y012714D01*
X004063Y013013D01*
X003971Y013071D01*
X011224Y007562D02*
X011684Y007562D01*
X011684Y007715D02*
X011684Y007408D01*
X011684Y007255D02*
X011224Y006948D01*
X011300Y006794D02*
X011224Y006718D01*
X011224Y006487D01*
X011684Y006487D01*
X011531Y006487D02*
X011531Y006718D01*
X011454Y006794D01*
X011300Y006794D01*
X011531Y006641D02*
X011684Y006794D01*
X011684Y006948D02*
X011224Y007255D01*
X011377Y007408D02*
X011224Y007562D01*
X012174Y007532D02*
X012634Y007532D01*
X012634Y007685D02*
X012634Y007378D01*
X012634Y007225D02*
X012174Y006918D01*
X012174Y006764D02*
X012174Y006457D01*
X012174Y006611D02*
X012634Y006611D01*
X012634Y006918D02*
X012174Y007225D01*
X012327Y007378D02*
X012174Y007532D01*
X013124Y007505D02*
X013200Y007428D01*
X013507Y007428D01*
X013584Y007505D01*
X013584Y007658D01*
X013507Y007735D01*
X013200Y007735D01*
X013124Y007658D01*
X013124Y007505D01*
X013200Y007275D02*
X013124Y007198D01*
X013124Y007044D01*
X013200Y006968D01*
X013507Y006968D01*
X013584Y007044D01*
X013584Y007198D01*
X013507Y007275D01*
X013584Y006814D02*
X013124Y006814D01*
X013277Y006661D01*
X013124Y006507D01*
X013584Y006507D01*
X016524Y006886D02*
X016524Y007117D01*
X016600Y007193D01*
X016907Y007193D01*
X016984Y007117D01*
X016984Y006886D01*
X016524Y006886D01*
X016754Y007347D02*
X016677Y007423D01*
X016677Y007577D01*
X016754Y007654D01*
X016831Y007654D01*
X016831Y007347D01*
X016907Y007347D02*
X016754Y007347D01*
X016907Y007347D02*
X016984Y007423D01*
X016984Y007577D01*
X016984Y007807D02*
X016984Y008037D01*
X016907Y008114D01*
X016831Y008037D01*
X016831Y007884D01*
X016754Y007807D01*
X016677Y007884D01*
X016677Y008114D01*
X016677Y008267D02*
X016677Y008344D01*
X016984Y008344D01*
X016984Y008267D02*
X016984Y008421D01*
X016907Y008574D02*
X016984Y008651D01*
X016984Y008881D01*
X017061Y008881D02*
X016677Y008881D01*
X016677Y008651D01*
X016754Y008574D01*
X016907Y008574D01*
X017137Y008728D02*
X017137Y008804D01*
X017061Y008881D01*
X016984Y009035D02*
X016677Y009035D01*
X016677Y009265D01*
X016754Y009342D01*
X016984Y009342D01*
X016907Y009495D02*
X016754Y009495D01*
X016677Y009572D01*
X016677Y009725D01*
X016754Y009802D01*
X016831Y009802D01*
X016831Y009495D01*
X016907Y009495D02*
X016984Y009572D01*
X016984Y009725D01*
X016907Y009955D02*
X016754Y009955D01*
X016677Y010032D01*
X016677Y010262D01*
X016524Y010262D02*
X016984Y010262D01*
X016984Y010032D01*
X016907Y009955D01*
X016984Y010876D02*
X016524Y010876D01*
X016524Y011106D01*
X016600Y011183D01*
X016677Y011183D01*
X016754Y011106D01*
X016754Y010876D01*
X016984Y010876D02*
X016984Y011106D01*
X016907Y011183D01*
X016831Y011183D01*
X016754Y011106D01*
X016677Y011336D02*
X016907Y011336D01*
X016984Y011413D01*
X016984Y011643D01*
X017061Y011643D02*
X017137Y011567D01*
X017137Y011490D01*
X017061Y011643D02*
X016677Y011643D01*
X016677Y011797D02*
X016754Y011797D01*
X016754Y011874D01*
X016677Y011874D01*
X016677Y011797D01*
X016907Y011797D02*
X016984Y011797D01*
X016984Y011874D01*
X016907Y011874D01*
X016907Y011797D01*
X017024Y013027D02*
X017484Y013027D01*
X017484Y013334D01*
X017254Y013181D02*
X017254Y013027D01*
X017024Y013027D02*
X017024Y013334D01*
X017177Y013488D02*
X017484Y013641D01*
X017177Y013795D01*
X017177Y014025D02*
X017177Y014178D01*
X017254Y014255D01*
X017484Y014255D01*
X017484Y014025D01*
X017407Y013948D01*
X017331Y014025D01*
X017331Y014255D01*
X017484Y014408D02*
X017177Y014408D01*
X017177Y014639D01*
X017254Y014715D01*
X017484Y014715D01*
X017024Y015329D02*
X017024Y015636D01*
X017024Y015483D02*
X017484Y015483D01*
X017407Y015790D02*
X017254Y015790D01*
X017177Y015866D01*
X017177Y016020D01*
X017254Y016096D01*
X017331Y016096D01*
X017331Y015790D01*
X017407Y015790D02*
X017484Y015866D01*
X017484Y016020D01*
X017484Y016250D02*
X017484Y016403D01*
X017484Y016327D02*
X017177Y016327D01*
X017177Y016250D01*
X017024Y016327D02*
X016947Y016327D01*
X017177Y016557D02*
X017177Y016710D01*
X017100Y016633D02*
X017407Y016633D01*
X017484Y016710D01*
X017407Y016864D02*
X017254Y016864D01*
X017177Y016940D01*
X017177Y017094D01*
X017254Y017171D01*
X017331Y017171D01*
X017331Y016864D01*
X017407Y016864D02*
X017484Y016940D01*
X017484Y017094D01*
X017484Y017324D02*
X017484Y017477D01*
X017484Y017401D02*
X017024Y017401D01*
X017024Y017324D01*
X017177Y017631D02*
X017177Y017708D01*
X017254Y017784D01*
X017177Y017861D01*
X017254Y017938D01*
X017484Y017938D01*
X017484Y017784D02*
X017254Y017784D01*
X017177Y017631D02*
X017484Y017631D01*
X017407Y018091D02*
X017331Y018168D01*
X017331Y018398D01*
X017254Y018398D02*
X017484Y018398D01*
X017484Y018168D01*
X017407Y018091D01*
X017177Y018168D02*
X017177Y018321D01*
X017254Y018398D01*
X017177Y018552D02*
X017177Y018782D01*
X017254Y018859D01*
X017484Y018859D01*
X017484Y018552D02*
X017177Y018552D01*
X016484Y018552D02*
X016484Y018398D01*
X016407Y018321D01*
X016254Y018321D01*
X016177Y018398D01*
X016177Y018552D01*
X016254Y018628D01*
X016331Y018628D01*
X016331Y018321D01*
X016331Y018168D02*
X016331Y017861D01*
X016407Y017861D02*
X016254Y017861D01*
X016177Y017938D01*
X016177Y018091D01*
X016254Y018168D01*
X016331Y018168D01*
X016484Y018091D02*
X016484Y017938D01*
X016407Y017861D01*
X016177Y017708D02*
X016177Y017631D01*
X016331Y017477D01*
X016484Y017477D02*
X016177Y017477D01*
X016100Y017324D02*
X016024Y017247D01*
X016024Y017094D01*
X016100Y017017D01*
X016407Y017017D01*
X016484Y017094D01*
X016484Y017247D01*
X016407Y017324D01*
X016254Y017324D01*
X016254Y017171D01*
X016407Y016403D02*
X016100Y016403D01*
X016024Y016327D01*
X016024Y016096D01*
X016484Y016096D01*
X016484Y016327D01*
X016407Y016403D01*
X016484Y015483D02*
X016254Y015483D01*
X016177Y015406D01*
X016177Y015176D01*
X016484Y015176D01*
X016331Y015022D02*
X016331Y014715D01*
X016407Y014715D02*
X016254Y014715D01*
X016177Y014792D01*
X016177Y014946D01*
X016254Y015022D01*
X016331Y015022D01*
X016484Y014946D02*
X016484Y014792D01*
X016407Y014715D01*
X016177Y014562D02*
X016177Y014485D01*
X016331Y014332D01*
X016484Y014332D02*
X016177Y014332D01*
X016177Y014178D02*
X016177Y014102D01*
X016331Y013948D01*
X016484Y013948D02*
X016177Y013948D01*
X016254Y013795D02*
X016484Y013795D01*
X016484Y013564D01*
X016407Y013488D01*
X016331Y013564D01*
X016331Y013795D01*
X016254Y013795D02*
X016177Y013718D01*
X016177Y013564D01*
X016024Y013334D02*
X016484Y013334D01*
X016331Y013181D01*
X016484Y013027D01*
X016024Y013027D01*
X016447Y008344D02*
X016524Y008344D01*
X016484Y018782D02*
X016177Y018782D01*
X016177Y019012D01*
X016254Y019089D01*
X016484Y019089D01*
X016407Y019242D02*
X016177Y019242D01*
X016407Y019242D02*
X016484Y019319D01*
X016407Y019396D01*
X016484Y019472D01*
X016407Y019549D01*
X016177Y019549D01*
X016177Y019779D02*
X016177Y019933D01*
X016254Y020009D01*
X016484Y020009D01*
X016484Y019779D01*
X016407Y019703D01*
X016331Y019779D01*
X016331Y020009D01*
X016407Y020163D02*
X016177Y020163D01*
X016407Y020163D02*
X016484Y020240D01*
X016484Y020470D01*
X016561Y020470D02*
X016637Y020393D01*
X016637Y020316D01*
X016561Y020470D02*
X016177Y020470D01*
D12*
X018333Y019492D02*
X018974Y019492D01*
X018974Y019171D01*
X018867Y019065D01*
X018654Y019065D01*
X018547Y019171D01*
X018547Y019492D01*
X018974Y018849D02*
X018974Y018635D01*
X018974Y018742D02*
X018333Y018742D01*
X018333Y018635D01*
X018547Y018311D02*
X018654Y018417D01*
X018760Y018417D01*
X018760Y017990D01*
X018654Y017990D02*
X018867Y017990D01*
X018974Y018097D01*
X018974Y018311D01*
X018547Y018311D02*
X018547Y018097D01*
X018654Y017990D01*
X018547Y017668D02*
X018974Y017668D01*
X018974Y017774D02*
X018974Y017561D01*
X018974Y017343D02*
X018654Y017343D01*
X018547Y017236D01*
X018547Y017023D01*
X018654Y016916D01*
X018760Y016699D02*
X018654Y016592D01*
X018654Y016378D01*
X018547Y016272D01*
X018440Y016272D01*
X018333Y016378D01*
X018333Y016592D01*
X018440Y016699D01*
X018333Y016916D02*
X018974Y016916D01*
X018867Y016699D02*
X018974Y016592D01*
X018974Y016378D01*
X018867Y016272D01*
X018867Y016699D02*
X018760Y016699D01*
X018547Y017561D02*
X018547Y017668D01*
X018333Y017668D02*
X018227Y017668D01*
X018547Y015410D02*
X018867Y015410D01*
X018974Y015303D01*
X018867Y015196D01*
X018974Y015089D01*
X018867Y014983D01*
X018547Y014983D01*
X018654Y014765D02*
X018547Y014658D01*
X018547Y014445D01*
X018654Y014338D01*
X018867Y014338D01*
X018974Y014445D01*
X018974Y014658D01*
X018867Y014765D01*
X018654Y014765D01*
X018974Y014122D02*
X018974Y013908D01*
X018974Y014015D02*
X018333Y014015D01*
X018333Y013908D01*
X018333Y013586D02*
X018974Y013586D01*
X018974Y013692D02*
X018974Y013479D01*
X018974Y013263D02*
X018974Y013049D01*
X018974Y013156D02*
X018547Y013156D01*
X018547Y013049D01*
X018333Y013156D02*
X018227Y013156D01*
X018333Y013479D02*
X018333Y013586D01*
X018440Y012832D02*
X018333Y012725D01*
X018333Y012405D01*
X018974Y012405D01*
X018760Y012405D02*
X018760Y012725D01*
X018654Y012832D01*
X018440Y012832D01*
X018547Y011543D02*
X019081Y011543D01*
X019187Y011436D01*
X019187Y011329D01*
X018974Y011222D02*
X018974Y011543D01*
X018974Y011222D02*
X018867Y011116D01*
X018547Y011116D01*
X018654Y010898D02*
X018974Y010898D01*
X018974Y010684D02*
X018654Y010684D01*
X018547Y010791D01*
X018654Y010898D01*
X018654Y010684D02*
X018547Y010578D01*
X018547Y010471D01*
X018974Y010471D01*
X018974Y010253D02*
X018974Y009933D01*
X018867Y009826D01*
X018654Y009826D01*
X018547Y009933D01*
X018547Y010253D01*
X019081Y010253D01*
X019187Y010147D01*
X019187Y010040D01*
X019081Y009609D02*
X018547Y009609D01*
X018974Y009609D02*
X018974Y009289D01*
X018867Y009182D01*
X018547Y009182D01*
X018654Y008964D02*
X018760Y008858D01*
X018760Y008537D01*
X018974Y008537D02*
X018333Y008537D01*
X018333Y008858D01*
X018440Y008964D01*
X018654Y008964D01*
X019187Y009395D02*
X019187Y009502D01*
X019081Y009609D01*
M02*
