%
M48
M72
T01C0.0200
T02C0.0236
T03C0.0315
%
T01
X9904Y8667
X10464Y11467
X13584Y14027
X13584Y14667
X12224Y14507
X10704Y15227
X10064Y15227
X8304Y15387
X5024Y11707
X13184Y17947
X13584Y16747
X13984Y13067
T02
X18004Y13007
X18004Y13507
X18004Y14007
X18004Y14507
X18004Y15007
X18004Y15507
X18004Y16007
X18004Y16507
X18004Y17007
X18004Y17507
X18004Y18007
X18004Y18507
X18004Y19007
X18004Y19507
X18004Y20007
X18004Y20507
X18004Y21007
X18004Y21507
X18004Y12507
X18004Y12007
X18004Y11507
X18004Y11007
X18004Y10507
X18004Y10007
X18004Y9507
X18004Y9007
X18004Y8507
X18004Y8007
X18004Y7507
T03
X7704Y6558
X6997Y7265
X6290Y7972
X5583Y8679
X4875Y9386
X4168Y10093
X3461Y10800
X2754Y11507
X2754Y12507
X2754Y13507
X2754Y14507
X2754Y15507
X2754Y16507
X2754Y17507
X3461Y18215
X4168Y18922
X4875Y19629
X5583Y20336
X6290Y21043
X6997Y21750
X7704Y22457
X8411Y23164
X9411Y23164
X10411Y23164
X11411Y23164
X12411Y23164
X13411Y23164
X13411Y5851
X12411Y5851
X11411Y5851
X10411Y5851
X9411Y5851
X8411Y5851
M30
