%
M48
M72
T01C0.0150
T02C0.0276
T03C0.0400
%
T01
X15004Y7007
X15004Y8507
X15004Y10007
X15004Y11507
X13504Y11507
X12004Y11507
X10004Y11507
X9004Y11507
X9004Y13007
X9004Y14507
X9004Y16007
X9004Y17507
X10004Y17507
X12004Y17507
X13504Y17507
X15004Y17507
X15004Y16217
X15004Y14507
X15004Y13007
X15004Y19007
X13504Y19007
X12004Y19007
X15004Y20507
X15004Y22007
T02
X12213Y15216
X12213Y13799
X10795Y13799
T03
X8411Y5851
X7704Y6558
X6997Y7265
X6290Y7972
X5583Y8679
X4875Y9386
X4168Y10093
X3461Y10800
X2754Y11507
X2754Y12507
X2754Y13507
X2754Y14507
X2754Y15507
X2754Y16507
X2754Y17507
X3461Y18214
X4168Y18922
X4875Y19629
X5583Y20336
X6290Y21043
X6997Y21750
X7704Y22457
X8411Y23164
X9411Y23164
X10411Y23164
X11411Y23164
X12411Y23164
X13411Y23164
X13411Y5851
X12411Y5851
X11411Y5851
X10411Y5851
X9411Y5851
M30
