G75*
G70*
%OFA0B0*%
%FSLAX24Y24*%
%IPPOS*%
%LPD*%
%AMOC8*
5,1,8,0,0,1.08239X$1,22.5*
%
%ADD10C,0.0080*%
%ADD11C,0.0040*%
%ADD12C,0.0050*%
D10*
X000645Y001145D02*
X000645Y008645D01*
X000647Y008689D01*
X000653Y008732D01*
X000662Y008774D01*
X000675Y008816D01*
X000692Y008856D01*
X000712Y008895D01*
X000735Y008932D01*
X000762Y008966D01*
X000791Y008999D01*
X000824Y009028D01*
X000858Y009055D01*
X000895Y009078D01*
X000934Y009098D01*
X000974Y009115D01*
X001016Y009128D01*
X001058Y009137D01*
X001101Y009143D01*
X001145Y009145D01*
X004645Y009145D01*
X004689Y009143D01*
X004732Y009137D01*
X004774Y009128D01*
X004816Y009115D01*
X004856Y009098D01*
X004895Y009078D01*
X004932Y009055D01*
X004966Y009028D01*
X004999Y008999D01*
X005028Y008966D01*
X005055Y008932D01*
X005078Y008895D01*
X005098Y008856D01*
X005115Y008816D01*
X005128Y008774D01*
X005137Y008732D01*
X005143Y008689D01*
X005145Y008645D01*
X005145Y001145D01*
X005143Y001101D01*
X005137Y001058D01*
X005128Y001016D01*
X005115Y000974D01*
X005098Y000934D01*
X005078Y000895D01*
X005055Y000858D01*
X005028Y000824D01*
X004999Y000791D01*
X004966Y000762D01*
X004932Y000735D01*
X004895Y000712D01*
X004856Y000692D01*
X004816Y000675D01*
X004774Y000662D01*
X004732Y000653D01*
X004689Y000647D01*
X004645Y000645D01*
X001145Y000645D01*
X001101Y000647D01*
X001058Y000653D01*
X001016Y000662D01*
X000974Y000675D01*
X000934Y000692D01*
X000895Y000712D01*
X000858Y000735D01*
X000824Y000762D01*
X000791Y000791D01*
X000762Y000824D01*
X000735Y000858D01*
X000712Y000895D01*
X000692Y000934D01*
X000675Y000974D01*
X000662Y001016D01*
X000653Y001058D01*
X000647Y001101D01*
X000645Y001145D01*
D11*
X003012Y005279D02*
X003012Y005356D01*
X003088Y005432D01*
X003472Y005432D01*
X003395Y005586D02*
X003242Y005586D01*
X003165Y005662D01*
X003165Y005893D01*
X003088Y005893D02*
X003472Y005893D01*
X003472Y005662D01*
X003395Y005586D01*
X003165Y005432D02*
X003165Y005202D01*
X003242Y005125D01*
X003472Y005125D01*
X003549Y004972D02*
X003395Y004972D01*
X003318Y004895D01*
X003318Y004665D01*
X003165Y004665D02*
X003625Y004665D01*
X003625Y004895D01*
X003549Y004972D01*
X003012Y005739D02*
X003012Y005816D01*
X003088Y005893D01*
X003165Y006046D02*
X003472Y006046D01*
X003472Y006123D01*
X003395Y006200D01*
X003472Y006276D01*
X003395Y006353D01*
X003165Y006353D01*
X003165Y006200D02*
X003395Y006200D01*
X003472Y006506D02*
X003242Y006506D01*
X003165Y006583D01*
X003165Y006813D01*
X003088Y006813D02*
X003012Y006737D01*
X003012Y006660D01*
X003088Y006813D02*
X003472Y006813D01*
X003242Y007427D02*
X003165Y007504D01*
X003165Y007581D01*
X003242Y007657D01*
X003625Y007657D01*
X003625Y007581D02*
X003625Y007734D01*
X003625Y007888D02*
X003625Y008194D01*
X003625Y008041D02*
X003165Y008041D01*
X003165Y008348D02*
X003472Y008348D01*
X003625Y008501D01*
X003472Y008655D01*
X003165Y008655D01*
X003242Y008808D02*
X003165Y008885D01*
X003165Y009038D01*
X003242Y009115D01*
X003395Y009115D01*
X003395Y008962D01*
X003549Y009115D02*
X003625Y009038D01*
X003625Y008885D01*
X003549Y008808D01*
X003242Y008808D01*
X003395Y008655D02*
X003395Y008348D01*
D12*
X002674Y008242D02*
X002498Y008242D01*
X002440Y008300D01*
X002440Y008475D01*
X002382Y008475D02*
X002323Y008417D01*
X002323Y008358D01*
X002382Y008475D02*
X002674Y008475D01*
X002615Y008107D02*
X002440Y008107D01*
X002440Y007932D01*
X002498Y007873D01*
X002557Y007932D01*
X002557Y008107D01*
X002615Y008107D02*
X002674Y008048D01*
X002674Y007932D01*
X002674Y007739D02*
X002498Y007739D01*
X002440Y007680D01*
X002498Y007622D01*
X002440Y007563D01*
X002498Y007505D01*
X002674Y007505D01*
X002615Y007370D02*
X002440Y007370D01*
X002615Y007370D02*
X002674Y007312D01*
X002674Y007137D01*
X002440Y007137D01*
X002557Y007002D02*
X002557Y006768D01*
X002615Y006768D02*
X002498Y006768D01*
X002440Y006827D01*
X002440Y006944D01*
X002557Y007002D02*
X002615Y007002D01*
X002674Y006944D01*
X002674Y006827D01*
X002615Y006768D01*
X002615Y006634D02*
X002557Y006634D01*
X002557Y006400D01*
X002615Y006400D02*
X002498Y006400D01*
X002440Y006458D01*
X002440Y006575D01*
X002615Y006634D02*
X002674Y006575D01*
X002674Y006458D01*
X002615Y006400D01*
X002674Y006268D02*
X002674Y006210D01*
X002557Y006093D01*
X002440Y006093D02*
X002674Y006093D01*
X002732Y005958D02*
X002790Y005900D01*
X002790Y005783D01*
X002732Y005725D01*
X002498Y005725D01*
X002440Y005783D01*
X002440Y005900D01*
X002498Y005958D01*
X002615Y005958D01*
X002615Y005842D01*
X002279Y005529D02*
X002220Y005529D01*
X002104Y005529D02*
X002104Y005470D01*
X002104Y005529D02*
X001870Y005529D01*
X001870Y005587D02*
X001870Y005470D01*
X001987Y005335D02*
X001987Y005102D01*
X002045Y005102D02*
X001928Y005102D01*
X001870Y005160D01*
X001870Y005277D01*
X001987Y005335D02*
X002045Y005335D01*
X002104Y005277D01*
X002104Y005160D01*
X002045Y005102D01*
X002220Y004967D02*
X002220Y004734D01*
X002220Y004850D02*
X001870Y004850D01*
X001870Y004230D02*
X001870Y003997D01*
X002220Y003997D01*
X002220Y004230D01*
X002045Y004114D02*
X002045Y003997D01*
X002440Y004252D02*
X002557Y004368D01*
X002440Y004485D01*
X002790Y004485D01*
X002790Y004252D02*
X002440Y004252D01*
X002440Y004988D02*
X002440Y005163D01*
X002498Y005222D01*
X002732Y005222D01*
X002790Y005163D01*
X002790Y004988D01*
X002440Y004988D01*
X002104Y005716D02*
X002104Y005832D01*
X002162Y005774D02*
X001928Y005774D01*
X001870Y005832D01*
X001928Y005961D02*
X002045Y005961D01*
X002104Y006020D01*
X002104Y006136D01*
X002045Y006195D01*
X001987Y006195D01*
X001987Y005961D01*
X001928Y005961D02*
X001870Y006020D01*
X001870Y006136D01*
X001870Y006329D02*
X001870Y006446D01*
X001870Y006388D02*
X002220Y006388D01*
X002220Y006329D01*
X002104Y006575D02*
X002104Y006633D01*
X002045Y006692D01*
X002104Y006750D01*
X002045Y006809D01*
X001870Y006809D01*
X001870Y006692D02*
X002045Y006692D01*
X002104Y006575D02*
X001870Y006575D01*
X001928Y006943D02*
X001987Y007002D01*
X001987Y007177D01*
X002045Y007177D02*
X001870Y007177D01*
X001870Y007002D01*
X001928Y006943D01*
X002104Y007002D02*
X002104Y007118D01*
X002045Y007177D01*
X002104Y007312D02*
X002104Y007487D01*
X002045Y007545D01*
X001870Y007545D01*
X001870Y007312D02*
X002104Y007312D01*
X002383Y001580D02*
X002383Y001230D01*
X002499Y001230D02*
X002266Y001230D01*
X002499Y001464D02*
X002383Y001580D01*
X002625Y001288D02*
X002625Y001230D01*
X002683Y001230D01*
X002683Y001288D01*
X002625Y001288D01*
X002818Y001230D02*
X003052Y001230D01*
X002935Y001230D02*
X002935Y001580D01*
X003052Y001464D01*
X003187Y001580D02*
X003187Y001347D01*
X003303Y001230D01*
X003420Y001347D01*
X003420Y001580D01*
M02*
