G75*
G70*
%OFA0B0*%
%FSLAX24Y24*%
%IPPOS*%
%LPD*%
%AMOC8*
5,1,8,0,0,1.08239X$1,22.5*
%
%ADD10C,0.0515*%
%ADD11R,0.0515X0.0515*%
%ADD12R,0.0800X0.0300*%
%ADD13C,0.0080*%
%ADD14C,0.0310*%
%ADD15C,0.0160*%
%ADD16C,0.0396*%
D10*
X001395Y002395D03*
X001395Y003395D03*
X001395Y004395D03*
X001395Y005395D03*
X001395Y006395D03*
X001395Y007395D03*
X001395Y008395D03*
X004395Y008395D03*
X004395Y007395D03*
X004395Y006395D03*
X004395Y005395D03*
X004395Y004395D03*
X004395Y003395D03*
X004395Y002395D03*
X004395Y001395D03*
D11*
X001395Y001395D03*
D12*
X002145Y002145D03*
X002145Y002645D03*
X002145Y003145D03*
X002145Y003645D03*
X002145Y004145D03*
X003645Y004145D03*
X003645Y003645D03*
X003645Y003145D03*
X003645Y002645D03*
X003645Y002145D03*
D13*
X000995Y001045D02*
X000968Y001110D01*
X000965Y001145D01*
X000965Y008581D01*
X000965Y008645D01*
X000968Y008680D01*
X000995Y008745D01*
X001045Y008795D01*
X001110Y008822D01*
X001145Y008825D01*
X004581Y008825D01*
X004645Y008825D01*
X004680Y008822D01*
X004745Y008795D01*
X004795Y008745D01*
X004822Y008680D01*
X004825Y008645D01*
X004825Y001209D01*
X004825Y001145D01*
X004822Y001110D01*
X004795Y001045D01*
X004745Y000995D01*
X004680Y000968D01*
X004645Y000965D01*
X001145Y000965D01*
X001110Y000968D01*
X001045Y000995D01*
X000995Y001045D01*
X001003Y001038D02*
X001096Y001038D01*
X001694Y001038D01*
X004323Y001038D01*
X004324Y001038D02*
X004466Y001038D01*
X004598Y001092D01*
X004698Y001193D01*
X004752Y001324D01*
X004752Y001466D01*
X004698Y001598D01*
X004598Y001698D01*
X004466Y001752D01*
X004324Y001752D01*
X004193Y001698D01*
X004092Y001598D01*
X004038Y001466D01*
X004038Y001324D01*
X004092Y001193D01*
X004193Y001092D01*
X004324Y001038D01*
X004467Y001038D02*
X004787Y001038D01*
X004822Y001116D02*
X004622Y001116D01*
X004699Y001195D02*
X004825Y001195D01*
X004825Y001145D02*
X004825Y001145D01*
X004825Y001273D02*
X004732Y001273D01*
X004752Y001352D02*
X004825Y001352D01*
X004825Y001430D02*
X004752Y001430D01*
X004735Y001509D02*
X004825Y001509D01*
X004825Y001588D02*
X004702Y001588D01*
X004629Y001666D02*
X004825Y001666D01*
X004825Y001745D02*
X004485Y001745D01*
X004305Y001745D02*
X003499Y001745D01*
X003578Y001823D02*
X004825Y001823D01*
X004825Y001902D02*
X004093Y001902D01*
X004086Y001895D02*
X004145Y001954D01*
X004145Y002084D01*
X004207Y002043D01*
X004279Y002013D01*
X004356Y001998D01*
X004356Y001998D01*
X004356Y002356D01*
X004434Y002356D01*
X004434Y002434D01*
X004356Y002434D01*
X004356Y002792D01*
X004279Y002777D01*
X004207Y002747D01*
X004145Y002706D01*
X004145Y002836D01*
X004086Y002895D01*
X003204Y002895D01*
X003145Y002836D01*
X003145Y002785D01*
X003087Y002785D01*
X003000Y002698D01*
X002996Y002700D01*
X002894Y002700D01*
X002801Y002661D01*
X002729Y002589D01*
X002690Y002496D01*
X002690Y002394D01*
X002729Y002301D01*
X002801Y002229D01*
X002894Y002190D01*
X002996Y002190D01*
X003089Y002229D01*
X003145Y002284D01*
X003145Y001954D01*
X003172Y001927D01*
X002820Y001575D01*
X001752Y001575D01*
X001752Y001694D01*
X001694Y001752D01*
X001096Y001752D01*
X001038Y001694D01*
X001038Y001096D01*
X001096Y001038D01*
X001038Y001116D02*
X000968Y001116D01*
X000965Y001195D02*
X001038Y001195D01*
X001038Y001273D02*
X000965Y001273D01*
X000965Y001352D02*
X001038Y001352D01*
X001038Y001430D02*
X000965Y001430D01*
X000965Y001509D02*
X001038Y001509D01*
X001038Y001588D02*
X000965Y001588D01*
X000965Y001666D02*
X001038Y001666D01*
X001088Y001745D02*
X000965Y001745D01*
X000965Y001823D02*
X003069Y001823D01*
X002990Y001745D02*
X001702Y001745D01*
X001752Y001666D02*
X002912Y001666D01*
X002833Y001588D02*
X001752Y001588D01*
X001727Y001855D02*
X002110Y001855D01*
X002110Y002110D01*
X002180Y002110D01*
X002180Y001855D01*
X002563Y001855D01*
X002599Y001865D01*
X002631Y001883D01*
X002657Y001909D01*
X002675Y001941D01*
X002685Y001977D01*
X002685Y002110D01*
X002180Y002110D01*
X002180Y002180D01*
X002685Y002180D01*
X002685Y002313D01*
X002675Y002349D01*
X002657Y002381D01*
X002631Y002407D01*
X002610Y002419D01*
X002645Y002454D01*
X002645Y002836D01*
X002586Y002895D01*
X001704Y002895D01*
X001645Y002836D01*
X001645Y002825D01*
X001570Y002825D01*
X001489Y002743D01*
X001466Y002752D01*
X001324Y002752D01*
X001193Y002698D01*
X001092Y002598D01*
X001038Y002466D01*
X001038Y002324D01*
X001092Y002193D01*
X001193Y002092D01*
X001324Y002038D01*
X001466Y002038D01*
X001598Y002092D01*
X001605Y002100D01*
X001605Y001977D01*
X001615Y001941D01*
X001633Y001909D01*
X001659Y001883D01*
X001691Y001865D01*
X001727Y001855D01*
X001640Y001902D02*
X000965Y001902D01*
X000965Y001980D02*
X001605Y001980D01*
X001605Y002059D02*
X001517Y002059D01*
X001273Y002059D02*
X000965Y002059D01*
X000965Y002137D02*
X001147Y002137D01*
X001082Y002216D02*
X000965Y002216D01*
X000965Y002294D02*
X001050Y002294D01*
X001038Y002373D02*
X000965Y002373D01*
X000965Y002452D02*
X001038Y002452D01*
X001064Y002530D02*
X000965Y002530D01*
X000965Y002609D02*
X001103Y002609D01*
X001182Y002687D02*
X000965Y002687D01*
X000965Y002766D02*
X001511Y002766D01*
X001653Y002844D02*
X000965Y002844D01*
X000965Y002923D02*
X001676Y002923D01*
X001704Y002895D02*
X001645Y002954D01*
X001645Y002965D01*
X001570Y002965D01*
X001489Y003047D01*
X001466Y003038D01*
X001324Y003038D01*
X001193Y003092D01*
X001092Y003193D01*
X001038Y003324D01*
X001038Y003466D01*
X001092Y003598D01*
X001193Y003698D01*
X001324Y003752D01*
X001466Y003752D01*
X001598Y003698D01*
X001645Y003651D01*
X001645Y003836D01*
X001704Y003895D01*
X002586Y003895D01*
X002645Y003954D01*
X002645Y004336D01*
X002586Y004395D01*
X001752Y004395D01*
X001752Y004466D01*
X001698Y004598D01*
X001598Y004698D01*
X001466Y004752D01*
X001324Y004752D01*
X001193Y004698D01*
X001092Y004598D01*
X001038Y004466D01*
X001038Y004324D01*
X001092Y004193D01*
X001193Y004092D01*
X001324Y004038D01*
X001466Y004038D01*
X001598Y004092D01*
X001645Y004140D01*
X001645Y003954D01*
X001704Y003895D01*
X002586Y003895D01*
X002642Y003840D01*
X002705Y003903D01*
X002705Y005887D01*
X001529Y007063D01*
X001466Y007038D01*
X001324Y007038D01*
X001193Y007092D01*
X001092Y007193D01*
X001038Y007324D01*
X001038Y007466D01*
X001092Y007598D01*
X001193Y007698D01*
X001324Y007752D01*
X001466Y007752D01*
X001598Y007698D01*
X001698Y007598D01*
X001752Y007466D01*
X001752Y007324D01*
X001727Y007261D01*
X002905Y006083D01*
X002905Y006687D01*
X001529Y008063D01*
X001466Y008038D01*
X001324Y008038D01*
X001193Y008092D01*
X001092Y008193D01*
X001038Y008324D01*
X001038Y008466D01*
X001092Y008598D01*
X001193Y008698D01*
X001324Y008752D01*
X001466Y008752D01*
X001598Y008698D01*
X001698Y008598D01*
X001752Y008466D01*
X001752Y008324D01*
X001727Y008261D01*
X003185Y006803D01*
X003185Y006687D01*
X003185Y004422D01*
X003191Y004425D01*
X003227Y004435D01*
X003610Y004435D01*
X003610Y004180D01*
X003680Y004180D01*
X003680Y004435D01*
X003998Y004435D01*
X004013Y004511D01*
X004043Y004583D01*
X004086Y004648D01*
X004142Y004704D01*
X004207Y004747D01*
X004279Y004777D01*
X004356Y004792D01*
X004356Y004792D01*
X004356Y004434D01*
X004434Y004434D01*
X004434Y004792D01*
X004434Y004792D01*
X004511Y004777D01*
X004583Y004747D01*
X004648Y004704D01*
X004704Y004648D01*
X004747Y004583D01*
X004777Y004511D01*
X004792Y004434D01*
X004792Y004434D01*
X004434Y004434D01*
X004434Y004356D01*
X004792Y004356D01*
X004792Y004356D01*
X004777Y004279D01*
X004747Y004207D01*
X004704Y004142D01*
X004648Y004086D01*
X004583Y004043D01*
X004511Y004013D01*
X004434Y003998D01*
X004434Y003998D01*
X004434Y004356D01*
X004356Y004356D01*
X004356Y003998D01*
X004356Y003998D01*
X004279Y004013D01*
X004207Y004043D01*
X004185Y004057D01*
X004185Y003977D01*
X004175Y003941D01*
X004157Y003909D01*
X004131Y003883D01*
X004110Y003871D01*
X004145Y003836D01*
X004145Y003706D01*
X004207Y003747D01*
X004279Y003777D01*
X004356Y003792D01*
X004356Y003792D01*
X004356Y003434D01*
X004434Y003434D01*
X004434Y003792D01*
X004434Y003792D01*
X004511Y003777D01*
X004583Y003747D01*
X004648Y003704D01*
X004704Y003648D01*
X004747Y003583D01*
X004777Y003511D01*
X004792Y003434D01*
X004792Y003434D01*
X004434Y003434D01*
X004434Y003356D01*
X004792Y003356D01*
X004792Y003356D01*
X004777Y003279D01*
X004747Y003207D01*
X004704Y003142D01*
X004648Y003086D01*
X004583Y003043D01*
X004511Y003013D01*
X004434Y002998D01*
X004434Y002998D01*
X004434Y003356D01*
X004356Y003356D01*
X004356Y002998D01*
X004356Y002998D01*
X004279Y003013D01*
X004207Y003043D01*
X004145Y003084D01*
X004145Y002954D01*
X004086Y002895D01*
X003204Y002895D01*
X003145Y002954D01*
X003145Y003005D01*
X003087Y003005D01*
X003000Y003092D01*
X002996Y003090D01*
X002894Y003090D01*
X002801Y003129D01*
X002729Y003201D01*
X002690Y003294D01*
X002690Y003396D01*
X002729Y003489D01*
X002801Y003561D01*
X002894Y003600D01*
X002996Y003600D01*
X003089Y003561D01*
X003145Y003506D01*
X003145Y003547D01*
X002987Y003705D01*
X002945Y003747D01*
X002903Y003705D01*
X002703Y003505D01*
X002645Y003505D01*
X002645Y003454D01*
X002586Y003395D01*
X001752Y003395D01*
X001752Y003395D01*
X002586Y003395D01*
X002645Y003336D01*
X002645Y002954D01*
X002586Y002895D01*
X001704Y002895D01*
X001534Y003001D02*
X000965Y003001D01*
X000965Y003080D02*
X001222Y003080D01*
X001126Y003158D02*
X000965Y003158D01*
X000965Y003237D02*
X001074Y003237D01*
X001041Y003316D02*
X000965Y003316D01*
X000965Y003394D02*
X001038Y003394D01*
X001040Y003473D02*
X000965Y003473D01*
X000965Y003551D02*
X001073Y003551D01*
X001124Y003630D02*
X000965Y003630D01*
X000965Y003708D02*
X001217Y003708D01*
X001184Y004101D02*
X000965Y004101D01*
X000965Y004179D02*
X001105Y004179D01*
X001065Y004258D02*
X000965Y004258D01*
X000965Y004337D02*
X001038Y004337D01*
X001038Y004415D02*
X000965Y004415D01*
X000965Y004494D02*
X001049Y004494D01*
X001081Y004572D02*
X000965Y004572D01*
X000965Y004651D02*
X001145Y004651D01*
X001268Y004729D02*
X000965Y004729D01*
X000965Y004808D02*
X002705Y004808D01*
X002705Y004886D02*
X000965Y004886D01*
X000965Y004965D02*
X002705Y004965D01*
X002705Y005043D02*
X001480Y005043D01*
X001466Y005038D02*
X001598Y005092D01*
X001698Y005193D01*
X001752Y005324D01*
X001752Y005466D01*
X001698Y005598D01*
X001598Y005698D01*
X001466Y005752D01*
X001324Y005752D01*
X001193Y005698D01*
X001092Y005598D01*
X001038Y005466D01*
X001038Y005324D01*
X001092Y005193D01*
X001193Y005092D01*
X001324Y005038D01*
X001466Y005038D01*
X001310Y005043D02*
X000965Y005043D01*
X000965Y005122D02*
X001162Y005122D01*
X001089Y005201D02*
X000965Y005201D01*
X000965Y005279D02*
X001056Y005279D01*
X001038Y005358D02*
X000965Y005358D01*
X000965Y005436D02*
X001038Y005436D01*
X001058Y005515D02*
X000965Y005515D01*
X000965Y005593D02*
X001090Y005593D01*
X001166Y005672D02*
X000965Y005672D01*
X000965Y005750D02*
X001319Y005750D01*
X001471Y005750D02*
X002705Y005750D01*
X002705Y005672D02*
X001624Y005672D01*
X001700Y005593D02*
X002705Y005593D01*
X002705Y005515D02*
X001732Y005515D01*
X001752Y005436D02*
X002705Y005436D01*
X002705Y005358D02*
X001752Y005358D01*
X001734Y005279D02*
X002705Y005279D01*
X002705Y005201D02*
X001701Y005201D01*
X001628Y005122D02*
X002705Y005122D01*
X002705Y004729D02*
X001522Y004729D01*
X001645Y004651D02*
X002705Y004651D01*
X002705Y004572D02*
X001709Y004572D01*
X001741Y004494D02*
X002705Y004494D01*
X002705Y004415D02*
X001752Y004415D01*
X001645Y004101D02*
X001606Y004101D01*
X001645Y004022D02*
X000965Y004022D01*
X000965Y003944D02*
X001655Y003944D01*
X001674Y003865D02*
X000965Y003865D01*
X000965Y003787D02*
X001645Y003787D01*
X001645Y003708D02*
X001573Y003708D01*
X002145Y003645D02*
X002645Y003645D01*
X002845Y003845D01*
X002845Y005945D01*
X001395Y007395D01*
X001231Y007714D02*
X000965Y007714D01*
X000965Y007792D02*
X001800Y007792D01*
X001878Y007714D02*
X001559Y007714D01*
X001660Y007635D02*
X001957Y007635D01*
X002035Y007557D02*
X001715Y007557D01*
X001747Y007478D02*
X002114Y007478D01*
X002192Y007400D02*
X001752Y007400D01*
X001751Y007321D02*
X002271Y007321D01*
X002349Y007243D02*
X001745Y007243D01*
X001824Y007164D02*
X002428Y007164D01*
X002506Y007086D02*
X001902Y007086D01*
X001981Y007007D02*
X002585Y007007D01*
X002664Y006929D02*
X002059Y006929D01*
X002138Y006850D02*
X002742Y006850D01*
X002821Y006771D02*
X002217Y006771D01*
X002295Y006693D02*
X002899Y006693D01*
X002905Y006614D02*
X002374Y006614D01*
X002452Y006536D02*
X002905Y006536D01*
X002905Y006457D02*
X002531Y006457D01*
X002609Y006379D02*
X002905Y006379D01*
X002905Y006300D02*
X002688Y006300D01*
X002766Y006222D02*
X002905Y006222D01*
X002905Y006143D02*
X002845Y006143D01*
X002685Y005907D02*
X000965Y005907D01*
X000965Y005829D02*
X002705Y005829D01*
X002606Y005986D02*
X000965Y005986D01*
X000965Y006065D02*
X001259Y006065D01*
X001324Y006038D02*
X001193Y006092D01*
X001092Y006193D01*
X001038Y006324D01*
X001038Y006466D01*
X001092Y006598D01*
X001193Y006698D01*
X001324Y006752D01*
X001466Y006752D01*
X001598Y006698D01*
X001698Y006598D01*
X001752Y006466D01*
X001752Y006324D01*
X001698Y006193D01*
X001598Y006092D01*
X001466Y006038D01*
X001324Y006038D01*
X001141Y006143D02*
X000965Y006143D01*
X000965Y006222D02*
X001080Y006222D01*
X001047Y006300D02*
X000965Y006300D01*
X000965Y006379D02*
X001038Y006379D01*
X001038Y006457D02*
X000965Y006457D01*
X000965Y006536D02*
X001066Y006536D01*
X001109Y006614D02*
X000965Y006614D01*
X000965Y006693D02*
X001187Y006693D01*
X000965Y006771D02*
X001821Y006771D01*
X001899Y006693D02*
X001603Y006693D01*
X001681Y006614D02*
X001978Y006614D01*
X002056Y006536D02*
X001724Y006536D01*
X001752Y006457D02*
X002135Y006457D01*
X002213Y006379D02*
X001752Y006379D01*
X001743Y006300D02*
X002292Y006300D01*
X002370Y006222D02*
X001710Y006222D01*
X001649Y006143D02*
X002449Y006143D01*
X002528Y006065D02*
X001531Y006065D01*
X001742Y006850D02*
X000965Y006850D01*
X000965Y006929D02*
X001664Y006929D01*
X001585Y007007D02*
X000965Y007007D01*
X000965Y007086D02*
X001208Y007086D01*
X001120Y007164D02*
X000965Y007164D01*
X000965Y007243D02*
X001071Y007243D01*
X001039Y007321D02*
X000965Y007321D01*
X000965Y007400D02*
X001038Y007400D01*
X001043Y007478D02*
X000965Y007478D01*
X000965Y007557D02*
X001075Y007557D01*
X001130Y007635D02*
X000965Y007635D01*
X000965Y007871D02*
X001721Y007871D01*
X001642Y007950D02*
X000965Y007950D01*
X000965Y008028D02*
X001564Y008028D01*
X001728Y008264D02*
X004019Y008264D01*
X004013Y008279D02*
X004043Y008207D01*
X004086Y008142D01*
X004142Y008086D01*
X004207Y008043D01*
X004279Y008013D01*
X004356Y007998D01*
X004356Y007998D01*
X004356Y008356D01*
X004434Y008356D01*
X004434Y008434D01*
X004792Y008434D01*
X004777Y008511D01*
X004747Y008583D01*
X004704Y008648D01*
X004648Y008704D01*
X004583Y008747D01*
X004511Y008777D01*
X004434Y008792D01*
X004434Y008792D01*
X004434Y008434D01*
X004356Y008434D01*
X004356Y008356D01*
X003998Y008356D01*
X004013Y008279D01*
X004000Y008342D02*
X001752Y008342D01*
X001752Y008421D02*
X004356Y008421D01*
X004356Y008434D02*
X003998Y008434D01*
X003998Y008434D01*
X004013Y008511D01*
X004043Y008583D01*
X004086Y008648D01*
X004142Y008704D01*
X004207Y008747D01*
X004279Y008777D01*
X004356Y008792D01*
X004356Y008792D01*
X004356Y008434D01*
X004356Y008499D02*
X004434Y008499D01*
X004434Y008421D02*
X004825Y008421D01*
X004792Y008434D02*
X004792Y008434D01*
X004780Y008499D02*
X004825Y008499D01*
X004825Y008578D02*
X004749Y008578D01*
X004696Y008656D02*
X004824Y008656D01*
X004799Y008735D02*
X004602Y008735D01*
X004699Y008814D02*
X001091Y008814D01*
X000991Y008735D02*
X001282Y008735D01*
X001151Y008656D02*
X000966Y008656D01*
X000965Y008578D02*
X001084Y008578D01*
X001051Y008499D02*
X000965Y008499D01*
X000965Y008421D02*
X001038Y008421D01*
X001038Y008342D02*
X000965Y008342D01*
X000965Y008264D02*
X001062Y008264D01*
X001099Y008185D02*
X000965Y008185D01*
X000965Y008107D02*
X001178Y008107D01*
X001395Y008395D02*
X003045Y006745D01*
X003045Y003845D01*
X003245Y003645D01*
X003645Y003645D01*
X003645Y003145D02*
X003145Y003145D01*
X002945Y003345D01*
X002791Y003551D02*
X002749Y003551D01*
X002722Y003473D02*
X002645Y003473D01*
X002690Y003394D02*
X002587Y003394D01*
X002645Y003316D02*
X002690Y003316D01*
X002714Y003237D02*
X002645Y003237D01*
X002645Y003158D02*
X002771Y003158D01*
X002645Y003080D02*
X003012Y003080D01*
X003145Y003001D02*
X002645Y003001D01*
X002614Y002923D02*
X003176Y002923D01*
X003153Y002844D02*
X002637Y002844D01*
X002645Y002766D02*
X003068Y002766D01*
X003145Y002645D02*
X002945Y002445D01*
X002832Y002216D02*
X002685Y002216D01*
X002685Y002294D02*
X002735Y002294D01*
X002699Y002373D02*
X002662Y002373D01*
X002643Y002452D02*
X002690Y002452D01*
X002704Y002530D02*
X002645Y002530D01*
X002645Y002609D02*
X002748Y002609D01*
X002645Y002687D02*
X002863Y002687D01*
X003145Y002645D02*
X003645Y002645D01*
X003204Y002395D02*
X003200Y002399D01*
X003200Y002394D01*
X003198Y002389D01*
X003204Y002395D01*
X004086Y002395D01*
X004125Y002356D01*
X004356Y002356D01*
X004356Y002434D01*
X004125Y002434D01*
X004086Y002395D01*
X003204Y002395D01*
X003145Y002216D02*
X003058Y002216D01*
X003145Y002137D02*
X002180Y002137D01*
X002180Y002059D02*
X002110Y002059D01*
X002110Y001980D02*
X002180Y001980D01*
X002180Y001902D02*
X002110Y001902D01*
X001752Y001215D02*
X002820Y001215D01*
X002970Y001215D01*
X003650Y001895D01*
X004086Y001895D01*
X004145Y001980D02*
X004825Y001980D01*
X004825Y002059D02*
X004607Y002059D01*
X004583Y002043D02*
X004648Y002086D01*
X004704Y002142D01*
X004747Y002207D01*
X004777Y002279D01*
X004792Y002356D01*
X004792Y002356D01*
X004434Y002356D01*
X004434Y001998D01*
X004511Y002013D01*
X004583Y002043D01*
X004699Y002137D02*
X004825Y002137D01*
X004825Y002216D02*
X004751Y002216D01*
X004780Y002294D02*
X004825Y002294D01*
X004825Y002373D02*
X004434Y002373D01*
X004434Y002434D02*
X004792Y002434D01*
X004777Y002511D01*
X004747Y002583D01*
X004704Y002648D01*
X004648Y002704D01*
X004583Y002747D01*
X004511Y002777D01*
X004434Y002792D01*
X004434Y002792D01*
X004434Y002434D01*
X004434Y002452D02*
X004356Y002452D01*
X004356Y002530D02*
X004434Y002530D01*
X004434Y002609D02*
X004356Y002609D01*
X004356Y002687D02*
X004434Y002687D01*
X004434Y002766D02*
X004356Y002766D01*
X004356Y002792D02*
X004356Y002792D01*
X004251Y002766D02*
X004145Y002766D01*
X004137Y002844D02*
X004825Y002844D01*
X004825Y002766D02*
X004539Y002766D01*
X004665Y002687D02*
X004825Y002687D01*
X004825Y002609D02*
X004730Y002609D01*
X004769Y002530D02*
X004825Y002530D01*
X004825Y002452D02*
X004789Y002452D01*
X004792Y002434D02*
X004792Y002434D01*
X004825Y002923D02*
X004114Y002923D01*
X004145Y003001D02*
X004337Y003001D01*
X004356Y003001D02*
X004434Y003001D01*
X004453Y003001D02*
X004825Y003001D01*
X004825Y003080D02*
X004639Y003080D01*
X004715Y003158D02*
X004825Y003158D01*
X004825Y003237D02*
X004760Y003237D01*
X004784Y003316D02*
X004825Y003316D01*
X004825Y003394D02*
X004434Y003394D01*
X004356Y003394D02*
X004087Y003394D01*
X004086Y003395D02*
X003204Y003395D01*
X003198Y003401D01*
X003200Y003396D01*
X003200Y003391D01*
X003204Y003395D01*
X004086Y003395D01*
X004125Y003356D01*
X004356Y003356D01*
X004356Y003434D01*
X004125Y003434D01*
X004086Y003395D01*
X004145Y003708D02*
X004148Y003708D01*
X004145Y003787D02*
X004327Y003787D01*
X004356Y003787D02*
X004434Y003787D01*
X004463Y003787D02*
X004825Y003787D01*
X004825Y003865D02*
X004116Y003865D01*
X004176Y003944D02*
X004825Y003944D01*
X004825Y004022D02*
X004534Y004022D01*
X004434Y004022D02*
X004356Y004022D01*
X004356Y004101D02*
X004434Y004101D01*
X004434Y004179D02*
X004356Y004179D01*
X004356Y004258D02*
X004434Y004258D01*
X004434Y004337D02*
X004356Y004337D01*
X004434Y004415D02*
X004825Y004415D01*
X004825Y004337D02*
X004789Y004337D01*
X004768Y004258D02*
X004825Y004258D01*
X004825Y004179D02*
X004729Y004179D01*
X004663Y004101D02*
X004825Y004101D01*
X004825Y004494D02*
X004781Y004494D01*
X004752Y004572D02*
X004825Y004572D01*
X004825Y004651D02*
X004701Y004651D01*
X004610Y004729D02*
X004825Y004729D01*
X004825Y004808D02*
X003185Y004808D01*
X003185Y004886D02*
X004825Y004886D01*
X004825Y004965D02*
X003185Y004965D01*
X003185Y005043D02*
X004206Y005043D01*
X004207Y005043D02*
X004279Y005013D01*
X004356Y004998D01*
X004356Y004998D01*
X004356Y005356D01*
X004434Y005356D01*
X004434Y005434D01*
X004792Y005434D01*
X004777Y005511D01*
X004747Y005583D01*
X004704Y005648D01*
X004648Y005704D01*
X004583Y005747D01*
X004511Y005777D01*
X004434Y005792D01*
X004434Y005792D01*
X004434Y005434D01*
X004356Y005434D01*
X004356Y005356D01*
X003998Y005356D01*
X004013Y005279D01*
X004043Y005207D01*
X004086Y005142D01*
X004142Y005086D01*
X004207Y005043D01*
X004106Y005122D02*
X003185Y005122D01*
X003185Y005201D02*
X004047Y005201D01*
X004013Y005279D02*
X003185Y005279D01*
X003185Y005358D02*
X004356Y005358D01*
X004356Y005434D02*
X003998Y005434D01*
X003998Y005434D01*
X004013Y005511D01*
X004043Y005583D01*
X004086Y005648D01*
X004142Y005704D01*
X004207Y005747D01*
X004279Y005777D01*
X004356Y005792D01*
X004356Y005792D01*
X004356Y005434D01*
X004356Y005436D02*
X004434Y005436D01*
X004434Y005358D02*
X004825Y005358D01*
X004792Y005356D02*
X004777Y005279D01*
X004825Y005279D01*
X004777Y005279D02*
X004747Y005207D01*
X004704Y005142D01*
X004648Y005086D01*
X004583Y005043D01*
X004511Y005013D01*
X004434Y004998D01*
X004434Y004998D01*
X004434Y005356D01*
X004792Y005356D01*
X004792Y005356D01*
X004792Y005434D02*
X004792Y005434D01*
X004792Y005436D02*
X004825Y005436D01*
X004825Y005515D02*
X004776Y005515D01*
X004741Y005593D02*
X004825Y005593D01*
X004825Y005672D02*
X004680Y005672D01*
X004576Y005750D02*
X004825Y005750D01*
X004825Y005829D02*
X003185Y005829D01*
X003185Y005907D02*
X004825Y005907D01*
X004825Y005986D02*
X003185Y005986D01*
X003185Y006065D02*
X004174Y006065D01*
X004142Y006086D02*
X004207Y006043D01*
X004279Y006013D01*
X004356Y005998D01*
X004356Y005998D01*
X004356Y006356D01*
X004434Y006356D01*
X004434Y006434D01*
X004792Y006434D01*
X004777Y006511D01*
X004747Y006583D01*
X004704Y006648D01*
X004648Y006704D01*
X004583Y006747D01*
X004511Y006777D01*
X004434Y006792D01*
X004434Y006792D01*
X004434Y006434D01*
X004356Y006434D01*
X004356Y006356D01*
X003998Y006356D01*
X004013Y006279D01*
X004043Y006207D01*
X004086Y006142D01*
X004142Y006086D01*
X004085Y006143D02*
X003185Y006143D01*
X003185Y006222D02*
X004037Y006222D01*
X004009Y006300D02*
X003185Y006300D01*
X003185Y006379D02*
X004356Y006379D01*
X004356Y006434D02*
X003998Y006434D01*
X003998Y006434D01*
X004013Y006511D01*
X004043Y006583D01*
X004086Y006648D01*
X004142Y006704D01*
X004207Y006747D01*
X004279Y006777D01*
X004356Y006792D01*
X004356Y006792D01*
X004356Y006434D01*
X004356Y006457D02*
X004434Y006457D01*
X004434Y006379D02*
X004825Y006379D01*
X004792Y006356D02*
X004434Y006356D01*
X004434Y005998D01*
X004511Y006013D01*
X004583Y006043D01*
X004648Y006086D01*
X004704Y006142D01*
X004747Y006207D01*
X004777Y006279D01*
X004792Y006356D01*
X004792Y006356D01*
X004781Y006300D02*
X004825Y006300D01*
X004825Y006222D02*
X004753Y006222D01*
X004705Y006143D02*
X004825Y006143D01*
X004825Y006065D02*
X004616Y006065D01*
X004434Y006065D02*
X004356Y006065D01*
X004356Y006143D02*
X004434Y006143D01*
X004434Y006222D02*
X004356Y006222D01*
X004356Y006300D02*
X004434Y006300D01*
X004434Y006536D02*
X004356Y006536D01*
X004356Y006614D02*
X004434Y006614D01*
X004434Y006693D02*
X004356Y006693D01*
X004356Y006771D02*
X004434Y006771D01*
X004525Y006771D02*
X004825Y006771D01*
X004825Y006693D02*
X004659Y006693D01*
X004727Y006614D02*
X004825Y006614D01*
X004825Y006536D02*
X004767Y006536D01*
X004788Y006457D02*
X004825Y006457D01*
X004792Y006434D02*
X004792Y006434D01*
X004825Y006850D02*
X003138Y006850D01*
X003185Y006771D02*
X004265Y006771D01*
X004131Y006693D02*
X003185Y006693D01*
X003185Y006614D02*
X004064Y006614D01*
X004023Y006536D02*
X003185Y006536D01*
X003185Y006457D02*
X004002Y006457D01*
X003998Y006356D02*
X003998Y006356D01*
X004214Y005750D02*
X003185Y005750D01*
X003185Y005672D02*
X004110Y005672D01*
X004049Y005593D02*
X003185Y005593D01*
X003185Y005515D02*
X004014Y005515D01*
X003998Y005436D02*
X003185Y005436D01*
X003185Y004729D02*
X004180Y004729D01*
X004089Y004651D02*
X003185Y004651D01*
X003185Y004572D02*
X004038Y004572D01*
X004009Y004494D02*
X003185Y004494D01*
X003610Y004415D02*
X003680Y004415D01*
X003680Y004337D02*
X003610Y004337D01*
X003610Y004258D02*
X003680Y004258D01*
X004185Y004022D02*
X004256Y004022D01*
X004356Y003708D02*
X004434Y003708D01*
X004434Y003630D02*
X004356Y003630D01*
X004356Y003551D02*
X004434Y003551D01*
X004434Y003473D02*
X004356Y003473D01*
X004356Y003316D02*
X004434Y003316D01*
X004434Y003237D02*
X004356Y003237D01*
X004356Y003158D02*
X004434Y003158D01*
X004434Y003080D02*
X004356Y003080D01*
X004151Y003080D02*
X004145Y003080D01*
X004108Y002373D02*
X004356Y002373D01*
X004356Y002294D02*
X004434Y002294D01*
X004434Y002216D02*
X004356Y002216D01*
X004356Y002137D02*
X004434Y002137D01*
X004434Y002059D02*
X004356Y002059D01*
X004434Y001998D02*
X004434Y001998D01*
X004183Y002059D02*
X004145Y002059D01*
X004161Y001666D02*
X003421Y001666D01*
X003342Y001588D02*
X004088Y001588D01*
X004055Y001509D02*
X003264Y001509D01*
X003185Y001430D02*
X004038Y001430D01*
X004038Y001352D02*
X003106Y001352D01*
X003028Y001273D02*
X004058Y001273D01*
X004091Y001195D02*
X001752Y001195D01*
X001752Y001215D02*
X001752Y001096D01*
X001694Y001038D01*
X001752Y001116D02*
X004168Y001116D01*
X003147Y001902D02*
X002650Y001902D01*
X002685Y001980D02*
X003145Y001980D01*
X003145Y002059D02*
X002685Y002059D01*
X003200Y003394D02*
X003203Y003394D01*
X003141Y003551D02*
X003099Y003551D01*
X003062Y003630D02*
X002828Y003630D01*
X002906Y003708D02*
X002984Y003708D01*
X002667Y003865D02*
X002616Y003865D01*
X002635Y003944D02*
X002705Y003944D01*
X002705Y004022D02*
X002645Y004022D01*
X002645Y004101D02*
X002705Y004101D01*
X002705Y004179D02*
X002645Y004179D01*
X002645Y004258D02*
X002705Y004258D01*
X002705Y004337D02*
X002645Y004337D01*
X003998Y005356D02*
X003998Y005356D01*
X004356Y005279D02*
X004434Y005279D01*
X004434Y005201D02*
X004356Y005201D01*
X004356Y005122D02*
X004434Y005122D01*
X004434Y005043D02*
X004356Y005043D01*
X004356Y004729D02*
X004434Y004729D01*
X004434Y004651D02*
X004356Y004651D01*
X004356Y004572D02*
X004434Y004572D01*
X004434Y004494D02*
X004356Y004494D01*
X004584Y005043D02*
X004825Y005043D01*
X004825Y005122D02*
X004684Y005122D01*
X004743Y005201D02*
X004825Y005201D01*
X004434Y005515D02*
X004356Y005515D01*
X004356Y005593D02*
X004434Y005593D01*
X004434Y005672D02*
X004356Y005672D01*
X004356Y005750D02*
X004434Y005750D01*
X004434Y005998D02*
X004434Y005998D01*
X004825Y006929D02*
X003060Y006929D01*
X002981Y007007D02*
X004308Y007007D01*
X004279Y007013D02*
X004356Y006998D01*
X004356Y006998D01*
X004356Y007356D01*
X004434Y007356D01*
X004434Y007434D01*
X004792Y007434D01*
X004777Y007511D01*
X004747Y007583D01*
X004704Y007648D01*
X004648Y007704D01*
X004583Y007747D01*
X004511Y007777D01*
X004434Y007792D01*
X004434Y007792D01*
X004434Y007434D01*
X004356Y007434D01*
X004356Y007356D01*
X003998Y007356D01*
X004013Y007279D01*
X004043Y007207D01*
X004086Y007142D01*
X004142Y007086D01*
X004207Y007043D01*
X004279Y007013D01*
X004356Y007007D02*
X004434Y007007D01*
X004434Y006998D02*
X004511Y007013D01*
X004583Y007043D01*
X004648Y007086D01*
X004704Y007142D01*
X004747Y007207D01*
X004777Y007279D01*
X004792Y007356D01*
X004792Y007356D01*
X004434Y007356D01*
X004434Y006998D01*
X004434Y006998D01*
X004482Y007007D02*
X004825Y007007D01*
X004825Y007086D02*
X004647Y007086D01*
X004719Y007164D02*
X004825Y007164D01*
X004825Y007243D02*
X004762Y007243D01*
X004786Y007321D02*
X004825Y007321D01*
X004825Y007400D02*
X004434Y007400D01*
X004356Y007400D02*
X002588Y007400D01*
X002510Y007478D02*
X004006Y007478D01*
X004013Y007511D02*
X003998Y007434D01*
X003998Y007434D01*
X004356Y007434D01*
X004356Y007792D01*
X004279Y007777D01*
X004207Y007747D01*
X004142Y007704D01*
X004086Y007648D01*
X004043Y007583D01*
X004013Y007511D01*
X004032Y007557D02*
X002431Y007557D01*
X002353Y007635D02*
X004078Y007635D01*
X004157Y007714D02*
X002274Y007714D01*
X002196Y007792D02*
X004825Y007792D01*
X004825Y007714D02*
X004633Y007714D01*
X004712Y007635D02*
X004825Y007635D01*
X004825Y007557D02*
X004758Y007557D01*
X004784Y007478D02*
X004825Y007478D01*
X004792Y007434D02*
X004792Y007434D01*
X004825Y007871D02*
X002117Y007871D01*
X002038Y007950D02*
X004825Y007950D01*
X004825Y008028D02*
X004548Y008028D01*
X004583Y008043D02*
X004511Y008013D01*
X004434Y007998D01*
X004434Y007998D01*
X004434Y008356D01*
X004792Y008356D01*
X004792Y008356D01*
X004777Y008279D01*
X004747Y008207D01*
X004704Y008142D01*
X004648Y008086D01*
X004583Y008043D01*
X004669Y008107D02*
X004825Y008107D01*
X004825Y008185D02*
X004733Y008185D01*
X004771Y008264D02*
X004825Y008264D01*
X004825Y008342D02*
X004790Y008342D01*
X004434Y008342D02*
X004356Y008342D01*
X004356Y008264D02*
X004434Y008264D01*
X004434Y008185D02*
X004356Y008185D01*
X004356Y008107D02*
X004434Y008107D01*
X004434Y008028D02*
X004356Y008028D01*
X004242Y008028D02*
X001960Y008028D01*
X001881Y008107D02*
X004121Y008107D01*
X004057Y008185D02*
X001803Y008185D01*
X001739Y008499D02*
X004011Y008499D01*
X004041Y008578D02*
X001706Y008578D01*
X001639Y008656D02*
X004094Y008656D01*
X004188Y008735D02*
X001508Y008735D01*
X002667Y007321D02*
X004004Y007321D01*
X003998Y007356D02*
X003998Y007356D01*
X004028Y007243D02*
X002745Y007243D01*
X002824Y007164D02*
X004071Y007164D01*
X004143Y007086D02*
X002902Y007086D01*
X003998Y008356D02*
X003998Y008356D01*
X004356Y008578D02*
X004434Y008578D01*
X004434Y008656D02*
X004356Y008656D01*
X004356Y008735D02*
X004434Y008735D01*
X004356Y007792D02*
X004356Y007792D01*
X004356Y007714D02*
X004434Y007714D01*
X004434Y007635D02*
X004356Y007635D01*
X004356Y007557D02*
X004434Y007557D01*
X004434Y007478D02*
X004356Y007478D01*
X004356Y007321D02*
X004434Y007321D01*
X004434Y007243D02*
X004356Y007243D01*
X004356Y007164D02*
X004434Y007164D01*
X004434Y007086D02*
X004356Y007086D01*
X004642Y003708D02*
X004825Y003708D01*
X004825Y003630D02*
X004716Y003630D01*
X004761Y003551D02*
X004825Y003551D01*
X004825Y003473D02*
X004785Y003473D01*
D14*
X002945Y003345D03*
X002945Y002445D03*
D15*
X003645Y002145D02*
X002895Y001395D01*
X001395Y001395D01*
X001395Y002395D02*
X001645Y002645D01*
X002145Y002645D01*
X002145Y003145D02*
X001645Y003145D01*
X001395Y003395D01*
D16*
X003645Y005645D03*
M02*
