G75*
G70*
%OFA0B0*%
%FSLAX24Y24*%
%IPPOS*%
%LPD*%
%AMOC8*
5,1,8,0,0,1.08239X$1,22.5*
%
%ADD10C,0.0820*%
%ADD11R,0.0592X0.0671*%
%ADD12R,0.0395X0.0395*%
D10*
X008411Y005851D03*
X009411Y005851D03*
X010411Y005851D03*
X011411Y005851D03*
X012411Y005851D03*
X013411Y005851D03*
X015504Y006507D03*
X015504Y007507D03*
X016504Y007507D03*
X017504Y007507D03*
X017504Y008507D03*
X016504Y008507D03*
X015504Y008507D03*
X016504Y009507D03*
X017504Y009507D03*
X017504Y010507D03*
X016504Y010507D03*
X016504Y011507D03*
X017504Y011507D03*
X017504Y012507D03*
X016504Y012507D03*
X016504Y013507D03*
X017504Y013507D03*
X017504Y014507D03*
X016504Y014507D03*
X016504Y015507D03*
X017504Y015507D03*
X017504Y016507D03*
X016504Y016507D03*
X006997Y021750D03*
X007704Y022457D03*
X008411Y023164D03*
X009411Y023164D03*
X010411Y023164D03*
X011411Y023164D03*
X012411Y023164D03*
X013411Y023164D03*
X006290Y021043D03*
X005583Y020336D03*
X004875Y019629D03*
X004168Y018922D03*
X003461Y018214D03*
X002754Y017507D03*
X002754Y016507D03*
X002754Y015507D03*
X002754Y014507D03*
X002754Y013507D03*
X002754Y012507D03*
X002754Y011507D03*
X003461Y010800D03*
X004168Y010093D03*
X004875Y009386D03*
X005583Y008679D03*
X006290Y007972D03*
X006997Y007265D03*
X007704Y006558D03*
D11*
X009004Y011007D03*
X010004Y011007D03*
X011004Y011007D03*
X012004Y011007D03*
X012004Y020734D03*
X011004Y020732D03*
X010020Y020732D03*
X008996Y020732D03*
D12*
X009409Y021707D03*
X009409Y022207D03*
X009999Y022207D03*
X009999Y021707D03*
M02*
