G75*
G70*
%OFA0B0*%
%FSLAX24Y24*%
%IPPOS*%
%LPD*%
%AMOC8*
5,1,8,0,0,1.08239X$1,22.5*
%
%ADD10C,0.0070*%
%ADD11C,0.0050*%
%ADD12C,0.0100*%
D10*
X013411Y006424D02*
X013411Y006751D01*
X013492Y006833D01*
X013738Y006833D01*
X013738Y006342D01*
X013492Y006342D01*
X013411Y006424D01*
X013926Y006342D02*
X013926Y006833D01*
X014008Y007142D02*
X014253Y007142D01*
X014253Y007633D01*
X014008Y007633D01*
X013926Y007551D01*
X013926Y007469D01*
X014008Y007388D01*
X014253Y007388D01*
X014442Y007306D02*
X014442Y007633D01*
X014769Y007633D02*
X014769Y007306D01*
X014605Y007142D01*
X014442Y007306D01*
X014008Y007388D02*
X013926Y007306D01*
X013926Y007224D01*
X014008Y007142D01*
X013738Y007142D02*
X013738Y007469D01*
X013574Y007633D01*
X013411Y007469D01*
X013411Y007142D01*
X013411Y007388D02*
X013738Y007388D01*
X013222Y007633D02*
X012895Y007633D01*
X013059Y007633D02*
X013059Y007142D01*
X013926Y006342D02*
X014253Y006833D01*
X014253Y006342D01*
X014442Y006424D02*
X014442Y006588D01*
X014605Y006588D01*
X014442Y006751D02*
X014524Y006833D01*
X014687Y006833D01*
X014769Y006751D01*
X014769Y006424D01*
X014687Y006342D01*
X014524Y006342D01*
X014442Y006424D01*
X018329Y011189D02*
X018329Y011516D01*
X018574Y011353D02*
X018574Y011189D01*
X018819Y011189D02*
X018329Y011189D01*
X018819Y011189D02*
X018819Y011516D01*
X018656Y011705D02*
X018329Y011868D01*
X018656Y012032D01*
X018656Y012302D02*
X018656Y012466D01*
X018574Y012547D01*
X018329Y012547D01*
X018329Y012302D01*
X018411Y012220D01*
X018492Y012302D01*
X018492Y012547D01*
X018329Y012736D02*
X018656Y012736D01*
X018656Y012981D01*
X018574Y013063D01*
X018329Y013063D01*
X018819Y013767D02*
X018819Y014094D01*
X018819Y013931D02*
X018329Y013931D01*
X018411Y014283D02*
X018329Y014365D01*
X018329Y014528D01*
X018492Y014610D02*
X018492Y014283D01*
X018411Y014283D02*
X018574Y014283D01*
X018656Y014365D01*
X018656Y014528D01*
X018574Y014610D01*
X018492Y014610D01*
X018329Y014799D02*
X018329Y014962D01*
X018329Y014880D02*
X018656Y014880D01*
X018656Y014799D01*
X018819Y014880D02*
X018901Y014880D01*
X018656Y015142D02*
X018656Y015306D01*
X018738Y015224D02*
X018411Y015224D01*
X018329Y015306D01*
X018411Y015486D02*
X018329Y015568D01*
X018329Y015731D01*
X018492Y015813D02*
X018492Y015486D01*
X018411Y015486D02*
X018574Y015486D01*
X018656Y015568D01*
X018656Y015731D01*
X018574Y015813D01*
X018492Y015813D01*
X018329Y016002D02*
X018329Y016165D01*
X018329Y016083D02*
X018819Y016083D01*
X018819Y016002D01*
X018656Y016345D02*
X018329Y016345D01*
X018329Y016509D02*
X018574Y016509D01*
X018656Y016591D01*
X018574Y016672D01*
X018329Y016672D01*
X018411Y016861D02*
X018329Y016943D01*
X018329Y017188D01*
X018574Y017188D01*
X018656Y017106D01*
X018656Y016943D01*
X018492Y016943D02*
X018492Y017188D01*
X018492Y016943D02*
X018411Y016861D01*
X018574Y016509D02*
X018656Y016427D01*
X018656Y016345D01*
X019629Y016427D02*
X019711Y016345D01*
X019956Y016345D01*
X019874Y016157D02*
X019629Y016157D01*
X019874Y016157D02*
X019956Y016075D01*
X019956Y015830D01*
X019629Y015830D01*
X019792Y015641D02*
X019792Y015314D01*
X019711Y015314D02*
X019874Y015314D01*
X019956Y015396D01*
X019956Y015559D01*
X019874Y015641D01*
X019792Y015641D01*
X019629Y015559D02*
X019629Y015396D01*
X019711Y015314D01*
X019792Y015125D02*
X019792Y014799D01*
X019711Y014799D02*
X019874Y014799D01*
X019956Y014880D01*
X019956Y015044D01*
X019874Y015125D01*
X019792Y015125D01*
X019629Y015044D02*
X019629Y014880D01*
X019711Y014799D01*
X019956Y014614D02*
X019956Y014532D01*
X019792Y014369D01*
X019629Y014369D02*
X019956Y014369D01*
X019956Y014184D02*
X019956Y014103D01*
X019792Y013939D01*
X019629Y013939D02*
X019956Y013939D01*
X020038Y013750D02*
X020119Y013669D01*
X020119Y013505D01*
X020038Y013424D01*
X019711Y013424D01*
X019629Y013505D01*
X019629Y013669D01*
X019711Y013750D01*
X019874Y013750D01*
X019874Y013587D01*
X020479Y013577D02*
X020479Y013413D01*
X020561Y013331D01*
X020724Y013331D01*
X020806Y013413D01*
X020806Y013577D01*
X020724Y013658D01*
X020642Y013658D01*
X020642Y013331D01*
X020561Y013143D02*
X020888Y013143D01*
X020969Y013061D01*
X020969Y012816D01*
X020479Y012816D01*
X020479Y013061D01*
X020561Y013143D01*
X020119Y012637D02*
X020038Y012719D01*
X019711Y012719D01*
X019629Y012637D01*
X019629Y012392D01*
X020119Y012392D01*
X020119Y012637D01*
X020119Y011688D02*
X019629Y011688D01*
X019792Y011524D01*
X019629Y011361D01*
X020119Y011361D01*
X020479Y013847D02*
X020479Y014092D01*
X020561Y014174D01*
X020642Y014092D01*
X020642Y013929D01*
X020724Y013847D01*
X020806Y013929D01*
X020806Y014174D01*
X020806Y014363D02*
X020806Y014444D01*
X020479Y014444D01*
X020479Y014363D02*
X020479Y014526D01*
X020561Y014706D02*
X020479Y014788D01*
X020479Y015033D01*
X020397Y015033D02*
X020806Y015033D01*
X020806Y014788D01*
X020724Y014706D01*
X020561Y014706D01*
X020315Y014870D02*
X020315Y014952D01*
X020397Y015033D01*
X020479Y015222D02*
X020806Y015222D01*
X020806Y015467D01*
X020724Y015549D01*
X020479Y015549D01*
X020479Y016253D02*
X020479Y016498D01*
X020561Y016580D01*
X020642Y016580D01*
X020724Y016498D01*
X020724Y016253D01*
X020479Y016253D02*
X020969Y016253D01*
X020969Y016498D01*
X020888Y016580D01*
X020806Y016580D01*
X020724Y016498D01*
X020806Y016769D02*
X020561Y016769D01*
X020479Y016851D01*
X020479Y017096D01*
X020397Y017096D02*
X020315Y017014D01*
X020315Y016932D01*
X020397Y017096D02*
X020806Y017096D01*
X020806Y017284D02*
X020724Y017284D01*
X020724Y017366D01*
X020806Y017366D01*
X020806Y017284D01*
X020561Y017284D02*
X020561Y017366D01*
X020479Y017366D01*
X020479Y017284D01*
X020561Y017284D01*
X019956Y017377D02*
X019711Y017377D01*
X019629Y017458D01*
X019629Y017704D01*
X019547Y017704D02*
X019465Y017622D01*
X019465Y017540D01*
X019547Y017704D02*
X019956Y017704D01*
X019874Y017188D02*
X019629Y017188D01*
X019629Y016943D01*
X019711Y016861D01*
X019792Y016943D01*
X019792Y017188D01*
X019874Y017188D02*
X019956Y017106D01*
X019956Y016943D01*
X019956Y016672D02*
X019711Y016672D01*
X019629Y016591D01*
X019711Y016509D01*
X019629Y016427D01*
X018656Y017377D02*
X018329Y017377D01*
X018329Y017704D02*
X018574Y017704D01*
X018656Y017622D01*
X018656Y017377D01*
X020969Y014444D02*
X021051Y014444D01*
D11*
X001504Y014507D02*
X001516Y014998D01*
X001552Y015487D01*
X001612Y015974D01*
X001696Y016458D01*
X001804Y016937D01*
X001935Y017410D01*
X002089Y017876D01*
X002265Y018334D01*
X002464Y018783D01*
X002685Y019221D01*
X002927Y019648D01*
X003189Y020063D01*
X003472Y020464D01*
X003774Y020851D01*
X004094Y021223D01*
X004433Y021578D01*
X004788Y021917D01*
X005160Y022237D01*
X005547Y022539D01*
X005948Y022822D01*
X006363Y023084D01*
X006790Y023326D01*
X007228Y023547D01*
X007677Y023746D01*
X008135Y023922D01*
X008601Y024076D01*
X009074Y024207D01*
X009553Y024315D01*
X010037Y024399D01*
X010524Y024459D01*
X011013Y024495D01*
X011504Y024507D01*
X011995Y024495D01*
X012484Y024459D01*
X012971Y024399D01*
X013455Y024315D01*
X013934Y024207D01*
X014407Y024076D01*
X014873Y023922D01*
X015331Y023746D01*
X015780Y023547D01*
X016218Y023326D01*
X016645Y023084D01*
X017060Y022822D01*
X017461Y022539D01*
X017848Y022237D01*
X018220Y021917D01*
X018575Y021578D01*
X018914Y021223D01*
X019234Y020851D01*
X019536Y020464D01*
X019819Y020063D01*
X020081Y019648D01*
X020323Y019221D01*
X020544Y018783D01*
X020743Y018334D01*
X020919Y017876D01*
X021073Y017410D01*
X021204Y016937D01*
X021312Y016458D01*
X021396Y015974D01*
X021456Y015487D01*
X021492Y014998D01*
X021504Y014507D01*
X021492Y014016D01*
X021456Y013527D01*
X021396Y013040D01*
X021312Y012556D01*
X021204Y012077D01*
X021073Y011604D01*
X020919Y011138D01*
X020743Y010680D01*
X020544Y010231D01*
X020323Y009793D01*
X020081Y009366D01*
X019819Y008951D01*
X019536Y008550D01*
X019234Y008163D01*
X018914Y007791D01*
X018575Y007436D01*
X018220Y007097D01*
X017848Y006777D01*
X017461Y006475D01*
X017060Y006192D01*
X016645Y005930D01*
X016218Y005688D01*
X015780Y005467D01*
X015331Y005268D01*
X014873Y005092D01*
X014407Y004938D01*
X013934Y004807D01*
X013455Y004699D01*
X012971Y004615D01*
X012484Y004555D01*
X011995Y004519D01*
X011504Y004507D01*
X011013Y004519D01*
X010524Y004555D01*
X010037Y004615D01*
X009553Y004699D01*
X009074Y004807D01*
X008601Y004938D01*
X008135Y005092D01*
X007677Y005268D01*
X007228Y005467D01*
X006790Y005688D01*
X006363Y005930D01*
X005948Y006192D01*
X005547Y006475D01*
X005160Y006777D01*
X004788Y007097D01*
X004433Y007436D01*
X004094Y007791D01*
X003774Y008163D01*
X003472Y008550D01*
X003189Y008951D01*
X002927Y009366D01*
X002685Y009793D01*
X002464Y010231D01*
X002265Y010680D01*
X002089Y011138D01*
X001935Y011604D01*
X001804Y012077D01*
X001696Y012556D01*
X001612Y013040D01*
X001552Y013527D01*
X001516Y014016D01*
X001504Y014507D01*
D12*
X005963Y012007D02*
X005965Y012030D01*
X005971Y012053D01*
X005980Y012074D01*
X005993Y012094D01*
X006009Y012111D01*
X006027Y012125D01*
X006047Y012136D01*
X006069Y012144D01*
X006092Y012148D01*
X006116Y012148D01*
X006139Y012144D01*
X006161Y012136D01*
X006181Y012125D01*
X006199Y012111D01*
X006215Y012094D01*
X006228Y012074D01*
X006237Y012053D01*
X006243Y012030D01*
X006245Y012007D01*
X006243Y011984D01*
X006237Y011961D01*
X006228Y011940D01*
X006215Y011920D01*
X006199Y011903D01*
X006181Y011889D01*
X006161Y011878D01*
X006139Y011870D01*
X006116Y011866D01*
X006092Y011866D01*
X006069Y011870D01*
X006047Y011878D01*
X006027Y011889D01*
X006009Y011903D01*
X005993Y011920D01*
X005980Y011940D01*
X005971Y011961D01*
X005965Y011984D01*
X005963Y012007D01*
X007004Y012507D02*
X007004Y020607D01*
X007504Y021107D01*
X015104Y021107D01*
X015604Y020607D01*
X015604Y013007D01*
X015104Y012507D01*
X007004Y012507D01*
X010104Y009307D02*
X010104Y008707D01*
X011604Y008707D02*
X011604Y009307D01*
X004763Y017207D02*
X004765Y017230D01*
X004771Y017253D01*
X004780Y017274D01*
X004793Y017294D01*
X004809Y017311D01*
X004827Y017325D01*
X004847Y017336D01*
X004869Y017344D01*
X004892Y017348D01*
X004916Y017348D01*
X004939Y017344D01*
X004961Y017336D01*
X004981Y017325D01*
X004999Y017311D01*
X005015Y017294D01*
X005028Y017274D01*
X005037Y017253D01*
X005043Y017230D01*
X005045Y017207D01*
X005043Y017184D01*
X005037Y017161D01*
X005028Y017140D01*
X005015Y017120D01*
X004999Y017103D01*
X004981Y017089D01*
X004961Y017078D01*
X004939Y017070D01*
X004916Y017066D01*
X004892Y017066D01*
X004869Y017070D01*
X004847Y017078D01*
X004827Y017089D01*
X004809Y017103D01*
X004793Y017120D01*
X004780Y017140D01*
X004771Y017161D01*
X004765Y017184D01*
X004763Y017207D01*
M02*
