G75*
G70*
%OFA0B0*%
%FSLAX24Y24*%
%IPPOS*%
%LPD*%
%AMOC8*
5,1,8,0,0,1.08239X$1,22.5*
%
%ADD10R,0.0276X0.0354*%
%ADD11R,0.0157X0.0394*%
%ADD12R,0.0394X0.0157*%
%ADD13R,0.0472X0.0197*%
%ADD14R,0.0197X0.0472*%
%ADD15R,0.0512X0.0591*%
%ADD16R,0.0354X0.0276*%
%ADD17R,0.0770X0.0740*%
D10*
X010148Y008507D03*
X010660Y008507D03*
X010660Y009007D03*
X010148Y009007D03*
X009560Y009007D03*
X009048Y009007D03*
X008940Y013317D03*
X008428Y013317D03*
D11*
X010120Y011236D03*
X010376Y011236D03*
X010632Y011236D03*
X010888Y011236D03*
X010888Y009779D03*
X010632Y009779D03*
X010376Y009779D03*
X010120Y009779D03*
D12*
X009776Y010124D03*
X009776Y010379D03*
X009776Y010635D03*
X009776Y010891D03*
X011232Y010891D03*
X011232Y010635D03*
X011232Y010379D03*
X011232Y010124D03*
D13*
X010937Y017420D03*
X010937Y017735D03*
X010937Y018050D03*
X010937Y018365D03*
X010937Y018680D03*
X010937Y018995D03*
X010071Y018995D03*
X010071Y018680D03*
X010071Y018365D03*
X010071Y018050D03*
X010071Y017735D03*
X010071Y017420D03*
D14*
X010504Y017381D03*
X010504Y019034D03*
D15*
X008978Y012507D03*
X008230Y012507D03*
D16*
X009004Y011763D03*
X009004Y011251D03*
X010504Y012051D03*
X010504Y012563D03*
X012204Y011963D03*
X012204Y011451D03*
X012904Y017451D03*
X012904Y017963D03*
X010804Y019751D03*
X010804Y020263D03*
X009004Y017963D03*
X009004Y017451D03*
D17*
X010309Y013307D03*
M02*
