%
M48
M72
T01C0.0200
T02C0.0400
%
T01
X8604Y9907
X9104Y9907
X8404Y10907
X7704Y10607
X7204Y12207
X7204Y12707
X10504Y10507
X11604Y11707
X11104Y12107
X11104Y12607
X12004Y12607
X11604Y17807
X12104Y19607
X12904Y19607
X9004Y19707
X9004Y19207
X9004Y18707
T02
X8411Y5851
X7704Y6558
X6997Y7265
X6290Y7972
X5583Y8679
X4875Y9386
X4168Y10093
X3461Y10800
X2754Y11507
X2754Y12507
X2754Y13507
X2754Y14507
X2754Y15507
X2754Y16507
X2754Y17507
X3461Y18214
X4168Y18922
X4875Y19629
X5583Y20336
X6290Y21043
X6997Y21750
X7704Y22457
X8411Y23164
X9411Y23164
X10411Y23164
X11411Y23164
X12411Y23164
X13411Y23164
X13411Y5851
X12411Y5851
X11411Y5851
X10411Y5851
X9411Y5851
M30
