G75*
G70*
%OFA0B0*%
%FSLAX24Y24*%
%IPPOS*%
%LPD*%
%AMOC8*
5,1,8,0,0,1.08239X$1,22.5*
%
%ADD10R,0.0394X0.0394*%
%ADD11R,0.0256X0.0118*%
%ADD12R,0.0118X0.0256*%
%ADD13R,0.0354X0.0276*%
%ADD14R,0.0394X0.0433*%
%ADD15R,0.0433X0.0748*%
%ADD16R,0.0276X0.0354*%
%ADD17R,0.1000X0.0400*%
%ADD18R,0.1772X0.0591*%
%ADD19R,0.0600X0.0300*%
%ADD20R,0.0394X0.1811*%
%ADD21R,0.0630X0.1339*%
%ADD22C,0.0060*%
%ADD23C,0.0360*%
%ADD24C,0.0100*%
%ADD25C,0.0120*%
%ADD26C,0.0200*%
%ADD27C,0.0080*%
%ADD28C,0.0115*%
%ADD29C,0.0240*%
D10*
X016204Y006086D03*
X015304Y009086D03*
D11*
X014556Y009086D03*
X014556Y008890D03*
X014556Y008693D03*
X014556Y009283D03*
X014556Y009480D03*
X016052Y009480D03*
X016052Y009283D03*
X016052Y009086D03*
X016052Y008890D03*
X016052Y008693D03*
X015456Y006480D03*
X015456Y006283D03*
X015456Y006086D03*
X015456Y005890D03*
X015456Y005693D03*
X016952Y005693D03*
X016952Y005890D03*
X016952Y006086D03*
X016952Y006283D03*
X016952Y006480D03*
D12*
X016598Y006834D03*
X016401Y006834D03*
X016204Y006834D03*
X016007Y006834D03*
X015810Y006834D03*
X015698Y008338D03*
X015501Y008338D03*
X015304Y008338D03*
X015107Y008338D03*
X014910Y008338D03*
X014910Y009834D03*
X015107Y009834D03*
X015304Y009834D03*
X015501Y009834D03*
X015698Y009834D03*
X015810Y005338D03*
X016007Y005338D03*
X016204Y005338D03*
X016401Y005338D03*
X016598Y005338D03*
D13*
X013904Y008231D03*
X013904Y008742D03*
X010604Y008642D03*
X010604Y008131D03*
X014784Y010831D03*
X014784Y011342D03*
X014804Y011731D03*
X014304Y011731D03*
X014304Y012242D03*
X014804Y012242D03*
D14*
X013904Y010421D03*
X013904Y009752D03*
X016684Y009532D03*
X016684Y010201D03*
D15*
X017391Y010235D03*
X018297Y010235D03*
X018297Y008778D03*
X017391Y008778D03*
D16*
X017688Y008106D03*
X018200Y008106D03*
X017560Y007186D03*
X017048Y007186D03*
X015660Y010426D03*
X015148Y010426D03*
X015608Y010926D03*
X016120Y010926D03*
X017728Y011026D03*
X018240Y011026D03*
D17*
X014504Y012686D03*
X014504Y015286D03*
D18*
X019953Y009568D03*
X019953Y008780D03*
X019953Y007993D03*
X019953Y007205D03*
X009055Y007205D03*
X009055Y007993D03*
X009055Y008780D03*
X009055Y009568D03*
D19*
X011004Y009466D03*
X013004Y009466D03*
X013004Y010966D03*
X011004Y010966D03*
D20*
X011610Y007343D03*
X012398Y007343D03*
D21*
X013343Y005296D03*
X010665Y005296D03*
D22*
X004078Y004566D02*
X002434Y006211D01*
X002434Y010562D01*
X003704Y011832D01*
X003704Y011831D01*
X013997Y011831D01*
X013997Y011760D01*
X014274Y011760D01*
X014274Y011701D01*
X013997Y011701D01*
X013997Y011576D01*
X014006Y011543D01*
X014023Y011513D01*
X014047Y011489D01*
X014077Y011472D01*
X014110Y011463D01*
X014274Y011463D01*
X014274Y011700D01*
X014334Y011700D01*
X014334Y011463D01*
X014477Y011463D01*
X014477Y011151D01*
X014541Y011086D01*
X014477Y011022D01*
X014477Y010639D01*
X014553Y010563D01*
X014658Y010563D01*
X014880Y010341D01*
X014880Y010195D01*
X014956Y010119D01*
X015134Y010119D01*
X014199Y010119D01*
X014205Y010125D02*
X014222Y010154D01*
X014231Y010187D01*
X014231Y010391D01*
X013934Y010391D01*
X013934Y010451D01*
X014231Y010451D01*
X014231Y010655D01*
X014222Y010688D01*
X014205Y010717D01*
X014181Y010742D01*
X014151Y010759D01*
X014118Y010768D01*
X013934Y010768D01*
X013934Y010451D01*
X013874Y010451D01*
X013874Y010391D01*
X013577Y010391D01*
X013577Y010187D01*
X013586Y010154D01*
X013603Y010125D01*
X013627Y010101D01*
X013645Y010090D01*
X013577Y010022D01*
X013577Y009481D01*
X013653Y009405D01*
X014010Y009405D01*
X014105Y009310D01*
X014246Y009310D01*
X014298Y009310D01*
X014298Y009283D01*
X014298Y009274D01*
X013566Y009274D01*
X013456Y009164D01*
X013106Y008814D01*
X011906Y008814D01*
X011796Y008704D01*
X011471Y008379D01*
X011360Y008379D01*
X011283Y008302D01*
X011283Y007716D01*
X010911Y008088D01*
X010911Y008322D01*
X010843Y008390D01*
X010861Y008401D01*
X010885Y008425D01*
X010902Y008454D01*
X010911Y008487D01*
X010911Y008612D01*
X010634Y008612D01*
X010634Y008672D01*
X010911Y008672D01*
X010911Y008797D01*
X010902Y008830D01*
X010885Y008860D01*
X010861Y008884D01*
X010831Y008901D01*
X010798Y008910D01*
X010634Y008910D01*
X010634Y008672D01*
X010574Y008672D01*
X010574Y008612D01*
X010297Y008612D01*
X010297Y008487D01*
X010306Y008454D01*
X010323Y008425D01*
X010347Y008401D01*
X010365Y008390D01*
X010297Y008322D01*
X010297Y008180D01*
X010071Y008180D01*
X010071Y008342D01*
X010026Y008386D01*
X010071Y008431D01*
X010071Y009129D01*
X010026Y009174D01*
X010045Y009192D01*
X010062Y009222D01*
X010071Y009255D01*
X010071Y009538D01*
X009085Y009538D01*
X009085Y009597D01*
X010071Y009597D01*
X010071Y009880D01*
X010062Y009913D01*
X010045Y009943D01*
X010021Y009967D01*
X009991Y009984D01*
X009958Y009993D01*
X009085Y009993D01*
X009085Y009598D01*
X009025Y009598D01*
X009025Y009993D01*
X008152Y009993D01*
X008119Y009984D01*
X008089Y009967D01*
X008065Y009943D01*
X008048Y009913D01*
X008039Y009880D01*
X008039Y009597D01*
X009025Y009597D01*
X009025Y009538D01*
X008039Y009538D01*
X008039Y009255D01*
X008048Y009222D01*
X008065Y009192D01*
X008084Y009174D01*
X008039Y009129D01*
X008039Y008956D01*
X007969Y008956D01*
X007967Y008962D01*
X007880Y009049D01*
X007766Y009096D01*
X007642Y009096D01*
X007528Y009049D01*
X007441Y008962D01*
X007394Y008848D01*
X007394Y008725D01*
X007441Y008611D01*
X007528Y008524D01*
X007642Y008476D01*
X007766Y008476D01*
X007880Y008524D01*
X007967Y008611D01*
X007969Y008616D01*
X008039Y008616D01*
X008039Y008431D01*
X008084Y008386D01*
X008039Y008342D01*
X008039Y007644D01*
X008084Y007599D01*
X008039Y007554D01*
X008039Y006856D01*
X008115Y006780D01*
X008934Y006780D01*
X008934Y006752D01*
X008928Y006749D01*
X008841Y006662D01*
X008794Y006548D01*
X008794Y006425D01*
X008841Y006311D01*
X008928Y006224D01*
X009042Y006176D01*
X009166Y006176D01*
X009280Y006224D01*
X009367Y006311D01*
X009414Y006425D01*
X009414Y006548D01*
X009367Y006662D01*
X009280Y006749D01*
X009274Y006752D01*
X009274Y006780D01*
X009995Y006780D01*
X010071Y006856D01*
X010071Y007554D01*
X010026Y007599D01*
X010071Y007644D01*
X010071Y007805D01*
X010544Y007805D01*
X010601Y007863D01*
X010607Y007863D01*
X011204Y007266D01*
X011204Y007265D01*
X011283Y007186D01*
X011283Y006384D01*
X011360Y006308D01*
X011861Y006308D01*
X011937Y006384D01*
X011937Y008302D01*
X011931Y008308D01*
X012062Y008439D01*
X013106Y008439D01*
X013262Y008439D01*
X013597Y008774D01*
X013597Y008551D01*
X013665Y008483D01*
X013647Y008472D01*
X013623Y008448D01*
X013606Y008419D01*
X013597Y008385D01*
X013597Y008260D01*
X013874Y008260D01*
X013874Y008201D01*
X013597Y008201D01*
X013597Y008076D01*
X013606Y008043D01*
X013623Y008013D01*
X013647Y007989D01*
X013677Y007972D01*
X013710Y007963D01*
X013809Y007963D01*
X013728Y007929D01*
X013641Y007842D01*
X013594Y007728D01*
X013594Y007605D01*
X013641Y007491D01*
X013728Y007404D01*
X013842Y007356D01*
X013966Y007356D01*
X014080Y007404D01*
X014167Y007491D01*
X014173Y007506D01*
X014758Y007506D01*
X015052Y007213D01*
X015021Y007182D01*
X014974Y007068D01*
X014974Y006945D01*
X015021Y006831D01*
X015108Y006744D01*
X015222Y006696D01*
X015346Y006696D01*
X015460Y006744D01*
X015547Y006831D01*
X015549Y006836D01*
X015568Y006836D01*
X015621Y006783D01*
X015621Y006669D01*
X015274Y006669D01*
X015255Y006650D01*
X014839Y006650D01*
X014780Y006709D01*
X014666Y006756D01*
X014542Y006756D01*
X014428Y006709D01*
X014341Y006622D01*
X014294Y006508D01*
X014294Y006385D01*
X014341Y006271D01*
X014428Y006184D01*
X014542Y006136D01*
X014604Y006136D01*
X014604Y006085D01*
X014651Y005971D01*
X014738Y005884D01*
X014852Y005836D01*
X014914Y005836D01*
X015227Y005523D01*
X015255Y005523D01*
X015269Y005508D01*
X015149Y005508D01*
X015127Y005562D01*
X015040Y005649D01*
X014926Y005696D01*
X014802Y005696D01*
X014688Y005649D01*
X014677Y005638D01*
X014667Y005662D01*
X014580Y005749D01*
X014466Y005796D01*
X014342Y005796D01*
X014228Y005749D01*
X014141Y005662D01*
X014094Y005548D01*
X014094Y005425D01*
X014141Y005311D01*
X014191Y005261D01*
X014141Y005212D01*
X014094Y005098D01*
X014094Y004975D01*
X014141Y004861D01*
X014228Y004774D01*
X014342Y004726D01*
X014466Y004726D01*
X014562Y004766D01*
X014574Y004766D01*
X016124Y004766D01*
X016224Y004866D01*
X016274Y004916D01*
X016274Y004916D01*
X016344Y004986D01*
X016474Y004856D01*
X016574Y004756D01*
X017494Y004756D01*
X017634Y004756D01*
X018934Y006056D01*
X019034Y006156D01*
X019034Y006784D01*
X019050Y006780D01*
X019923Y006780D01*
X019923Y007175D01*
X019983Y007175D01*
X019983Y007235D01*
X020969Y007235D01*
X020969Y007518D01*
X020960Y007551D01*
X020943Y007580D01*
X020924Y007599D01*
X020969Y007644D01*
X020969Y008342D01*
X020924Y008386D01*
X020969Y008431D01*
X020969Y009129D01*
X020924Y009174D01*
X020969Y009218D01*
X020969Y009383D01*
X021028Y009324D01*
X021142Y009276D01*
X021266Y009276D01*
X021380Y009324D01*
X021467Y009411D01*
X021514Y009525D01*
X021514Y009648D01*
X021467Y009762D01*
X021380Y009849D01*
X021266Y009896D01*
X021142Y009896D01*
X021028Y009849D01*
X020969Y009789D01*
X020969Y009917D01*
X020892Y009993D01*
X019013Y009993D01*
X018937Y009917D01*
X018937Y009218D01*
X018982Y009174D01*
X018937Y009129D01*
X018937Y008685D01*
X018716Y008464D01*
X018716Y008309D01*
X018716Y007964D01*
X017894Y007142D01*
X017828Y007208D01*
X017828Y007417D01*
X017751Y007494D01*
X017542Y007494D01*
X017071Y007964D01*
X017071Y008109D01*
X017071Y008264D01*
X016691Y008644D01*
X016691Y008744D01*
X016468Y008967D01*
X016468Y008967D01*
X016358Y009077D01*
X016310Y009077D01*
X016310Y009086D01*
X016052Y009086D01*
X016052Y009087D01*
X016310Y009087D01*
X016310Y009113D01*
X016365Y009113D01*
X016506Y009113D01*
X016578Y009185D01*
X016935Y009185D01*
X017011Y009261D01*
X017011Y009362D01*
X017869Y009362D01*
X017869Y008407D01*
X017843Y008414D01*
X017738Y008414D01*
X017738Y009206D01*
X017662Y009282D01*
X017121Y009282D01*
X017045Y009206D01*
X017045Y008350D01*
X017121Y008274D01*
X017420Y008274D01*
X017420Y008136D01*
X017658Y008136D01*
X017658Y008076D01*
X017718Y008076D01*
X017718Y007799D01*
X017843Y007799D01*
X017876Y007808D01*
X017906Y007825D01*
X017930Y007849D01*
X017937Y007862D01*
X017948Y007851D01*
X017956Y007851D01*
X018008Y007799D01*
X018391Y007799D01*
X018468Y007875D01*
X018468Y008274D01*
X018567Y008274D01*
X018643Y008350D01*
X018643Y009206D01*
X018639Y009210D01*
X018639Y009803D01*
X018643Y009807D01*
X018643Y010663D01*
X018567Y010739D01*
X018446Y010739D01*
X018457Y010745D01*
X018482Y010769D01*
X018499Y010799D01*
X018508Y010832D01*
X018508Y010996D01*
X018270Y010996D01*
X018270Y011056D01*
X026080Y011056D01*
X026022Y011114D02*
X018508Y011114D01*
X018508Y011056D02*
X018508Y011221D01*
X018499Y011254D01*
X018482Y011283D01*
X018457Y011308D01*
X018428Y011325D01*
X018395Y011334D01*
X018270Y011334D01*
X018270Y011057D01*
X018210Y011057D01*
X018210Y011334D01*
X018085Y011334D01*
X018052Y011325D01*
X018022Y011308D01*
X017998Y011283D01*
X017988Y011266D01*
X017920Y011334D01*
X017536Y011334D01*
X017460Y011257D01*
X017460Y010999D01*
X017221Y010760D01*
X017221Y010739D01*
X017121Y010739D01*
X017045Y010663D01*
X017045Y010621D01*
X016314Y010621D01*
X016388Y010695D01*
X016388Y011157D01*
X016311Y011234D01*
X015928Y011234D01*
X015864Y011169D01*
X015800Y011234D01*
X015416Y011234D01*
X015340Y011157D01*
X015340Y010733D01*
X015340Y010734D01*
X015194Y010734D01*
X015091Y010837D01*
X015091Y011022D01*
X015027Y011086D01*
X015091Y011151D01*
X015091Y011519D01*
X015111Y011539D01*
X015111Y011831D01*
X025304Y011831D01*
X026574Y010562D01*
X026574Y006211D01*
X024929Y004566D01*
X013781Y004566D01*
X013787Y004573D01*
X013787Y006019D01*
X013711Y006095D01*
X012974Y006095D01*
X012898Y006019D01*
X012898Y004573D01*
X012904Y004566D01*
X011104Y004566D01*
X011110Y004573D01*
X011110Y006019D01*
X011034Y006095D01*
X010297Y006095D01*
X010220Y006019D01*
X010220Y004573D01*
X010227Y004566D01*
X004078Y004566D01*
X004029Y004616D02*
X010220Y004616D01*
X010220Y004674D02*
X003970Y004674D01*
X003912Y004733D02*
X010220Y004733D01*
X010220Y004791D02*
X003853Y004791D01*
X003795Y004850D02*
X010220Y004850D01*
X010220Y004909D02*
X003736Y004909D01*
X003678Y004967D02*
X010220Y004967D01*
X010220Y005026D02*
X003619Y005026D01*
X003561Y005084D02*
X010220Y005084D01*
X010220Y005143D02*
X003502Y005143D01*
X003444Y005201D02*
X010220Y005201D01*
X010220Y005260D02*
X003385Y005260D01*
X003326Y005318D02*
X010220Y005318D01*
X010220Y005377D02*
X003268Y005377D01*
X003209Y005435D02*
X010220Y005435D01*
X010220Y005494D02*
X003151Y005494D01*
X003092Y005553D02*
X010220Y005553D01*
X010220Y005611D02*
X003034Y005611D01*
X002975Y005670D02*
X010220Y005670D01*
X010220Y005728D02*
X002917Y005728D01*
X002858Y005787D02*
X010220Y005787D01*
X010220Y005845D02*
X002800Y005845D01*
X002741Y005904D02*
X010220Y005904D01*
X010220Y005962D02*
X002683Y005962D01*
X002624Y006021D02*
X010222Y006021D01*
X010281Y006079D02*
X002565Y006079D01*
X002507Y006138D02*
X014539Y006138D01*
X014606Y006079D02*
X013727Y006079D01*
X013786Y006021D02*
X014630Y006021D01*
X014660Y005962D02*
X013787Y005962D01*
X013787Y005904D02*
X014718Y005904D01*
X014831Y005845D02*
X013787Y005845D01*
X013787Y005787D02*
X014319Y005787D01*
X014207Y005728D02*
X013787Y005728D01*
X013787Y005670D02*
X014149Y005670D01*
X014120Y005611D02*
X013787Y005611D01*
X013787Y005553D02*
X014096Y005553D01*
X014094Y005494D02*
X013787Y005494D01*
X013787Y005435D02*
X014094Y005435D01*
X014114Y005377D02*
X013787Y005377D01*
X013787Y005318D02*
X014138Y005318D01*
X014189Y005260D02*
X013787Y005260D01*
X013787Y005201D02*
X014137Y005201D01*
X014112Y005143D02*
X013787Y005143D01*
X013787Y005084D02*
X014094Y005084D01*
X014094Y005026D02*
X013787Y005026D01*
X013787Y004967D02*
X014097Y004967D01*
X014121Y004909D02*
X013787Y004909D01*
X013787Y004850D02*
X014152Y004850D01*
X014210Y004791D02*
X013787Y004791D01*
X013787Y004733D02*
X014327Y004733D01*
X014481Y004733D02*
X025096Y004733D01*
X025154Y004791D02*
X017669Y004791D01*
X017728Y004850D02*
X025213Y004850D01*
X025272Y004909D02*
X017786Y004909D01*
X017845Y004967D02*
X025330Y004967D01*
X025389Y005026D02*
X017904Y005026D01*
X017962Y005084D02*
X025447Y005084D01*
X025506Y005143D02*
X018021Y005143D01*
X018079Y005201D02*
X025564Y005201D01*
X025623Y005260D02*
X018138Y005260D01*
X018196Y005318D02*
X025681Y005318D01*
X025740Y005377D02*
X018255Y005377D01*
X018313Y005435D02*
X025798Y005435D01*
X025857Y005494D02*
X018372Y005494D01*
X018430Y005553D02*
X025916Y005553D01*
X025974Y005611D02*
X018489Y005611D01*
X018548Y005670D02*
X026033Y005670D01*
X026091Y005728D02*
X018606Y005728D01*
X018665Y005787D02*
X026150Y005787D01*
X026208Y005845D02*
X018723Y005845D01*
X018782Y005904D02*
X026267Y005904D01*
X026325Y005962D02*
X018840Y005962D01*
X018899Y006021D02*
X026384Y006021D01*
X026442Y006079D02*
X018957Y006079D01*
X019016Y006138D02*
X026501Y006138D01*
X026560Y006197D02*
X019034Y006197D01*
X019034Y006255D02*
X026574Y006255D01*
X026574Y006314D02*
X019034Y006314D01*
X019034Y006372D02*
X026574Y006372D01*
X026574Y006431D02*
X019034Y006431D01*
X019034Y006489D02*
X026574Y006489D01*
X026574Y006548D02*
X019034Y006548D01*
X019034Y006606D02*
X026574Y006606D01*
X026574Y006665D02*
X019034Y006665D01*
X019034Y006723D02*
X026574Y006723D01*
X026574Y006782D02*
X020863Y006782D01*
X020856Y006780D02*
X020889Y006789D01*
X020918Y006806D01*
X020943Y006830D01*
X020960Y006860D01*
X020969Y006893D01*
X020969Y007175D01*
X019983Y007175D01*
X019983Y006780D01*
X020856Y006780D01*
X020948Y006841D02*
X026574Y006841D01*
X026574Y006899D02*
X020969Y006899D01*
X020969Y006958D02*
X026574Y006958D01*
X026574Y007016D02*
X020969Y007016D01*
X020969Y007075D02*
X026574Y007075D01*
X026574Y007133D02*
X020969Y007133D01*
X020969Y007250D02*
X026574Y007250D01*
X026574Y007192D02*
X019983Y007192D01*
X019983Y007133D02*
X019923Y007133D01*
X019923Y007075D02*
X019983Y007075D01*
X019983Y007016D02*
X019923Y007016D01*
X019923Y006958D02*
X019983Y006958D01*
X019983Y006899D02*
X019923Y006899D01*
X019923Y006841D02*
X019983Y006841D01*
X019983Y006782D02*
X019923Y006782D01*
X019043Y006782D02*
X019034Y006782D01*
X018188Y006111D02*
X017791Y006508D01*
X017488Y006206D01*
X017378Y006096D01*
X017210Y006096D01*
X017210Y006087D01*
X016952Y006087D01*
X016952Y006086D01*
X017210Y006086D01*
X017210Y006010D01*
X017208Y006004D01*
X017210Y006002D01*
X017210Y005806D01*
X017210Y005580D01*
X017134Y005504D01*
X016787Y005504D01*
X016787Y005390D01*
X016820Y005356D01*
X017434Y005356D01*
X018188Y006111D01*
X018161Y006138D02*
X017421Y006138D01*
X017479Y006197D02*
X018103Y006197D01*
X018044Y006255D02*
X017538Y006255D01*
X017596Y006314D02*
X017986Y006314D01*
X017927Y006372D02*
X017655Y006372D01*
X017713Y006431D02*
X017869Y006431D01*
X017810Y006489D02*
X017772Y006489D01*
X018157Y006079D02*
X017210Y006079D01*
X017210Y006021D02*
X018098Y006021D01*
X018039Y005962D02*
X017210Y005962D01*
X017210Y005904D02*
X017981Y005904D01*
X017922Y005845D02*
X017210Y005845D01*
X017210Y005787D02*
X017864Y005787D01*
X017805Y005728D02*
X017210Y005728D01*
X017210Y005670D02*
X017747Y005670D01*
X017688Y005611D02*
X017210Y005611D01*
X017183Y005553D02*
X017630Y005553D01*
X017571Y005494D02*
X016787Y005494D01*
X016787Y005435D02*
X017513Y005435D01*
X017454Y005377D02*
X016799Y005377D01*
X016694Y005596D02*
X016514Y005596D01*
X016288Y005596D01*
X016120Y005596D01*
X015923Y005596D01*
X015714Y005596D01*
X015714Y005806D01*
X015714Y006002D01*
X015714Y006199D01*
X015714Y006367D01*
X015714Y006577D01*
X015894Y006577D01*
X016073Y006577D01*
X016134Y006516D01*
X016234Y006416D01*
X016634Y006416D01*
X016694Y006416D01*
X016694Y006396D01*
X016694Y006170D01*
X016696Y006169D01*
X016694Y006163D01*
X016694Y006087D01*
X016952Y006087D01*
X016952Y006086D01*
X016694Y006086D01*
X016694Y006010D01*
X016696Y006004D01*
X016694Y006002D01*
X016694Y005806D01*
X016694Y005596D01*
X016694Y005611D02*
X015714Y005611D01*
X015714Y005670D02*
X016694Y005670D01*
X016694Y005728D02*
X015714Y005728D01*
X015714Y005787D02*
X015926Y005787D01*
X015927Y005786D02*
X015957Y005768D01*
X015990Y005760D01*
X016174Y005760D01*
X016174Y006056D01*
X016234Y006056D01*
X016234Y005760D01*
X016418Y005760D01*
X016451Y005768D01*
X016481Y005786D01*
X016505Y005810D01*
X016522Y005839D01*
X016531Y005872D01*
X016531Y006056D01*
X016234Y006056D01*
X016234Y006116D01*
X016531Y006116D01*
X016531Y006300D01*
X016522Y006333D01*
X016505Y006363D01*
X016481Y006387D01*
X016451Y006404D01*
X016418Y006413D01*
X016234Y006413D01*
X016234Y006117D01*
X016174Y006117D01*
X016174Y006413D01*
X015990Y006413D01*
X015957Y006404D01*
X015927Y006387D01*
X015903Y006363D01*
X015886Y006333D01*
X015877Y006300D01*
X015877Y006116D01*
X016174Y006116D01*
X016174Y006056D01*
X015877Y006056D01*
X015877Y005872D01*
X015886Y005839D01*
X015903Y005810D01*
X015927Y005786D01*
X015884Y005845D02*
X015714Y005845D01*
X015714Y005904D02*
X015877Y005904D01*
X015877Y005962D02*
X015714Y005962D01*
X015714Y006021D02*
X015877Y006021D01*
X015877Y006138D02*
X015714Y006138D01*
X015714Y006197D02*
X015877Y006197D01*
X015877Y006255D02*
X015714Y006255D01*
X015714Y006314D02*
X015881Y006314D01*
X015912Y006372D02*
X015714Y006372D01*
X015714Y006431D02*
X016219Y006431D01*
X016234Y006372D02*
X016174Y006372D01*
X016174Y006314D02*
X016234Y006314D01*
X016234Y006255D02*
X016174Y006255D01*
X016174Y006197D02*
X016234Y006197D01*
X016234Y006138D02*
X016174Y006138D01*
X016174Y006079D02*
X015714Y006079D01*
X016174Y006021D02*
X016234Y006021D01*
X016234Y006079D02*
X016694Y006079D01*
X016694Y006021D02*
X016531Y006021D01*
X016531Y005962D02*
X016694Y005962D01*
X016694Y005904D02*
X016531Y005904D01*
X016523Y005845D02*
X016694Y005845D01*
X016694Y005787D02*
X016482Y005787D01*
X016234Y005787D02*
X016174Y005787D01*
X016174Y005845D02*
X016234Y005845D01*
X016234Y005904D02*
X016174Y005904D01*
X016174Y005962D02*
X016234Y005962D01*
X016531Y006138D02*
X016694Y006138D01*
X016694Y006197D02*
X016531Y006197D01*
X016531Y006255D02*
X016694Y006255D01*
X016694Y006314D02*
X016527Y006314D01*
X016496Y006372D02*
X016694Y006372D01*
X016161Y006489D02*
X015714Y006489D01*
X015714Y006548D02*
X016102Y006548D01*
X016007Y006834D02*
X016007Y007003D01*
X015724Y007286D01*
X015204Y007286D01*
X014824Y007666D01*
X013904Y007666D01*
X013619Y007543D02*
X012724Y007543D01*
X012724Y007484D02*
X013647Y007484D01*
X013706Y007426D02*
X012724Y007426D01*
X012724Y007373D02*
X012724Y008266D01*
X012716Y008299D01*
X012698Y008328D01*
X012674Y008353D01*
X012645Y008370D01*
X012612Y008379D01*
X012428Y008379D01*
X012428Y007373D01*
X012724Y007373D01*
X012724Y007313D02*
X012428Y007313D01*
X012428Y007373D01*
X012368Y007373D01*
X012368Y008379D01*
X012184Y008379D01*
X012151Y008370D01*
X012121Y008353D01*
X012097Y008328D01*
X012080Y008299D01*
X012071Y008266D01*
X012071Y007373D01*
X012367Y007373D01*
X012367Y007313D01*
X012071Y007313D01*
X012071Y006420D01*
X012080Y006387D01*
X012097Y006358D01*
X012121Y006334D01*
X012151Y006316D01*
X012184Y006308D01*
X012368Y006308D01*
X012368Y007313D01*
X012428Y007313D01*
X012428Y006308D01*
X012612Y006308D01*
X012645Y006316D01*
X012674Y006334D01*
X012698Y006358D01*
X012716Y006387D01*
X012724Y006420D01*
X012724Y007313D01*
X012724Y007309D02*
X014955Y007309D01*
X014897Y007367D02*
X013992Y007367D01*
X014102Y007426D02*
X014838Y007426D01*
X014780Y007484D02*
X014160Y007484D01*
X013816Y007367D02*
X012428Y007367D01*
X012428Y007309D02*
X012368Y007309D01*
X012367Y007367D02*
X011937Y007367D01*
X011937Y007309D02*
X012071Y007309D01*
X012071Y007250D02*
X011937Y007250D01*
X011937Y007192D02*
X012071Y007192D01*
X012071Y007133D02*
X011937Y007133D01*
X011937Y007075D02*
X012071Y007075D01*
X012071Y007016D02*
X011937Y007016D01*
X011937Y006958D02*
X012071Y006958D01*
X012071Y006899D02*
X011937Y006899D01*
X011937Y006841D02*
X012071Y006841D01*
X012071Y006782D02*
X011937Y006782D01*
X011937Y006723D02*
X012071Y006723D01*
X012071Y006665D02*
X011937Y006665D01*
X011937Y006606D02*
X012071Y006606D01*
X012071Y006548D02*
X011937Y006548D01*
X011937Y006489D02*
X012071Y006489D01*
X012071Y006431D02*
X011937Y006431D01*
X011925Y006372D02*
X012088Y006372D01*
X012161Y006314D02*
X011867Y006314D01*
X011354Y006314D02*
X009368Y006314D01*
X009392Y006372D02*
X011295Y006372D01*
X011283Y006431D02*
X009414Y006431D01*
X009414Y006489D02*
X011283Y006489D01*
X011283Y006548D02*
X009414Y006548D01*
X009390Y006606D02*
X011283Y006606D01*
X011283Y006665D02*
X009364Y006665D01*
X009305Y006723D02*
X011283Y006723D01*
X011283Y006782D02*
X009997Y006782D01*
X010055Y006841D02*
X011283Y006841D01*
X011283Y006899D02*
X010071Y006899D01*
X010071Y006958D02*
X011283Y006958D01*
X011283Y007016D02*
X010071Y007016D01*
X010071Y007075D02*
X011283Y007075D01*
X011283Y007133D02*
X010071Y007133D01*
X010071Y007192D02*
X011278Y007192D01*
X011219Y007250D02*
X010071Y007250D01*
X010071Y007309D02*
X011161Y007309D01*
X011102Y007367D02*
X010071Y007367D01*
X010071Y007426D02*
X011043Y007426D01*
X010985Y007484D02*
X010071Y007484D01*
X010071Y007543D02*
X010926Y007543D01*
X010868Y007602D02*
X010029Y007602D01*
X010071Y007660D02*
X010809Y007660D01*
X010751Y007719D02*
X010071Y007719D01*
X010071Y007777D02*
X010692Y007777D01*
X010634Y007836D02*
X010574Y007836D01*
X011047Y007953D02*
X011283Y007953D01*
X011283Y008011D02*
X010988Y008011D01*
X010930Y008070D02*
X011283Y008070D01*
X011283Y008128D02*
X010911Y008128D01*
X010911Y008187D02*
X011283Y008187D01*
X011283Y008246D02*
X010911Y008246D01*
X010911Y008304D02*
X011285Y008304D01*
X011344Y008363D02*
X010871Y008363D01*
X010882Y008421D02*
X011514Y008421D01*
X011572Y008480D02*
X010909Y008480D01*
X010911Y008538D02*
X011631Y008538D01*
X011689Y008597D02*
X010911Y008597D01*
X010911Y008714D02*
X011806Y008714D01*
X011748Y008655D02*
X010634Y008655D01*
X010634Y008714D02*
X010574Y008714D01*
X010574Y008672D02*
X010574Y008910D01*
X010410Y008910D01*
X010377Y008901D01*
X010347Y008884D01*
X010323Y008860D01*
X010306Y008830D01*
X010297Y008797D01*
X010297Y008672D01*
X010574Y008672D01*
X010574Y008655D02*
X010071Y008655D01*
X010071Y008597D02*
X010297Y008597D01*
X010297Y008538D02*
X010071Y008538D01*
X010071Y008480D02*
X010299Y008480D01*
X010326Y008421D02*
X010061Y008421D01*
X010050Y008363D02*
X010337Y008363D01*
X010297Y008304D02*
X010071Y008304D01*
X010071Y008246D02*
X010297Y008246D01*
X010297Y008187D02*
X010071Y008187D01*
X010071Y008714D02*
X010297Y008714D01*
X010297Y008772D02*
X010071Y008772D01*
X010071Y008831D02*
X010306Y008831D01*
X010356Y008890D02*
X010071Y008890D01*
X010071Y008948D02*
X013240Y008948D01*
X013182Y008890D02*
X010852Y008890D01*
X010902Y008831D02*
X013123Y008831D01*
X013299Y009007D02*
X010071Y009007D01*
X010071Y009065D02*
X013358Y009065D01*
X013416Y009124D02*
X010071Y009124D01*
X010035Y009182D02*
X013475Y009182D01*
X013533Y009241D02*
X013410Y009241D01*
X013408Y009237D02*
X013425Y009266D01*
X013434Y009299D01*
X013434Y009436D01*
X013034Y009436D01*
X013034Y009186D01*
X013321Y009186D01*
X013354Y009195D01*
X013384Y009212D01*
X013408Y009237D01*
X013434Y009299D02*
X014298Y009299D01*
X014298Y009283D02*
X014555Y009283D01*
X014298Y009283D01*
X014057Y009358D02*
X013434Y009358D01*
X013434Y009416D02*
X013642Y009416D01*
X013584Y009475D02*
X013034Y009475D01*
X013034Y009496D02*
X013434Y009496D01*
X013434Y009634D01*
X013425Y009667D01*
X013408Y009696D01*
X013384Y009720D01*
X013354Y009738D01*
X013321Y009746D01*
X013034Y009746D01*
X013034Y009497D01*
X012974Y009497D01*
X012974Y009746D01*
X012687Y009746D01*
X012654Y009738D01*
X012624Y009720D01*
X012600Y009696D01*
X012583Y009667D01*
X012574Y009634D01*
X012574Y009496D01*
X012974Y009496D01*
X012974Y009436D01*
X013034Y009436D01*
X013034Y009496D01*
X013034Y009534D02*
X012974Y009534D01*
X012974Y009592D02*
X013034Y009592D01*
X013034Y009651D02*
X012974Y009651D01*
X012974Y009709D02*
X013034Y009709D01*
X012974Y009475D02*
X011034Y009475D01*
X011034Y009496D02*
X011434Y009496D01*
X011434Y009634D01*
X011425Y009667D01*
X011408Y009696D01*
X011384Y009720D01*
X011354Y009738D01*
X011321Y009746D01*
X011034Y009746D01*
X011034Y009497D01*
X010974Y009497D01*
X010974Y009746D01*
X010687Y009746D01*
X010654Y009738D01*
X010624Y009720D01*
X010600Y009696D01*
X010583Y009667D01*
X010574Y009634D01*
X010574Y009496D01*
X010974Y009496D01*
X010974Y009436D01*
X011034Y009436D01*
X011034Y009186D01*
X011321Y009186D01*
X011354Y009195D01*
X011384Y009212D01*
X011408Y009237D01*
X011425Y009266D01*
X011434Y009299D01*
X011434Y009436D01*
X011034Y009436D01*
X011034Y009496D01*
X011034Y009534D02*
X010974Y009534D01*
X010974Y009592D02*
X011034Y009592D01*
X011034Y009651D02*
X010974Y009651D01*
X010974Y009709D02*
X011034Y009709D01*
X010974Y009475D02*
X010071Y009475D01*
X010071Y009534D02*
X010574Y009534D01*
X010574Y009592D02*
X009085Y009592D01*
X009085Y009651D02*
X009025Y009651D01*
X009025Y009709D02*
X009085Y009709D01*
X009085Y009768D02*
X009025Y009768D01*
X009025Y009826D02*
X009085Y009826D01*
X009085Y009885D02*
X009025Y009885D01*
X009025Y009943D02*
X009085Y009943D01*
X009025Y009592D02*
X002434Y009592D01*
X002434Y009534D02*
X008039Y009534D01*
X008039Y009475D02*
X002434Y009475D01*
X002434Y009416D02*
X008039Y009416D01*
X008039Y009358D02*
X002434Y009358D01*
X002434Y009299D02*
X008039Y009299D01*
X008043Y009241D02*
X002434Y009241D01*
X002434Y009182D02*
X008075Y009182D01*
X008039Y009124D02*
X002434Y009124D01*
X002434Y009065D02*
X007567Y009065D01*
X007486Y009007D02*
X002434Y009007D01*
X002434Y008948D02*
X007435Y008948D01*
X007411Y008890D02*
X002434Y008890D01*
X002434Y008831D02*
X007394Y008831D01*
X007394Y008772D02*
X002434Y008772D01*
X002434Y008714D02*
X007398Y008714D01*
X007423Y008655D02*
X002434Y008655D01*
X002434Y008597D02*
X007455Y008597D01*
X007514Y008538D02*
X002434Y008538D01*
X002434Y008480D02*
X007634Y008480D01*
X007773Y008480D02*
X008039Y008480D01*
X008039Y008538D02*
X007894Y008538D01*
X007953Y008597D02*
X008039Y008597D01*
X008049Y008421D02*
X002434Y008421D01*
X002434Y008363D02*
X008060Y008363D01*
X008039Y008304D02*
X002434Y008304D01*
X002434Y008246D02*
X008039Y008246D01*
X008039Y008187D02*
X002434Y008187D01*
X002434Y008128D02*
X008039Y008128D01*
X008039Y008070D02*
X002434Y008070D01*
X002434Y008011D02*
X008039Y008011D01*
X008039Y007953D02*
X002434Y007953D01*
X002434Y007894D02*
X008039Y007894D01*
X008039Y007836D02*
X002434Y007836D01*
X002434Y007777D02*
X008039Y007777D01*
X008039Y007719D02*
X002434Y007719D01*
X002434Y007660D02*
X008039Y007660D01*
X008081Y007602D02*
X002434Y007602D01*
X002434Y007543D02*
X008039Y007543D01*
X008039Y007484D02*
X002434Y007484D01*
X002434Y007426D02*
X008039Y007426D01*
X008039Y007367D02*
X002434Y007367D01*
X002434Y007309D02*
X008039Y007309D01*
X008039Y007250D02*
X002434Y007250D01*
X002434Y007192D02*
X008039Y007192D01*
X008039Y007133D02*
X002434Y007133D01*
X002434Y007075D02*
X008039Y007075D01*
X008039Y007016D02*
X002434Y007016D01*
X002434Y006958D02*
X008039Y006958D01*
X008039Y006899D02*
X002434Y006899D01*
X002434Y006841D02*
X008055Y006841D01*
X008114Y006782D02*
X002434Y006782D01*
X002434Y006723D02*
X008903Y006723D01*
X008844Y006665D02*
X002434Y006665D01*
X002434Y006606D02*
X008818Y006606D01*
X008794Y006548D02*
X002434Y006548D01*
X002434Y006489D02*
X008794Y006489D01*
X008794Y006431D02*
X002434Y006431D01*
X002434Y006372D02*
X008816Y006372D01*
X008840Y006314D02*
X002434Y006314D01*
X002434Y006255D02*
X008897Y006255D01*
X008994Y006197D02*
X002448Y006197D01*
X007922Y009007D02*
X008039Y009007D01*
X008039Y009065D02*
X007841Y009065D01*
X008039Y009651D02*
X002434Y009651D01*
X002434Y009709D02*
X008039Y009709D01*
X008039Y009768D02*
X002434Y009768D01*
X002434Y009826D02*
X008039Y009826D01*
X008041Y009885D02*
X002434Y009885D01*
X002434Y009943D02*
X008066Y009943D01*
X010044Y009943D02*
X012897Y009943D01*
X012848Y009964D02*
X012962Y009916D01*
X013086Y009916D01*
X013200Y009964D01*
X013287Y010051D01*
X013334Y010165D01*
X013334Y010288D01*
X013287Y010402D01*
X013200Y010489D01*
X013194Y010492D01*
X013194Y010686D01*
X013358Y010686D01*
X013434Y010763D01*
X013672Y010763D01*
X013657Y010759D02*
X013627Y010742D01*
X013603Y010717D01*
X013586Y010688D01*
X013577Y010655D01*
X013577Y010451D01*
X013874Y010451D01*
X013874Y010768D01*
X013690Y010768D01*
X013657Y010759D01*
X013596Y010704D02*
X013376Y010704D01*
X013434Y010763D02*
X013434Y011170D01*
X013358Y011246D01*
X012650Y011246D01*
X012574Y011170D01*
X012574Y010763D01*
X011434Y010763D01*
X011434Y011170D01*
X011358Y011246D01*
X010650Y011246D01*
X010574Y011170D01*
X010574Y010763D01*
X002635Y010763D01*
X002693Y010821D02*
X010574Y010821D01*
X010574Y010763D02*
X010650Y010686D01*
X011358Y010686D01*
X011434Y010763D01*
X011434Y010821D02*
X012574Y010821D01*
X012574Y010763D02*
X012650Y010686D01*
X012854Y010686D01*
X012854Y010492D01*
X012848Y010489D01*
X012761Y010402D01*
X012714Y010288D01*
X012714Y010165D01*
X012761Y010051D01*
X012848Y009964D01*
X012810Y010002D02*
X002434Y010002D01*
X002434Y010060D02*
X012757Y010060D01*
X012733Y010119D02*
X002434Y010119D01*
X002434Y010177D02*
X012714Y010177D01*
X012714Y010236D02*
X002434Y010236D01*
X002434Y010295D02*
X012717Y010295D01*
X012741Y010353D02*
X002434Y010353D01*
X002434Y010412D02*
X012771Y010412D01*
X012829Y010470D02*
X002434Y010470D01*
X002434Y010529D02*
X012854Y010529D01*
X012854Y010587D02*
X002459Y010587D01*
X002518Y010646D02*
X012854Y010646D01*
X012632Y010704D02*
X011376Y010704D01*
X011434Y010880D02*
X012574Y010880D01*
X012574Y010939D02*
X011434Y010939D01*
X011434Y010997D02*
X012574Y010997D01*
X012574Y011056D02*
X011434Y011056D01*
X011434Y011114D02*
X012574Y011114D01*
X012576Y011173D02*
X011431Y011173D01*
X011373Y011231D02*
X012635Y011231D01*
X013373Y011231D02*
X014477Y011231D01*
X014477Y011173D02*
X013431Y011173D01*
X013434Y011114D02*
X014513Y011114D01*
X014510Y011056D02*
X013434Y011056D01*
X013434Y010997D02*
X014477Y010997D01*
X014477Y010939D02*
X013434Y010939D01*
X013434Y010880D02*
X014477Y010880D01*
X014477Y010821D02*
X013434Y010821D01*
X013577Y010646D02*
X013194Y010646D01*
X013194Y010587D02*
X013577Y010587D01*
X013577Y010529D02*
X013194Y010529D01*
X013219Y010470D02*
X013577Y010470D01*
X013577Y010353D02*
X013307Y010353D01*
X013331Y010295D02*
X013577Y010295D01*
X013577Y010236D02*
X013334Y010236D01*
X013334Y010177D02*
X013580Y010177D01*
X013609Y010119D02*
X013315Y010119D01*
X013291Y010060D02*
X013615Y010060D01*
X013577Y010002D02*
X013238Y010002D01*
X013150Y009943D02*
X013577Y009943D01*
X013577Y009885D02*
X010070Y009885D01*
X010071Y009826D02*
X013577Y009826D01*
X013577Y009768D02*
X010071Y009768D01*
X010071Y009709D02*
X010613Y009709D01*
X010579Y009651D02*
X010071Y009651D01*
X010071Y009416D02*
X010574Y009416D01*
X010574Y009436D02*
X010574Y009299D01*
X010583Y009266D01*
X010600Y009237D01*
X010624Y009212D01*
X010654Y009195D01*
X010687Y009186D01*
X010974Y009186D01*
X010974Y009436D01*
X010574Y009436D01*
X010574Y009358D02*
X010071Y009358D01*
X010071Y009299D02*
X010574Y009299D01*
X010597Y009241D02*
X010067Y009241D01*
X010574Y008890D02*
X010634Y008890D01*
X010634Y008831D02*
X010574Y008831D01*
X010574Y008772D02*
X010634Y008772D01*
X010911Y008772D02*
X011865Y008772D01*
X012044Y008421D02*
X013607Y008421D01*
X013597Y008363D02*
X012657Y008363D01*
X012713Y008304D02*
X013597Y008304D01*
X013597Y008187D02*
X012724Y008187D01*
X012724Y008246D02*
X013874Y008246D01*
X013934Y008246D02*
X014721Y008246D01*
X014721Y008304D02*
X014211Y008304D01*
X014211Y008260D02*
X014211Y008385D01*
X014202Y008419D01*
X014185Y008448D01*
X014161Y008472D01*
X014143Y008483D01*
X014211Y008551D01*
X014211Y008720D01*
X014298Y008720D01*
X014298Y008693D01*
X014555Y008693D01*
X014555Y008693D01*
X014298Y008693D01*
X014298Y008617D01*
X014307Y008584D01*
X014324Y008554D01*
X014348Y008530D01*
X014378Y008513D01*
X014411Y008504D01*
X014556Y008504D01*
X014701Y008504D01*
X014721Y008509D01*
X014721Y008157D01*
X014750Y008128D01*
X014750Y007826D01*
X014173Y007826D01*
X014167Y007842D01*
X014080Y007929D01*
X013998Y007963D01*
X014098Y007963D01*
X014131Y007972D01*
X014161Y007989D01*
X014185Y008013D01*
X014202Y008043D01*
X014211Y008076D01*
X014211Y008201D01*
X013934Y008201D01*
X013934Y008260D01*
X014211Y008260D01*
X014211Y008187D02*
X014721Y008187D01*
X014749Y008128D02*
X014211Y008128D01*
X014210Y008070D02*
X014750Y008070D01*
X014750Y008011D02*
X014184Y008011D01*
X014114Y007894D02*
X014750Y007894D01*
X014750Y007836D02*
X014169Y007836D01*
X014022Y007953D02*
X014750Y007953D01*
X014910Y007760D02*
X014910Y008338D01*
X014721Y008363D02*
X014211Y008363D01*
X014201Y008421D02*
X014721Y008421D01*
X014721Y008480D02*
X014148Y008480D01*
X014199Y008538D02*
X014340Y008538D01*
X014303Y008597D02*
X014211Y008597D01*
X014211Y008655D02*
X014298Y008655D01*
X014298Y008714D02*
X014211Y008714D01*
X014556Y008692D02*
X014556Y008692D01*
X014556Y008504D01*
X014556Y008692D01*
X014556Y008693D02*
X014556Y008693D01*
X014814Y008693D01*
X014814Y008769D01*
X014812Y008775D01*
X014814Y008777D01*
X014814Y008899D01*
X014822Y008899D01*
X014977Y009055D01*
X014977Y008872D01*
X014986Y008839D01*
X015003Y008810D01*
X015027Y008786D01*
X015057Y008768D01*
X015090Y008760D01*
X015274Y008760D01*
X015274Y009056D01*
X015334Y009056D01*
X015334Y008760D01*
X015518Y008760D01*
X015551Y008768D01*
X015581Y008786D01*
X015605Y008810D01*
X015622Y008839D01*
X015625Y008850D01*
X015636Y008839D01*
X015773Y008702D01*
X015794Y008702D01*
X015794Y008596D01*
X015614Y008596D01*
X015417Y008596D01*
X015220Y008596D01*
X015023Y008596D01*
X014808Y008596D01*
X014814Y008617D01*
X014814Y008693D01*
X014556Y008693D01*
X014556Y008655D02*
X014556Y008655D01*
X014556Y008597D02*
X014556Y008597D01*
X014556Y008538D02*
X014556Y008538D01*
X014809Y008597D02*
X015794Y008597D01*
X015794Y008655D02*
X014814Y008655D01*
X014814Y008714D02*
X015761Y008714D01*
X015703Y008772D02*
X015558Y008772D01*
X015617Y008831D02*
X015644Y008831D01*
X015334Y008831D02*
X015274Y008831D01*
X015274Y008772D02*
X015334Y008772D01*
X015334Y008890D02*
X015274Y008890D01*
X015274Y008948D02*
X015334Y008948D01*
X015334Y009007D02*
X015274Y009007D01*
X014977Y009007D02*
X014929Y009007D01*
X014977Y008948D02*
X014871Y008948D01*
X014814Y008890D02*
X014977Y008890D01*
X014991Y008831D02*
X014814Y008831D01*
X014813Y008772D02*
X015050Y008772D01*
X015107Y008338D02*
X015107Y007743D01*
X015324Y007526D01*
X016124Y007526D01*
X016598Y007053D01*
X016598Y006834D01*
X016401Y006834D02*
X016401Y007010D01*
X016004Y007406D01*
X015264Y007406D01*
X014910Y007760D01*
X015014Y007250D02*
X012724Y007250D01*
X012724Y007192D02*
X015031Y007192D01*
X015001Y007133D02*
X012724Y007133D01*
X012724Y007075D02*
X014977Y007075D01*
X014974Y007016D02*
X012724Y007016D01*
X012724Y006958D02*
X014974Y006958D01*
X014993Y006899D02*
X012724Y006899D01*
X012724Y006841D02*
X015017Y006841D01*
X015070Y006782D02*
X012724Y006782D01*
X012724Y006723D02*
X014463Y006723D01*
X014384Y006665D02*
X012724Y006665D01*
X012724Y006606D02*
X014335Y006606D01*
X014310Y006548D02*
X012724Y006548D01*
X012724Y006489D02*
X014294Y006489D01*
X014294Y006431D02*
X012724Y006431D01*
X012707Y006372D02*
X014299Y006372D01*
X014323Y006314D02*
X012634Y006314D01*
X012428Y006314D02*
X012368Y006314D01*
X012368Y006372D02*
X012428Y006372D01*
X012428Y006431D02*
X012368Y006431D01*
X012368Y006489D02*
X012428Y006489D01*
X012428Y006548D02*
X012368Y006548D01*
X012368Y006606D02*
X012428Y006606D01*
X012428Y006665D02*
X012368Y006665D01*
X012368Y006723D02*
X012428Y006723D01*
X012428Y006782D02*
X012368Y006782D01*
X012368Y006841D02*
X012428Y006841D01*
X012428Y006899D02*
X012368Y006899D01*
X012368Y006958D02*
X012428Y006958D01*
X012428Y007016D02*
X012368Y007016D01*
X012368Y007075D02*
X012428Y007075D01*
X012428Y007133D02*
X012368Y007133D01*
X012368Y007192D02*
X012428Y007192D01*
X012428Y007250D02*
X012368Y007250D01*
X012368Y007426D02*
X012428Y007426D01*
X012428Y007484D02*
X012368Y007484D01*
X012368Y007543D02*
X012428Y007543D01*
X012428Y007602D02*
X012368Y007602D01*
X012368Y007660D02*
X012428Y007660D01*
X012428Y007719D02*
X012368Y007719D01*
X012368Y007777D02*
X012428Y007777D01*
X012428Y007836D02*
X012368Y007836D01*
X012368Y007894D02*
X012428Y007894D01*
X012428Y007953D02*
X012368Y007953D01*
X012368Y008011D02*
X012428Y008011D01*
X012428Y008070D02*
X012368Y008070D01*
X012368Y008128D02*
X012428Y008128D01*
X012428Y008187D02*
X012368Y008187D01*
X012368Y008246D02*
X012428Y008246D01*
X012428Y008304D02*
X012368Y008304D01*
X012368Y008363D02*
X012428Y008363D01*
X012138Y008363D02*
X011985Y008363D01*
X011935Y008304D02*
X012083Y008304D01*
X012071Y008246D02*
X011937Y008246D01*
X011937Y008187D02*
X012071Y008187D01*
X012071Y008128D02*
X011937Y008128D01*
X011937Y008070D02*
X012071Y008070D01*
X012071Y008011D02*
X011937Y008011D01*
X011937Y007953D02*
X012071Y007953D01*
X012071Y007894D02*
X011937Y007894D01*
X011937Y007836D02*
X012071Y007836D01*
X012071Y007777D02*
X011937Y007777D01*
X011937Y007719D02*
X012071Y007719D01*
X012071Y007660D02*
X011937Y007660D01*
X011937Y007602D02*
X012071Y007602D01*
X012071Y007543D02*
X011937Y007543D01*
X011937Y007484D02*
X012071Y007484D01*
X012071Y007426D02*
X011937Y007426D01*
X011283Y007719D02*
X011281Y007719D01*
X011283Y007777D02*
X011222Y007777D01*
X011164Y007836D02*
X011283Y007836D01*
X011283Y007894D02*
X011105Y007894D01*
X012724Y007894D02*
X013693Y007894D01*
X013639Y007836D02*
X012724Y007836D01*
X012724Y007777D02*
X013614Y007777D01*
X013594Y007719D02*
X012724Y007719D01*
X012724Y007660D02*
X013594Y007660D01*
X013595Y007602D02*
X012724Y007602D01*
X012724Y007953D02*
X013785Y007953D01*
X013624Y008011D02*
X012724Y008011D01*
X012724Y008070D02*
X013598Y008070D01*
X013597Y008128D02*
X012724Y008128D01*
X013302Y008480D02*
X013660Y008480D01*
X013609Y008538D02*
X013361Y008538D01*
X013419Y008597D02*
X013597Y008597D01*
X013597Y008655D02*
X013478Y008655D01*
X013536Y008714D02*
X013597Y008714D01*
X013595Y008772D02*
X013597Y008772D01*
X012974Y009186D02*
X012687Y009186D01*
X012654Y009195D01*
X012624Y009212D01*
X012600Y009237D01*
X012583Y009266D01*
X012574Y009299D01*
X012574Y009436D01*
X012974Y009436D01*
X012974Y009186D01*
X012974Y009241D02*
X013034Y009241D01*
X013034Y009299D02*
X012974Y009299D01*
X012974Y009358D02*
X013034Y009358D01*
X013034Y009416D02*
X012974Y009416D01*
X012597Y009241D02*
X011410Y009241D01*
X011434Y009299D02*
X012574Y009299D01*
X012574Y009358D02*
X011434Y009358D01*
X011434Y009416D02*
X012574Y009416D01*
X012574Y009534D02*
X011434Y009534D01*
X011434Y009592D02*
X012574Y009592D01*
X012579Y009651D02*
X011429Y009651D01*
X011395Y009709D02*
X012613Y009709D01*
X013395Y009709D02*
X013577Y009709D01*
X013577Y009651D02*
X013429Y009651D01*
X013434Y009592D02*
X013577Y009592D01*
X013577Y009534D02*
X013434Y009534D01*
X014181Y010101D02*
X014360Y009921D01*
X014721Y009921D01*
X014721Y010016D01*
X014797Y010092D01*
X015023Y010092D01*
X015025Y010091D01*
X015031Y010092D01*
X015107Y010092D01*
X015107Y009835D01*
X015107Y009835D01*
X015107Y010092D01*
X015134Y010092D01*
X015134Y010119D01*
X015107Y010060D02*
X015107Y010060D01*
X015107Y010002D02*
X015107Y010002D01*
X015107Y009943D02*
X015107Y009943D01*
X015107Y009885D02*
X015107Y009885D01*
X014898Y010177D02*
X014228Y010177D01*
X014205Y010125D02*
X014181Y010101D01*
X014221Y010060D02*
X014765Y010060D01*
X014721Y010002D02*
X014279Y010002D01*
X014338Y009943D02*
X014721Y009943D01*
X014880Y010236D02*
X014231Y010236D01*
X014231Y010295D02*
X014880Y010295D01*
X014868Y010353D02*
X014231Y010353D01*
X014231Y010470D02*
X014751Y010470D01*
X014809Y010412D02*
X013934Y010412D01*
X013934Y010470D02*
X013874Y010470D01*
X013874Y010412D02*
X013277Y010412D01*
X013874Y010529D02*
X013934Y010529D01*
X013934Y010587D02*
X013874Y010587D01*
X013874Y010646D02*
X013934Y010646D01*
X013934Y010704D02*
X013874Y010704D01*
X013874Y010763D02*
X013934Y010763D01*
X014135Y010763D02*
X014477Y010763D01*
X014477Y010704D02*
X014212Y010704D01*
X014231Y010646D02*
X014477Y010646D01*
X014528Y010587D02*
X014231Y010587D01*
X014231Y010529D02*
X014692Y010529D01*
X015106Y010821D02*
X015340Y010821D01*
X015340Y010763D02*
X015165Y010763D01*
X015091Y010880D02*
X015340Y010880D01*
X015340Y010939D02*
X015091Y010939D01*
X015091Y010997D02*
X015340Y010997D01*
X015340Y011056D02*
X015058Y011056D01*
X015055Y011114D02*
X015340Y011114D01*
X015356Y011173D02*
X015091Y011173D01*
X015091Y011231D02*
X015414Y011231D01*
X015091Y011290D02*
X017493Y011290D01*
X017460Y011231D02*
X016314Y011231D01*
X016372Y011173D02*
X017460Y011173D01*
X017460Y011114D02*
X016388Y011114D01*
X016388Y011056D02*
X017460Y011056D01*
X017458Y010997D02*
X016388Y010997D01*
X016388Y010939D02*
X017400Y010939D01*
X017341Y010880D02*
X016388Y010880D01*
X016388Y010821D02*
X017283Y010821D01*
X017224Y010763D02*
X016388Y010763D01*
X016388Y010704D02*
X017086Y010704D01*
X017045Y010646D02*
X016338Y010646D01*
X015867Y011173D02*
X015861Y011173D01*
X015802Y011231D02*
X015926Y011231D01*
X015091Y011348D02*
X025787Y011348D01*
X025729Y011407D02*
X015091Y011407D01*
X015091Y011465D02*
X025670Y011465D01*
X025612Y011524D02*
X015096Y011524D01*
X015111Y011583D02*
X025553Y011583D01*
X025495Y011641D02*
X015111Y011641D01*
X015111Y011700D02*
X025436Y011700D01*
X025378Y011758D02*
X015111Y011758D01*
X015111Y011817D02*
X025319Y011817D01*
X025846Y011290D02*
X018475Y011290D01*
X018505Y011231D02*
X025905Y011231D01*
X025963Y011173D02*
X018508Y011173D01*
X018508Y011056D02*
X018270Y011056D01*
X018270Y011114D02*
X018210Y011114D01*
X018210Y011173D02*
X018270Y011173D01*
X018270Y011231D02*
X018210Y011231D01*
X018210Y011290D02*
X018270Y011290D01*
X018004Y011290D02*
X017963Y011290D01*
X018270Y010997D02*
X026139Y010997D01*
X026197Y010939D02*
X018508Y010939D01*
X018508Y010880D02*
X026256Y010880D01*
X026314Y010821D02*
X018505Y010821D01*
X018475Y010763D02*
X026373Y010763D01*
X026431Y010704D02*
X018601Y010704D01*
X018643Y010646D02*
X026490Y010646D01*
X026549Y010587D02*
X018643Y010587D01*
X018643Y010529D02*
X026574Y010529D01*
X026574Y010470D02*
X018643Y010470D01*
X018643Y010412D02*
X026574Y010412D01*
X026574Y010353D02*
X018643Y010353D01*
X018643Y010295D02*
X026574Y010295D01*
X026574Y010236D02*
X018643Y010236D01*
X018643Y010177D02*
X026574Y010177D01*
X026574Y010119D02*
X018643Y010119D01*
X018643Y010060D02*
X026574Y010060D01*
X026574Y010002D02*
X018643Y010002D01*
X018643Y009943D02*
X018964Y009943D01*
X018937Y009885D02*
X018643Y009885D01*
X018643Y009826D02*
X018937Y009826D01*
X018937Y009768D02*
X018639Y009768D01*
X018639Y009709D02*
X018937Y009709D01*
X018937Y009651D02*
X018639Y009651D01*
X018639Y009592D02*
X018937Y009592D01*
X018937Y009534D02*
X018639Y009534D01*
X018639Y009475D02*
X018937Y009475D01*
X018937Y009416D02*
X018639Y009416D01*
X018639Y009358D02*
X018937Y009358D01*
X018937Y009299D02*
X018639Y009299D01*
X018639Y009241D02*
X018937Y009241D01*
X018973Y009182D02*
X018643Y009182D01*
X018643Y009124D02*
X018937Y009124D01*
X018937Y009065D02*
X018643Y009065D01*
X018643Y009007D02*
X018937Y009007D01*
X018937Y008948D02*
X018643Y008948D01*
X018643Y008890D02*
X018937Y008890D01*
X018937Y008831D02*
X018643Y008831D01*
X018643Y008772D02*
X018937Y008772D01*
X018937Y008714D02*
X018643Y008714D01*
X018643Y008655D02*
X018908Y008655D01*
X018849Y008597D02*
X018643Y008597D01*
X018643Y008538D02*
X018791Y008538D01*
X018732Y008480D02*
X018643Y008480D01*
X018643Y008421D02*
X018716Y008421D01*
X018716Y008363D02*
X018643Y008363D01*
X018597Y008304D02*
X018716Y008304D01*
X018716Y008246D02*
X018468Y008246D01*
X018468Y008187D02*
X018716Y008187D01*
X018716Y008128D02*
X018468Y008128D01*
X018468Y008070D02*
X018716Y008070D01*
X018716Y008011D02*
X018468Y008011D01*
X018468Y007953D02*
X018705Y007953D01*
X018647Y007894D02*
X018468Y007894D01*
X018428Y007836D02*
X018588Y007836D01*
X018530Y007777D02*
X017258Y007777D01*
X017200Y007836D02*
X017460Y007836D01*
X017470Y007825D02*
X017500Y007808D01*
X017533Y007799D01*
X017658Y007799D01*
X017658Y008076D01*
X017420Y008076D01*
X017420Y007912D01*
X017429Y007879D01*
X017446Y007849D01*
X017470Y007825D01*
X017425Y007894D02*
X017141Y007894D01*
X017083Y007953D02*
X017420Y007953D01*
X017420Y008011D02*
X017071Y008011D01*
X017071Y008070D02*
X017420Y008070D01*
X017420Y008187D02*
X017071Y008187D01*
X017071Y008246D02*
X017420Y008246D01*
X017658Y008128D02*
X017071Y008128D01*
X017091Y008304D02*
X017031Y008304D01*
X017045Y008363D02*
X016973Y008363D01*
X016914Y008421D02*
X017045Y008421D01*
X017045Y008480D02*
X016856Y008480D01*
X016797Y008538D02*
X017045Y008538D01*
X017045Y008597D02*
X016739Y008597D01*
X016691Y008655D02*
X017045Y008655D01*
X017045Y008714D02*
X016691Y008714D01*
X016663Y008772D02*
X017045Y008772D01*
X017045Y008831D02*
X016604Y008831D01*
X016546Y008890D02*
X017045Y008890D01*
X017045Y008948D02*
X016487Y008948D01*
X016429Y009007D02*
X017045Y009007D01*
X017045Y009065D02*
X016370Y009065D01*
X016516Y009124D02*
X017045Y009124D01*
X017045Y009182D02*
X016575Y009182D01*
X016990Y009241D02*
X017079Y009241D01*
X017011Y009299D02*
X017869Y009299D01*
X017869Y009241D02*
X017703Y009241D01*
X017738Y009182D02*
X017869Y009182D01*
X017869Y009124D02*
X017738Y009124D01*
X017738Y009065D02*
X017869Y009065D01*
X017869Y009007D02*
X017738Y009007D01*
X017738Y008948D02*
X017869Y008948D01*
X017869Y008890D02*
X017738Y008890D01*
X017738Y008831D02*
X017869Y008831D01*
X017869Y008772D02*
X017738Y008772D01*
X017738Y008714D02*
X017869Y008714D01*
X017869Y008655D02*
X017738Y008655D01*
X017738Y008597D02*
X017869Y008597D01*
X017869Y008538D02*
X017738Y008538D01*
X017738Y008480D02*
X017869Y008480D01*
X017869Y008421D02*
X017738Y008421D01*
X017718Y008070D02*
X017658Y008070D01*
X017658Y008011D02*
X017718Y008011D01*
X017718Y007953D02*
X017658Y007953D01*
X017658Y007894D02*
X017718Y007894D01*
X017718Y007836D02*
X017658Y007836D01*
X017916Y007836D02*
X017972Y007836D01*
X018295Y007543D02*
X017492Y007543D01*
X017434Y007602D02*
X018354Y007602D01*
X018413Y007660D02*
X017375Y007660D01*
X017317Y007719D02*
X018471Y007719D01*
X018237Y007484D02*
X017761Y007484D01*
X017819Y007426D02*
X018178Y007426D01*
X018120Y007367D02*
X017828Y007367D01*
X017828Y007309D02*
X018061Y007309D01*
X018003Y007250D02*
X017828Y007250D01*
X017844Y007192D02*
X017944Y007192D01*
X018297Y008103D02*
X018294Y008106D01*
X017869Y009358D02*
X017011Y009358D01*
X015772Y008338D02*
X015698Y008338D01*
X015712Y008338D01*
X014555Y009283D02*
X014555Y009283D01*
X011034Y009299D02*
X010974Y009299D01*
X010974Y009241D02*
X011034Y009241D01*
X011034Y009358D02*
X010974Y009358D01*
X010974Y009416D02*
X011034Y009416D01*
X009055Y008780D02*
X009049Y008786D01*
X009055Y007205D02*
X009104Y007157D01*
X009311Y006255D02*
X014357Y006255D01*
X014415Y006197D02*
X009214Y006197D01*
X011050Y006079D02*
X012958Y006079D01*
X012899Y006021D02*
X011108Y006021D01*
X011110Y005962D02*
X012898Y005962D01*
X012898Y005904D02*
X011110Y005904D01*
X011110Y005845D02*
X012898Y005845D01*
X012898Y005787D02*
X011110Y005787D01*
X011110Y005728D02*
X012898Y005728D01*
X012898Y005670D02*
X011110Y005670D01*
X011110Y005611D02*
X012898Y005611D01*
X012898Y005553D02*
X011110Y005553D01*
X011110Y005494D02*
X012898Y005494D01*
X012898Y005435D02*
X011110Y005435D01*
X011110Y005377D02*
X012898Y005377D01*
X012898Y005318D02*
X011110Y005318D01*
X011110Y005260D02*
X012898Y005260D01*
X012898Y005201D02*
X011110Y005201D01*
X011110Y005143D02*
X012898Y005143D01*
X012898Y005084D02*
X011110Y005084D01*
X011110Y005026D02*
X012898Y005026D01*
X012898Y004967D02*
X011110Y004967D01*
X011110Y004909D02*
X012898Y004909D01*
X012898Y004850D02*
X011110Y004850D01*
X011110Y004791D02*
X012898Y004791D01*
X012898Y004733D02*
X011110Y004733D01*
X011110Y004674D02*
X012898Y004674D01*
X012898Y004616D02*
X011110Y004616D01*
X013787Y004616D02*
X024979Y004616D01*
X025037Y004674D02*
X013787Y004674D01*
X015078Y005611D02*
X015139Y005611D01*
X015131Y005553D02*
X015197Y005553D01*
X015080Y005670D02*
X014990Y005670D01*
X015022Y005728D02*
X014601Y005728D01*
X014659Y005670D02*
X014738Y005670D01*
X014963Y005787D02*
X014489Y005787D01*
X016149Y004791D02*
X016538Y004791D01*
X016480Y004850D02*
X016208Y004850D01*
X016224Y004866D02*
X016224Y004866D01*
X016266Y004909D02*
X016421Y004909D01*
X016363Y004967D02*
X016325Y004967D01*
X015621Y006723D02*
X015411Y006723D01*
X015498Y006782D02*
X015621Y006782D01*
X015778Y006866D02*
X015810Y006834D01*
X015270Y006665D02*
X014824Y006665D01*
X014745Y006723D02*
X015157Y006723D01*
X020926Y007602D02*
X026574Y007602D01*
X026574Y007660D02*
X020969Y007660D01*
X020969Y007719D02*
X026574Y007719D01*
X026574Y007777D02*
X020969Y007777D01*
X020969Y007836D02*
X026574Y007836D01*
X026574Y007894D02*
X020969Y007894D01*
X020969Y007953D02*
X026574Y007953D01*
X026574Y008011D02*
X020969Y008011D01*
X020969Y008070D02*
X026574Y008070D01*
X026574Y008128D02*
X020969Y008128D01*
X020969Y008187D02*
X026574Y008187D01*
X026574Y008246D02*
X020969Y008246D01*
X020969Y008304D02*
X026574Y008304D01*
X026574Y008363D02*
X020948Y008363D01*
X020959Y008421D02*
X026574Y008421D01*
X026574Y008480D02*
X020969Y008480D01*
X020969Y008538D02*
X026574Y008538D01*
X026574Y008597D02*
X020969Y008597D01*
X020969Y008655D02*
X026574Y008655D01*
X026574Y008714D02*
X020969Y008714D01*
X020969Y008772D02*
X026574Y008772D01*
X026574Y008831D02*
X020969Y008831D01*
X020969Y008890D02*
X026574Y008890D01*
X026574Y008948D02*
X020969Y008948D01*
X020969Y009007D02*
X026574Y009007D01*
X026574Y009065D02*
X020969Y009065D01*
X020969Y009124D02*
X026574Y009124D01*
X026574Y009182D02*
X020932Y009182D01*
X020969Y009241D02*
X026574Y009241D01*
X026574Y009299D02*
X021321Y009299D01*
X021414Y009358D02*
X026574Y009358D01*
X026574Y009416D02*
X021469Y009416D01*
X021493Y009475D02*
X026574Y009475D01*
X026574Y009534D02*
X021514Y009534D01*
X021514Y009592D02*
X026574Y009592D01*
X026574Y009651D02*
X021513Y009651D01*
X021489Y009709D02*
X026574Y009709D01*
X026574Y009768D02*
X021461Y009768D01*
X021403Y009826D02*
X026574Y009826D01*
X026574Y009885D02*
X021294Y009885D01*
X021114Y009885D02*
X020969Y009885D01*
X020969Y009826D02*
X021005Y009826D01*
X020942Y009943D02*
X026574Y009943D01*
X026574Y007543D02*
X020962Y007543D01*
X020969Y007484D02*
X026574Y007484D01*
X026574Y007426D02*
X020969Y007426D01*
X020969Y007367D02*
X026574Y007367D01*
X026574Y007309D02*
X020969Y007309D01*
X020969Y009299D02*
X021087Y009299D01*
X020994Y009358D02*
X020969Y009358D01*
X014477Y011290D02*
X003162Y011290D01*
X003220Y011348D02*
X014477Y011348D01*
X014477Y011407D02*
X003279Y011407D01*
X003337Y011465D02*
X014100Y011465D01*
X014016Y011524D02*
X003396Y011524D01*
X003455Y011583D02*
X013997Y011583D01*
X013997Y011641D02*
X003513Y011641D01*
X003572Y011700D02*
X013997Y011700D01*
X013997Y011817D02*
X003689Y011817D01*
X003630Y011758D02*
X014274Y011758D01*
X014274Y011700D02*
X014334Y011700D01*
X014334Y011641D02*
X014274Y011641D01*
X014274Y011583D02*
X014334Y011583D01*
X014334Y011524D02*
X014274Y011524D01*
X014274Y011465D02*
X014334Y011465D01*
X010635Y011231D02*
X003103Y011231D01*
X003045Y011173D02*
X010576Y011173D01*
X010574Y011114D02*
X002986Y011114D01*
X002928Y011056D02*
X010574Y011056D01*
X010574Y010997D02*
X002869Y010997D01*
X002811Y010939D02*
X010574Y010939D01*
X010574Y010880D02*
X002752Y010880D01*
X002576Y010704D02*
X010632Y010704D01*
D23*
X012344Y010636D03*
X013024Y010226D03*
X012344Y010136D03*
X012344Y011136D03*
X012544Y011636D03*
X012044Y011636D03*
X011544Y011636D03*
X011044Y011636D03*
X010544Y011636D03*
X010044Y011636D03*
X009544Y011636D03*
X009044Y011636D03*
X008544Y011636D03*
X008044Y011636D03*
X007544Y011636D03*
X007044Y011636D03*
X006544Y011636D03*
X006044Y011636D03*
X005544Y011636D03*
X005044Y011636D03*
X004544Y011636D03*
X004044Y011636D03*
X003504Y011136D03*
X003004Y010636D03*
X007704Y008786D03*
X009104Y006486D03*
X013024Y007266D03*
X013904Y007666D03*
X013024Y007746D03*
X014444Y008066D03*
X015424Y007826D03*
X015904Y007826D03*
X016524Y007606D03*
X016544Y008066D03*
X016844Y008866D03*
X014404Y010086D03*
X017004Y011136D03*
X017004Y011636D03*
X016504Y011636D03*
X016004Y011636D03*
X017504Y011636D03*
X018004Y011636D03*
X018504Y011636D03*
X019004Y011636D03*
X019504Y011636D03*
X020004Y011636D03*
X020504Y011636D03*
X021004Y011636D03*
X021504Y011636D03*
X022004Y011636D03*
X022504Y011636D03*
X023004Y011636D03*
X023504Y011636D03*
X024004Y011636D03*
X024504Y011636D03*
X025004Y011636D03*
X025504Y011136D03*
X026004Y010636D03*
X021204Y009586D03*
X019004Y010636D03*
X019004Y011136D03*
X013544Y011636D03*
X013044Y011636D03*
X015284Y007006D03*
X014604Y006446D03*
X014914Y006146D03*
X014404Y005486D03*
X014864Y005386D03*
X014404Y005036D03*
X017544Y005886D03*
X017844Y006186D03*
X018504Y006786D03*
D24*
X016904Y005386D02*
X016604Y005686D01*
X015804Y006486D02*
X015604Y006686D01*
X014694Y008486D02*
X014844Y008636D01*
X015501Y009834D02*
X015501Y010267D01*
X015660Y010426D01*
X015660Y010875D01*
X015608Y010926D01*
X016104Y010911D02*
X016120Y010926D01*
X016104Y010911D02*
X016104Y010186D01*
X015752Y009834D01*
X015698Y009834D01*
X014784Y011342D02*
X014804Y011362D01*
D25*
X014604Y009286D02*
X013504Y009286D01*
X017879Y006891D02*
X017879Y006861D01*
X017504Y006086D02*
X016704Y006086D01*
X019298Y008780D02*
X019953Y008780D01*
D26*
X017804Y008386D02*
X017804Y007986D01*
X017804Y007836D01*
D27*
X017688Y007852D02*
X017804Y007968D01*
X017804Y007986D01*
X018004Y007786D01*
X017688Y007852D02*
X017688Y008106D01*
X018200Y008106D02*
X018294Y008106D01*
X018297Y008103D02*
X018297Y008778D01*
X018304Y008785D01*
X018304Y009186D01*
X017959Y009532D01*
X016684Y009532D01*
X016435Y009283D01*
X016052Y009283D01*
X016052Y009480D02*
X016684Y010112D01*
X016684Y010201D01*
X016718Y010235D01*
X017391Y010235D01*
X017391Y010690D01*
X017728Y011026D01*
X015304Y010271D02*
X015304Y009834D01*
X015107Y009834D02*
X015107Y010033D01*
X015054Y010086D01*
X014404Y010086D01*
X013904Y009752D02*
X014176Y009480D01*
X014556Y009480D01*
X014556Y008890D02*
X014051Y008890D01*
X013904Y008742D01*
X015304Y008338D02*
X015304Y007946D01*
X015424Y007826D01*
X015501Y008150D02*
X015824Y007826D01*
X015904Y007826D01*
X015501Y008150D02*
X015501Y008338D01*
X015698Y008338D02*
X015792Y008338D01*
X016524Y007606D01*
X017048Y007186D02*
X017048Y006931D01*
X016704Y006586D01*
X016304Y006586D01*
X016204Y006686D01*
X016204Y006834D01*
X015810Y006834D02*
X015638Y007006D01*
X015284Y007006D01*
X015456Y006480D02*
X014638Y006480D01*
X014604Y006446D01*
X014914Y006146D02*
X014914Y006076D01*
X015298Y005693D01*
X015456Y005693D01*
X015624Y005506D02*
X015154Y005506D01*
X014914Y005746D01*
X014404Y005486D02*
X014404Y005436D01*
X014754Y005086D01*
X015904Y005086D01*
X016007Y005190D01*
X016007Y005338D01*
X015810Y005338D02*
X014912Y005338D01*
X014864Y005386D01*
X014504Y004936D02*
X014404Y005036D01*
X014504Y004936D02*
X016054Y004936D01*
X016204Y005086D01*
X016204Y005338D01*
X016401Y005338D02*
X016401Y005170D01*
X016644Y004926D01*
X017564Y004926D01*
X018864Y006226D01*
X018864Y007546D01*
X019310Y007993D01*
X019953Y007993D01*
X018504Y006786D02*
X018424Y006706D01*
X018424Y006106D01*
X017504Y005186D01*
X016750Y005186D01*
X016598Y005338D01*
X015764Y005646D02*
X015624Y005506D01*
X017560Y007186D02*
X017584Y007186D01*
X017594Y007176D01*
X016544Y008066D02*
X016052Y008558D01*
X016052Y008693D01*
X015304Y010271D02*
X015148Y010426D01*
X013024Y010226D02*
X013024Y010946D01*
X013004Y010966D01*
X009049Y008786D02*
X007704Y008786D01*
X009104Y007157D02*
X009104Y006486D01*
X019953Y009568D02*
X019972Y009586D01*
X021204Y009586D01*
D28*
X019298Y008780D02*
X018904Y008386D01*
X018904Y007886D01*
X017879Y006861D01*
X017301Y006283D01*
X016952Y006283D01*
X017594Y007176D02*
X017879Y006891D01*
X017594Y007176D02*
X016884Y007886D01*
X016884Y008186D01*
X016504Y008566D01*
X016504Y008666D01*
X016281Y008890D01*
X016052Y008890D01*
X015851Y008890D01*
X015714Y009026D01*
X015714Y009346D01*
X015554Y009506D01*
X014930Y009506D01*
X014910Y009486D01*
X014910Y009834D01*
X014910Y009486D02*
X014910Y009253D01*
X014744Y009086D01*
X014556Y009086D01*
X013644Y009086D01*
X013184Y008626D01*
X011984Y008626D01*
X011610Y008253D01*
X011610Y007343D01*
X011391Y007343D01*
X010604Y008131D01*
X010466Y007993D01*
X009055Y007993D01*
X016004Y009086D02*
X016544Y009086D01*
D29*
X015148Y010426D02*
X014784Y010791D01*
X014784Y010831D01*
X014804Y011362D02*
X014804Y011731D01*
X014804Y012242D02*
X014304Y012242D01*
X014804Y012242D02*
X014804Y012686D01*
X014504Y012686D01*
M02*
