G75*
G70*
%OFA0B0*%
%FSLAX24Y24*%
%IPPOS*%
%LPD*%
%AMOC8*
5,1,8,0,0,1.08239X$1,22.5*
%
%ADD10C,0.0100*%
%ADD11C,0.0360*%
%ADD12C,0.0080*%
%ADD13C,0.0060*%
D10*
X004087Y004586D02*
X002454Y006219D01*
X002454Y010554D01*
X003712Y011811D01*
X025296Y011811D01*
X026554Y010554D01*
X026554Y006219D01*
X024921Y004586D01*
X004087Y004586D01*
X004006Y004668D02*
X025002Y004668D01*
X025101Y004766D02*
X014600Y004766D01*
X014591Y004757D02*
X014684Y004850D01*
X014734Y004971D01*
X014734Y005083D01*
X014798Y005056D01*
X014930Y005056D01*
X015051Y005107D01*
X015144Y005200D01*
X015194Y005321D01*
X015194Y005452D01*
X015159Y005537D01*
X015159Y005925D01*
X015194Y005960D01*
X015228Y006041D01*
X016463Y007276D01*
X016590Y007276D01*
X016711Y007327D01*
X016804Y007420D01*
X016854Y007541D01*
X016854Y007672D01*
X016804Y007793D01*
X016771Y007826D01*
X016824Y007880D01*
X016874Y008001D01*
X016874Y008132D01*
X016824Y008253D01*
X016731Y008346D01*
X016610Y008396D01*
X016478Y008396D01*
X016357Y008346D01*
X016264Y008253D01*
X016214Y008132D01*
X016214Y008001D01*
X016224Y007976D01*
X016207Y007958D01*
X016184Y008013D01*
X016091Y008106D01*
X015970Y008156D01*
X015838Y008156D01*
X015717Y008106D01*
X015664Y008053D01*
X015611Y008106D01*
X015490Y008156D01*
X015358Y008156D01*
X015237Y008106D01*
X015144Y008013D01*
X015094Y007892D01*
X015094Y007765D01*
X014225Y006896D01*
X014114Y006785D01*
X014114Y005908D01*
X014225Y005796D01*
X014244Y005777D01*
X014217Y005766D01*
X014127Y005676D01*
X011083Y005676D01*
X008034Y008725D01*
X008034Y008852D01*
X007984Y008973D01*
X007891Y009066D01*
X007770Y009116D01*
X007638Y009116D01*
X007517Y009066D01*
X007424Y008973D01*
X007374Y008852D01*
X007374Y008721D01*
X007424Y008600D01*
X007517Y008507D01*
X007638Y008456D01*
X007765Y008456D01*
X010925Y005296D01*
X011083Y005296D01*
X014127Y005296D01*
X014162Y005261D01*
X014127Y005226D01*
X010633Y005226D01*
X009434Y006425D01*
X009434Y006552D01*
X009384Y006673D01*
X009291Y006766D01*
X009170Y006816D01*
X009038Y006816D01*
X008917Y006766D01*
X008824Y006673D01*
X008774Y006552D01*
X008774Y006421D01*
X008824Y006300D01*
X008917Y006207D01*
X009038Y006156D01*
X009165Y006156D01*
X010475Y004846D01*
X010633Y004846D01*
X014127Y004846D01*
X014217Y004757D01*
X014338Y004706D01*
X014470Y004706D01*
X014591Y004757D01*
X014690Y004865D02*
X025199Y004865D01*
X025298Y004963D02*
X014731Y004963D01*
X014734Y005062D02*
X014786Y005062D01*
X014942Y005062D02*
X025396Y005062D01*
X025495Y005160D02*
X015104Y005160D01*
X015168Y005259D02*
X025593Y005259D01*
X025692Y005357D02*
X015194Y005357D01*
X015192Y005456D02*
X025791Y005456D01*
X025889Y005554D02*
X015159Y005554D01*
X015159Y005653D02*
X025988Y005653D01*
X026086Y005751D02*
X015159Y005751D01*
X015159Y005850D02*
X026185Y005850D01*
X026283Y005949D02*
X015183Y005949D01*
X015233Y006047D02*
X026382Y006047D01*
X026480Y006146D02*
X015332Y006146D01*
X015430Y006244D02*
X026554Y006244D01*
X026554Y006343D02*
X015529Y006343D01*
X015627Y006441D02*
X026554Y006441D01*
X026554Y006540D02*
X018724Y006540D01*
X018691Y006507D02*
X018784Y006600D01*
X018834Y006721D01*
X018834Y006848D01*
X021243Y009256D01*
X021270Y009256D01*
X021391Y009307D01*
X021484Y009400D01*
X021534Y009521D01*
X021534Y009652D01*
X021484Y009773D01*
X021391Y009866D01*
X021270Y009916D01*
X021138Y009916D01*
X021017Y009866D01*
X020924Y009773D01*
X020874Y009652D01*
X020874Y009521D01*
X020902Y009453D01*
X018565Y007116D01*
X018438Y007116D01*
X018317Y007066D01*
X018224Y006973D01*
X018174Y006852D01*
X018174Y006721D01*
X018224Y006600D01*
X018317Y006507D01*
X018438Y006456D01*
X018570Y006456D01*
X018691Y006507D01*
X018800Y006638D02*
X026554Y006638D01*
X026554Y006737D02*
X018834Y006737D01*
X018834Y006835D02*
X026554Y006835D01*
X026554Y006934D02*
X018920Y006934D01*
X019019Y007033D02*
X026554Y007033D01*
X026554Y007131D02*
X019117Y007131D01*
X019216Y007230D02*
X026554Y007230D01*
X026554Y007328D02*
X019314Y007328D01*
X019413Y007427D02*
X026554Y007427D01*
X026554Y007525D02*
X019511Y007525D01*
X019610Y007624D02*
X026554Y007624D01*
X026554Y007722D02*
X019709Y007722D01*
X019807Y007821D02*
X026554Y007821D01*
X026554Y007919D02*
X019906Y007919D01*
X020004Y008018D02*
X026554Y008018D01*
X026554Y008117D02*
X020103Y008117D01*
X020201Y008215D02*
X026554Y008215D01*
X026554Y008314D02*
X020300Y008314D01*
X020398Y008412D02*
X026554Y008412D01*
X026554Y008511D02*
X020497Y008511D01*
X020595Y008609D02*
X026554Y008609D01*
X026554Y008708D02*
X020694Y008708D01*
X020793Y008806D02*
X026554Y008806D01*
X026554Y008905D02*
X020891Y008905D01*
X020990Y009003D02*
X026554Y009003D01*
X026554Y009102D02*
X021088Y009102D01*
X021187Y009201D02*
X026554Y009201D01*
X026554Y009299D02*
X021372Y009299D01*
X021482Y009398D02*
X026554Y009398D01*
X026554Y009496D02*
X021524Y009496D01*
X021534Y009595D02*
X026554Y009595D01*
X026554Y009693D02*
X021517Y009693D01*
X021465Y009792D02*
X026554Y009792D01*
X026554Y009890D02*
X021333Y009890D01*
X021075Y009890D02*
X013214Y009890D01*
X013214Y009950D02*
X013304Y010040D01*
X013354Y010161D01*
X013354Y010292D01*
X013304Y010413D01*
X013211Y010506D01*
X013090Y010556D01*
X012958Y010556D01*
X012837Y010506D01*
X012744Y010413D01*
X012694Y010292D01*
X012694Y010161D01*
X012744Y010040D01*
X012834Y009950D01*
X012834Y008625D01*
X012834Y008468D01*
X013574Y007728D01*
X013574Y007601D01*
X013624Y007480D01*
X013717Y007387D01*
X013838Y007336D01*
X013970Y007336D01*
X014091Y007387D01*
X014184Y007480D01*
X014234Y007601D01*
X014234Y007732D01*
X014184Y007853D01*
X014091Y007946D01*
X013970Y007996D01*
X013843Y007996D01*
X013214Y008625D01*
X013214Y009950D01*
X013253Y009989D02*
X026554Y009989D01*
X026554Y010087D02*
X013323Y010087D01*
X013354Y010186D02*
X026554Y010186D01*
X026554Y010284D02*
X013354Y010284D01*
X013316Y010383D02*
X026554Y010383D01*
X026554Y010482D02*
X013235Y010482D01*
X012812Y010482D02*
X002454Y010482D01*
X002454Y010383D02*
X012732Y010383D01*
X012694Y010284D02*
X002454Y010284D01*
X002454Y010186D02*
X012694Y010186D01*
X012724Y010087D02*
X002454Y010087D01*
X002454Y009989D02*
X012795Y009989D01*
X012834Y009890D02*
X002454Y009890D01*
X002454Y009792D02*
X012834Y009792D01*
X012834Y009693D02*
X002454Y009693D01*
X002454Y009595D02*
X012834Y009595D01*
X012834Y009496D02*
X002454Y009496D01*
X002454Y009398D02*
X012834Y009398D01*
X012834Y009299D02*
X002454Y009299D01*
X002454Y009201D02*
X012834Y009201D01*
X012834Y009102D02*
X007804Y009102D01*
X007954Y009003D02*
X012834Y009003D01*
X012834Y008905D02*
X008012Y008905D01*
X008034Y008806D02*
X012834Y008806D01*
X012834Y008708D02*
X008051Y008708D01*
X008150Y008609D02*
X012834Y008609D01*
X012834Y008511D02*
X008248Y008511D01*
X008347Y008412D02*
X012889Y008412D01*
X012988Y008314D02*
X008445Y008314D01*
X008544Y008215D02*
X013087Y008215D01*
X013185Y008117D02*
X008643Y008117D01*
X008741Y008018D02*
X013284Y008018D01*
X013382Y007919D02*
X008840Y007919D01*
X008938Y007821D02*
X013481Y007821D01*
X013574Y007722D02*
X009037Y007722D01*
X009135Y007624D02*
X013574Y007624D01*
X013605Y007525D02*
X009234Y007525D01*
X009332Y007427D02*
X013677Y007427D01*
X014131Y007427D02*
X014756Y007427D01*
X014854Y007525D02*
X014203Y007525D01*
X014234Y007624D02*
X014953Y007624D01*
X015051Y007722D02*
X014234Y007722D01*
X014197Y007821D02*
X015094Y007821D01*
X015105Y007919D02*
X014118Y007919D01*
X013821Y008018D02*
X015149Y008018D01*
X015262Y008117D02*
X013723Y008117D01*
X013624Y008215D02*
X016248Y008215D01*
X016214Y008117D02*
X016066Y008117D01*
X016179Y008018D02*
X016214Y008018D01*
X016324Y008314D02*
X013525Y008314D01*
X013427Y008412D02*
X019861Y008412D01*
X019762Y008314D02*
X016763Y008314D01*
X016840Y008215D02*
X019664Y008215D01*
X019565Y008117D02*
X016874Y008117D01*
X016874Y008018D02*
X019467Y008018D01*
X019368Y007919D02*
X016840Y007919D01*
X016776Y007821D02*
X019270Y007821D01*
X019171Y007722D02*
X016833Y007722D01*
X016854Y007624D02*
X019073Y007624D01*
X018974Y007525D02*
X016847Y007525D01*
X016807Y007427D02*
X018876Y007427D01*
X018777Y007328D02*
X016712Y007328D01*
X016416Y007230D02*
X018678Y007230D01*
X018580Y007131D02*
X016317Y007131D01*
X016219Y007033D02*
X018283Y007033D01*
X018208Y006934D02*
X016120Y006934D01*
X016022Y006835D02*
X018174Y006835D01*
X018174Y006737D02*
X015923Y006737D01*
X015825Y006638D02*
X018208Y006638D01*
X018284Y006540D02*
X015726Y006540D01*
X014558Y007230D02*
X009529Y007230D01*
X009431Y007328D02*
X014657Y007328D01*
X014460Y007131D02*
X009628Y007131D01*
X009726Y007033D02*
X014361Y007033D01*
X014263Y006934D02*
X009825Y006934D01*
X009924Y006835D02*
X014164Y006835D01*
X014114Y006737D02*
X010022Y006737D01*
X010121Y006638D02*
X014114Y006638D01*
X014114Y006540D02*
X010219Y006540D01*
X010318Y006441D02*
X014114Y006441D01*
X014114Y006343D02*
X010416Y006343D01*
X010515Y006244D02*
X014114Y006244D01*
X014114Y006146D02*
X010613Y006146D01*
X010712Y006047D02*
X014114Y006047D01*
X014114Y005949D02*
X010810Y005949D01*
X010909Y005850D02*
X014172Y005850D01*
X014202Y005751D02*
X011008Y005751D01*
X010766Y005456D02*
X010403Y005456D01*
X010305Y005554D02*
X010667Y005554D01*
X010569Y005653D02*
X010206Y005653D01*
X010108Y005751D02*
X010470Y005751D01*
X010372Y005850D02*
X010009Y005850D01*
X009910Y005949D02*
X010273Y005949D01*
X010175Y006047D02*
X009812Y006047D01*
X009713Y006146D02*
X010076Y006146D01*
X009977Y006244D02*
X009615Y006244D01*
X009516Y006343D02*
X009879Y006343D01*
X009780Y006441D02*
X009434Y006441D01*
X009434Y006540D02*
X009682Y006540D01*
X009583Y006638D02*
X009398Y006638D01*
X009320Y006737D02*
X009485Y006737D01*
X009386Y006835D02*
X002454Y006835D01*
X002454Y006737D02*
X008888Y006737D01*
X008810Y006638D02*
X002454Y006638D01*
X002454Y006540D02*
X008774Y006540D01*
X008774Y006441D02*
X002454Y006441D01*
X002454Y006343D02*
X008806Y006343D01*
X008879Y006244D02*
X002454Y006244D01*
X002528Y006146D02*
X009176Y006146D01*
X009275Y006047D02*
X002626Y006047D01*
X002725Y005949D02*
X009373Y005949D01*
X009472Y005850D02*
X002823Y005850D01*
X002922Y005751D02*
X009570Y005751D01*
X009669Y005653D02*
X003020Y005653D01*
X003119Y005554D02*
X009767Y005554D01*
X009866Y005456D02*
X003217Y005456D01*
X003316Y005357D02*
X009964Y005357D01*
X010063Y005259D02*
X003414Y005259D01*
X003513Y005160D02*
X010161Y005160D01*
X010260Y005062D02*
X003611Y005062D01*
X003710Y004963D02*
X010359Y004963D01*
X010457Y004865D02*
X003809Y004865D01*
X003907Y004766D02*
X014208Y004766D01*
X014160Y005259D02*
X010600Y005259D01*
X010502Y005357D02*
X010864Y005357D01*
X009288Y006934D02*
X002454Y006934D01*
X002454Y007033D02*
X009189Y007033D01*
X009091Y007131D02*
X002454Y007131D01*
X002454Y007230D02*
X008992Y007230D01*
X008893Y007328D02*
X002454Y007328D01*
X002454Y007427D02*
X008795Y007427D01*
X008696Y007525D02*
X002454Y007525D01*
X002454Y007624D02*
X008598Y007624D01*
X008499Y007722D02*
X002454Y007722D01*
X002454Y007821D02*
X008401Y007821D01*
X008302Y007919D02*
X002454Y007919D01*
X002454Y008018D02*
X008204Y008018D01*
X008105Y008117D02*
X002454Y008117D01*
X002454Y008215D02*
X008007Y008215D01*
X007908Y008314D02*
X002454Y008314D01*
X002454Y008412D02*
X007809Y008412D01*
X007513Y008511D02*
X002454Y008511D01*
X002454Y008609D02*
X007420Y008609D01*
X007379Y008708D02*
X002454Y008708D01*
X002454Y008806D02*
X007374Y008806D01*
X007396Y008905D02*
X002454Y008905D01*
X002454Y009003D02*
X007454Y009003D01*
X007603Y009102D02*
X002454Y009102D01*
X002480Y010580D02*
X026527Y010580D01*
X026429Y010679D02*
X002579Y010679D01*
X002677Y010777D02*
X026330Y010777D01*
X026232Y010876D02*
X002776Y010876D01*
X002875Y010974D02*
X026133Y010974D01*
X026035Y011073D02*
X002973Y011073D01*
X003072Y011171D02*
X025936Y011171D01*
X025838Y011270D02*
X003170Y011270D01*
X003269Y011368D02*
X025739Y011368D01*
X025641Y011467D02*
X003367Y011467D01*
X003466Y011566D02*
X025542Y011566D01*
X025443Y011664D02*
X003564Y011664D01*
X003663Y011763D02*
X025345Y011763D01*
X020943Y009792D02*
X013214Y009792D01*
X013214Y009693D02*
X020891Y009693D01*
X020874Y009595D02*
X013214Y009595D01*
X013214Y009496D02*
X020884Y009496D01*
X020846Y009398D02*
X013214Y009398D01*
X013214Y009299D02*
X020748Y009299D01*
X020649Y009201D02*
X013214Y009201D01*
X013214Y009102D02*
X020551Y009102D01*
X020452Y009003D02*
X013214Y009003D01*
X013214Y008905D02*
X020354Y008905D01*
X020255Y008806D02*
X013214Y008806D01*
X013214Y008708D02*
X020157Y008708D01*
X020058Y008609D02*
X013230Y008609D01*
X013328Y008511D02*
X019960Y008511D01*
X015742Y008117D02*
X015586Y008117D01*
D11*
X015424Y007826D03*
X015904Y007826D03*
X016524Y007606D03*
X016544Y008066D03*
X016844Y008866D03*
X014444Y008066D03*
X013904Y007666D03*
X013024Y007746D03*
X013024Y007266D03*
X014604Y006446D03*
X014914Y006146D03*
X014404Y005486D03*
X014864Y005386D03*
X014404Y005036D03*
X017544Y005886D03*
X017844Y006186D03*
X018504Y006786D03*
X015284Y007006D03*
X014404Y010086D03*
X013024Y010226D03*
X012344Y010136D03*
X012344Y010636D03*
X012344Y011136D03*
X012544Y011636D03*
X012044Y011636D03*
X011544Y011636D03*
X011044Y011636D03*
X010544Y011636D03*
X010044Y011636D03*
X009544Y011636D03*
X009044Y011636D03*
X008544Y011636D03*
X008044Y011636D03*
X007544Y011636D03*
X007044Y011636D03*
X006544Y011636D03*
X006044Y011636D03*
X005544Y011636D03*
X005044Y011636D03*
X004544Y011636D03*
X004044Y011636D03*
X003504Y011136D03*
X003004Y010636D03*
X007704Y008786D03*
X009104Y006486D03*
X017004Y011136D03*
X017004Y011636D03*
X016504Y011636D03*
X016004Y011636D03*
X017504Y011636D03*
X018004Y011636D03*
X018504Y011636D03*
X019004Y011636D03*
X019504Y011636D03*
X020004Y011636D03*
X020504Y011636D03*
X021004Y011636D03*
X021504Y011636D03*
X022004Y011636D03*
X022504Y011636D03*
X023004Y011636D03*
X023504Y011636D03*
X024004Y011636D03*
X024504Y011636D03*
X025004Y011636D03*
X025504Y011136D03*
X026004Y010636D03*
X021204Y009586D03*
X019004Y010636D03*
X019004Y011136D03*
X013544Y011636D03*
X013044Y011636D03*
D12*
X013024Y010226D02*
X013024Y008546D01*
X013904Y007666D01*
X014604Y006766D02*
X015184Y007346D01*
X015424Y007346D01*
X015904Y007826D01*
X015424Y007826D02*
X014304Y006706D01*
X014304Y005986D01*
X014864Y005426D01*
X014404Y005486D02*
X011004Y005486D01*
X007704Y008786D01*
X009104Y006486D02*
X010554Y005036D01*
X014404Y005036D01*
X014914Y006146D02*
X015064Y006146D01*
X016524Y007606D01*
X016544Y008026D02*
X015524Y007006D01*
X015284Y007006D01*
X014604Y006766D02*
X014604Y006446D01*
X018504Y006786D02*
X021204Y009486D01*
X021204Y009586D01*
D13*
X016544Y008066D02*
X016544Y008026D01*
X014864Y005426D02*
X014864Y005386D01*
M02*
