G75*
G70*
%OFA0B0*%
%FSLAX24Y24*%
%IPPOS*%
%LPD*%
%AMOC8*
5,1,8,0,0,1.08239X$1,22.5*
%
%ADD10R,0.0474X0.0474*%
%ADD11R,0.0336X0.0198*%
%ADD12R,0.0198X0.0336*%
%ADD13R,0.0434X0.0356*%
%ADD14R,0.0474X0.0513*%
%ADD15R,0.0513X0.0828*%
%ADD16R,0.0356X0.0434*%
%ADD17R,0.1080X0.0480*%
%ADD18R,0.1852X0.0671*%
%ADD19R,0.0680X0.0380*%
%ADD20R,0.0474X0.1891*%
%ADD21R,0.0710X0.1419*%
%ADD22C,0.0440*%
D10*
X016204Y006086D03*
X015304Y009086D03*
D11*
X014556Y009086D03*
X014556Y008890D03*
X014556Y008693D03*
X014556Y009283D03*
X014556Y009480D03*
X016052Y009480D03*
X016052Y009283D03*
X016052Y009086D03*
X016052Y008890D03*
X016052Y008693D03*
X015456Y006480D03*
X015456Y006283D03*
X015456Y006086D03*
X015456Y005890D03*
X015456Y005693D03*
X016952Y005693D03*
X016952Y005890D03*
X016952Y006086D03*
X016952Y006283D03*
X016952Y006480D03*
D12*
X016598Y006834D03*
X016401Y006834D03*
X016204Y006834D03*
X016007Y006834D03*
X015810Y006834D03*
X015698Y008338D03*
X015501Y008338D03*
X015304Y008338D03*
X015107Y008338D03*
X014910Y008338D03*
X014910Y009834D03*
X015107Y009834D03*
X015304Y009834D03*
X015501Y009834D03*
X015698Y009834D03*
X015810Y005338D03*
X016007Y005338D03*
X016204Y005338D03*
X016401Y005338D03*
X016598Y005338D03*
D13*
X013904Y008231D03*
X013904Y008742D03*
X010604Y008642D03*
X010604Y008131D03*
X014784Y010831D03*
X014784Y011342D03*
X014804Y011731D03*
X014304Y011731D03*
X014304Y012242D03*
X014804Y012242D03*
D14*
X013904Y010421D03*
X013904Y009752D03*
X016684Y009532D03*
X016684Y010201D03*
D15*
X017391Y010235D03*
X018297Y010235D03*
X018297Y008778D03*
X017391Y008778D03*
D16*
X017688Y008106D03*
X018200Y008106D03*
X017560Y007186D03*
X017048Y007186D03*
X015660Y010426D03*
X015148Y010426D03*
X015608Y010926D03*
X016120Y010926D03*
X017728Y011026D03*
X018240Y011026D03*
D17*
X014504Y012686D03*
X014504Y015286D03*
D18*
X019953Y009568D03*
X019953Y008780D03*
X019953Y007993D03*
X019953Y007205D03*
X009055Y007205D03*
X009055Y007993D03*
X009055Y008780D03*
X009055Y009568D03*
D19*
X011004Y009466D03*
X013004Y009466D03*
X013004Y010966D03*
X011004Y010966D03*
D20*
X011610Y007343D03*
X012398Y007343D03*
D21*
X010665Y005296D03*
X013343Y005296D03*
D22*
X016524Y007606D03*
X015904Y007826D03*
X015424Y007826D03*
M02*
