G75*
G70*
%OFA0B0*%
%FSLAX24Y24*%
%IPPOS*%
%LPD*%
%AMOC8*
5,1,8,0,0,1.08239X$1,22.5*
%
%ADD10C,0.0040*%
%ADD11C,0.0100*%
%ADD12C,0.0200*%
D10*
X001435Y010483D02*
X001521Y010483D01*
X001435Y010483D02*
X001348Y010570D01*
X001348Y011003D01*
X001695Y011003D02*
X001695Y010743D01*
X001608Y010656D01*
X001348Y010656D01*
X001863Y010656D02*
X001863Y010917D01*
X001950Y011003D01*
X002124Y011003D01*
X002124Y010830D02*
X001863Y010830D01*
X001863Y010656D02*
X002124Y010656D01*
X002210Y010743D01*
X002124Y010830D01*
X002379Y010743D02*
X002379Y011003D01*
X002379Y010743D02*
X002466Y010656D01*
X002553Y010743D01*
X002639Y010656D01*
X002726Y010743D01*
X002726Y011003D01*
X002895Y010917D02*
X002895Y010656D01*
X003242Y010656D02*
X003242Y011003D01*
X002981Y011003D01*
X002895Y010917D01*
X003410Y010917D02*
X003410Y010830D01*
X003757Y010830D01*
X003757Y010743D02*
X003757Y010917D01*
X003671Y011003D01*
X003497Y011003D01*
X003410Y010917D01*
X003671Y010656D02*
X003757Y010743D01*
X003671Y010656D02*
X003497Y010656D01*
X003926Y010830D02*
X004273Y010830D01*
X004273Y010743D02*
X004273Y010917D01*
X004186Y011003D01*
X004013Y011003D01*
X003926Y010917D01*
X003926Y010830D01*
X004013Y010656D02*
X004186Y010656D01*
X004273Y010743D01*
X004442Y011003D02*
X004529Y011003D01*
X004703Y010830D01*
X004703Y011003D02*
X004703Y010656D01*
X004871Y010743D02*
X004871Y010917D01*
X005045Y010917D01*
X005218Y011090D02*
X005218Y010743D01*
X005131Y010656D01*
X004958Y010656D01*
X004871Y010743D01*
X004871Y011090D02*
X004958Y011177D01*
X005131Y011177D01*
X005218Y011090D01*
X005903Y011090D02*
X005903Y010743D01*
X005989Y010656D01*
X006249Y010656D01*
X006249Y011177D01*
X005989Y011177D01*
X005903Y011090D01*
X006934Y010917D02*
X006934Y010656D01*
X007281Y010656D02*
X007281Y011003D01*
X007021Y011003D01*
X006934Y010917D01*
X007449Y010917D02*
X007449Y010830D01*
X007796Y010830D01*
X007796Y010743D02*
X007796Y010917D01*
X007710Y011003D01*
X007536Y011003D01*
X007449Y010917D01*
X007710Y010656D02*
X007796Y010743D01*
X007710Y010656D02*
X007536Y010656D01*
X007966Y011003D02*
X008053Y011003D01*
X008226Y010830D01*
X008226Y011003D02*
X008226Y010656D01*
X008656Y010656D02*
X008656Y011003D01*
X008656Y010830D02*
X008482Y011003D01*
X008396Y011003D01*
X008824Y010917D02*
X008824Y010656D01*
X009085Y010656D01*
X009171Y010743D01*
X009085Y010830D01*
X008824Y010830D01*
X008824Y010917D02*
X008911Y011003D01*
X009085Y011003D01*
X009340Y011177D02*
X009340Y010656D01*
X009514Y010830D01*
X009687Y010656D01*
X009687Y011177D01*
X010371Y011177D02*
X010371Y010656D01*
X010631Y010656D01*
X010718Y010743D01*
X010718Y010917D01*
X010631Y011003D01*
X010371Y011003D01*
X010887Y010917D02*
X010887Y010656D01*
X011234Y010656D02*
X011234Y011003D01*
X010974Y011003D01*
X010887Y010917D01*
X011403Y010917D02*
X011403Y010656D01*
X011663Y010656D01*
X011749Y010743D01*
X011663Y010830D01*
X011403Y010830D01*
X011403Y010917D02*
X011489Y011003D01*
X011663Y011003D01*
X012434Y010917D02*
X012434Y010656D01*
X012781Y010656D02*
X012781Y011003D01*
X012521Y011003D01*
X012434Y010917D01*
X012949Y010917D02*
X012949Y010656D01*
X013210Y010656D01*
X013296Y010743D01*
X013210Y010830D01*
X012949Y010830D01*
X012949Y010917D02*
X013036Y011003D01*
X013210Y011003D01*
X013465Y010917D02*
X013465Y010656D01*
X013639Y010656D02*
X013639Y010917D01*
X013552Y011003D01*
X013465Y010917D01*
X013639Y010917D02*
X013725Y011003D01*
X013812Y011003D01*
X013812Y010656D01*
X013982Y010656D02*
X014156Y010656D01*
X014069Y010656D02*
X014069Y011177D01*
X014156Y011177D01*
X014411Y011003D02*
X014324Y010917D01*
X014324Y010830D01*
X014671Y010830D01*
X014671Y010743D02*
X014671Y010917D01*
X014585Y011003D01*
X014411Y011003D01*
X014671Y010743D02*
X014585Y010656D01*
X014411Y010656D01*
X014842Y010656D02*
X014928Y010743D01*
X014928Y011090D01*
X014842Y011003D02*
X015015Y011003D01*
X015272Y011003D02*
X015272Y010656D01*
X015359Y010656D02*
X015185Y010656D01*
X015528Y010830D02*
X015874Y010830D01*
X015874Y010743D02*
X015874Y010917D01*
X015788Y011003D01*
X015614Y011003D01*
X015528Y010917D01*
X015528Y010830D01*
X015614Y010656D02*
X015788Y010656D01*
X015874Y010743D01*
X016217Y010656D02*
X016217Y011177D01*
X016390Y011177D02*
X016043Y011177D01*
X015359Y011003D02*
X015272Y011003D01*
X015272Y011177D02*
X015272Y011264D01*
X017074Y010917D02*
X017074Y010656D01*
X017421Y010656D02*
X017421Y011003D01*
X017161Y011003D01*
X017074Y010917D01*
X017590Y010917D02*
X017590Y010656D01*
X017850Y010656D01*
X017937Y010743D01*
X017850Y010830D01*
X017590Y010830D01*
X017590Y010917D02*
X017677Y011003D01*
X017850Y011003D01*
X018106Y011003D02*
X018279Y010656D01*
X018453Y011003D01*
X018621Y011177D02*
X018968Y011177D01*
X018968Y010656D01*
X018621Y010656D01*
X018795Y010917D02*
X018968Y010917D01*
X019653Y011003D02*
X019653Y010570D01*
X019739Y010483D01*
X019826Y010483D01*
X019913Y010656D02*
X019653Y010656D01*
X019913Y010656D02*
X020000Y010743D01*
X020000Y011003D01*
X020168Y011003D02*
X020168Y011090D01*
X020255Y011177D01*
X020515Y011177D01*
X020515Y010656D01*
X020255Y010656D01*
X020168Y010743D01*
X020168Y010830D01*
X020255Y010917D01*
X020515Y010917D01*
X020255Y010917D02*
X020168Y011003D01*
X021199Y011003D02*
X021460Y011003D01*
X021546Y010917D01*
X021546Y010743D01*
X021460Y010656D01*
X021199Y010656D01*
X021199Y011177D01*
X021715Y010917D02*
X021715Y010830D01*
X022062Y010830D01*
X022062Y010743D02*
X022062Y010917D01*
X021975Y011003D01*
X021802Y011003D01*
X021715Y010917D01*
X021975Y010656D02*
X022062Y010743D01*
X021975Y010656D02*
X021802Y010656D01*
X022231Y010656D02*
X022231Y010917D01*
X022317Y011003D01*
X022578Y011003D01*
X022578Y010656D01*
X022746Y010656D02*
X023007Y010656D01*
X023093Y010743D01*
X023093Y010917D01*
X023007Y011003D01*
X022746Y011003D01*
X022746Y010570D01*
X022833Y010483D01*
X022920Y010483D01*
X023264Y010656D02*
X023437Y010656D01*
X023350Y010656D02*
X023350Y011003D01*
X023437Y011003D01*
X023606Y011003D02*
X023866Y011003D01*
X023953Y010917D01*
X023866Y010830D01*
X023692Y010830D01*
X023606Y010743D01*
X023692Y010656D01*
X023953Y010656D01*
X024121Y010830D02*
X024468Y010830D01*
X024468Y010743D02*
X024468Y010917D01*
X024382Y011003D01*
X024208Y011003D01*
X024121Y010917D01*
X024121Y010830D01*
X024208Y010656D02*
X024382Y010656D01*
X024468Y010743D01*
X024637Y010743D02*
X024724Y010656D01*
X024984Y010656D01*
X024984Y011177D01*
X024724Y011177D01*
X024637Y011090D01*
X024637Y010743D01*
X023350Y011177D02*
X023350Y011264D01*
D11*
X004004Y004386D02*
X002254Y006136D01*
X002254Y010636D01*
X003754Y012136D01*
X009754Y012136D01*
X013354Y015736D01*
X015654Y015736D01*
X019254Y012136D01*
X025254Y012136D01*
X026754Y010636D01*
X026754Y006136D01*
X025004Y004386D01*
X004004Y004386D01*
D12*
X010704Y012086D02*
X013604Y014986D01*
X014204Y014986D02*
X011304Y012086D01*
X011904Y012086D02*
X014504Y014686D01*
X017104Y012086D01*
X017704Y012086D02*
X014804Y014986D01*
X015404Y014986D02*
X018304Y012086D01*
X016504Y012086D02*
X014504Y014086D01*
X012504Y012086D01*
X013104Y012086D02*
X014504Y013486D01*
X015904Y012086D01*
X015304Y012086D02*
X014504Y012886D01*
X013704Y012086D01*
X014304Y012086D02*
X014504Y012286D01*
X014704Y012086D01*
M02*
