G75*
G70*
%OFA0B0*%
%FSLAX24Y24*%
%IPPOS*%
%LPD*%
%AMOC8*
5,1,8,0,0,1.08239X$1,22.5*
%
%ADD10C,0.0040*%
%ADD11C,0.0100*%
%ADD12C,0.0200*%
D10*
X011224Y008406D02*
X011224Y008867D01*
X011454Y008867D01*
X011531Y008790D01*
X011531Y008637D01*
X011454Y008560D01*
X011224Y008560D01*
X011684Y008406D02*
X011684Y008867D01*
X011991Y008867D02*
X011991Y008406D01*
X011838Y008560D01*
X011684Y008406D01*
X012145Y008406D02*
X012145Y008867D01*
X012375Y008867D01*
X012452Y008790D01*
X012452Y008637D01*
X012375Y008560D01*
X012145Y008560D01*
X012298Y008560D02*
X012452Y008406D01*
D11*
X004004Y004386D02*
X002254Y006136D01*
X002254Y010636D01*
X003754Y012136D01*
X009754Y012136D01*
X013354Y015736D01*
X015654Y015736D01*
X019254Y012136D01*
X025254Y012136D01*
X026754Y010636D01*
X026754Y006136D01*
X025004Y004386D01*
X004004Y004386D01*
D12*
X010704Y012086D02*
X013604Y014986D01*
X013604Y014386D02*
X011304Y012086D01*
X011904Y012086D02*
X013604Y013786D01*
X013604Y013186D02*
X012504Y012086D01*
X013104Y012086D02*
X013604Y012586D01*
X015404Y012586D02*
X015904Y012086D01*
X016504Y012086D02*
X015404Y013186D01*
X015404Y013786D02*
X017104Y012086D01*
X017704Y012086D02*
X015404Y014386D01*
X015404Y014986D02*
X018304Y012086D01*
M02*
