%
M48
M72
T01C0.0200
%
T01
X9104Y6486
X13024Y7266
X13904Y7666
X13024Y7746
X14444Y8066
X15424Y7826
X15904Y7826
X16524Y7606
X16544Y8066
X16844Y8866
X14404Y10086
X13024Y10226
X12344Y10136
X12344Y10636
X12344Y11136
X12544Y11636
X12044Y11636
X11544Y11636
X11044Y11636
X10544Y11636
X10044Y11636
X9544Y11636
X9044Y11636
X8544Y11636
X8044Y11636
X7544Y11636
X7044Y11636
X6544Y11636
X6044Y11636
X5544Y11636
X5044Y11636
X4544Y11636
X4044Y11636
X3504Y11136
X3004Y10636
X7704Y8786
X13044Y11636
X13544Y11636
X16004Y11636
X16504Y11636
X17004Y11636
X17504Y11636
X18004Y11636
X18504Y11636
X19004Y11636
X19504Y11636
X20004Y11636
X20504Y11636
X21004Y11636
X21504Y11636
X22004Y11636
X22504Y11636
X23004Y11636
X23504Y11636
X24004Y11636
X24504Y11636
X25004Y11636
X25504Y11136
X26004Y10636
X21204Y9586
X19004Y10636
X19004Y11136
X17004Y11136
X15284Y7006
X14604Y6446
X14914Y6146
X14404Y5486
X14864Y5386
X14404Y5036
X17544Y5886
X17844Y6186
X18504Y6786
M30
